<?xml version="1.0" encoding="utf-8"?>
<!-- Generator: Adobe Illustrator 16.0.0, SVG Export Plug-In . SVG Version: 6.00 Build 0)  -->
<!DOCTYPE svg PUBLIC "-//W3C//DTD SVG 1.1//EN" "http://www.w3.org/Graphics/SVG/1.1/DTD/svg11.dtd">
<svg version="1.1" id="Layer_1" xmlns="http://www.w3.org/2000/svg" xmlns:xlink="http://www.w3.org/1999/xlink" x="0px" y="0px"
	 width="110px" height="110px" viewBox="0 0 110 110" enable-background="new 0 0 110 110" xml:space="preserve">
<g>
	<g>
		<path fill="#231F20" d="M25.649,22.184c11.959,9.506,20.271,23.679,30.103,35.24c5.052,5.94,10.776,11.055,16.265,16.559
			c4.967,4.979,8.135,11.269,13.715,15.702c2.496,1.983,6.06-1.529,3.535-3.535c-5.534-4.397-8.938-10.597-13.714-15.703
			c-5.302-5.668-11.163-10.663-16.266-16.558c-9.961-11.507-18.105-25.703-30.104-35.239C26.688,16.665,23.125,20.178,25.649,22.184
			L25.649,22.184z"/>
	</g>
</g>
<g>
	<g>
		<path fill="#231F20" d="M27.659,82.512c6.713-12.479,16.294-21.829,26.77-31.128c5.244-4.656,10.392-9.402,15.192-14.518
			c4.779-5.092,8.535-10.873,12.896-16.265c2.008-2.482-1.507-6.043-3.535-3.535c-4.358,5.388-8.197,11.11-12.896,16.264
			c-4.721,5.177-9.968,9.864-15.193,14.518c-10.774,9.597-20.644,19.299-27.552,32.14C21.814,82.827,26.131,85.352,27.659,82.512
			L27.659,82.512z"/>
	</g>
</g>
</svg>
