<?xml version="1.0" encoding="utf-8"?>
<!-- Generator: Adobe Illustrator 16.0.0, SVG Export Plug-In . SVG Version: 6.00 Build 0)  -->
<!DOCTYPE svg PUBLIC "-//W3C//DTD SVG 1.1//EN" "http://www.w3.org/Graphics/SVG/1.1/DTD/svg11.dtd">
<svg version="1.1" id="Layer_1" xmlns="http://www.w3.org/2000/svg" xmlns:xlink="http://www.w3.org/1999/xlink" x="0px" y="0px"
	 width="100.167px" height="46.669px" viewBox="-36.985 -13.269 100.167 46.669"
	 enable-background="new -36.985 -13.269 100.167 46.669" xml:space="preserve">
<g>
	<path fill="#FFFFFF" d="M62.175,14.611c-9.046-1.545-16.299,0.239-23.913,1.266c-2.67,0.359,2.685-4.623,0.279-8.609
		c-2.56-4.244-15.367-5.547-18.825-6.372c-4.99-1.194-9.571,12.336-14.827,11.391C-8.282,9.916-21.757,7.551-32.901,1.298
		c0.761,9.508,9.89,19.015,17.494,24.72h0.38h6.466h-5.325l42.328,1.926l28.396-1.267L62.175,14.611z"/>
	<path fill="#FFFFFF" d="M26.467,16.108"/>
	<path d="M61.402,13.36c-15.212-1.902-29.284,3.423-44.496,0C-0.208,9.556-17.702,8.416-33.675,0.049
		c-0.76-0.38-1.901,0.38-1.521,1.521c1.521,9.127,7.606,16.353,14.451,22.438c4.184,3.803,5.705,3.042,11.029,3.042
		c1.521,0,1.521-2.281,0-2.281h-5.324c-1.521,0-1.521,2.281,0,2.281h5.324v-2.281c-4.563,0-6.084,0.38-9.507-2.283
		c-6.465-5.704-12.55-12.93-14.071-21.676c-0.38,0.38-1.141,0.76-1.521,1.521C-20.365,9.556-4.391,11.839,11.583,14.5
		c7.606,1.521,14.451,3.042,22.057,2.663c9.127-0.761,17.874-3.042,27.002-1.521C62.163,15.641,62.924,13.36,61.402,13.36
		L61.402,13.36z"/>
</g>
<g>
	<path d="M43.908,21.726c0.17-0.072,0.339-0.149,0.508-0.226c0.24,0.222,0.579,0.334,1.016,0.226
		c1.901-0.381,3.803-1.142,5.323-1.521c0.786-0.196,1.062-0.9,0.937-1.481c0.067-0.012,0.136-0.03,0.203-0.04
		c1.521-0.38,0.761-2.662-0.381-2.281c-3.042,0.38-5.703,2.281-8.366,3.042C41.626,20.205,42.386,22.106,43.908,21.726z"/>
	<path d="M12.725,22.106c0-1.141,0.38-2.662,0-4.184c-0.38-0.38-0.76,0-0.76,0.381c0.38,1.141,0,2.662,0,3.803
		C11.965,22.486,12.725,22.486,12.725,22.106z"/>
	<path d="M13.102,17.543v4.184c0.38,0.38,1.141,0.38,0.761,0v-4.184C14.243,17.163,13.483,17.163,13.102,17.543z"/>
	<path d="M15.004,19.825c-0.38,1.521-0.38,3.042-0.38,4.563c0,0.381,0.761,0.381,0.761,0c0-1.521,0-3.043,0.38-4.184
		C15.764,19.444,15.004,19.444,15.004,19.825z"/>
	<path d="M-7.431,28.571c-3.803,0-7.225,0-10.648-0.38c-0.761-0.38-5.324-1.141-5.324-1.901l3.042-0.761c0.761,0,0.38-0.76,0-0.76
		c-1.141,0.38-2.282,0.76-3.422,0.76c-0.38,0-0.38,0-0.38,0.381v0.761v0.38c5.323,2.281,11.027,2.662,16.733,2.281
		C-7.051,29.332-7.051,28.571-7.431,28.571z"/>
	<path d="M57.6,29.332c-0.38-0.38-0.761,0.381-0.38,0.381c0.19,0.19,0.38,0.285,0.522,0.38h-4.706c-0.381,0-0.381,0.761,0,0.761
		h5.324l0.38-0.381C58.741,29.332,58.361,29.713,57.6,29.332z"/>
	<path d="M57.599,27.43h0.76c0.381,0,0.381-0.76,0-0.76h-0.76C57.219,26.671,57.219,27.43,57.599,27.43z"/>
	<path d="M-22.263,30.472c-1.521-0.38-3.042-0.38-4.183-1.141c-0.38,0-1.901-0.761-1.901-1.521c0,0.38,1.141,0,1.141,0
		c0.38-0.381,0.38-1.141,0-0.761c-0.76,0-1.141,0.38-1.902,0.38v0.381c0,1.521,2.282,2.281,3.423,2.661
		c3.042,1.142,6.085,0.381,8.747,0.761c0.38,0.381,0.76-0.38,0.38-0.761H-22.263z"/>
	<path d="M-23.406,12.979c0.053,0.035,0.102,0.065,0.152,0.099c0.088,0.355,0.216,0.697,0.399,0.992
		c0.069,0.145,0.138,0.289,0.209,0.431h0.152c0.174,0.164,0.372,0.302,0.609,0.38c0.76,0.38,1.521-0.76,2.282-1.521
		c0,0-0.38-0.38-0.76-0.38v-0.76h-0.38c-0.045,0-0.09,0.006-0.133,0.016c-0.056-0.011-0.129-0.016-0.248-0.016h-0.494
		c0.103-1.333,0.113-2.574,0.113-3.803c0-0.761-0.76-0.761-0.76,0c0,1.268-0.01,2.535-0.123,3.803h-0.213
		c-0.02-0.127-0.044-0.253-0.044-0.38c-0.38-0.381-0.761-0.381-0.761,0c0,0.184,0.014,0.378,0.035,0.575
		C-23.571,12.639-23.661,12.979-23.406,12.979z M-21.835,14.134c0.018-0.115,0.03-0.225,0.045-0.337
		c0.237,0.061,0.486,0.093,0.758,0.09C-21.248,14.127-21.506,14.272-21.835,14.134z"/>
	<path d="M-28.738,12.462c0.011,0.016,0.021,0.032,0.033,0.048c0.129,0.508,0.258,1.004,0.394,1.499
		c0.025,0.204,0.075,0.403,0.161,0.585c0.062,0.221,0.122,0.452,0.184,0.667c0,0.38,0.76,0.38,0.76-0.38
		c-0.019-0.066-0.037-0.133-0.056-0.199c0.065,0.043,0.136,0.073,0.206,0.107c0.189,0.785,0.382,1.579,0.609,2.374
		c0.38,0.38,1.142,0.38,0.761,0c0-0.127-0.002-0.252-0.004-0.377l0.004-0.003c-0.001-0.004-0.002-0.009-0.004-0.013
		c0-0.028,0-0.058-0.001-0.086c0.749,1.016,1.546,2.025,2.391,3.017c0.101,0.29,0.197,0.583,0.278,0.885
		c0,0.307,0.481,0.358,0.477-0.024c0.703,0.79,1.432,1.564,2.186,2.315c0.004,0.1,0.063,0.141,0.147,0.145
		c0.313,0.309,0.626,0.618,0.947,0.919c0.015,0.023,0.022,0.046,0.045,0.069h0.031c0.345,0.321,0.694,0.638,1.048,0.948
		c0.158,0.342,0.303,0.675,0.442,0.953c0.254,0.254,0.506,0.166,0.646-0.033c0.046,0.038,0.092,0.078,0.138,0.116
		c-0.014,0.091-0.024,0.188-0.024,0.297c0.136,0.271,0.66,0.591,1.174,0.803c0.371,0.366,0.742,0.732,1.108,1.099
		c0.38,0.38,0.76,0,0.76-0.38c0.219-0.875-0.443-0.995-1.117-1.156c-0.013-0.014-0.02-0.022-0.033-0.035
		c1.153-0.402,1.758-2.277,0.388-3.372c-3.423-2.663-6.083-6.085-8.747-9.508c-0.178-0.356-0.415-0.601-0.677-0.767
		c-0.015-0.121-0.039-0.244-0.082-0.373c-1.141-3.042-2.662-5.705-3.423-8.748c-0.355-1.066-1.374-1.461-2.282-1.315V2.331
		c0.38-0.38-0.38-0.38-0.761,0V2.81c-0.649,0.39-1.06,1.137-0.76,2.183c0.033,0.134,0.076,0.265,0.113,0.398
		c-0.239,1.897,0.556,3.918,1.651,5.726c0.079,0.461,0.137,0.942,0.137,1.482c-0.38,0.38,0.38,0.38,0.761,0
		C-28.728,12.556-28.737,12.506-28.738,12.462z"/>
	<path d="M61.023,16.023c0-1.521-2.282-1.521-2.282-0.002c-0.063,0.568-0.204,1.125-0.394,1.676
		c-3.905,2.71-8.313,4.937-11.514,8.682c-7.731,0.673-15.904,0.191-23.46-0.089c-11.029-0.38-22.058-1.141-33.086-1.521
		c-1.521,0-1.521,2.281,0,2.281c11.789,0.38,23.579,1.141,35.368,1.521c7.021,0.271,14.232,0.727,21.364,0.155
		c0.329,0.25,0.717,0.284,1.013-0.086c2.572-0.242,5.132-0.625,7.667-1.21c0.416-0.104,0.656-0.352,0.763-0.647v0.268
		c0,0.38,0.761,0.38,0.761-0.38v-1.901v-0.057c0.895-1.918,2.098-3.696,2.919-5.566c0.039-0.028,0.08-0.055,0.119-0.084
		c0.481-0.32,0.554-0.844,0.395-1.285C60.831,17.207,60.964,16.625,61.023,16.023z M54.42,25.259
		c-1.238,0.271-2.498,0.496-3.776,0.682c1.758-1.564,3.674-2.87,5.614-4.154C55.578,22.924,54.899,24.071,54.42,25.259z"/>
	<path d="M-13.896-2.233C-6.008,0.636,0.531,5.869,8.265,9.008c-3.753,1.553-8.327,1.939-10.752,0.929
		c-1.141-0.38-2.281,2.663-1.521,3.042c5.849,2.047,14.614-1.305,18.183-6.766c2.71,2.477,5.242,4.733,8.437,6.768
		c0.761,0.38,1.902-2.282,1.141-2.662c-2.842-1.944-5.508-4.594-8.205-7.209c0.044-0.184,0.075-0.371,0.106-0.557
		c6.587-0.697,27.889,1.861,21.792,11.188c-0.09,0.089-0.168,0.206-0.235,0.338c-0.175-0.002-0.352,0.007-0.528,0.042
		c-2.282,0-3.803,1.521-3.803,3.802c0,1.902,1.521,3.804,3.803,3.804c1.901-0.381,3.802-1.901,3.802-3.804
		c0-1.508-0.833-2.846-1.945-3.473c4.316-7.968-2.651-12.703-10.633-14.39c-0.727-1.256-1.671-2.698-1.833-4.16
		c1.358,0.031,2.672,0.106,3.927,0.241c-0.294,0.414-0.541,1.015-0.541,1.625v0.38c0,0.761,0.38,0.761,0.761,0.381
		c0.38-0.381,0.76-1.141,0.76-1.902v-0.38l0,0c0,0,0.001,0,0.001,0c0.236,0,0.471-0.118,0.689-0.298
		c2.18,0.506,4.429,1.261,6.579,1.834c-1.367,2.012-1.652,4.42-0.045,6.831c0.38,0.761,1.901-1.521,1.521-2.282
		c-1.141-1.901-1.521-2.662,0.381-4.184c0.38-0.38,1.901-2.282,0.761-2.662c-2.662-0.761-5.324-1.521-7.986-2.282
		c-1.902-0.38-4.184-0.76-6.085-0.38c-0.142,0.047-0.254,0.113-0.382,0.169c-2.479-0.086-4.909,0.001-7.221,0.211
		c-2.663,0.38-6.085,3.042-3.423,6.085c0.76,0.761,2.282-1.901,1.521-2.662c-0.08-0.08-0.146-0.15-0.205-0.215
		c0.222-0.095,0.435-0.166,0.585-0.166c1.521-0.38,3.042-0.38,4.564-0.38c0.729,0,1.458,0,2.183,0.006
		c-0.103,1.168,0.187,2.487,0.634,3.721c-3.551-0.426-7.063-0.271-9.664,0.457c-0.626,0.313-0.99,1.139-1.101,1.847
		c-3.762-3.589-7.646-6.893-12.211-7.93c-1.141-0.382-2.282,2.661-1.52,2.661C5.117-2.233,8.542,1.19,11.583,3.852
		c0.572,0.515,1.123,1.018,1.667,1.515c-0.471,0.682-1.087,1.301-1.811,1.854c0.033-0.336-0.031-0.605-0.235-0.708
		C2.456,3.852-4.389-2.233-12.756-4.895C-13.896-5.275-15.037-2.613-13.896-2.233z"/>
	<path d="M33.26,7.655c-1.141,0-1.901,2.662-0.761,2.662C33.26,10.317,34.4,7.655,33.26,7.655z"/>
</g>
</svg>
