<svg width="60mm" height="11.783mm" version="1.1" viewBox="0 0 60 11.783" xmlns="http://www.w3.org/2000/svg">
 <path d="m59.619 6.7115c-0.17638-0.08819-0.35277-0.17639-0.52916-0.26458 0.26458 0 0.35278-0.61736 0.26458-0.61736-1.5875-0.17639-3.0868-0.35278-4.5861-0.44097 0-0.08819 0-0.26458-0.0882-0.26458-0.26459 0-0.52917-0.08819-0.79375-0.08819-0.0882 0-0.17639 0-0.17639 0.08819-2.3812 0-4.6743-0.26458-6.9674-0.44097h-0.26459v-0.17639c0.0882-0.08819 0.26459-0.44097 0.17639-0.52917 0.0882-0.0882 0.17639-0.0882 0.17639-0.0882 0.44097-0.26458 0.61736-0.79375 0.61736-1.2347 0-0.08819 0-0.08819-0.0882-0.08819 0-0.08819 0.0882-0.08819 0.0882-0.08819 0.17639 0.08819 0.44097-0.52917 0.26459-0.61736-0.0882-0.08819-0.26459-0.17639-0.35278-0.26458 0.0882-0.17639 0.0882-0.26458 0-0.26458h-0.0882c0-0.08819-0.0882-0.17639-0.17639-0.08819-1.2347-0.0882-2.4694-0.35278-3.616-0.70556-0.0882-0.08819-0.26458 0.17639-0.35278 0.35278-1.0583 0.17639-2.1167 0.26458-3.0868 0.61736-0.0882 0-0.17639-0.08819-0.26459-0.08819-0.26458-0.0882-0.44097 0.61736-0.26458 0.61736 0 0 0 0.08819 0.0882 0.08819 0 0.08819 0 0.17639 0.0882 0.08819h0.0882c0.17639 0.17639 0.35278 0.35278 0.52916 0.52917 0.0882 0.17639 0.44098-0.44097 0.35278-0.61736-0.0882-0.08819-0.0882-0.08819-0.17639-0.17639 1.0583-0.26458 2.2049-0.26458 3.2632-0.52917 0 0 0.0882 0 0.0882-0.0882 0.88194 0.26458 1.7639 0.44097 2.6458 0.52917h-0.52916c-1.7639-0.08819-3.4396-0.17639-5.2035 0.44097-0.17639 0.08819-0.35277 0.79375-0.0882 0.61736 0.26458-0.0882 0.44097-0.0882 0.61736-0.17639 0 0.17639 0 0.26458 0.0882 0.26458h0.0882c0.0882 0.44097 0.26458 0.97014 0.44097 1.4993-1.6757-0.08819-3.3514-0.17639-5.0271-0.26458-0.97014-0.0882-2.0285-0.0882-3.0868-0.17639 0.17639-0.08819 0.35278-0.61736 0.17639-0.61736-0.97014 0.17639-1.9403 0.35278-2.9104 0.52917-2.2049-0.0882-4.4097-0.17639-6.6146-0.35278 0-0.08819 0-0.17639-0.08819-0.17639-0.44097 0.08819-0.79375 0.08819-1.2347 0.08819-0.61736-0.08819-1.3229-0.08819-1.9403-0.17639 0.08819-0.17639 0.08819-0.44097 0-0.44097-0.17639 0.08819-0.35278 0.08819-0.44097 0.17639-0.08819 0-0.17639 0.08819-0.17639 0.17639h-0.08819c-1.5875-0.17639-3.2632-0.35278-4.7625-0.88194h-0.08819-0.0882v0.08819h-0.08819c-0.35278-0.08819-0.70556-0.17639-1.0583-0.17639 0.0882-0.08819 0.0882-0.26458 0-0.26458-0.08819 0-0.08819-0.08819-0.17639-0.08819-0.0882 0-0.17639 0.08819-0.17639 0.17639-0.52917 0.08819-1.4111 0-1.7639 0-1.3229 0.17639-2.6458 0.26458-3.9688 0.44097-2.2931 0.35278-4.6743 0.61736-6.9674 1.3229 0 0-0.08819 0.0882-0.08819 0.0882-0.08819 0-0.17639 0-0.17639-0.0882-0.26458 0-0.52917 0.61736-0.35278 0.70555 0.44097 0.17639 0.97014 0.35278 1.2347 0.70556 0.08819 0.17639 0.44097-0.35278 0.26458-0.52917-0.08819-0.17639-0.17639-0.26458-0.35278-0.44097 2.2931-0.61736 4.5861-0.79375 6.8792-1.1465 0.70555-0.08819 1.4993-0.17639 2.2931-0.26458-0.0882 0.17639-0.0882 0.44097 0.08819 0.35278 1.0583-0.26458 2.1167-0.44097 3.175-0.26458v0.08819c-3.175 0.26458-6.2618 0.70556-9.3486 1.3229-0.79375 0.0882-1.5875 0.17639-2.3813 0.35278-0.17639 0-0.26458 0.44097-0.26458 0.61736 0 0.17639 0 0.26458 0.08819 0.26458 1.2347 0 2.5576 0 3.7924-0.08819 0.08819 0 0.17639-0.0882 0.17639-0.17639h0.17639c1.9403 0.17639 3.9687 0.52917 5.909 0.97014 0 0.08819 0 0.17639 0.08819 0.08819h0.26458c0.52917 0.08819 0.97014 0.17639 1.4993 0.26458h-0.52917s-0.08819 0-0.08819 0.08819c-0.61736-0.08819-1.2347-0.17639-1.8521-0.17639-0.26458 0-0.44097 0.61736-0.17639 0.61736 1.4993 0.08819 3.175 0.52917 4.6743 0.97014 0 0.17639 0 0.35278 0.0882 0.35278 0.17639 0 0.35278-0.08819 0.52917-0.17639 0.61736 0.17639 1.3229 0.44097 1.9403 0.61736 0 0.08819 0 0.08819 0.08819 0.08819-0.17639 0.17639-0.26458 0.52917-0.17639 0.61736 0.52917 0.17639 0.97014 0.35278 1.4993 0.44097v0.17639l-0.08819 0.08819c-0.17639 0-0.35278 0.35278-0.26458 0.52917-0.97014 0-2.0285 0.08819-2.9986 0.08819-0.17639 0-0.44097 0.61736-0.17639 0.61736 6.9674 0 14.023-0.52917 20.902-1.4993 0.0882 0 0.26458 0 0.35278 0.08819 3.2632 0.08819 6.5264 0.08819 9.7896 0.08819-0.17639 0.17639-0.26458 0.70556 0 0.44097 0.26459-0.08819 0.35278-0.26458 0.52917-0.44097 1.1465-0.08819 2.293-0.08819 3.4396-0.08819-0.0882 0.17639-0.0882 0.35278 0 0.26458 0.17639 0 0.35278-0.08819 0.52917-0.26458h1.0583c0.0882 0 0.17639-0.17639 0.26459-0.35278 0.35277 0 0.70555 0 1.0583-0.08819-0.26458 0.44097-0.52917 0.88194-0.70556 1.4111-0.0882 0.44097 0.26459 0.26458 0.35278-0.08819 0.17639-0.52917 0.61736-0.97014 0.97014-1.4111 0-0.08819 0.0882-0.08819 0.0882-0.08819-0.0882 0.26458-0.26458 0.52917-0.26458 0.79375-0.0882 0.17639 0 0.26458 0.0882 0.17639 0.0882 0 0.17638 0 0.17638-0.17639 0.17639-0.26458 0.26458-0.44097 0.35278-0.70555 0.0882-0.08819 0.0882-0.17639 0.17639-0.17639 0.17639-0.0882 0.35278-0.17639 0.52916-0.17639 0.26459-0.08819 0.35278-0.44097 0.35278-0.61736-0.0882-0.17639-0.0882-0.35278-0.17639-0.44097 0.17639-0.26458 0.26459-0.44097 0.44098-0.61736 0.79375-0.0882 1.4993-0.17639 2.293-0.26458 0.17639-0.0882 0.44097-0.52917 0.26458-0.70556zm-20.99 2.734c-0.26459 0-0.52917 0-0.79375 0.08819h-0.26459c-2.0285-0.08819-3.9687-0.26458-5.9972-0.26458 0-0.08819-0.0882-0.08819-0.0882-0.08819h-0.61736-0.97014c-0.97014 0-2.0285 0-2.9986 0.08819 0.61736-0.44097 1.2347-0.88194 1.9403-1.2347 0.97014-0.08819 2.0285-0.08819 2.9986-0.08819-0.17639 0.08819-0.44098 0.26458-0.70556 0.35278-0.17639 0.08819-0.35278 0.79375-0.0882 0.61736 0.61736-0.26458 1.1465-0.52917 1.7639-0.88194 0.61736 0 1.2347 0.17639 1.8521 0.26458 0.1764 0.08819 0.44098-0.52917 0.26459-0.61736-0.35278-0.08819-0.79375-0.17639-1.1465-0.26458 0.17639-0.08819 0.44097-0.26458 0.70556-0.44097 0.26458 0.08819 0.61736 0.08819 0.97014 0.08819 0.0882 0.08819 0.0882 0 0.0882 0 0.79375 0.08819 1.5875 0.08819 2.3812 0.08819 0.52916 0 0.97014 0 1.4993 0.08819-0.70555 0.35278-1.4111 0.61736-2.1167 0.61736-0.26459 0-0.44098 0.61736-0.26459 0.61736 1.1465 0.08819 2.2049-0.52917 3.175-1.1465 1.3229 0.08819 2.6458 0.17639 3.9688 0.26458 0 0 0 0.08819 0.0882 0.08819h0.61737c-0.44098 0.52917-0.79375 1.0583-1.2347 1.5875-1.2347 0.08819-2.4694 0.17639-3.7924 0.26458 0 0-0.0882 0-0.0882 0.08819-0.35276-0.08819-0.70554-0.08819-1.0583-0.08819 0-0.08819 0-0.08819-0.0882-0.08819zm-17.286 0.26458v-0.08819c0.44097-0.17639 0.88194-0.44097 1.3229-0.61736 0.08819 0.08819 0.08819 0.08819 0.17639 0.08819 0 0.08819 0 0.08819 0.08819 0.08819-0.08819 0-0.17639 0.0882-0.26458 0.0882-0.08819 0.08819-0.17639 0.35278-0.26458 0.52917-0.35278 0-0.70556-0.08819-1.0583-0.08819zm32.456-1.3229v-0.08819c0.0882-0.17639 0.17639-0.26458 0.26458-0.44097h0.26459c0.0882 0.0882 0.0882 0.0882 0.17639 0.0882-0.0882 0.08819-0.26459 0.35278-0.26459 0.52917-0.0882 0-0.44097 0-0.44097-0.0882zm-9.7014 0.88194c0.44097-0.52917 0.79375-1.0583 1.3229-1.5875 1.4111 0.08819 2.9104 0.17639 4.3215 0.17639-0.26459 0.44097-0.52917 0.79375-0.79375 1.1465-1.5875 0.08819-3.2632 0.17639-4.8507 0.26458zm-18.08 0c-0.26458 0.08819-0.61736 0.08819-0.97014 0.08819 0 0-0.08819-0.08819-0.17639-0.08819-0.17639-0.0882-0.44097-0.17639-0.61736-0.26458 0.26458-0.17639 0.61736-0.35278 0.88194-0.52917 0.88194-0.0882 1.6757-0.17639 2.2931-0.26458h0.17639c-0.52917 0.26458-0.97014 0.70555-1.4993 1.0583h-0.0882zm-15.169-4.3215c0.52917-0.08819 1.0583-0.17639 1.5875-0.17639l-0.0882 0.08819c-0.08819-0.08819-0.08819 0-0.17639 0 0-0.08819-0.08819 0-0.08819 0h-0.26458c-0.08819-0.08819-0.17639 0.08819-0.26458 0.26458-0.26458-0.08819-0.44097-0.08819-0.70556-0.17639zm15.522 0.26458h0.61736c-0.26458 0.0882-0.52917 0.26458-0.79375 0.35278h0.08819c0-0.0882 0.08819-0.17639 0.08819-0.35278zm2.5576-0.26458 0.0882-0.08819c-0.61736 0.35278-1.2347 0.61736-1.8521 0.88194v-0.08819c0.52917-0.17639 0.97014-0.35278 1.4993-0.61736 0 0 0-0.08819 0.0882-0.08819h0.17639zm-0.44097 0.97014c0.08819-0.08819 0.08819-0.17639 0.08819-0.26458 0.17639-0.08819 0.26458-0.08819 0.44097-0.17639-0.0882 0.08819-0.0882 0.17639-0.0882 0.26458v0.08819c-0.17639 0-0.26458 0-0.44097 0.08819zm-8.2021 0.52917c0.44097-0.17639 0.88194-0.35278 1.3229-0.52917-0.08819 0.08819-0.17639 0.08819-0.26458 0.17639-0.35278 0.08819-0.70556 0.17639-1.0583 0.35278zm1.2347 0.17639c0.17639 0 0.35278-0.0882 0.52917-0.0882-0.08819 0-0.17639 0-0.26458 0.0882 0 0-0.08819 0-0.08819 0.08819-0.08819 0-0.08819-0.08819-0.17639-0.08819zm-0.70556 0.61736h-0.17639 0.17639zm3.5278-0.88194h0.08819c0 0.08819-0.08819 0.08819-0.08819 0.17639-0.0882 0.0882-0.26458 0.17639-0.35278 0.26458h-0.44097-0.52917c0.44097-0.17639 0.88194-0.26458 1.3229-0.44097zm-0.52917-2.0285h0.08819-0.08819zm-9.3486 0.35278c0.08819 0 0.17639-0.08819 0.26458-0.08819 0.26458 0 0.61736 0.08819 0.88194 0.08819 0.08819 0 0.17639-0.08819 0.17639-0.17639h0.97014c0.0882 0.08819 0.26458-0.08819 0.26458-0.26458 0.17639 0 0.26458 0.08819 0.35278 0.17639-0.26458 0.08819-0.52917 0.17639-0.70556 0.17639-0.35278 0.08819-0.61736 0.17639-0.97014 0.26458 0-0.08819 0-0.17639-0.08819-0.08819-0.17639 0-0.35278 0.08819-0.44097 0.17639-0.70556 0.0882-1.4111 0.0882-2.1167 0 0.08819 0 0.17639 0 0.17639-0.08819 0.44097-0.08819 0.79375-0.17639 1.2347-0.17639zm1.9403 1.4111c0 0.08819 0 0.17639 0.08819 0.17639h0.35278c-0.17638 0.0882-0.35277 0.17639-0.52916 0.26458-0.26458-0.08819-0.52917-0.17639-0.79375-0.26458 0.26458-0.08819 0.61736-0.17639 0.88194-0.17639zm1.3229 0.35278 0.08819 0.08819c-0.08819 0-0.08819 0.0882-0.08819 0.17639-0.17639 0-0.35278 0.08819-0.44097 0.17639 0 0-0.08819 0-0.08819-0.0882v-0.08819c0.17639-0.08819 0.35278-0.17639 0.52917-0.26458zm28.663 0.35278v-0.08819c0.61736 0 1.2347 0.08819 1.7639 0.08819 0.44097 0 0.88194 0 1.4111 0.08819 0 0 0 0.08819 0.0882 0.08819s0.0882 0 0.26458 0.08819h-2.8222-1.0583c0.0882-0.08819 0.17639-0.17639 0.35278-0.26458zm-17.11-1.4111v-0.08819c0.26458-0.0882 0.44097-0.17639 0.70555-0.26458 0.0882-0.0882 0.0882-0.17639 0.17639-0.26458 0 0.17639 0.0882 0.44097 0.17639 0.70555-0.35278-0.0882-0.70556-0.0882-1.0583-0.088199zm-5.0271 0.35278c-0.17639-0.08819-0.35278-0.08819-0.52917-0.08819 0-0.08819 0-0.26458-0.08819-0.26458h-0.08819 0.08819c0.08819 0 0.17639-0.26458 0.26458-0.44097 0 0 0.0882 0 0.0882-0.08819 0 0.26458-0.0882 0.44097 0.08819 0.44097 0.0882-0.08819 0.17639-0.08819 0.17639-0.08819 0.44097-0.17639 0.79375-0.26458 1.2347-0.44097 0 0-0.08819 0-0.08819 0.08819-0.17639 0.44097-0.70556 0.70556-1.1465 0.88194zm-2.9104 2.734c-0.0882 0.08819-0.0882 0.17639-0.0882 0.17639-0.08819 0.0882-0.26458 0.17639-0.35278 0.26458 0 0-0.08819 0.0882-0.08819 0.17639-0.35278-0.17639-0.70556-0.35278-0.97014-0.44097 0.26458-0.17639 0.52917-0.35278 0.88194-0.44097 0.17639 0.08819 0.44097 0.17639 0.61736 0.26458zm0 0.70556c0.17639-0.17639 0.44097-0.35278 0.70556-0.52917h0.0882c-0.26458 0.17639-0.61736 0.35278-0.79375 0.52917zm1.3229-0.97014c0.35278-0.26458 0.70556-0.44097 1.0583-0.70556 0.35278-0.08819 0.70556-0.08819 0.88194-0.17639 0.61736-0.08819 1.1465-0.17639 1.7639-0.26458-0.35278 0.26458-0.79375 0.52917-1.1465 0.79375-0.70556 0.0882-1.4993 0.26458-2.2049 0.52917-0.08819-0.08819-0.17639-0.17639-0.35278-0.17639zm1.1465 0.52917h-0.08819-0.08819 0.17639zm2.9986-1.0583h-0.52917c0.35278-0.17639 0.61736-0.44097 0.97014-0.70555 0.35278 0 0.70556-0.08819 1.0583-0.08819 0.26458 0 0.52917 0 0.88194-0.08819 0 0.17639 0.0882 0.26458 0.17639 0.35278 0 0.17639 0.26458-0.08819 0.26458-0.35278h0.70556c-0.44097 0.17639-0.88195 0.35278-1.3229 0.61736-0.70556 0.08819-1.4993 0.17639-2.2049 0.26458zm4.9389-0.97014h1.4993c-0.0882 0.17639-0.0882 0.26458 0.0882 0.26458h0.17639c-0.17639 0.17639-0.35278 0.26458-0.52917 0.35278-0.88194-0.08819-1.6757-0.08819-2.5576 0 0.44098-0.26458 0.88195-0.44097 1.3229-0.61736zm14.023 0.08819c-0.0882 0.0882-0.17639 0.17639-0.26459 0.26458-0.35277-0.08819-0.70555-0.08819-1.0583-0.08819s-0.70556 0-1.0583-0.08819c0.79375 0 1.5875-0.08819 2.3812-0.0882zm4.4097 1.0583c0.44097 0 0.97014 0.0882 1.4111 0.0882-0.26458 0.26458-0.52917 0.52917-0.79375 0.88194-0.0882 0.08819-0.17639 0.08819-0.26458 0.17639h-1.1465c0.26458-0.35278 0.52917-0.70556 0.79375-1.1465zm2.6458 1.0583c0 0.0882-0.0882 0.17639-0.0882 0.26458-0.61735-0.08819-1.1465-0.08819-1.6757-0.17639 0.35278-0.26458 0.61736-0.61736 0.97014-0.97014 0.0882 0 0.0882-0.08819 0.0882-0.08819h1.4993c-0.26458 0.35278-0.52916 0.61736-0.79375 0.97014zm3.7042-2.1167c0-0.08819-0.0882-0.08819-0.0882-0.08819-0.52917-0.08819-0.97014-0.17639-1.4993-0.26458 0.97014 0.08819 1.9403 0.08819 2.9104 0.35278h-1.3229zm-24.43-1.4111c-0.26459 0.08819-0.52917 0.08819-0.79375 0.17639-0.0882 0-0.17639-0.0882-0.26459-0.0882-0.0882-0.08819-0.0882-0.17639-0.17638-0.26458-0.0882-0.17639-0.17639-0.35278-0.17639-0.52917 0 0 0.0882-0.08819 0.17639-0.08819 1.6757 0.08819 3.3514 0.17639 5.0271 0.26458-1.2347 0.26458-2.5576 0.35278-3.7924 0.52917zm-5.9972-0.97014c0.70556 0 1.3229 0.08819 1.9403 0.08819-0.88194 0.08819-1.6757 0.17639-1.9403-0.08819zm-0.35278 0.52917c0.08819 0.0882 0.17639 0.17639 0.26458 0.17639 0 0.08819-0.08819 0.08819-0.08819 0.17639h-0.08819c-0.08819 0-0.26458 0.08819-0.35278 0.08819 0-0.08819 0.08819-0.17639 0.08819-0.26458 0.08819-0.17639 0.08819-0.35278 0-0.44097 0.08819 0 0.17639-0.08819 0.17639-0.08819 0.08819 0 0.17639-0.08819 0.17639-0.17639h0.08819c-0.17639 0.08819-0.35278 0.44097-0.26458 0.52917zm-9.3486 2.3812c0.17639 0 0.26458 0.08819 0.35278 0.08819 0 0.08819 0 0.08819 0.0882 0.08819-0.26458-0.08819-0.52917-0.08819-0.79375-0.17639h0.35278zm0.52917 0.26458 0.0882-0.08819c0.08819 0.08819 0.26458 0.08819 0.35278 0.08819 0.08819 0.08819 0.17639-0.08819 0.26458-0.26458 0.26458-0.08819 0.61736-0.17639 0.88194-0.26458-0.35278 0.17639-0.79375 0.44097-1.2347 0.61736-0.08819 0-0.26458-0.08819-0.35278-0.08819zm2.9104 0.17639c0 0.08819 0.08819 0.17639 0.17639 0.17639h0.08819c-0.26458 0.17639-0.61736 0.26458-0.88194 0.44097-0.0882 0-0.17639-0.08819-0.26458-0.08819 0.26459-0.17639 0.52917-0.35278 0.88195-0.52917zm3.616 1.6757c0.08819 0.08819 0.26458 0.17639 0.44097 0.17639-0.08819 0.08819-0.08819 0.08819-0.17639 0.17639h-0.97014c0.26458-0.08819 0.44097-0.17639 0.70556-0.35278zm29.633-0.26458c0.0882-0.17639 0.26458-0.26458 0.35277-0.44097 0 0.17639 0 0.26458 0.17639 0.35278h0.0882c-0.0882 0-0.0882 0.08819-0.0882 0.08819-0.17639 0-0.35278 0-0.52916 1e-6zm0.79375-0.08819h0.26458c0.17639 0 0.35278-0.35278 0.26458-0.52917 0.0882-0.08819 0.17639-0.08819 0.26459-0.08819-0.0882 0-0.0882 0.08819-0.0882 0.08819-0.17639 0.26458-0.44097 0.88194-0.70556 0.52917zm-1.2347-3.2632c0 0.08819 0 0.08819 0.0882 0.08819 0.17639 0 0.44097 0.08819 0.61736 0.08819v0.17639c-0.61735-0.08819-1.1465-0.17639-1.7639-0.26458 0-0.08819-0.0882-0.08819-0.0882-0.08819h-0.97014c-0.79375-0.08819-1.6757-0.08819-2.4694 0 0-0.17639 0-0.26458-0.0882-0.26458-0.79375 0-1.6757 0.08819-2.4694 0.08819-1.4993-0.17639-3.0868-0.26458-4.5861-0.17639-0.61736-0.08819-1.1465-0.26458-1.6757-0.35278 0-0.08819 0-0.08819-0.0882-0.08819 2.293 0.08819 4.4979 0.17639 6.7028 0.26458 0.0882 0 0.17639 0.08819 0.26459 0.08819v0.08819c0.0882 0.17639 0.17639 0.08819 0.26458-0.08819 2.1167 0.08819 4.1451 0.35278 6.2618 0.44097zm-6.9674-2.1167c-0.0882 0.08819-0.0882 0.08819-0.0882 0.17639v-0.17639h0.0882zm-1.4111 0.08819c0.0882 0 0.17639 0 0.17639-0.08819h0.79375v0.17639h-0.88194c-0.0882 0-0.0882-0.08819-0.0882-0.08819v-1e-6zm0.88195 0.79375c0-0.08819 0.0882-0.08819 0.0882-0.08819v0.08819h-0.35278 0.26458zm0.52916 0.08819zm0.79375-1.8521s0.0882-0.08819 0.0882-0.17639c0.0882 0.0882 0.0882 0.0882 0.17639 0.17639h-0.26458zm0.44097-0.88194c0.0882 0.08819 0.17639 0.26458 0.26459 0.35278h-0.0882c-0.1764-0.17639-0.26459-0.35278-0.52917-0.44097 0.0882 0.08819 0.26458 0.08819 0.35277 0.08819zm-4.4979 2.5576c-0.0882-0.26458-0.17639-0.52917-0.26459-0.79375h0.61737l0.0882 0.08819h0.61736l0.0882 0.08819h-0.61736c-0.0882 0-0.0882 0-0.17639 0.0882-0.17639 0.08819-0.26459 0.44097-0.17639 0.52917h-0.17639zm-23.812 2.9986c0 0.17639 0 0.26458 0.08819 0.26458 0.17639-0.08819 0.26458-0.17639 0.44097-0.17639-0.26458 0.17639-0.52917 0.26458-0.70556 0.44097h-0.08819c-0.08819 0-0.26458-0.08819-0.35278-0.08819 0.17639-0.17639 0.44097-0.26458 0.61736-0.44097zm1.7639 3.4396c0.35278-0.08819 0.70556-0.26458 0.88194-0.61736 1.4993 0.26458 3.175 0.17639 4.5861 0h0.08819c1.7639 0.26458 3.5278 0 5.2035-0.44097 0.97014 0 1.9403 0.08819 2.9104 0.08819-4.5861 0.52917-9.1722 0.88194-13.67 0.97014zm34.219-1.7639c0.26458-0.44097 0.44097-0.79375 0.70556-1.1465 0.0882-0.08819 0.17639-0.08819 0.17639-0.17639h0.0882c0.17639 0.0882 0.26458 0.17639 0.35277 0.26458-0.17638 0.35278-0.44097 0.61736-0.61736 0.88194-0.26458 0.08819-0.44097 0.08819-0.70555 0.17639z"/>
</svg>
