<?xml version="1.0" encoding="utf-8"?>
<!-- Generator: Adobe Illustrator 16.0.0, SVG Export Plug-In . SVG Version: 6.00 Build 0)  -->
<!DOCTYPE svg PUBLIC "-//W3C//DTD SVG 1.1//EN" "http://www.w3.org/Graphics/SVG/1.1/DTD/svg11.dtd">
<svg version="1.1" id="Layer_1" xmlns="http://www.w3.org/2000/svg" xmlns:xlink="http://www.w3.org/1999/xlink" x="0px" y="0px"
	 width="240.104px" height="48px" viewBox="-10.897 -1.244 240.104 48" enable-background="new -10.897 -1.244 240.104 48"
	 xml:space="preserve">
<path fill="#FFFFFF" d="M222.383,23.059l-10.481,6.203l1.712,5.131c0,0-10.479,3.422-11.976,2.779
	c-1.497-0.641-42.988,1.283-42.988,1.283l-13.688-0.213c0,0-8.984-0.428-10.267-0.428c-1.284,0-9.196,1.284-9.838,1.498
	c-0.643,0.213-51.758-2.141-51.758-2.141L49.146,26.695L20.7,18.353L1.025,19.207c0,0-3.21-0.642-3.423-1.282
	c-0.214-0.641-1.925-2.353-1.925-2.353l33.792-5.561l15.826-0.641l30.155,5.561l53.683,2.139l27.804,1.069l-2.566-8.556
	l-4.063-0.428l-0.854-3.421l12.618-3.209l13.047,2.566l2.992,1.497l-2.351,5.56L172.336,16l-0.426,1.925L222.383,23.059z"/>
<path d="M227.205,25.402c-0.701-0.35-1.398-0.701-2.103-1.052c1.052,0,1.401-2.451,1.052-2.451
	c-6.303-0.701-12.258-1.4-18.211-1.751c0-0.35,0-1.051-0.35-1.051c-1.054,0-2.102-0.35-3.155-0.35c-0.35,0-0.7,0-0.7,0.35
	c-9.456,0-18.563-1.051-27.669-1.751h-1.053v-0.701c0.351-0.35,1.053-1.751,0.701-2.102c0.352-0.35,0.703-0.35,0.703-0.35
	c1.75-1.051,2.452-3.153,2.452-4.903c0-0.351,0-0.351-0.352-0.351c0-0.35,0.352-0.35,0.352-0.35c0.699,0.35,1.75-2.103,1.05-2.453
	c-0.351-0.35-1.05-0.701-1.401-1.05c0.352-0.702,0.352-1.052,0-1.052h-0.351c0-0.35-0.35-0.701-0.7-0.35
	c-4.904-0.351-9.808-1.402-14.361-2.802c-0.349-0.35-1.051,0.7-1.399,1.4c-4.203,0.702-8.405,1.052-12.26,2.452
	c-0.351,0-0.7-0.35-1.051-0.35c-1.051-0.351-1.751,2.451-1.051,2.451c0,0,0,0.351,0.349,0.351c0,0.35,0,0.701,0.353,0.35h0.35
	c0.7,0.701,1.4,1.4,2.102,2.102c0.351,0.701,1.75-1.751,1.4-2.45c-0.351-0.352-0.351-0.352-0.7-0.702
	c4.201-1.052,8.755-1.052,12.959-2.102c0,0,0.35,0,0.35-0.351c3.501,1.052,7.005,1.751,10.507,2.102h-2.101
	c-7.007-0.351-13.66-0.701-20.666,1.751c-0.699,0.35-1.4,3.152-0.35,2.451c1.05-0.351,1.751-0.351,2.451-0.701
	c0,0.701,0,1.051,0.351,1.051h0.351c0.35,1.751,1.052,3.853,1.751,5.955c-6.655-0.35-13.309-0.701-19.964-1.052
	c-3.853-0.35-8.055-0.35-12.259-0.7c0.701-0.35,1.4-2.451,0.701-2.451c-3.853,0.701-7.706,1.4-11.558,2.102
	c-8.756-0.35-17.512-0.7-26.269-1.401c0-0.351,0-0.701-0.35-0.701c-1.751,0.35-3.151,0.35-4.903,0.35
	c-2.451-0.35-5.253-0.35-7.705-0.701c0.35-0.702,0.35-1.751,0-1.751c-0.701,0.35-1.401,0.35-1.751,0.701
	c-0.35,0-0.701,0.35-0.701,0.701h-0.351c-6.303-0.699-12.957-1.399-18.911-3.5h-0.351h-0.35V8.59h-0.351
	c-1.401-0.351-2.801-0.701-4.203-0.701c0.35-0.35,0.35-1.051,0-1.051c-0.351,0-0.351-0.351-0.701-0.351s-0.701,0.351-0.701,0.702
	c-2.102,0.35-5.604,0-7.004,0c-5.253,0.7-10.507,1.05-15.762,1.75c-9.105,1.401-18.563,2.451-27.669,5.254l-0.351,0.351
	c-0.35,0-0.701,0-0.701-0.351c-1.051,0-2.101,2.452-1.4,2.803c1.751,0.7,3.853,1.4,4.903,2.801c0.351,0.701,1.751-1.4,1.052-2.102
	c-0.351-0.701-0.701-1.051-1.401-1.752c9.106-2.451,18.213-3.151,27.319-4.553c2.801-0.35,5.954-0.701,9.106-1.05
	c-0.35,0.7-0.35,1.751,0.351,1.401c4.203-1.052,8.406-1.751,12.609-1.052v0.35c-12.609,1.052-24.867,2.804-37.125,5.255
	c-3.153,0.35-6.305,0.7-9.457,1.4c-0.701,0-1.051,1.751-1.051,2.451c0,0.701,0,1.052,0.35,1.052c4.903,0,10.157,0,15.061-0.351
	c0.35,0,0.701-0.351,0.701-0.701h0.701c7.706,0.701,15.761,2.102,23.467,3.852c0,0.351,0,0.7,0.35,0.351h1.05
	c2.102,0.35,3.854,0.7,5.955,1.05h-2.101c0,0-0.35,0-0.35,0.351c-2.453-0.351-4.903-0.7-7.355-0.7c-1.05,0-1.751,2.451-0.701,2.451
	c5.954,0.351,12.608,2.102,18.563,3.853c0,0.701,0,1.4,0.35,1.4c0.702,0,1.401-0.35,2.102-0.701
	c2.451,0.701,5.253,1.751,7.706,2.452c0,0.351,0,0.351,0.35,0.351c-0.701,0.7-1.051,2.102-0.701,2.452
	c2.102,0.699,3.853,1.399,5.955,1.752v0.7l-0.351,0.35c-0.701,0-1.401,1.401-1.051,2.102c-3.853,0-8.055,0.35-11.908,0.35
	c-0.701,0-1.751,2.452-0.701,2.452c27.668,0,55.689-2.102,83.007-5.952c0.352,0,1.051,0,1.402,0.35
	c12.958,0.351,25.917,0.351,38.877,0.351c-0.701,0.7-1.051,2.802,0,1.751c1.051-0.351,1.401-1.052,2.1-1.751
	c4.554-0.351,9.107-0.351,13.661-0.351c-0.351,0.7-0.351,1.399,0,1.051c0.7,0,1.4-0.351,2.102-1.051h4.201
	c0.351,0,0.702-0.701,1.053-1.401c1.399,0,2.803,0,4.204-0.35c-1.054,1.751-2.102,3.502-2.805,5.604
	c-0.351,1.751,1.052,1.052,1.401-0.351c0.7-2.103,2.451-3.852,3.853-5.604c0-0.35,0.351-0.35,0.351-0.35
	c-0.351,1.051-1.053,2.103-1.053,3.152c-0.351,0.699,0,1.051,0.351,0.699c0.352,0,0.702,0,0.702-0.699
	c0.7-1.05,1.05-1.75,1.399-2.803c0.352-0.35,0.352-0.699,0.703-0.699c0.7-0.353,1.398-0.702,2.101-0.702
	c1.051-0.351,1.399-1.751,1.399-2.452c-0.35-0.7-0.35-1.399-0.701-1.75c0.701-1.051,1.052-1.751,1.752-2.451
	c3.152-0.352,5.953-0.701,9.105-1.052C226.855,27.854,227.905,26.102,227.205,25.402L227.205,25.402z M143.847,36.258
	c-1.051,0-2.1,0-3.151,0.351h-1.05c-8.057-0.351-15.763-1.052-23.817-1.052c0-0.35-0.351-0.35-0.351-0.35h-2.451h-3.853
	c-3.853,0-8.055,0-11.908,0.35c2.452-1.752,4.903-3.501,7.706-4.902c3.853-0.351,8.056-0.351,11.909-0.351
	c-0.701,0.351-1.752,1.052-2.803,1.4c-0.699,0.351-1.4,3.152-0.351,2.452c2.453-1.053,4.552-2.102,7.005-3.502
	c2.451,0,4.903,0.701,7.355,1.05c0.7,0.352,1.751-2.1,1.052-2.451c-1.401-0.351-3.153-0.7-4.553-1.051
	c0.701-0.351,1.752-1.052,2.803-1.752c1.051,0.351,2.449,0.351,3.852,0.351c0.351,0.351,0.351,0,0.351,0
	c3.151,0.351,6.306,0.351,9.455,0.351c2.102,0,3.854,0,5.954,0.351c-2.802,1.4-5.604,2.452-8.404,2.452
	c-1.052,0-1.751,2.45-1.052,2.45c4.552,0.353,8.756-2.1,12.608-4.551c5.254,0.35,10.506,0.7,15.761,1.05c0,0,0,0.351,0.351,0.351
	h2.45c-1.749,2.103-3.152,4.203-4.902,6.305c-4.901,0.35-9.807,0.7-15.06,1.052c0,0-0.351,0-0.351,0.35
	c-1.401-0.35-2.802-0.35-4.203-0.35C144.198,36.258,144.198,36.258,143.847,36.258L143.847,36.258z M75.202,37.31v-0.35
	c1.751-0.702,3.502-1.752,5.253-2.453c0.351,0.351,0.351,0.351,0.702,0.351c0,0.351,0,0.351,0.35,0.351
	c-0.35,0-0.701,0.351-1.052,0.351c-0.35,0.35-0.701,1.401-1.051,2.102C78.003,37.66,76.603,37.31,75.202,37.31L75.202,37.31z
	 M204.092,32.056v-0.352c0.35-0.7,0.7-1.05,1.053-1.75h1.05c0.352,0.351,0.352,0.351,0.7,0.351c-0.349,0.351-1.049,1.399-1.049,2.1
	C205.494,32.405,204.092,32.405,204.092,32.056L204.092,32.056z M165.565,35.559c1.751-2.102,3.153-4.202,5.254-6.305
	c5.604,0.352,11.56,0.701,17.161,0.701c-1.05,1.75-2.101,3.151-3.151,4.553C178.526,34.858,171.87,35.208,165.565,35.559
	L165.565,35.559z M93.764,35.559c-1.052,0.35-2.452,0.35-3.853,0.35c0,0-0.35-0.35-0.7-0.35c-0.702-0.351-1.751-0.701-2.452-1.052
	c1.051-0.702,2.452-1.401,3.502-2.103c3.502-0.349,6.654-0.7,9.107-1.049h0.701c-2.101,1.049-3.853,2.802-5.955,4.201h-0.35V35.559z
	 M33.525,18.397c2.101-0.35,4.203-0.7,6.305-0.7l-0.35,0.35c-0.351-0.35-0.351,0-0.701,0c0-0.35-0.351,0-0.351,0h-1.051
	c-0.351-0.35-0.702,0.35-1.052,1.051C35.276,18.748,34.576,18.748,33.525,18.397L33.525,18.397z M95.167,19.448h2.452
	c-1.051,0.35-2.102,1.051-3.152,1.401h0.35C94.816,20.499,95.167,20.148,95.167,19.448L95.167,19.448z M105.324,18.397l0.351-0.35
	c-2.453,1.401-4.903,2.452-7.355,3.503v-0.351c2.102-0.701,3.853-1.401,5.954-2.452c0,0,0-0.351,0.351-0.351H105.324L105.324,18.397
	z M103.572,22.25c0.351-0.351,0.351-0.701,0.351-1.051c0.701-0.35,1.052-0.35,1.751-0.701c-0.351,0.351-0.351,0.701-0.351,1.052
	v0.35C104.623,21.899,104.273,21.899,103.572,22.25L103.572,22.25z M71,24.35c1.751-0.7,3.502-1.4,5.253-2.1
	c-0.35,0.349-0.701,0.349-1.051,0.7C73.802,23.3,72.4,23.65,71,24.35L71,24.35z M75.904,25.052c0.7,0,1.4-0.352,2.102-0.352
	c-0.35,0-0.701,0-1.051,0.352c0,0-0.35,0-0.35,0.35C76.254,25.402,76.254,25.052,75.904,25.052L75.904,25.052z M73.101,27.502H72.4
	H73.101z M87.11,24h0.35c0,0.35-0.35,0.35-0.35,0.7c-0.35,0.352-1.051,0.701-1.4,1.051h-1.751h-2.102
	C83.609,25.052,85.359,24.7,87.11,24L87.11,24z M85.009,15.944h0.35H85.009z M47.884,17.346c0.35,0,0.701-0.35,1.051-0.35
	c1.051,0,2.451,0.35,3.502,0.35c0.351,0,0.701-0.35,0.701-0.7h3.853c0.351,0.351,1.051-0.351,1.051-1.052
	c0.701,0,1.051,0.35,1.4,0.702c-1.049,0.351-2.101,0.701-2.801,0.701c-1.402,0.35-2.453,0.7-3.855,1.049c0-0.35,0-0.7-0.351-0.35
	c-0.7,0-1.4,0.35-1.751,0.7c-2.801,0.351-5.604,0.351-8.405,0c0.351,0,0.701,0,0.701-0.35
	C44.731,17.697,46.132,17.346,47.884,17.346L47.884,17.346z M55.589,22.95c0,0.35,0,0.701,0.351,0.701h1.401
	c-0.701,0.35-1.401,0.7-2.102,1.051c-1.051-0.351-2.102-0.701-3.152-1.051C53.137,23.3,54.538,22.95,55.589,22.95z M60.843,24.35
	l0.35,0.351c-0.35,0-0.35,0.352-0.35,0.701c-0.701,0-1.401,0.35-1.751,0.7c0,0-0.35,0-0.35-0.351v-0.35
	C59.442,25.052,60.142,24.7,60.843,24.35L60.843,24.35z M174.669,25.751v-0.35c2.452,0,4.904,0.35,7.007,0.35
	c1.751,0,3.503,0,5.604,0.351c0,0,0,0.35,0.352,0.35c0.349,0,0.349,0,1.049,0.351h-11.208h-4.201
	C173.621,26.451,173.972,26.102,174.669,25.751L174.669,25.751z M106.723,20.148v-0.35c1.051-0.35,1.752-0.701,2.802-1.051
	c0.35-0.351,0.35-0.701,0.7-1.051c0,0.7,0.352,1.751,0.702,2.801C109.525,20.148,108.125,20.148,106.723,20.148L106.723,20.148z
	 M86.76,21.549c-0.7-0.351-1.401-0.351-2.102-0.351c0-0.35,0-1.051-0.351-1.051h-0.351h0.351c0.351,0,0.701-1.051,1.051-1.751
	c0,0,0.351,0,0.351-0.35c0,1.051-0.351,1.751,0.35,1.751c0.349-0.35,0.7-0.35,0.7-0.35c1.75-0.701,3.152-1.051,4.901-1.751
	c0,0-0.35,0-0.35,0.35C90.611,19.798,88.509,20.849,86.76,21.549L86.76,21.549z M75.202,32.405c-0.35,0.353-0.35,0.701-0.35,0.701
	c-0.35,0.352-1.052,0.7-1.401,1.053c0,0-0.35,0.35-0.35,0.7c-1.4-0.7-2.803-1.4-3.853-1.752c1.051-0.7,2.102-1.398,3.502-1.75
	C73.45,31.704,74.501,32.056,75.202,32.405L75.202,32.405z M75.202,35.208c0.701-0.701,1.751-1.402,2.801-2.103h0.351
	C77.303,33.805,75.902,34.507,75.202,35.208L75.202,35.208z M80.455,31.356c1.401-1.052,2.802-1.751,4.202-2.803
	c1.401-0.351,2.801-0.351,3.502-0.701c2.452-0.35,4.553-0.701,7.005-1.052c-1.401,1.052-3.153,2.103-4.553,3.153
	c-2.801,0.351-5.953,1.051-8.757,2.102c-0.351-0.351-0.701-0.701-1.4-0.701h0.001V31.356z M85.007,33.457h-0.351h-0.351H85.007
	L85.007,33.457z M96.915,29.253h-2.102c1.4-0.7,2.451-1.751,3.853-2.803c1.4,0,2.801-0.35,4.203-0.35c1.052,0,2.102,0,3.502-0.351
	c0,0.7,0.351,1.051,0.701,1.4c0,0.701,1.052-0.351,1.052-1.4h2.801c-1.751,0.7-3.502,1.4-5.254,2.452
	C102.869,28.554,99.718,28.904,96.915,29.253L96.915,29.253z M116.529,25.402h5.953c-0.35,0.7-0.35,1.05,0.351,1.05h0.7
	c-0.7,0.701-1.4,1.052-2.102,1.402c-3.502-0.352-6.654-0.352-10.155,0C113.027,26.801,114.778,26.102,116.529,25.402L116.529,25.402
	z M172.218,25.751c-0.351,0.351-0.701,0.7-1.052,1.051c-1.4-0.351-2.802-0.351-4.202-0.351c-1.401,0-2.802,0-4.202-0.35
	C165.915,26.102,169.066,25.751,172.218,25.751L172.218,25.751z M189.73,29.954c1.752,0,3.853,0.351,5.604,0.351
	c-1.051,1.052-2.101,2.1-3.152,3.5c-0.351,0.353-0.7,0.353-1.052,0.702h-4.553C187.631,33.106,188.679,31.704,189.73,29.954
	L189.73,29.954z M200.238,34.157c0,0.35-0.349,0.7-0.349,1.051c-2.452-0.351-4.555-0.351-6.655-0.701
	c1.401-1.051,2.449-2.451,3.854-3.852c0.35,0,0.35-0.351,0.35-0.351h5.954C202.34,31.704,201.291,32.757,200.238,34.157
	L200.238,34.157z M214.949,25.751c0-0.35-0.351-0.35-0.351-0.35c-2.102-0.35-3.853-0.701-5.955-1.052
	c3.854,0.351,7.707,0.351,11.56,1.401H214.949L214.949,25.751z M117.929,20.147c-1.05,0.35-2.102,0.35-3.152,0.701
	c-0.351,0-0.701-0.351-1.052-0.351c-0.349-0.35-0.349-0.7-0.699-1.051c-0.351-0.701-0.702-1.401-0.702-2.102
	c0,0,0.351-0.35,0.702-0.35c6.655,0.35,13.309,0.701,19.963,1.051C128.086,19.097,122.833,19.448,117.929,20.147L117.929,20.147z
	 M94.113,16.296c2.802,0,5.254,0.351,7.706,0.351C98.316,16.995,95.164,17.346,94.113,16.296z M92.712,18.396
	c0.35,0.351,0.7,0.701,1.051,0.701c0,0.351-0.351,0.351-0.351,0.701h-0.35c-0.35,0-1.051,0.35-1.401,0.35
	c0-0.35,0.35-0.7,0.35-1.051c0.351-0.701,0.351-1.401,0-1.751c0.351,0,0.701-0.351,0.701-0.351c0.35,0,0.7-0.349,0.7-0.7h0.351
	C93.062,16.645,92.362,18.045,92.712,18.396L92.712,18.396z M55.586,27.854c0.701,0,1.051,0.35,1.4,0.35c0,0.351,0,0.351,0.35,0.351
	c-1.05-0.351-2.101-0.351-3.151-0.7H55.586L55.586,27.854z M57.688,28.904l0.35-0.35c0.351,0.35,1.051,0.35,1.4,0.35
	c0.351,0.351,0.701-0.35,1.052-1.05c1.05-0.352,2.451-0.702,3.502-1.053c-1.4,0.701-3.152,1.752-4.903,2.452
	C58.738,29.253,58.038,28.904,57.688,28.904L57.688,28.904z M69.246,29.605c0,0.35,0.351,0.7,0.701,0.7h0.35
	c-1.051,0.7-2.451,1.052-3.502,1.751c-0.35,0-0.701-0.352-1.051-0.352C66.794,31.005,67.845,30.305,69.246,29.605L69.246,29.605z
	 M83.605,36.258c0.351,0.351,1.052,0.702,1.751,0.702c-0.351,0.35-0.351,0.35-0.701,0.7h-3.852
	C81.855,37.31,82.555,36.96,83.605,36.258z M201.285,35.208c0.352-0.701,1.052-1.051,1.402-1.751c0,0.701,0,1.051,0.701,1.4h0.35
	c-0.35,0-0.35,0.351-0.35,0.351C202.687,35.208,201.986,35.208,201.285,35.208L201.285,35.208z M204.438,34.858h1.054
	c0.7,0,1.398-1.4,1.05-2.101c0.352-0.353,0.7-0.353,1.052-0.353c-0.352,0-0.352,0.353-0.352,0.353
	C206.54,33.805,205.489,36.258,204.438,34.858L204.438,34.858z M199.537,21.898c0,0.35,0,0.35,0.348,0.35
	c0.7,0,1.752,0.351,2.452,0.351V23.3c-2.45-0.35-4.552-0.701-7.003-1.052c0-0.35-0.352-0.35-0.352-0.35h-3.852
	c-3.153-0.35-6.656-0.35-9.807,0c0-0.7,0-1.05-0.351-1.05c-3.152,0-6.653,0.35-9.809,0.35c-5.952-0.701-12.258-1.051-18.213-0.701
	c-2.448-0.35-4.551-1.051-6.652-1.4c0-0.35,0-0.35-0.351-0.35c9.106,0.35,17.862,0.701,26.617,1.051c0.351,0,0.701,0.35,1.054,0.35
	v0.351c0.35,0.7,0.7,0.351,1.05-0.351C183.076,20.497,191.13,21.548,199.537,21.898L199.537,21.898z M171.866,13.492
	c-0.35,0.352-0.35,0.352-0.35,0.702v-0.702H171.866z M166.261,13.844c0.351,0,0.702,0,0.702-0.352h3.152v0.702h-3.502
	C166.261,14.194,166.261,13.844,166.261,13.844L166.261,13.844L166.261,13.844z M169.765,16.995c0-0.349,0.35-0.349,0.35-0.349
	v0.349h-1.401H169.765z M175.019,9.99c0,0,0.349-0.35,0.349-0.701c0.353,0.351,0.353,0.351,0.701,0.701H175.019L175.019,9.99z
	 M176.769,6.488c0.351,0.351,0.701,1.052,1.052,1.402h-0.351c-0.701-0.701-1.05-1.402-2.103-1.752
	C175.72,6.488,176.42,6.488,176.769,6.488L176.769,6.488z M158.907,16.645c-0.351-1.052-0.701-2.102-1.052-3.153h2.452l0.351,0.352
	h2.451l0.352,0.35h-2.453c-0.35,0-0.35,0-0.7,0.351c-0.701,0.35-1.052,1.751-0.701,2.102L158.907,16.645L158.907,16.645z
	 M64.344,28.554c0,0.7,0,1.052,0.35,1.052c0.701-0.352,1.051-0.702,1.751-0.702c-1.051,0.702-2.102,1.052-2.801,1.752h-0.351
	c-0.351,0-1.051-0.351-1.4-0.351C62.593,29.605,63.644,29.253,64.344,28.554L64.344,28.554z M71.349,42.212
	c1.4-0.35,2.801-1.051,3.502-2.45c5.954,1.05,12.608,0.7,18.212,0h0.351c7.004,1.05,14.009,0,20.663-1.752
	c3.853,0,7.707,0.351,11.558,0.351C107.424,40.461,89.211,41.863,71.349,42.212L71.349,42.212z M207.242,35.208
	c1.052-1.751,1.752-3.152,2.803-4.553c0.351-0.351,0.701-0.351,0.701-0.701h0.351c0.7,0.351,1.051,0.701,1.4,1.051
	c-0.701,1.399-1.751,2.452-2.452,3.502C208.994,34.858,208.293,34.858,207.242,35.208L207.242,35.208z"/>
</svg>
