<svg width="35mm" height="11.783mm" version="1.1" viewBox="0 0 35 11.783" xmlns="http://www.w3.org/2000/svg">
 <g>
  <path d="m34.215 8.3944c-5.909-0.61736-7.4083-0.97014-13.406-1.9403-6.6146-1.0583-14.111-1.1465-19.932-3.5278 0.26458 2.8222 3.616 5.4681 6.35 7.1437h0.26458l2.2931-0.088194c-0.79375 0.088194-1.4111 0.088194-1.9403 0.088194z" fill="#fff"/>
  <path d="m34.215 8.1298c-5.1153-0.52917-10.142-1.4993-15.169-2.2049-6.0854-0.79375-12.347-0.97014-18.168-3.2632-0.17639-0.088195-0.35278 0.17639-0.26458 0.35278 0.44097 2.734 2.6458 4.5861 4.7625 6.1736 0.61736 0.44097 1.3229 1.1465 2.1167 1.1465s1.5875 0 2.2931-0.08819c0.35278 0 0.35278-0.52917 0-0.52917-0.61736 0.088194-1.3229 0.088194-1.9403 0.088194-0.35278 0-0.35278 0.52917 0 0.52917 0.61736 0 1.3229 0 1.9403-0.08819v-0.52917c-1.2347 0.088194-2.2049 0.26458-3.2632-0.44097-2.2931-1.4111-4.9389-3.5278-5.3799-6.35-0.17639 0.088194-0.26458 0.17639-0.35278 0.26458 5.3799 2.1167 11.289 2.4694 17.022 3.0868 5.5562 0.70556 10.936 1.7639 16.404 2.3812 0.35278 0 0.35278-0.52917 0-0.52917z"/>
  <path d="m9.785 9.9819c6.1736 0 20.02 0.35278 24.518-0.70556z" fill="#fff"/>
 </g>
 <g>
  <path d="m9.785 10.246c4.3215 0 8.6431 0.08819 12.876 0.08819 3.8806-0.08819 7.9375 0.08819 11.73-0.79375 0.26458 0 0.17639-0.52917-0.17639-0.44097-3.7042 0.79375-7.7611 0.61736-11.553 0.70556-4.2333 0-8.5549-0.088194-12.876-0.088194-0.26458 0-0.26458 0.52917 0 0.52917z"/>
  <path d="m0.4364 3.1027c-0.88194 1.0583 0.44097 2.4694 1.2347 3.2632 1.4111 1.4111 3.0868 2.6458 4.7625 3.7924 0.08819 0.08819 0.17639 0 0.17639 0 0.17639-0.61736-0.88194-0.35278-0.88194-0.61736 0-0.088194-0.17639-0.088194-0.17639 0v0.088195s0 0.088194 0.08819 0.088194c0.26458 0.088194 0.52917 0.088194 0.79375 0.26458-0.26458-0.26458-0.52916-0.44097-0.79375-0.61736-0.79375-0.52917-1.5875-1.1465-2.2931-1.6757-0.97014-0.79375-3.8806-3.0868-2.734-4.4979 0-0.088194-0.08819-0.17639-0.17639-0.088194z"/>
  <path d="m33.95 7.9534c0.08819 0.17639 0 0.26458 0 0.44097v0.52917c0.08819 0.088194 0.26458 0.088194 0.17639-0.088194v-0.52917c0.08819-0.17639 0.08819-0.26458 0-0.44097-0.0882-0.088194-0.17639 0-0.17639 0.088194z"/>
  <path d="m15.077 5.3957c0.79375 0.17639 2.4694 0.52917 2.8222-0.61736 0.35278-1.4111-0.88194-2.5576 1.1465-2.9986 0.17639 0 0.08819-0.26458 0.08819 0.088194 0.08819 0.35278 0.08819 0.70556 0.08819 1.0583 0.08819 0.52917 0.70556 0.61736 1.0583 0.70556 0.61736 0.088194-0.08819 0.97014 0.44097 1.3229 0.88194 0.52917 2.1167 0.26458 2.734 1.1465 0.26458 0.35278 0.70556 0.088195 0.52917-0.26458-0.35278-0.44097-0.97014-0.88194-1.6757-1.0583-0.26458 0-1.3229 0-1.2347-0.52917 0.08819-0.26458 0.26458-0.52917 0.08819-0.70556-0.44097-0.79375-1.3229-0.17639-1.4111-1.3229 0-0.26458 0-0.79375-0.26458-0.97014-0.52917-0.35278-1.9403 0.17639-2.2049 0.88194-0.08819 0.44097 0 0.88194 0.08819 1.3229 0.26458 1.5875-0.70556 1.7639-2.2049 1.4111-0.35278 0-0.44097 0.44097-0.08819 0.52917z"/>
  <path d="m22.661 5.2194c-0.70556-0.70556 0-1.1465 0.70556-1.2347 1.1465-0.17639 1.3229 0.70556 0.88194 1.5875-0.08819 0.17639 0 0.44097 0.26458 0.44097h0.88194c-0.08819-0.088194-0.17639-0.088194-0.26458-0.17639 0.08819 0.26458 0.17639 0.52917 0.44097 0.79375s0.61736-0.17639 0.35278-0.35278c-0.17639-0.17639-0.17639-0.35278-0.26458-0.61736 0-0.088195-0.0882-0.17639-0.26458-0.17639h-0.88194c0.08819 0.088194 0.08819 0.26458 0.17639 0.35278 0.26458-0.52917 0.52917-1.3229 0.08819-1.8521-0.35278-0.52917-0.97014-0.61736-1.4993-0.52917-1.1465 0.088194-2.0285 1.1465-1.0583 2.1167 0.26458 0.26458 0.61736-0.088194 0.44097-0.35278z"/>
  <path d="m25.043 5.1312c0.52917 0 1.0583 0.088194 1.4993 0.44097 0.35278 0.26458 0.44097 0.79375 0.35278 1.2347 0 0.35278 0.52917 0.35278 0.52917 0 0.0882-0.61736-0.08819-1.1465-0.44097-1.5875-0.52917-0.44097-1.2347-0.61736-1.9403-0.61736-0.35278-0.088195-0.35278 0.44097 0 0.52917z"/>
  <path d="m18.075 4.9548c-1.8521-1.0583-3.3514-2.4694-5.3799-3.175 0 0.17639-0.0882 0.35278-0.17639 0.52917 0.97014 0.17639 1.7639 0.70556 2.5576 1.2347 0.35278 0.17639 2.3812 1.4111 2.2931 1.9403-0.08819 0.35278 0.44097 0.44097 0.52917 0.17639 0.17639-0.79375-1.1465-1.5875-1.5875-1.9403-1.0583-0.79375-2.2931-1.6757-3.616-1.9403-0.35278 0-0.44097 0.44097-0.17639 0.52917 2.0285 0.61736 3.5278 2.0285 5.2917 3.0868 0.26458 0.17639 0.52917-0.26458 0.26458-0.44097z"/>
  <path d="m14.459 4.8666c-2.0285-0.88194-3.7924-2.2931-5.6444-3.5278-0.26458-0.17639-0.44097 0.17639-0.26458 0.35278 1.2347 1.6757 3.175 2.5576 4.8507 3.7042 0.26458 0.17639 0.52917-0.26458 0.26458-0.44097-1.6757-1.0583-3.5278-2.0285-4.7625-3.616-0.08819 0.17639-0.26458 0.26458-0.35278 0.44097 1.8521 1.3229 3.616 2.6458 5.6444 3.5278 0.26458 0.17639 0.61736-0.26458 0.26458-0.44097z"/>
  <path d="m15.518 2.8381c1.1465 0.61736 1.9403 2.0285 3.2632 2.3812 0.35278 0.088194 0.44097-0.44097 0.17639-0.52917-0.61736-0.17639-1.1465-0.70556-1.5875-1.0583-0.52917-0.44097-0.97014-0.97014-1.5875-1.2347-0.35278-0.17639-0.61736 0.26458-0.26458 0.44097z"/>
  <path d="m24.954 7.5124c2.2931-0.61736 4.5861-1.5875 6.9674-2.0285 0.35278-0.088194 0.17639-0.61736-0.17639-0.52917-2.3812 0.44097-4.5861 1.4111-6.9674 2.0285-0.26458 0.088194-0.17639 0.61736 0.17639 0.52917z"/>
  <path d="m27.688 7.336c1.9403-0.35278 3.7924-0.79375 5.7326-1.2347 0.35278-0.088194 0.17639-0.61736-0.08819-0.52917-1.9403 0.44097-3.8806 0.88194-5.8208 1.2347-0.26458 0.088194-0.17639 0.61736 0.17639 0.52917z"/>
  <path d="m16.752 6.8951c0.17639 0.35278 0.0882 0.79375 0 1.1465 0 0.088194 0.17639 0.17639 0.17639 0 0.0882-0.35278 0.17639-0.79375 0-1.1465 0-0.17639-0.17639-0.088194-0.17639 0z"/>
  <path d="m17.282 6.7187v1.1465c0 0.17639 0.17639 0.17639 0.17639 0v-1.1465c0.08819-0.088195-0.08819-0.17639-0.17639 0z"/>
  <path d="m17.987 7.336c-0.17639 0.44097-0.26458 0.88194-0.26458 1.3229 0 0.17639 0.17639 0.17639 0.17639 0 0-0.35278 0.08819-0.88194 0.26458-1.2347 0-0.17639-0.17639-0.17639-0.17639-0.088194z"/>
  <path d="m0.52459 3.8082c0-0.35278 0.08819-0.70556 0.17639-1.0583 0-0.088194-0.17639-0.17639-0.17639 0-0.08819 0.35278-0.17639 0.70556-0.17639 1.0583 0 0.088194 0.17639 0.088194 0.17639 0z"/>
  <path d="m5.9926 9.0999c-1.0583 0.26458-2.1167 0.35278-3.175 0.35278-0.08819 0.088194-0.08819 0.088194-0.08819 0.088194v0.44097s0 0.08819 0.08819 0.08819c4.5861 1.1465 9.6132 0.88194 14.288 0.61736 0.17639 0 0.17639-0.17639 0-0.17639-2.9986 0.17639-5.9972 0.26458-8.9958 0.08819-1.5875-0.08819-3.2632-0.26458-4.7625-0.61736-1.3229-0.26458 0.88195-0.44097 1.0583-0.44097 0.52917-0.088194 1.0583-0.17639 1.5875-0.26458 0.17639 0 0.08819-0.17639 0-0.17639z"/>
  <path d="m34.391 9.4527c0.08819 0 0.17639 0.088194 0.17639 0.17639l0.0882-0.088195c-0.61736 0-1.2347 0.088195-1.9403 0.088195-0.08819 0-0.08819 0.17639 0 0.17639 0.70556 0 1.3229-0.088194 1.9403-0.088194 0.08819 0 0.17639-0.088194 0.08819-0.088194 0-0.26458-0.08819-0.26458-0.26458-0.35278-0.08819 0-0.17639 0.088195-0.08819 0.17639z"/>
  <path d="m34.391 9.0117h0.26458c0.08819-0.088194 0.08819-0.26458 0-0.17639h-0.26458c-0.0882 0-0.0882 0.17639 0 0.17639z"/>
  <path d="m3.6996 4.3374c-0.08819 0.61736-0.17639 1.2347-0.26458 1.7639h0.08819c-0.08819-0.17639-0.17639-0.35278-0.26458-0.61736h-0.17639c0.08819 0.26458 0.17639 0.79375 0.52917 0.88194 0.35278 0.088195 0.61736-0.17639 0.79375-0.44097 0.08819-0.088195 0-0.17639-0.08819-0.17639-0.44097 0.17639-0.70556 0.088194-1.0583-0.088194 0 0 0 0.088194-0.08819 0.17639h0.61736c0.17639 0 0.35278 0 0.44097-0.088194 0.08819-0.088194 0-0.088194 0-0.088194 0-0.088195-0.08819-0.088195-0.08819-0.088195-0.17639 0-0.17639 0.17639-0.08819 0.17639 0.17639 0 0.17639-0.17639 0-0.17639-0.08819 0.088195-0.17639 0.088195-0.26458 0.088195h-0.61736c-0.0882 0-0.0882 0.088194 0 0.17639 0.44097 0.17639 0.70556 0.26458 1.2347 0.088195-0.08819 0-0.08819-0.088195-0.08819-0.088195-0.17639 0.17639-0.35278 0.35278-0.61736 0.35278-0.26458 0-0.35278-0.52917-0.44097-0.70556 0-0.088194-0.17639-0.088194-0.17639 0 0.0882 0.26458 0.17639 0.52917 0.35278 0.70556 0 0.088194 0.08819 0.088194 0.17639 0 0.08819-0.61736 0.17639-1.2347 0.26458-1.8521 0-0.088195-0.17639-0.088195-0.17639 0z"/>
  <path d="m20.809 2.9263c-0.08819-0.088194-0.17639-0.088194-0.26458-0.17639 0.26458 0.17639 0.17639 0.088194 0.08819 0.088194 0-0.088194 0-0.088194 0.08819 0.088194v0.26458c0-0.088194 0.08819-0.26458 0 0.088194v-0.088194c0-0.088194 0.08819-0.26458 0.08819-0.35278 0.08819-0.52917-0.08819-0.97014-0.61736-1.0583-0.44097-0.17639-1.0583 0.088194-1.0583 0.61736-0.08819 0.35278-0.17639 0.61736-0.08819 0.97014 0 0.35278 0.26458 0.61736 0.52917 0.88194 0.26458 0.35278 0.88194 0.26458 1.2347 0 0.35278-0.44097 0.26458-0.88194 0-1.3229z"/>
  <path d="m26.277 7.336h0.08819c0.44097 0 0.88194-0.35278 0.88194-0.88194 0-0.44097-0.44097-0.88194-0.88194-0.88194h-0.08819c-0.52917 0-0.88194 0.35278-0.88194 0.88194 0 0.44097 0.35278 0.88194 0.88194 0.88194z"/>
  <path d="m0.4364 3.7201c0.26458 1.8521 2.2049 2.6458 2.734 4.3215 0 0.088194 0.17639 0.088194 0.17639-0.088195-0.52917-1.6757-2.4694-2.3812-2.734-4.2333 0-0.17639-0.17639-0.088194-0.17639 0z"/>
  <path d="m0.26001 3.1909c0.08819 0.44097 0.17639 0.88194 0.26458 1.3229 0.08819 0.35278 0.26458 0.79375 0.17639 1.2347 0 0.088194 0.17639 0.088194 0.17639 0 0.08819-0.26458-0.0882-0.70556-0.0882-0.97014-0.08819-0.52917-0.26458-1.0583-0.35278-1.5875 0-0.088194-0.17639-0.088194-0.17639 0z"/>
  <path d="m0.70098 4.0728c0.08819 0.88194 0.35278 1.6757 0.61736 2.4694 0 0.088194 0.17639 0 0.17639-0.088194-0.08819-0.17639-0.08819-0.35278-0.08819-0.52917-0.08819-0.088195-0.17639-0.088195-0.17639 0.088194s0 0.35278 0.08819 0.52917c0-0.088194 0.08819-0.088194 0.17639-0.088194-0.26458-0.79375-0.52917-1.5875-0.70556-2.3812 0-0.17639-0.17639-0.088195-0.08819-2e-7z"/>
  <path d="m1.142 4.8666c0.35278 0.70556 0.52917 1.4993 0.88194 2.2049 0 0.088194 0.17639 0.088194 0.17639 0-0.08819-0.26458-0.08819-0.44097-0.17639-0.61736-0.08819-0.088195-0.26458 0-0.17639 0.088194 0.08819 0.17639 0.08819 0.35278 0.17639 0.52917 0 0 0.08819 0 0.08819-0.088194-0.26458-0.70556-0.44097-1.4993-0.79375-2.2049-0.08819-0.088194-0.17639 0-0.17639 0.088195z"/>
  <path d="m1.7593 5.3957c0.35278 0.61736 0.52917 1.3229 0.88195 1.9403 0 0.088194 0.17639 0 0.08819-0.088194 0-0.088195 0-0.17639-0.08819-0.35278 0-0.088194-0.17639-0.088194-0.17639 0 0.08819 0.17639 0.08819 0.26458 0.08819 0.35278h0.17639c-0.26458-0.61736-0.52917-1.3229-0.79375-1.9403-0.08819-0.088194-0.17639 0-0.17639 0.088194z"/>
  <path d="m2.7295 6.5423c0.26458 0.35278 0.44097 0.88194 0.61736 1.3229 0 0.088194 0.08819 0.088194 0.17639 0 0.08819-0.088194 0-0.26458 0-0.44097 0-0.088194-0.17639 0-0.17639 0.088195 0 0 0.08819 0.17639 0 0.26458h0.17639c-0.17639-0.44097-0.35278-0.97014-0.70556-1.3229 0-0.17639-0.17639-0.088195-0.08819 0.088194z"/>
  <path d="m3.5232 7.4242c0.26458 0.44097 0.44097 0.88194 0.70556 1.2347 0 0.088194 0.17639 0.088194 0.08819 0 0-0.17639 0-0.26458-0.08819-0.35278 0-0.088195-0.17639-0.088195-0.17639 0 0.08819 0.088194 0.08819 0.26458 0.08819 0.35278 0.08819 0 0.17639 0 0.17639-0.088194-0.26458-0.35278-0.44097-0.79375-0.61736-1.2347-0.08819-0.088194-0.17639 0-0.17639 0.088194z"/>
  <path d="m4.1406 7.9534c0.08819 0.17639 0.17639 0.35278 0.35278 0.61736 0 0.088194 0.08819 0.17639 0.08819 0.26458 0 0 0.08819 0.17639 0.08819 0.088194 0 0 0.08819 0 0.08819-0.088194 0 0.088194 0 0.088194 0.08819 0.088194-0.08819-0.088194-0.26458 0-0.17639 0.088194h0.08819c0 0.088195 0.08819 0 0.08819-0.088194s-0.17639-0.26458-0.17639-0.35278c-0.17639-0.26458-0.26458-0.44097-0.35278-0.70556-0.08819-0.088194-0.17639 0-0.17639 0.088194z"/>
  <path d="m4.7579 8.7471c0.08819 0.26458 0.26458 0.52917 0.44097 0.79375 0.08819 0.088195 0.26458 0 0.17639-0.088194-0.17639-0.26458-0.35278-0.52917-0.52917-0.79375 0-0.088194-0.17639 0-0.08819 0.088194z"/>
  <path d="m20.28 2.3089c-0.17639-0.88194-1.1465-0.97014-1.8521-0.88194-0.08819 0-0.08819 0.17639 0 0.17639 0.61736-0.088194 1.5875 0 1.6757 0.70556 0 0.17639 0.17639 0.088194 0.17639 0z"/>
  <path d="m18.163 2.2207c0-0.088194-0.08819-0.088194 0-0.26458h-0.17639c0 0.088194-0.08819 0.17639-0.08819 0.35278 0 0.088194 0.17639 0.088194 0.17639 0s0.08819-0.26458 0.08819-0.35278c0-0.088194-0.08819-0.088194-0.17639-0.088194 0 0.088194-0.08819 0.17639-0.08819 0.26458 0 0 0.08819 0.088194 0.08819 0.088194 0 0.088194 0.17639 0.088194 0.17639 0z"/>
  <path d="m17.723 2.9263c0.44097-0.70556 0-1.4993-0.88194-1.4111 0.08819 0.088194 0.17639 0.088194 0.26458 0.17639 0-0.088194 0-0.088194-0.08819-0.17639 0-0.17639-0.26458-0.26458-0.44097-0.088194-0.17639 0.17639 0.08819 0.61736 0.35278 0.44097 0.79375-0.61736 1.9403-0.088194 2.734-0.088194-0.0882-0.088194-0.17639-0.17639-0.26458-0.26458 0.08819 0.17639 0.08819 0.35278 0.08819 0.44097 0 0.35278 0.52917 0.35278 0.52917 0 0-0.088194 0-0.26458-0.08819-0.44097 0-0.088194-0.08819-0.17639-0.26458-0.26458-0.97014 0-2.1167-0.52917-2.9986 0.088194 0.08819 0.17639 0.17639 0.35278 0.35278 0.44097-0.17639 0-0.35278-0.088194-0.44097-0.088194v0.17639c0.08819 0.088194 0.17639 0.17639 0.26458 0.17639 0.44097-0.088194 0.70556 0.17639 0.44097 0.61736-0.17639 0.26458 0.26458 0.52917 0.44097 0.26458z"/>
  <path d="m19.839 2.1326c0.17639-0.17639 0.52917-0.17639 0.79375-0.17639 0-0.088194 0-0.088194-0.08819-0.088194 0.08819 0.44097-0.08819 0.79375-0.61736 0.79375-0.08819 0-0.08819 0.17639 0 0.17639 0.26458 0 0.52917-0.088194 0.70556-0.26458 0.17639-0.26458 0.17639-0.52917 0.08819-0.79375h-0.08819c-0.26458 0-0.70556 0-0.88194 0.26458-0.08819 0.088194 0 0.17639 0.0882 0.088194z"/>
  <path d="m20.28 2.7499v0.17639s0.08819 0.088194 0.17639 0c0.08819-0.088194-0.08819-0.17639-0.17639-0.088194h0.08819 0.08819v-0.088194c0.08819-0.088194-0.08819-0.088194-0.17639 0z"/>
  <path d="m20.28 2.7499c0 0.35278 0.08819 0.79375 0.44097 0.97014 0.08819 0 0.17639-0.17639 0.08819-0.17639-0.35278-0.088194-0.35278-0.52917-0.35278-0.79375 0-0.088194-0.17639-0.088194-0.17639 0z"/>
  <path d="m22.75 3.6319c-0.35278-0.088194-0.61736 0-0.97014 0.088194-0.08819 0.088195-0.17639 0.17639-0.17639 0.26458v0.088195c0 0.088194 0.0882 0.26458 0.26458 0.26458 0.35278 0 0.61736-0.17639 0.88194-0.26458 0.26458-0.088195 0.17639-0.52917-0.08819-0.52917-0.35278 0.088194-0.61736 0.17639-0.88194 0.26458-0.17639 0.088194-0.26458 0.17639-0.17639 0.35278 0.0882 0.35278 0.17639 0.70556 0.26458 1.0583 0.17639 0.26458 0.61736 0.26458 0.52917 0 0-0.35278-0.08819-0.61736-0.08819-0.88194 0-0.35278-0.52917-0.35278-0.52917 0 0 0.26458 0.08819 0.52917 0.08819 0.88194 0.17639-0.088194 0.35278-0.088194 0.52917-0.088194-0.08819-0.35278-0.17639-0.79375-0.26458-1.1465-0.08819 0.088195-0.17639 0.26458-0.17639 0.35278 0.17639-0.088195 0.44097-0.17639 0.70556-0.26458-0.0882-0.17639-0.0882-0.26458-0.17639-0.44097-0.17639 0.088194-0.44097 0.17639-0.61736 0.17639 0.08819 0.088194 0.17639 0.17639 0.26458 0.26458v-0.088195c-0.08819 0.088195-0.17639 0.17639-0.26458 0.26458 0.26458-0.088194 0.52917-0.17639 0.79375-0.088194 0.26458 0.088194 0.44097-0.44097 0.08819-0.52917z"/>
  <path d="m21.868 4.161c0 0.088194 0.08819 0.17639 0.08819 0.35278 0.08819 0.088195 0.08819 0.17639 0.08819 0.26458v0.088195c0.08819 0 0 0.088194 0 0 0.17639-0.088195 0.26458-0.17639 0.35278-0.26458 0.0882 0 0.0882 0.088194 0.17639 0.088194-0.08819-0.088194-0.26458-0.17639-0.35278-0.088194-0.17639 0.088194-0.17639 0.26458-0.08819 0.35278 0 0.088194 0.08819 0.17639 0.17639 0.17639 0.17639 0 0.26458-0.088195 0.26458-0.26458 0.0882-0.17639 0-0.35278-0.08819-0.44097 0-0.17639-0.0882-0.35278-0.0882-0.44097-0.17639-0.35278-0.61736-0.17639-0.52917 0.17639z"/>
  <path d="m22.132 3.9846c0.08819 0.35278 0 0.61736 0 0.88194-0.08819 0.26458 0.44097 0.44097 0.44097 0.088194 0.0882-0.26458 0.17639-0.61736 0.0882-0.97014 0-0.26458-0.52917-0.26458-0.52917 0z"/>
  <path d="m25.748 5.2194c0.70556 0 0.79375 0.79375 0.61736 1.3229 0 0.088194 0.17639 0.088194 0.17639 0 0.17639-0.61736 0-1.4993-0.79375-1.4993-0.08819 0.088195-0.08819 0.26458 0 0.17639z"/>
  <path d="m26.807 6.0131c0 0.088194-0.08819 0.26458 0 0.35278 0.08819 0.088195 0.26458 0 0.17639-0.088194v-0.17639c0.08819-0.088194-0.0882-0.17639-0.17639-0.088195z"/>
  <path d="m6.2572 8.8353c-1.3229-0.70556-2.4694-1.7639-3.4396-2.8222-0.35278-0.44097-0.97014 0.17639-0.61736 0.61736 1.0583 1.1465 2.2049 2.2049 3.616 2.9986 0.44097 0.26458 0.88194-0.52917 0.44097-0.79375z"/>
  <path d="m0.3482 3.4555c0.35278 0.97014 0.88194 1.7639 1.3229 2.734 0.26458 0.44097 0.97014 0 0.79375-0.52917-0.44097-0.79375-0.97014-1.5875-1.2347-2.4694-0.17639-0.52917-1.0583-0.26458-0.88194 0.26458z"/>
  <path d="m32.01 9.9819h0.52917c0.08819 0 0.08819-0.17639 0-0.17639h-0.52917c-0.17639 0-0.17639 0.17639 0 0.17639z"/>
  <path d="m16.311 10.423c2.2049 1.0583 4.6743 0.61736 7.0556 0.61736 0.08819 0 0.08819-0.17639 0-0.17639-2.3812 0-4.7625 0.44097-6.9674-0.52917-0.08819-0.08819-0.17639 0.08819-0.08819 0.08819z"/>
  <path d="m3.7878 8.218h4.5861c0.26458 0 0.26458-0.44097 0-0.44097h-4.5861c-0.26458 0-0.26458 0.44097 0 0.44097z"/>
  <path d="m4.5815 7.1596c1.0583 0 2.2049 0.088195 3.2632 0.17639 0.26458 0 0.26458-0.44097 0-0.44097-1.0583-0.088194-2.2049-0.17639-3.2632-0.17639-0.26458-0.088195-0.26458 0.35278 0 0.44097z"/>
  <path d="m5.8163 9.5409c1.0583 0.17639 2.1167 0.088195 3.175 0.088195h5.5563c0.26458 0 0.26458-0.44097 0-0.44097h-4.1451c-1.4993 0-2.9986 0.17639-4.4979-0.088194-0.26458-0.088195-0.35278 0.35278-0.08819 0.44097z"/>
  <path d="m7.5802 9.8937h5.909c0.26458 0 0.26458-0.44097 0-0.44097h-5.909c-0.35278 0-0.35278 0.44097 0 0.44097z"/>
  <path d="m4.317 8.5707c2.4694 0.26458 4.8507 0.088194 7.3201 0.088194 0.26458-0.088194 0.26458-0.52917 0-0.44097-2.4694 0-4.8507 0.17639-7.3201-0.088194-0.26458-0.088194-0.26458 0.35278 0 0.44097z"/>
  <path d="m34.568 8.7471c-2.9986 0-5.909 0.26458-8.9076 0-0.26458-0.088194-0.26458 0.35278 0 0.44097 2.9986 0.26458 5.909 0 8.9076 0 0.26458 0 0.26458-0.44097 0-0.44097z"/>
  <path d="m31.216 8.6589c0.26458 0 0.26458-0.44097 0-0.44097-0.26458 0-0.26458 0.44097 0 0.44097z"/>
  <path d="m18.075 3.2791c0.44097 0.26458 0.97014 0.44097 1.4993 0.61736 0.26458 0.088194 0.52917-0.26458 0.26458-0.35278-0.52917-0.26458-1.0583-0.44097-1.5875-0.61736-0.26458-0.088194-0.44097 0.26458-0.17639 0.35278z"/>
  <path d="m18.163 3.9846c0.44097 0 0.88194 0.088195 1.3229 0.088195 0.26458 0 0.26458-0.44097 0-0.44097-0.44097 0-0.88194-0.088194-1.3229-0.088194-0.26458 0-0.26458 0.44097 0 0.44097z"/>
  <path d="m18.428 4.3374h4.0569c0.26458 0 0.26458-0.44097 0-0.44097h-4.0569c-0.26458 0-0.26458 0.44097 0 0.44097z"/>
  <path d="m18.428 5.043c1.3229 0.088195 2.6458 0.17639 3.9688 0.17639 0.26458 0 0.26458-0.44097 0-0.44097-1.3229 0-2.6458-0.088194-3.9688-0.17639-0.26458 0-0.26458 0.44097 0 0.44097z"/>
  <path d="m18.075 5.5721h3.9688c0.26458 0 0.26458-0.44097 0-0.44097h-3.9688c-0.35278 0-0.35278 0.44097 0 0.44097z"/>
  <path d="m18.428 5.5721c1.8521 0.26458 3.7042 0.35278 5.6444 0.44097 0.26458 0 0.26458-0.44097 0-0.44097-1.8521-0.088194-3.7042-0.17639-5.5562-0.44097-0.26458 0-0.35278 0.35278-0.0882 0.44097z"/>
  <path d="m18.163 5.4839c0.97014 0.088194 1.9403 0.17639 2.9104 0.17639 0.26458 0 0.26458-0.44097 0-0.44097-0.88194 0-1.8521 0-2.734-0.17639-0.26458 0-0.44097 0.35278-0.17639 0.44097z"/>
 </g>
</svg>
