<svg width="23mm" height="11.783mm" version="1.1" viewBox="0 0 23 11.783" xmlns="http://www.w3.org/2000/svg">
 <g>
  <path d="m22.733 6.7972c-3.616-0.61736-5.9972 1.0583-9.7014 0.17639-4.0569-0.97014-8.7313-1.2347-12.347-3.2632 0.17639 2.2049 2.2931 4.4097 4.0569 5.7326h0.088194 1.4993-1.2347z" fill="#fff"/>
  <path d="m22.821 6.5326c-3.5278-0.44097-6.791 0.79375-10.319 0-3.9688-0.88194-8.0257-1.1465-11.73-3.0868-0.17639-0.088194-0.44097 0.088194-0.35278 0.35278 0.35278 2.1167 1.7639 3.7924 3.3514 5.2035 0.97014 0.88194 1.3229 0.70556 2.5576 0.70556 0.35278 0 0.35278-0.52917 0-0.52917h-1.2347c-0.35278 0-0.35278 0.52917 0 0.52917h1.2347v-0.52917c-1.0583 0-1.4111 0.08819-2.2049-0.52917-1.4993-1.3229-2.9104-2.9986-3.2632-5.0271-0.088194 0.088194-0.26458 0.17639-0.35278 0.35278 3.3514 1.6757 7.0556 2.2049 10.76 2.8222 1.7639 0.35278 3.3514 0.70556 5.1153 0.61736 2.1167-0.17639 4.1451-0.70555 6.2618-0.35278 0.35278 0 0.52917-0.52917 0.17639-0.52917z"/>
  <path d="m6.3288 9.4431c3.7924 0.17639 12.347 0.79375 15.081 0.08819z" fill="#fff"/>
 </g>
 <g>
  <path d="m6.3288 9.7076c2.734 0.08819 5.4681 0.26458 8.2021 0.35278 2.2931 0.08819 4.6743 0.26458 6.9674-0.26458 0.35278-0.08819 0.17639-0.61736-0.17639-0.52917-2.2931 0.52917-4.9389 0.35278-7.3201 0.26458-2.5576-0.0882-5.1153-0.26458-7.6729-0.35278-0.35278 0-0.35278 0.52917 0 0.52917z"/>
  <path d="m1.4781 4.2396c-0.52917 0.88194 0.35278 2.0285 0.88194 2.6458 0.79375 1.1465 1.8521 2.1167 2.8222 3.0868 0.088194 0.08819 0.17639 0 0.17639-0.08819 0.088195-0.35278-0.44097-0.17639-0.52917-0.44097-0.088194-0.17639-0.17639-0.08819-0.17639 0.08819 0.088194 0.17639 0.88194 0.44097 0.35278 0-0.44097-0.44097-0.88194-0.88194-1.3229-1.3229-0.79375-0.79375-2.734-2.6458-2.0285-3.8806 0-0.088194-0.088194-0.17639-0.17639-0.088194z"/>
  <path d="m21.675 8.9139v0.35278 0.44097c0 0.08819 0.17639 0.08819 0.17639-0.08819v-0.44097-0.26458c-0.08819-0.08819-0.26458-0.08819-0.17639 0z"/>
  <path d="m18.764 8.4729c0.61736-0.26458 1.2347-0.61736 1.8521-0.70555 0.35278-0.08819 0.17639-0.61736-0.08819-0.52917-0.70556 0.08819-1.3229 0.52917-1.9403 0.70556-0.35278 0.17639-0.17639 0.61736 0.17639 0.52917z"/>
  <path d="m19.117 8.4729c0.44097-0.08819 0.88194-0.26458 1.2347-0.35278 0.35278-0.08819 0.26458-0.61736-0.08819-0.52917-0.44097 0.08819-0.88194 0.26458-1.3229 0.35278-0.26458 0.0882-0.17639 0.61736 0.17639 0.52917z"/>
  <path d="m11.356 7.6792c0.0882 0.26458 0 0.61736 0 0.88194 0 0.08819 0.17639 0.08819 0.17639 0 0-0.26458 0.0882-0.61736 0-0.97014-0.08819-0.08819-0.17639 0-0.17639 0.08819z"/>
  <path d="m11.62 7.5028v0.97014c0.08819 0.0882 0.26458 0.0882 0.17639 0v-0.97014c0.08819-0.08819-0.08819-0.08819-0.17639 0z"/>
  <path d="m12.061 8.0319c-0.08819 0.35278-0.08819 0.70556-0.08819 1.0583 0 0.08819 0.17639 0.08819 0.17639 0 0-0.35278 0-0.70556 0.08819-0.97014 0-0.17639-0.17639-0.17639-0.17639-0.0882z"/>
  <path d="m1.6545 4.8569v-0.88194c0.088194-0.088195-0.088194-0.088195-0.17639 0v0.88194c0 0.088194 0.17639 0.088194 0.17639 0z"/>
  <path d="m3.8593 9.1785c-0.26458 0.08819-0.52917 0.17639-0.79375 0.17639-0.088194 0-0.088194 0-0.088194 0.08819v0.17639 0.08819c1.2347 0.52917 2.5576 0.61736 3.8806 0.52917 0.088194 0 0.088194-0.17639 0-0.17639-0.88194 0-1.6757 0-2.4694-0.08819-0.17639-0.08819-1.2347-0.26458-1.2347-0.44097l0.70556-0.17639c0.17639 0 0.088194-0.17639-4e-7 -0.17639z"/>
  <path d="m21.851 10.325c0.08819 0.0882 0.17639 0.0882 0.17639 0.17639 0-0.08819 0.08819-0.08819 0.08819-0.08819h-1.2347c-0.08819 0-0.08819 0.17639 0 0.17639h1.2347l0.08819-0.08819c0-0.26458-0.08819-0.17639-0.26458-0.26458-0.08819-0.08819-0.17639 0.08819-0.08819 0.08819z"/>
  <path d="m21.939 9.7958h0.17639c0.08819 0 0.08819-0.17639 0-0.17639h-0.17639c-0.08819 0-0.08819 0.17639 0 0.17639z"/>
  <path d="m2.2718 9.7076c-0.17639 0-0.26458 0.08819-0.44097 0.08819v0.08819c0 0.35278 0.52917 0.52917 0.79375 0.61736 0.70556 0.26458 1.4111 0.08819 2.0285 0.17639 0.088194 0.08819 0.17639-0.0882 0.088194-0.17639h-1.3229c-0.35278-0.08819-0.70556-0.08819-0.97014-0.26458-0.088194 0-0.44097-0.17639-0.44097-0.35278 0 0.08819 0.26458 0 0.26458 0 0.088194-0.08819 0.088194-0.26458 3e-7 -0.17639z"/>
  <path d="m3.4183 5.3861c0 0.44097 0 0.88194-0.088194 1.3229h0.17639c-0.088194-0.17639-0.17639-0.35278-0.17639-0.52917h-0.17639c0 0.26458 0.088194 0.61736 0.35278 0.70555 0.17639 0.0882 0.35278-0.17639 0.52917-0.35278 0 0-0.088194-0.08819-0.17639-0.08819-0.26458 0.08819-0.35278 0-0.61736-0.17639v0.17639c0.088195 0 0.52917 0.08819 0.61736 0v-0.17639h-0.088195c-0.088194 0-0.17639 0.088194-0.088194 0.17639h0.088194v-0.0882c0-0.088194 0-0.088194-0.088194-0.088194h-0.17639-0.26458c-0.088194 0-0.17639 0.17639-0.088194 0.17639 0.26458 0.17639 0.44097 0.26458 0.79375 0.17639 0-0.08819-0.088194-0.08819-0.088194-0.17639-0.088196 0.08819-0.17639 0.35278-0.35278 0.26458-0.17639-0.08819-0.17639-0.35278-0.17639-0.52917-0.088195-0.088195-0.17639-0.088195-0.17639 0 0 0.26458 0.088194 0.44097 0.17639 0.61736h0.17639c0.088195-0.52917 0.088195-0.97014 0.088195-1.4111 0-0.17639-0.17639-0.17639-0.17639 0z"/>
  <path d="m17.088 8.4729c0.44097-0.08819 0.88194-0.44097 0.88194-0.88194 0-0.52917-0.44097-0.97014-0.88194-0.88194-0.52917 0-0.88194 0.35278-0.88194 0.88194 0 0.44097 0.35278 0.88194 0.88194 0.88194z"/>
  <path d="m1.4781 4.7687c0.17639 1.3229 1.4111 2.1167 1.7639 3.4396 0 0.0882 0.17639 0.0882 0.088195-0.08819-0.26458-1.2347-1.4993-2.0285-1.6757-3.4396 0-0.088194-0.17639 0-0.17639 0.088194z"/>
  <path d="m1.3899 4.3278c0.088194 0.35278 0.088194 0.70556 0.17639 1.1465 0.088194 0.26458 0.17639 0.52917 0.17639 0.88194-0.088194 0.0882 0.088194 0.0882 0.17639 0 0-0.26458-0.088194-0.61736-0.17639-0.88194-0.088194-0.35278-0.088194-0.79375-0.17639-1.1465 0-0.088194-0.17639-0.088194-0.17639 0z"/>
  <path d="m1.6545 5.0333c0.088194 0.61736 0.26458 1.3229 0.44097 1.9403 0 0.08819 0.17639 0.08819 0.17639-0.0882-0.088194-0.08819-0.088194-0.26458-0.088194-0.35278 0-0.08819-0.17639-0.08819-0.17639 0s0 0.26458 0.088194 0.35278h0.17639c-0.17639-0.61736-0.35278-1.2347-0.44097-1.9403-0.088194-0.088194-0.17639 0-0.17639 0.088194z"/>
  <path d="m1.919 5.6507c0.26458 0.52917 0.35278 1.1465 0.52917 1.7639 0.088194 0.08819 0.26458 0.08819 0.17639 0 0-0.17639 0-0.35278-0.088194-0.44097 0-0.0882-0.17639-0.0882-0.17639 0 0.088194 0.17639 0.088194 0.26458 0.088194 0.44097 0.088194 0 0.17639-0.08819 0.17639-0.08819-0.17639-0.52917-0.35278-1.1465-0.52917-1.7639 0-0.088194-0.17639 0-0.17639 0.088195z"/>
  <path d="m2.36 6.0917c0.17639 0.52917 0.26458 0.97014 0.52917 1.4993 0 0.08819 0.17639 0.08819 0.088195 0v-0.26458c0-0.17639-0.17639-0.17639-0.17639 0 0 0.08819 0 0.17639 0.088194 0.26458h0.088195c-0.17639-0.52917-0.26458-1.0583-0.44097-1.4993-0.088194-0.17639-0.26458-0.088194-0.17639 0z"/>
  <path d="m2.8892 6.9736c0.17639 0.35278 0.26458 0.70555 0.44097 1.0583 0 0.08819 0.088194 0.08819 0.17639 0 0.088195-0.08819 0-0.17639 0-0.26458-0.088194-0.17639-0.26458-0.08819-0.17639 0v0.17639c0.088194 0.0882 0.088194 0.0882 0.17639 0.0882-0.17639-0.44097-0.26458-0.79375-0.44097-1.1465-0.088194-0.08819-0.17639 0-0.17639 0.088189z"/>
  <path d="m3.4183 7.6792c0.17639 0.35278 0.26458 0.70556 0.44097 1.0583 0 0.0882 0.17639 0 0.17639-0.08819-0.088194-0.08819-0.088194-0.17639-0.088194-0.26458 0-0.08819-0.17639-0.08819-0.17639 0 0 0.17639 0 0.26458 0.088195 0.35278 0-0.08819 0.088194-0.08819 0.088194-0.08819-0.088195-0.35278-0.26458-0.70556-0.35278-0.97014-0.088195-0.08819-0.26458-0.08819-0.17639 0z"/>
  <path d="m3.7711 8.2083c0.088195 0.0882 0.17639 0.26458 0.26458 0.44097 0 0.08819 0 0.08819 0.088195 0.17639v0.08819s0.088194 0 0.088194-0.08819c0 0.08819 0 0.08819 0.088194 0.08819-0.088194-0.08819-0.26458 0-0.17639 0.08819h0.088194c0.088194 0 0.088194 0 0.088194-0.08819s-0.088194-0.17639-0.17639-0.35278c0-0.17639-0.088195-0.26458-0.17639-0.44097 0-0.08819-0.17639 0-0.17639 0.08819z"/>
  <path d="m4.1239 8.8257c0.17639 0.17639 0.26458 0.44097 0.35278 0.61736 0.088194 0.08819 0.17639 0 0.17639-0.08819-0.088195-0.17639-0.26458-0.44097-0.35278-0.61736 0-0.17639-0.17639-0.08819-0.17639 0.08819z"/>
  <path d="m17.353 7.2382c-0.08819 0.08819 0 0.17639 0 0.26458 0.08819 0.08819 0.17639 0 0.17639-0.08819v-0.08819c0-0.17639-0.17639-0.17639-0.17639-0.08819z"/>
  <path d="m5.1822 8.8257c-0.79375-0.61736-1.4111-1.4111-2.0285-2.2049-0.26458-0.52917-1.0583-0.088194-0.70556 0.44097 0.61736 0.88194 1.4111 1.7639 2.2931 2.4694 0.44097 0.35278 0.88194-0.35278 0.44097-0.70556z"/>
  <path d="m1.3017 4.5924c0.17639 0.70556 0.52917 1.3229 0.79375 2.0285 0.17639 0.52917 1.0583 0.26458 0.88194-0.26458-0.26458-0.70556-0.61736-1.3229-0.79375-2.0285-0.17639-0.52917-1.0583-0.35278-0.88194 0.26458z"/>
  <path d="m19.734 10.06c0.79375-0.97014 1.8521-1.4993 2.8222-2.2049 0.26458-0.17639 0-0.61736-0.26458-0.44097-0.97014 0.70556-2.1167 1.2347-2.9104 2.2049-0.17639 0.26458 0.17639 0.70556 0.35278 0.44097z"/>
  <path d="m22.204 7.15c-0.08819 0.79375-0.79375 1.4993-1.0583 2.2931-0.08819 0.35278 0.44097 0.44097 0.52917 0.17639 0.26458-0.88194 0.97014-1.5875 1.0583-2.4694 0-0.35278-0.52917-0.35278-0.52917 0z"/>
  <path d="m5.3586 2.9167c1.9403 0.70556 3.5278 2.0285 5.4681 2.734 0.26458 0 0.52917-0.61736 0.35278-0.70556-2.0285-0.61736-3.616-2.0285-5.5563-2.6458-0.26458-0.088194-0.52917 0.52917-0.26458 0.61736z"/>
  <path d="m16.118 5.8271c0.17639 0 0.44097-0.61736 0.17639-0.61736-0.26458 0-0.44097 0.61736-0.17639 0.61736z"/>
  <path d="m7.6517 6.4444c1.7639 0.61736 4.6743-0.88194 4.5861-2.8222-0.08819 0.17639-0.17639 0.35278-0.26458 0.44097 1.1465-0.26458 6.791 0.26458 5.2917 2.5576-0.17639 0.17639-0.17639 0.79375 0.08819 0.44097 2.0285-3.0868-2.9986-4.2333-5.2035-3.616-0.17639 0.088194-0.26458 0.35278-0.26458 0.52917 0 1.4993-2.8222 2.2049-3.8806 1.7639-0.26458-0.088194-0.52917 0.61736-0.35278 0.70556z"/>
  <path d="m15.148 3.6222c-0.17639-0.35278-0.52917-0.79375-0.52917-1.2347-0.08819 0.088194-0.08819 0.088194 0 0.088194 0.08819-0.088194 0.17639-0.088194 0.26458-0.088194h0.44097c0.79375 0.088194 1.6757 0.44097 2.4694 0.61736 0.08819-0.17639 0.08819-0.44097 0.17639-0.61736-0.70556 0.52917-1.0583 1.3229-0.52917 2.1167 0.08819 0.17639 0.44097-0.35278 0.35278-0.52917-0.26458-0.44097-0.35278-0.61736 0.08819-0.97014 0.08819-0.088194 0.44097-0.52917 0.17639-0.61736-0.61736-0.17639-1.2347-0.35278-1.8521-0.52917-0.44097-0.088194-0.97014-0.17639-1.4111-0.088194-1.0583 0.35278-0.35278 1.8521 0 2.3813 0.17639 0.17639 0.52917-0.35278 0.35278-0.52917z"/>
  <path d="m12.591 2.6521c-0.26458-0.26458 0-0.17639-0.26458 0.088194 0.0882-0.088194 0.26458-0.17639 0.35278-0.17639 0.35278-0.088194 0.70556-0.088194 1.0583-0.088194 0.70556 0 1.4111 0 2.0285 0.088194 0.26458 0 0.52917-0.61736 0.35278-0.61736-1.0583-0.17639-2.1167-0.17639-3.0868-0.088195-0.61736 0.088195-1.4111 0.70556-0.79375 1.4111 0.17639 0.17639 0.52917-0.44097 0.35278-0.61736z"/>
  <path d="m15.413 2.9167v0.088194c0 0.17639 0.08819 0.17639 0.17639 0.088194 0.08819-0.088194 0.17639-0.26458 0.17639-0.44097v-0.088194c0-0.17639-0.08819-0.26458-0.17639-0.088194-0.0882 0.088194-0.17639 0.26458-0.17639 0.44097z"/>
  <path d="m8.71 2.6521c1.0583 0.26458 1.8521 1.0583 2.5576 1.6757 0.88194 0.79375 1.5875 1.4993 2.5576 2.1167 0.17639 0.08819 0.44097-0.52917 0.26458-0.61736-1.6757-1.1465-3.0868-3.3514-5.0271-3.7924-0.26458-0.088194-0.52917 0.61736-0.35278 0.61736z"/>
 </g>
</svg>
