<svg width="47mm" height="11.783mm" version="1.1" viewBox="0 0 47 11.783" xmlns="http://www.w3.org/2000/svg">
 <g>
  <path d="m19.348 4.6687c-2.0285-0.79375-3.9688-2.2049-6.0854-2.2931-0.17639 0-0.35278 0.44097-0.35278 0.61736-0.17639 0.088195-0.35278 0.61736-0.17639 0.61736 1.9403 0.35278 3.616 1.4111 5.5562 2.0285 0.70556 0.26458 1.4993 0.44097 2.2049 0.70556 0.35278 0.17639 0.61736 0.26458 0.97014 0.35278-0.08819 0.17639 0 0.26458 0 0.26458 0.35278 0 0.61736 0.088194 0.70556-0.26458 0 0 0.08819-0.088195 0.08819-0.17639 0.08819 0 0.17639 0.088194 0.26458 0.088194 0 0.088195 0 0.088195 0.08819 0.17639 0.08819 0 0.17639 0 0.26458 0.088194 0.26458 0.088195 0.44097-0.52917 0.26458-0.61736-1.0583-0.79375-2.6458-1.1465-3.7924-1.5875zm-1.9403-0.088194c-1.1465-0.52917-2.2931-1.0583-3.5278-1.4111 1.2347 0.26458 2.3812 0.79375 3.5278 1.4111z"/>
  <path d="m26.139 6.7853h0.08819c0.79375-1.5875-8.1139-4.5861-9.1722-5.7326-0.17639-0.26458-0.52917 0.35278-0.35278 0.52917 0 0.088194 0.08819 0.17639 0.17639 0.26458-0.26458-0.17639-0.61736-0.26458-0.97014-0.44097-0.17639 0-0.44097 0.61736-0.26458 0.70556 1.9403 0.70556 3.7924 1.6757 5.6444 2.6458 1.0583 0.61736 2.1167 1.1465 3.175 1.8521 0.35278 0.17639 1.9403 1.4111 2.0285 1.3229-0.17639 0.26458-0.08819 0.70556 0.17639 0.35278 0.26458-0.52917 0-1.0583-0.52917-1.4993zm-0.17639-0.26458v0.088194h-0.08819c0.08819 0 0.08819-0.088194 0.08819-0.088194z"/>
  <path d="m30.902 6.168c-2.5576-1.9403-6.791-1.7639-8.8194-4.4097-0.08819-0.17639-0.44097 0.26458-0.35278 0.52917-0.26458-0.17639-0.61736-0.26458-0.88194-0.44097-0.17639-0.088195-0.52917 0.52917-0.26458 0.61736 3.175 1.4111 5.9972 3.616 9.3486 4.7625 0.17639 0.088194 0.35278-0.35278 0.35278-0.52917 0.08819 0.088194 0.17639 0.088194 0.35278 0.17639 0.17639 0 0.44097-0.52917 0.26458-0.70556zm-0.88194 0.35278c-0.44097-0.17639-0.79375-0.35278-1.2347-0.61736 0 0-0.08819 0-0.17639 0.088194-0.52917-0.26458-1.0583-0.52917-1.5875-0.79375 1.0583 0.35278 2.1167 0.70556 2.9986 1.2347v0.088195z"/>
  <path d="m46.6 7.4027c0.0882-0.088194 0.17639-0.17639 0.17639-0.17639 0.17639-0.17639 0.26458-0.88194 0-0.61736-0.26458 0.26458-0.44097 0.52917-0.70556 0.88194 0 0-0.08819 0-0.17639 0.088194 0.17639-0.17639 0.35278-0.61736 0.08819-0.61736h-0.26458c-0.08819 0-0.08819-0.088195-0.08819-0.088195-0.0882 0.088195-0.17639 0.088195-0.26458 0.088195h-0.88195c-0.17639 0-0.26458-0.088195-0.44097-0.17639-0.0882-0.088194-0.17639 0.088194-0.26458 0.17639h-0.17639c0.08819-0.088195 0-0.17639-0.08819-0.17639h-0.44097c0.08819-0.17639 0.17639-0.26458 0.17639-0.35278 0-0.17639-0.0882-0.35278-0.17639-0.52917 0.97014-0.52917 1.9403-1.1465 2.8222-1.7639 0.17639-0.088194 0.35278-0.79375 0.08819-0.61736-0.97014 0.70556-2.0285 1.3229-3.175 1.9403-0.17639-0.17639-0.35278-0.26458-0.52917-0.44097 0.79375-0.52917 1.6757-0.97014 2.5576-1.4111 0.17639-0.088194 0.35278-0.70556 0.08819-0.61736-1.1465 0.52917-2.2049 1.1465-3.2632 1.7639-0.35278-0.088194-0.70556-0.17639-0.97014-0.26458-0.08819 0-0.17639 0.088195-0.26458 0.26458-0.26458 0-0.52917 0-0.70556 0.35278v0.26458h-0.08819c0-0.088195 0-0.17639-0.08819-0.17639-0.17639-0.088194-0.35278-0.17639-0.44097-0.35278 0-0.088195 0.08819-0.088195 0.08819-0.17639v-0.088194c0.26458 0 0.52917-0.088195 0.79375-0.17639 0.26458-0.088194 0.44097-0.70556 0.26458-0.70556-0.35278 0.17639-0.61736 0.17639-0.97014 0.26458 0-0.17639 0.08819-0.35278 0.17639-0.52917 0.17639-0.088194 0.35278-0.088194 0.52917-0.17639 0.26458 0 0.44097-0.70556 0.17639-0.61736-0.17639 0-0.26458 0.088194-0.44097 0.088194 0 0 0-0.088194-0.08819-0.088194-0.26458-0.088194-0.61736-0.17639-0.88194-0.26458 0-0.088194 0-0.26458-0.0882-0.35278-1.5875-0.26458-3.175-0.26458-4.7625 0.17639-0.17639 0-0.26458 0.35278-0.26458 0.52917s0.0882 0.26458 0.26458 0.44097c-0.44097 0-0.88194 0.088195-1.2347 0.17639-0.26458 0-0.44097 0.70556-0.26458 0.61736 0.79375-0.088194 1.4993-0.17639 2.2931-0.26458v0.26458c-0.44097 0-0.88194 0.17639-1.3229 0.26458-0.17639 0.088195-0.35278 0.61736-0.17639 0.61736v0.088194c0.52917 0.088194 1.0583 0.088194 1.6757 0v0.088194c-1.0583 0-2.0285 0.088195-3.0868-0.088194-0.26458-0.088194-0.44097 0.44097-0.35278 0.61736h-0.26458c-0.08819 0-0.08819 0.088195-0.08819 0.088195-0.0882 0-0.0882 0.088194-0.17639 0.088194-1.0583-1.1465-2.3812-2.0285-3.7924-0.97014-0.17639 0.088195-0.35278 0.70556-0.0882 0.61736-0.08819 0.088194-0.17639 0.26458-0.17639 0.35278-0.52917 0.088194-0.97014 0.088194-1.4111 0.17639-0.35278 0.088194-0.79375 0.35278-0.97014 0.61736-2.0285-0.26458-3.9687-0.52917-5.9972-0.88194-3.5278-0.70556-7.2319-1.4111-10.583-2.734 0.08819-0.17639 0-0.35278-0.08819-0.35278-0.26458 0-0.61736-0.088194-0.88194-0.088194-0.17639-0.088194-0.26458-0.17639-0.44097-0.26458-0.08819 0-0.08819 0.088194-0.17639 0.088194-0.70556-0.17639-1.4111-0.44097-2.0285-0.88194-0.08819-0.088195-0.88194 0-1.0583 0-0.52917 0.088194-1.1465 0.088194-1.6757 0.26458-0.17639 0-0.26458 0.35278-0.26458 0.52917v0.088194c-0.26458 0.088195-0.52917 0.17639-0.79375 0.26458-0.17639 0.088194-0.44097 0.61736-0.26458 0.70556 0.61736 0.088194 1.2347 0.26458 1.6757 0.61736-0.08819 0.088194-0.08819 0.26458 0 0.35278 0.17639 0.17639 0.35278 0.35278 0.52917 0.52917-0.08819 0.26458-0.08819 0.44097 0 0.35278h0.26458c0.26458 0.26458 0.61736 0.52917 0.88195 0.88194-0.0882 0-0.17639 0-0.17639-0.088194-0.26458 0-0.44097 0.70556-0.26458 0.70556 0.61736 0 1.2347 0.44097 1.7639 1.0583-0.17639 0.088195-0.35278 0.52917-0.17639 0.61736 0.35278 0.17639 0.70556 0.44097 0.88194 0.79375v0.26458c-0.08819 0.08819-0.17639 0.17639-0.17639 0.17639v0.0882 0.08819 0.35278c0 0.08819 0 0.17639 0.08819 0.26458v0.35278c0 0.08819 0 0.08819-0.08819 0.08819h-0.08819c-0.17639 0-0.35278 0.70556-0.17639 0.70556h0.52917c0.08819 0 0.08819 0.0882 0.17639 0.17639 0.52917 0.35278 1.1465 0.17639 1.4111-0.26458 1.7639-0.0882 3.4396-0.0882 5.1153-0.17639 4.9389 0.44097 10.407-0.0882 15.61-0.61736 4.8507-0.08819 9.7014 0.08819 14.552-0.26458 0.17639 0 0.26458-0.35278 0.26458-0.52917v-0.17639c0-0.0882 0-0.0882-0.08819-0.0882-0.26458 0-0.44097 0-0.70556-0.08819 0.52917-0.08819 1.1465-0.08819 1.6757-0.17639-0.17639 0.26458-0.17639 0.61736-0.08819 0.88194 0.08819 0.35278 0.44097-0.26458 0.35278-0.44097 0-0.17639 0-0.35278 0.0882-0.52917 0.17639 0 0.44097-0.08819 0.61736-0.08819h0.08819c-0.08819 0.26458-0.17639 0.61736-0.08819 0.88194 0.08819 0.17639 0.17639 0.26458 0.35278 0.35278 0 0.0882 0 0.26458 0.0882 0.35278 0 0.17639 0.17639 0 0.26458-0.26458h0.44097c0.17639 0 0.44097-0.61736 0.17639-0.61736-0.17639 0-0.44097 0-0.52917-0.08819 0-0.26458 0-0.44097 0.08819-0.70556 0.88195 0 1.5875 0 0.70556-0.52917l-0.17639 0.088195c0.17639-0.17639 0.35278-0.52917 0.17639-0.61736h0.08819c0.17639-0.088194 0.26458-0.35278 0.26458-0.52917zm-1.6757 0.26458h-0.08819-0.0882 0.17639zm-2.1167-0.88194c-0.26458-0.088194-0.52917-0.17639-0.79375-0.26458 0.17639-0.088194 0.44097-0.26458 0.61736-0.35278 0.0882 0.17639 0.17639 0.35278 0.17639 0.61736zm-0.61736-0.97014c0 0.088195-0.0882 0.088195-0.17639 0.088195-0.08819 0.088194-0.17639 0.26458-0.17639 0.44097-0.17639-0.17639-0.26458-0.35278-0.26458-0.52917 0 0 0-0.17639-0.08819-0.17639h-0.26458c0.08819-0.088195 0.17639-0.088195 0.26458-0.17639 0.26458 0.088194 0.52917 0.17639 0.70556 0.35278zm-2.0285-0.44097h0.35278s0.0882-0.088195 0.17639-0.17639c0.08819 0 0.17639 0.088194 0.35278 0.088194-0.08819 0.088195-0.08819 0.17639-0.08819 0.26458-0.26458 0-0.52917-0.088194-0.88194-0.088194 0.08819-0.088194 0.08819-0.088194 0.08819-0.088194zm-0.88194 0.70556c0.61736 0.26458 1.2347 0.44097 1.8521 0.52917 0.08819 0 0.08819 0 0.08819-0.088194 0 0.088194 0.08819 0.17639 0.08819 0.17639 0.0882 0.17639 0.26458 0.35278 0.44097 0.44097-0.52917 0.088195-1.0583 0.17639-1.5875 0.26458-0.88194 0-1.7639 0.088195-2.5576 0.17639v-0.088194c0-0.088195 0-0.26458-0.17639-0.17639 0 0-0.0882 0-0.0882 0.088194 0-0.088194-0.08819-0.088194-0.08819 0-0.08819 0-0.08819 0-0.08819 0.088195h-0.52917c-0.0882 0-0.17639 0.17639-0.17639 0.35278h-0.26458c-0.17639 0.088194-0.35278 0.44097-0.26458 0.61736-0.08819 0-0.17639 0.088195-0.26458 0.088195v-0.088195c0.08819-0.088194 0.35278-0.44097 0.26458-0.52917 0-0.17639 0-0.35278 0.08819-0.61736 0.0882 0 0.26458 0 0.35278-0.088194 0.79375-0.088195 0.79375-0.97014 0.26458-1.4111v-0.088194h1.1465c0.17639 0 0.44097-0.70556 0.17639-0.70556-0.26458 0.088195-0.61736 0.088195-0.88195 0.088195 0.0882-0.088195 0.17639-0.17639 0.17639-0.26458 0.52917 0 0.97014-0.088195 1.4111-0.17639 0 0.088194-0.08819 0.17639-0.08819 0.26458-0.17639-0.17639-0.44097 0.52917-0.26458 0.61736 0.17639 0.088195 0.35278 0.17639 0.52917 0.26458-0.08819 0.17639-0.08819 0.26458 0.08819 0.26458h0.35278zm-2.4694-1.2347c-0.08819 0.088194-0.08819 0.17639-0.17639 0.26458h-0.79375c0-0.088195-0.0882-0.17639-0.17639-0.17639-0.17639 0-0.35278 0.088194-0.52917 0.088194 0.52917-0.088194 1.0583-0.088194 1.6757-0.17639zm-1.7639-0.97014v-0.17639h0.08819c0 0.088195 0 0.17639 0.08819 0.17639h-0.17639zm1.5875-0.088194c0.35278 0 0.70555 0 1.1465-0.088195-0.17639 0-0.26458 0.088195-0.35278 0.088195h-0.79375zm1.7639-0.17639h0.61736c0 0.17639 0 0.26458-0.0882 0.44097-0.17639 0-0.44097 0-0.70555 0.088194v-0.088194c0.08819-0.088195 0.17639-0.26458 0.17639-0.44097zm-3.8806-0.97014c0.70555-0.088194 1.4993-0.088194 2.2931-0.088194-0.08819 0.17639-0.17639 0.35278-0.08819 0.44097-0.52917 0-1.0583 0.088195-1.4993 0.088195 0-0.088195-0.08819-0.088195-0.08819-0.17639-0.08819 0-0.44097-0.088195-0.61736-0.26458zm-0.26458 4.7625c0.52917 0 0.97014 0 1.4993-0.088194-0.08819 0.26458-0.17639 0.52917-0.17639 0.70556-0.44097-0.088195-0.88195-0.17639-1.3229-0.26458 0-0.17639 0.08819-0.35278 0-0.35278zm-0.26458 0h-0.61736 0.61736zm-1.4111 0zm-2.2049 0.61736c0.35278 0 0.61736 0.088194 0.88194 0.088194 0.26458 0 0.44097-0.52917 0.35278-0.61736h0.08819c0.08819 0.088194 0.17639 0.17639 0.35278 0.35278-0.17639 0.17639-0.17639 0.44097 0 0.44097 0 0 0.0882-0.088195 0.17639-0.17639 0 0.088194 0 0.17639 0.08819 0.35278 0.0882 0.088195 0.35278-0.26458 0.35278-0.52917 0.35278 0.088195 0.70555 0.088195 1.0583 0.088195-0.0882 0.17639-0.0882 0.35278 0.08819 0.35278 0.35278 0 0.61736 0.088194 0.97014 0.17639-1.4993 0.088194-3.0868 0.17639-4.4097-0.44097v-0.088194zm-5.1153-1.4993c0.35278 0 0.70556-0.088194 1.0583-0.088194 0.61736 0 1.3229 0 1.9403 0.088194 0.17639 0 0.26458-0.35278 0.26458-0.52917 0.08819-0.17639 0.08819-0.35278 0-0.44097-0.44097-0.088194-0.88194-0.26458-1.4111-0.26458 1.1465-0.70556 2.2049-0.17639 3.175 0.70556h-0.0882c-0.52917 0.26458-0.70555 0.79375-0.52917 1.2347-0.26458 0-0.52917-0.088195-0.79375-0.088195h-0.17639c-1.2347-0.17639-2.4694-0.35278-3.7042-0.52917 0.0882 0 0.17639 0 0.26458-0.088194zm-21.96-2.2049c-0.35278-0.61736-0.88194-1.0583-1.4993-1.3229 0.08819-0.088194 0.08819-0.088194 0.08819-0.17639 0.61736-0.088194 1.3229-0.088194 1.9403 0 0.17639 0 0.44097-0.70556 0.17639-0.70556-0.70556-0.088194-1.4111 0-2.1167 0.088194 0.79375-0.17639 1.8521-0.35278 2.3813 0 0.70555 0.52917 1.5875 0.79375 2.3812 0.88194 3.5278 1.5875 7.3201 2.3813 11.024 3.0868 2.2931 0.44097 4.5861 0.79375 6.8792 1.0583v0.088194h0.08819c0.52917 0 1.0583 0.088194 1.4993 0.17639 0 0-0.08819 0-0.17639 0.088194-4.0569-0.17639-8.2021-0.79375-12.083-1.8521-1.7639-0.44097-3.5278-0.97014-5.2917-1.3229-0.61736-0.088194-1.4993-0.35278-2.2049-0.17639 0.08819-0.26458 0.08819-0.44097-0.08819-0.44097-0.97014 0.088194-1.9403 0.26458-2.9986 0.52917zm3.8806 6.1736c0.0882 0.08819 0 0.08819 0 0zm0.17639 0.26458c0-0.08819-0.08819-0.17639-0.17639-0.26458v-0.17639c0-0.26458 0.0882-0.52917 0.0882-0.88194 0-0.08819 0.08819-0.26458 0.08819-0.35278 1.2347 0.70556 2.6458 1.1465 4.0569 1.4993-1.3229 0.08819-2.734 0.08819-4.0569 0.17639zm33.955-0.97014c-1.5875 0-3.175 0.0882-4.7625 0.0882 1.5875-0.0882 3.2632-0.17639 4.8507-0.35278 0 0.0882-0.0882 0.17639-0.0882 0.26458zm2.9104-1.4993c-0.08819 0.088194-0.17639 0.26458-0.26458 0.35278l-17.286 1.3229c-1.7639 0-3.5278 0.08819-5.2917 0.17639 0-0.0882-0.08819-0.0882-0.08819-0.0882-2.1167 0.17639-4.1451 0.26458-6.2618 0.35278-2.6458-0.17639-5.2035-0.70555-7.4965-2.0285-0.08819-0.088194-0.08819-0.088194-0.17639-0.088194 0.08819-0.26458 0.08819-0.61736 0-0.88194-0.08819-1.4993-0.97014-2.4694-2.4694-2.4694-0.44097 0-0.70555 0.26458-0.79375 0.61736-0.17639-0.17639-0.35278-0.26458-0.52917-0.44097 0.08819-0.088195 0.08819-0.17639 0.08819-0.17639 0-0.088194-0.08819-0.088194-0.08819-0.088194 0.70556-0.17639 1.4111-0.26458 2.1167-0.35278-0.08819 0.26458-0.17639 0.70556 0.08819 0.52917 0.88194-0.70556 3.3514 0.26458 4.3215 0.44097 1.4993 0.35278 3.0868 0.79375 4.6743 1.2347 2.2049 0.52917 4.4979 0.70556 6.791 1.0583 1.1465 0.088194 2.2049 0.26458 3.3514 0.35278-0.0882 0.17639-0.17639 0.61736 0 0.52917 0.26458-0.17639 0.61736-0.35278 0.97014-0.44097 1.0583 0 2.1167 0.088195 3.175 0.088195 0.70556 0.52917 1.4111 0.88194 2.4694 0.88194 1.4993 0.08819 3.0868 0 4.6743 0 0.17639 0 0.44097-0.70556 0.17639-0.70556l0.08819-0.088194c0.35278 0 0.79375-0.088194 1.1465-0.17639 0 0.17639 0 0.26458 0.0882 0.26458 0.61736-0.17639 1.2347-0.26458 1.8521-0.35278-0.0882 0.17639-0.0882 0.35278 0 0.35278 0.44097-0.088194 0.88194-0.088194 1.3229-0.088194 0.08819 0 0.17639-0.088194 0.26458-0.17639 0.61736 0 1.2347 0 1.9403-0.088194 0.35278 0.088194 0.79375 0.088194 1.2347 0.17639h-0.0882zm0.79375 0.26458c-0.61736 0.088194-0.61736 0.088194-0.61736 0.088194h0.08819c0.0882-0.088194 0.17639-0.17639 0.26458-0.26458h0.44097c-0.08819 0.088194-0.08819 0.17639-0.17639 0.17639zm0.0882 0.88194c-0.0882-0.08819 0-0.26458 0.08819-0.44097 0 0.17639-0.08819 0.35278-0.08819 0.44097zm0.70555-0.88194h0.0882z"/>
  <path d="m15.909 0.69992c-0.35278-0.088194-0.70556-0.26458-0.97014-0.35278-0.17639 0-0.17639 0.35278-0.0882 0.44097h0.0882c-0.44097 0-0.88194-0.088194-1.4111-0.088194-0.0882 0-0.0882 0.17639 0 0.35278h-0.70556s-0.08819 0.088195-0.08819 0.17639h-0.70556c-0.17639 0-0.08819 0.44097 0 0.44097 0.61736 0 1.3229 0 1.9403-0.088194 0 0 0.08819-0.088194 0.08819-0.17639 0.17639 0.088194 0.26458 0.088194 0.44097 0.088194 0.08819 0 0.08819-0.17639 0.08819-0.26458h0.17639c0 0.088194 0.08819 0.17639 0.08819 0.17639h0.0882c-0.0882 0-0.0882 0.44097 0 0.44097 0.26458 0 0.52917-0.088194 0.70556-0.088194 0.08819 0 0.08819-0.26458 0.08819-0.35278 0-0.17639 0-0.35278-0.17639-0.35278 0.08819 0 0.17639 0.088195 0.26458 0.088195 0.17639 0.088194 0.17639-0.35278 0.08819-0.44097z"/>
  <path d="m20.583 1.0527c-0.17639-0.088194-0.35278-0.17639-0.52917-0.26458v0.088195c-0.08819 0-0.17639 0-0.17639-0.088195-0.17639 0-0.08819 0.35278 0 0.44097 0.08819 0 0.17639 0 0.35278 0.088194-0.17639-0.088194-0.35278-0.088194-0.52917-0.088194 0-0.088194-0.08819-0.35278-0.17639-0.26458h-1.3229c-0.08819 0 0 0.35278 0.0882 0.35278h1.0583c0 0.088195 0 0.17639 0.08819 0.26458-0.44097 0.088194-0.88194 0.088194-1.3229 0.17639-0.0882 0-0.0882 0-0.0882 0.088194h-0.26458v-0.088194c0.08819 0 0.08819 0 0.08819-0.088194 0.17639 0 0-0.44097-0.08819-0.35278-0.08819 0.088195-0.17639 0.17639-0.26458 0.17639-0.08819 0-0.08819 0.088194 0 0.26458h-0.26458l-0.35277-0.26458c0-0.088194 0-0.17639-0.08819-0.17639-0.88194 0.088195-1.6757 0-2.5576 0-0.17639 0 0 0.35278 0.08819 0.35278 0.88194 0 1.6757 0.088194 2.5576 0l0.17639 0.088194h-0.08819c-0.08819 0 0 0.44097 0.08819 0.44097 0.26458 0 0.52917-0.088194 0.70556-0.17639 0.08819 0 0.08819 0 0.08819-0.088194 0 0 0.08819-0.088194 0.17639-0.088194 0 0.17639 0.0882 0.26458 0.17639 0.26458 0.52917-0.088194 1.0583-0.088194 1.5875-0.17639v-0.26458h0.26458-0.08819c-0.17639 0 0 0.44097 0.08819 0.35278h0.35278c0.08819 0 0.08819-0.26458 0-0.35278h0.08819c0.17639 0.088194 0.08819-0.35278 0-0.35278h-0.08819c0.08819 0 0.17639 0.088195 0.26458 0.088195 0.08819 0 0-0.35278-0.08819-0.35278z"/>
  <path d="m12.646 2.1992h-0.35278c0-0.17639 0-0.35278-0.0882-0.35278h-0.70556c-0.08819 0-0.08819 0.44097 0.08819 0.44097h0.44097v0.17639h-0.17639c0-0.088194 0-0.17639-0.08819-0.17639-0.79375 0.088194-1.4993 0.088194-2.2931 0.26458l-0.08819 0.088194h-0.17639c0-0.088194-0.08819-0.17639-0.08819-0.17639-0.26458 0-0.44097 0-0.61736 0.088194-0.08819 0-0.08819 0.44097 0.08819 0.44097 0.17639-0.088194 0.35278-0.17639 0.52917-0.088194 0.08819 0 0.08819-0.088195 0.08819-0.088195l0.17639-0.088194c0.08819 0.088194 0.08819 0.26458 0.17639 0.17639 0.35278-0.088195 0.61736-0.088195 0.97014-0.088195h-0.26458c-0.08819 0.088195 0 0.44097 0.08819 0.44097 0.61736-0.088195 1.3229-0.088195 1.8521-0.35278h0.35278c0.08819 0 0.08819-0.17639 0.08819-0.26458h0.0882c0.08819 0 0.08819-0.44097-0.0882-0.44097z"/>
 </g>
</svg>
