<?xml version="1.0" encoding="utf-8"?>
<!-- Generator: Adobe Illustrator 16.0.0, SVG Export Plug-In . SVG Version: 6.00 Build 0)  -->
<!DOCTYPE svg PUBLIC "-//W3C//DTD SVG 1.1//EN" "http://www.w3.org/Graphics/SVG/1.1/DTD/svg11.dtd">
<svg version="1.1" id="Layer_1" xmlns="http://www.w3.org/2000/svg" xmlns:xlink="http://www.w3.org/1999/xlink" x="0px" y="0px"
	 width="129.651px" height="43.647px" viewBox="-30.438 -10.247 129.651 43.647"
	 enable-background="new -30.438 -10.247 129.651 43.647" xml:space="preserve">
<path fill="#FFFFFF" d="M96.183,21.471c-8.297-0.866-16.796-0.492-24.306-4.461c-0.88-0.464-0.115-2.536-1.145-3.955
	c-2.266-3.122-7.895-6.75-11.138-8.223c-4.175-1.897-9.568,2.557-12.386,0.417c-3.862-2.935-1.755-6.419-5.101-8.223
	c-3.403-1.835-3.182,0.109-7.078-0.521c-0.46-0.073-4.725,8.243-7.139,12.475c-0.832,1.46-6.753-0.585-6.913-0.609
	c-1.714-0.26,1.146,2.289-0.417,2.082C0.34,7.77-7.228,9.265-26.627,1.329c0.975,10.396,13.32,20.143,23.392,26.315h0.975
	l8.447-0.324c-2.924,0.324-5.198,0.324-7.148,0.324l75.531-0.556l21.442-1.408L96.183,21.471z"/>
<path d="M32.178,15.949c0.65,1.3,0.325,2.924,0,4.224c0,0.324,0.65,0.649,0.65,0c0.325-1.3,0.65-2.924,0-4.224
	C32.828,15.299,32.178,15.624,32.178,15.949z"/>
<path d="M34.13,15.299v4.223c0,0.65,0.649,0.65,0.649,0v-4.223C35.104,14.974,34.455,14.649,34.13,15.299z"/>
<path d="M36.728,17.573c-0.649,1.625-0.975,3.249-0.975,4.874c0,0.649,0.65,0.649,0.65,0c0-1.3,0.325-3.249,0.975-4.549
	C37.378,17.249,36.728,17.249,36.728,17.573z"/>
<path d="M98.454,26.02c0-0.863-0.255-0.961-0.764-1.199c-0.032-0.151-0.096-0.295-0.191-0.423c0.104,0,0.206-0.002,0.308-0.002
	c0.976,0,0.976-1.625,0-1.625c-0.543,0-1.083,0.013-1.627,0.017v-0.343c0.003,0.002,0.006,0.002,0.007,0.002
	c1.22,0,1.278-1.702,0.204-1.909c0.056-0.317-0.002-0.603-0.211-1.016c-0.324-0.324-0.649,0-0.649,0.325
	c0.115,0.231,0.136,0.414,0.132,0.59c-7.563-0.793-15.074-1.847-22.554-2.988c6.912-1.279,13.543-2.849,20.473-4.424
	c1.3-0.325,0.649-2.274-0.325-1.949c-7.147,1.625-14.295,3.249-21.439,4.548c-0.176,0.059-0.292,0.179-0.386,0.316
	c0.03-0.098,0.063-0.194,0.063-0.316c0.01-0.07,0.01-0.134,0.019-0.204c5.44-1.787,10.927-3.627,16.548-4.669
	c1.3-0.325,0.649-2.274-0.649-1.949c-5.459,1.011-10.666,2.776-15.933,4.514c-0.213-1.314-0.774-2.494-1.609-3.54
	c-1.949-1.625-4.548-2.274-7.147-2.274c-0.051-0.013-0.088-0.001-0.136-0.006c-0.052-0.816-0.287-1.599-0.842-2.268
	c-1.299-1.949-3.573-2.274-5.522-1.949c-0.67,0.052-1.31,0.202-1.909,0.417c-0.109-0.056-0.229-0.092-0.362-0.092
	c-0.272,0.068-0.52,0.136-0.765,0.203c-0.817,0.003-1.573,0.218-2.484,0.447c-0.219,0.217-0.426,0.433-0.546,0.65H48.59
	c0.154-0.494,0.189-0.945-0.164-1.299c-0.194-0.349-0.413-0.622-0.646-0.842c-0.15-0.477-0.369-0.954-0.656-1.433
	c-0.018-0.017-0.033-0.024-0.049-0.038c0.029-0.108,0.049-0.207,0.049-0.287c0.138-0.839,0.086-1.609-0.163-2.25
	c0.083-0.549,0.021-1.099-0.162-1.648h-0.325c-0.391,0-0.886,0.002-1.38,0.067c-0.084-0.021-0.155-0.052-0.244-0.067
	c-0.229-0.09-0.47-0.142-0.716-0.171c-0.046-0.252-0.12-0.525-0.256-0.803c0-0.325-0.325-0.65-0.975-0.975
	c-0.229,0-0.461-0.008-0.694-0.023c-0.616-0.387-1.532-0.469-2.533-0.318c-2.711-0.434-5.51-0.951-7.819,0.665
	c0.013,0.028,0.027,0.053,0.041,0.08c-0.127,0.057-0.251,0.131-0.366,0.245c-0.305,0.306-0.244,0.822,0,1.222v0.402
	c0.325,0.325,0.65,0.65,0.975,0.65c0.717-0.142,1.292-0.021,1.644,0.285c-0.005,0.014-0.014,0.027-0.02,0.04
	c-0.145,0.729-0.148,1.455-0.092,2.182c-0.07,0.221-0.042,0.426,0.061,0.608c0.088,0.695,0.217,1.388,0.356,2.084
	c0.043,0.256,0.065,0.488,0.091,0.726c-0.03-0.025-0.061-0.052-0.091-0.076c-1.95-1.624-3.574-3.574-5.848-4.548
	c-1.3-0.65-2.274,0.975-0.975,1.625c2.482,1.336,4.517,3.68,6.762,5.652c-0.047,0.15-0.105,0.286-0.165,0.42
	c-0.068-0.043-0.135-0.089-0.203-0.133c-1.273-1.137-2.72-2.089-3.471-2.69c-3.899-2.924-8.447-6.173-13.321-7.147
	c-1.299,0-1.624,1.624-0.649,1.949c6.254,1.903,11.147,5.851,16.385,9.374c0.009,0.009,0.016,0.018,0.027,0.026
	c-1.453,0.836-3.791,0.698-6.665,0.022c-1.299,0-1.625,1.624-0.325,1.949h0.002c2.133,0.475,5.988,1.284,8.426,0.053
	c0.013,0.093,0.032,0.189,0.018,0.271c-0.108,0.429,0.044,0.741,0.294,0.947c-4.576-0.533-9.17-1.01-13.766-1.508
	c0.171-0.233,0.26-0.538,0.204-0.823c0.523,0.246,1.042,0.503,1.573,0.734c0.975,0.65,2.274-0.975,0.975-1.624
	C16.55,5.353,10.265,0.433,3.728-3.985C3.578-4.168,3.411-4.333,3.265-4.52c-0.027,0.056-0.07,0.1-0.102,0.152
	C3.089-4.419,3.015-4.471,2.94-4.52C1.966-5.17,1.316-3.871,1.966-3.221c0.038,0.052,0.083,0.095,0.121,0.146
	C2.046-3.014,2-2.962,1.966-2.896c0.225,0.161,0.447,0.321,0.672,0.481C7.031,3.019,13.449,6.168,19.18,9.991
	C3.639,8.283-11.875,6.161-26.619,0.353c-0.191-0.091-0.375-0.07-0.537,0.013c-0.19-0.118-0.445-0.092-0.445,0.313
	c-0.088,0.357-0.177,0.713-0.258,1.07c-0.11,0.102-0.205,0.215-0.281,0.341c-0.19-0.051-0.435,0.012-0.435,0.213
	c0.033,0.165,0.066,0.331,0.1,0.499c-1.222,2.274-0.117,4.878,1.554,7.186c0.076,0.57,0.088,1.153-0.03,1.737
	c0,0.325,0.65,0.325,0.65,0c0.081-0.24,0.1-0.521,0.086-0.821c0.183,0.227,0.369,0.451,0.557,0.67
	c0.24,0.794,0.49,1.586,0.751,2.372c0.048,0.236,0.113,0.468,0.229,0.703c0,0.325,0.65,0,0.65-0.325
	c-0.076-0.229-0.15-0.458-0.228-0.686c-0.043-0.207-0.069-0.412-0.081-0.618c0.332,0.348,0.656,0.677,0.958,0.978
	c0.105,0.104,0.216,0.205,0.321,0.309c0.295,0.779,0.608,1.55,0.979,2.292c0,0.325,0.65,0.325,0.65,0
	c-0.123-0.367-0.195-0.679-0.26-0.974c0.51,0.479,1.031,0.95,1.555,1.419c0.003,0.069,0.004,0.136,0.004,0.204h0.164
	c0.058,0.106,0.102,0.219,0.162,0.324c0,0.181,0.193,0.157,0.317,0.051c0.285,0.249,0.574,0.492,0.864,0.739
	c0.299,0.576,0.568,1.172,0.768,1.81c0,0.324,0.649,0.324,0.649-0.325c-0.045-0.145-0.107-0.279-0.16-0.42
	c0.06,0.047,0.116,0.098,0.176,0.147c0.021,0.133,0.103,0.193,0.225,0.181c0.233,0.189,0.471,0.376,0.705,0.563
	c0.087,0.261,0.293,0.461,0.609,0.489c0.419,0.332,0.841,0.663,1.268,0.992c0.024,0.037,0.049,0.075,0.073,0.11
	c0.025,0.203,0.029,0.401,0.029,0.537c0.11,0,0.216-0.005,0.313-0.018c0.004,0.005,0.006,0.013,0.011,0.018
	c0,0.325,0.65,0.325,0.325,0v-0.074c0.331,0.252,0.658,0.507,0.992,0.754c0.043,0.082,0.162,0.303,0.24,0.364
	c-0.031,0.076-0.022,0.165,0.069,0.254h0.325c0,0.199,0.119,0.143,0.213,0.003c0.12,0.088,0.239,0.178,0.359,0.264
	c0.139,0.251,0.288,0.505,0.448,0.755c-2.722,0.428-5.445,0.604-8.169,0.604l-0.325,0.324v1.625c0,0,0,0.324,0.325,0.324
	c16.747,4.188,35.087,3.268,52.178,2.302c7.473,2.576,15.625,1.273,23.52,1.273c0.325,0,0.325-0.649,0-0.649
	c-7.693,0-15.387,1.247-22.642-0.855c0.11-0.19-0.01-0.445-0.422-0.445c-0.271,0.018-0.543,0.029-0.816,0.044
	c-0.598-0.206-1.194-0.433-1.786-0.692c-0.325-0.325-0.65,0.325-0.325,0.325c0.326,0.157,0.658,0.291,0.988,0.43
	c-10.399,0.573-20.799,0.831-31.2,0.219c-5.848-0.325-12.021-0.975-17.544-2.274c-4.873-0.975,3.249-1.625,3.899-1.625
	c0.877-0.145,1.755-0.293,2.633-0.438c0.096,0.146,0.191,0.294,0.289,0.438c0.325,0.325,0.975,0,0.65-0.324
	c-0.053-0.08-0.106-0.16-0.16-0.24c0.269,0.191,0.539,0.384,0.81,0.573v0.316c0,0,0,0.325,0.325,0.325
	c0.31,0.103,0.619,0.175,0.927,0.243c0.665,0.462,1.331,0.926,1.997,1.381c0.325,0.325,0.65,0,0.65,0
	c0.016-0.052,0.013-0.091,0.023-0.141c0.931,0.47,1.896,0.791,2.903,0.791c0.429,0,0.856-0.003,1.284-0.003
	c0.005,0,0.009,0.003,0.015,0.003c2.274,0,4.874,0,7.147-0.325c0.078,0,0.137-0.026,0.206-0.039c0.043,0.009,0.073,0.038,0.12,0.038
	H6.513c15.919,0,31.839,0.324,47.431,0.324c11.281-0.255,22.963,0.087,34.252-1.35c0.063,0.02,0.104,0.052,0.189,0.052h1.949
	c0.183,0,0.251-0.201,0.229-0.382c0.64-0.097,1.276-0.197,1.913-0.308c1.994-0.082,3.829-0.285,5.655-0.285
	C98.454,26.345,98.779,26.02,98.454,26.02z M70.021,16.458c0.422,0.233,0.995,0.144,1.283-0.264
	c-0.096,0.324-0.045,0.711,0.137,0.999c-0.634-0.098-1.271-0.193-1.907-0.293C69.711,16.766,69.874,16.623,70.021,16.458z
	 M68.242,11.075c0.059,0.043,0.104,0.098,0.157,0.145c-0.082-0.026-0.16-0.057-0.243-0.076c-0.023-0.062-0.047-0.122-0.072-0.181
	C68.137,11.002,68.191,11.035,68.242,11.075z M62.424,9.319c0.093,0.051,0.184,0.104,0.298,0.132c0.792,0,1.585,0.059,2.355,0.211
	c-0.01,0.183,0.068,0.288,0.241,0.114c0.205,0,0.373,0.047,0.552,0.083c0.227,0.067,0.451,0.146,0.672,0.234
	c0.417,0.229,0.729,0.566,0.938,0.982h-0.213c-0.87,0-1.601,0.271-2.153,0.732c-0.038-0.135-0.07-0.26-0.121-0.408
	c0-0.325-0.324-0.649-0.975-0.649h-2.03C62.161,10.291,62.312,9.811,62.424,9.319z M54.054,6.03c0.073-0.044,0.145-0.09,0.224-0.131
	c0.119-0.022,0.229-0.075,0.323-0.153c0.588-0.258,1.265-0.433,1.943-0.518c4.224-0.649,4.873,2.599,3.249,5.848
	c-0.041,0.085-0.071,0.176-0.092,0.268c-0.122-0.16-0.305-0.27-0.556-0.27c-0.435-0.02-0.868-0.044-1.302-0.064
	c-1.089-1.018-2.52-1.947-4.128-2.529C53.935,7.764,54.113,6.921,54.054,6.03z M50.211,6.527c0.127,0.502,0.251,1.004,0.378,1.506
	c-1.192-0.164-2.418-0.557-2.502-1.506H50.211z M46.845,2.031c0.061-0.202,0.142-0.304,0.056,0.141
	c-0.025-0.012-0.051-0.021-0.076-0.033C46.833,2.103,46.835,2.071,46.845,2.031z M46.478,0.892c0.003-0.131,0.028-0.131,0.145,0.091
	c0.197,0.119,0.202,0.11,0.122,0.079c-0.037-0.019-0.073-0.041-0.111-0.06c0.005,0.008,0.011,0.023,0.015,0.029
	c-0.053-0.014-0.112-0.028-0.175-0.028c0-0.038,0.002-0.057,0.002-0.085c-0.109-0.061-0.218-0.13-0.327-0.24
	C46.283,0.769,46.389,0.837,46.478,0.892z M36.646-0.724c0.187,0.035,0.408-0.028,0.408-0.221c0-0.022,0.011-0.058,0.015-0.083
	c0.156-0.005,0.31-0.083,0.31-0.241c0-0.093-0.028-0.161-0.059-0.223c0.674-0.574,1.702-1.051,3.31-1.401
	c0.198,0,0.299-0.09,0.352-0.18c-0.015,0.105-0.027,0.252-0.027,0.505c0.089,0.354,0.15,0.707,0.196,1.061
	c-0.116,0.271-0.198,0.56-0.198,0.889c-0.268,1.074-0.515,1.935-0.416,2.932c-0.944-0.352-1.889-0.667-2.833-0.982
	c-0.975-0.325-1.624,0.975-0.649,1.299c0.693,0.418,1.454,0.767,2.244,1.089c-0.64-0.061-1.279-0.114-1.919-0.114
	c-0.975,0-0.975,1.624,0,1.624c0.127,0,0.254,0.013,0.382,0.017c-0.288,0.475-0.096,1.283,0.593,1.283h4.555
	c0.796,0.651,2.044,0.651,3.124,0.256c-0.028,0.414-0.008,0.82,0.123,1.185c-2.174-0.104-4.349-0.238-6.522-0.382
	c-1.074-0.433-2.069-1.119-2.989-1.849C36.581,3.149,35.685,0.912,36.646-0.724z M43.523,9.451h-2.896
	c0.041-0.053,0.075-0.108,0.104-0.168C41.663,9.342,42.593,9.396,43.523,9.451z M37.954,9.139c-0.201,0.014-0.387,0.077-0.543,0.179
	c-0.051-0.194-0.155-0.379-0.361-0.516c-0.247-0.141-0.484-0.297-0.731-0.443c0.018-0.048,0.042-0.09,0.059-0.139
	C36.883,8.563,37.407,8.875,37.954,9.139z M35.906-3.654c-0.229,0.161-0.44,0.33-0.636,0.51c-0.156-0.127-0.326-0.239-0.512-0.334
	C35.133-3.57,35.516-3.628,35.906-3.654z M36.401,11.4c0.038-0.165,0.051-0.331,0.053-0.497c0.155,0.1,0.345,0.172,0.596,0.172
	h1.302c5.975,0.854,11.963,1.206,18.157,1.499c0.125,0.143,0.247,0.288,0.361,0.45c0.802,1.07,2.027,0.59,2.079-0.333
	c0.065,0.002,0.129,0.006,0.195,0.009c0.365,0,0.594-0.229,0.686-0.513c0.17,0.294,0.479,0.514,0.937,0.514h2.501
	c0.185,0.503,0.407,1.006,0.759,1.51c-0.001,0.04-0.011,0.076-0.011,0.114c0,0.425,0.094,0.848,0.261,1.245
	c-0.381,0.109-0.764,0.211-1.145,0.319c-7.625-1.216-15.228-2.446-22.828-3.513c-1.434-0.187-2.868-0.363-4.306-0.536
	C36.18,11.748,36.332,11.61,36.401,11.4z M-28.22,4.631c0.023,0.071,0.069,0.121,0.141,0.148c0.16,0.799,0.32,1.598,0.479,2.397
	c0.095,0.378,0.215,0.786,0.333,1.209C-27.948,7.099-28.322,5.824-28.22,4.631z M-26.354,9.876
	c-0.119-0.628-0.271-1.252-0.271-1.725c-0.01-0.061-0.026-0.122-0.036-0.183c0.042,0.075,0.085,0.15,0.128,0.224
	c0.149,0.729,0.32,1.447,0.514,2.154C-26.136,10.19-26.245,10.032-26.354,9.876z M-24.858,11.8
	c-0.216-0.665-0.426-1.327-0.628-1.991c0.307,0.415,0.633,0.816,0.967,1.212c0.351,0.682,0.696,1.378,1.029,2.099
	c0.032,0.091,0.068,0.183,0.1,0.275C-23.895,12.878-24.389,12.344-24.858,11.8z M-21.869,14.88c-0.055-0.19-0.117-0.372-0.208-0.555
	c-0.108-0.109-0.252-0.138-0.385-0.128c-0.023-0.072-0.047-0.147-0.07-0.22c0.214,0.046,0.437,0.042,0.658-0.013
	c0.022,0.023,0.043,0.047,0.064,0.071c0.025,0.316,0.142,0.638,0.381,0.938c0.237,0.256,0.479,0.507,0.718,0.76
	c0.051,0.114,0.109,0.226,0.161,0.339C-20.98,15.694-21.423,15.294-21.869,14.88z M-3.031,26.088
	c0.155,0.003,0.309,0.01,0.464,0.012c-0.005,0.043,0.01,0.083,0.012,0.127C-2.713,26.181-2.872,26.138-3.031,26.088z M64.993,24.396
	c10.009,0.884,19.75,0.174,29.707,0.03c-13.152,2.504-27.397,1.932-40.753,2.242c-10.907,0-21.979-0.156-33.094-0.25
	c0.033-0.132,0.034-0.264,0.012-0.398h3.192c0.975,0,0.975-1.624,0-1.624H8.789c-4.867,0-9.733,0.502-14.602-0.046
	c0.012-0.488-0.178-0.958-0.668-1.254c-0.319-0.17-0.627-0.359-0.94-0.541c6.925,0.27,13.747-0.108,20.759-0.108
	c0.975-0.325,0.975-1.95,0-1.625c-7.749,0-15.264,0.463-22.945,0H1.316c0.975,0,0.975-1.624,0-1.624h-13.618
	c-2.498-2.001-4.787-4.246-6.852-6.498c-0.36-0.449-0.792-0.593-1.204-0.542c0.018-0.242-0.008-0.496-0.095-0.758
	c-1.485-2.672-3.232-5.348-4.268-8.269c19.217,7.051,40.146,8.354,60.478,10.543c8.574,1.089,17.033,2.408,25.451,3.736
	c0.095,0.521,0.5,0.983,1.184,0.813c0.467-0.126,0.935-0.271,1.401-0.404c7.072,1.117,14.125,2.219,21.192,3.197
	c-0.448,0.425-0.296,1.431,0.474,1.431c0.69,0,0.882-0.807,0.597-1.281c3.153,0.431,6.31,0.839,9.475,1.202v0.427
	c-10.244,0.112-20.252,0.886-30.537-0.023C64.019,22.447,64.019,24.071,64.993,24.396L64.993,24.396z M96.992,25.729
	c0.054-0.013,0.109-0.022,0.162-0.035c0.172,0,0.288-0.072,0.381-0.169c0.065,0.053,0.118,0.113,0.163,0.185
	C97.462,25.714,97.229,25.719,96.992,25.729L96.992,25.729z"/>
<path d="M12.237,16.295c-0.625,0.25-1.125,0.313-1.594,0.25h0.094c0.5,0,1,0,1.25-0.25s0-0.25,0-0.25c0-0.25-0.25-0.25-0.25-0.25
	c-0.055,0-0.083,0.023-0.126,0.035c-0.043-0.011-0.069-0.035-0.124-0.035c-0.25,0.25-0.5,0.25-0.75,0.25h-0.286
	c0.179-1.25,0.357-2.5,0.536-3.75c0-0.25-0.5-0.25-0.5,0c-0.184,1.284-0.367,2.565-0.55,3.75H9.425
	c-0.067-0.201-0.127-0.38-0.188-0.5c0-0.25-0.5-0.25-0.5,0c0.05,0.15,0.102,0.334,0.158,0.528c-0.14,0.063-0.117,0.263,0.092,0.472
	c0.021,0.009,0.04,0.017,0.061,0.024c0.222,0.655,0.554,1.316,1.189,1.476c1,0.25,1.75-0.5,2.25-1.25
	C12.737,16.545,12.487,16.295,12.237,16.295z M9.799,16.913c-0.013-0.024-0.025-0.053-0.037-0.079
	c0.015,0.005,0.032,0.013,0.047,0.018C9.805,16.871,9.802,16.893,9.799,16.913z M10.487,17.545c-0.087,0-0.167-0.023-0.241-0.061
	c0.023-0.166,0.047-0.331,0.071-0.497c0.45,0.095,0.905,0.104,1.452-0.004C11.405,17.298,11.008,17.545,10.487,17.545z"/>
<path d="M46.632,1.001c-0.003-0.003-0.008-0.014-0.01-0.018c-0.041-0.025-0.086-0.055-0.145-0.091
	C46.475,0.9,46.475,0.91,46.475,0.919C46.528,0.946,46.579,0.976,46.632,1.001z"/>
<path d="M22.237,19.545c-3-0.25-6.25-0.5-9.25-0.5c-0.75-0.25-0.75,1,0,1.25c3,0,6.25,0.25,9.25,0.5
	C22.987,20.795,22.987,19.545,22.237,19.545z"/>
</svg>
