<?xml-stylesheet type="text/css" href="animation.css"
 version="1.0" encoding="UTF-8"?>

<svg width="99.213px" height="33.4px" enable-background="new 0 0 99.213 33.4" version="1.1" viewBox="0 0 99.213 33.4" xml:space="preserve" xmlns="http://www.w3.org/2000/svg"


>
 <style>
    @import url(./animation.css);
  </style>

	<path d="m96.737 23.795c-16.75-1.75-21-2.75-38.001-5.5-18.75-3-40-3.25-56.5-10 0.75 8 10.25 15.5 18 20.25h0.75l6.5-0.25c-2.25 0.25-4 0.25-5.5 0.25l58.12-0.428 16.5-1.084 0.131-3.238z" fill="#fff"/>

<path id="fire1" d="m91.169 14.263c0-0.25 0.688-2.188 0.688-2.188s1.393-0.954 1.563-0.75c0.625 0.75 2.375-0.5 2.375-0.5l-0.563 0.625 2.625 0.188-1.625 0.75 2.125-0.125-2.375 1.875-4.063 0.75-0.75-0.625z" fill="#f00"/>

	<path d="m47.486 19.545c0.5 1 0.25 2.25 0 3.25 0 0.25 0.5 0.5 0.5 0 0.25-1 0.5-2.25 0-3.25 0-0.5-0.5-0.25-0.5 0z"/>
	<path d="m48.988 19.045v3.25c0 0.5 0.5 0.5 0.5 0v-3.25c0.25-0.25-0.25-0.5-0.5 0z"/>
	<path d="m50.987 20.795c-0.5 1.25-0.75 2.5-0.75 3.75 0 0.5 0.5 0.5 0.5 0 0-1 0.25-2.5 0.75-3.5 0-0.5-0.5-0.5-0.5-0.25z"/>
	<path d="m98.486 27.295c0-0.664-0.197-0.74-0.589-0.923-0.024-0.116-0.073-0.227-0.147-0.325 0.08 0 0.159-2e-3 0.238-2e-3 0.75 0 0.75-1.25 0-1.25-0.419 0-0.834 9e-3 -1.252 0.012v-0.263c1e-3 1e-3 3e-3 1e-3 4e-3 1e-3 0.939 0 0.984-1.31 0.158-1.469 0.043-0.244-3e-3 -0.464-0.162-0.781-0.25-0.25-0.5 0-0.5 0.25 0.088 0.177 0.104 0.318 0.101 0.454-5.82-0.611-11.6-1.421-17.355-2.3 5.319-0.984 10.422-2.192 15.754-3.404 1-0.25 0.5-1.75-0.25-1.5-5.5 1.25-11 2.5-16.499 3.5-0.134 0.045-0.225 0.137-0.296 0.243 0.023-0.075 0.048-0.15 0.048-0.243 8e-3 -0.054 8e-3 -0.104 0.015-0.158 4.186-1.375 8.408-2.791 12.733-3.592 1-0.25 0.5-1.75-0.5-1.5-4.2 0.778-8.206 2.136-12.26 3.473-0.163-1.01-0.595-1.919-1.238-2.723-1.5-1.25-3.5-1.75-5.5-1.75-0.039-0.01-0.067-1e-3 -0.104-5e-3 -0.04-0.628-0.221-1.231-0.648-1.745-1-1.5-2.75-1.75-4.25-1.5-0.516 0.04-1.008 0.155-1.468 0.321-0.084-0.043-0.176-0.071-0.28-0.071-0.208 0.052-0.399 0.104-0.588 0.156-0.629 2e-3 -1.21 0.168-1.912 0.344-0.167 0.167-0.327 0.333-0.419 0.5h-1.205c0.119-0.38 0.146-0.728-0.126-1-0.149-0.269-0.317-0.479-0.497-0.648-0.115-0.367-0.284-0.734-0.505-1.102-0.013-0.013-0.025-0.019-0.038-0.03 0.022-0.083 0.038-0.159 0.038-0.22 0.107-0.646 0.066-1.239-0.124-1.732 0.063-0.423 0.015-0.845-0.126-1.268h-0.25c-0.301 0-0.681 2e-3 -1.062 0.051-0.064-0.016-0.12-0.04-0.188-0.051-0.176-0.07-0.361-0.11-0.551-0.132-0.035-0.194-0.091-0.404-0.197-0.618 0-0.25-0.25-0.5-0.75-0.75-0.176 0-0.354-6e-3 -0.534-0.018-0.473-0.298-1.178-0.361-1.949-0.245-2.086-0.334-4.24-0.731-6.017 0.512 0.01 0.021 0.021 0.041 0.031 0.061-0.098 0.044-0.193 0.101-0.281 0.189-0.235 0.235-0.188 0.633 0 0.94v0.31c0.25 0.25 0.5 0.5 0.75 0.5 0.551-0.11 0.994-0.017 1.265 0.219-4e-3 0.011-0.011 0.021-0.015 0.031-0.112 0.56-0.114 1.119-0.071 1.678-0.054 0.17-0.032 0.329 0.047 0.468 0.068 0.535 0.167 1.069 0.274 1.604 0.033 0.197 0.05 0.376 0.07 0.558-0.023-0.019-0.047-0.04-0.07-0.058-1.5-1.25-2.75-2.75-4.5-3.5-1-0.5-1.75 0.75-0.75 1.25 1.91 1.028 3.476 2.832 5.203 4.349-0.036 0.116-0.081 0.22-0.127 0.324-0.053-0.034-0.104-0.069-0.156-0.103-0.98-0.875-2.093-1.607-2.671-2.07-3-2.25-6.5-4.75-10.25-5.5-1 0-1.25 1.25-0.5 1.5 4.813 1.465 8.578 4.502 12.608 7.213 7e-3 6e-3 0.013 0.013 0.021 0.02-1.118 0.644-2.917 0.537-5.128 0.017-1 0-1.25 1.25-0.25 1.5h1e-3c1.642 0.365 4.608 0.988 6.484 0.041 0.01 0.071 0.025 0.145 0.014 0.209-0.083 0.33 0.034 0.57 0.226 0.728-3.521-0.41-7.057-0.777-10.593-1.16 0.132-0.18 0.2-0.414 0.157-0.634 0.402 0.19 0.801 0.388 1.21 0.566 0.75 0.5 1.75-0.75 0.75-1.25-5.528-2.403-10.364-6.189-15.394-9.588-0.116-0.141-0.244-0.268-0.356-0.412-0.021 0.043-0.054 0.077-0.079 0.117-0.057-0.039-0.114-0.079-0.171-0.117-0.75-0.5-1.25 0.5-0.75 1 0.029 0.04 0.064 0.073 0.093 0.112-0.031 0.047-0.067 0.087-0.093 0.138 0.173 0.124 0.344 0.247 0.517 0.37 3.381 4.181 8.319 6.604 12.729 9.547-11.959-1.315-23.896-2.948-35.242-7.417-0.147-0.071-0.288-0.054-0.413 9e-3 -0.146-0.09-0.342-0.071-0.342 0.242-0.068 0.274-0.136 0.549-0.199 0.823-0.085 0.078-0.157 0.165-0.216 0.263-0.146-0.039-0.335 8e-3 -0.335 0.164 0.025 0.127 0.051 0.255 0.077 0.383-0.94 1.75-0.09 3.754 1.196 5.53 0.058 0.438 0.067 0.887-0.023 1.337 0 0.25 0.5 0.25 0.5 0 0.062-0.185 0.077-0.401 0.066-0.632 0.141 0.175 0.284 0.347 0.429 0.515 0.185 0.612 0.377 1.221 0.578 1.826 0.037 0.181 0.087 0.36 0.177 0.541 0 0.25 0.5 0 0.5-0.25-0.059-0.176-0.116-0.353-0.175-0.528-0.033-0.159-0.053-0.317-0.062-0.475 0.255 0.267 0.505 0.521 0.737 0.753 0.081 0.08 0.166 0.157 0.247 0.237 0.227 0.6 0.468 1.192 0.753 1.764 0 0.25 0.5 0.25 0.5 0-0.095-0.283-0.15-0.523-0.2-0.749 0.392 0.368 0.793 0.73 1.197 1.091 2e-3 0.053 3e-3 0.105 3e-3 0.157h0.126c0.044 0.082 0.078 0.169 0.124 0.25 0 0.138 0.149 0.121 0.244 0.039 0.219 0.191 0.442 0.379 0.665 0.568 0.23 0.443 0.437 0.902 0.591 1.393 0 0.25 0.5 0.25 0.5-0.25-0.035-0.112-0.083-0.215-0.123-0.324 0.046 0.037 0.089 0.076 0.135 0.114 0.016 0.102 0.079 0.149 0.173 0.139 0.179 0.146 0.362 0.289 0.542 0.434 0.067 0.2 0.226 0.354 0.469 0.376 0.323 0.256 0.647 0.511 0.975 0.764 0.019 0.028 0.038 0.057 0.057 0.085 0.019 0.156 0.022 0.308 0.022 0.413 0.085 0 0.166-4e-3 0.241-0.014 3e-3 4e-3 5e-3 0.01 9e-3 0.014 0 0.25 0.5 0.25 0.25 0v-0.057c0.254 0.193 0.506 0.39 0.763 0.58 0.033 0.063 0.125 0.233 0.185 0.28-0.024 0.059-0.017 0.127 0.053 0.196h0.25c0 0.153 0.091 0.109 0.164 2e-3 0.092 0.067 0.184 0.136 0.276 0.203 0.107 0.193 0.222 0.388 0.345 0.581-2.095 0.329-4.19 0.464-6.286 0.464l-0.25 0.25v1.25s0 0.25 0.25 0.25c12.886 3.222 26.999 2.513 40.15 1.77 5.75 1.983 12.024 0.981 18.099 0.981 0.25 0 0.25-0.5 0-0.5-5.92 0-11.841 0.96-17.423-0.659 0.085-0.146-8e-3 -0.342-0.325-0.342-0.209 0.013-0.418 0.022-0.628 0.034-0.46-0.159-0.919-0.333-1.374-0.533-0.25-0.25-0.5 0.25-0.25 0.25 0.251 0.121 0.506 0.224 0.76 0.331-8.002 0.441-16.005 0.639-24.008 0.168-4.5-0.25-9.25-0.75-13.5-1.75-3.75-0.75 2.5-1.25 3-1.25 0.675-0.112 1.351-0.226 2.026-0.338 0.074 0.112 0.147 0.226 0.223 0.338 0.25 0.25 0.75 0 0.5-0.25-0.041-0.062-0.082-0.123-0.123-0.185 0.207 0.148 0.415 0.295 0.623 0.442v0.243s0 0.25 0.25 0.25c0.238 0.079 0.476 0.134 0.713 0.187 0.512 0.356 1.024 0.712 1.537 1.063 0.25 0.25 0.5 0 0.5 0 0.012-0.04 0.01-0.071 0.018-0.109 0.716 0.362 1.459 0.609 2.234 0.609 0.33 0 0.659-2e-3 0.988-2e-3 4e-3 0 7e-3 2e-3 0.012 2e-3 1.75 0 3.75 0 5.5-0.25 0.06 0 0.105-0.021 0.158-0.031 0.033 7e-3 0.056 0.03 0.092 0.03h-2e-3c12.25 0 24.5 0.25 36.499 0.25 8.68-0.197 17.669 0.066 26.356-1.039 0.048 0.015 0.08 0.04 0.145 0.04h1.5c0.141 0 0.193-0.155 0.176-0.294 0.492-0.074 0.983-0.152 1.473-0.237 1.534-0.063 2.946-0.219 4.351-0.219 0.249 0 0.499-0.25 0.249-0.25zm-21.88-7.359c0.324 0.18 0.766 0.111 0.988-0.203-0.074 0.249-0.034 0.547 0.105 0.769-0.488-0.075-0.978-0.149-1.467-0.226 0.135-0.102 0.261-0.213 0.374-0.34zm-1.368-4.141c0.044 0.033 0.079 0.075 0.12 0.111-0.063-0.02-0.123-0.044-0.187-0.059-0.018-0.047-0.036-0.093-0.056-0.139 0.041 0.03 0.083 0.055 0.123 0.087zm-4.478-1.352c0.071 0.039 0.142 0.08 0.229 0.102 0.61 0 1.22 0.045 1.813 0.162-8e-3 0.14 0.052 0.221 0.185 0.088 0.158 0 0.287 0.036 0.425 0.063 0.174 0.052 0.347 0.112 0.517 0.181 0.321 0.176 0.56 0.435 0.723 0.756h-0.164c-0.67 0-1.232 0.208-1.658 0.563-0.029-0.103-0.054-0.2-0.092-0.313 0-0.25-0.25-0.5-0.75-0.5h-1.563c0.133-0.354 0.249-0.723 0.335-1.102zm-6.44-2.531c0.056-0.034 0.11-0.069 0.171-0.101 0.092-0.017 0.176-0.057 0.249-0.118 0.452-0.198 0.973-0.333 1.496-0.398 3.25-0.5 3.75 2 2.5 4.5-0.032 0.065-0.056 0.135-0.071 0.206-0.094-0.123-0.235-0.207-0.428-0.207-0.334-0.016-0.668-0.034-1.002-0.05-0.838-0.783-1.938-1.498-3.176-1.946 0.169-0.551 0.306-1.201 0.261-1.886zm-2.957 0.383c0.097 0.386 0.193 0.772 0.29 1.159-0.917-0.126-1.861-0.429-1.925-1.159h1.635zm-2.591-3.46c0.047-0.156 0.11-0.235 0.043 0.108-0.019-9e-3 -0.038-0.016-0.058-0.025 6e-3 -0.028 7e-3 -0.052 0.015-0.083zm-0.283-0.876c3e-3 -0.101 0.022-0.101 0.112 0.07 0.151 0.092 0.155 0.085 0.093 0.061-0.028-0.015-0.057-0.032-0.085-0.046 3e-3 6e-3 8e-3 0.017 0.011 0.022-0.041-0.011-0.086-0.021-0.134-0.021 0-0.03 1e-3 -0.044 2e-3 -0.066-0.084-0.047-0.168-0.1-0.252-0.184 0.104 0.069 0.185 0.121 0.253 0.164zm-7.565-1.244c0.143 0.027 0.313-0.022 0.313-0.17 0-0.018 9e-3 -0.045 0.012-0.065 0.12-4e-3 0.238-0.063 0.238-0.185 0-0.072-0.021-0.124-0.044-0.172 0.518-0.442 1.309-0.809 2.546-1.078 0.152 0 0.23-0.07 0.271-0.139-0.012 0.081-0.021 0.194-0.021 0.389 0.068 0.272 0.115 0.544 0.151 0.816-0.089 0.208-0.153 0.431-0.153 0.684-0.206 0.826-0.396 1.489-0.32 2.256-0.727-0.271-1.453-0.514-2.18-0.756-0.75-0.25-1.25 0.75-0.5 1 0.534 0.321 1.12 0.59 1.727 0.838-0.492-0.047-0.984-0.088-1.477-0.088-0.75 0-0.75 1.25 0 1.25 0.098 0 0.196 9e-3 0.294 0.012-0.222 0.366-0.074 0.988 0.457 0.988h3.504c0.612 0.501 1.574 0.501 2.403 0.197-0.021 0.318-5e-3 0.631 0.095 0.912-1.673-0.08-3.346-0.184-5.019-0.294-0.825-0.333-1.591-0.861-2.299-1.423-0.048-1.992-0.738-3.713 2e-3 -4.972zm5.292 7.83h-2.228c0.031-0.041 0.057-0.083 0.08-0.13 0.716 0.046 1.432 0.088 2.148 0.13zm-4.286-0.241c-0.154 0.011-0.297 0.06-0.418 0.138-0.038-0.149-0.118-0.292-0.276-0.397-0.191-0.109-0.374-0.229-0.563-0.341 0.014-0.037 0.032-0.069 0.045-0.108 0.388 0.265 0.792 0.505 1.212 0.708zm-1.576-9.843c-0.175 0.124-0.338 0.254-0.489 0.392-0.12-0.097-0.251-0.183-0.394-0.257 0.289-0.071 0.583-0.116 0.883-0.135zm0.382 11.584c0.028-0.127 0.039-0.255 0.041-0.383 0.119 0.077 0.265 0.133 0.459 0.133h1.001c4.598 0.657 9.206 0.927 13.972 1.153 0.096 0.11 0.191 0.222 0.279 0.347 0.617 0.823 1.559 0.454 1.599-0.257 0.051 2e-3 0.1 5e-3 0.15 7e-3 0.281 0 0.457-0.176 0.527-0.395 0.132 0.227 0.369 0.396 0.722 0.396h1.924c0.142 0.387 0.314 0.774 0.584 1.162-1e-3 0.03-8e-3 0.058-8e-3 0.088 0 0.327 0.072 0.652 0.2 0.958-0.293 0.084-0.588 0.162-0.881 0.245-5.867-0.936-11.717-1.882-17.566-2.703-1.103-0.144-2.207-0.28-3.313-0.412 0.139-0.072 0.256-0.178 0.31-0.339zm-49.726-5.209c0.018 0.054 0.053 0.092 0.108 0.114 0.123 0.615 0.246 1.229 0.369 1.845 0.073 0.291 0.166 0.604 0.256 0.93-0.524-0.99-0.812-1.971-0.733-2.889zm1.436 4.036c-0.092-0.484-0.209-0.964-0.209-1.327-8e-3 -0.047-0.02-0.094-0.028-0.141 0.032 0.058 0.066 0.115 0.099 0.172 0.115 0.561 0.246 1.113 0.395 1.657-0.089-0.12-0.173-0.241-0.257-0.361zm1.151 1.48c-0.166-0.511-0.328-1.021-0.483-1.532 0.236 0.319 0.487 0.628 0.744 0.933 0.27 0.524 0.535 1.06 0.792 1.615 0.025 0.07 0.052 0.141 0.077 0.212-0.389-0.399-0.769-0.809-1.13-1.228zm2.3 2.37c-0.042-0.146-0.09-0.286-0.16-0.426-0.083-0.084-0.194-0.107-0.296-0.099-0.018-0.056-0.036-0.113-0.054-0.169 0.165 0.035 0.336 0.032 0.506-0.01 0.017 0.018 0.034 0.036 0.05 0.055 0.019 0.243 0.109 0.491 0.293 0.722 0.182 0.197 0.368 0.39 0.552 0.585 0.039 0.088 0.084 0.173 0.124 0.26-0.331-0.292-0.672-0.599-1.015-0.918zm14.496 8.624c0.119 2e-3 0.238 8e-3 0.357 9e-3 -4e-3 0.033 8e-3 0.065 9e-3 0.098-0.122-0.034-0.244-0.067-0.366-0.107zm52.345-1.301c7.7 0.68 15.196 0.133 22.858 0.023-10.12 1.927-21.082 1.486-31.358 1.726-8.394 0-16.914-0.12-25.466-0.193 0.025-0.101 0.026-0.203 9e-3 -0.306h2.457c0.75 0 0.75-1.25 0-1.25h-11.75c-3.745 0-7.49 0.386-11.236-0.035 9e-3 -0.376-0.137-0.738-0.514-0.965-0.246-0.131-0.483-0.277-0.724-0.416 5.329 0.207 10.578-0.084 15.974-0.084 0.75-0.25 0.75-1.5 0-1.25-5.963 0-11.746 0.356-17.656 0h8.406c0.75 0 0.75-1.25 0-1.25h-10.479c-1.922-1.54-3.684-3.267-5.272-5-0.277-0.346-0.61-0.456-0.927-0.417 0.014-0.187-6e-3 -0.382-0.073-0.583-1.143-2.057-2.487-4.116-3.284-6.364 14.787 5.426 30.892 6.429 46.537 8.114 6.598 0.838 13.106 1.852 19.584 2.875 0.073 0.401 0.385 0.757 0.912 0.625 0.359-0.097 0.718-0.208 1.077-0.311 5.443 0.86 10.87 1.707 16.308 2.46-0.344 0.327-0.228 1.101 0.365 1.101 0.53 0 0.678-0.62 0.458-0.986 2.427 0.331 4.856 0.646 7.292 0.925v0.328c-7.884 0.087-15.584 0.682-23.498-0.017-0.75-0.25-0.75 1 0 1.25zm24.622 1.026c0.042-0.01 0.084-0.018 0.126-0.027 0.131 0 0.221-0.056 0.292-0.13 0.05 0.04 0.091 0.087 0.125 0.141-0.181 3e-3 -0.361 8e-3 -0.543 0.016z"/>
	<path d="m12.237 16.295c-0.625 0.25-1.125 0.313-1.594 0.25h0.094c0.5 0 1 0 1.25-0.25s0-0.25 0-0.25c0-0.25-0.25-0.25-0.25-0.25-0.055 0-0.083 0.023-0.126 0.035-0.043-0.011-0.069-0.035-0.124-0.035-0.25 0.25-0.5 0.25-0.75 0.25h-0.286c0.179-1.25 0.357-2.5 0.536-3.75 0-0.25-0.5-0.25-0.5 0-0.184 1.284-0.367 2.565-0.55 3.75h-0.512c-0.067-0.201-0.127-0.38-0.188-0.5 0-0.25-0.5-0.25-0.5 0 0.05 0.15 0.102 0.334 0.158 0.528-0.14 0.063-0.117 0.263 0.092 0.472 0.021 8e-3 0.04 0.016 0.061 0.024 0.222 0.655 0.554 1.317 1.189 1.476 1 0.25 1.75-0.5 2.25-1.25 0.25-0.25 0-0.5-0.25-0.5zm-2.438 0.618c-0.013-0.025-0.025-0.053-0.037-0.079 0.015 5e-3 0.032 0.012 0.047 0.017-4e-3 0.02-7e-3 0.042-0.01 0.062zm0.688 0.632c-0.087 0-0.167-0.024-0.241-0.061 0.023-0.166 0.047-0.331 0.071-0.497 0.45 0.095 0.905 0.104 1.452-4e-3 -0.364 0.315-0.761 0.562-1.282 0.562z"/>
	<path d="m58.609 8.043c-2e-3 -3e-3 -6e-3 -0.011-8e-3 -0.014-0.031-0.019-0.067-0.042-0.112-0.07-1e-3 6e-3 -1e-3 0.013-1e-3 0.02 0.04 0.021 0.08 0.044 0.121 0.064z"/>
	<path d="m22.237 19.545c-3-0.25-6.25-0.5-9.25-0.5-0.75-0.25-0.75 1 0 1.25 3 0 6.25 0.25 9.25 0.5 0.75 0 0.75-1.25 0-1.25z"/>

<path id="fire2" d="m35.791 4.7558c0-0.25-0.75479-2.188-0.75479-2.188s-1.5282-0.954-1.7147-0.75c-0.68568 0.75-2.6056-0.5-2.6056-0.5l0.61765 0.625-2.8798 0.188 1.7828 0.75-2.3313-0.125 2.6056 1.875 4.4574 0.75z" fill="#f00" stroke-width="1.0474"/></svg>
