<svg width="35mm" height="11.783mm" version="1.1" viewBox="0 0 35 11.783" xmlns="http://www.w3.org/2000/svg">
 <g>
  <path d="m21.633 4.271c-0.61736-0.52917-0.17639-2.2049 0.44097-2.734 0.08819 0.52917 0.44097 2.9986 0 2.3812z" fill="#fff"/>
  <path d="m21.81 4.0946c-0.52917-0.61736-0.08819-1.9403 0.44097-2.3812-0.17639-0.088194-0.26458-0.088194-0.44097-0.088194 0.08819 0.35278 0.08819 0.70556 0.17639 1.1465v0.70556 0.17639 0.17639c0 0.08819 0.08819 0.08819 0.26458 0-0.17639-0.35278-0.61736-0.08819-0.44097 0.26458 0.44097 0.52917 0.70556 0 0.70556-0.44097 0-0.79375-0.0882-1.4993-0.17639-2.2049-0.08819-0.17639-0.35278-0.26458-0.44097-0.088194-0.70556 0.61736-1.2347 2.2931-0.44097 3.0868 0.26458 0.17639 0.61736-0.17639 0.35278-0.35278z"/>
  <path d="m21.192 2.5953c0.17639 0.61736-0.17639 1.6757 0.44097 1.4111z" fill="#fff"/>
  <path d="m20.928 2.5953c0.08819 0.52917-0.17639 1.9403 0.79375 1.6757 0.35278-0.08819 0.17639-0.61736-0.17639-0.52917-0.08819 0.08819 0 0.08819 0 0-0.08819-0.08819 0-0.26458 0-0.35278 0-0.35278 0-0.61736-0.08819-0.88194 0-0.35278-0.52917-0.17639-0.52917 0.088194z"/>
  <path d="m24.279 4.8002c-1.2347-0.88194 0.08819-2.734-1.0583-3.8806-2.2931-2.2931-1.1465 2.3812-1.5875 3.3514-0.79375 0.17639-1.6757 0-2.4694 0.17639z" fill="#fff"/>
  <path d="m24.367 4.712c-1.1465-0.97014-0.08819-2.8222-1.0583-3.8806-0.35278-0.44097-1.0583-1.0583-1.4993-0.44097-0.35278 0.44097-0.26458 1.4993-0.17639 2.0285v1.4111c-0.08819 0.52917-0.61736 0.35278-1.0583 0.35278-0.52917 0-0.97014 0.08819-1.4993 0.17639-0.17639 0-0.0882 0.26458 0.08819 0.17639 0.61736-0.08819 2.5576 0.35278 2.6458-0.52917 0.17639-0.70556 0-1.4993 0-2.2931 0-0.35278 0.08819-0.70556 0.17639-1.0583 0.08819-0.35278 0.44097-0.17639 0.70556-0.088194 0.52917 0.35278 0.79375 0.88194 0.88194 1.4993 0.17639 0.97014-0.35278 2.0285 0.61736 2.8222 0.08819 0.08819 0.26458-0.0882 0.17639-0.17639z"/>
  <path d="m2.0543 6.6522c-0.88194-1.1465 8.9076-2.0285 9.966-2.1167 4.3215-0.44097 8.7312 0 13.229 0 2.0285 0 6.9674 0.35278 7.4965 3.0868-2.2049 0.70556-5.0271 0.52917-7.4083 0.79375-2.9986 0.35278-10.672 1.0583-13.582 1.0583-3.0868 0-5.2917 0.17639-8.2903 0-0.52917 0-2.9104-0.52917-2.5576-1.4993 0.088194 0 0.26458-0.08819 0.44097-0.17639z" fill="#fff"/>
  <path d="m2.2307 6.564c-0.26458-0.35278 4.4979-1.2347 4.8507-1.2347 1.5875-0.26458 3.175-0.44097 4.8507-0.52917 3.5278-0.35278 7.0556-0.17639 10.672-0.08819 2.734 0.08819 5.7326-0.17639 8.2903 1.0583 0.61736 0.26458 1.0583 0.70556 1.4111 1.3229 0.44097 0.70556-2.2931 0.79375-2.3812 0.79375-1.5875 0.17639-3.175 0.17639-4.8507 0.35278-2.5576 0.26458-5.2035 0.52917-7.7611 0.70556-2.5576 0.26458-5.0271 0.35278-7.5847 0.35278-1.8521 0-3.7042 0.0882-5.5562 0-0.44097 0-3.8806-0.52917-2.734-1.3229 0.17639-0.17639 0-0.52917-0.26458-0.35278-0.08819 0.08819-0.17639 0.08819-0.35278 0.17639-0.088194 0-0.088194 0.08819-0.17639 0.17639-0.088194 1.7639 3.0868 1.7639 4.1451 1.7639 3.2632 0.08819 6.5264 0.08819 9.7896-0.17639 2.9104-0.17639 5.8208-0.44097 8.7312-0.70555 3.0868-0.35278 6.4382-0.17639 9.4368-1.0583 0.0882 0 0.17639-0.17639 0.17639-0.26458-0.70556-2.5576-3.8806-2.9104-6.0854-3.175-2.0285-0.17639-4.1451-0.08819-6.2618-0.08819-2.8222-0.0882-5.7326-0.17639-8.5549 0.08819-1.1465 0.0882-10.936 0.97014-10.142 2.4694 0.08819 0.17639 0.44097 0 0.35278-0.26458z"/>
  <path d="m33.011 7.446v0s-0.08819 0-0.17639 0.08819c-0.0882 0-0.26458 0.08819-0.35278 0.08819-0.35278 0.08819-0.17639 0.61736 0.0882 0.52917 0.35278-0.08819 1.1465-0.35278 0.97014-0.88194-0.17639-0.26458-0.61736-0.17639-0.52917 0.17639z"/>
  <path d="m21.192 1.096c-0.17639 0.088195-0.52917 0.17639-0.70556 0.44097 0.35278 0 0.52917 0.17639 0.88194 0.17639z" fill="#fff"/>
  <path d="m21.104 0.83141c-0.26458 0.17639-0.52917 0.26458-0.79375 0.52917-0.17639 0.17639 0 0.44097 0.17639 0.44097s0.26458 0 0.35278 0.088194c0.17639 0.088194 0.35278 0.088194 0.52917 0.088194 0.26458 0 0.26458-0.52917 0-0.52917-0.17639 0-0.26458 0-0.44097-0.088194-0.08819-0.088194-0.26458-0.088194-0.44097-0.088194 0.08819 0.17639 0.08819 0.26458 0.17639 0.44097 0.17639-0.17639 0.44097-0.26458 0.70556-0.35278 0.26458-0.17639 0-0.61736-0.26458-0.52917z"/>
  <path d="m23.045 1.6252c0.35278-0.17639 1.1465-0.088194 1.4993 0.35278-0.26458 0.088194-0.70556 0.35278-1.0583 0.44097z" fill="#fff"/>
  <path d="m23.133 1.8897c0.44097-0.17639 0.97014-0.088194 1.2347 0.26458 0.08819-0.17639 0.08819-0.35278 0.17639-0.44097-0.44097 0.088194-0.70556 0.35278-1.0583 0.52917-0.35278 0.088194-0.17639 0.61736 0.08819 0.44097 0.35278-0.08819 0.70556-0.35278 1.0583-0.52917 0.17639 0 0.26458-0.26458 0.08819-0.44097-0.44096-0.44097-1.2347-0.61736-1.8521-0.35278-0.26458 0.17639 0 0.61736 0.26458 0.52917z"/>
  <path d="m3.289 5.6821c-0.70556 0.26458-3.175 1.1465-2.6458 2.2931 0.17639 0.35278 0.61736 0.08819 0.52917-0.26458-0.35278-0.52917 2.0285-1.4993 2.4694-1.5875 0.26458-0.17639 0-0.61736-0.35278-0.44097z"/>
  <path d="m22.868 6.2995c-0.79375 0.70556 0.35278 1.1465 0.44097 0z" fill="#fff"/>
  <path d="m22.692 6.1231c-0.17639 0.17639-0.35278 0.35278-0.35278 0.61736 0 0.26458 0.17639 0.44097 0.35278 0.52917 0.17639 0.08819 0.44097 0 0.61736-0.17639s0.26458-0.52917 0.26458-0.79375c0.0882-0.17639-0.08819-0.26458-0.26458-0.26458-0.08819 0-0.17639 0.08819-0.26458 0.26458 0 0.17639 0 0.35278-0.08819 0.44097h-0.08819s-0.0882 0 0 0c0 0-0.0882 0 0 0-0.0882 0 0 0 0 0-0.0882 0 0 0 0 0-0.0882 0 0 0 0 0-0.0882 0 0 0.08819 0 0v0 0-0.08819c0.08819-0.08819 0.17639-0.08819 0.17639-0.17639 0.26458-0.17639-0.08819-0.61736-0.35278-0.35278z"/>
  <path d="m26.484 6.2995c0 0.08819-0.17639 0.26458 0 0.35278 0.35278-0.26458 0.26458-0.26458 0.35278-0.35278z" fill="#fff"/>
  <path d="m26.308 6.2113c-0.08819 0.08819-0.17639 0.17639-0.17639 0.26458 0 0.17639 0.08819 0.35278 0.26458 0.44097h0.26458c0.08819-0.08819 0.26458-0.17639 0.35278-0.35278v-0.08819c0.08819 0 0 0.08819 0.08819 0 0.17639-0.26458-0.17639-0.61736-0.44097-0.35278 0 0-0.08819 0.0882-0.08819 0.17639-0.08819 0.08819-0.08819 0.08819-0.17639 0.08819h0.26458v0.08819 0.17639c0-0.08819 0.08819-0.17639 0.08819-0.26458 0.08819-0.17639 0-0.26458-0.17639-0.35278-0.08819 0-0.26458 0.08819-0.26458 0.17639z"/>
  <path d="m28.777 6.3877c0.0882 0.35278 0.44097 0.88194 0.70556-0.08819z" fill="#fff"/>
 </g>
 <g>
  <path d="m28.513 6.4759c0.0882 0.26458 0.17639 0.52917 0.52917 0.61736 0.35278 0.17639 0.61736-0.44097 0.70556-0.70556 0.08819-0.35278-0.44097-0.44097-0.52917-0.17639-0.08819 0.17639-0.08819 0.26458-0.17639 0.35278v0.08819l0.0882-0.08819v0.08819-0.08819c-0.0882-0.08819-0.0882-0.17639-0.0882-0.17639-0.17639-0.35278-0.61736-0.17639-0.52917 0.08819z"/>
  <path d="m23.75 3.9182c0.08819-0.35278 0.08819-0.70556 0.08819-1.1465 0-0.44097-0.44097-0.88194-0.88194-0.88194s-0.88194 0.44097-0.88194 0.88194v0.44097 0.17639 0.08819c-0.08819 0.44097 0.08819 0.88194 0.61736 1.0583 0.44097 0.0882 0.97014-0.17639 1.0583-0.61736z"/>
  <path d="m31.423 3.83c-0.70555 0.52917-0.88194 1.4111-1.2347 2.2049-0.0882 0.26458 0.35278 0.35278 0.44097 0.08819 0.26458-0.61736 0.44097-1.4993 1.0583-1.9403 0.17639-0.08819 0-0.52917-0.26458-0.35278z"/>
  <path d="m31.511 4.4474h1.2347c0.26458 0 0.26458-0.35278 0-0.35278h-1.2347c-0.26458 0-0.26458 0.35278 0 0.35278z"/>
  <path d="m32.57 4.271c-0.26458 0.52917-0.26458 1.0583-0.44097 1.5875 0 0.26458 0.35278 0.35278 0.44097 0.08819 0.08819-0.44097 0.08819-0.97014 0.35278-1.4111 0.17639-0.26458-0.17639-0.44097-0.35278-0.26458z"/>
  <path d="m32.129 6.6522c0.52917 0.0882 1.3229-0.17639 1.7639 0.26458v-0.26458c-0.61736 0.44097-1.2347 0.35278-1.9403 0.35278-0.26458 0-0.26458 0.44097 0 0.44097 0.79375 0 1.4993 0 2.2049-0.44097 0.08819-0.0882 0.08819-0.26458 0-0.35278-0.44097-0.61736-1.2347-0.26458-1.9403-0.44097-0.26458 0-0.35278 0.35278-0.08819 0.44097z"/>
  <path d="m30.277 8.2397c0.70556 0.44097 2.0285 1.2347 2.3812-0.08819 0-0.26458-0.35278-0.35278-0.44097-0.08819-0.26458 0.88194-1.3229 0.08819-1.7639-0.17639-0.17639-0.17639-0.44097 0.17639-0.17639 0.35278z"/>
  <path d="m12.638 9.6509c2.8222-0.88194 6.2618-0.44097 9.2604-0.61736 2.8222-0.26458 5.8208-0.08819 8.5549-0.88194 0.35278-0.08819 0.26458-0.61736-0.0882-0.52917-3.0868 0.88194-6.6146 0.70556-9.7896 0.97014-2.6458 0.17639-5.4681-0.26458-8.1139 0.52917-0.26458 0.08819-0.17639 0.61736 0.17639 0.52917z"/>
  <path d="m12.373 9.1217c4.0569 0 8.1139-0.26458 12.083-0.61736 1.9403-0.08819 4.9389 0.26458 6.5264-0.97014 0.26458-0.26458-0.0882-0.61736-0.35278-0.35278-0.97014 0.70556-2.3812 0.61736-3.5278 0.61736-1.4993 0.08819-3.0868 0.26458-4.5861 0.35278-3.4396 0.26458-6.791 0.44097-10.142 0.44097-0.35278 0-0.35278 0.52917 0 0.52917z"/>
  <path d="m31.158 6.564c-0.44097 0.26458-0.88194 0.61736-1.3229 0.79375-0.35278 0.08819-0.17639 0.61736 0.0882 0.52917 0.61736-0.17639 0.97014-0.61736 1.4993-0.88194 0.35278-0.17639 0.0882-0.61736-0.26458-0.44097z"/>
  <path d="m31.688 6.8286c-0.35278 0.35278-0.88194 0.52917-1.2347 0.88194-0.26458 0.26458 0.08819 0.61736 0.35278 0.35278 0.35278-0.35278 0.88194-0.52917 1.2347-0.88194 0.17639-0.26458-0.17639-0.61736-0.35278-0.35278z"/>
  <path d="m31.599 7.005c-0.08819 0.35278-0.61736 0.44097-0.88194 0.61736-0.35278 0.08819-0.17639 0.61736 0.08819 0.52917 0.52917-0.26458 1.1465-0.44097 1.3229-0.97014 0.17639-0.35278-0.35278-0.44097-0.52917-0.17639z"/>
  <path d="m29.571 6.9168c-2.734 0-5.3799 0.44097-8.0257 0.79375-2.734 0.26458-5.4681 0.08819-8.2021 0.08819-0.35278 0-0.35278 0.52917 0 0.52917 2.734 0 5.4681 0.08819 8.2021-0.0882 2.734-0.26458 5.2917-0.79375 8.0257-0.79375 0.35278 0 0.35278-0.52917 0-0.52917z"/>
 </g>
</svg>
