<?xml version="1.0" encoding="utf-8"?>
<!-- Generator: Adobe Illustrator 16.0.0, SVG Export Plug-In . SVG Version: 6.00 Build 0)  -->
<!DOCTYPE svg PUBLIC "-//W3C//DTD SVG 1.1//EN" "http://www.w3.org/Graphics/SVG/1.1/DTD/svg11.dtd">
<svg version="1.1" id="Layer_1" xmlns="http://www.w3.org/2000/svg" xmlns:xlink="http://www.w3.org/1999/xlink" x="0px" y="0px"
	 width="178.8px" height="44.825px" viewBox="-45.572 -11.425 178.8 44.825" enable-background="new -45.572 -11.425 178.8 44.825"
	 xml:space="preserve">
<g>
	<path fill="#FFFFFF" d="M116.384,25.311c-0.074,0,16.178,2.124,8.504-0.667c-1.834-0.667,9.488-6.295,1.5-7.502
		c-6.559-0.993-12.271-11.605-23.84-11.837c-4.105-0.083,5.271-7.984,0.666-7.168c-4.084,0.723-10.74-3.42-16.338-1.5
		c-4.764,1.634-1.699,9.473-6.836,11.67C76.3,9.906,69.204,8.972,64.537,8.139c-8.302-1.482-13.852,3.802-15.004,4.001
		c-12.798,2.208-17.28,0.081-24.673-1.167C-2.962,6.279-31.824-5.032-31.824-5.032l-6.194,1.045l-1.808,3.29l19.005,22.172
		l2.001,7.502L116.384,25.311z"/>
	<path d="M28,5.35C20.332,2.349,12.996-2.986,4.994-3.319c-0.667,0-1.334,1.667-1.334,2.334C2.993-0.652,2.327,1.349,2.993,1.349
		c7.335,1.333,13.671,5.334,21.006,7.668c2.667,1,5.668,1.667,8.336,2.667c1.333,0.667,2.334,1,3.667,1.333c-0.333,0.667,0,1,0,1
		c1.334,0,2.334,0.333,2.667-1c0,0,0.333-0.333,0.333-0.667c0.333,0,0.667,0.333,1,0.333c0,0.333,0,0.333,0.333,0.667
		c0.333,0,0.667,0,1,0.333c1,0.333,1.667-2,1-2.334C38.336,8.351,32.335,7.018,28,5.35L28,5.35z M20.665,5.016
		c-4.334-2-8.669-4-13.337-5.334C11.996,0.682,16.33,2.683,20.665,5.016z"/>
	<path d="M53.674,13.351h0.333c3-6.001-30.675-17.337-34.677-21.672c-0.667-1-2,1.333-1.333,2c0,0.333,0.333,0.667,0.667,1
		c-1-0.667-2.334-1-3.668-1.667c-0.667,0-1.667,2.334-1,2.667c7.335,2.667,14.337,6.335,21.339,10.003
		c4.001,2.334,8.002,4.334,12.003,7.001c1.333,0.667,7.335,5.335,7.668,5.001c-0.667,1-0.333,2.668,0.667,1.334
		C56.675,17.019,55.675,15.019,53.674,13.351L53.674,13.351z M53.007,12.351v0.333h-0.333
		C53.007,12.685,53.007,12.351,53.007,12.351z"/>
	<path d="M71.683,11.017c-9.67-7.334-25.675-6.668-33.344-16.67c-0.333-0.667-1.667,1-1.333,2c-1-0.667-2.334-1-3.334-1.667
		c-0.667-0.333-2,2-1,2.334C44.674,2.35,55.344,10.685,68.015,15.02c0.666,0.333,1.334-1.333,1.334-2
		c0.332,0.333,0.666,0.333,1.332,0.667c0.668,0,1.668-2,1.002-2.667V11.017z M68.347,12.351c-1.667-0.667-3-1.334-4.667-2.333
		c0,0-0.333,0-0.667,0.333c-2-1-4.001-2-6.001-3.001c4.001,1.334,8.002,2.668,11.335,4.667V12.351L68.347,12.351z"/>
	<path d="M131.028,15.685c0.334-0.333,0.668-0.667,0.668-0.667c0.666-0.667,1-3.334,0-2.334c-1,1-1.668,2-2.668,3.334
		c0,0-0.334,0-0.666,0.333c0.666-0.667,1.334-2.333,0.332-2.333h-1c-0.332,0-0.332-0.333-0.332-0.333
		c-0.334,0.333-0.668,0.333-1.002,0.333h-3.334c-0.666,0-1-0.333-1.666-0.667c-0.334-0.333-0.668,0.333-1,0.667h-0.668
		c0.334-0.333,0-0.667-0.334-0.667h-1.666c0.334-0.667,0.666-1,0.666-1.333c0-0.667-0.332-1.334-0.666-2
		c3.668-2,7.336-4.334,10.67-6.668c0.666-0.333,1.334-3.001,0.332-2.334c-3.666,2.667-7.668,5.001-12.002,7.335
		c-0.668-0.667-1.334-1-2.002-1.667c3.002-2,6.336-3.667,9.67-5.334c0.668-0.333,1.334-2.667,0.334-2.334
		c-4.334,2-8.336,4.334-12.338,6.668c-1.332-0.333-2.666-0.667-3.666-1c-0.334,0-0.668,0.333-1.002,1c-1,0-2,0-2.666,1.333v1h-0.334
		c0-0.333,0-0.667-0.334-0.667c-0.666-0.333-1.334-0.667-1.666-1.333c0-0.333,0.332-0.333,0.332-0.667V5.016
		c1.002,0,2.002-0.333,3.002-0.667c1-0.333,1.666-2.667,1-2.667c-1.334,0.667-2.334,0.667-3.668,1c0-0.667,0.334-1.333,0.668-2
		c0.666-0.333,1.332-0.333,2-0.667c1,0,1.666-2.667,0.666-2.334c-0.666,0-1,0.333-1.666,0.333c0,0,0-0.333-0.334-0.333
		c-1-0.333-2.334-0.667-3.334-1c0-0.333,0-1-0.334-1.334c-6.002-1-12.004-1-18.004,0.667c-0.668,0-1.002,1.333-1.002,2
		s0.334,1,1.002,1.667c-1.668,0-3.336,0.333-4.668,0.667c-1.002,0-1.668,2.667-1.002,2.334c3.002-0.333,5.67-0.667,8.67-1v1
		c-1.668,0-3.334,0.667-5.002,1c-0.666,0.333-1.334,2.334-0.666,2.334V6.35c2,0.333,4,0.333,6.334,0v0.333
		c-4,0-7.668,0.333-11.67-0.333c-1-0.333-1.666,1.667-1.332,2.334h-1.002c-0.332,0-0.332,0.333-0.332,0.333
		c-0.334,0-0.334,0.333-0.668,0.333c-4-4.334-9.002-7.668-14.337-3.667c-0.667,0.333-1.333,2.667-0.333,2.334
		c-0.333,0.333-0.667,1-0.667,1.333c-2,0.333-3.668,0.333-5.335,0.667c-1.333,0.333-3.001,1.333-3.667,2.333
		c-7.67-1-15.004-2-22.673-3.334C11.329,6.35-2.675,3.683-15.344-1.318c0.333-0.667,0-1.333-0.333-1.333
		c-1,0-2.334-0.333-3.334-0.333c-0.667-0.333-1-0.667-1.667-1c-0.333,0-0.333,0.333-0.667,0.333
		c-2.667-0.667-5.334-1.667-7.668-3.334c-0.333-0.333-3.334,0-4.001,0c-2,0.333-4.334,0.333-6.335,1c-0.667,0-1,1.334-1,2v0.333
		c-1,0.333-2.001,0.667-3.001,1c-0.667,0.333-1.667,2.334-1,2.667c2.334,0.333,4.668,1,6.335,2.334c-0.333,0.333-0.333,1,0,1.333
		c0.667,0.667,1.333,1.333,2,2c-0.333,1-0.333,1.667,0,1.334h1c1,1,2.334,2,3.334,3.334c-0.333,0-0.667,0-0.667-0.333
		c-1,0-1.667,2.667-1,2.667c2.334,0,4.668,1.667,6.668,4c-0.667,0.333-1.334,2-0.667,2.334c1.333,0.667,2.667,1.667,3.334,3.001v1
		c-0.333,0.333-0.667,0.667-0.667,0.667v0.333v0.334v1.333c0,0.334,0,0.667,0.333,1.001v1.333c0,0.334,0,0.334-0.333,0.334h-0.333
		c-0.667,0-1.333,2.667-0.667,2.667h2c0.333,0,0.333,0.334,0.667,0.667c2,1.334,4.334,0.667,5.335-1
		c6.668-0.333,13.003-0.333,19.339-0.667c18.672,1.667,39.344-0.333,59.015-2.334c18.338-0.333,36.676,0.333,55.016-1
		c0.666,0,1-1.334,1-2.001v-0.667c0-0.333,0-0.333-0.334-0.333c-1,0-1.668,0-2.668-0.334c2.002-0.333,4.336-0.333,6.336-0.666
		c-0.668,1-0.668,2.334-0.334,3.334c0.334,1.334,1.668-1,1.334-1.667c0-0.667,0-1.334,0.334-2.001c0.666,0,1.666-0.333,2.334-0.333
		h0.332c-0.332,1-0.666,2.334-0.332,3.334c0.332,0.667,0.666,1,1.334,1.334c0,0.333,0,1,0.332,1.333c0,0.667,0.668,0,1-1h1.668
		c0.666,0,1.668-2.334,0.666-2.334c-0.666,0-1.666,0-2-0.333c0-1.001,0-1.667,0.334-2.668c3.334,0,6.002,0,2.668-2l-0.668,0.333
		c0.668-0.667,1.334-2,0.668-2.334h0.332C130.696,17.353,131.028,16.352,131.028,15.685L131.028,15.685z M124.694,16.686h-0.334
		h-0.334H124.694z M116.692,13.351c-1-0.333-2.002-0.667-3.002-1c0.668-0.333,1.668-1,2.334-1.334
		C116.358,11.684,116.692,12.351,116.692,13.351z M114.358,9.684c0,0.333-0.334,0.333-0.668,0.333c-0.332,0.333-0.666,1-0.666,1.667
		c-0.668-0.667-1-1.333-1-2c0,0,0-0.667-0.334-0.667h-1c0.334-0.333,0.666-0.333,1-0.667C112.69,8.684,113.69,9.017,114.358,9.684
		L114.358,9.684z M106.688,8.017h1.334c0,0,0.334-0.333,0.668-0.667c0.332,0,0.666,0.333,1.332,0.333
		c-0.332,0.333-0.332,0.667-0.332,1c-1,0-2.002-0.333-3.334-0.333C106.688,8.017,106.688,8.017,106.688,8.017L106.688,8.017z
		 M103.354,10.684c2.334,1,4.668,1.667,7.002,2.001c0.334,0,0.334,0,0.334-0.333c0,0.333,0.334,0.667,0.334,0.667
		c0.332,0.667,1,1.334,1.666,1.667c-2,0.333-4,0.667-6.002,1c-3.334,0-6.668,0.333-9.668,0.667v-0.333c0-0.333,0-1-0.668-0.667
		c0,0-0.334,0-0.334,0.333c0-0.333-0.332-0.333-0.332,0c-0.334,0-0.334,0-0.334,0.333h-2c-0.334,0-0.668,0.667-0.668,1.334h-1
		c-0.666,0.333-1.334,1.667-1,2.334c-0.334,0-0.666,0.333-1,0.333v-0.333c0.334-0.334,1.334-1.667,1-2.001
		c0-0.667,0-1.334,0.334-2.334c0.332,0,1,0,1.334-0.333c3-0.333,3-3.668,1-5.334V9.351h4.334c0.666,0,1.668-2.667,0.666-2.667
		c-1,0.333-2.334,0.333-3.334,0.333c0.334-0.333,0.668-0.667,0.668-1c2,0,3.668-0.333,5.334-0.667c0,0.333-0.334,0.667-0.334,1
		c-0.666-0.667-1.666,2-1,2.334c0.668,0.333,1.334,0.667,2.002,1c-0.334,0.667-0.334,1,0.332,1H103.354L103.354,10.684z
		 M94.019,6.017c-0.334,0.333-0.334,0.667-0.666,1h-3.002c0-0.333-0.332-0.667-0.666-0.667c-0.668,0-1.334,0.333-2,0.333
		C89.685,6.35,91.685,6.35,94.019,6.017L94.019,6.017z M87.351,2.349V1.682h0.334c0,0.333,0,0.667,0.332,0.667H87.351L87.351,2.349z
		 M93.353,2.015c1.334,0,2.666,0,4.334-0.333c-0.666,0-1,0.333-1.334,0.333H93.353L93.353,2.015z M100.021,1.349h2.334
		c0,0.667,0,1-0.334,1.667c-0.666,0-1.666,0-2.666,0.333V3.016C99.687,2.682,100.021,2.015,100.021,1.349z M85.351-2.319
		c2.666-0.333,5.668-0.333,8.668-0.333c-0.334,0.667-0.666,1.334-0.334,1.667c-2,0-4,0.333-5.668,0.333
		c0-0.333-0.332-0.333-0.332-0.667C87.351-1.319,86.017-1.652,85.351-2.319L85.351-2.319z M84.349,15.685
		c2.002,0,3.668,0,5.67-0.333c-0.334,1-0.668,2.002-0.668,2.669c-1.666-0.333-3.334-0.667-5.002-1c0-0.667,0.334-1.334,0-1.334
		V15.685z M83.349,15.685h-2.334H83.349z M69.679,18.02c1.334,0,2.334,0.333,3.334,0.333s1.668-2.001,1.334-2.334h0.334
		c0.332,0.333,0.666,0.667,1.334,1.334c-0.668,0.668-0.668,1.667,0,1.667c0,0,0.332-0.334,0.666-0.667c0,0.333,0,0.667,0.334,1.334
		c0.332,0.333,1.334-0.999,1.334-2.001c1.332,0.334,2.666,0.334,4,0.334c-0.334,0.666-0.334,1.333,0.334,1.333
		c1.334,0,2.334,0.334,3.668,0.667c-5.668,0.334-11.67,0.667-16.672-1.666V18.02L69.679,18.02z M50.34,12.352
		c1.334,0,2.667-0.333,4.001-0.333c2.334,0,5.001,0,7.335,0.333c0.667,0,1-1.335,1-2.001c0.333-0.667,0.333-1.334,0-1.667
		c-1.667-0.333-3.334-1-5.335-1c4.334-2.668,8.336-0.667,12.003,2.667h-0.332c-2.001,1-2.668,3.001-2.001,4.667
		c-1,0-2-0.333-3.001-0.333h-0.667c-4.668-0.667-9.336-1.334-14.004-2C49.673,12.685,50.006,12.685,50.34,12.352L50.34,12.352z
		 M-32.683,4.016c-1.333-2.334-3.334-4.001-5.668-5.001c0.333-0.333,0.333-0.333,0.333-0.667c2.334-0.333,5.001-0.333,7.336,0
		c0.667,0,1.667-2.667,0.667-2.667c-2.668-0.333-5.335,0-8.003,0.333c3.001-0.667,7.002-1.333,9.003,0
		c2.667,2,6.001,3.001,9.002,3.334C-6.675,5.35,7.662,8.351,21.665,11.017c8.669,1.667,17.338,3.001,26.007,4.001v0.333h0.333
		c2,0,4.001,0.333,5.668,0.667c0,0-0.333,0-0.667,0.333c-15.337-0.667-31.009-3-45.681-7.001C0.658,7.684-6.011,5.683-12.68,4.349
		c-2.334-0.333-5.668-1.333-8.335-0.667c0.333-1,0.333-1.667-0.333-1.667c-3.668,0.333-7.335,1-11.336,2.001H-32.683z
		 M-18.011,27.355C-17.678,27.688-18.011,27.688-18.011,27.355z M-17.344,28.355c0-0.334-0.333-0.667-0.667-1v-0.667
		c0-1.001,0.333-2.001,0.333-3.335c0-0.333,0.333-1,0.333-1.333c4.667,2.667,10.002,4.334,15.337,5.668
		C-7.009,28.021-12.343,28.021-17.344,28.355z M111.024,24.688c-6.002,0-12.002,0.334-18.004,0.334
		c6.002-0.334,12.336-0.667,18.338-1.334C111.358,24.021,111.024,24.354,111.024,24.688z M122.028,19.02
		c-0.334,0.333-0.668,1-1,1.334l-65.351,5.001c-6.668,0-13.337,0.333-20.006,0.667c0-0.334-0.333-0.334-0.333-0.334
		c-8.002,0.667-15.671,1.001-23.673,1.334c-10.003-0.667-19.672-2.667-28.341-7.669c-0.333-0.333-0.333-0.333-0.667-0.333
		c0.333-1,0.333-2.334,0-3.334c-0.333-5.667-3.667-9.335-9.336-9.335c-1.667,0-2.667,1-3.001,2.334c-0.667-0.667-1.333-1-2-1.667
		c0.333-0.333,0.333-0.667,0.333-0.667c0-0.333-0.333-0.333-0.333-0.333c2.667-0.667,5.335-1,8.002-1.334
		c-0.333,1-0.667,2.667,0.333,2c3.334-2.667,12.671,1,16.338,1.667c5.668,1.333,11.67,3,17.671,4.667
		c8.336,2.001,17.005,2.667,25.674,4.001c4.334,0.334,8.336,1.001,12.671,1.334c-0.333,0.667-0.667,2.334,0,2.001
		c1-0.667,2.334-1.334,3.668-1.668c4.001,0,8.002,0.334,12.003,0.334c2.667,2,5.335,3.334,9.337,3.334c5.668,0.334,11.67,0,17.67,0
		c0.668,0,1.668-2.667,0.668-2.667l0.334-0.334c1.332,0,3-0.333,4.334-0.667c0,0.667,0,1.001,0.334,1.001
		c2.334-0.667,4.668-1.001,7.002-1.334c-0.334,0.667-0.334,1.334,0,1.334c1.666-0.334,3.334-0.334,5-0.334
		c0.334,0,0.668-0.333,1-0.667c2.334,0,4.668,0,7.336-0.333c1.334,0.333,3.002,0.333,4.668,0.667H122.028L122.028,19.02z
		 M125.028,20.02c-2.334,0.334-2.334,0.334-2.334,0.334h0.334c0.334-0.334,0.666-0.667,1-1.001h1.668
		C125.362,19.687,125.362,20.02,125.028,20.02L125.028,20.02z M125.362,23.354c-0.334-0.333,0-1,0.334-1.667
		C125.696,22.354,125.362,23.021,125.362,23.354z M128.03,20.02h0.332H128.03z"/>
</g>
</svg>
