<svg width="200mm" height="200mm" version="1.1" viewBox="0 0 200 200" xmlns="http://www.w3.org/2000/svg">
 <g fill="#960000">
  <path d="m12.464 29.778c8.3785 0.08819 16.669-0.44097 24.959-0.35278 10.848 0.08819 21.784 0.61736 32.72 0.52917 11.553 0 23.019-0.44097 34.572-0.35278h35.013c16.228 0.0882 32.456 0.17639 48.595 0.17639 0.35278 0 0.35278-0.52917 0-0.52917-22.754 0-45.508-0.17639-68.262-0.17639-11.642 0-23.283-0.08819-34.837 0.0882-11.201 0.08819-22.313 0.26458-33.514 0-7.4083-0.17639-14.905-0.35278-22.313-0.17639-5.6444 0.08819-11.289 0.35278-16.933 0.26458-0.26458 0-0.26458 0.52917 0 0.52917z"/>
  <path d="m10.347 47.064c4.9389 0.88195 9.966 0.70556 14.905 0.44097 5.468-0.26458 10.936-0.26458 16.404-0.26458 11.553-0.08819 23.195-0.26458 34.749-0.17639 11.642 0.17639 23.283 0.44097 34.925 0.52917 8.9958 0.0882 18.08 0 27.164-0.08819 16.581-0.08819 33.161 0.08819 49.653 0.08819 0.35278 0 0.35278-0.52917 0-0.52917-17.374 0-34.837-0.17639-52.211-0.08819-21.519 0.17639-42.951-0.35278-64.382-0.44097-10.407-0.08819-20.902 0.0882-31.309 0.17639-5.0271 0-9.966 0-14.993 0.26458-4.9389 0.26458-9.8778 0.52916-14.817-0.44098-0.35278-0.08819-0.44097 0.44097-0.0882 0.52917z"/>
  <path d="m10.523 64.703c46.743 0 93.398 0.70556 140.05 0.26458 12.524-0.08819 25.047-0.26458 37.571 0.26458 0.35278 0 0.35278-0.52917 0-0.52917-22.578-0.88194-45.244-0.17639-67.822-0.17639-23.46-0.08819-46.919-0.17639-70.379-0.26458-13.141-0.08819-26.282-0.08819-39.423-0.08819-0.35278 0-0.35278 0.52917 0 0.52917z"/>
  <path d="m188.15 82.166c-45.861 0-91.722 0-137.67 0.35278-6.6146 0.0882-13.229-0.35278-19.932-0.17639-6.4382 0.17639-12.965 0.61736-19.403-0.70556-0.35278-0.08819-0.44097 0.44097-0.0882 0.52917 4.9389 0.97014 9.966 0.97014 14.993 0.79375 5.3799-0.08819 10.76-0.08819 16.14 0.08819 11.553 0.26458 23.195-0.17639 34.837-0.17639h69.762c13.847-0.0882 27.605-0.17639 41.363-0.17639 0.35278 0 0.35278-0.52917 0-0.52917z"/>
  <path d="m188.15 99.628c-46.655 0.44098-93.398-0.0882-140.05-0.17639-12.171 0-24.342 0.17639-36.512 0.17639-0.35278 0-0.35278 0.52918 0 0.52918 22.931 0 45.861-0.1764 68.792-0.0882 23.283 0.17639 46.567 0.26457 69.938 0.26457 12.612 0 25.224-0.0882 37.835-0.17638 0.35278 0 0.35278-0.52916 0-0.52916z"/>
  <path d="m10.347 117.97c46.919 0.17639 93.751 0 140.58 0h28.046c2.9104 0 6.4382-0.61736 9.084 0.70554 0.26458 0.0882 0.52917-0.35276 0.26458-0.52915-1.7639-0.79375-3.5278-0.79375-5.468-0.70556-2.9104 0.0882-5.7326 0-8.6431 0h-51.859c-23.46 0-46.919 0.0882-70.379 0.0882-13.847 0-27.781 0-41.628-0.0882-0.35278 0-0.35278 0.52917 0 0.52917z"/>
  <path d="m187.97 134.91c-46.39 0-92.869 0.17639-139.35 0.26457-13.229 0.0882-26.547 0.0882-39.864 0.0882-0.35278 0-0.35278 0.52917 0 0.52917 46.478 0 92.869-0.17639 139.35-0.35278h39.864c0.35278 0 0.35278-0.52916 0-0.52916z"/>
  <path d="m9.9943 152.55c5.2035 0.88193 10.495 0.44096 15.875 0.17639 5.3799-0.17639 10.76-0.0882 16.14 0 10.319 0.17639 20.549 0.17639 30.868 0.0882 22.842-0.0882 45.773 0.0882 68.615 0.0882h25.135c4.0569 0 8.0257 0.0882 12.083 0 3.175-0.0882 6.1736-0.0882 9.4368 0.52915 0.26459 0.0882 0.44098-0.44096 0.0882-0.52915-4.057-0.79375-7.8493-0.52917-11.994-0.52917h-49.389c-22.754 0-45.508 0.0882-68.174 0.0882-7.6729 0-15.258-0.35278-22.931-0.35278-4.1451 0-8.3785 0-12.524 0.26458-4.4097 0.17639-8.8194 0.44097-13.141-0.35278-0.35277-0.0882-0.44097 0.44098-0.0882 0.52917z"/>
  <path d="m187.97 170.18c-11.289 0-22.578-0.26458-33.867-0.17639-11.553 0.0882-23.107 0.61736-34.66 0.52917-11.642-0.0882-23.283-0.44098-34.837-0.52917-10.672-0.0882-21.343 0.0882-32.015 0.26458-7.8493 0.0882-15.787 0.0882-23.636 0.17639-3.7924 0.0882-7.5847 0.0882-11.377 0.0882h-4.4097c-0.61736 0-1.5875 0.0882-2.2049-0.17639-0.35278-0.0882-0.44097 0.35278-0.17639 0.52916 1.1465 0.35278 2.734 0.17639 3.8806 0.17639h8.1139c4.9389 0 9.8778-0.0882 14.905-0.17639 19.756-0.26458 39.599-0.44097 59.443-0.17638 15.346 0.26458 30.603 0.61736 45.949 0.0882 14.993-0.52917 29.986-0.0882 44.891-0.0882 0.35278 0 0.35278-0.52917 0-0.52917z"/>
  <path d="m170.51 11.787c-0.61736 3.7924-0.44097 7.7611-0.35277 11.642 0.17639 4.4097 0.26458 8.8194 0.26458 13.229 0 11.377 0 22.842-0.0882 34.219-0.17639 20.197-0.35278 40.393 0.0882 60.59 0.17639 4.5861 0.35278 9.1722 0.0882 13.67-0.35277 5.909 0.17639 11.73 0.0882 17.551 0 8.5548-0.17639 17.198-0.17639 25.753 0 0.35278 0.52917 0.35278 0.52917 0 0-6.5264 0.0882-12.965 0.17639-19.491v-8.1139c0-4.4979-0.44098-8.9958-0.26459-13.494 0.26459-6.8792 0.17639-13.67 0-20.549-0.17639-9.6132-0.0882-19.226-0.0882-28.84 0-15.61 0.17639-31.221 0.17639-46.831 0.0882-7.2319 0.17639-14.552 0-21.784-0.17639-5.7326-0.88195-11.73 0-17.374 0.0882-0.35278-0.44098-0.52917-0.44098-0.17639z"/>
  <path d="m152.78 12.492c0.35278 20.902-0.17639 41.804-0.0882 62.618 0.0882 11.465 0.52916 22.931 0.35277 34.396-0.17638 10.936-0.17638 21.96-0.26458 32.897-0.0882 8.2021 0.52917 16.404 0.35278 24.606-0.17639 3.8806-0.61736 7.8493-0.61736 11.818 0 3.0868 0.26458 6.2618 0.26458 9.3486 0 0.35277 0.52917 0.35277 0.52917 0 0-3.9688-0.35278-8.0257-0.17639-11.994 0.26458-5.3799 0.61736-10.76 0.52917-16.14 0-5.2917-0.35278-10.495-0.35278-15.787 0-5.2917 0.17639-10.495 0.0882-15.787-0.0882-11.377 0.35278-22.754 0.0882-34.131-0.26459-11.377-0.26459-22.754-0.26459-34.131 0.0882-15.875 0.35278-31.838 0.0882-47.713-0.0882-0.35278-0.61736-0.35278-0.52917 0z"/>
  <path d="m134.97 11.434c0 22.49 0.26459 44.979 0.26459 67.381 0 10.672-0.0882 21.431-0.35278 32.103-0.17639 9.7896 0 19.491 0.17639 29.281 0.17639 15.875 0 31.838 0.17639 47.713 0 0.35278 0.52916 0.35278 0.52916 0-0.0882-11.289 0-22.666-0.0882-33.955 0-10.407-0.35278-20.814-0.35278-31.221-0.0882-10.495 0.35278-20.99 0.44097-31.397v-32.367c-0.0882-15.787-0.26458-31.662-0.26458-47.537 0-0.35278-0.52917-0.35278-0.52917 0z"/>
  <path d="m117.42 12.14c0 11.73 0 23.46 0.17639 35.19 0.0882 11.465-0.26459 22.931-0.35278 34.396-0.0882 11.642 0.26458 23.283 0.26458 34.925v32.808c0 6.791 0.44098 13.67 0 20.461-0.26458 3.175 0 6.2618 0 9.4368 0 1.4993 0.17639 3.0868 0.0882 4.6743-0.17639 1.3229-0.17639 2.734 0.0882 4.0569 0.0882 0.35278 0.52917 0.26458 0.52917-0.0882-0.44097-2.4694-0.0882-5.0271-0.17639-7.4965-0.0882-2.6458-0.17639-5.3799-0.17639-8.0257 0-2.5576 0.26458-5.1153 0.26458-7.6729v-8.5549c-0.0882-11.024-0.0882-22.049-0.0882-32.985 0-11.553-0.17639-23.019-0.26458-34.572-0.0882-11.465 0.44097-23.019 0.35277-34.572 0-13.935-0.17638-27.958-0.17638-41.981 0-0.26458-0.52917-0.26458-0.52917 0z"/>
  <path d="m99.864 11.081c-0.44097 2.2049-0.0882 4.3215 0.0882 6.4382 0.26458 2.9104 0 5.909 0 8.8194-0.17639 5.8208-0.17639 11.553-0.0882 17.374 0.17639 11.73 0.26458 23.46-0.0882 35.19-0.44097 11.377 0 22.754 0.17639 34.131 0.26458 11.465-0.0882 22.931 0 34.484 0.0882 8.3785-0.44097 16.669-0.26459 25.047 0.0882 5.2035 0.35278 10.495 0.35278 15.699 0 0.35278 0.52917 0.35278 0.52917 0 0-5.2035-0.26458-10.495-0.35278-15.699-0.17639-8.5549 0.35278-17.198 0.26458-25.753-0.17638-11.553 0.26459-23.019 0-34.484-0.26458-11.377-0.61736-22.754-0.17639-34.131 0.44097-11.289 0.26458-22.578 0.0882-33.778 0-5.5562-0.0882-11.112 0-16.669 0.0882-2.8222 0.17639-5.5562 0.17639-8.3785 0-2.734-0.70555-5.4681-0.17639-8.1139 0-0.35278-0.52916-0.44097-0.52916-0.17639z"/>
  <path d="m82.49 11.963c-0.44097 5.2035-0.44097 10.407-0.35278 15.699 0.0882 5.3799 0 10.848 0 16.316 0.0882 11.377 0.44098 22.666 0.0882 34.043-0.70555 21.255 0 42.422-0.0882 63.676-0.0882 15.787-0.52916 31.574 0.17639 47.36 0.0882 0.35278 0.61736 0.35278 0.52917 0-0.97014-19.932-0.0882-39.776-0.17639-59.708-0.0882-10.495-0.26458-21.078-0.17639-31.662 0-10.495 0.52917-20.99 0.52917-31.574 0.0882-9.4368-0.44097-18.874-0.35278-28.31 0.17639-8.6431-0.35278-17.198 0.35278-25.841 0-0.35278-0.52917-0.35278-0.52917 0z"/>
  <path d="m64.41 11.699c-0.44097 5.4681-0.26458 10.936-0.0882 16.492 0.17639 5.7326 0.26459 11.465 0.35278 17.11 0.17639 11.465-0.26458 22.931-0.17639 34.308 0 5.6444-0.0882 11.289-0.0882 16.933 0.0882 5.6444 0.17639 11.201-0.0882 16.845-0.17639 5.5562-0.35278 11.024-0.17639 16.581 0.17639 5.2917 0.52917 10.495 0.61736 15.787 0.17639 14.376-0.61736 28.663-0.70555 43.039 0 0.35277 0.52917 0.35277 0.52917 0 0.0882-10.407 0.52916-20.814 0.70555-31.309 0.0882-10.495-0.52917-20.902-0.70555-31.309-0.0882-5.6444 0.26458-11.289 0.44097-16.933 0.0882-5.5562-0.0882-11.201-0.0882-16.757 0-5.6444 0.17639-11.201 0-16.845-0.0882-5.7326 0.26458-11.465 0.35278-17.198 0.0882-7.8493-0.0882-15.699-0.26459-23.548-0.17639-7.6729-0.70555-15.434-0.0882-23.195 0-0.35278-0.52917-0.35278-0.52917 0z"/>
  <path d="m46.419 11.522c0 5.0271 0.61737 10.054 0.35278 15.081-0.17639 5.6444-0.17639 11.201 0.0882 16.845 0.26459 5.6444 0.52917 11.377 0.26459 17.022-0.35278 5.7326-0.70556 11.465-0.70556 17.286 0 11.465 0.70556 23.019 0.79375 34.572 0.0882 5.7326-0.17639 11.465-0.17639 17.198 0 5.7326 0.17639 11.377-0.26458 17.11-1.1465 14.023 1.6757 28.31-0.35278 42.245 0 0.35278 0.44097 0.52917 0.52917 0.17639 0.79375-5.2917 0.70555-10.495 0.52917-15.787-0.0882-5.6444-0.17639-11.377-0.35278-17.022-0.17639-5.7326 0.44097-11.465 0.52916-17.198 0-5.7326-0.17638-11.377 0-17.11 0.44098-11.465-0.26458-23.019-0.61736-34.484-0.0882-5.8208-0.17639-11.553 0-17.374 0.17639-5.7326 0.79375-11.377 0.70556-17.11-0.0882-7.2319-0.79375-14.464-0.61736-21.696 0.0882-3.2632 0.44097-6.5264 0.35278-9.7896-0.0882-3.3514-0.52917-6.6146-0.52917-9.966 0-0.35278-0.52917-0.35278-0.52917 0z"/>
  <path d="m29.309 11.522c-0.0882 22.666-0.17639 45.244-0.26458 67.91 0 11.553-0.17639 23.107-0.0882 34.66 0.0882 11.201 0.35278 22.401 0.0882 33.602-0.17639 7.1438 0 14.376 0 21.519 0.0882 3.5278 0 7.0556-0.35278 10.583-0.17639 2.9986 0.44097 5.6444 0.79375 8.6431 0 0.35278 0.52917 0.35278 0.52917 0-0.17639-1.9403-0.70556-3.8806-0.88195-5.909-0.26458-2.6458 0.35278-5.468 0.44098-8.1139 0.17638-5.3799-0.0882-10.76-0.17639-16.14 0-5.5562 0.26458-11.112 0.26458-16.581 0.0882-5.5562 0-11.201-0.0882-16.757-0.26458-22.842 0-45.773 0.0882-68.703 0.0882-14.905 0.0882-29.81 0.17639-44.715 0-0.35278-0.52917-0.35278-0.52917 0z"/>
 </g>
 <path d="m8.1422 15.138c-0.0882 3.4396-1.6757 7.2319-0.44097 10.583 0.26458 0.61736 1.3229 0.35278 1.0583-0.26458-1.2347-3.2632 0.35278-6.9674 0.44098-10.319 0.0882-0.70556-0.97014-0.70556-1.0583 0z"/>
 <path d="m6.2902 17.96c1.5875-1.0583 3.616-2.2049 4.5861-3.9688 0.26458-0.44097-0.26459-0.97014-0.70556-0.70556-0.0882 0-0.17639 0.08819-0.26458 0.08819-0.61736 0.26459-0.35278 1.3229 0.35278 1.0583 0.17639-0.08819 0.26458-0.17639 0.44097-0.26458l-0.70556-0.70556c-0.88194 1.5875-2.8222 2.6458-4.2333 3.616-0.52917 0.35278 0 1.2347 0.52917 0.88194z"/>
 <path d="m8.2304 26.603c-0.97014-3.4396 0.61736-6.9674 0.70555-10.407 0-0.70556-1.0583-0.70556-1.0583 0-0.0882 3.616-1.6757 7.1438-0.70556 10.76 0.17639 0.61736 1.2347 0.35278 1.0583-0.35278z"/>
 <path d="m8.5832 27.044c0-0.35278 0-0.70556 0.0882-1.0583 0-0.35278-0.0882-0.61736-0.35278-0.70556s-0.61736 0.08819-0.70555 0.35278c-0.0882 0.52917-0.0882 0.97014-0.0882 1.4111 0 0.70555 1.0583 0.70555 1.0583 0z"/>
 <path d="m4.7027 52.003c0.0882 0.08819 0.44097-0.26458 0.61736-0.35278 0.44097-0.26458 0.97014-0.35278 1.4111-0.52917 0.35278-0.0882 1.9403-0.61736 1.8521 0.17639-0.0882 0.88195-0.97014 1.6757-1.5875 2.2049-0.52916 0.52917-1.1465 1.1465-1.7639 1.5875 0.17639 0.26458 0.44098 0.52917 0.61736 0.79375 0.17639-0.17639 0.35278-0.35278 0.52917-0.44097 0.52917-0.35278 0-1.2347-0.52917-0.88194-0.26458 0.17639-0.52916 0.35278-0.70555 0.61736-0.35278 0.44097 0.0882 1.2347 0.61736 0.79375 1.2347-0.88194 5.2035-3.8806 3.5278-5.7326-1.1465-1.2347-6.6146 0.52917-5.4681 2.2931 0.35278 0.61736 1.2347 0.08819 0.88195-0.52917z"/>
 <path d="m6.2902 55.619c0.79375-1.5875 3.175-1.4111 3.616 0.17639 0.44097 1.2347-0.0882 2.6458-0.61736 3.7042-0.61736 1.3229-1.6757 2.4694-2.8222 3.3514-0.44098 0.35278-1.5875 1.0583-1.9403 0.35278-0.0882-0.35278-0.35278-0.52917-0.61736-0.61736-0.61736-0.26458-1.1465 0.61736-0.52917 0.88194 0.52917 0.26458 0.52917 0.88195 1.2347 1.0583 0.97014 0.17639 2.0285-0.44097 2.734-0.97014 1.6757-1.2347 2.9986-3.3514 3.5278-5.2917 0.44097-1.3229 0.35278-3.5278-0.97014-4.4097-1.4111-0.79375-3.7924-0.35278-4.4979 1.2347-0.26458 0.61736 0.61736 1.1465 0.88195 0.52917z"/>
 <path d="m9.9943 85.605c-1.1465-0.61736-3.7924-1.4993-4.8507-0.17639-0.52917 0.70555-0.52917 1.4111-0.61736 2.293 0 1.4111-0.17639 2.8222-0.35278 4.2333-0.0882 0.44097 0.61736 0.70555 0.88194 0.35277 1.1465-1.2347 2.9986-2.293 4.7625-2.293-0.17638-0.17639-0.35277-0.35278-0.52916-0.52917-0.0882 1.6757-1.3229 2.9986-2.2931 4.2333-1.2347 1.6757-2.2049 3.5278-3.4396 5.2035 0.26458 0.0882 0.61736 0.26458 0.88194 0.35278 0-0.0882 0.0882-0.26459 0.0882-0.35278 0.44097-0.52917-0.26459-1.2347-0.70556-0.70556-0.35278 0.35278-0.44097 0.52917-0.44097 1.0583 0 0.44097 0.61736 0.79376 0.88194 0.35277 1.3229-1.6757 2.3812-3.616 3.7042-5.2917 1.0583-1.4993 2.2931-2.9986 2.3812-4.8507 0-0.26458-0.26458-0.52916-0.52917-0.52916-2.0285 0-4.1451 1.1465-5.468 2.6458 0.26458 0.0882 0.61736 0.26458 0.88194 0.35278 0.17639-1.4111 0.35278-2.8222 0.35278-4.2333 0-1.2347 0.35278-1.8521 1.6757-1.8521 0.70555 0 1.5875 0.26458 2.2049 0.61736 0.6174 0.35278 1.1465-0.61736 0.52916-0.88194z"/>
 <path d="m8.3186 91.603c0.0882 1.8521-0.97014 3.2632-2.1167 4.5861-0.35278 0.35278-0.61736 0.70556-0.97014 1.0583-0.17639 0.17639-0.44097 0.44098-0.61736 0.61736-0.35278 0.35278-0.52916 0.17639-0.17639 0.52917-0.44097-0.52917-1.2347 0.26458-0.70555 0.70556 0.79375 0.88194 2.3812-1.2347 2.8222-1.7639 1.4993-1.5875 2.9104-3.4396 2.8222-5.7326 0-0.70556-1.0583-0.70556-1.0583 0z"/>
 <path d="m4.5263 85.87c-1.6757 0.97014-0.88195 4.4979-0.17639 5.909 0.26458 0.61736 1.1465 0.0882 0.88194-0.52917-0.35277-0.70555-0.44097-1.4993-0.52916-2.293-0.0882-0.52917-0.17639-1.8521 0.35277-2.2049 0.61737-0.35277 0.0882-1.2347-0.52916-0.88194z"/>
 <path d="m8.8478 54.914c1.4111 3.5278 0 6.0854-2.9104 8.2903-0.52917 0.35278 0 1.3229 0.52917 0.88195 3.2632-2.4694 4.9389-5.3799 3.4396-9.525-0.26458-0.61736-1.3229-0.35278-1.0583 0.35278z"/>
 <path d="m5.5846 50.416c-0.52917 0.44097-0.70555 1.1465-1.0583 1.7639-0.35278 0.61736 0.52916 1.1465 0.88194 0.52917 0.35278-0.52917 0.44097-1.1465 0.88195-1.5875 0.52916-0.44097-0.17639-1.1465-0.70556-0.70556z"/>
 <path d="m4.4381 124.15c0.79375-0.61736 2.4694-0.61736 3.4396-0.70556 1.1465-0.0882 2.3812-0.17639 3.5278 0.0882-0.52917-0.17639-2.293 3.175-2.4694 3.5278-1.1465 1.9403-2.3812 3.8806-2.9986 5.9972 0.35277 0.0882 0.70555 0.26457 1.0583 0.35277v-0.17638c0.26458-0.52917-0.44097-1.1465-0.79375-0.61736-0.44097 0.52915-0.70556 0.97013-0.88195 1.5875-0.17638 0.70555 0.88195 0.97013 1.0583 0.35277 0.17639-0.44097 0.35278-0.79375 0.52916-1.2347-0.26458-0.17639-0.52916-0.44096-0.79375-0.61735-0.0882 0.0882-0.0882 0.26458-0.17638 0.35278-0.17639 0.70554 0.88194 0.97013 1.0583 0.35277 0.70555-2.734 2.5576-5.6444 4.1451-7.9375 0.44097-0.70556 2.1167-2.2049 0.79375-2.9104-1.1465-0.61736-3.175-0.26458-4.4097-0.0882-1.2347 0.0882-2.8222 0.17639-3.7924 0.97014-0.52916 0.44098 0.17639 1.1465 0.70556 0.70556z"/>
 <path d="m4.0853 123.62c1.2347-0.17639 2.4694 0.17639 3.7924 0.17639 1.0583 0 2.0285-0.52917 3.0868-0.26458 0.70555 0.0882 0.97014-0.88195 0.35278-1.0583-1.2347-0.17638-2.2931 0.0882-3.4396 0.26459-1.4111 0.17639-2.734-0.35278-4.1451-0.17639-0.61736 0.0882-0.35277 1.1465 0.35278 1.0583z"/>
 <path d="m12.023 123.53c-2.3813 3.0868-4.9389 5.9972-6.4382 9.6132 0.35278 0.0882 0.61736 0.17639 0.97014 0.26459v-0.0882c0.44097-0.52916-0.26459-1.2347-0.70556-0.70554-0.26458 0.26458-0.35278 0.44097-0.35278 0.79374-0.0882 0.52916 0.79375 0.70555 0.97014 0.26458 1.5875-3.616 4.1451-6.5264 6.4382-9.6132 0.44097-0.52916-0.52917-1.0583-0.88195-0.52916z"/>
 <path d="m9.4651 138.7c-2.2049-0.52916-8.1139 1.0583-5.3799 4.1451 1.2347 1.4993 4.2333 1.4993 4.3215 3.7924-0.0882 0.61735-0.35278 1.1465-0.79375 1.5875-0.88194 0.88195-1.2347 0.97013-1.2347 0.35278 0.17639-0.70556 0.52916-1.4993 0.70555-2.2049 0.70556-1.8521 1.4111-3.7042 2.2931-5.5562 0.26458-0.44097-0.17639-0.97014-0.70556-0.70556-0.17639 0.0882-0.35277 0.17639-0.52916 0.26459-0.61736 0.26458-0.0882 1.2347 0.52916 0.88193 0.17639-0.0882 0.35278-0.17639 0.52917-0.26457-0.26458-0.26459-0.44097-0.44097-0.70556-0.70556-0.79375 1.6757-1.4993 3.4396-2.2049 5.2035-0.35277 0.97014-1.2347 2.6458-0.97014 3.616 0.17639 0.70555 1.0583 0.88194 1.6757 0.70555 1.2347-0.44097 2.0285-1.3229 2.3812-2.5576 0.52917-2.2049-1.2347-3.2632-2.9104-4.0569-1.2347-0.52917-2.9104-1.7639-1.1465-2.9104 0.97014-0.61736 2.6458-0.88194 3.7924-0.52916 0.70555 0.17638 0.97013-0.88195 0.35277-1.0583z"/>
 <path d="m7.3485 139.4c2.2049 3.0868-1.5875 6.7028-2.4694 9.7014-0.17639 0.61735 0.70556 0.97013 0.97014 0.44096 0.0882-0.0882 0.17639-0.17639 0.26458-0.35278 0.52917-0.44096-0.26458-1.2347-0.70555-0.70554-0.17639 0.17638-0.35278 0.26458-0.44097 0.52915 0.26458 0.17639 0.61736 0.26459 0.97014 0.44097 0.97013-3.3514 4.8507-7.0556 2.293-10.583-0.35278-0.52917-1.3229 0-0.88194 0.52916z"/>
 <path d="m4.879 148.58c-0.26458 0.0882-0.35278 0.17639-0.52916 0.44096-0.17639 0.26459-0.0882 0.61736 0.17638 0.70556 1.8521 0.97014 6.9674-0.17639 4.4979-2.8222-0.44097-0.52917-1.1465 0.26457-0.70555 0.70554 1.2347 1.4111-2.4694 1.5875-3.2632 1.2347 0.0882 0.26459 0.0882 0.44097 0.17639 0.70555 0.0882 0 0.0882-0.0882 0.17639-0.0882 0.61736-0.26458 0.0882-1.1465-0.52917-0.88193z"/>
 <path d="m5.6728 149.02c-1.3229-1.0583 1.0583-3.175 1.6757-4.0569 0.44097-0.52917-0.35278-1.2347-0.70556-0.70556-1.0583 1.3229-3.7924 3.8806-1.6757 5.4681 0.52916 0.44097 1.2347-0.26459 0.70555-0.70557z"/>
 <path d="m11.141 156.43c-1.3229-2.2049-3.5278-1.2347-5.0271 0.17638-1.7639 1.6757-3.2632 4.057-2.6458 6.5264 0.61736 2.2049 2.9104 1.6757 4.2333 0.61736 1.8521-1.4111 3.616-3.7924 3.7042-6.1736 0-0.17639-0.17639-0.44097-0.35278-0.52915-0.52916-0.0882-0.97014-0.26459-1.4111-0.35278-0.70555-0.0882-0.97014 0.97013-0.35278 1.0583 0.52917 0.0882 0.97014 0.26459 1.4111 0.35278-0.0882-0.17639-0.26459-0.35278-0.35278-0.52917-0.0882 1.5875-1.1465 3.175-2.2049 4.3215-0.61736 0.70556-2.6458 2.734-3.5278 1.2347-1.4993-2.5576 3.8806-9.084 5.6444-6.1736 0.35278 0.61736 1.2347 0.0882 0.88195-0.52916z"/>
 <path d="m9.2005 156.6c2.2049 3.2632-0.44098 10.848-4.3215 11.906 0.26458 0.17639 0.44097 0.35277 0.70555 0.52916v-1.4111c0-0.70556-1.0583-0.70556-1.0583 0v1.4111c0 0.35278 0.35278 0.61736 0.70556 0.52917 2.5576-0.70556 3.9688-3.4396 4.8507-5.7326 0.88195-2.2931 1.4993-5.5562 0-7.7611-0.35278-0.52917-1.3229 0-0.88194 0.52917z"/>
 <path d="m9.4651 157.04c0.61736 2.0285 0.97014 4.0569 0.61736 6.1736-0.0882 1.0583-0.52917 2.0285-1.0583 2.9104-0.17639 0.35278-2.3812 2.5576-2.734 2.2049 0.0882 0.17638 0.0882 0.44097 0.0882 0.61736 0.0882-0.0882 0.17639-0.26459 0.17639-0.35278 0.26459-0.61736-0.61736-1.1465-0.88194-0.52917-0.0882 0.0882-0.0882 0.26459-0.17639 0.35278-0.0882 0.26458-0.0882 0.44096 0.0882 0.61735 0.0882 0.0882 0.0882 0.17639 0.17639 0.17639 0.0882 0.17639 0.35278 0.17639 0.52917 0.17639 5.3799-1.8521 5.6444-7.9375 4.2333-12.7-0.17639-0.61736-1.2347-0.35278-1.0583 0.35278z"/>
 <path d="m14.933 10.817c0.35278 0 0.70555-1.1465 0.97014-1.6757 0.52916-0.97014 1.0583-1.9403 1.6757-2.8222 0.61736-1.1465 2.0285-2.5576 2.2931-3.7924 0.0882-0.70556-0.88195-0.97014-1.0583-0.35278-0.17638 1.2347-6.791 9.3486-3.8806 9.7014 0.70555 0.08819 0.70555-0.97014 0-1.0583z"/>
 <path d="m18.373 1.8208c-0.17639 2.0285 0.26459 3.7924 1.0583 5.6444 0.88194 1.9403 2.734 3.5278 3.0868 5.6444 0.0882 0.70556 1.0583 0.44097 0.97014-0.26458-0.26458-1.6757-1.3229-2.8222-2.2049-4.3215-1.3229-2.0285-2.1167-4.2333-1.8521-6.7028 0-0.70556-1.0583-0.70556-1.0583 0z"/>
 <path d="m14.051 12.404c0.0882 0.26458 0.0882 0.08819 0.26459-0.08819 0.17639-0.26458 0.52916-0.44097 0.79375-0.61736 0.70555-0.44098 1.4111-0.79376 2.1167-1.2347 0.79375-0.35278 3.7042-1.9403 4.4097-0.97014 0.44097 0.52917 1.2347-0.26458 0.79375-0.79375-1.1465-1.4111-4.1451 0.17639-5.3799 0.70556-0.97014 0.44097-4.2333 1.7639-3.9688 3.2632 0.0882 0.70556 1.1465 0.35278 0.97013-0.26458z"/>
 <path d="m32.131 2.7027c0.70556 2.4694 0.0882 5.3799 1.5875 7.5847 0.17639 0.35278 0.70556 0.35278 0.88195 0 0.26458-0.35278 0.44097-0.79375 0.61736-1.2347 0.26458-0.70556-0.70556-0.97014-0.97014-0.35278-0.17639 0.44097-0.35278 0.79375-0.52917 1.0583h0.88195c-1.4111-2.1167-0.79375-4.9389-1.4993-7.4083-0.17639-0.61736-1.1465-0.35278-0.97014 0.35278z"/>
 <path d="m32.925 3.8492c0.70556-0.61736 4.057-2.4694 4.7625-1.3229 0.79375 1.0583-3.5278 2.6458-4.3215 2.5576-0.70556-0.08819-0.70556 0.97014 0 1.0583 1.0583 0.08819 2.4694-0.61736 3.3514-1.0583 1.0583-0.52917 2.3812-1.4111 2.0285-2.734-0.70556-2.5576-5.1153-0.44097-6.35 0.52917-0.61736 0.44097-0.0882 1.3229 0.52916 0.97014z"/>
 <path d="m37.687 4.8194c2.2049-0.08819 4.3215 2.9986 2.5576 4.7625-1.2347 1.3229-3.7042 1.1465-5.3799 1.1465-0.70555 0-0.70555 1.0583 0 1.0583 2.4694 0 5.909 0 6.9674-2.734 1.0583-2.4694-1.7639-5.3799-4.1451-5.2917-0.70555 0-0.70555 1.0583 0 1.0583z"/>
 <path d="m58.06 3.2319c-1.3229-2.2049-4.4979-2.2049-5.9972-0.35278-1.3229 1.7639-1.5875 4.8507-0.35278 6.791 1.8521 2.9104 9.1722 3.5278 8.6431-1.2347-0.0882-0.70556-1.1465-0.70556-1.0583 0 0.35278 3.3514-4.1451 2.6458-5.909 1.4111-1.4993-0.97014-1.4993-2.9104-1.2347-4.4979 0.17639-0.79375 0.52917-1.5875 1.1465-2.2049 0.97014-1.0583 3.0868-0.61736 3.7924 0.61736 0.35278 0.52917 1.2347 0 0.97014-0.52917z"/>
 <path d="m57.443 2.8791c-0.44097-1.8521-2.6458-1.6757-4.0569-1.0583-1.7639 0.88194-2.3812 3.2632-2.4694 5.0271s0.52917 3.7042 2.2931 4.4979c1.7639 0.70556 3.5278 0 4.9389-1.1465 0.52916-0.44097-0.17639-1.1465-0.70556-0.79375-2.1167 1.6757-4.7625 1.4993-5.3799-1.4111-0.26458-1.2347 0-2.6458 0.52917-3.7924 0.35277-0.61736 0.79375-1.0583 1.3229-1.4111 0.61736-0.35278 2.2931-0.70556 2.5576 0.35278 0.17639 0.61736 1.1465 0.35278 0.97014-0.26458z"/>
 <path d="m58.942 9.7582c0.26458-0.44097 0.61736-0.70556 0.97013-0.97014 0.26459-0.17639 0.35278-0.52917 0.26459-0.79375-0.17639-0.17639-0.52917-0.35278-0.79375-0.17639-0.52917 0.44097-1.0583 0.79375-1.3229 1.4111-0.35278 0.52917 0.61736 1.1465 0.88195 0.52917z"/>
 <path d="m68.555 3.4964c0 2.8222-0.35278 5.8208 0.70556 8.5549 0.0882 0.26458 0.35277 0.44097 0.70555 0.35278 0.44097-0.08819 0.61736-0.35278 0.88195-0.79375 0.35277-0.61736-0.61737-1.1465-0.97014-0.52917 0 0.17639-0.0882 0.26458-0.26459 0.35278 0.26459 0.08819 0.44098 0.26458 0.70556 0.35278-1.0583-2.6458-0.70556-5.5563-0.70556-8.2903 0-0.70556-1.0583-0.70556-1.0583 0z"/>
 <path d="m69.173 2.7027c2.2049 0.08819 7.5847 2.3812 6.1736 5.3799-0.52916 0.97014-1.9403 1.7639-2.8222 2.3812-0.52917 0.44097-2.5576 2.0285-3.2632 1.4993-0.61737-0.44097-1.1465 0.52917-0.52917 0.88194 1.0583 0.79375 2.8222-0.44097 3.7042-0.97014 1.4111-0.88194 3.175-2.0285 3.9688-3.616 1.7639-3.616-4.4979-6.5264-7.232-6.6146-0.61736 0-0.61736 1.0583 0 1.0583z"/>
 <path d="m68.996 2.4381c2.5576-0.88194 5.2035 1.4111 6.1736 3.7042 1.2347 3.175-2.9104 6.35-5.8208 5.5562-0.70556-0.26458-0.97014 0.79375-0.26458 0.97014 3.5278 1.0583 7.9375-2.3812 7.3201-6.0854-0.52917-3.175-4.4979-6.2618-7.6729-5.1153-0.70556 0.17639-0.35278 1.2347 0.26458 0.97014z"/>
 <path d="m86.106 1.027c-2.2049 0.08819-1.7639 3.616-1.4993 5.0271 0.0882 0.97014 0.97014 5.3799 2.8222 4.2333 0.61736-0.35278 0.0882-1.3229-0.52917-0.97014-0.35277 0.26458-1.1465-2.9104-1.2347-3.175-0.0882-0.70556-0.70555-3.9688 0.44097-4.0569 0.70556 0 0.70556-1.0583 0-1.0583z"/>
 <path d="m86.106 10.111c3.175 1.2347 6.791 0.79375 8.9958-1.9403 0.44097-0.52917-0.35278-1.2347-0.79375-0.70556-1.9403 2.4694-5.1153 2.734-7.9375 1.5875-0.61736-0.26458-0.88195 0.79375-0.26459 1.0583z"/>
 <path d="m85.312 6.0541c2.0285 0.44097 4.1451 0.17639 6.2618-0.17639 0.70556-0.17639 0.35278-1.1465-0.26458-1.0583-1.8521 0.35278-3.8806 0.61736-5.7326 0.26458-0.70556-0.08819-0.97014 0.88194-0.26459 0.97014z"/>
 <path d="m84.166 2.7027c2.9104 0.26458 5.7326-0.52917 8.643-0.08819 0.70556 0.08819 0.70556-0.97014 0-1.0583-2.9104-0.44097-5.7326 0.35278-8.643 0.08819-0.70556-0.08819-0.70556 0.97014 0 1.0583z"/>
 <path d="m84.166 1.9089c-0.0882 0-0.17639 0-0.26459-0.0882 0 0.35278-0.0882 0.70556-0.0882 1.0583 1.8521 0.17639 3.7042 0.44097 5.6444 0.26458 0.70556-0.08819 3.9688-0.97014 4.4097-0.35278 0.44097 0.52917 1.2347-0.26458 0.79375-0.79375-0.79375-0.88194-3.2632-0.17639-4.2333-0.08819-2.2049 0.35278-4.4097 0.17639-6.6146-0.0882-0.61736-0.08819-0.79375 0.97014-0.17639 1.0583h0.26458c0.61736 0.17639 0.97014-0.88194 0.26459-0.97014z"/>
 <path d="m93.955 2.0853v0.17639c0 0.70556 1.0583 0.70556 1.0583 0v-0.17639c0-0.70556-1.0583-0.70556-1.0583 0z"/>
 <path d="m94.573 8.2589c0.0882 0.08819 0 0.08819 0 0.17639 0.0882-0.08819-0.0882 0 0.0882 0 0.26458-0.17639 0.26458-0.52917 0.17638-0.79375-0.17638-0.26458-0.44097-0.26458-0.70555-0.17639-0.17639 0.08819-0.35278 0.26458-0.44097 0.44097-0.17639 0.35278-0.17639 0.61736 0 0.88194 0.0882 0.26458 0.44097 0.35278 0.70555 0.17639 0.26459-0.17639 0.26459-0.44097 0.17639-0.70556z"/>
 <path d="m85.312 9.4937c2.734 1.0583 6.5264 1.6757 8.8194-0.61736 0.52917-0.44097-0.26458-1.2347-0.70556-0.70556-2.0285 1.9403-5.5562 1.2347-7.8493 0.35278-0.61736-0.26458-0.88195 0.70556-0.26459 0.97014z"/>
 <path d="m111.33 2.5263c-2.5576-0.70556-5.2035-0.26458-7.6729 0.44097-0.52917 0.0882-0.52917 0.88194 0 0.97014 2.6458 0.88194 1.6757 5.909 2.293 8.0257 0.17639 0.61736 0.97014 0.44097 1.0583-0.17639 0-0.35278 0.0882-0.70556 0.0882-1.0583 0.0882-0.61736-0.97014-0.61736-1.0583 0 0 0.35278-0.0882 0.70556-0.0882 1.0583 0.35278 0 0.70556-0.0882 1.0583-0.0882-0.79375-2.6458 0.35278-7.5847-3.0868-8.7312v0.97014c2.293-0.61736 4.7625-1.0583 7.1438-0.44097 0.61736 0.17639 0.88194-0.79375 0.26458-0.97014z"/>
 <path d="m105.6 7.6416c1.9403 0.52917 3.7042-0.61736 5.5562-0.61736 0.70556 0.08819 0.70556-0.97014 0-1.0583-1.7639 0-3.5278 1.1465-5.2035 0.61736-0.70555-0.17639-0.97014 0.88194-0.35278 1.0583z"/>
 <path d="m113.36 2.9673c-3.2632-1.4993-7.4083-0.70556-10.583 0.61736-0.61736 0.26458-0.0882 1.2347 0.52917 0.97014 2.8222-1.2347 6.7028-2.0285 9.525-0.61736 0.61736 0.26458 1.1465-0.61736 0.52916-0.97014z"/>
 <path d="m126.76 3.0555c-2.9104-2.5576-6.1736 2.2049-6.4382 4.7625-0.17639 1.6757 1.1465 3.2632 2.734 3.5278 1.8521 0.35278 3.7042-0.70556 4.5861-2.2049 0.35278-0.61736-0.61736-1.1465-0.97013-0.52917-1.3229 2.4694-5.7326 2.2931-5.2917-1.1465 0.26458-1.5875 2.6458-5.3799 4.5861-3.616 0.52917 0.44097 1.2347-0.26458 0.79375-0.79375z"/>
 <path d="m123.68 7.2888c1.2347-0.08819 2.5576-0.44097 3.7924-0.17639 0.97013 0.17639 0.26458 1.3229 0 1.8521-0.35278 0.70556-0.52917 1.4993-0.35278 2.2931 0.0882 0.35278 0.52916 0.52917 0.79375 0.35278 0.26458-0.26458 0.52916-0.44097 0.79375-0.70556 0.52916-0.52917-0.26459-1.2347-0.70556-0.79375-0.17639 0.26458-0.44097 0.44097-0.61736 0.52917 0.26458 0.08819 0.52917 0.26458 0.79375 0.35278-0.52917-1.6757 2.0285-3.3514 0.0882-4.6743-0.70556-0.52917-1.6757-0.35278-2.4694-0.26458-0.70555 0-1.4111 0.08819-2.1167 0.17639-0.70555 0.08819-0.70555 1.1465 0 1.0583z"/>
 <path d="m129.67 3.761c-2.8222-6.35-13.494 2.2049-7.8493 7.4083 0.52917 0.44097 1.3229-0.35278 0.79375-0.79375-4.4979-4.1451 3.9688-11.024 6.0854-6.0854 0.26458 0.61736 1.2347 0.08819 0.97014-0.52917z"/>
 <path d="m121.03 8.2589c-1.4111 3.9688 5.1153 2.8222 6.6146 0.97014 0.44098-0.52917-0.26458-1.2347-0.70555-0.70556-0.88195 0.97014-5.8208 2.5576-4.9389 0 0.26458-0.61736-0.79375-0.88194-0.97014-0.26458z"/>
 <path d="m125.79 10.905c-0.17639 0 0 0 0-0.08819h0.17639c0.17639-0.08819 0.26458-0.08819 0.44097-0.08819 0.0882-0.08819 0.26459-0.08819 0.35278-0.08819 0.0882-0.0882 0.0882-0.0882 0.17639-0.0882-0.17639 0.0882 0 0 0 0 0.70555 0 0.70555-1.0583 0-1.0583-0.52917 0.08819-1.1465 0.26458-1.6757 0.44097-0.26458 0.17639-0.35277 0.52917-0.17638 0.70556 0.17638 0.26458 0.44097 0.35278 0.70555 0.26458z"/>
 <path d="m146.17 1.5562c0.35278 3.175 0.35278 6.35 0.35278 9.525 0 0.70556 1.0583 0.70556 1.0583 0 0-3.175 0-6.35-0.35278-9.525-0.0882-0.61736-1.1465-0.61736-1.0583 0z"/>
 <path d="m138.67 1.9089c-0.61736 2.734-2.5576 9.7896 1.0583 11.112 0.61736 0.26458 0.88195-0.79375 0.26459-0.97014-1.5875-0.61736-1.2347-3.616-1.1465-4.9389 0.0882-1.6757 0.44097-3.2632 0.79375-4.9389 0.17639-0.61736-0.79375-0.88194-0.97014-0.26458z"/>
 <path d="m138.58 8.8763c2.9104 0.52917 5.6444-0.79375 8.5549-0.35278 0.70555 0.17639 0.97014-0.88194 0.26458-0.97014-2.9104-0.44097-5.6444 0.79375-8.5549 0.35278-0.70556-0.08819-0.97014 0.88194-0.26458 0.97014z"/>
 <path d="m137.35 8.4353c1.0583-0.44097 2.6458-0.26458 3.7042-0.35278 1.6757-0.17639 3.5278-0.44097 5.1153-0.08819 0.70555 0.08819 0.97014-0.88194 0.35278-1.0583-1.6757-0.26458-3.4396-0.08819-5.0271 0.08819-1.3229 0.08819-3.175-0.08819-4.4979 0.44097-0.61737 0.17639-0.35278 1.2347 0.35277 0.97014z"/>
 <path d="m156.84 4.0256c1.3229-0.52917 2.9104-0.52917 4.3215-0.79375-0.17639-0.26458-0.35277-0.52917-0.52916-0.88194-1.5875 2.1167-1.2347 5.4681-0.79375 7.8493 0.35277-0.08819 0.70555-0.17639 0.97014-0.26458 0-0.17639 0-0.44097-0.0882-0.61736-0.0882-0.70556-1.1465-0.35278-0.97014 0.26458 0 0.17639 0 0.44097 0.0882 0.61736 0.0882 0.70556 1.1465 0.35278 0.97014-0.26458-0.26459-1.9403-0.70556-5.1153 0.61736-6.791 0.35277-0.44097 0-0.97014-0.52917-0.88194-1.4993 0.26458-3.175 0.26458-4.5861 0.88194-0.61736 0.26458-0.0882 1.1465 0.52917 0.88194z"/>
 <path d="m157.81 10.817c2.0285 0.79375 3.8806 0.08819 5.7326-0.61736 0.61736-0.26458 0.0882-1.2347-0.52916-0.97014-1.5875 0.70556-3.175 1.2347-4.8507 0.52917-0.70555-0.26458-0.97014 0.79375-0.35278 1.0583z"/>
 <path d="m157.98 3.4082c1.8521-0.08819 3.616-0.79375 5.5562-0.70556 0.61736 0 0.61736-1.0583 0-1.0583-1.9403-0.08819-3.7042 0.61736-5.5562 0.70556-0.70555 0-0.70555 1.0583 0 1.0583z"/>
 <path d="m159.57 2.8791c-0.97014 2.8222-0.97014 6.6146 1.0583 8.9958 0.52916 0.44097 1.2347-0.26458 0.79375-0.79375-1.8521-2.0285-1.5875-5.5562-0.79375-7.9375 0.17639-0.61736-0.79375-0.97014-1.0583-0.26458z"/>
 <path d="m157.46 11.081c2.1167 1.4111 4.6743-0.26458 6.8792-0.52917 0.70556 0 0.70556-1.0583 0-1.0583-1.9403 0.17639-4.5861 1.8521-6.35 0.70556-0.52916-0.44097-1.0583 0.52917-0.52916 0.88194z"/>
 <path d="m173.68 3.5846c3.175-0.79375 6.4382 0 9.7014-0.17639 0.70556 0 0.70556-1.0583 0-1.0583h-1.0583c-0.70556 0-0.70556 1.0583 0 1.0583h1.0583v-1.0583c-3.3514 0.17639-6.7028-0.61736-10.054 0.26458-0.61736 0.17639-0.35278 1.1465 0.35277 0.97014z"/>
 <path d="m181.18 2.8791c-0.44097 0.52917 0.17639 1.3229 0.52917 1.7639 1.3229 1.5875 1.9403 3.5278 0.26458 5.1153-1.1465 1.1465-6.6146 2.6458-6.8792 0.26458-0.0882-0.61736-1.1465-0.61736-1.0583 0 0.35278 3.175 4.7625 2.2931 6.791 1.5875 1.5875-0.52917 2.9104-1.7639 3.175-3.4396 0.17639-0.88194 0-1.8521-0.44097-2.6458-0.0882-0.26458-1.4993-2.2049-1.4993-2.1167 0.44097-0.52917-0.52917-1.0583-0.88195-0.52917z"/>
 <path d="m174.83 9.1409c0 0.26458 0.0882 0.52917 0.35278 0.70556 0.17639 0.17639 0.44097 0.08819 0.61736 0 0.17639-0.0882 0.26458-0.26458 0.35278-0.44097 0.0882-0.26458-0.0882-0.61736-0.35278-0.70556-0.35278-0.08819-0.61736 0.08819-0.70555 0.35278 0.0882-0.08819 0.17638-0.08819 0.26458-0.17639h0.26458c0.26459 0.35278 0.35278 0.44097 0.26459 0.26458 0-0.35278-0.17639-0.52917-0.52917-0.52917-0.26458 0-0.52917 0.17639-0.52917 0.52917z"/>
 <path d="m175.27 8.5235c-1.4993 0.52917 0.17639 2.6458 0.88195 3.175 1.4993 1.0583 3.5278-0.26458 4.6743-1.2347 0.52917-0.52917-0.26458-1.2347-0.79375-0.79375-0.61736 0.61736-1.4993 1.2347-2.3812 1.3229-0.52916 0.08819-0.97013-0.17639-1.3229-0.44097-0.17639-0.17639-0.26459-0.44097-0.44097-0.61736 0-0.08819-0.0882-0.26458-0.0882-0.35278 0-0.35278-0.0882-0.35278-0.26458-0.08819 0.61736-0.26458 0.35278-1.2347-0.26459-0.97014z"/>
 <path d="m175.09 9.1409c0.70555 2.1167 2.9104 2.3812 4.8507 2.1167 1.5875-0.26458 3.9688-1.3229 3.8806-3.175-0.0882-0.70556-1.1465-0.70556-1.0583 0 0.0882 1.3229-1.8521 1.8521-2.8222 2.1167-1.3229 0.26458-3.2632 0.17639-3.7924-1.3229-0.26458-0.70556-1.2347-0.35278-1.0583 0.26458z"/>
 <path d="m173.51 3.0555c2.1167 0.08819 4.1451 0.35278 6.2618 0.26458 1.1465 0 3.175-0.70556 4.3215-0.17639 0.61736 0.26458 1.1465-0.70556 0.52917-0.97014-1.1465-0.52917-2.6458-0.08819-3.8806 0.08819-2.4694 0.17639-4.8507-0.08819-7.2319-0.26458-0.70556 0-0.70556 1.0583 0 1.0583z"/>
 <path d="m174.12 3.4082c1.5875 0.17639 3.2632 0.52917 4.9389 0.70556 1.7639 0.26458 3.5278-0.26458 5.2917 0 0.61736 0.08819 0.61736-0.97014 0-1.0583-1.5875-0.17639-3.175 0.17639-4.6743 0.08819-1.8521-0.17639-3.7042-0.61736-5.5562-0.79375-0.70556-0.08819-0.70556 0.97014 0 1.0583z"/>
 <g transform="translate(.52917)">
  <path d="m2.3203 34.432c1.6757-1.3229 3.9687-1.3229 5.4681 0.17639 1.0583 1.0583 1.3229 2.8222 1.2347 4.2333 0 1.3229-0.52916 2.6458-1.2347 3.7924-0.35278 0.70556-0.79375 1.2347-1.3229 1.8521-0.52916 0.52917-1.6757 0.70556-1.9403 1.4111 0.26458-0.61736-0.61737-1.1465-0.97014-0.61736-1.0583 2.0285 2.0285 1.1465 2.8222 0.61736 1.9403-1.2347 3.175-3.7924 3.616-5.9972 0.44097-2.2931-0.0882-4.6743-1.7639-6.35-1.7639-1.8521-4.7625-1.3229-6.6146 0.17639-0.52917 0.44097 0.17639 1.1465 0.70555 0.70555z"/>
  <path d="m3.2904 46.515c1.4111-0.08819 2.6458-0.44097 3.9688-0.88194 1.7639-0.44097 3.4396-0.79375 5.1153-1.4111 0.61736-0.26458 0.35278-1.2347-0.35278-1.0583-0.44097 0.17639-0.88194 0.26458-1.4111 0.44097-0.61736 0.17639-0.35278 1.2347 0.26459 1.0583 0.52916-0.17639 0.97013-0.35278 1.4993-0.44097-0.0882-0.35278-0.26458-0.70555-0.35278-1.0583-1.4111 0.61736-2.9104 0.97014-4.4979 1.3229-1.4111 0.35278-2.734 0.88195-4.2333 0.97014-0.70555 0-0.70555 1.0583 0 1.0583z"/>
  <path d="m3.4668 47.485c1.2347 0.17639 2.1167-0.52917 3.0868-1.0583 1.4993-0.88195 3.175-1.5875 4.6743-2.5576 0.52917-0.35278 0-1.2347-0.52916-0.88194-0.0882 0-0.17639 0.08819-0.26459 0.17639-0.61736 0.35278-0.0882 1.2347 0.52917 0.88195 0.0882-0.0882 0.17639-0.0882 0.26458-0.17639-0.17639-0.26458-0.35277-0.61736-0.52916-0.88194-1.0583 0.61736-2.2049 1.1465-3.2632 1.7639-1.1465 0.61736-2.5576 1.8521-3.9688 1.6757-0.61736-0.0882-0.61736 0.97014 0 1.0583z"/>
  <path d="m8.4057 66.976c-2.0285 2.9986-3.2632 6.8792-6.6146 8.8194-0.26459 0.17639-0.35278 0.61736-0.0882 0.88194 0.97014 0.79375 2.2049 0.52917 3.3514 0.35278 1.7639-0.26458 3.7042-0.44097 5.2917-1.0583 0.52917-0.17639 0.52917-0.79375 0-0.97014h0.0882c-0.35277-0.61736-1.2347-0.0882-0.97014 0.52917 0.17639 0.26458 0.35278 0.35278 0.61737 0.44097v-0.97014c-1.2347 0.44097-2.5576 0.44097-3.8806 0.70555-0.97014 0.17639-2.8222 0.97014-3.7924 0.17639 0 0.26458-0.0882 0.52917-0.0882 0.88194 3.5278-2.1167 4.8507-6.0854 7.0556-9.2604 0.35278-0.61736-0.61736-1.1465-0.97014-0.52917z"/>
  <path d="m8.7585 68.299c-0.0882 0-0.0882 0-0.17639-0.08819-0.35278-0.08819-0.79375 0.26458-0.61736 0.70556 0.44097 1.5875 0.88194 3.2632 1.2347 4.9389 0.44097 1.8521 1.0583 3.8806 0.44097 5.7326h1.0583c0-0.26458-0.0882-0.44097-0.0882-0.70556 0.0882-0.61736-0.97014-0.61736-1.0583 0 0 0.44097 0 0.61736 0.0882 0.97014 0.0882 0.61736 0.88194 0.44097 1.0583 0 0.52917-1.5875 0.17639-3.175-0.17639-4.8507-0.44097-2.1167-0.97014-4.2333-1.5875-6.35l-0.61736 0.61736h0.0882c0.70555 0.17639 0.97013-0.79375 0.35277-0.97014z"/>
  <path d="m9.0231 68.211c-0.26458-0.26458-0.0882 0 0 0.26458 0.0882 0.35278 0.0882 0.70556 0.17639 1.0583 0.26458 1.2347 0.44097 2.4694 0.52917 3.7042 0.17639 1.7639 0.88194 5.2917-0.26459 6.791 0.26459 0.08819 0.52917 0.08819 0.79375 0.17639 0-0.08819 0-0.17639-0.0882-0.17639 0.17639-0.70556-0.88194-0.97014-0.97014-0.35278-0.0882 0.52917-0.0882 0.61736 0.17639 1.0583 0.17639 0.26458 0.61736 0.35278 0.79375 0.0882 1.4993-1.7639 0.88194-5.1153 0.70556-7.2319-0.17639-1.3229-0.35278-2.734-0.61737-4.1451-0.0882-0.52917-0.0882-1.4993-0.44097-1.9403-0.52916-0.52917-1.2347 0.26458-0.79375 0.70556z"/>
  <path d="m6.9064 104.02c0-2.0285-2.0285-1.8521-3.175-0.70555-1.2347 1.3229-1.5875 3.4396-1.6757 5.2035-0.26458 3.175 0.97014 8.7313 5.3799 7.4965 2.9986-0.79375 7.1438-6.791 3.616-9.2604-3.3514-2.3812-7.7611 3.2632-8.4667 6.0854-0.17639 0.61736 0.88194 0.88194 1.0583 0.26458 0.52917-2.293 3.175-5.6444 5.7326-5.8208 1.9403-0.17639 1.9403 2.2931 1.5875 3.5278-0.44097 1.5875-1.6757 2.9986-3.0868 3.7924-3.0868 1.9403-4.5861-1.8521-4.7625-4.3215-0.0882-1.2347 0-2.5576 0.26459-3.7924 0.17639-0.52917 0.35278-1.0583 0.61736-1.5875 0.17639-0.44097 1.8521-2.2931 1.8521-0.88195 0.0882 0.70556 1.1465 0.70556 1.0583 0z"/>
  <path d="m4.3488 109.75c-1.4993 1.2347-1.4993 5.2035 0.88194 5.3799 0.70556 0 0.70556-1.0583 0-1.0583-1.1465-0.0882-1.0583-2.8222-0.35278-3.3514 0.52917-0.44097 0-1.3229-0.52916-0.97014z"/>
  <path d="m3.0258 110.81c-0.0882 2.293 0.97014 7.7611 4.2333 5.2035 0.52917-0.44097-0.26458-1.1465-0.79375-0.70556-2.0285 1.5875-2.3813-3.2632-2.3813-4.4979 0.0882-0.61736-0.97014-0.61736-1.0583 0z"/>
  <path d="m4.8779 103.14c-0.88194 0-1.4993 0.70556-1.6757 1.5875-0.0882 0.26458 0.0882 0.52917 0.35278 0.61736 0.26458 0.0882 0.61736-0.0882 0.61736-0.35278 0.0882-0.26458 0.17639-0.44097 0.26458-0.61736 0.0882-0.0882 0.0882-0.0882 0.17639-0.0882 0.0882-0.0882 0.17639-0.0882 0.26458-0.0882 0.70556 0 0.70556-1.0583 0-1.0583z"/>
  <path d="m10.434 175.37c-1.5875-1.4111-3.0868 0.44097-3.616 2.0285-0.61736 1.5875-0.52917 3.5278-0.52917 5.2035 0.0882 2.3812 0.70556 8.6431 4.5861 6.9674 2.8222-1.3229 2.2049-6.6146 1.9403-8.9076-0.26458-1.7639-1.2347-7.3201-4.0569-6.6146-0.70556 0.17639-0.44097 1.2347 0.26458 1.0583 1.5875-0.44098 2.3812 3.8806 2.5576 4.8507 0.52917 2.3812 0.79375 5.4681-0.35278 7.6729-0.44097 0.97014-1.4993 1.4993-2.4694 0.79375-1.0583-0.97014-1.2347-3.0868-1.3229-4.3215-0.0882-1.4111-0.0882-2.8222 0-4.1451 0.0882-0.79375 0.79375-5.1153 2.2049-3.7924 0.52917 0.44097 1.3229-0.35278 0.79375-0.79375z"/>
  <path d="m8.9349 173.96c-0.79375-0.26458-1.5875-0.26458-2.2931 0.17639-0.52916 0.26458-0.17639 1.0583 0.35278 0.97014 0.61736-0.17639 1.2347 0.17639 1.4111 0.79375s1.1465 0.35277 0.97014-0.26459c-0.35278-1.1465-1.4993-1.8521-2.6458-1.5875 0.17639 0.35278 0.26458 0.70556 0.44097 0.97014 0.44097-0.26458 0.97014-0.17639 1.4111-0.0882 0.70556 0.26458 0.97014-0.79375 0.35278-0.97014z"/>
  <path d="m8.4057 174.75c-2.5576-2.6458-2.6458 3.7042-2.6458 4.9389 0 2.4694 0.17639 8.7312 3.616 9.084 0.61736 0 0.61736-1.0583 0-1.0583-2.2931-0.26458-2.4694-5.8208-2.5576-7.3201v-2.2049c0-0.52916 0.0882-3.4396 0.88195-2.6458 0.44097 0.52917 1.2347-0.26458 0.70555-0.79375z"/>
  <path d="m9.464 175.98c1.4993 3.9688 3.2632 8.0257 2.5576 12.347-0.0882 0.61736 0.88195 0.97014 0.97014 0.26459 0.79375-4.5861-0.97014-8.7312-2.5576-12.876-0.26458-0.61736-1.2347-0.35278-0.97014 0.26458z"/>
  <path d="m3.4668 190.27c-0.17639-5.468 0.52917-10.936 0.17639-16.404 0-0.61736-0.88194-0.70555-1.0583-0.17638-0.17639 0.70555-0.35278 1.2347-0.35278 1.9403 0 0.70556 1.0583 0.70556 1.0583 0 0-0.61736 0.17639-1.0583 0.35278-1.5875-0.35278-0.0882-0.70555-0.0882-1.0583-0.17639 0.35278 5.4681-0.35278 10.936-0.17639 16.404 0 0.70556 1.0583 0.70556 1.0583 0z"/>
  <path d="m1.6263 177.88c0.44098-1.8521 1.4993-3.7924 2.6458-5.2917-0.35278-0.0882-0.70556-0.17639-0.97014-0.26459 0.52917 6.791-0.44097 13.582-0.17639 20.373 0.0882 0.61736 0.88194 0.70556 1.0583 0.0882 0.26459-0.70555 0.35278-1.2347 0.26459-2.0285-0.0882-0.61736-1.1465-0.61736-1.0583 0s0 1.1465-0.17639 1.7639c0.26459 0.0882 0.61737 0.0882 0.97014 0.17639-0.26458-6.791 0.70556-13.582 0.17639-20.373-0.0882-0.52916-0.70555-0.70555-1.0583-0.26458-1.1465 1.5875-2.2049 3.616-2.734 5.5562-0.17639 0.61736 0.88195 0.88194 1.0583 0.26458z"/>
  <path d="m3.3902 192.26c-0.0882-5.6444 2.9104-11.818 0.26459-17.198-0.26459-0.61736-1.2347-0.0882-0.88195 0.52917 2.4694 5.1153-0.52916 11.289-0.44097 16.669 0 0.70555 1.0583 0.70555 1.0583 0z"/>
 </g>
</svg>
