<?xml version="1.0" encoding="UTF-8" standalone="no"?>
<svg
   xmlns:dc="http://purl.org/dc/elements/1.1/"
   xmlns:cc="http://creativecommons.org/ns#"
   xmlns:rdf="http://www.w3.org/1999/02/22-rdf-syntax-ns#"
   xmlns:svg="http://www.w3.org/2000/svg"
   xmlns="http://www.w3.org/2000/svg"
   xmlns:sodipodi="http://sodipodi.sourceforge.net/DTD/sodipodi-0.dtd"
   xmlns:inkscape="http://www.inkscape.org/namespaces/inkscape"
   sodipodi:docname="board3.svg"
   inkscape:version="1.0 (4035a4fb49, 2020-05-01)"
   id="svg1364"
   version="1.1"
   viewBox="0 0 200 200"
   height="200mm"
   width="200mm">
  <defs
     id="defs1358">
    <pattern
       id="EMFhbasepattern"
       patternUnits="userSpaceOnUse"
       width="6"
       height="6"
       x="0"
       y="0" />
    <pattern
       id="EMFhbasepattern-8"
       patternUnits="userSpaceOnUse"
       width="6"
       height="6"
       x="0"
       y="0" />
    <pattern
       id="EMFhbasepattern-2"
       patternUnits="userSpaceOnUse"
       width="6"
       height="6"
       x="0"
       y="0" />
    <pattern
       id="EMFhbasepattern-1"
       patternUnits="userSpaceOnUse"
       width="6"
       height="6"
       x="0"
       y="0" />
    <pattern
       id="EMFhbasepattern-9"
       patternUnits="userSpaceOnUse"
       width="6"
       height="6"
       x="0"
       y="0" />
    <pattern
       id="EMFhbasepattern-17"
       patternUnits="userSpaceOnUse"
       width="6"
       height="6"
       x="0"
       y="0" />
    <pattern
       id="EMFhbasepattern-21"
       patternUnits="userSpaceOnUse"
       width="6"
       height="6"
       x="0"
       y="0" />
    <pattern
       id="EMFhbasepattern-0"
       patternUnits="userSpaceOnUse"
       width="6"
       height="6"
       x="0"
       y="0" />
    <pattern
       id="EMFhbasepattern-211"
       patternUnits="userSpaceOnUse"
       width="6"
       height="6"
       x="0"
       y="0" />
    <pattern
       id="EMFhbasepattern-4"
       patternUnits="userSpaceOnUse"
       width="6"
       height="6"
       x="0"
       y="0" />
    <pattern
       id="EMFhbasepattern-01"
       patternUnits="userSpaceOnUse"
       width="6"
       height="6"
       x="0"
       y="0" />
  </defs>
  <sodipodi:namedview
     inkscape:window-maximized="0"
     inkscape:window-y="340"
     inkscape:window-x="1072"
     inkscape:window-height="1377"
     inkscape:window-width="1280"
     showgrid="false"
     inkscape:document-rotation="0"
     inkscape:current-layer="layer1"
     inkscape:document-units="mm"
     inkscape:cy="357.91107"
     inkscape:cx="335.98677"
     inkscape:zoom="0.9983453"
     inkscape:pageshadow="2"
     inkscape:pageopacity="0.0"
     borderopacity="1.0"
     bordercolor="#666666"
     pagecolor="#ffffff"
     id="base" />
  <metadata
     id="metadata1361">
    <rdf:RDF>
      <cc:Work
         rdf:about="">
        <dc:format>image/svg+xml</dc:format>
        <dc:type
           rdf:resource="http://purl.org/dc/dcmitype/StillImage" />
        <dc:title></dc:title>
      </cc:Work>
    </rdf:RDF>
  </metadata>
  <g
     id="layer1"
     inkscape:groupmode="layer"
     inkscape:label="Layer 1">
    <path
       style="fill:#960000;fill-opacity:1;fill-rule:nonzero;stroke:none;stroke-width:0.264583"
       d="m 81.628701,11.564937 c -0.17639,8.290278 0.35277,16.580555 0.35277,24.870832 -0.0882,10.847918 -0.61736,21.784031 -0.52916,32.72014 0,11.553473 0.35278,23.106944 0.35278,34.660411 0,11.64166 0,23.28333 -0.0882,34.925 0,16.22777 -0.0882,32.45555 -0.0882,48.59514 0,0.35277 0.52916,0.35277 0.52916,0 0,-22.75417 0.17639,-45.50834 0.17639,-68.2625 0,-11.55348 0.0882,-23.195134 -0.0882,-34.836801 -0.17639,-11.200694 -0.26458,-22.313193 0,-33.513889 0.17639,-7.408334 0.35278,-14.904861 0.17639,-22.313194 -0.0882,-5.644445 -0.35278,-11.288889 -0.26458,-16.845139 0,-0.352778 -0.52917,-0.352778 -0.52917,0 z"
       id="path14218" />
    <path
       style="fill:#960000;fill-opacity:1;fill-rule:nonzero;stroke:none;stroke-width:0.264583"
       d="m 152.53703,10.771187 c -0.97014,4.938889 -0.70555,9.965972 -0.44097,14.904861 0.26458,5.468055 0.26458,10.936111 0.26458,16.404167 0.0882,11.553472 0.26459,23.195138 0.0882,34.836804 -0.0882,11.553473 -0.35278,23.195131 -0.52917,34.836801 -0.0882,9.08402 0.0882,18.07986 0.17639,27.16389 0.0882,16.58055 -0.0882,33.16111 -0.0882,49.65347 0,0.35278 0.52916,0.35278 0.52916,0 0,-17.37431 0.17639,-34.83681 0.0882,-52.21111 -0.17639,-21.51945 0.35278,-42.950688 0.44097,-64.381938 0,-10.406945 -0.0882,-20.902082 -0.17639,-31.309029 0,-5.027084 0,-9.965971 -0.26458,-14.993055 -0.26459,-4.938889 -0.52917,-9.877778 0.44097,-14.816667 0,-0.352778 -0.44097,-0.440972 -0.52917,-0.08819 z"
       id="path14220" />
    <path
       style="fill:#960000;fill-opacity:1;fill-rule:nonzero;stroke:none;stroke-width:0.264583"
       d="m 134.89814,10.947576 c 0,46.743057 -0.70555,93.397904 -0.26458,140.052764 0.0882,12.52362 0.17639,25.04723 -0.26458,37.57084 0,0.35278 0.52916,0.35278 0.52916,0 0.88195,-22.57778 0.17639,-45.24375 0.17639,-67.82153 0.0882,-23.459714 0.17639,-46.919435 0.26459,-70.379157 0,-13.140974 0.0882,-26.281945 0.0882,-39.422917 0,-0.264584 -0.52917,-0.264584 -0.52917,0 z"
       id="path14222" />
    <path
       style="fill:#960000;fill-opacity:1;fill-rule:nonzero;stroke:none;stroke-width:0.264583"
       d="m 47.497451,189.54132 c 0,-45.86111 0,-91.810411 -0.44098,-137.67152 0,-6.70278 0.44098,-13.317364 0.26459,-19.931947 -0.17639,-6.526388 -0.61736,-13.052777 0.70555,-19.402777 0.0882,-0.352778 -0.44097,-0.529167 -0.52916,-0.176389 -0.97014,4.938889 -0.97014,10.054166 -0.79375,15.081249 0.0882,5.379863 0.0882,10.759723 -0.0882,16.139583 -0.26459,11.553474 0.17638,23.19514 0.17638,34.748613 0,23.283328 -0.0882,46.566658 0,69.849988 0.0882,13.75834 0.17639,27.60486 0.17639,41.3632 0,0.35277 0.52917,0.35277 0.52917,0 z"
       id="path14224" />
    <path
       style="fill:#960000;fill-opacity:1;fill-rule:nonzero;stroke:none;stroke-width:0.264583"
       d="m 170.26412,189.98229 c -0.44098,-46.65486 0.0882,-93.309714 0.17639,-140.05277 0,-12.170834 -0.17639,-24.341667 -0.17639,-36.5125 0,-0.264583 -0.52917,-0.264583 -0.52917,0 0,22.930556 0.17639,45.861113 0.0882,68.791666 -0.0882,23.283324 -0.26458,46.654854 -0.26458,69.938184 0,12.61181 0.0882,25.22361 0.17639,37.83542 0,0.35278 0.52917,0.35278 0.52917,0 z"
       id="path14226" />
    <path
       style="fill:#960000;fill-opacity:1;fill-rule:nonzero;stroke:none;stroke-width:0.264583"
       d="m 99.708561,11.300353 c -0.17639,46.831251 0,93.662487 0,140.581937 0,6.17361 0,12.34722 0,18.52083 0,3.175 0,6.26181 0,9.43681 0,2.91041 0.617359,6.43819 -0.61736,9.08403 -0.17639,0.35277 0.26458,0.61736 0.44097,0.26458 0.793749,-1.76389 0.793749,-3.52778 0.705549,-5.46806 -0.0882,-2.82222 0,-5.73264 0,-8.55486 0,-5.73264 0,-11.37708 0,-17.02153 0,-11.64166 0,-23.28333 0,-34.8368 0,-23.459717 -0.0882,-47.007631 -0.0882,-70.467353 0,-13.846528 0,-27.693056 0.0882,-41.539584 0,-0.352777 -0.529159,-0.352777 -0.529159,0 z"
       id="path14228" />
    <path
       style="fill:#960000;fill-opacity:1;fill-rule:nonzero;stroke:none;stroke-width:0.264583"
       d="m 65.136341,189.36493 c 0,-46.47847 -0.17639,-92.868744 -0.26459,-139.347214 -0.0882,-13.317363 -0.0882,-26.546529 -0.0882,-39.86389 0,-0.3527777 -0.52916,-0.3527777 -0.52916,0 0,46.478474 0.26458,92.868744 0.35277,139.259014 0,13.31737 0,26.63473 0,39.95209 0,0.35278 0.52917,0.35278 0.52917,0 z"
       id="path14230" />
    <path
       style="fill:#960000;fill-opacity:1;fill-rule:nonzero;stroke:none;stroke-width:0.264583"
       d="m 28.976611,11.82952 c -0.97014,5.203472 -0.44097,10.495139 -0.26458,15.874999 0.26458,5.379863 0.17639,10.759723 0.0882,16.139584 -0.17639,10.318751 -0.26458,20.549307 -0.17639,30.868056 0.17639,22.84236 0,45.772911 0,68.615271 0,8.37847 0,16.75694 0,25.13541 -0.0882,4.05695 -0.0882,8.0257 0,12.08264 0.0882,3.2632 0.0882,6.17361 -0.52917,9.43681 -0.0882,0.26458 0.44098,0.44097 0.44098,0.0882 0.88194,-3.96875 0.52916,-7.8493 0.52916,-11.99444 0,-5.37986 0.0882,-10.75972 0.0882,-16.13958 0,-11.1125 0,-22.13681 0,-33.24931 -0.0882,-22.75417 -0.17639,-45.508324 -0.0882,-68.174296 0,-7.672917 0.26459,-15.257638 0.26459,-22.842362 0.0882,-4.233333 0,-8.466666 -0.17639,-12.611805 -0.26459,-4.409722 -0.44098,-8.819445 0.26458,-13.140972 0.0882,-0.352778 -0.44097,-0.440973 -0.44097,-0.0882 z"
       id="path14232" />
    <path
       style="fill:#960000;fill-opacity:1;fill-rule:nonzero;stroke:none;stroke-width:0.264583"
       d="m 117.43564,189.45312 c 0,-11.28889 0.26459,-22.57778 0.17639,-33.86666 -0.0882,-11.55348 -0.52916,-23.10695 -0.44097,-34.66042 0.0882,-11.64167 0.35278,-23.283325 0.44097,-34.924991 0.0882,-10.67153 -0.0882,-21.254862 -0.17639,-31.926389 -0.17638,-7.849306 -0.17638,-15.786807 -0.26458,-23.724307 -0.0882,-3.792361 -0.0882,-7.584722 -0.0882,-11.377083 0,-1.411111 0,-2.910417 0,-4.321528 0.0882,-0.705555 -0.0882,-1.5875 0.17639,-2.204861 0.17638,-0.352778 -0.35278,-0.529166 -0.52917,-0.176389 -0.35278,1.058334 -0.17639,2.645834 -0.17639,3.792361 0,2.734028 0,5.468056 0,8.113889 0.0882,5.027084 0.0882,9.965973 0.17639,14.904861 0.26458,19.843751 0.52917,39.6875 0.17639,59.53125 -0.26459,15.257627 -0.52917,30.603467 -0.0882,45.861107 0.52917,14.99305 0.0882,29.98611 0.0882,44.97916 0,0.35278 0.52916,0.35278 0.52916,0 z"
       id="path14234" />
    <path
       style="fill:#960000;fill-opacity:1;fill-rule:nonzero;stroke:none;stroke-width:0.264583"
       d="m 189.93148,153.46979 c -3.88056,-0.61736 -7.76111,-0.44097 -11.64167,-0.26458 -4.40972,0.17638 -8.81944,0.26458 -13.22917,0.26458 -11.46527,0 -22.84236,0 -34.30763,-0.0882 -20.10834,-0.17638 -40.393059,-0.35277 -60.501399,0.0882 -4.58611,0.0882 -9.17222,0.26458 -13.67014,0 -5.90902,-0.35278 -11.72986,0.26458 -17.55069,0.17639 -8.64306,-0.0882 -17.19792,-0.17639 -25.75278,-0.17639 -0.35278,0 -0.35278,0.52917 0,0.52917 6.4382,0 12.96458,0.0882 19.40278,0.17638 2.73403,0 5.46806,0 8.20208,0 4.49792,0 8.99584,-0.52916 13.49375,-0.35277 6.87917,0.35277 13.67014,0.26458 20.46111,0.0882 9.70139,-0.17639 19.31459,-0.0882 28.927789,-0.0882 15.61041,0 31.22083,0.17639 46.83125,0.17639 7.23194,0 14.46388,0.17638 21.78402,0 5.73264,-0.17639 11.64167,-0.88195 17.37431,0 0.35278,0.0882 0.52917,-0.44098 0.17639,-0.52917 z"
       id="path14236" />
    <path
       style="fill:#960000;fill-opacity:1;fill-rule:nonzero;stroke:none;stroke-width:0.264583"
       d="m 187.28564,170.93229 c -20.81388,0.35278 -41.71597,-0.0882 -62.61805,0 -11.46528,0 -22.84236,0.44097 -34.307639,0.26458 -11.02431,-0.17639 -21.96042,-0.17639 -32.89653,-0.26458 -8.20208,0 -16.40417,0.61736 -24.60625,0.35278 -3.96875,-0.0882 -7.84931,-0.52917 -11.81806,-0.61736 -3.175,0 -6.2618,0.26458 -9.4368,0.26458 -0.35278,0 -0.35278,0.52917 0,0.52917 4.05694,0 8.02569,-0.35278 12.08264,-0.17639 5.37986,0.26458 10.67152,0.61736 16.05139,0.61736 5.29166,-0.0882 10.58333,-0.44097 15.875,-0.44097 5.20347,0 10.49513,0.17638 15.69861,0.0882 11.37708,-0.0882 22.75416,0.44097 34.131249,0.17639 11.37708,-0.26458 22.75417,-0.35278 34.13125,-0.26458 15.96319,0 31.83819,0.26458 47.71319,0 0.35278,0 0.35278,-0.52917 0,-0.52917 z"
       id="path14238" />
    <path
       style="fill:#960000;fill-opacity:1;fill-rule:nonzero;stroke:none;stroke-width:0.264583"
       d="m 188.16759,135.38993 c -22.48958,0.0882 -44.97917,0.26458 -67.38056,0.26458 -10.75972,0 -21.431249,-0.0882 -32.102779,-0.26458 -9.78958,-0.26459 -19.57916,-0.0882 -29.36875,0.0882 -15.875,0.26459 -31.75,0 -47.625,0.17639 -0.35278,0 -0.35278,0.52917 0,0.52917 11.28889,-0.0882 22.57778,0 33.95486,-0.0882 10.40695,0 20.81389,-0.35277 31.22084,-0.35277 10.49514,-0.0882 20.90208,0.35277 31.397219,0.44097 10.75972,0 21.51945,0 32.27917,0 15.875,-0.0882 31.75,-0.26459 47.625,-0.26459 0.26458,0 0.26458,-0.52916 0,-0.52916 z"
       id="path14240" />
    <path
       style="fill:#960000;fill-opacity:1;fill-rule:nonzero;stroke:none;stroke-width:0.264583"
       d="m 187.37384,117.83923 c -11.64167,0 -23.37153,0 -35.10139,0.17639 -11.46528,0.0882 -22.93056,-0.26458 -34.39583,-0.35278 -11.64167,-0.0882 -23.283339,0.26459 -34.925009,0.26459 -10.93611,0 -21.87222,0 -32.80833,0 -6.79097,0 -13.75833,0.44097 -20.54931,0 -3.0868,-0.26459 -6.17361,0 -9.34861,0 -1.5875,0 -3.0868,0.17639 -4.6743,0.0882 -1.41111,-0.17639 -2.73403,-0.17639 -4.14514,0.0882 -0.26459,0.0882 -0.17639,0.52916 0.17639,0.52916 2.46944,-0.44097 5.02708,-0.0882 7.40833,-0.17639 2.73403,-0.0882 5.46806,-0.17638 8.11389,-0.17638 2.55764,0 5.11528,0.26458 7.58472,0.26458 2.91042,0.0882 5.73264,0 8.55486,0 11.02431,-0.0882 22.04861,-0.0882 33.07292,-0.0882 11.55347,0 23.01875,-0.17638 34.572229,-0.26458 11.46527,-0.0882 23.01875,0.44097 34.48402,0.35278 14.02292,0 28.04584,-0.17639 41.98056,-0.17639 0.35278,0 0.35278,-0.52917 0,-0.52917 z"
       id="path14242" />
    <path
       style="fill:#960000;fill-opacity:1;fill-rule:nonzero;stroke:none;stroke-width:0.264583"
       d="m 188.43217,82.649659 c -2.11666,-0.440973 -4.23333,-0.08819 -6.43819,0.08819 -2.91042,0.264583 -5.82084,0 -8.73125,0 -5.82084,-0.176388 -11.55347,-0.176388 -17.37431,-0.08819 -11.72986,0.17639 -23.45972,0.264583 -35.18958,-0.08819 -11.37708,-0.440973 -22.754169,0 -34.131249,0.176388 -11.46528,0.264583 -22.93056,-0.176388 -34.48403,0 -8.37847,0.0882 -16.66875,-0.440971 -25.04723,-0.264584 -5.29166,0.0882 -10.49513,0.35278 -15.69861,0.35278 -0.35277,0 -0.35277,0.529166 0,0.529166 5.20348,0 10.40695,-0.264583 15.69861,-0.352779 8.55487,-0.176387 17.10973,0.352779 25.75278,0.264583 11.46528,-0.176387 23.01875,0.17639 34.48403,0 11.37708,-0.264583 22.754169,-0.61736 34.131249,-0.176387 11.28889,0.352777 22.48959,0.264583 33.77848,0.08819 5.55625,-0.08819 11.1125,-0.08819 16.66875,0 2.82222,0.08819 5.55625,0.176389 8.37847,0.176389 2.64583,0 5.37986,-0.705556 8.11389,-0.264583 0.35278,0.08819 0.44097,-0.440973 0.0882,-0.440973 z"
       id="path14244" />
    <path
       style="fill:#960000;fill-opacity:1;fill-rule:nonzero;stroke:none;stroke-width:0.264583"
       d="m 187.37384,48.077437 c -5.20347,-0.440971 -10.40695,-0.440971 -15.69861,-0.352777 -5.37986,0.08819 -10.84792,0 -16.31597,0.08819 -11.37709,0.0882 -22.66598,0.352779 -34.04306,0 -21.16667,-0.617361 -42.421529,0 -63.676389,-0.08819 -15.78681,-0.08819 -31.57361,-0.529167 -47.36042,0.264583 -0.26458,0 -0.26458,0.529167 0,0.529167 19.93195,-0.97014 39.7757,-0.17639 59.70764,-0.264583 10.49514,-0.08819 21.07847,-0.17639 31.661809,-0.17639 10.49514,0 20.99028,0.617363 31.57361,0.617363 9.43681,0 18.87361,-0.529167 28.31042,-0.35278 8.64305,0.0882 17.28611,-0.44097 25.84097,0.264584 0.35278,0.0882 0.35278,-0.440971 0,-0.529167 z"
       id="path14246" />
    <path
       style="fill:#960000;fill-opacity:1;fill-rule:nonzero;stroke:none;stroke-width:0.264583"
       d="m 187.90301,29.909382 c -5.46806,-0.440973 -11.02431,-0.264583 -16.49237,-0.0882 -5.73263,0.17639 -11.46527,0.264583 -17.19791,0.352779 -11.37709,0.176388 -22.84236,-0.264583 -34.30764,-0.176389 -5.64445,0 -11.2007,-0.17639 -16.84514,-0.08819 -5.644449,0.08819 -11.200699,0.176387 -16.845139,-0.0882 -5.55625,-0.264579 -11.02431,-0.352773 -16.58056,-0.176383 -5.29166,0.176387 -10.58333,0.529166 -15.7868,0.61736 -14.3757,0.17639 -28.75139,-0.61736 -43.03889,-0.705556 -0.35278,0 -0.35278,0.529166 0,0.529166 10.40694,0.0882 20.81389,0.529167 31.22083,0.617363 10.49514,0.08819 20.90208,-0.440973 31.39722,-0.617363 5.64445,-0.176387 11.28889,0.264584 16.93334,0.35278 5.55625,0.176387 11.112499,0 16.756939,0 5.55625,0 11.2007,0.08819 16.84514,0 5.73264,-0.0882 11.46528,0.264583 17.19792,0.352777 7.84931,0.08819 15.69861,-0.17639 23.45972,-0.264584 7.76111,-0.176389 15.52222,-0.705556 23.28334,-0.08819 0.35277,0 0.35277,-0.529167 0,-0.529167 z"
       id="path14248" />
    <path
       style="fill:#960000;fill-opacity:1;fill-rule:nonzero;stroke:none;stroke-width:0.264583"
       d="m 190.37245,100.02396 c -5.02708,0 -9.96597,0.61736 -15.08125,0.35277 -5.55625,-0.26458 -11.1125,-0.26458 -16.75694,0.0882 -5.73264,0.26458 -11.37709,0.52916 -17.10973,0.17639 -5.73264,-0.26459 -11.46527,-0.61736 -17.19791,-0.705557 -11.55348,0 -23.10695,0.793747 -34.660419,0.881947 -5.73264,0.0882 -11.46528,-0.26459 -17.19792,-0.17639 -5.64444,0 -11.37708,0.17639 -17.10972,-0.26459 -14.02292,-1.146514 -28.22223,1.6757 -42.24514,-0.35277 -0.35278,-0.0882 -0.44097,0.44097 -0.0882,0.52916 5.20347,0.70556 10.49514,0.70556 15.7868,0.52917 5.64445,-0.17639 11.28889,-0.17639 17.02153,-0.35278 5.73264,-0.17639 11.37708,0.44097 17.10972,0.44097 5.73264,0.0882 11.46528,-0.0882 17.10973,0.0882 11.55347,0.35278 23.018749,-0.26459 34.572219,-0.61736 5.73264,-0.17639 11.55347,-0.17639 17.28611,0 5.73264,0.17639 11.37708,0.79375 17.10972,0.70555 7.32014,-0.0882 14.46389,-0.88194 21.78403,-0.61736 3.26319,0.0882 6.52639,0.44097 9.78958,0.35278 3.2632,-0.0882 6.61459,-0.52917 9.87778,-0.52917 0.35278,0 0.35278,-0.52916 0,-0.52916 z"
       id="path14250" />
    <path
       style="fill:#960000;fill-opacity:1;fill-rule:nonzero;stroke:none;stroke-width:0.264583"
       d="m 186.4037,65.451742 c -22.57778,-0.08819 -45.24375,-0.08819 -67.82153,-0.176389 -11.64166,-0.08819 -23.195139,-0.176388 -34.748609,-0.176388 -11.2007,0.08819 -22.40139,0.440971 -33.60209,0.176388 -7.14375,-0.176388 -14.2875,-0.08819 -21.51944,0 -3.52778,0 -7.05556,-0.08819 -10.58333,-0.352776 -2.99862,-0.264584 -5.64445,0.440972 -8.6430597,0.705555 -0.35278,0.08819 -0.35278,0.61736 0,0.529167 2.0284697,-0.17639 3.9687497,-0.705557 5.9090297,-0.881946 2.64583,-0.176388 5.46805,0.352779 8.11389,0.440973 5.37986,0.176389 10.75972,0 16.13958,-0.08819 5.55625,-0.0882 11.1125,0.176387 16.58056,0.264583 5.64444,0 11.20069,0 16.75694,-0.0882 22.93056,-0.352777 45.772919,0 68.703479,0.0882 14.90486,0 29.80972,0.08819 44.71458,0.08819 0.35278,0 0.35278,-0.529167 0,-0.529167 z"
       id="path14252" />
    <path
       style="fill:#000000;fill-opacity:1;fill-rule:nonzero;stroke:none;stroke-width:0.264583"
       d="m 14.071751,11.653131 c -0.0882,-0.176389 0.79375,-1.499305 0.97014,-1.7638877 0.52917,-0.8819447 1.14653,-1.7638885 1.67569,-2.6458335 1.05834,-1.675694 2.29306,-3.263194 3.175,-4.938889 0.0882,-0.264583 0.17639,-0.529166 0.26459,-0.79375 0.0882,-0.08819 0.44097,0.79375 0.52916,0.970139 0.35278,1.058334 0.52917,2.116667 0.79375,3.086806 0.17639,0.970139 1.6757,6.0854152 0.88195,6.3499992 -0.61736,0.176388 -0.35278,1.234722 0.26458,0.970138 2.38125,-0.705555 0.35278,-4.9388872 0.0882,-6.6145822 -0.26458,-1.058333 -0.79374,-6.34999997 -2.82222,-5.90902694 -0.70555,0.08819 -0.88194,1.32291594 -1.14652,1.85208294 -0.79375,1.322917 -1.6757,2.557639 -2.46945,3.792361 -0.88194,1.322917 -1.85208,2.734028 -2.55764,4.1451382 -0.35277,0.529166 -0.88194,1.322916 -0.52916,2.028472 0.26458,0.617361 1.23472,0.08819 0.88194,-0.529167 z"
       id="path14254" />
    <path
       style="fill:#000000;fill-opacity:1;fill-rule:nonzero;stroke:none;stroke-width:0.264583"
       d="m 13.895361,11.123965 c 0.44097,-4.1451382 4.40972,-7.2319442 6.70278,-10.40694417 0.35278,-0.52916597 -0.52917,-1.058333 -0.88194,-0.52916597 -2.46945,3.35138894 -6.4382,6.52638894 -6.87917,10.93611014 -0.0882,0.617361 0.97014,0.617361 1.05833,0 z"
       id="path14256" />
    <path
       style="fill:#000000;fill-opacity:1;fill-rule:nonzero;stroke:none;stroke-width:0.264583"
       d="m 13.895361,8.8309098 c 0.61736,1.0583335 2.11667,0.9701385 3.175,0.7937495 1.85209,-0.2645827 3.52778,-0.8819435 5.37986,-1.2347215 0.61736,-0.08819 0.35278,-1.146528 -0.35277,-0.970139 -1.14653,0.176389 -2.29306,0.529167 -3.43959,0.79375 -0.79375,0.176389 -3.35139,0.9701388 -3.88055,0.08819 -0.35278,-0.529166 -1.23473,0 -0.88195,0.529167 z"
       id="path14258" />
    <path
       style="fill:#000000;fill-opacity:1;fill-rule:nonzero;stroke:none;stroke-width:0.264583"
       d="m 33.650921,2.6572988 c 0.35278,2.38125 0.70555,4.850695 1.5875,7.1437495 0.26458,0.6173607 1.32292,0.3527777 1.05833,-0.264583 -0.97014,-2.2930555 -1.32291,-4.7624995 -1.67569,-7.2319445 -0.0882,-0.617361 -1.14653,-0.352777 -0.97014,0.352778 z"
       id="path14260" />
    <path
       style="fill:#000000;fill-opacity:1;fill-rule:nonzero;stroke:none;stroke-width:0.264583"
       d="m 33.827311,3.2746598 c 0.97014,-0.529166 2.02847,-0.881944 3.0868,-1.322916 0.97014,-0.352778 2.55764,-1.05833397 3.70417,-0.881945 -0.17639,0 -0.0882,-0.08819 -0.35278,0.264584 -0.26458,0.264583 -0.52916,0.440972 -0.88194,0.705555 -0.61736,0.440972 -1.23472,0.79375 -1.94028,1.146528 -1.05833,0.617361 -2.20486,1.234722 -3.35139,1.5875 -0.61736,0.264583 -0.35278,1.234722 0.26458,1.058333 1.6757,-0.529166 3.2632,-1.499305 4.7625,-2.38125 0.79375,-0.440972 2.99862,-1.675694 2.38125,-2.91041597 -0.52916,-1.058334 -2.64583,-0.35277797 -3.43958,-0.08819 -1.5875,0.52916697 -3.26319,1.14652797 -4.7625,1.94027797 -0.61736,0.352778 -0.0882,1.234722 0.52917,0.881944 z"
       id="path14262" />
    <path
       style="fill:#000000;fill-opacity:1;fill-rule:nonzero;stroke:none;stroke-width:0.264583"
       d="m 35.767591,4.8621598 c 1.5875,-0.881944 6.43819,-0.970139 5.73263,1.852084 -0.44097,2.116666 -4.7625,2.3812498 -6.43819,2.3812498 -0.70556,0 -0.70556,1.0583324 0,1.0583324 2.55764,0 7.67292,-0.6173607 7.58472,-4.0569432 -0.0882,-3.351389 -5.37986,-3.351389 -7.40833,-2.204862 -0.52917,0.352778 0,1.234723 0.52917,0.970139 z"
       id="path14264" />
    <path
       style="fill:#000000;fill-opacity:1;fill-rule:nonzero;stroke:none;stroke-width:0.264583"
       d="m 34.356471,4.9503548 c 1.41112,-0.440972 2.91042,-0.440972 4.32153,-0.352778 0.79375,0.08819 1.5875,0.176389 2.20486,0.529167 0.97014,0.529166 0.26459,1.499305 -0.17639,2.028472 -0.44097,0.529167 0.26459,1.322917 0.70556,0.79375 1.41111,-1.675695 1.32292,-3.351389 -0.79375,-4.056945 -1.85208,-0.705555 -4.58611,-0.617361 -6.52639,0.0882 -0.61736,0.176389 -0.35278,1.234722 0.26458,0.970139 z"
       id="path14266" />
    <path
       style="fill:#000000;fill-opacity:1;fill-rule:nonzero;stroke:none;stroke-width:0.264583"
       d="m 35.855781,9.8892433 c 1.85208,0.9701377 3.52778,-0.176389 4.85069,-1.4993055 0.52917,-0.529167 -0.26458,-1.234722 -0.70555,-0.79375 -0.97014,0.970139 -2.29306,2.1166665 -3.61597,1.322917 -0.61736,-0.264584 -1.14653,0.6173605 -0.52917,0.9701385 z"
       id="path14268" />
    <path
       style="fill:#000000;fill-opacity:1;fill-rule:nonzero;stroke:none;stroke-width:0.264583"
       d="m 33.386341,1.3343828 c 0.52916,2.822222 2.11666,5.291666 2.20486,8.2020825 0,0.7055547 1.05833,0.7055547 1.05833,0 -0.0882,-2.9986105 -1.67569,-5.5562495 -2.29306,-8.4666665 -0.0882,-0.70555494 -1.14652,-0.44097197 -0.97013,0.264584 z"
       id="path14270" />
    <path
       style="fill:#000000;fill-opacity:1;fill-rule:nonzero;stroke:none;stroke-width:0.264583"
       d="m 58.698141,2.3927158 c -1.76389,-0.79375 -3.61597,-0.881945 -5.20347,0.440972 -1.49931,1.234722 -1.76389,3.704167 -1.14653,5.379861 1.14653,3.5277772 6.26181,1.3229165 8.29028,0 0.52917,-0.352778 0,-1.234722 -0.52917,-0.881944 -1.5875,0.970139 -4.58611,2.6458325 -6.2618,1.234722 -1.23473,-0.881944 -0.79375,-3.175 -0.17639,-4.321528 0.88194,-1.675694 2.99861,-1.5875 4.49791,-0.970139 0.61737,0.264584 1.14653,-0.617361 0.52917,-0.881944 z"
       id="path14272" />
    <path
       style="fill:#000000;fill-opacity:1;fill-rule:nonzero;stroke:none;stroke-width:0.264583"
       d="m 57.904391,1.6871598 c -3.0868,-2.38124997 -6.43819,1.763889 -6.70278,4.674306 -0.35277,3.7041662 5.11528,5.5562492 7.76111,3.7923602 0.52917,-0.4409717 0,-1.3229162 -0.52916,-0.9701384 -2.11667,1.4993044 -5.82084,0.08819 -6.17361,-2.5576388 -0.26459,-2.38125 2.91041,-5.73263897 5.11527,-4.056944 0.52917,0.440972 1.05834,-0.529167 0.52917,-0.881945 z"
       id="path14274" />
    <path
       style="fill:#000000;fill-opacity:1;fill-rule:nonzero;stroke:none;stroke-width:0.264583"
       d="m 58.521751,9.7128543 c 0.52917,-0.2645837 1.05834,-0.6173607 1.32292,-1.2347215 0.17639,-0.264584 0.0882,-0.529167 -0.17639,-0.705556 -0.26458,-0.08819 -0.61736,-0.08819 -0.70556,0.176389 -0.0882,0.176389 -0.17638,0.352778 -0.35277,0.440972 -0.0882,0.08819 -0.0882,0.08819 -0.17639,0.176389 -0.0882,0 -0.0882,0.08819 -0.17639,0.08819 -0.17639,0.08819 0.0882,0 -0.0882,0 -0.26458,0.08819 -0.44097,0.3527778 -0.35278,0.7055558 0.0882,0.2645827 0.44097,0.4409717 0.70556,0.3527767 z"
       id="path14276" />
    <path
       style="fill:#000000;fill-opacity:1;fill-rule:nonzero;stroke:none;stroke-width:0.264583"
       d="m 68.752311,1.2461878 c 0.97014,3.439583 2.20486,6.879167 2.55764,10.4951382 0.0882,0.705555 1.05833,0.705555 1.05833,0 0,-0.176389 0,-0.440973 0,-0.705556 0,-0.617361 -1.05833,-0.617361 -1.05833,0 0,0.264583 0,0.529167 0,0.705556 0.35277,0 0.70555,0 1.05833,0 -0.35278,-3.7041662 -1.5875,-7.2319432 -2.55764,-10.84791617 -0.17639,-0.61736097 -1.23472,-0.352777 -1.05833,0.35277797 z"
       id="path14278" />
    <path
       style="fill:#000000;fill-opacity:1;fill-rule:nonzero;stroke:none;stroke-width:0.264583"
       d="m 68.752311,1.5107708 c 2.46944,-1.05833294 5.37986,1.234723 6.17361,3.527778 0.52917,1.763889 -2.38125,5.4680542 -4.32153,4.9388885 -0.70555,-0.176389 -0.97014,0.7937497 -0.26458,0.9701387 2.64583,0.79375 5.90903,-3.1749992 5.64444,-5.6444432 -0.35278,-3.351389 -4.7625,-5.99722297 -7.76111,-4.67430597 -0.61736,0.264583 -0.0882,1.14652797 0.52917,0.88194397 z"
       id="path14280" />
    <path
       style="fill:#000000;fill-opacity:1;fill-rule:nonzero;stroke:none;stroke-width:0.264583"
       d="m 70.075221,1.6871598 c 2.20487,-0.264583 4.23334,1.940278 5.11528,3.615973 1.49931,2.822222 -2.29305,3.527777 -3.70416,5.0270822 -0.44098,0.529166 0.26458,1.234722 0.79375,0.79375 1.05833,-1.2347217 2.73402,-1.4993057 3.79236,-2.7340272 0.70555,-0.881944 0.61736,-2.116667 0.26458,-3.086805 -0.79375,-2.293056 -3.70417,-4.93888894 -6.26181,-4.67430597 -0.61736,0.08819 -0.61736,1.14652797 0,1.05833297 z"
       id="path14282" />
    <path
       style="fill:#000000;fill-opacity:1;fill-rule:nonzero;stroke:none;stroke-width:0.264583"
       d="m 85.244671,1.5107708 c 0,2.469445 0.52917,4.938889 2.38125,6.702778 1.85208,1.7638885 4.58611,1.4993055 6.87917,0.617361 0.61736,-0.176389 0.35277,-1.234722 -0.35278,-0.970139 -1.94028,0.79375 -4.05695,0.970139 -5.73264,-0.440972 -1.76389,-1.322916 -2.11667,-3.792361 -2.11667,-5.909028 0,-0.61736097 -1.05833,-0.61736097 -1.05833,0 z"
       id="path14284" />
    <path
       style="fill:#000000;fill-opacity:1;fill-rule:nonzero;stroke:none;stroke-width:0.264583"
       d="m 86.214811,5.3031328 c 1.94028,-0.970139 4.32153,0.529166 6.35,0.264583 0.70555,-0.08819 0.70555,-1.146528 0,-1.058333 -2.29306,0.352777 -4.58611,-1.234723 -6.87917,-0.176389 -0.61736,0.352777 -0.0882,1.234722 0.52917,0.970139 z"
       id="path14286" />
    <path
       style="fill:#000000;fill-opacity:1;fill-rule:nonzero;stroke:none;stroke-width:0.264583"
       d="m 84.539111,2.3927158 c 3.35139,0.176389 6.70278,0.08819 10.05417,-0.352778 0.70556,-0.08819 0.35278,-1.14652797 -0.26458,-0.970139 -3.2632,0.440972 -6.52639,0.440972 -9.78959,0.264584 -0.61736,0 -0.61736,1.058333 0,1.058333 z"
       id="path14288" />
    <path
       style="fill:#000000;fill-opacity:1;fill-rule:nonzero;stroke:none;stroke-width:0.264583"
       d="m 85.509251,3.2746598 c 3.43959,-0.08819 6.79097,-0.529166 10.14236,-1.499305 0.61736,-0.176389 0.35278,-1.14652797 -0.26458,-0.97013897 -3.26319,0.88194397 -6.52639,1.32291697 -9.87778,1.41111097 -0.70555,0 -0.70555,1.058333 0,1.058333 z"
       id="path14290" />
    <path
       style="fill:#000000;fill-opacity:1;fill-rule:nonzero;stroke:none;stroke-width:0.264583"
       d="m 103.41273,2.1281328 c -0.17639,2.028472 0.61736,4.409722 1.41111,6.173611 0.52917,1.3229155 1.4993,3.6159712 3.26319,3.2631932 0.70556,-0.08819 0.44098,-1.146528 -0.26458,-0.970139 -1.23472,0.176389 -2.29306,-3.3513882 -2.55764,-4.0569432 -0.44097,-1.411111 -0.88194,-2.998611 -0.79375,-4.409722 0.0882,-0.705556 -0.97014,-0.705556 -1.05833,0 z"
       id="path14292" />
    <path
       style="fill:#000000;fill-opacity:1;fill-rule:nonzero;stroke:none;stroke-width:0.264583"
       d="m 103.05995,3.0100768 c 2.99861,-0.79375 6.96736,-1.146528 9.96597,0 -0.0882,-0.352778 -0.0882,-0.705556 -0.17639,-0.970139 -0.17639,0.08819 -0.35277,0.08819 -0.52916,0.176389 -0.70556,0.08819 -0.44098,1.146528 0.26458,0.970139 0.35278,0 0.52917,-0.08819 0.79375,-0.264583 0.52917,-0.176389 0.26458,-0.79375 -0.0882,-0.970139 -3.175,-1.14652797 -7.32014,-0.79375 -10.49514,0 -0.70556,0.176389 -0.44098,1.234722 0.26458,1.058333 z"
       id="path14294" />
    <path
       style="fill:#000000;fill-opacity:1;fill-rule:nonzero;stroke:none;stroke-width:0.264583"
       d="m 102.2662,3.1864658 c 3.52778,-0.881945 7.23194,-0.705556 10.84792,-0.970139 0.70555,-0.08819 0.70555,-1.146528 0,-1.058333 -3.70417,0.352777 -7.49653,0.08819 -11.2007,1.058333 -0.61736,0.176389 -0.35278,1.146528 0.35278,0.970139 z"
       id="path14296" />
    <path
       style="fill:#000000;fill-opacity:1;fill-rule:nonzero;stroke:none;stroke-width:0.264583"
       d="m 104.29467,5.4795208 c -0.0882,0 -0.26458,0 -0.44097,0 -0.26458,0 -0.52917,0.264584 -0.52917,0.529167 0,1.058333 1.94028,1.146528 2.64584,1.146528 1.67569,-0.08819 3.35139,-0.705556 4.93889,-1.146528 0.70555,-0.176389 0.44097,-1.146528 -0.26459,-0.970139 -0.97014,0.264584 -1.94028,0.529167 -2.91041,0.79375 -0.70556,0.176389 -1.41112,0.264584 -2.11667,0.264584 -0.26458,0 -0.52917,-0.0882 -0.79375,-0.0882 -0.61736,-0.176389 -0.44097,-0.176389 -0.44097,0 -0.17639,0.176389 -0.35278,0.352778 -0.52917,0.529166 0.17639,0 0.35278,0 0.44097,0 0.70556,0 0.70556,-1.058333 0,-1.058333 z"
       id="path14298" />
    <path
       style="fill:#000000;fill-opacity:1;fill-rule:nonzero;stroke:none;stroke-width:0.264583"
       d="m 132.4287,3.2746598 c -1.94028,-5.55625 -10.31875,-1.146527 -10.58333,3.351389 -0.26459,5.2034712 9.17222,3.3513885 11.20069,0.79375 0.44097,-0.529166 -0.26458,-1.234722 -0.70555,-0.705555 -1.5875,1.852083 -7.67292,3.5277762 -9.26042,0.881944 -1.85208,-2.998611 6.61458,-8.907639 8.29028,-4.056944 0.26458,0.705555 1.23472,0.352777 1.05833,-0.264584 z"
       id="path14300" />
    <path
       style="fill:#000000;fill-opacity:1;fill-rule:nonzero;stroke:none;stroke-width:0.264583"
       d="m 127.84259,6.5378548 c 1.85208,-0.352778 3.79236,-0.176389 5.73264,-0.352778 -0.0882,-0.352778 -0.17639,-0.617361 -0.26459,-0.970139 -1.05833,0.617361 -1.94027,1.322917 -2.73402,2.293056 -0.35278,0.529166 0.35277,1.322916 0.79375,0.79375 0.70555,-0.970139 1.4993,-1.5875 2.46944,-2.204861 0.44097,-0.264584 0.35278,-1.058334 -0.26458,-0.970139 -2.02847,0.176389 -4.05695,0.08819 -6.08542,0.352777 -0.61736,0.08819 -0.35278,1.146528 0.35278,1.058334 z"
       id="path14302" />
    <path
       style="fill:#000000;fill-opacity:1;fill-rule:nonzero;stroke:none;stroke-width:0.264583"
       d="m 127.13703,6.4496598 c 1.85209,1.058334 4.23334,0.352778 5.99723,-0.264583 -0.0882,-0.352778 -0.26459,-0.705556 -0.35278,-0.970139 -0.17639,0.08819 -0.35278,0.08819 -0.44097,0.176389 -0.70556,0.176389 -0.44098,1.146528 0.26458,0.970139 0.26458,0 0.44097,-0.08819 0.70555,-0.264583 0.52917,-0.264584 0.17639,-1.146528 -0.44097,-0.970139 -1.4993,0.529166 -3.61597,1.322916 -5.20347,0.440972 -0.52917,-0.352778 -1.05833,0.529167 -0.52917,0.881944 z"
       id="path14304" />
    <path
       style="fill:#000000;fill-opacity:1;fill-rule:nonzero;stroke:none;stroke-width:0.264583"
       d="m 123.69745,8.3017438 c -2.46944,-0.705556 -0.52917,-2.734028 0.61736,-3.792361 1.14653,-1.058334 2.82222,-2.38125 4.40972,-2.734028 0.70556,-0.08819 0.35278,-1.14652797 -0.26458,-0.97013897 -2.73403,0.52916697 -10.84792,6.87916697 -5.02708,8.55486077 0.61736,0.1763887 0.88194,-0.8819438 0.26458,-1.0583328 z"
       id="path14306" />
    <path
       style="fill:#000000;fill-opacity:1;fill-rule:nonzero;stroke:none;stroke-width:0.264583"
       d="m 122.81551,7.5961878 c -2.29306,-2.469444 5.55625,-4.586111 7.05555,-5.203472 0.61736,-0.264583 0.35278,-1.234722 -0.26458,-0.970139 -2.29306,0.881944 -11.02431,3.086806 -7.58472,6.967361 0.44097,0.529167 1.23472,-0.264583 0.79375,-0.79375 z"
       id="path14308" />
    <path
       style="fill:#000000;fill-opacity:1;fill-rule:nonzero;stroke:none;stroke-width:0.264583"
       d="m 140.54259,1.0697988 c -1.32292,2.910417 -0.0882,6.085417 -0.61736,9.1722212 0.35278,0 0.70555,0.0882 1.05833,0.0882 0,-0.0882 0,-0.264583 0,-0.4409717 0,-0.7055557 -1.05833,-0.7055557 -1.05833,0 0,0.1763887 0,0.3527767 0,0.4409717 0,0.617361 0.88194,0.79375 0.97014,0.176388 0.52916,-2.9104152 -0.61736,-6.1736092 0.61736,-8.9076372 0.26458,-0.61736097 -0.70556,-1.14652794 -0.97014,-0.529167 z"
       id="path14310" />
    <path
       style="fill:#000000;fill-opacity:1;fill-rule:nonzero;stroke:none;stroke-width:0.264583"
       d="m 148.48009,1.5107708 c 0.0882,2.910417 0.88194,5.820834 0.35278,8.7312492 0.35277,0 0.70555,0.0882 1.05833,0.0882 0,-0.176389 0,-0.3527777 0,-0.5291667 0,-0.7055547 -1.05833,-0.7055547 -1.05833,0 0,0.176389 0,0.3527777 0,0.5291667 0,0.617361 0.97014,0.79375 1.05833,0.176388 0.44097,-2.9986092 -0.26458,-5.9972202 -0.35278,-8.9958322 0,-0.70555497 -1.05833,-0.70555497 -1.05833,0 z"
       id="path14312" />
    <path
       style="fill:#000000;fill-opacity:1;fill-rule:nonzero;stroke:none;stroke-width:0.264583"
       d="m 140.27801,6.8024378 c 0.88194,0.352778 2.20486,-0.08819 3.0868,-0.176389 1.85208,-0.176389 3.88056,-0.617361 5.73264,-0.705555 0.70556,0 0.70556,-1.058334 0,-1.058334 -1.67569,0.08819 -3.43958,0.529167 -5.11528,0.617361 -0.97014,0.08819 -2.46944,0.617362 -3.43958,0.264584 -0.61736,-0.176389 -0.88195,0.79375 -0.26458,1.058333 z"
       id="path14314" />
    <path
       style="fill:#000000;fill-opacity:1;fill-rule:nonzero;stroke:none;stroke-width:0.264583"
       d="m 140.89537,6.9788268 c 2.91041,-0.176389 5.82083,-0.08819 8.64305,-0.881944 0.61736,-0.176389 0.35278,-1.234723 -0.35278,-1.058334 -2.64583,0.79375 -5.46805,0.705556 -8.29027,0.881945 -0.70556,0.08819 -0.70556,1.146527 0,1.058333 z"
       id="path14316" />
    <path
       style="fill:#000000;fill-opacity:1;fill-rule:nonzero;stroke:none;stroke-width:0.264583"
       d="m 158.00509,2.2163268 c 1.14653,-0.617361 2.73403,-0.264583 3.96875,-0.176389 1.23472,0.08819 2.46944,0.264583 3.61597,0 0.70556,-0.08819 0.44097,-1.14652797 -0.26458,-0.970139 -2.46945,0.440972 -5.55625,-1.05833294 -7.84931,0.264584 -0.61736,0.352777 -0.0882,1.234722 0.52917,0.881944 z"
       id="path14318" />
    <path
       style="fill:#000000;fill-opacity:1;fill-rule:nonzero;stroke:none;stroke-width:0.264583"
       d="m 158.26967,2.6572988 c 1.41111,0 2.73403,0 4.14514,0.176389 0.61736,0.176389 0.97014,-0.881944 0.26458,-0.970139 -1.4993,-0.264583 -2.91041,-0.264583 -4.40972,-0.264583 -0.61736,0 -0.61736,1.058333 0,1.058333 z"
       id="path14320" />
    <path
       style="fill:#000000;fill-opacity:1;fill-rule:nonzero;stroke:none;stroke-width:0.264583"
       d="m 161.62106,10.594798 c 0.0882,-3.0868042 -0.79375,-6.1736102 -0.79375,-9.2604152 0,-0.70555597 -1.05833,-0.70555597 -1.05833,0 0,3.086805 0.88194,6.173611 0.79375,9.2604152 0,0.705555 1.05833,0.705555 1.05833,0 z"
       id="path14322" />
    <path
       style="fill:#000000;fill-opacity:1;fill-rule:nonzero;stroke:none;stroke-width:0.264583"
       d="m 158.18148,11.123965 c 2.82222,-0.970139 5.99722,-0.352778 8.90764,-0.440973 0.70555,-0.08819 0.70555,-1.1465267 0,-1.0583327 -2.99861,0.08819 -6.26181,-0.5291657 -9.17223,0.4409727 -0.61736,0.264583 -0.35277,1.234721 0.26459,1.058333 z"
       id="path14324" />
    <path
       style="fill:#000000;fill-opacity:1;fill-rule:nonzero;stroke:none;stroke-width:0.264583"
       d="m 157.21134,11.388548 c 2.91042,-0.176389 5.73264,-0.176389 8.64305,-0.529167 0.61737,-0.08819 0.61737,-1.1465267 0,-1.0583327 -2.91041,0.3527777 -5.73263,0.3527777 -8.64305,0.5291667 -0.61736,0 -0.61736,1.058333 0,1.058333 z"
       id="path14326" />
    <path
       style="fill:#000000;fill-opacity:1;fill-rule:nonzero;stroke:none;stroke-width:0.264583"
       d="m 175.2912,2.7454938 c 3.61597,-0.617361 7.40833,0.08819 11.1125,-0.352778 0.70556,0 0.70556,-1.058333 0,-1.058333 -3.79236,0.440972 -7.67292,-0.264584 -11.46528,0.440972 -0.61736,0.08819 -0.35278,1.058333 0.35278,0.970139 z"
       id="path14328" />
    <path
       style="fill:#000000;fill-opacity:1;fill-rule:nonzero;stroke:none;stroke-width:0.264583"
       d="m 182.61134,3.1864658 c 3.0868,0.705555 -0.52917,6.5263885 -2.11667,7.4083322 -0.61736,0.352778 -0.0882,1.234722 0.52917,0.970139 2.29305,-1.322917 6.2618,-8.3784712 1.85208,-9.3486102 -0.61736,-0.176389 -0.88194,0.881944 -0.26458,0.970139 z"
       id="path14330" />
    <path
       style="fill:#000000;fill-opacity:1;fill-rule:nonzero;stroke:none;stroke-width:0.264583"
       d="m 182.34676,3.1864658 c 2.82222,1.940278 -0.26459,7.4083322 -3.08681,7.6729152 -0.70556,0.0882 -0.70556,1.146528 0,1.058334 3.88056,-0.352778 7.32014,-6.9673602 3.61597,-9.7013882 -0.52916,-0.352778 -1.05833,0.529167 -0.52916,0.970139 z"
       id="path14332" />
    <path
       style="fill:#000000;fill-opacity:1;fill-rule:nonzero;stroke:none;stroke-width:0.264583"
       d="m 174.67384,9.0954936 c 2.02847,2.9104154 6.52639,4.8506934 8.81944,1.1465264 0.35278,-0.5291657 -0.61736,-1.0583324 -0.97014,-0.5291657 -1.85208,2.9104157 -5.37986,1.0583327 -6.96736,-1.1465275 -0.35277,-0.529167 -1.32291,0 -0.88194,0.5291668 z"
       id="path14334" />
    <path
       style="fill:#000000;fill-opacity:1;fill-rule:nonzero;stroke:none;stroke-width:0.264583"
       d="m 175.02662,8.2135488 c 0.35277,2.8222212 4.49791,3.4395822 6.61458,2.2930542 0.52917,-0.352777 0,-1.3229154 -0.52917,-0.9701377 -1.32291,0.7055547 -4.7625,0.6173607 -5.02708,-1.3229165 -0.0882,-0.617361 -1.14653,-0.617361 -1.05833,0 z"
       id="path14336" />
    <path
       style="fill:#000000;fill-opacity:1;fill-rule:nonzero;stroke:none;stroke-width:0.264583"
       d="m 176.17314,1.9517438 c -0.17638,0 -0.35277,0 -0.44097,0 -0.61736,0 -0.70555,0.881944 -0.17639,1.058333 3.88056,1.058333 7.32014,-0.881944 11.1125,-1.322917 0.61736,-0.08819 0.61736,-1.14652697 0,-1.05833297 -3.61597,0.44097197 -7.14375,2.29305597 -10.84791,1.32291697 0,0.352777 -0.0882,0.705555 -0.0882,1.058333 0.0882,0 0.26459,0 0.44097,0 0.70556,0 0.70556,-1.058333 0,-1.058333 z"
       id="path14338" />
    <path
       style="fill:#000000;fill-opacity:1;fill-rule:nonzero;stroke:none;stroke-width:0.264583"
       d="m 6.2224513,18.444103 c 1.05833,-1.763888 1.85208,-3.880555 3.175,-5.468055 -0.35278,0 -0.61737,0 -0.88195,-0.08819 1.05833,1.940278 1.05833,4.233334 1.23472,6.35 0.0882,1.499306 -0.0882,3.263195 0.7055597,4.674306 0.35278,0.617361 1.32292,0.08819 0.97014,-0.529167 -0.88195,-1.49931 -0.61736,-4.056949 -0.79375,-5.732644 -0.0882,-1.852083 -0.35278,-3.615972 -1.1465297,-5.291666 -0.17639,-0.264584 -0.61736,-0.352778 -0.88194,-0.08819 -1.32292,1.675695 -2.20487,3.792361 -3.2632,5.644445 -0.35278,0.617361 0.52917,1.146528 0.88195,0.529166 z"
       id="path14340" />
    <path
       style="fill:#000000;fill-opacity:1;fill-rule:nonzero;stroke:none;stroke-width:0.264583"
       d="M 11.425921,25.499659 C 10.191201,22.14827 9.9266113,18.532298 9.9266113,15.00452 c -0.0882,-0.705555 -1.14653,-0.705555 -1.05833,0 0,3.527778 0.26458,7.408333 1.4992997,10.759722 0.26459,0.617361 1.23473,0.352778 1.05834,-0.264583 z"
       id="path14342" />
    <path
       style="fill:#000000;fill-opacity:1;fill-rule:nonzero;stroke:none;stroke-width:0.264583"
       d="m 11.866891,25.764242 c -0.61736,-0.79375 -0.61736,-1.852083 -0.79375,-2.822222 -0.17639,-1.322917 -0.35278,-2.645833 -0.52917,-3.96875 -0.26458,-2.204861 -0.44097,-4.409722 -0.44097,-6.614583 0,-0.705556 -1.0583297,-0.705556 -1.0583297,0 0,2.734028 0.26458,5.291666 0.61736,8.025694 0.26458,1.852084 0.17639,4.409722 1.3229197,5.997222 0.35277,0.529166 1.32291,0 0.88194,-0.617361 z"
       id="path14344" />
    <path
       style="fill:#000000;fill-opacity:1;fill-rule:nonzero;stroke:none;stroke-width:0.264583"
       d="m 3.2238313,51.957993 c 1.05834,-1.234723 3.43959,-1.763889 4.93889,-1.322916 1.41111,0.264583 0.70556,1.852083 0.35278,2.734027 -0.35278,0.617362 -0.79375,1.234723 -1.23472,1.852083 -0.17639,0.264583 -0.44097,0.529167 -0.70556,0.705556 -0.0882,0.08819 -0.17639,0.17639 -0.26458,0.264584 -0.35278,0.08819 -0.35278,0.264583 0.0882,0.440973 0.26459,-0.617363 -0.61736,-1.14653 -0.88194,-0.529167 -0.26458,0.352777 -0.44097,1.146527 0.17639,1.234721 0.79375,0.176389 1.41111,-0.352777 1.94028,-0.881944 1.23472,-1.322917 2.8222197,-3.527777 2.3812497,-5.468056 -0.7055597,-2.998611 -6.2618097,-1.322917 -7.4965297,0.264583 -0.44097,0.440973 0.26458,1.234723 0.70555,0.705556 z"
       id="path14352" />
    <path
       style="fill:#000000;fill-opacity:1;fill-rule:nonzero;stroke:none;stroke-width:0.264583"
       d="m 6.9280013,55.573966 c 1.41111,-0.264583 2.64583,0.529167 2.73403,1.940277 0,0.97014 -0.70556,1.852084 -1.14653,2.55764 -0.44097,0.61736 -0.88194,1.146527 -1.41111,1.5875 -0.35278,0.352777 -0.79375,0.61736 -1.14653,0.881944 -1.4993,0.79375 -1.05833,-1.146527 -0.97014,-1.411111 0.17639,-0.705556 -0.79375,-0.970139 -0.97014,-0.264583 -0.26458,0.970137 -0.44097,2.99861 1.14653,2.910417 1.6757,-0.0882 2.91042,-1.499307 3.88056,-2.645834 1.1465297,-1.411112 2.1166597,-3.175 1.4111097,-4.938889 C 9.8384213,54.69202 8.0745313,54.25105 6.6634213,54.515633 c -0.61736,0.176387 -0.35278,1.234721 0.26458,1.058333 z"
       id="path14354" />
    <path
       style="fill:#000000;fill-opacity:1;fill-rule:nonzero;stroke:none;stroke-width:0.264583"
       d="m 6.7516113,54.427437 c 2.11667,0.705556 4.5861097,1.322917 3.7923597,4.233333 -0.26458,0.97014 -0.9701397,1.94028 -1.5874997,2.822223 -0.26458,0.264584 -2.29305,2.028473 -2.73402,1.146527 -0.26459,-0.61736 -1.14653,-0.08819 -0.88195,0.529167 0.44097,1.058333 1.6757,0.705556 2.55764,0.352779 1.49931,-0.529166 2.5576397,-2.116666 3.1749997,-3.439583 0.79375,-1.5875 1.05833,-3.086806 0.0882,-4.497917 -0.88194,-1.322916 -2.7340197,-1.675696 -4.1451297,-2.204862 -0.61737,-0.176388 -0.88195,0.79375 -0.26459,1.058333 z"
       id="path14356" />
    <path
       style="fill:#000000;fill-opacity:1;fill-rule:nonzero;stroke:none;stroke-width:0.264583"
       d="m 9.8384213,84.325353 c -0.97014,0 -1.94028,0.0882 -2.82222,0.264583 -1.05834,0.264583 -1.94028,1.058333 -2.99862,1.322917 -0.35277,0.0882 -0.44097,0.529166 -0.26458,0.79375 0.61736,1.411112 0.17639,2.998612 0,4.409723 -0.0882,0.61736 0.97014,0.79375 1.05833,0.176389 0.0882,-0.264583 0.0882,-0.529166 0.0882,-0.79375 0.17639,-0.617362 -0.88195,-0.970139 -0.97014,-0.264583 -0.0882,0.264583 -0.0882,0.529167 -0.0882,0.79375 0.26458,0 0.61736,0.08819 0.97013,0.08819 0.26459,-1.67569 0.61737,-3.351386 -0.17638,-4.938886 -0.0882,0.264583 -0.17639,0.529167 -0.26459,0.79375 0.61736,-0.176387 1.23472,-0.529167 1.85209,-0.881944 1.14652,-0.61736 2.38125,-0.705556 3.61597,-0.705556 0.7055497,0 0.7055497,-1.058333 0,-1.058333 z"
       id="path14364" />
    <path
       style="fill:#000000;fill-opacity:1;fill-rule:nonzero;stroke:none;stroke-width:0.264583"
       d="m 4.0175813,91.292715 c 0.70556,-1.852083 4.23334,-1.940279 5.20348,-0.264583 0.7937497,1.322917 -0.79375,3.263194 -1.5875,4.233333 -0.44098,0.617361 -0.97014,1.234721 -1.49931,1.763888 -0.26458,0.176389 -0.52917,0.440973 -0.79375,0.617362 -0.0882,0.08819 -0.17639,0.08819 -0.26458,0.08819 -0.35278,0.08819 -0.35278,0.17639 -0.0882,0.352777 0.26459,-0.617356 -0.61736,-1.146523 -0.88194,-0.529163 -0.26458,0.617363 -0.35278,1.14653 0.35278,1.411117 0.70555,0.26458 1.67569,-0.529171 2.11666,-0.970144 1.76389,-1.499306 3.8805597,-3.96875 3.8805597,-6.35 0,-3.79236 -6.2618097,-3.527777 -7.4965297,-0.61736 -0.26458,0.61736 0.79375,0.881944 1.05833,0.264583 z"
       id="path14366" />
    <path
       style="fill:#000000;fill-opacity:1;fill-rule:nonzero;stroke:none;stroke-width:0.264583"
       d="m 4.7231413,90.587159 c 0.44097,-1.499306 3.96875,-2.38125 4.40972,-0.529167 0.35278,1.234723 -0.88194,2.822223 -1.67569,3.704167 -0.61736,0.881944 -1.32292,1.675694 -1.94028,2.55764 -0.35278,0.529166 0.61736,1.058333 0.97014,0.529166 1.23472,-1.940279 5.6444397,-5.820833 2.99861,-8.202083 -1.5875,-1.499306 -5.20347,-0.440973 -5.73264,1.675694 -0.17639,0.61736 0.88195,0.881943 0.97014,0.264583 z"
       id="path14368" />
    <path
       style="fill:#000000;fill-opacity:1;fill-rule:nonzero;stroke:none;stroke-width:0.264583"
       d="m 3.4002213,86.353826 c 0,1.146527 0.0882,2.293056 0.0882,3.351389 0,1.234721 -0.44097,2.38125 -0.52917,3.615971 0,0.705556 1.05833,0.705556 1.05833,0 0.0882,-1.058333 0.44098,-2.028471 0.52917,-3.086804 0.17639,-1.322917 -0.0882,-2.55764 -0.0882,-3.880556 -0.0882,-0.617361 -1.14653,-0.617361 -1.05834,0 z"
       id="path14370" />
    <path
       style="fill:#000000;fill-opacity:1;fill-rule:nonzero;stroke:none;stroke-width:0.264583"
       d="m 2.6946713,121.27882 c 3.43958,0.26458 6.87916,0.61736 10.0541597,-0.97014 -0.26458,-0.17639 -0.52916,-0.44097 -0.79375,-0.61736 -0.17638,1.14652 -0.0882,2.29305 -0.17638,3.43958 -0.17639,1.23472 -0.97014,2.29306 -1.6757,3.26319 -1.2347197,1.6757 -2.8222197,4.40973 -5.1152797,4.23334 -0.70555,-0.0882 -0.70555,0.97014 0,1.05833 2.46945,0.26458 3.88056,-1.94028 5.2034797,-3.70417 0.88194,-1.14652 1.67569,-2.20486 2.20486,-3.43958 0.61736,-1.4993 0.35277,-2.99861 0.61736,-4.58611 0.0882,-0.44097 -0.35278,-0.79375 -0.79375,-0.61736 -2.9986097,1.5875 -6.2618097,1.14653 -9.5249997,0.88194 -0.61736,0 -0.61736,1.05834 0,1.05834 z"
       id="path14380" />
    <path
       style="fill:#000000;fill-opacity:1;fill-rule:nonzero;stroke:none;stroke-width:0.264583"
       d="m 11.073141,120.83784 c 0.79375,2.55764 -0.61736,5.20348 -2.0284697,7.40834 -0.44097,0.70555 -0.88195,1.41111 -1.32292,2.11666 -0.26458,0.26459 -0.44097,0.52917 -0.61736,0.79375 -0.44097,0.70556 -0.52917,0.35278 0,0.52917 -0.70556,-0.17639 -0.97014,0.79375 -0.26458,0.97014 0.97014,0.35278 2.55764,-2.99861 2.99861,-3.61597 1.5874997,-2.46945 3.1749997,-5.55625 2.2048597,-8.55486 -0.17639,-0.61736 -1.23472,-0.35278 -0.97014,0.35277 z"
       id="path14382" />
    <path
       style="fill:#000000;fill-opacity:1;fill-rule:nonzero;stroke:none;stroke-width:0.264583"
       d="m 7.7217513,138.12396 c -1.4993,-1.85209 -3.79236,-1.5875 -5.02708,0.35277 -1.05834,1.76389 -0.17639,3.79236 1.41111,4.67431 1.5875,0.88194 7.5847197,1.94028 5.20347,4.85069 -0.52917,0.79375 -5.20347,2.29306 -4.7625,0.44098 0.17639,-1.23473 1.5875,-2.29306 2.46945,-3.08681 0.44097,-0.44097 -0.26459,-1.23472 -0.79375,-0.70556 -0.88195,0.88195 -3.88056,3.35139 -2.55764,4.8507 1.67569,1.85208 5.37986,0.61736 6.7027697,-1.05833 1.5875,-1.94028 -0.5291597,-4.23334 -2.3812497,-4.93889 -1.32291,-0.52917 -2.82222,-0.79375 -3.96875,-1.6757 -2.11666,-1.67569 0.79375,-5.64444 2.91042,-2.91041 0.44097,0.52916 1.14653,-0.26459 0.79375,-0.79375 z"
       id="path14384" />
    <path
       style="fill:#000000;fill-opacity:1;fill-rule:nonzero;stroke:none;stroke-width:0.264583"
       d="m 7.1043913,138.21215 c 0.0882,4.32153 -1.05833,9.525 -3.96875,12.87639 0.35278,0.0882 0.61736,0.17639 0.88194,0.26458 -0.17638,-0.44097 -0.17638,-0.88194 -0.17638,-1.32291 0,-0.61737 -1.05834,-0.61737 -1.05834,0 0,0.61736 0.0882,1.05833 0.26459,1.5875 0.0882,0.35277 0.61736,0.52916 0.88194,0.26458 3.08681,-3.61597 4.32153,-9.08403 4.23333,-13.67014 0,-0.70556 -1.05833,-0.70556 -1.05833,0 z"
       id="path14386" />
    <path
       style="fill:#000000;fill-opacity:1;fill-rule:nonzero;stroke:none;stroke-width:0.264583"
       d="m 6.6634213,138.38854 c -0.44097,4.05694 -1.05834,8.29028 -3.2632,11.72986 -0.26458,0.52917 0.44098,1.14653 0.88195,0.70556 0.26458,-0.35278 0.35278,-0.44098 0.44097,-0.88195 0.26458,-0.61736 -0.70556,-0.88194 -0.97014,-0.26458 -0.0882,0.0882 -0.17639,0.26458 -0.26458,0.35278 0.35278,0.26458 0.61736,0.44097 0.88194,0.61736 2.20486,-3.61598 2.91042,-8.0257 3.35139,-12.25903 0.0882,-0.61736 -0.97014,-0.61736 -1.05833,0 z"
       id="path14388" />
    <path
       style="fill:#000000;fill-opacity:1;fill-rule:nonzero;stroke:none;stroke-width:0.264583"
       d="m 9.6620313,155.58646 c -3.61597,-2.99862 -7.32014,1.85208 -6.4382,5.55625 0.44098,1.85208 2.38125,2.82222 4.14514,2.20486 1.76389,-0.61736 2.9986097,-2.38125 2.8222297,-4.23334 -0.0882,-0.70555 -1.1465297,-0.70555 -1.0583397,0 0.17639,2.73403 -3.79236,5.02709 -4.85069,1.76389 -0.88195,-2.64583 1.94028,-6.70278 4.6743,-4.58611 0.52917,0.44097 1.2347297,-0.26458 0.70556,-0.70555 z"
       id="path14390" />
    <path
       style="fill:#000000;fill-opacity:1;fill-rule:nonzero;stroke:none;stroke-width:0.264583"
       d="m 8.9564713,155.49826 c 1.5874997,0.88195 0.0882,4.93889 -0.26458,6.26181 -0.26458,0.88194 -0.61736,1.67569 -0.88194,2.55764 -0.17639,0.44097 -0.35278,0.88194 -0.52917,1.32291 -0.0882,0.26459 -0.17639,0.44097 -0.35278,0.70556 -0.0882,0.0882 -0.0882,0.26458 -0.17639,0.35278 -0.44097,0.79375 -0.97014,0.70555 -1.76389,-0.17639 0.0882,-0.61736 -0.88194,-0.97014 -0.97014,-0.26459 -0.26458,1.32292 0.79375,3.08681 2.38125,2.11667 1.49931,-0.88194 2.02848,-2.64583 2.55764,-4.14514 0.79375,-2.11667 3.3513897,-8.20208 0.52917,-9.70139 -0.61736,-0.35278 -1.14653,0.61736 -0.52917,0.97014 z"
       id="path14392" />
    <path
       style="fill:#000000;fill-opacity:1;fill-rule:nonzero;stroke:none;stroke-width:0.264583"
       d="m 8.5155013,155.67465 c 0,2.02847 0.97014,3.79236 0.97014,5.82083 0,2.55764 -2.02847,4.40973 -3.88056,5.90903 0.35278,0.17639 0.61737,0.26458 0.97014,0.44097 0,-0.26458 0,-0.44097 0,-0.61736 0,-0.70555 -1.05833,-0.70555 -1.05833,0 0,0.17639 0,0.35278 0,0.61736 0,0.44098 0.52917,0.61736 0.88194,0.35278 1.6757,-1.41111 3.175,-2.91042 3.8805597,-5.02708 0.79375,-2.64584 -0.7055597,-4.93889 -0.7055597,-7.49653 0,-0.61736 -1.05833,-0.61736 -1.05833,0 z"
       id="path14394" />
  </g>
</svg>
