<?xml version="1.0" encoding="UTF-8" standalone="no"?>
<svg
   xmlns:dc="http://purl.org/dc/elements/1.1/"
   xmlns:cc="http://creativecommons.org/ns#"
   xmlns:rdf="http://www.w3.org/1999/02/22-rdf-syntax-ns#"
   xmlns:svg="http://www.w3.org/2000/svg"
   xmlns="http://www.w3.org/2000/svg"
   xmlns:sodipodi="http://sodipodi.sourceforge.net/DTD/sodipodi-0.dtd"
   xmlns:inkscape="http://www.inkscape.org/namespaces/inkscape"
   inkscape:version="1.0 (4035a4fb49, 2020-05-01)"
   sodipodi:docname="board4.svg"
   id="svg14713"
   viewBox="0 0 200 200"
   version="1.1"
   height="200mm"
   width="200mm">
  <metadata
     id="metadata14719">
    <rdf:RDF>
      <cc:Work
         rdf:about="">
        <dc:format>image/svg+xml</dc:format>
        <dc:type
           rdf:resource="http://purl.org/dc/dcmitype/StillImage" />
        <dc:title></dc:title>
      </cc:Work>
    </rdf:RDF>
  </metadata>
  <defs
     id="defs14717" />
  <sodipodi:namedview
     inkscape:current-layer="svg14713"
     inkscape:window-maximized="0"
     inkscape:window-y="348"
     inkscape:window-x="2353"
     inkscape:cy="390.29407"
     inkscape:cx="427.26608"
     inkscape:zoom="0.97234375"
     showgrid="false"
     id="namedview14715"
     inkscape:window-height="1368"
     inkscape:window-width="1278"
     inkscape:pageshadow="2"
     inkscape:pageopacity="0"
     guidetolerance="10"
     gridtolerance="10"
     objecttolerance="10"
     borderopacity="1"
     bordercolor="#666666"
     pagecolor="#ffffff" />
  <g
     id="g14711">
    <g
       id="g14549"
       fill="#960000">
      <path
         id="path14513"
         d="m12.464 29.778c8.3785 0.08819 16.669-0.44097 24.959-0.35278 10.848 0.08819 21.784 0.61736 32.72 0.52917 11.553 0 23.019-0.44097 34.572-0.35278h35.013c16.228 0.0882 32.456 0.17639 48.595 0.17639 0.35278 0 0.35278-0.52917 0-0.52917-22.754 0-45.508-0.17639-68.262-0.17639-11.642 0-23.283-0.08819-34.837 0.0882-11.201 0.08819-22.313 0.26458-33.514 0-7.4083-0.17639-14.905-0.35278-22.313-0.17639-5.6444 0.08819-11.289 0.35278-16.933 0.26458-0.26458 0-0.26458 0.52917 0 0.52917z" />
      <path
         id="path14515"
         d="m10.347 47.064c4.9389 0.88195 9.966 0.70556 14.905 0.44097 5.468-0.26458 10.936-0.26458 16.404-0.26458 11.553-0.08819 23.195-0.26458 34.749-0.17639 11.642 0.17639 23.283 0.44097 34.925 0.52917 8.9958 0.0882 18.08 0 27.164-0.08819 16.581-0.08819 33.161 0.08819 49.653 0.08819 0.35278 0 0.35278-0.52917 0-0.52917-17.374 0-34.837-0.17639-52.211-0.08819-21.519 0.17639-42.951-0.35278-64.382-0.44097-10.407-0.08819-20.902 0.0882-31.309 0.17639-5.0271 0-9.966 0-14.993 0.26458-4.9389 0.26458-9.8778 0.52916-14.817-0.44098-0.35278-0.08819-0.44097 0.44097-0.0882 0.52917z" />
      <path
         id="path14517"
         d="m10.523 64.703c46.743 0 93.398 0.70556 140.05 0.26458 12.524-0.08819 25.047-0.26458 37.571 0.26458 0.35278 0 0.35278-0.52917 0-0.52917-22.578-0.88194-45.244-0.17639-67.822-0.17639-23.46-0.08819-46.919-0.17639-70.379-0.26458-13.141-0.08819-26.282-0.08819-39.423-0.08819-0.35278 0-0.35278 0.52917 0 0.52917z" />
      <path
         id="path14519"
         d="m188.15 82.166c-45.861 0-91.722 0-137.67 0.35278-6.6146 0.0882-13.229-0.35278-19.932-0.17639-6.4382 0.17639-12.965 0.61736-19.403-0.70556-0.35278-0.08819-0.44097 0.44097-0.0882 0.52917 4.9389 0.97014 9.966 0.97014 14.993 0.79375 5.3799-0.08819 10.76-0.08819 16.14 0.08819 11.553 0.26458 23.195-0.17639 34.837-0.17639h69.762c13.847-0.0882 27.605-0.17639 41.363-0.17639 0.35278 0 0.35278-0.52917 0-0.52917z" />
      <path
         id="path14521"
         d="m188.15 99.628c-46.655 0.44098-93.398-0.0882-140.05-0.17639-12.171 0-24.342 0.17639-36.512 0.17639-0.35278 0-0.35278 0.52918 0 0.52918 22.931 0 45.861-0.1764 68.792-0.0882 23.283 0.17639 46.567 0.26457 69.938 0.26457 12.612 0 25.224-0.0882 37.835-0.17638 0.35278 0 0.35278-0.52916 0-0.52916z" />
      <path
         id="path14523"
         d="m10.347 117.97c46.919 0.17639 93.751 0 140.58 0h18.521 9.525c2.9104 0 6.4382-0.61736 9.084 0.70554 0.26458 0.0882 0.52917-0.35276 0.26458-0.52915-1.7639-0.79375-3.5278-0.79375-5.468-0.70556-2.9104 0.0882-5.7326 0-8.6431 0h-17.022-34.837c-23.46 0-46.919 0.0882-70.379 0.0882-13.847 0-27.781 0-41.628-0.0882-0.35278 0-0.35278 0.52917 0 0.52917z" />
      <path
         id="path14525"
         d="m187.97 134.91c-46.39 0-92.869 0.17639-139.35 0.26457-13.229 0.0882-26.547 0.0882-39.864 0.0882-0.35278 0-0.35278 0.52917 0 0.52917 46.478 0 92.869-0.17639 139.35-0.35278h39.864c0.35278 0 0.35278-0.52916 0-0.52916z" />
      <path
         id="path14527"
         d="m9.9943 152.55c5.2035 0.88193 10.495 0.44096 15.875 0.17639 5.3799-0.17639 10.76-0.0882 16.14 0 10.319 0.17639 20.549 0.17639 30.868 0.0882 22.842-0.0882 45.773 0.0882 68.615 0.0882h25.135c4.0569 0 8.0257 0.0882 12.083 0 3.175-0.0882 6.1736-0.0882 9.4368 0.52915 0.26459 0.0882 0.44098-0.44096 0.0882-0.52915-4.057-0.79375-7.8493-0.52917-11.994-0.52917h-16.14-33.249c-22.754 0-45.508 0.0882-68.174 0.0882-7.6729 0-15.258-0.35278-22.931-0.35278-4.1451 0-8.3785 0-12.524 0.26458-4.4097 0.17639-8.8194 0.44097-13.141-0.35278-0.35277-0.0882-0.44097 0.44098-0.0882 0.52917z" />
      <path
         id="path14529"
         d="m187.97 170.18c-11.289 0-22.578-0.26458-33.867-0.17639-11.553 0.0882-23.107 0.61736-34.66 0.52917-11.642-0.0882-23.283-0.44098-34.837-0.52917-10.672-0.0882-21.343 0.0882-32.015 0.26458-7.8493 0.0882-15.787 0.0882-23.636 0.17639-3.7924 0.0882-7.5847 0.0882-11.377 0.0882h-4.4097c-0.61736 0-1.5875 0.0882-2.2049-0.17639-0.35278-0.0882-0.44097 0.35278-0.17639 0.52916 1.1465 0.35278 2.734 0.17639 3.8806 0.17639h8.1139c4.9389 0 9.8778-0.0882 14.905-0.17639 19.756-0.26458 39.599-0.44097 59.443-0.17638 15.346 0.26458 30.603 0.61736 45.949 0.0882 14.993-0.52917 29.986-0.0882 44.891-0.0882 0.35278 0 0.35278-0.52917 0-0.52917z" />
      <path
         id="path14531"
         d="m170.51 11.787c-0.61736 3.7924-0.44097 7.7611-0.35277 11.642 0.17639 4.4097 0.26458 8.8194 0.26458 13.229 0 11.377 0 22.842-0.0882 34.219-0.17639 20.197-0.35278 40.393 0.0882 60.59 0.17639 4.5861 0.35278 9.1722 0.0882 13.67-0.35277 5.909 0.17639 11.73 0.0882 17.551 0 8.5548-0.17639 17.198-0.17639 25.753 0 0.35278 0.52917 0.35278 0.52917 0 0-6.5264 0.0882-12.965 0.17639-19.491v-8.1139c0-4.4979-0.44098-8.9958-0.26459-13.494 0.26459-6.8792 0.17639-13.67 0-20.549-0.17639-9.6132-0.0882-19.226-0.0882-28.84 0-15.61 0.17639-31.221 0.17639-46.831 0.0882-7.2319 0.17639-14.552 0-21.784-0.17639-5.7326-0.88195-11.73 0-17.374 0.0882-0.35278-0.44098-0.52917-0.44098-0.17639z" />
      <path
         id="path14533"
         d="m152.78 12.492c0.35278 20.902-0.17639 41.804-0.0882 62.618 0.0882 11.465 0.52916 22.931 0.35277 34.396-0.17638 10.936-0.17638 21.96-0.26458 32.897-0.0882 8.2021 0.52917 16.404 0.35278 24.606-0.17639 3.8806-0.61736 7.8493-0.61736 11.818 0 3.0868 0.26458 6.2618 0.26458 9.3486 0 0.35277 0.52917 0.35277 0.52917 0 0-3.9688-0.35278-8.0257-0.17639-11.994 0.26458-5.3799 0.61736-10.76 0.52917-16.14 0-5.2917-0.35278-10.495-0.35278-15.787 0-5.2917 0.17639-10.495 0.0882-15.787-0.0882-11.377 0.35278-22.754 0.0882-34.131-0.26459-11.377-0.26459-22.754-0.26459-34.131 0.0882-15.875 0.35278-31.838 0.0882-47.713-0.0882-0.35278-0.61736-0.35278-0.52917 0z" />
      <path
         id="path14535"
         d="m134.97 11.434c0 22.49 0.26459 44.979 0.26459 67.381 0 10.672-0.0882 21.431-0.35278 32.103-0.17639 9.7896 0 19.491 0.17639 29.281 0.17639 15.875 0 31.838 0.17639 47.713 0 0.35278 0.52916 0.35278 0.52916 0-0.0882-11.289 0-22.666-0.0882-33.955 0-10.407-0.35278-20.814-0.35278-31.221-0.0882-10.495 0.35278-20.99 0.44097-31.397v-32.367c-0.0882-15.787-0.26458-31.662-0.26458-47.537 0-0.35278-0.52917-0.35278-0.52917 0z" />
      <path
         id="path14537"
         d="m117.42 12.14c0 11.73 0 23.46 0.17639 35.19 0.0882 11.465-0.26459 22.931-0.35278 34.396-0.0882 11.642 0.26458 23.283 0.26458 34.925v32.808c0 6.791 0.44098 13.67 0 20.461-0.26458 3.175 0 6.2618 0 9.4368 0 1.4993 0.17639 3.0868 0.0882 4.6743-0.17639 1.3229-0.17639 2.734 0.0882 4.0569 0.0882 0.35278 0.52917 0.26458 0.52917-0.0882-0.44097-2.4694-0.0882-5.0271-0.17639-7.4965-0.0882-2.6458-0.17639-5.3799-0.17639-8.0257 0-2.5576 0.26458-5.1153 0.26458-7.6729v-8.5549c-0.0882-11.024-0.0882-22.049-0.0882-32.985 0-11.553-0.17639-23.019-0.26458-34.572-0.0882-11.465 0.44097-23.019 0.35277-34.572 0-13.935-0.17638-27.958-0.17638-41.981 0-0.26458-0.52917-0.26458-0.52917 0z" />
      <path
         id="path14539"
         d="m99.864 11.081c-0.44097 2.2049-0.0882 4.3215 0.0882 6.4382 0.26458 2.9104 0 5.909 0 8.8194-0.17639 5.8208-0.17639 11.553-0.0882 17.374 0.17639 11.73 0.26458 23.46-0.0882 35.19-0.44097 11.377 0 22.754 0.17639 34.131 0.26458 11.465-0.0882 22.931 0 34.484 0.0882 8.3785-0.44097 16.669-0.26459 25.047 0.0882 5.2035 0.35278 10.495 0.35278 15.699 0 0.35278 0.52917 0.35278 0.52917 0 0-5.2035-0.26458-10.495-0.35278-15.699-0.17639-8.5549 0.35278-17.198 0.26458-25.753-0.17638-11.553 0.26459-23.019 0-34.484-0.26458-11.377-0.61736-22.754-0.17639-34.131 0.44097-11.289 0.26458-22.578 0.0882-33.778 0-5.5562-0.0882-11.112 0-16.669 0.0882-2.8222 0.17639-5.5562 0.17639-8.3785 0-2.734-0.70555-5.4681-0.17639-8.1139 0-0.35278-0.52916-0.44097-0.52916-0.17639z" />
      <path
         id="path14541"
         d="m82.49 11.963c-0.44097 5.2035-0.44097 10.407-0.35278 15.699 0.0882 5.3799 0 10.848 0 16.316 0.0882 11.377 0.44098 22.666 0.0882 34.043-0.70555 21.255 0 42.422-0.0882 63.676-0.0882 15.787-0.52916 31.574 0.17639 47.36 0.0882 0.35278 0.61736 0.35278 0.52917 0-0.97014-19.932-0.0882-39.776-0.17639-59.708-0.0882-10.495-0.26458-21.078-0.17639-31.662 0-10.495 0.52917-20.99 0.52917-31.574 0.0882-9.4368-0.44097-18.874-0.35278-28.31 0.17639-8.6431-0.35278-17.198 0.35278-25.841 0-0.35278-0.52917-0.35278-0.52917 0z" />
      <path
         id="path14543"
         d="m64.41 11.699c-0.44097 5.4681-0.26458 10.936-0.0882 16.492 0.17639 5.7326 0.26459 11.465 0.35278 17.11 0.17639 11.465-0.26458 22.931-0.17639 34.308 0 5.6444-0.0882 11.289-0.0882 16.933 0.0882 5.6444 0.17639 11.201-0.0882 16.845-0.17639 5.5562-0.35278 11.024-0.17639 16.581 0.17639 5.2917 0.52917 10.495 0.61736 15.787 0.17639 14.376-0.61736 28.663-0.70555 43.039 0 0.35277 0.52917 0.35277 0.52917 0 0.0882-10.407 0.52916-20.814 0.70555-31.309 0.0882-10.495-0.52917-20.902-0.70555-31.309-0.0882-5.6444 0.26458-11.289 0.44097-16.933 0.0882-5.5562-0.0882-11.201-0.0882-16.757 0-5.6444 0.17639-11.201 0-16.845-0.0882-5.7326 0.26458-11.465 0.35278-17.198 0.0882-7.8493-0.0882-15.699-0.26459-23.548-0.17639-7.6729-0.70555-15.434-0.0882-23.195 0-0.35278-0.52917-0.35278-0.52917 0z" />
      <path
         id="path14545"
         d="m46.419 11.522c0 5.0271 0.61737 10.054 0.35278 15.081-0.17639 5.6444-0.17639 11.201 0.0882 16.845 0.26459 5.6444 0.52917 11.377 0.26459 17.022-0.35278 5.7326-0.70556 11.465-0.70556 17.286 0 11.465 0.70556 23.019 0.79375 34.572 0.0882 5.7326-0.17639 11.465-0.17639 17.198 0 5.7326 0.17639 11.377-0.26458 17.11-1.1465 14.023 1.6757 28.31-0.35278 42.245 0 0.35278 0.44097 0.52917 0.52917 0.17639 0.79375-5.2917 0.70555-10.495 0.52917-15.787-0.0882-5.6444-0.17639-11.377-0.35278-17.022-0.17639-5.7326 0.44097-11.465 0.52916-17.198 0-5.7326-0.17638-11.377 0-17.11 0.44098-11.465-0.26458-23.019-0.61736-34.484-0.0882-5.8208-0.17639-11.553 0-17.374 0.17639-5.7326 0.79375-11.377 0.70556-17.11-0.0882-7.2319-0.79375-14.464-0.61736-21.696 0.0882-3.2632 0.44097-6.5264 0.35278-9.7896-0.0882-3.3514-0.52917-6.6146-0.52917-9.966 0-0.35278-0.52917-0.35278-0.52917 0z" />
      <path
         id="path14547"
         d="m29.309 11.522c-0.0882 22.666-0.17639 45.244-0.26458 67.91 0 11.553-0.17639 23.107-0.0882 34.66 0.0882 11.201 0.35278 22.401 0.0882 33.602-0.17639 7.1438 0 14.376 0 21.519 0.0882 3.5278 0 7.0556-0.35278 10.583-0.17639 2.9986 0.44097 5.6444 0.79375 8.6431 0 0.35278 0.52917 0.35278 0.52917 0-0.17639-1.9403-0.70556-3.8806-0.88195-5.909-0.26458-2.6458 0.35278-5.468 0.44098-8.1139 0.17638-5.3799-0.0882-10.76-0.17639-16.14 0-5.5562 0.26458-11.112 0.26458-16.581 0.0882-5.5562 0-11.201-0.0882-16.757-0.26458-22.842 0-45.773 0.0882-68.703 0.0882-14.905 0.0882-29.81 0.17639-44.715 0-0.35278-0.52917-0.35278-0.52917 0z" />
    </g>
    <g
       id="g14709">
      <path
         id="path14551"
         d="m8.6714 15.138c-0.0882 3.4396-1.6757 7.2319-0.44097 10.583 0.26458 0.61736 1.3229 0.35278 1.0583-0.26458-1.2347-3.2632 0.35278-6.9674 0.44098-10.319 0.0882-0.70556-0.97014-0.70556-1.0583 0z" />
      <path
         id="path14553"
         d="m5.761 17.96c1.5875-1.0583 3.616-2.2049 4.5861-3.9688 0.26458-0.44097-0.26459-0.97014-0.70556-0.70556-0.0882 0-0.17639 0.08819-0.26458 0.08819-0.61736 0.26459-0.35278 1.3229 0.35278 1.0583 0.17639-0.08819 0.26458-0.17639 0.44097-0.26458-0.26458-0.26458-0.44097-0.44097-0.70556-0.70556-0.88194 1.5875-2.8222 2.6458-4.2333 3.616-0.52917 0.35278 0 1.2347 0.52917 0.88194z" />
      <path
         id="path14555"
         d="m8.7596 26.603c-0.97014-3.4396 0.61736-6.9674 0.70555-10.407 0-0.70556-1.0583-0.70556-1.0583 0-0.0882 3.616-1.6757 7.1438-0.70556 10.76 0.17639 0.61736 1.2347 0.35278 1.0583-0.35278z" />
      <path
         id="path14557"
         d="m9.1124 27.044c0-0.35278 0-0.70556 0.0882-1.0583 0-0.35278-0.0882-0.61736-0.35278-0.70556-0.26458-0.0882-0.61736 0.08819-0.70555 0.35278-0.0882 0.52917-0.0882 0.97014-0.0882 1.4111 0 0.70555 1.0583 0.70555 1.0583 0z" />
      <path
         id="path14559"
         d="m3.2033 39.215c-0.61736-0.44097 0.79375-2.5576 1.0583-2.9104 0.61736-0.97014 1.5875-2.2049 2.734-2.5576 1.8521-0.52917 0.44097 4.7625 0.26458 5.4681-0.79375 2.3812-1.6757 5.3799-3.4396 7.2319-0.44097 0.44097 0.0882 1.0583 0.61736 0.79375 1.5875-0.70556 3.2632-0.70556 5.0271-0.88194 0.52917 0 1.3229 0 1.6757-0.52917 0.26458-0.52917-0.44097-1.0583-0.88195-0.61736 0 0-0.0882 0-0.0882 0.0882-0.52917 0.35278 0 1.2347 0.52916 0.88194 0.0882-0.08819 0.26459-0.17639 0.35278-0.26458-0.26458-0.17639-0.52916-0.44098-0.88194-0.61736-0.0882 0.26458-3.175 0.26458-3.616 0.26458-0.97014 0.17639-1.7639 0.44097-2.6458 0.79375 0.17639 0.26458 0.44098 0.52917 0.61736 0.79375 1.2347-1.1465 1.7639-2.6458 2.3812-4.1451 0.61737-1.9403 1.4993-3.7042 1.9403-5.6444 0.35278-1.4111 0.44097-4.8507-1.7639-4.6743-2.1167 0.17639-6.8792 5.7326-4.4097 7.4083 0.52917 0.44097 1.0583-0.52917 0.52917-0.88194z" />
      <path
         id="path14561"
         d="m3.9971 35.423c0.79375-1.2347 2.9104-3.3514 3.7042-0.88194 0.26459 1.1465-0.17638 2.4694-0.44097 3.5278-0.35278 1.4111-0.70555 2.8222-1.1465 4.1451-0.44097 1.2347-1.0583 2.2049-1.6757 3.3514-0.35278 0.61736 0.52917 1.1465 0.88194 0.52917 0.44098-0.70556 0.88195-1.1465 1.1465-1.8521 0.52917-1.1465 0.88195-2.2931 1.2347-3.5278 0.52917-1.8521 1.2347-3.8806 1.0583-5.909-0.0882-1.3229-0.88195-2.3812-2.2931-2.5576-1.4111-0.17639-2.734 1.5875-3.3514 2.6458-0.35277 0.61736 0.52917 1.1465 0.88195 0.52917z" />
      <path
         id="path14563"
         d="m4.1735 52.003c0.0882 0.08819 0.44097-0.26458 0.61736-0.35278 0.44097-0.26458 0.97014-0.35278 1.4111-0.52917 0.35278-0.0882 1.9403-0.61736 1.8521 0.17639-0.0882 0.88195-0.97014 1.6757-1.5875 2.2049-0.52916 0.52917-1.1465 1.1465-1.7639 1.5875 0.17639 0.26458 0.44098 0.52917 0.61736 0.79375 0.17639-0.17639 0.35278-0.35278 0.52917-0.44097 0.52917-0.35278 0-1.2347-0.52917-0.88194-0.26458 0.17639-0.52916 0.35278-0.70555 0.61736-0.35278 0.44097 0.0882 1.2347 0.61736 0.79375 1.2347-0.88194 5.2035-3.8806 3.5278-5.7326-1.1465-1.2347-6.6146 0.52917-5.4681 2.2931 0.35278 0.61736 1.2347 0.08819 0.88195-0.52917z" />
      <path
         id="path14565"
         d="m5.761 55.619c0.79375-1.5875 3.175-1.4111 3.616 0.17639 0.44097 1.2347-0.0882 2.6458-0.61736 3.7042-0.61736 1.3229-1.6757 2.4694-2.8222 3.3514-0.44098 0.35278-1.5875 1.0583-1.9403 0.35278-0.0882-0.35278-0.35278-0.52917-0.61736-0.61736-0.61736-0.26458-1.1465 0.61736-0.52917 0.88194 0.52917 0.26458 0.52917 0.88195 1.2347 1.0583 0.97014 0.17639 2.0285-0.44097 2.734-0.97014 1.6757-1.2347 2.9986-3.3514 3.5278-5.2917 0.44097-1.3229 0.35278-3.5278-0.97014-4.4097-1.4111-0.79375-3.7924-0.35278-4.4979 1.2347-0.26458 0.61736 0.61736 1.1465 0.88195 0.52917z" />
      <path
         id="path14567"
         d="m8.2304 68.496c-2.1167 1.9403-4.4097 4.2333-4.8507 7.1438 0 0.44097 0.26458 0.70556 0.70555 0.70556 1.3229-0.17639 2.4694-0.97014 3.8806-1.3229 0.70555-0.17639 1.5875 0 2.2931-0.44097 0.61736-0.35278 0.0882-1.2347-0.52916-0.88194-0.61736 0.35278-1.7639 0.17639-2.5576 0.35278-1.1465 0.35278-2.1167 1.0583-3.4396 1.2347 0.26459 0.26458 0.44098 0.44097 0.70556 0.70556 0.35278-2.8222 2.5576-4.9389 4.4979-6.791 0.52916-0.44097-0.26459-1.1465-0.70556-0.70556z" />
      <path
         id="path14569"
         d="m8.4068 68.672c-0.0882 3.7924 0.17639 7.5847 0.17639 11.377 0 0.35278 0.44097 0.70556 0.79375 0.44097 0.17639-0.0882 0.26458-0.17639 0.35278-0.44097 0.26458-0.61736-0.61736-1.1465-0.88195-0.52917v0.08819c0.26459 0.17639 0.52917 0.26458 0.79375 0.44097 0-3.7924-0.26458-7.5847-0.17639-11.377 0-0.70556-1.0583-0.70556-1.0583 0z" />
      <path
         id="path14571"
         d="m9.4651 85.605c-1.1465-0.61736-3.7924-1.4993-4.8507-0.17639-0.52917 0.70555-0.52917 1.4111-0.61736 2.293 0 1.4111-0.17639 2.8222-0.35278 4.2333-0.0882 0.44097 0.61736 0.70555 0.88194 0.35277 1.1465-1.2347 2.9986-2.293 4.7625-2.293-0.17638-0.17639-0.35277-0.35278-0.52916-0.52917-0.0882 1.6757-1.3229 2.9986-2.2931 4.2333-1.2347 1.6757-2.2049 3.5278-3.4396 5.2035 0.26458 0.0882 0.61736 0.26458 0.88194 0.35278 0-0.0882 0.0882-0.26459 0.0882-0.35278 0.44097-0.52917-0.26459-1.2347-0.70556-0.70556-0.35278 0.35278-0.44097 0.52917-0.44097 1.0583 0 0.44097 0.61736 0.79376 0.88194 0.35277 1.3229-1.6757 2.3812-3.616 3.7042-5.2917 1.0583-1.4993 2.2931-2.9986 2.3812-4.8507 0-0.26458-0.26458-0.52916-0.52917-0.52916-2.0285 0-4.1451 1.1465-5.468 2.6458 0.26458 0.0882 0.61736 0.26458 0.88194 0.35278 0.17639-1.4111 0.35278-2.8222 0.35278-4.2333 0-1.2347 0.35278-1.8521 1.6757-1.8521 0.70555 0 1.5875 0.26458 2.2049 0.61736s1.1465-0.61736 0.52916-0.88194z" />
      <path
         id="path14573"
         d="m7.7894 91.603c0.0882 1.8521-0.97014 3.2632-2.1167 4.5861-0.35278 0.35278-0.61736 0.70556-0.97014 1.0583-0.17639 0.17639-0.44097 0.44098-0.61736 0.61736-0.35278 0.35278-0.52916 0.17639-0.17639 0.52917-0.44097-0.52917-1.2347 0.26458-0.70555 0.70556 0.79375 0.88194 2.3812-1.2347 2.8222-1.7639 1.4993-1.5875 2.9104-3.4396 2.8222-5.7326 0-0.70556-1.0583-0.70556-1.0583 0z" />
      <path
         id="path14575"
         d="m3.9971 85.87c-1.6757 0.97014-0.88195 4.4979-0.17639 5.909 0.26458 0.61736 1.1465 0.0882 0.88194-0.52917-0.35277-0.70555-0.44097-1.4993-0.52916-2.293-0.0882-0.52917-0.17639-1.8521 0.35277-2.2049 0.61737-0.35277 0.0882-1.2347-0.52916-0.88194z" />
      <path
         id="path14577"
         d="m3.3797 76.433c1.6757 0 3.0868-1.3229 4.6743-1.1465 0.70556 0.08819 0.70556-0.97014 0-1.0583-1.6757-0.17639-2.9986 1.1465-4.6743 1.1465-0.70556 0-0.70556 1.0583 0 1.0583z" />
      <path
         id="path14579"
         d="m8.936 68.408c0.0882 3.4396-0.0882 6.791-0.70556 10.142-0.0882 0.70556 0.88195 0.97014 1.0583 0.35278 0.61737-3.5278 0.79375-6.9674 0.70556-10.495 0-0.70556-1.0583-0.70556-1.0583 0z" />
      <path
         id="path14581"
         d="m8.3186 54.914c1.4111 3.5278 0 6.0854-2.9104 8.2903-0.52917 0.35278 0 1.3229 0.52917 0.88195 3.2632-2.4694 4.9389-5.3799 3.4396-9.525-0.26458-0.61736-1.3229-0.35278-1.0583 0.35278z" />
      <path
         id="path14583"
         d="m5.0554 50.416c-0.52917 0.44097-0.70555 1.1465-1.0583 1.7639-0.35278 0.61736 0.52916 1.1465 0.88194 0.52917 0.35278-0.52917 0.44097-1.1465 0.88195-1.5875 0.52916-0.44097-0.17639-1.1465-0.70556-0.70556z" />
      <path
         id="path14585"
         d="m5.6728 102.98c-2.2049-0.0882-2.1167 4.7625-2.1167 6.0854 0 1.4993 0.0882 6.4382 2.4694 6.4382 1.1465 0 1.9403-1.0583 2.5576-1.9403 0.88194-1.3229 2.2049-3.3514 1.4111-5.0271-1.4993-2.9986-5.3799 3.175-5.2917 4.7625 0 0.26459 0.26459 0.52917 0.52917 0.52917 0.35278 0 0.61736 0 0.97014-0.0882 0.61736-0.17638 0.35278-1.1465-0.35278-1.0583-0.17639 0-0.44097 0.0882-0.61736 0.0882 0.17639 0.17638 0.35278 0.35277 0.52917 0.52916 0-1.0583 0.79375-2.2049 1.4111-2.9986 0.35278-0.52917 0.88194-1.1465 1.4993-1.3229 1.1465-0.44097 0 2.2931 0 2.3812-0.44097 0.97014-2.2049 4.4097-3.2632 2.2931-0.88195-1.5875-0.79375-3.7924-0.79375-5.4681 0.0882-0.52916 0.17639-4.2333 1.0583-4.1451 0.70556 0 0.70556-1.0583 0-1.0583z" />
      <path
         id="path14587"
         d="m6.1137 102.54c-3.7042-1.0583-3.175 5.6444-2.734 7.5847 0.0882 0.26459 0.52916 0.44096 0.79375 0.26459h0.0882c0.61736-0.17639 0.35278-1.1465-0.35278-1.0583-0.0882 0-0.17639 0.0882-0.26458 0.17639 0.26458 0.0882 0.52917 0.17639 0.79375 0.26458-0.35278-1.1465-0.88195-6.8792 1.3229-6.1736 0.70555 0.17639 0.97014-0.88195 0.35277-1.0583z" />
      <path
         id="path14589"
         d="m4.5262 113.21c0.70556 1.3229 1.8521 2.5576 3.5278 1.9403 1.2347-0.52917 1.9403-2.0285 2.4695-3.175 0.44097-0.97015 0.97014-2.3812 0.17639-3.3514-0.70556-0.88194-2.2931-0.88194-2.9104 0.0882-0.35278 0.61737 0.52917 1.1465 0.88194 0.52917 0.26459-0.44097 0.97014-0.17639 1.2347 0.0882 0.17638 0.17639 0.0882 0.61737 0.0882 0.79376-0.0882 0.79374-0.44097 1.4111-0.79375 2.0285-0.26458 0.61737-0.52917 1.1465-0.97014 1.5875-1.2347 1.2347-2.2049 0-2.8222-1.0583-0.26458-0.61738-1.2347-0.0882-0.88195 0.52914z" />
      <path
         id="path14591"
         d="m2.8506 124.15c0.79375-0.61736 2.4694-0.61736 3.4396-0.70556 1.1465-0.0882 2.3812-0.17639 3.5278 0.0882-0.52917-0.17639-2.293 3.175-2.4694 3.5278-1.1465 1.9403-2.3812 3.8806-2.9986 5.9972 0.35277 0.0882 0.70555 0.26457 1.0583 0.35277v-0.17638c0.26458-0.52917-0.44097-1.1465-0.79375-0.61736-0.44097 0.52915-0.70556 0.97013-0.88195 1.5875-0.17638 0.70555 0.88195 0.97013 1.0583 0.35277 0.17639-0.44097 0.35278-0.79375 0.52916-1.2347-0.26458-0.17639-0.52916-0.44096-0.79375-0.61735-0.0882 0.0882-0.0882 0.26458-0.17638 0.35278-0.17639 0.70554 0.88194 0.97013 1.0583 0.35277 0.70555-2.734 2.5576-5.6444 4.1451-7.9375 0.44097-0.70556 2.1167-2.2049 0.79375-2.9104-1.1465-0.61736-3.175-0.26458-4.4097-0.0882-1.2347 0.0882-2.8222 0.17639-3.7924 0.97014-0.52916 0.44098 0.17639 1.1465 0.70556 0.70556z" />
      <path
         id="path14593"
         d="m2.4978 123.62c1.2347-0.17639 2.4694 0.17639 3.7924 0.17639 1.0583 0 2.0285-0.52917 3.0868-0.26458 0.70555 0.0882 0.97014-0.88195 0.35278-1.0583-1.2347-0.17638-2.2931 0.0882-3.4396 0.26459-1.4111 0.17639-2.734-0.35278-4.1451-0.17639-0.61736 0.0882-0.35277 1.1465 0.35278 1.0583z" />
      <path
         id="path14595"
         d="m10.435 123.53c-2.3813 3.0868-4.9389 5.9972-6.4382 9.6132 0.35278 0.0882 0.61736 0.17639 0.97014 0.26459v-0.0882c0.44097-0.52916-0.26459-1.2347-0.70556-0.70554-0.26458 0.26458-0.35278 0.44097-0.35278 0.79374-0.0882 0.52916 0.79375 0.70555 0.97014 0.26458 1.5875-3.616 4.1451-6.5264 6.4382-9.6132 0.44097-0.52916-0.52917-1.0583-0.88195-0.52916z" />
      <path
         id="path14597"
         d="m7.8776 138.7c-2.2049-0.52916-8.1139 1.0583-5.3799 4.1451 1.2347 1.4993 4.2333 1.4993 4.3215 3.7924-0.0882 0.61735-0.35278 1.1465-0.79375 1.5875-0.88194 0.88195-1.2347 0.97013-1.2347 0.35278 0.17639-0.70556 0.52916-1.4993 0.70555-2.2049 0.70556-1.8521 1.4111-3.7042 2.2931-5.5562 0.26458-0.44097-0.17639-0.97014-0.70556-0.70556-0.17639 0.0882-0.35277 0.17639-0.52916 0.26459-0.61736 0.26458-0.0882 1.2347 0.52916 0.88193 0.17639-0.0882 0.35278-0.17639 0.52917-0.26457-0.26458-0.26459-0.44097-0.44097-0.70556-0.70556-0.79375 1.6757-1.4993 3.4396-2.2049 5.2035-0.35277 0.97014-1.2347 2.6458-0.97014 3.616 0.17639 0.70555 1.0583 0.88194 1.6757 0.70555 1.2347-0.44097 2.0285-1.3229 2.3812-2.5576 0.52917-2.2049-1.2347-3.2632-2.9104-4.0569-1.2347-0.52917-2.9104-1.7639-1.1465-2.9104 0.97014-0.61736 2.6458-0.88194 3.7924-0.52916 0.70555 0.17638 0.97013-0.88195 0.35277-1.0583z" />
      <path
         id="path14599"
         d="m5.761 139.4c2.2049 3.0868-1.5875 6.7028-2.4694 9.7014-0.17639 0.61735 0.70556 0.97013 0.97014 0.44096 0.0882-0.0882 0.17639-0.17639 0.26458-0.35278 0.52917-0.44096-0.26458-1.2347-0.70555-0.70554-0.17639 0.17638-0.35278 0.26458-0.44097 0.52915 0.26458 0.17639 0.61736 0.26459 0.97014 0.44097 0.97013-3.3514 4.8507-7.0556 2.293-10.583-0.35278-0.52917-1.3229 0-0.88194 0.52916z" />
      <path
         id="path14601"
         d="m3.2915 148.58c-0.26458 0.0882-0.35278 0.17639-0.52916 0.44096-0.17639 0.26459-0.0882 0.61736 0.17638 0.70556 1.8521 0.97014 6.9674-0.17639 4.4979-2.8222-0.44097-0.52917-1.1465 0.26457-0.70555 0.70554 1.2347 1.4111-2.4694 1.5875-3.2632 1.2347 0.0882 0.26459 0.0882 0.44097 0.17639 0.70555 0.0882 0 0.0882-0.0882 0.17639-0.0882 0.61736-0.26458 0.0882-1.1465-0.52917-0.88193z" />
      <path
         id="path14603"
         d="m4.0853 149.02c-1.3229-1.0583 1.0583-3.175 1.6757-4.0569 0.44097-0.52917-0.35278-1.2347-0.70556-0.70556-1.0583 1.3229-3.7924 3.8806-1.6757 5.4681 0.52916 0.44097 1.2347-0.26459 0.70555-0.70557z" />
      <path
         id="path14605"
         d="m9.5533 156.43c-1.3229-2.2049-3.5278-1.2347-5.0271 0.17638-1.7639 1.6757-3.2632 4.057-2.6458 6.5264 0.61736 2.2049 2.9104 1.6757 4.2333 0.61736 1.8521-1.4111 3.616-3.7924 3.7042-6.1736 0-0.17639-0.17639-0.44097-0.35278-0.52915-0.52916-0.0882-0.97014-0.26459-1.4111-0.35278-0.70555-0.0882-0.97014 0.97013-0.35278 1.0583 0.52917 0.0882 0.97014 0.26459 1.4111 0.35278-0.0882-0.17639-0.26459-0.35278-0.35278-0.52917-0.0882 1.5875-1.1465 3.175-2.2049 4.3215-0.61736 0.70556-2.6458 2.734-3.5278 1.2347-1.4993-2.5576 3.8806-9.084 5.6444-6.1736 0.35278 0.61736 1.2347 0.0882 0.88195-0.52916z" />
      <path
         id="path14607"
         d="m8.1422 156.6c2.2049 3.2632-0.44098 10.848-4.3215 11.906 0.26458 0.17639 0.44097 0.35277 0.70555 0.52916v-1.4111c0-0.70556-1.0583-0.70556-1.0583 0v1.4111c0 0.35278 0.35278 0.61736 0.70556 0.52917 2.5576-0.70556 3.9688-3.4396 4.8507-5.7326 0.88195-2.2931 1.4993-5.5562 0-7.7611-0.35278-0.52917-1.3229 0-0.88194 0.52917z" />
      <path
         id="path14609"
         d="m8.4068 157.04c0.61736 2.0285 0.97014 4.0569 0.61736 6.1736-0.0882 1.0583-0.52917 2.0285-1.0583 2.9104-0.17639 0.35278-2.3812 2.5576-2.734 2.2049 0.0882 0.17638 0.0882 0.44097 0.0882 0.61736 0.0882-0.0882 0.17639-0.26459 0.17639-0.35278 0.26459-0.61736-0.61736-1.1465-0.88194-0.52917-0.0882 0.0882-0.0882 0.26459-0.17639 0.35278-0.0882 0.26458-0.0882 0.44096 0.0882 0.61735 0.0882 0.0882 0.0882 0.17639 0.17639 0.17639 0.0882 0.17639 0.35278 0.17639 0.52917 0.17639 5.3799-1.8521 5.6444-7.9375 4.2333-12.7-0.17639-0.61736-1.2347-0.35278-1.0583 0.35278z" />
      <path
         id="path14611"
         d="m5.0554 174.59c0.17639-0.26458 0.26458-0.61736 0.44097-0.97014-0.35277 0-0.70555-0.0882-1.0583-0.0882 0.79375 6.0854-0.97014 12.171-0.88194 18.256 0 0.70554 0.97013 0.70554 1.0583 0 0-0.97014 0.35278-1.9403 0.52917-2.9104 0.0882-0.70555-0.88195-0.97014-1.0583-0.26458-0.17639 1.0583-0.52916 2.1167-0.52916 3.175h1.0583c-0.0882-6.0854 1.6757-12.171 0.88194-18.256-0.0882-0.61736-0.79375-0.79375-1.0583-0.17639-0.0882 0.26458-0.17639 0.52917-0.26458 0.70555-0.35278 0.61737 0.61736 1.1465 0.88194 0.52917z" />
      <path
         id="path14613"
         d="m9.5533 172.74c-2.2931-1.6757-2.734 6.0854-2.734 6.9674-0.0882 1.6757-0.44097 8.5549 2.9986 7.0556 3.2632-1.4111 2.0285-7.7611 1.4111-10.319-0.26458-1.1465-0.70555-3.0868-1.8521-3.7924-1.0583-0.70555-1.6757 0.70556-1.8521 1.5875-0.17639 0.61736 0.88194 0.88195 1.0583 0.26459 0.26458-1.1465 0.26458-1.2347 0.79375-0.17639 0.52917 1.0583 0.79375 2.3812 1.0583 3.5278 0.44097 2.2049 0.97014 5.9972-0.79375 7.7611-1.7639 1.7639-1.8521-4.5861-1.8521-5.2917 0.0882-1.4993 0.17639-2.9104 0.44097-4.3215 0.0882-0.52916 0.26458-1.0583 0.44097-1.5875 0.0882-0.26458 0.17639-0.44097 0.26459-0.61736 0.17639-0.26458 0-0.17639 0.0882-0.0882 0.61736 0.35277 1.1465-0.52917 0.52917-0.97014z" />
      <path
         id="path14615"
         d="m8.8478 171.68c-2.3812-1.7639-2.734 4.4097-2.8222 5.3799 0 2.3812 0.35278 7.6729 3.8806 7.4083 0.61736-0.0882 0.61736-1.1465 0-1.0583-2.4694 0.17638-2.734-3.7924-2.8222-5.4681 0-0.52917 0.44098-5.9972 1.2347-5.3799 0.52916 0.44097 1.0583-0.52917 0.52916-0.88195z" />
      <path
         id="path14617"
         d="m2.2332 180.33c1.9403-1.9403 4.2333-6.0854 2.0285-8.5549-0.44097-0.52917-1.2347 0.17639-0.79375 0.70555 1.7639 1.9403-0.52917 5.6444-1.9403 7.1438-0.52916 0.52917 0.26459 1.2347 0.70556 0.70556z" />
      <path
         id="path14619"
         d="m6.9075 185.79c0 0.0882-0.0882 0.0882-0.17638 0.17638-0.26459 0.17639-0.35278 0.44098-0.44098 0.61737-0.0882 0.35277 0.0882 0.61736 0.35278 0.70555 0.97014 0.26458 2.1167-0.17639 2.9104-0.61736 0.61736-0.35278 0.0882-1.2347-0.52917-0.97014-0.52917 0.35278-1.4111 0.79375-2.1167 0.52917 0.17639 0.26458 0.26459 0.44097 0.35278 0.70555 0.0882-0.0882-0.0882 0 0.17639-0.17639 0.0882 0 0.17639-0.0882 0.26458-0.17638 0.44098-0.52917-0.35277-1.3229-0.79375-0.79375z" />
      <path
         id="path14621"
         d="m14.933 10.817c0.35278 0 0.70555-1.1465 0.97014-1.6757 0.52916-0.97014 1.0583-1.9403 1.6757-2.8222 0.61736-1.1465 2.0285-2.5576 2.2931-3.7924 0.0882-0.70556-0.88195-0.97014-1.0583-0.35278-0.17638 1.2347-6.791 9.3486-3.8806 9.7014 0.70555 0.08819 0.70555-0.97014 0-1.0583z" />
      <path
         id="path14623"
         d="m18.373 1.8208c-0.17639 2.0285 0.26459 3.7924 1.0583 5.6444 0.88194 1.9403 2.734 3.5278 3.0868 5.6444 0.0882 0.70556 1.0583 0.44097 0.97014-0.26458-0.26458-1.6757-1.3229-2.8222-2.2049-4.3215-1.3229-2.0285-2.1167-4.2333-1.8521-6.7028 0-0.70556-1.0583-0.70556-1.0583 0z" />
      <path
         id="path14625"
         d="m14.051 12.404c0.0882 0.26458 0.0882 0.08819 0.26459-0.08819 0.17639-0.26458 0.52916-0.44097 0.79375-0.61736 0.70555-0.44098 1.4111-0.79376 2.1167-1.2347 0.79375-0.35278 3.7042-1.9403 4.4097-0.97014 0.44097 0.52917 1.2347-0.26458 0.79375-0.79375-1.1465-1.4111-4.1451 0.17639-5.3799 0.70556-0.97014 0.44097-4.2333 1.7639-3.9688 3.2632 0.0882 0.70556 1.1465 0.35278 0.97013-0.26458z" />
      <path
         id="path14627"
         d="m32.131 2.7027c0.70556 2.4694 0.0882 5.3799 1.5875 7.5847 0.17639 0.35278 0.70556 0.35278 0.88195 0 0.26458-0.35278 0.44097-0.79375 0.61736-1.2347 0.26458-0.70556-0.70556-0.97014-0.97014-0.35278-0.17639 0.44097-0.35278 0.79375-0.52917 1.0583h0.88195c-1.4111-2.1167-0.79375-4.9389-1.4993-7.4083-0.17639-0.61736-1.1465-0.35278-0.97014 0.35278z" />
      <path
         id="path14629"
         d="m32.925 3.8492c0.70556-0.61736 4.057-2.4694 4.7625-1.3229 0.79375 1.0583-3.5278 2.6458-4.3215 2.5576-0.70556-0.08819-0.70556 0.97014 0 1.0583 1.0583 0.08819 2.4694-0.61736 3.3514-1.0583 1.0583-0.52917 2.3812-1.4111 2.0285-2.734-0.70556-2.5576-5.1153-0.44097-6.35 0.52917-0.61736 0.44097-0.0882 1.3229 0.52916 0.97014z" />
      <path
         id="path14631"
         d="m37.687 4.8194c2.2049-0.08819 4.3215 2.9986 2.5576 4.7625-1.2347 1.3229-3.7042 1.1465-5.3799 1.1465-0.70555 0-0.70555 1.0583 0 1.0583 2.4694 0 5.909 0 6.9674-2.734 1.0583-2.4694-1.7639-5.3799-4.1451-5.2917-0.70555 0-0.70555 1.0583 0 1.0583z" />
      <path
         id="path14633"
         d="m58.06 3.2319c-1.3229-2.2049-4.4979-2.2049-5.9972-0.35278-1.3229 1.7639-1.5875 4.8507-0.35278 6.791 1.8521 2.9104 9.1722 3.5278 8.6431-1.2347-0.0882-0.70556-1.1465-0.70556-1.0583 0 0.35278 3.3514-4.1451 2.6458-5.909 1.4111-1.4993-0.97014-1.4993-2.9104-1.2347-4.4979 0.17639-0.79375 0.52917-1.5875 1.1465-2.2049 0.97014-1.0583 3.0868-0.61736 3.7924 0.61736 0.35278 0.52917 1.2347 0 0.97014-0.52917z" />
      <path
         id="path14635"
         d="m57.443 2.8791c-0.44097-1.8521-2.6458-1.6757-4.0569-1.0583-1.7639 0.88194-2.3812 3.2632-2.4694 5.0271-0.0882 1.7639 0.52917 3.7042 2.2931 4.4979 1.7639 0.70556 3.5278 0 4.9389-1.1465 0.52916-0.44097-0.17639-1.1465-0.70556-0.79375-2.1167 1.6757-4.7625 1.4993-5.3799-1.4111-0.26458-1.2347 0-2.6458 0.52917-3.7924 0.35277-0.61736 0.79375-1.0583 1.3229-1.4111 0.61736-0.35278 2.2931-0.70556 2.5576 0.35278 0.17639 0.61736 1.1465 0.35278 0.97014-0.26458z" />
      <path
         id="path14637"
         d="m58.942 9.7582c0.26458-0.44097 0.61736-0.70556 0.97013-0.97014 0.26459-0.17639 0.35278-0.52917 0.26459-0.79375-0.17639-0.17639-0.52917-0.35278-0.79375-0.17639-0.52917 0.44097-1.0583 0.79375-1.3229 1.4111-0.35278 0.52917 0.61736 1.1465 0.88195 0.52917z" />
      <path
         id="path14639"
         d="m68.555 3.4964c0 2.8222-0.35278 5.8208 0.70556 8.5549 0.0882 0.26458 0.35277 0.44097 0.70555 0.35278 0.44097-0.08819 0.61736-0.35278 0.88195-0.79375 0.35277-0.61736-0.61737-1.1465-0.97014-0.52917 0 0.17639-0.0882 0.26458-0.26459 0.35278 0.26459 0.08819 0.44098 0.26458 0.70556 0.35278-1.0583-2.6458-0.70556-5.5563-0.70556-8.2903 0-0.70556-1.0583-0.70556-1.0583 0z" />
      <path
         id="path14641"
         d="m69.173 2.7027c2.2049 0.08819 7.5847 2.3812 6.1736 5.3799-0.52916 0.97014-1.9403 1.7639-2.8222 2.3812-0.52917 0.44097-2.5576 2.0285-3.2632 1.4993-0.61737-0.44097-1.1465 0.52917-0.52917 0.88194 1.0583 0.79375 2.8222-0.44097 3.7042-0.97014 1.4111-0.88194 3.175-2.0285 3.9688-3.616 1.7639-3.616-4.4979-6.5264-7.232-6.6146-0.61736 0-0.61736 1.0583 0 1.0583z" />
      <path
         id="path14643"
         d="m68.996 2.4381c2.5576-0.88194 5.2035 1.4111 6.1736 3.7042 1.2347 3.175-2.9104 6.35-5.8208 5.5562-0.70556-0.26458-0.97014 0.79375-0.26458 0.97014 3.5278 1.0583 7.9375-2.3812 7.3201-6.0854-0.52917-3.175-4.4979-6.2618-7.6729-5.1153-0.70556 0.17639-0.35278 1.2347 0.26458 0.97014z" />
      <path
         id="path14645"
         d="m86.106 1.027c-2.2049 0.08819-1.7639 3.616-1.4993 5.0271 0.0882 0.97014 0.97014 5.3799 2.8222 4.2333 0.61736-0.35278 0.0882-1.3229-0.52917-0.97014-0.35277 0.26458-1.1465-2.9104-1.2347-3.175-0.0882-0.70556-0.70555-3.9688 0.44097-4.0569 0.70556 0 0.70556-1.0583 0-1.0583z" />
      <path
         id="path14647"
         d="m86.106 10.111c3.175 1.2347 6.791 0.79375 8.9958-1.9403 0.44097-0.52917-0.35278-1.2347-0.79375-0.70556-1.9403 2.4694-5.1153 2.734-7.9375 1.5875-0.61736-0.26458-0.88195 0.79375-0.26459 1.0583z" />
      <path
         id="path14649"
         d="m85.312 6.0541c2.0285 0.44097 4.1451 0.17639 6.2618-0.17639 0.70556-0.17639 0.35278-1.1465-0.26458-1.0583-1.8521 0.35278-3.8806 0.61736-5.7326 0.26458-0.70556-0.08819-0.97014 0.88194-0.26459 0.97014z" />
      <path
         id="path14651"
         d="m84.166 2.7027c2.9104 0.26458 5.7326-0.52917 8.643-0.08819 0.70556 0.08819 0.70556-0.97014 0-1.0583-2.9104-0.44097-5.7326 0.35278-8.643 0.08819-0.70556-0.08819-0.70556 0.97014 0 1.0583z" />
      <path
         id="path14653"
         d="m84.166 1.9089c-0.0882 0-0.17639 0-0.26459-0.0882 0 0.35278-0.0882 0.70556-0.0882 1.0583 1.8521 0.17639 3.7042 0.44097 5.6444 0.26458 0.70556-0.08819 3.9688-0.97014 4.4097-0.35278 0.44097 0.52917 1.2347-0.26458 0.79375-0.79375-0.79375-0.88194-3.2632-0.17639-4.2333-0.08819-2.2049 0.35278-4.4097 0.17639-6.6146-0.0882-0.61736-0.08819-0.79375 0.97014-0.17639 1.0583h0.26458c0.61736 0.17639 0.97014-0.88194 0.26459-0.97014z" />
      <path
         id="path14655"
         d="m93.955 2.0853v0.17639c0 0.70556 1.0583 0.70556 1.0583 0v-0.17639c0-0.70556-1.0583-0.70556-1.0583 0z" />
      <path
         id="path14657"
         d="m94.573 8.2589c0.0882 0.08819 0 0.08819 0 0.17639v0c0.0882-0.08819-0.0882 0 0.0882 0 0.26458-0.17639 0.26458-0.52917 0.17638-0.79375-0.17638-0.26458-0.44097-0.26458-0.70555-0.17639-0.17639 0.08819-0.35278 0.26458-0.44097 0.44097-0.17639 0.35278-0.17639 0.61736 0 0.88194 0.0882 0.26458 0.44097 0.35278 0.70555 0.17639 0.26459-0.17639 0.26459-0.44097 0.17639-0.70556z" />
      <path
         id="path14659"
         d="m85.312 9.4937c2.734 1.0583 6.5264 1.6757 8.8194-0.61736 0.52917-0.44097-0.26458-1.2347-0.70556-0.70556-2.0285 1.9403-5.5562 1.2347-7.8493 0.35278-0.61736-0.26458-0.88195 0.70556-0.26459 0.97014z" />
      <path
         id="path14661"
         d="m111.33 2.5263c-2.5576-0.70556-5.2035-0.26458-7.6729 0.44097-0.52917 0.0882-0.52917 0.88194 0 0.97014 2.6458 0.88194 1.6757 5.909 2.293 8.0257 0.17639 0.61736 0.97014 0.44097 1.0583-0.17639 0-0.35278 0.0882-0.70556 0.0882-1.0583 0.0882-0.61736-0.97014-0.61736-1.0583 0 0 0.35278-0.0882 0.70556-0.0882 1.0583 0.35278 0 0.70556-0.0882 1.0583-0.0882-0.79375-2.6458 0.35278-7.5847-3.0868-8.7312v0.97014c2.293-0.61736 4.7625-1.0583 7.1438-0.44097 0.61736 0.17639 0.88194-0.79375 0.26458-0.97014z" />
      <path
         id="path14663"
         d="m105.6 7.6416c1.9403 0.52917 3.7042-0.61736 5.5562-0.61736 0.70556 0.08819 0.70556-0.97014 0-1.0583-1.7639 0-3.5278 1.1465-5.2035 0.61736-0.70555-0.17639-0.97014 0.88194-0.35278 1.0583z" />
      <path
         id="path14665"
         d="m113.36 2.9673c-3.2632-1.4993-7.4083-0.70556-10.583 0.61736-0.61736 0.26458-0.0882 1.2347 0.52917 0.97014 2.8222-1.2347 6.7028-2.0285 9.525-0.61736 0.61736 0.26458 1.1465-0.61736 0.52916-0.97014z" />
      <path
         id="path14667"
         d="m126.76 3.0555c-2.9104-2.5576-6.1736 2.2049-6.4382 4.7625-0.17639 1.6757 1.1465 3.2632 2.734 3.5278 1.8521 0.35278 3.7042-0.70556 4.5861-2.2049 0.35278-0.61736-0.61736-1.1465-0.97013-0.52917-1.3229 2.4694-5.7326 2.2931-5.2917-1.1465 0.26458-1.5875 2.6458-5.3799 4.5861-3.616 0.52917 0.44097 1.2347-0.26458 0.79375-0.79375z" />
      <path
         id="path14669"
         d="m123.68 7.2888c1.2347-0.08819 2.5576-0.44097 3.7924-0.17639 0.97013 0.17639 0.26458 1.3229 0 1.8521-0.35278 0.70556-0.52917 1.4993-0.35278 2.2931 0.0882 0.35278 0.52916 0.52917 0.79375 0.35278 0.26458-0.26458 0.52916-0.44097 0.79375-0.70556 0.52916-0.52917-0.26459-1.2347-0.70556-0.79375-0.17639 0.26458-0.44097 0.44097-0.61736 0.52917 0.26458 0.08819 0.52917 0.26458 0.79375 0.35278-0.52917-1.6757 2.0285-3.3514 0.0882-4.6743-0.70556-0.52917-1.6757-0.35278-2.4694-0.26458-0.70555 0-1.4111 0.08819-2.1167 0.17639-0.70555 0.08819-0.70555 1.1465 0 1.0583z" />
      <path
         id="path14671"
         d="m129.67 3.761c-2.8222-6.35-13.494 2.2049-7.8493 7.4083 0.52917 0.44097 1.3229-0.35278 0.79375-0.79375-4.4979-4.1451 3.9688-11.024 6.0854-6.0854 0.26458 0.61736 1.2347 0.08819 0.97014-0.52917z" />
      <path
         id="path14673"
         d="m121.03 8.2589c-1.4111 3.9688 5.1153 2.8222 6.6146 0.97014 0.44098-0.52917-0.26458-1.2347-0.70555-0.70556-0.88195 0.97014-5.8208 2.5576-4.9389 0 0.26458-0.61736-0.79375-0.88194-0.97014-0.26458z" />
      <path
         id="path14675"
         d="m125.79 10.905c-0.17639 0 0 0 0-0.08819h0.17639c0.17639-0.08819 0.26458-0.08819 0.44097-0.08819 0.0882-0.08819 0.26459-0.08819 0.35278-0.08819 0.0882-0.0882 0.0882-0.0882 0.17639-0.0882-0.17639 0.0882 0 0 0 0 0.70555 0 0.70555-1.0583 0-1.0583-0.52917 0.08819-1.1465 0.26458-1.6757 0.44097-0.26458 0.17639-0.35277 0.52917-0.17638 0.70556 0.17638 0.26458 0.44097 0.35278 0.70555 0.26458z" />
      <path
         id="path14677"
         d="m146.17 1.5562c0.35278 3.175 0.35278 6.35 0.35278 9.525 0 0.70556 1.0583 0.70556 1.0583 0 0-3.175 0-6.35-0.35278-9.525-0.0882-0.61736-1.1465-0.61736-1.0583 0z" />
      <path
         id="path14679"
         d="m138.67 1.9089c-0.61736 2.734-2.5576 9.7896 1.0583 11.112 0.61736 0.26458 0.88195-0.79375 0.26459-0.97014-1.5875-0.61736-1.2347-3.616-1.1465-4.9389 0.0882-1.6757 0.44097-3.2632 0.79375-4.9389 0.17639-0.61736-0.79375-0.88194-0.97014-0.26458z" />
      <path
         id="path14681"
         d="m138.58 8.8763c2.9104 0.52917 5.6444-0.79375 8.5549-0.35278 0.70555 0.17639 0.97014-0.88194 0.26458-0.97014-2.9104-0.44097-5.6444 0.79375-8.5549 0.35278-0.70556-0.08819-0.97014 0.88194-0.26458 0.97014z" />
      <path
         id="path14683"
         d="m137.35 8.4353c1.0583-0.44097 2.6458-0.26458 3.7042-0.35278 1.6757-0.17639 3.5278-0.44097 5.1153-0.08819 0.70555 0.08819 0.97014-0.88194 0.35278-1.0583-1.6757-0.26458-3.4396-0.08819-5.0271 0.08819-1.3229 0.08819-3.175-0.08819-4.4979 0.44097-0.61737 0.17639-0.35278 1.2347 0.35277 0.97014z" />
      <path
         id="path14685"
         d="m156.84 4.0256c1.3229-0.52917 2.9104-0.52917 4.3215-0.79375-0.17639-0.26458-0.35277-0.52917-0.52916-0.88194-1.5875 2.1167-1.2347 5.4681-0.79375 7.8493 0.35277-0.08819 0.70555-0.17639 0.97014-0.26458 0-0.17639 0-0.44097-0.0882-0.61736-0.0882-0.70556-1.1465-0.35278-0.97014 0.26458 0 0.17639 0 0.44097 0.0882 0.61736 0.0882 0.70556 1.1465 0.35278 0.97014-0.26458-0.26459-1.9403-0.70556-5.1153 0.61736-6.791 0.35277-0.44097 0-0.97014-0.52917-0.88194-1.4993 0.26458-3.175 0.26458-4.5861 0.88194-0.61736 0.26458-0.0882 1.1465 0.52917 0.88194z" />
      <path
         id="path14687"
         d="m157.81 10.817c2.0285 0.79375 3.8806 0.08819 5.7326-0.61736 0.61736-0.26458 0.0882-1.2347-0.52916-0.97014-1.5875 0.70556-3.175 1.2347-4.8507 0.52917-0.70555-0.26458-0.97014 0.79375-0.35278 1.0583z" />
      <path
         id="path14689"
         d="m157.98 3.4082c1.8521-0.08819 3.616-0.79375 5.5562-0.70556 0.61736 0 0.61736-1.0583 0-1.0583-1.9403-0.08819-3.7042 0.61736-5.5562 0.70556-0.70555 0-0.70555 1.0583 0 1.0583z" />
      <path
         id="path14691"
         d="m159.57 2.8791c-0.97014 2.8222-0.97014 6.6146 1.0583 8.9958 0.52916 0.44097 1.2347-0.26458 0.79375-0.79375-1.8521-2.0285-1.5875-5.5562-0.79375-7.9375 0.17639-0.61736-0.79375-0.97014-1.0583-0.26458z" />
      <path
         id="path14693"
         d="m157.46 11.081c2.1167 1.4111 4.6743-0.26458 6.8792-0.52917 0.70556 0 0.70556-1.0583 0-1.0583-1.9403 0.17639-4.5861 1.8521-6.35 0.70556-0.52916-0.44097-1.0583 0.52917-0.52916 0.88194z" />
      <path
         id="path14695"
         d="m173.68 3.5846c3.175-0.79375 6.4382 0 9.7014-0.17639 0.70556 0 0.70556-1.0583 0-1.0583h-1.0583c-0.70556 0-0.70556 1.0583 0 1.0583h1.0583v-1.0583c-3.3514 0.17639-6.7028-0.61736-10.054 0.26458-0.61736 0.17639-0.35278 1.1465 0.35277 0.97014z" />
      <path
         id="path14697"
         d="m181.18 2.8791c-0.44097 0.52917 0.17639 1.3229 0.52917 1.7639 1.3229 1.5875 1.9403 3.5278 0.26458 5.1153-1.1465 1.1465-6.6146 2.6458-6.8792 0.26458-0.0882-0.61736-1.1465-0.61736-1.0583 0 0.35278 3.175 4.7625 2.2931 6.791 1.5875 1.5875-0.52917 2.9104-1.7639 3.175-3.4396 0.17639-0.88194 0-1.8521-0.44097-2.6458-0.0882-0.26458-1.4993-2.2049-1.4993-2.1167 0.44097-0.52917-0.52917-1.0583-0.88195-0.52917z" />
      <path
         id="path14699"
         d="m174.83 9.1409c0 0.26458 0.0882 0.52917 0.35278 0.70556 0.17639 0.17639 0.44097 0.08819 0.61736 0 0.17639-0.0882 0.26458-0.26458 0.35278-0.44097 0.0882-0.26458-0.0882-0.61736-0.35278-0.70556-0.35278-0.08819-0.61736 0.08819-0.70555 0.35278 0.0882-0.08819 0.17638-0.08819 0.26458-0.17639h0.26458c0.26459 0.35278 0.35278 0.44097 0.26459 0.26458v0c0-0.35278-0.17639-0.52917-0.52917-0.52917-0.26458 0-0.52917 0.17639-0.52917 0.52917z" />
      <path
         id="path14701"
         d="m175.27 8.5235c-1.4993 0.52917 0.17639 2.6458 0.88195 3.175 1.4993 1.0583 3.5278-0.26458 4.6743-1.2347 0.52917-0.52917-0.26458-1.2347-0.79375-0.79375-0.61736 0.61736-1.4993 1.2347-2.3812 1.3229-0.52916 0.08819-0.97013-0.17639-1.3229-0.44097-0.17639-0.17639-0.26459-0.44097-0.44097-0.61736 0-0.08819-0.0882-0.26458-0.0882-0.35278 0-0.35278-0.0882-0.35278-0.26458-0.08819 0.61736-0.26458 0.35278-1.2347-0.26459-0.97014z" />
      <path
         id="path14703"
         d="m175.09 9.1409c0.70555 2.1167 2.9104 2.3812 4.8507 2.1167 1.5875-0.26458 3.9688-1.3229 3.8806-3.175-0.0882-0.70556-1.1465-0.70556-1.0583 0 0.0882 1.3229-1.8521 1.8521-2.8222 2.1167-1.3229 0.26458-3.2632 0.17639-3.7924-1.3229-0.26458-0.70556-1.2347-0.35278-1.0583 0.26458z" />
      <path
         id="path14705"
         d="m173.51 3.0555c2.1167 0.08819 4.1451 0.35278 6.2618 0.26458 1.1465 0 3.175-0.70556 4.3215-0.17639 0.61736 0.26458 1.1465-0.70556 0.52917-0.97014-1.1465-0.52917-2.6458-0.08819-3.8806 0.08819-2.4694 0.17639-4.8507-0.08819-7.2319-0.26458-0.70556 0-0.70556 1.0583 0 1.0583z" />
      <path
         id="path14707"
         d="m174.12 3.4082c1.5875 0.17639 3.2632 0.52917 4.9389 0.70556 1.7639 0.26458 3.5278-0.26458 5.2917 0 0.61736 0.08819 0.61736-0.97014 0-1.0583-1.5875-0.17639-3.175 0.17639-4.6743 0.08819-1.8521-0.17639-3.7042-0.61736-5.5562-0.79375-0.70556-0.08819-0.70556 0.97014 0 1.0583z" />
    </g>
  </g>
  <path
     id="path14346"
     d="m 216.47221,17.436779 c 1.6757,-1.322916 3.96875,-1.322916 5.46807,0.17639 1.05833,1.05833 1.32292,2.82222 1.23472,4.233332 0,1.322917 -0.52916,2.645833 -1.23472,3.79236 -0.35279,0.705558 -0.79376,1.234724 -1.32293,1.852084 -0.52916,0.529166 -1.67569,0.705556 -1.94027,1.411113 0.26458,-0.617363 -0.61737,-1.14653 -0.97014,-0.617363 -1.05834,2.028474 2.02847,1.14653 2.82222,0.617363 1.94029,-1.234724 3.17501,-3.792363 3.61598,-5.997224 0.44097,-2.293054 -0.0882,-4.674305 -1.76389,-6.350005 -1.7639,-1.852077 -4.76251,-1.322907 -6.61459,0.17639 -0.52917,0.44098 0.17639,1.14653 0.70555,0.70556 z"
     style="fill:#000000;fill-opacity:1;fill-rule:nonzero;stroke:none;stroke-width:0.264583" />
  <path
     id="path14348"
     d="m 217.44235,29.519419 c 1.41111,-0.08819 2.64584,-0.440973 3.96875,-0.881944 1.7639,-0.440974 3.4396,-0.793751 5.11529,-1.411114 0.61736,-0.264582 0.35278,-1.234719 -0.35278,-1.058332 -0.44097,0.17639 -0.88194,0.264583 -1.41111,0.440973 -0.61736,0.17639 -0.35278,1.234722 0.26459,1.058332 0.52916,-0.176389 0.97013,-0.352777 1.4993,-0.440973 -0.0882,-0.352776 -0.26458,-0.705553 -0.35278,-1.058332 -1.41111,0.617363 -2.91041,0.970139 -4.49792,1.322916 -1.41111,0.352779 -2.73403,0.881946 -4.23334,0.970139 -0.70555,0 -0.70555,1.058335 0,1.058335 z"
     style="fill:#000000;fill-opacity:1;fill-rule:nonzero;stroke:none;stroke-width:0.264583" />
  <path
     id="path14350"
     d="m 217.61874,30.489558 c 1.23472,0.176388 2.11667,-0.529166 3.08681,-1.058333 1.49931,-0.881947 3.175,-1.587501 4.67431,-2.55764 0.52917,-0.352777 0,-1.234724 -0.52916,-0.881943 -0.0882,0 -0.17639,0.08819 -0.26459,0.176387 -0.61736,0.352779 -0.0882,1.234722 0.52917,0.881945 0.0882,-0.0882 0.17639,-0.0882 0.26458,-0.176389 -0.17639,-0.264583 -0.35277,-0.61736 -0.52916,-0.881943 -1.05834,0.61736 -2.20486,1.146526 -3.26321,1.763886 -1.14653,0.617363 -2.55764,1.852084 -3.96875,1.675697 -0.61736,-0.0882 -0.61736,0.970137 0,1.058333 z"
     style="fill:#000000;fill-opacity:1;fill-rule:nonzero;stroke:none;stroke-width:0.264583" />
  <path
     id="path14358"
     d="m 222.55764,49.980529 c -2.02848,2.998614 -3.2632,6.879167 -6.61459,8.819446 -0.26459,0.176387 -0.35278,0.617361 -0.0882,0.881944 0.97014,0.79375 2.20487,0.529167 3.35139,0.352777 1.76389,-0.264584 3.70418,-0.440971 5.29168,-1.058334 0.52917,-0.176387 0.52917,-0.793749 0,-0.970136 0,0 0,0 0.0882,0 -0.35277,-0.617364 -1.23472,-0.0882 -0.97014,0.529167 0.17639,0.264582 0.35278,0.352776 0.61737,0.440969 0,-0.264582 0,-0.617359 0,-0.970136 -1.23473,0.440971 -2.55765,0.440971 -3.88057,0.705554 -0.97014,0.176389 -2.82222,0.970139 -3.79236,0.176389 0,0.264583 -0.0882,0.529167 -0.0882,0.881943 3.52777,-2.116665 4.85069,-6.085416 7.05556,-9.260416 0.35277,-0.61736 -0.61736,-1.146527 -0.97014,-0.529167 z"
     style="fill:#000000;fill-opacity:1;fill-rule:nonzero;stroke:none;stroke-width:0.264583" />
  <path
     id="path14360"
     d="m 222.91042,51.303446 c -0.0882,0 -0.0882,0 -0.17639,-0.08819 -0.35278,-0.08819 -0.79375,0.264583 -0.61736,0.705556 0.44097,1.5875 0.88194,3.263194 1.23472,4.938887 0.44097,1.852085 1.05833,3.880557 0.44097,5.73264 0.35278,0 0.70556,0 1.05834,0 0,-0.264583 -0.0882,-0.440973 -0.0882,-0.705556 0.0882,-0.617361 -0.97014,-0.617361 -1.05834,0 0,0.440973 0,0.617363 0.0882,0.970139 0.0882,0.617362 0.88194,0.440975 1.05833,0 0.52917,-1.5875 0.17639,-3.175 -0.17639,-4.850692 -0.44097,-2.116668 -0.97014,-4.233334 -1.5875,-6.350001 -0.17639,0.176387 -0.44097,0.44097 -0.61736,0.61736 0,0 0.0882,0 0.0882,0 0.70555,0.176391 0.97013,-0.79375 0.35277,-0.97014 z"
     style="fill:#000000;fill-opacity:1;fill-rule:nonzero;stroke:none;stroke-width:0.264583" />
  <path
     id="path14362"
     d="m 223.175,51.215252 c -0.26458,-0.264583 -0.0882,0 0,0.264584 0.0882,0.352776 0.0882,0.705556 0.17639,1.058334 0.26458,1.234722 0.44097,2.469442 0.52916,3.704166 0.1764,1.76389 0.88195,5.291666 -0.26458,6.790974 0.26458,0.08819 0.52917,0.08819 0.79375,0.176387 0,-0.08819 0,-0.176387 -0.0882,-0.176387 0.17639,-0.705558 -0.88195,-0.970141 -0.97015,-0.352781 -0.0882,0.529168 -0.0882,0.617364 0.1764,1.058334 0.17639,0.264584 0.61735,0.352779 0.79375,0.0882 1.49931,-1.763893 0.88194,-5.115282 0.70556,-7.23195 -0.17639,-1.322916 -0.35278,-2.734026 -0.61738,-4.145136 -0.0882,-0.52917 -0.0882,-1.499307 -0.44097,-1.94028 -0.52916,-0.529167 -1.23471,0.264583 -0.79374,0.705556 z"
     style="fill:#000000;fill-opacity:1;fill-rule:nonzero;stroke:none;stroke-width:0.264583" />
  <path
     id="path14372"
     d="m 221.05833,87.022182 c 0,-2.028469 -2.02848,-1.852079 -3.175,-0.705551 -1.23473,1.322922 -1.5875,3.439582 -1.6757,5.203471 -0.26458,3.175001 0.97014,8.731248 5.37986,7.496532 2.99862,-0.79375 7.14376,-6.790971 3.61598,-9.260421 -3.35138,-2.381251 -7.76112,3.2632 -8.46667,6.085421 -0.17639,0.617357 0.88194,0.881938 1.05833,0.264578 0.52917,-2.293049 3.175,-5.644437 5.73265,-5.82083 1.94028,-0.17639 1.94028,2.29305 1.5875,3.527781 -0.44097,1.587501 -1.67569,2.998611 -3.08681,3.79236 -3.08681,1.94028 -4.58612,-1.85209 -4.76251,-4.321532 -0.0882,-1.234717 0,-2.557639 0.26459,-3.792359 0.17639,-0.52917 0.35278,-1.058329 0.61736,-1.587501 0.17639,-0.440968 1.85208,-2.293059 1.85208,-0.881949 0.0882,0.705559 1.14653,0.705559 1.05834,0 z"
     style="fill:#000000;fill-opacity:1;fill-rule:nonzero;stroke:none;stroke-width:0.264583" />
  <path
     id="path14374"
     d="m 218.50069,92.754822 c -1.49931,1.234731 -1.49931,5.203481 0.88194,5.37986 0.70556,0 0.70556,-1.05833 0,-1.05833 -1.14653,-0.0882 -1.05833,-2.822218 -0.35278,-3.35139 0.52917,-0.440971 0,-1.322909 -0.52916,-0.97014 z"
     style="fill:#000000;fill-opacity:1;fill-rule:nonzero;stroke:none;stroke-width:0.264583" />
  <path
     id="path14376"
     d="m 217.17777,93.813163 c -0.0882,2.293049 0.97014,7.761107 4.23333,5.203471 0.52918,-0.440971 -0.26458,-1.146532 -0.79375,-0.705562 -2.02847,1.5875 -2.38125,-3.263187 -2.38125,-4.497909 0.0882,-0.61736 -0.97014,-0.61736 -1.05833,0 z"
     style="fill:#000000;fill-opacity:1;fill-rule:nonzero;stroke:none;stroke-width:0.264583" />
  <path
     id="path14378"
     d="m 219.02985,86.140241 c -0.88194,0 -1.4993,0.705562 -1.67569,1.5875 -0.0882,0.264581 0.0882,0.529172 0.35278,0.617361 0.26458,0.0882 0.61736,-0.0882 0.61736,-0.35278 0.0882,-0.264581 0.17639,-0.44097 0.26458,-0.61736 0.0882,-0.0882 0.0882,-0.0882 0.17639,-0.0882 0.0882,-0.0882 0.17639,-0.0882 0.26458,-0.0882 0.70556,0 0.70556,-1.058328 0,-1.058328 z"
     style="fill:#000000;fill-opacity:1;fill-rule:nonzero;stroke:none;stroke-width:0.264583" />
  <path
     id="path14396"
     d="m 215.67846,161.01736 c 0.44098,-1.85208 1.49931,-3.79237 2.64584,-5.29167 -0.35278,-0.0882 -0.70556,-0.17639 -0.97014,-0.26459 0.52917,6.79099 -0.44097,13.58196 -0.17639,20.37294 0.0882,0.61736 0.88194,0.70556 1.05833,0.0882 0.26459,-0.70555 0.35278,-1.23472 0.26459,-2.02848 -0.0882,-0.61736 -1.14653,-0.61736 -1.05834,0 0.0882,0.61737 0,1.14654 -0.17639,1.7639 0.26459,0.0882 0.61737,0.0882 0.97014,0.17639 -0.26458,-6.79098 0.70556,-13.58195 0.17639,-20.37294 -0.0882,-0.52916 -0.70555,-0.70555 -1.05833,-0.26458 -1.14653,1.5875 -2.20486,3.61598 -2.73403,5.55626 -0.17639,0.61736 0.88195,0.88194 1.05833,0.26458 z"
     style="fill:#000000;fill-opacity:1;fill-rule:nonzero;stroke:none;stroke-width:0.264583" />
  <path
     id="path14398"
     d="m 224.58611,158.37153 c -1.5875,-1.41112 -3.08681,0.44097 -3.61598,2.02847 -0.61736,1.5875 -0.52917,3.52778 -0.52917,5.20347 0.0882,2.38125 0.70556,8.64307 4.58613,6.96737 2.82222,-1.32292 2.20486,-6.61459 1.94027,-8.90764 -0.26458,-1.76389 -1.23472,-7.32015 -4.05694,-6.6146 -0.70556,0.17639 -0.44097,1.23474 0.26458,1.05834 1.5875,-0.44098 2.38125,3.88056 2.55764,4.8507 0.52917,2.38125 0.79375,5.46806 -0.35278,7.67292 -0.44097,0.97014 -1.49931,1.4993 -2.46944,0.79375 -1.05833,-0.97014 -1.23473,-3.08681 -1.32293,-4.32153 -0.0882,-1.41111 -0.0882,-2.82222 0,-4.14514 0.0882,-0.79375 0.79376,-5.11529 2.20487,-3.79236 0.52917,0.44097 1.32292,-0.35278 0.79375,-0.79375 z"
     style="fill:#000000;fill-opacity:1;fill-rule:nonzero;stroke:none;stroke-width:0.264583" />
  <path
     id="path14400"
     d="m 223.08681,156.96041 c -0.79375,-0.26458 -1.58751,-0.26458 -2.29307,0.17639 -0.52916,0.26458 -0.17639,1.05833 0.35278,0.97014 0.61737,-0.17639 1.23473,0.1764 1.41112,0.79376 0.17639,0.61736 1.14653,0.35277 0.97014,-0.26459 -0.35278,-1.14653 -1.49931,-1.85209 -2.64584,-1.58751 0.17639,0.35278 0.26458,0.70556 0.44097,0.97014 0.44098,-0.26458 0.97015,-0.17639 1.41112,-0.0882 0.70556,0.26458 0.97014,-0.79375 0.35278,-0.97014 z"
     style="fill:#000000;fill-opacity:1;fill-rule:nonzero;stroke:none;stroke-width:0.264583" />
  <path
     id="path14402"
     d="m 222.55764,157.75416 c -2.55765,-2.64583 -2.64584,3.70418 -2.64584,4.9389 0,2.46944 0.17639,8.73125 3.61598,9.08403 0.61736,0 0.61736,-1.05834 0,-1.05834 -2.29307,-0.26458 -2.46945,-5.82083 -2.55765,-7.32014 0,-0.79375 0,-1.4993 0,-2.20486 0,-0.52916 0.0882,-3.43959 0.88196,-2.64583 0.44097,0.52917 1.23472,-0.26458 0.70555,-0.79376 z"
     style="fill:#000000;fill-opacity:1;fill-rule:nonzero;stroke:none;stroke-width:0.264583" />
  <path
     id="path14404"
     d="m 223.61597,158.98889 c 1.49931,3.96875 3.2632,8.0257 2.55764,12.34722 -0.0882,0.61736 0.88195,0.97014 0.97014,0.26459 0.79375,-4.58611 -0.97014,-8.73125 -2.55764,-12.87639 -0.26458,-0.61737 -1.23472,-0.35278 -0.97014,0.26458 z"
     style="fill:#000000;fill-opacity:1;fill-rule:nonzero;stroke:none;stroke-width:0.264583" />
  <path
     id="path14406"
     d="m 217.44235,175.39307 c -0.0882,-5.64446 2.91042,-11.81807 0.26459,-17.19794 -0.26459,-0.61736 -1.23473,-0.0882 -0.88195,0.52918 2.46945,5.11528 -0.52916,11.28889 -0.44097,16.66876 0,0.70555 1.05833,0.70555 1.05833,0 z"
     style="fill:#000000;fill-opacity:1;fill-rule:nonzero;stroke:none;stroke-width:0.264583" />
  <path
     id="path14408"
     d="m 217.61874,173.27639 c -0.17639,-5.46805 0.52917,-10.93611 0.17639,-16.40418 0,-0.61736 -0.88194,-0.70555 -1.05833,-0.17638 -0.17639,0.70555 -0.35278,1.23472 -0.35278,1.94028 0,0.70556 1.05833,0.70556 1.05833,0 0,-0.61737 0.17639,-1.05834 0.35278,-1.58751 -0.35278,-0.0882 -0.70555,-0.0882 -1.05833,-0.17639 0.35278,5.46807 -0.35278,10.93613 -0.17639,16.40418 0,0.70556 1.05833,0.70556 1.05833,0 z"
     style="fill:#000000;fill-opacity:1;fill-rule:nonzero;stroke:none;stroke-width:0.264583" />
</svg>
