<svg width="200mm" height="200mm" version="1.1" viewBox="0 0 200 200" xmlns="http://www.w3.org/2000/svg">
 <g fill="#960000">
  <path d="m81.629 11.565c-0.17639 8.2903 0.35277 16.581 0.35277 24.871-0.0882 10.848-0.61736 21.784-0.52916 32.72 0 11.553 0.35278 23.107 0.35278 34.66 0 11.642 0 23.283-0.0882 34.925 0 16.228-0.0882 32.456-0.0882 48.595 0 0.35277 0.52916 0.35277 0.52916 0 0-22.754 0.17639-45.508 0.17639-68.262 0-11.553 0.0882-23.195-0.0882-34.837-0.17639-11.201-0.26458-22.313 0-33.514 0.17639-7.4083 0.35278-14.905 0.17639-22.313-0.0882-5.6444-0.35278-11.289-0.26458-16.845 0-0.35278-0.52917-0.35278-0.52917 0z"/>
  <path d="m152.54 10.771c-0.97014 4.9389-0.70555 9.966-0.44097 14.905 0.26458 5.4681 0.26458 10.936 0.26458 16.404 0.0882 11.553 0.26459 23.195 0.0882 34.837-0.0882 11.553-0.35278 23.195-0.52917 34.837-0.0882 9.084 0.0882 18.08 0.17639 27.164 0.0882 16.581-0.0882 33.161-0.0882 49.653 0 0.35278 0.52916 0.35278 0.52916 0 0-17.374 0.17639-34.837 0.0882-52.211-0.17639-21.519 0.35278-42.951 0.44097-64.382 0-10.407-0.0882-20.902-0.17639-31.309 0-5.0271 0-9.966-0.26458-14.993-0.26459-4.9389-0.52917-9.8778 0.44097-14.817 0-0.35278-0.44097-0.44097-0.52917-0.08819z"/>
  <path d="m134.9 10.948c0 46.743-0.70555 93.398-0.26458 140.05 0.0882 12.524 0.17639 25.047-0.26458 37.571 0 0.35278 0.52916 0.35278 0.52916 0 0.88195-22.578 0.17639-45.244 0.17639-67.822 0.0882-23.46 0.17639-46.919 0.26459-70.379 0-13.141 0.0882-26.282 0.0882-39.423 0-0.26458-0.52917-0.26458-0.52917 0z"/>
  <path d="m47.497 189.54c0-45.861 0-91.81-0.44098-137.67 0-6.7028 0.44098-13.317 0.26459-19.932-0.17639-6.5264-0.61736-13.053 0.70555-19.403 0.0882-0.35278-0.44097-0.52917-0.52916-0.17639-0.97014 4.9389-0.97014 10.054-0.79375 15.081 0.0882 5.3799 0.0882 10.76-0.0882 16.14-0.26459 11.553 0.17638 23.195 0.17638 34.749 0 23.283-0.0882 46.567 0 69.85 0.0882 13.758 0.17639 27.605 0.17639 41.363 0 0.35277 0.52917 0.35277 0.52917 0z"/>
  <path d="m170.26 189.98c-0.44098-46.655 0.0882-93.31 0.17639-140.05 0-12.171-0.17639-24.342-0.17639-36.512 0-0.26458-0.52917-0.26458-0.52917 0 0 22.931 0.17639 45.861 0.0882 68.792-0.0882 23.283-0.26458 46.655-0.26458 69.938 0 12.612 0.0882 25.224 0.17639 37.835 0 0.35278 0.52917 0.35278 0.52917 0z"/>
  <path d="m99.709 11.3c-0.17639 46.831 0 93.662 0 140.58v27.958c0 2.9104 0.61736 6.4382-0.61736 9.084-0.17639 0.35277 0.26458 0.61736 0.44097 0.26458 0.79375-1.7639 0.79375-3.5278 0.70555-5.4681-0.0882-2.8222 0-5.7326 0-8.5549v-51.859c0-23.46-0.0882-47.008-0.0882-70.467 0-13.847 0-27.693 0.0882-41.54 0-0.35278-0.52916-0.35278-0.52916 0z"/>
  <path d="m65.136 189.36c0-46.478-0.17639-92.869-0.26459-139.35-0.0882-13.317-0.0882-26.547-0.0882-39.864 0-0.35278-0.52916-0.35278-0.52916 0 0 46.478 0.26458 92.869 0.35277 139.26v39.952c0 0.35278 0.52917 0.35278 0.52917 0z"/>
  <path d="m28.977 11.83c-0.97014 5.2035-0.44097 10.495-0.26458 15.875 0.26458 5.3799 0.17639 10.76 0.0882 16.14-0.17639 10.319-0.26458 20.549-0.17639 30.868 0.17639 22.842 0 45.773 0 68.615v25.135c-0.0882 4.057-0.0882 8.0257 0 12.083 0.0882 3.2632 0.0882 6.1736-0.52917 9.4368-0.0882 0.26458 0.44098 0.44097 0.44098 0.0882 0.88194-3.9688 0.52916-7.8493 0.52916-11.994 0-5.3799 0.0882-10.76 0.0882-16.14v-33.249c-0.0882-22.754-0.17639-45.508-0.0882-68.174 0-7.6729 0.26459-15.258 0.26459-22.842 0.0882-4.2333 0-8.4667-0.17639-12.612-0.26459-4.4097-0.44098-8.8194 0.26458-13.141 0.0882-0.35278-0.44097-0.44097-0.44097-0.0882z"/>
  <path d="m117.44 189.45c0-11.289 0.26459-22.578 0.17639-33.867-0.0882-11.553-0.52916-23.107-0.44097-34.66 0.0882-11.642 0.35278-23.283 0.44097-34.925 0.0882-10.672-0.0882-21.255-0.17639-31.926-0.17638-7.8493-0.17638-15.787-0.26458-23.724-0.0882-3.7924-0.0882-7.5847-0.0882-11.377v-4.3215c0.0882-0.70556-0.0882-1.5875 0.17639-2.2049 0.17638-0.35278-0.35278-0.52917-0.52917-0.17639-0.35278 1.0583-0.17639 2.6458-0.17639 3.7924v8.1139c0.0882 5.0271 0.0882 9.966 0.17639 14.905 0.26458 19.844 0.52917 39.688 0.17639 59.531-0.26459 15.258-0.52917 30.603-0.0882 45.861 0.52917 14.993 0.0882 29.986 0.0882 44.979 0 0.35278 0.52916 0.35278 0.52916 0z"/>
  <path d="m189.93 153.47c-3.8806-0.61736-7.7611-0.44097-11.642-0.26458-4.4097 0.17638-8.8194 0.26458-13.229 0.26458-11.465 0-22.842 0-34.308-0.0882-20.108-0.17638-40.393-0.35277-60.501 0.0882-4.5861 0.0882-9.1722 0.26458-13.67 0-5.909-0.35278-11.73 0.26458-17.551 0.17639-8.6431-0.0882-17.198-0.17639-25.753-0.17639-0.35278 0-0.35278 0.52917 0 0.52917 6.4382 0 12.965 0.0882 19.403 0.17638h8.2021c4.4979 0 8.9958-0.52916 13.494-0.35277 6.8792 0.35277 13.67 0.26458 20.461 0.0882 9.7014-0.17639 19.315-0.0882 28.928-0.0882 15.61 0 31.221 0.17639 46.831 0.17639 7.2319 0 14.464 0.17638 21.784 0 5.7326-0.17639 11.642-0.88195 17.374 0 0.35278 0.0882 0.52917-0.44098 0.17639-0.52917z"/>
  <path d="m187.29 170.93c-20.814 0.35278-41.716-0.0882-62.618 0-11.465 0-22.842 0.44097-34.308 0.26458-11.024-0.17639-21.96-0.17639-32.897-0.26458-8.2021 0-16.404 0.61736-24.606 0.35278-3.9688-0.0882-7.8493-0.52917-11.818-0.61736-3.175 0-6.2618 0.26458-9.4368 0.26458-0.35278 0-0.35278 0.52917 0 0.52917 4.0569 0 8.0257-0.35278 12.083-0.17639 5.3799 0.26458 10.672 0.61736 16.051 0.61736 5.2917-0.0882 10.583-0.44097 15.875-0.44097 5.2035 0 10.495 0.17638 15.699 0.0882 11.377-0.0882 22.754 0.44097 34.131 0.17639s22.754-0.35278 34.131-0.26458c15.963 0 31.838 0.26458 47.713 0 0.35278 0 0.35278-0.52917 0-0.52917z"/>
  <path d="m188.17 135.39c-22.49 0.0882-44.979 0.26458-67.381 0.26458-10.76 0-21.431-0.0882-32.103-0.26458-9.7896-0.26459-19.579-0.0882-29.369 0.0882-15.875 0.26459-31.75 0-47.625 0.17639-0.35278 0-0.35278 0.52917 0 0.52917 11.289-0.0882 22.578 0 33.955-0.0882 10.407 0 20.814-0.35277 31.221-0.35277 10.495-0.0882 20.902 0.35277 31.397 0.44097h32.279c15.875-0.0882 31.75-0.26459 47.625-0.26459 0.26458 0 0.26458-0.52916 0-0.52916z"/>
  <path d="m187.37 117.84c-11.642 0-23.372 0-35.101 0.17639-11.465 0.0882-22.931-0.26458-34.396-0.35278-11.642-0.0882-23.283 0.26459-34.925 0.26459h-32.808c-6.791 0-13.758 0.44097-20.549 0-3.0868-0.26459-6.1736 0-9.3486 0-1.5875 0-3.0868 0.17639-4.6743 0.0882-1.4111-0.17639-2.734-0.17639-4.1451 0.0882-0.26459 0.0882-0.17639 0.52916 0.17639 0.52916 2.4694-0.44097 5.0271-0.0882 7.4083-0.17639 2.734-0.0882 5.4681-0.17638 8.1139-0.17638 2.5576 0 5.1153 0.26458 7.5847 0.26458 2.9104 0.0882 5.7326 0 8.5549 0 11.024-0.0882 22.049-0.0882 33.073-0.0882 11.553 0 23.019-0.17638 34.572-0.26458 11.465-0.0882 23.019 0.44097 34.484 0.35278 14.023 0 28.046-0.17639 41.981-0.17639 0.35278 0 0.35278-0.52917 0-0.52917z"/>
  <path d="m188.43 82.65c-2.1167-0.44097-4.2333-0.08819-6.4382 0.08819-2.9104 0.26458-5.8208 0-8.7312 0-5.8208-0.17639-11.553-0.17639-17.374-0.08819-11.73 0.17639-23.46 0.26458-35.19-0.08819-11.377-0.44097-22.754 0-34.131 0.17639-11.465 0.26458-22.931-0.17639-34.484 0-8.3785 0.0882-16.669-0.44097-25.047-0.26458-5.2917 0.0882-10.495 0.35278-15.699 0.35278-0.35277 0-0.35277 0.52917 0 0.52917 5.2035 0 10.407-0.26458 15.699-0.35278 8.5549-0.17639 17.11 0.35278 25.753 0.26458 11.465-0.17639 23.019 0.17639 34.484 0 11.377-0.26458 22.754-0.61736 34.131-0.17639 11.289 0.35278 22.49 0.26458 33.778 0.08819 5.5562-0.08819 11.112-0.08819 16.669 0 2.8222 0.08819 5.5562 0.17639 8.3785 0.17639 2.6458 0 5.3799-0.70556 8.1139-0.26458 0.35278 0.08819 0.44097-0.44097 0.0882-0.44097z"/>
  <path d="m187.37 48.077c-5.2035-0.44097-10.407-0.44097-15.699-0.35278-5.3799 0.08819-10.848 0-16.316 0.08819-11.377 0.0882-22.666 0.35278-34.043 0-21.167-0.61736-42.422 0-63.676-0.08819-15.787-0.08819-31.574-0.52917-47.36 0.26458-0.26458 0-0.26458 0.52917 0 0.52917 19.932-0.97014 39.776-0.17639 59.708-0.26458 10.495-0.08819 21.078-0.17639 31.662-0.17639 10.495 0 20.99 0.61736 31.574 0.61736 9.4368 0 18.874-0.52917 28.31-0.35278 8.643 0.0882 17.286-0.44097 25.841 0.26458 0.35278 0.0882 0.35278-0.44097 0-0.52917z"/>
  <path d="m187.9 29.909c-5.4681-0.44097-11.024-0.26458-16.492-0.0882-5.7326 0.17639-11.465 0.26458-17.198 0.35278-11.377 0.17639-22.842-0.26458-34.308-0.17639-5.6444 0-11.201-0.17639-16.845-0.08819-5.6444 0.08819-11.201 0.17639-16.845-0.0882-5.5562-0.26458-11.024-0.35277-16.581-0.17638-5.2917 0.17639-10.583 0.52917-15.787 0.61736-14.376 0.17639-28.751-0.61736-43.039-0.70556-0.35278 0-0.35278 0.52917 0 0.52917 10.407 0.0882 20.814 0.52917 31.221 0.61736 10.495 0.08819 20.902-0.44097 31.397-0.61736 5.6444-0.17639 11.289 0.26458 16.933 0.35278 5.5562 0.17639 11.112 0 16.757 0 5.5562 0 11.201 0.08819 16.845 0 5.7326-0.0882 11.465 0.26458 17.198 0.35278 7.8493 0.08819 15.699-0.17639 23.46-0.26458 7.7611-0.17639 15.522-0.70556 23.283-0.08819 0.35277 0 0.35277-0.52917 0-0.52917z"/>
  <path d="m190.37 100.02c-5.0271 0-9.966 0.61736-15.081 0.35277-5.5562-0.26458-11.112-0.26458-16.757 0.0882-5.7326 0.26458-11.377 0.52916-17.11 0.17639-5.7326-0.26459-11.465-0.61736-17.198-0.70556-11.553 0-23.107 0.79375-34.66 0.88195-5.7326 0.0882-11.465-0.26459-17.198-0.17639-5.6444 0-11.377 0.17639-17.11-0.26459-14.023-1.1465-28.222 1.6757-42.245-0.35277-0.35278-0.0882-0.44097 0.44097-0.0882 0.52916 5.2035 0.70556 10.495 0.70556 15.787 0.52917 5.6444-0.17639 11.289-0.17639 17.022-0.35278s11.377 0.44097 17.11 0.44097c5.7326 0.0882 11.465-0.0882 17.11 0.0882 11.553 0.35278 23.019-0.26459 34.572-0.61736 5.7326-0.17639 11.553-0.17639 17.286 0s11.377 0.79375 17.11 0.70555c7.3201-0.0882 14.464-0.88194 21.784-0.61736 3.2632 0.0882 6.5264 0.44097 9.7896 0.35278 3.2632-0.0882 6.6146-0.52917 9.8778-0.52917 0.35278 0 0.35278-0.52916 0-0.52916z"/>
  <path d="m186.4 65.452c-22.578-0.08819-45.244-0.08819-67.822-0.17639-11.642-0.08819-23.195-0.17639-34.749-0.17639-11.201 0.08819-22.401 0.44097-33.602 0.17639-7.1438-0.17639-14.288-0.08819-21.519 0-3.5278 0-7.0556-0.08819-10.583-0.35278-2.9986-0.26458-5.6444 0.44097-8.6431 0.70556-0.35278 0.08819-0.35278 0.61736 0 0.52917 2.0285-0.17639 3.9687-0.70556 5.909-0.88195 2.6458-0.17639 5.468 0.35278 8.1139 0.44097 5.3799 0.17639 10.76 0 16.14-0.08819 5.5562-0.0882 11.112 0.17639 16.581 0.26458 5.6444 0 11.201 0 16.757-0.0882 22.931-0.35278 45.773 0 68.703 0.0882 14.905 0 29.81 0.08819 44.715 0.08819 0.35278 0 0.35278-0.52917 0-0.52917z"/>
 </g>
 <path d="m14.601 12.711c-0.0882-0.17639 0.79375-1.4993 0.97014-1.7639 0.52917-0.88194 1.1465-1.7639 1.6757-2.6458 1.0583-1.6757 2.2931-3.2632 3.175-4.9389 0.0882-0.26458 0.17639-0.52917 0.26459-0.79375 0.0882-0.08819 0.44097 0.79375 0.52916 0.97014 0.35278 1.0583 0.52917 2.1167 0.79375 3.0868 0.17639 0.97014 1.6757 6.0854 0.88195 6.35-0.61736 0.17639-0.35278 1.2347 0.26458 0.97014 2.3812-0.70556 0.35278-4.9389 0.0882-6.6146-0.26458-1.0583-0.79374-6.35-2.8222-5.909-0.70555 0.08819-0.88194 1.3229-1.1465 1.8521-0.79375 1.3229-1.6757 2.5576-2.4694 3.7924-0.88194 1.3229-1.8521 2.734-2.5576 4.1451-0.35277 0.52917-0.88194 1.3229-0.52916 2.0285 0.26458 0.61736 1.2347 0.08819 0.88194-0.52917z"/>
 <path d="m14.424 12.182c0.44097-4.1451 4.4097-7.2319 6.7028-10.407 0.35278-0.52917-0.52917-1.0583-0.88194-0.52917-2.4694 3.3514-6.4382 6.5264-6.8792 10.936-0.0882 0.61736 0.97014 0.61736 1.0583 0z"/>
 <path d="m14.424 9.8892c0.61736 1.0583 2.1167 0.97014 3.175 0.79375 1.8521-0.26458 3.5278-0.88194 5.3799-1.2347 0.61736-0.08819 0.35278-1.1465-0.35277-0.97014-1.1465 0.17639-2.2931 0.52917-3.4396 0.79375-0.79375 0.17639-3.3514 0.97014-3.8806 0.08819-0.35278-0.52917-1.2347 0-0.88195 0.52917z"/>
 <path d="m34.18 3.7156c0.35278 2.3812 0.70555 4.8507 1.5875 7.1437 0.26458 0.61736 1.3229 0.35278 1.0583-0.26458-0.97014-2.2931-1.3229-4.7625-1.6757-7.2319-0.0882-0.61736-1.1465-0.35278-0.97014 0.35278z"/>
 <path d="m34.356 4.333c0.97014-0.52917 2.0285-0.88194 3.0868-1.3229 0.97014-0.35278 2.5576-1.0583 3.7042-0.88194-0.17639 0-0.0882-0.08819-0.35278 0.26458-0.26458 0.26458-0.52916 0.44097-0.88194 0.70556-0.61736 0.44097-1.2347 0.79375-1.9403 1.1465-1.0583 0.61736-2.2049 1.2347-3.3514 1.5875-0.61736 0.26458-0.35278 1.2347 0.26458 1.0583 1.6757-0.52917 3.2632-1.4993 4.7625-2.3812 0.79375-0.44097 2.9986-1.6757 2.3812-2.9104-0.52916-1.0583-2.6458-0.35278-3.4396-0.08819-1.5875 0.52917-3.2632 1.1465-4.7625 1.9403-0.61736 0.35278-0.0882 1.2347 0.52917 0.88194z"/>
 <path d="m36.297 5.9205c1.5875-0.88194 6.4382-0.97014 5.7326 1.8521-0.44097 2.1167-4.7625 2.3812-6.4382 2.3812-0.70556 0-0.70556 1.0583 0 1.0583 2.5576 0 7.6729-0.61736 7.5847-4.0569-0.0882-3.3514-5.3799-3.3514-7.4083-2.2049-0.52917 0.35278 0 1.2347 0.52917 0.97014z"/>
 <path d="m34.885 6.0087c1.4111-0.44097 2.9104-0.44097 4.3215-0.35278 0.79375 0.08819 1.5875 0.17639 2.2049 0.52917 0.97014 0.52917 0.26459 1.4993-0.17639 2.0285-0.44097 0.52917 0.26459 1.3229 0.70556 0.79375 1.4111-1.6757 1.3229-3.3514-0.79375-4.0569-1.8521-0.70556-4.5861-0.61736-6.5264 0.0882-0.61736 0.17639-0.35278 1.2347 0.26458 0.97014z"/>
 <path d="m36.385 10.948c1.8521 0.97014 3.5278-0.17639 4.8507-1.4993 0.52917-0.52917-0.26458-1.2347-0.70555-0.79375-0.97014 0.97014-2.2931 2.1167-3.616 1.3229-0.61736-0.26458-1.1465 0.61736-0.52917 0.97014z"/>
 <path d="m33.915 2.3927c0.52916 2.8222 2.1167 5.2917 2.2049 8.2021 0 0.70555 1.0583 0.70555 1.0583 0-0.0882-2.9986-1.6757-5.5562-2.2931-8.4667-0.0882-0.70555-1.1465-0.44097-0.97013 0.26458z"/>
 <path d="m59.227 3.451c-1.7639-0.79375-3.616-0.88194-5.2035 0.44097-1.4993 1.2347-1.7639 3.7042-1.1465 5.3799 1.1465 3.5278 6.2618 1.3229 8.2903 0 0.52917-0.35278 0-1.2347-0.52917-0.88194-1.5875 0.97014-4.5861 2.6458-6.2618 1.2347-1.2347-0.88194-0.79375-3.175-0.17639-4.3215 0.88194-1.6757 2.9986-1.5875 4.4979-0.97014 0.61737 0.26458 1.1465-0.61736 0.52917-0.88194z"/>
 <path d="m58.433 2.7455c-3.0868-2.3812-6.4382 1.7639-6.7028 4.6743-0.35277 3.7042 5.1153 5.5562 7.7611 3.7924 0.52917-0.44097 0-1.3229-0.52916-0.97014-2.1167 1.4993-5.8208 0.08819-6.1736-2.5576-0.26459-2.3812 2.9104-5.7326 5.1153-4.0569 0.52917 0.44097 1.0583-0.52917 0.52917-0.88194z"/>
 <path d="m59.051 10.771c0.52917-0.26458 1.0583-0.61736 1.3229-1.2347 0.17639-0.26458 0.0882-0.52917-0.17639-0.70556-0.26458-0.08819-0.61736-0.08819-0.70556 0.17639-0.0882 0.17639-0.17638 0.35278-0.35277 0.44097-0.0882 0.08819-0.0882 0.08819-0.17639 0.17639-0.0882 0-0.0882 0.08819-0.17639 0.08819-0.17639 0.08819 0.0882 0-0.0882 0-0.26458 0.08819-0.44097 0.35278-0.35278 0.70556 0.0882 0.26458 0.44097 0.44097 0.70556 0.35278z"/>
 <path d="m69.281 2.3045c0.97014 3.4396 2.2049 6.8792 2.5576 10.495 0.0882 0.70556 1.0583 0.70556 1.0583 0v-0.70556c0-0.61736-1.0583-0.61736-1.0583 0v0.70556h1.0583c-0.35278-3.7042-1.5875-7.2319-2.5576-10.848-0.17639-0.61736-1.2347-0.35278-1.0583 0.35278z"/>
 <path d="m69.281 2.5691c2.4694-1.0583 5.3799 1.2347 6.1736 3.5278 0.52917 1.7639-2.3812 5.4681-4.3215 4.9389-0.70555-0.17639-0.97014 0.79375-0.26458 0.97014 2.6458 0.79375 5.909-3.175 5.6444-5.6444-0.35278-3.3514-4.7625-5.9972-7.7611-4.6743-0.61736 0.26458-0.0882 1.1465 0.52917 0.88194z"/>
 <path d="m70.604 2.7455c2.2049-0.26458 4.2333 1.9403 5.1153 3.616 1.4993 2.8222-2.293 3.5278-3.7042 5.0271-0.44098 0.52917 0.26458 1.2347 0.79375 0.79375 1.0583-1.2347 2.734-1.4993 3.7924-2.734 0.70555-0.88194 0.61736-2.1167 0.26458-3.0868-0.79375-2.2931-3.7042-4.9389-6.2618-4.6743-0.61736 0.08819-0.61736 1.1465 0 1.0583z"/>
 <path d="m85.774 2.5691c0 2.4694 0.52917 4.9389 2.3812 6.7028 1.8521 1.7639 4.5861 1.4993 6.8792 0.61736 0.61736-0.17639 0.35277-1.2347-0.35278-0.97014-1.9403 0.79375-4.057 0.97014-5.7326-0.44097-1.7639-1.3229-2.1167-3.7924-2.1167-5.909 0-0.61736-1.0583-0.61736-1.0583 0z"/>
 <path d="m86.744 6.3614c1.9403-0.97014 4.3215 0.52917 6.35 0.26458 0.70555-0.08819 0.70555-1.1465 0-1.0583-2.2931 0.35278-4.5861-1.2347-6.8792-0.17639-0.61736 0.35278-0.0882 1.2347 0.52917 0.97014z"/>
 <path d="m85.068 3.451c3.3514 0.17639 6.7028 0.08819 10.054-0.35278 0.70556-0.08819 0.35278-1.1465-0.26458-0.97014-3.2632 0.44097-6.5264 0.44097-9.7896 0.26458-0.61736 0-0.61736 1.0583 0 1.0583z"/>
 <path d="m86.038 4.333c3.4396-0.08819 6.791-0.52917 10.142-1.4993 0.61736-0.17639 0.35278-1.1465-0.26458-0.97014-3.2632 0.88194-6.5264 1.3229-9.8778 1.4111-0.70555 0-0.70555 1.0583 0 1.0583z"/>
 <path d="m103.94 3.1864c-0.17639 2.0285 0.61736 4.4097 1.4111 6.1736 0.52917 1.3229 1.4993 3.616 3.2632 3.2632 0.70556-0.08819 0.44098-1.1465-0.26458-0.97014-1.2347 0.17639-2.2931-3.3514-2.5576-4.0569-0.44097-1.4111-0.88194-2.9986-0.79375-4.4097 0.0882-0.70556-0.97014-0.70556-1.0583 0z"/>
 <path d="m103.59 4.0684c2.9986-0.79375 6.9674-1.1465 9.966 0-0.0882-0.35278-0.0882-0.70556-0.17639-0.97014-0.17639 0.08819-0.35277 0.08819-0.52916 0.17639-0.70556 0.08819-0.44098 1.1465 0.26458 0.97014 0.35278 0 0.52917-0.08819 0.79375-0.26458 0.52917-0.17639 0.26458-0.79375-0.0882-0.97014-3.175-1.1465-7.3201-0.79375-10.495 0-0.70556 0.17639-0.44098 1.2347 0.26458 1.0583z"/>
 <path d="m102.8 4.2448c3.5278-0.88194 7.2319-0.70556 10.848-0.97014 0.70555-0.08819 0.70555-1.1465 0-1.0583-3.7042 0.35278-7.4965 0.08819-11.201 1.0583-0.61736 0.17639-0.35278 1.1465 0.35278 0.97014z"/>
 <path d="m104.82 6.5378h-0.44097c-0.26458 0-0.52917 0.26458-0.52917 0.52917 0 1.0583 1.9403 1.1465 2.6458 1.1465 1.6757-0.08819 3.3514-0.70556 4.9389-1.1465 0.70555-0.17639 0.44097-1.1465-0.26459-0.97014-0.97014 0.26458-1.9403 0.52917-2.9104 0.79375-0.70556 0.17639-1.4111 0.26458-2.1167 0.26458-0.26458 0-0.52917-0.0882-0.79375-0.0882-0.61736-0.17639-0.44097-0.17639-0.44097 0l-0.52917 0.52917h0.44097c0.70556 0 0.70556-1.0583 0-1.0583z"/>
 <path d="m132.96 4.333c-1.9403-5.5562-10.319-1.1465-10.583 3.3514-0.26459 5.2035 9.1722 3.3514 11.201 0.79375 0.44097-0.52917-0.26458-1.2347-0.70555-0.70556-1.5875 1.8521-7.6729 3.5278-9.2604 0.88194-1.8521-2.9986 6.6146-8.9076 8.2903-4.0569 0.26458 0.70556 1.2347 0.35278 1.0583-0.26458z"/>
 <path d="m128.37 7.5962c1.8521-0.35278 3.7924-0.17639 5.7326-0.35278-0.0882-0.35278-0.17639-0.61736-0.26459-0.97014-1.0583 0.61736-1.9403 1.3229-2.734 2.2931-0.35278 0.52917 0.35277 1.3229 0.79375 0.79375 0.70555-0.97014 1.4993-1.5875 2.4694-2.2049 0.44097-0.26458 0.35278-1.0583-0.26458-0.97014-2.0285 0.17639-4.057 0.08819-6.0854 0.35278-0.61736 0.08819-0.35278 1.1465 0.35278 1.0583z"/>
 <path d="m127.67 7.508c1.8521 1.0583 4.2333 0.35278 5.9972-0.26458-0.0882-0.35278-0.26459-0.70556-0.35278-0.97014-0.17639 0.08819-0.35278 0.08819-0.44097 0.17639-0.70556 0.17639-0.44098 1.1465 0.26458 0.97014 0.26458 0 0.44097-0.08819 0.70555-0.26458 0.52917-0.26458 0.17639-1.1465-0.44097-0.97014-1.4993 0.52917-3.616 1.3229-5.2035 0.44097-0.52917-0.35278-1.0583 0.52917-0.52917 0.88194z"/>
 <path d="m124.23 9.36c-2.4694-0.70556-0.52917-2.734 0.61736-3.7924 1.1465-1.0583 2.8222-2.3812 4.4097-2.734 0.70556-0.08819 0.35278-1.1465-0.26458-0.97014-2.734 0.52917-10.848 6.8792-5.0271 8.5549 0.61736 0.17639 0.88194-0.88194 0.26458-1.0583z"/>
 <path d="m123.35 8.6545c-2.2931-2.4694 5.5562-4.5861 7.0556-5.2035 0.61736-0.26458 0.35278-1.2347-0.26458-0.97014-2.2931 0.88194-11.024 3.0868-7.5847 6.9674 0.44097 0.52917 1.2347-0.26458 0.79375-0.79375z"/>
 <path d="m141.07 2.1281c-1.3229 2.9104-0.0882 6.0854-0.61736 9.1722 0.35278 0 0.70555 0.0882 1.0583 0.0882v-0.44097c0-0.70556-1.0583-0.70556-1.0583 0v0.44097c0 0.61736 0.88194 0.79375 0.97014 0.17639 0.52916-2.9104-0.61736-6.1736 0.61736-8.9076 0.26458-0.61736-0.70556-1.1465-0.97014-0.52917z"/>
 <path d="m149.01 2.5691c0.0882 2.9104 0.88194 5.8208 0.35278 8.7312 0.35277 0 0.70555 0.0882 1.0583 0.0882v-0.52917c0-0.70555-1.0583-0.70555-1.0583 0v0.52917c0 0.61736 0.97014 0.79375 1.0583 0.17639 0.44097-2.9986-0.26458-5.9972-0.35278-8.9958 0-0.70555-1.0583-0.70555-1.0583 0z"/>
 <path d="m140.81 7.8607c0.88194 0.35278 2.2049-0.08819 3.0868-0.17639 1.8521-0.17639 3.8806-0.61736 5.7326-0.70556 0.70556 0 0.70556-1.0583 0-1.0583-1.6757 0.08819-3.4396 0.52917-5.1153 0.61736-0.97014 0.08819-2.4694 0.61736-3.4396 0.26458-0.61736-0.17639-0.88195 0.79375-0.26458 1.0583z"/>
 <path d="m141.43 8.0371c2.9104-0.17639 5.8208-0.08819 8.643-0.88194 0.61736-0.17639 0.35278-1.2347-0.35278-1.0583-2.6458 0.79375-5.468 0.70556-8.2903 0.88194-0.70556 0.08819-0.70556 1.1465 0 1.0583z"/>
 <path d="m158.54 3.2746c1.1465-0.61736 2.734-0.26458 3.9688-0.17639 1.2347 0.08819 2.4694 0.26458 3.616 0 0.70556-0.08819 0.44097-1.1465-0.26458-0.97014-2.4694 0.44097-5.5562-1.0583-7.8493 0.26458-0.61736 0.35278-0.0882 1.2347 0.52917 0.88194z"/>
 <path d="m158.8 3.7156c1.4111 0 2.734 0 4.1451 0.17639 0.61736 0.17639 0.97014-0.88194 0.26458-0.97014-1.4993-0.26458-2.9104-0.26458-4.4097-0.26458-0.61736 0-0.61736 1.0583 0 1.0583z"/>
 <path d="m162.15 11.653c0.0882-3.0868-0.79375-6.1736-0.79375-9.2604 0-0.70556-1.0583-0.70556-1.0583 0 0 3.0868 0.88194 6.1736 0.79375 9.2604 0 0.70556 1.0583 0.70556 1.0583 0z"/>
 <path d="m158.71 12.182c2.8222-0.97014 5.9972-0.35278 8.9076-0.44097 0.70555-0.08819 0.70555-1.1465 0-1.0583-2.9986 0.08819-6.2618-0.52917-9.1722 0.44097-0.61736 0.26458-0.35277 1.2347 0.26459 1.0583z"/>
 <path d="m157.74 12.447c2.9104-0.17639 5.7326-0.17639 8.643-0.52917 0.61737-0.08819 0.61737-1.1465 0-1.0583-2.9104 0.35278-5.7326 0.35278-8.643 0.52917-0.61736 0-0.61736 1.0583 0 1.0583z"/>
 <path d="m175.82 3.8038c3.616-0.61736 7.4083 0.08819 11.112-0.35278 0.70556 0 0.70556-1.0583 0-1.0583-3.7924 0.44097-7.6729-0.26458-11.465 0.44097-0.61736 0.08819-0.35278 1.0583 0.35278 0.97014z"/>
 <path d="m183.14 4.2448c3.0868 0.70556-0.52917 6.5264-2.1167 7.4083-0.61736 0.35278-0.0882 1.2347 0.52917 0.97014 2.293-1.3229 6.2618-8.3785 1.8521-9.3486-0.61736-0.17639-0.88194 0.88194-0.26458 0.97014z"/>
 <path d="m182.88 4.2448c2.8222 1.9403-0.26459 7.4083-3.0868 7.6729-0.70556 0.0882-0.70556 1.1465 0 1.0583 3.8806-0.35278 7.3201-6.9674 3.616-9.7014-0.52916-0.35278-1.0583 0.52917-0.52916 0.97014z"/>
 <path d="m175.2 10.154c2.0285 2.9104 6.5264 4.8507 8.8194 1.1465 0.35278-0.52917-0.61736-1.0583-0.97014-0.52917-1.8521 2.9104-5.3799 1.0583-6.9674-1.1465-0.35277-0.52917-1.3229 0-0.88194 0.52917z"/>
 <path d="m175.56 9.2718c0.35277 2.8222 4.4979 3.4396 6.6146 2.2931 0.52917-0.35278 0-1.3229-0.52917-0.97014-1.3229 0.70555-4.7625 0.61736-5.0271-1.3229-0.0882-0.61736-1.1465-0.61736-1.0583 0z"/>
 <path d="m176.7 3.01h-0.44097c-0.61736 0-0.70555 0.88194-0.17639 1.0583 3.8806 1.0583 7.3201-0.88194 11.112-1.3229 0.61736-0.08819 0.61736-1.1465 0-1.0583-3.616 0.44097-7.1438 2.2931-10.848 1.3229 0 0.35278-0.0882 0.70556-0.0882 1.0583h0.44097c0.70556 0 0.70556-1.0583 0-1.0583z"/>
 <path d="m5.1642 18.444c1.0583-1.7639 1.8521-3.8806 3.175-5.4681-0.35278 0-0.61737 0-0.88195-0.08819 1.0583 1.9403 1.0583 4.2333 1.2347 6.35 0.0882 1.4993-0.0882 3.2632 0.70556 4.6743 0.35278 0.61736 1.3229 0.08819 0.97014-0.52917-0.88195-1.4993-0.61736-4.0569-0.79375-5.7326-0.0882-1.8521-0.35278-3.616-1.1465-5.2917-0.17639-0.26458-0.61736-0.35278-0.88194-0.08819-1.3229 1.6757-2.2049 3.7924-3.2632 5.6444-0.35278 0.61736 0.52917 1.1465 0.88195 0.52917z"/>
 <path d="m10.368 25.5c-1.2347-3.3514-1.4993-6.9674-1.4993-10.495-0.0882-0.70556-1.1465-0.70556-1.0583 0 0 3.5278 0.26458 7.4083 1.4993 10.76 0.26459 0.61736 1.2347 0.35278 1.0583-0.26458z"/>
 <path d="m10.809 25.764c-0.61736-0.79375-0.61736-1.8521-0.79375-2.8222-0.17639-1.3229-0.35278-2.6458-0.52917-3.9688-0.26458-2.2049-0.44097-4.4097-0.44097-6.6146 0-0.70556-1.0583-0.70556-1.0583 0 0 2.734 0.26458 5.2917 0.61736 8.0257 0.26458 1.8521 0.17639 4.4097 1.3229 5.9972 0.35277 0.52917 1.3229 0 0.88194-0.61736z"/>
 <path d="m5.8696 51.958c1.0583-1.2347 3.4396-1.7639 4.9389-1.3229 1.4111 0.26458 0.70556 1.8521 0.35278 2.734-0.35278 0.61736-0.79375 1.2347-1.2347 1.8521-0.17639 0.26458-0.44097 0.52917-0.70556 0.70556-0.0882 0.08819-0.17639 0.17639-0.26458 0.26458-0.35278 0.08819-0.35278 0.26458 0.0882 0.44097 0.26459-0.61736-0.61736-1.1465-0.88194-0.52917-0.26458 0.35278-0.44097 1.1465 0.17639 1.2347 0.79375 0.17639 1.4111-0.35278 1.9403-0.88194 1.2347-1.3229 2.8222-3.5278 2.3812-5.4681-0.70556-2.9986-6.2618-1.3229-7.4965 0.26458-0.44097 0.44097 0.26458 1.2347 0.70555 0.70556z"/>
 <path d="m9.5738 55.574c1.4111-0.26458 2.6458 0.52917 2.734 1.9403 0 0.97014-0.70556 1.8521-1.1465 2.5576-0.44097 0.61736-0.88194 1.1465-1.4111 1.5875-0.35278 0.35278-0.79375 0.61736-1.1465 0.88194-1.4993 0.79375-1.0583-1.1465-0.97014-1.4111 0.17639-0.70556-0.79375-0.97014-0.97014-0.26458-0.26458 0.97014-0.44097 2.9986 1.1465 2.9104 1.6757-0.0882 2.9104-1.4993 3.8806-2.6458 1.1465-1.4111 2.1167-3.175 1.4111-4.9389-0.61736-1.4993-2.3812-1.9403-3.7924-1.6757-0.61736 0.17639-0.35278 1.2347 0.26458 1.0583z"/>
 <path d="m9.3974 54.427c2.1167 0.70556 4.5861 1.3229 3.7924 4.2333-0.26458 0.97014-0.97014 1.9403-1.5875 2.8222-0.26458 0.26458-2.293 2.0285-2.734 1.1465-0.26459-0.61736-1.1465-0.08819-0.88195 0.52917 0.44097 1.0583 1.6757 0.70556 2.5576 0.35278 1.4993-0.52917 2.5576-2.1167 3.175-3.4396 0.79375-1.5875 1.0583-3.0868 0.0882-4.4979-0.88194-1.3229-2.734-1.6757-4.1451-2.2049-0.61737-0.17639-0.88195 0.79375-0.26459 1.0583z"/>
 <path d="m12.484 84.854c-0.97014 0-1.9403 0.0882-2.8222 0.26458-1.0583 0.26458-1.9403 1.0583-2.9986 1.3229-0.35277 0.0882-0.44097 0.52917-0.26458 0.79375 0.61736 1.4111 0.17639 2.9986 0 4.4097-0.0882 0.61736 0.97014 0.79375 1.0583 0.17639 0.0882-0.26458 0.0882-0.52917 0.0882-0.79375 0.17639-0.61736-0.88195-0.97014-0.97014-0.26458-0.0882 0.26458-0.0882 0.52917-0.0882 0.79375 0.26458 0 0.61736 0.08819 0.97013 0.08819 0.26459-1.6757 0.61737-3.3514-0.17638-4.9389-0.0882 0.26458-0.17639 0.52917-0.26459 0.79375 0.61736-0.17639 1.2347-0.52917 1.8521-0.88194 1.1465-0.61736 2.3812-0.70556 3.616-0.70556 0.70555 0 0.70555-1.0583 0-1.0583z"/>
 <path d="m6.6634 91.822c0.70556-1.8521 4.2333-1.9403 5.2035-0.26458 0.79375 1.3229-0.79375 3.2632-1.5875 4.2333-0.44098 0.61736-0.97014 1.2347-1.4993 1.7639-0.26458 0.17639-0.52917 0.44097-0.79375 0.61736-0.0882 0.08819-0.17639 0.08819-0.26458 0.08819-0.35278 0.08819-0.35278 0.17639-0.0882 0.35278 0.26459-0.61736-0.61736-1.1465-0.88194-0.52916-0.26458 0.61736-0.35278 1.1465 0.35278 1.4111 0.70555 0.26458 1.6757-0.52917 2.1167-0.97014 1.7639-1.4993 3.8806-3.9688 3.8806-6.35 0-3.7924-6.2618-3.5278-7.4965-0.61736-0.26458 0.61736 0.79375 0.88194 1.0583 0.26458z"/>
 <path d="m7.3689 91.116c0.44097-1.4993 3.9688-2.3812 4.4097-0.52917 0.35278 1.2347-0.88194 2.8222-1.6757 3.7042-0.61736 0.88194-1.3229 1.6757-1.9403 2.5576-0.35278 0.52917 0.61736 1.0583 0.97014 0.52917 1.2347-1.9403 5.6444-5.8208 2.9986-8.2021-1.5875-1.4993-5.2035-0.44097-5.7326 1.6757-0.17639 0.61736 0.88195 0.88194 0.97014 0.26458z"/>
 <path d="m6.046 86.883c0 1.1465 0.0882 2.2931 0.0882 3.3514 0 1.2347-0.44097 2.3812-0.52917 3.616 0 0.70556 1.0583 0.70556 1.0583 0 0.0882-1.0583 0.44098-2.0285 0.52917-3.0868 0.17639-1.3229-0.0882-2.5576-0.0882-3.8806-0.0882-0.61736-1.1465-0.61736-1.0583 0z"/>
 <path d="m4.8114 121.28c3.4396 0.26458 6.8792 0.61736 10.054-0.97014-0.26458-0.17639-0.52916-0.44097-0.79375-0.61736-0.17638 1.1465-0.0882 2.293-0.17638 3.4396-0.17639 1.2347-0.97014 2.2931-1.6757 3.2632-1.2347 1.6757-2.8222 4.4097-5.1153 4.2333-0.70555-0.0882-0.70555 0.97014 0 1.0583 2.4694 0.26458 3.8806-1.9403 5.2035-3.7042 0.88194-1.1465 1.6757-2.2049 2.2049-3.4396 0.61736-1.4993 0.35277-2.9986 0.61736-4.5861 0.0882-0.44097-0.35278-0.79375-0.79375-0.61736-2.9986 1.5875-6.2618 1.1465-9.525 0.88194-0.61736 0-0.61736 1.0583 0 1.0583z"/>
 <path d="m13.719 120.84c0.79375 2.5576-0.61736 5.2035-2.0285 7.4083-0.44097 0.70555-0.88195 1.4111-1.3229 2.1167-0.26458 0.26459-0.44097 0.52917-0.61736 0.79375-0.44097 0.70556-0.52917 0.35278 0 0.52917-0.70556-0.17639-0.97014 0.79375-0.26458 0.97014 0.97014 0.35278 2.5576-2.9986 2.9986-3.616 1.5875-2.4694 3.175-5.5562 2.2049-8.5549-0.17639-0.61736-1.2347-0.35278-0.97014 0.35277z"/>
 <path d="m10.368 138.65c-1.4993-1.8521-3.7924-1.5875-5.0271 0.35277-1.0583 1.7639-0.17639 3.7924 1.4111 4.6743 1.5875 0.88194 7.5847 1.9403 5.2035 4.8507-0.52917 0.79375-5.2035 2.2931-4.7625 0.44098 0.17639-1.2347 1.5875-2.2931 2.4694-3.0868 0.44097-0.44097-0.26459-1.2347-0.79375-0.70556-0.88195 0.88195-3.8806 3.3514-2.5576 4.8507 1.6757 1.8521 5.3799 0.61736 6.7028-1.0583 1.5875-1.9403-0.52916-4.2333-2.3812-4.9389-1.3229-0.52917-2.8222-0.79375-3.9688-1.6757-2.1167-1.6757 0.79375-5.6444 2.9104-2.9104 0.44097 0.52916 1.1465-0.26459 0.79375-0.79375z"/>
 <path d="m9.7502 138.74c0.0882 4.3215-1.0583 9.525-3.9688 12.876 0.35278 0.0882 0.61736 0.17639 0.88194 0.26458-0.17638-0.44097-0.17638-0.88194-0.17638-1.3229 0-0.61737-1.0583-0.61737-1.0583 0 0 0.61736 0.0882 1.0583 0.26459 1.5875 0.0882 0.35277 0.61736 0.52916 0.88194 0.26458 3.0868-3.616 4.3215-9.084 4.2333-13.67 0-0.70556-1.0583-0.70556-1.0583 0z"/>
 <path d="m9.3092 138.92c-0.44097 4.0569-1.0583 8.2903-3.2632 11.73-0.26458 0.52917 0.44098 1.1465 0.88195 0.70556 0.26458-0.35278 0.35278-0.44098 0.44097-0.88195 0.26458-0.61736-0.70556-0.88194-0.97014-0.26458-0.0882 0.0882-0.17639 0.26458-0.26458 0.35278 0.35278 0.26458 0.61736 0.44097 0.88194 0.61736 2.2049-3.616 2.9104-8.0257 3.3514-12.259 0.0882-0.61736-0.97014-0.61736-1.0583 0z"/>
 <path d="m12.308 156.65c-3.616-2.9986-7.3201 1.8521-6.4382 5.5562 0.44098 1.8521 2.3812 2.8222 4.1451 2.2049 1.7639-0.6173 2.9986-2.3812 2.8222-4.2333-0.0882-0.70555-1.1465-0.70555-1.0583 0 0.17639 2.734-3.7924 5.0271-4.8507 1.7639-0.88195-2.6458 1.9403-6.7028 4.6743-4.5861 0.52917 0.44097 1.2347-0.26458 0.70556-0.70555z"/>
 <path d="m11.602 156.56c1.5875 0.88195 0.0882 4.9389-0.26458 6.2618-0.26458 0.88194-0.61736 1.6757-0.88194 2.5576-0.17639 0.44097-0.35278 0.88194-0.52917 1.3229-0.0882 0.26459-0.17639 0.44097-0.35278 0.70556-0.0882 0.0882-0.0882 0.26458-0.17639 0.35278-0.44097 0.79375-0.97014 0.70555-1.7639-0.17639 0.0882-0.61736-0.88194-0.97014-0.97014-0.26459-0.26458 1.3229 0.79375 3.0868 2.3812 2.1167 1.4993-0.88194 2.0285-2.6458 2.5576-4.1451 0.79375-2.1167 3.3514-8.2021 0.52917-9.7014-0.61736-0.35278-1.1465 0.61736-0.52917 0.97014z"/>
 <path d="m11.161 156.73c0 2.0285 0.97014 3.7924 0.97014 5.8208 0 2.5576-2.0285 4.4097-3.8806 5.909 0.35278 0.17639 0.61737 0.26458 0.97014 0.44097v-0.61736c0-0.70555-1.0583-0.70555-1.0583 0v0.61736c0 0.44098 0.52917 0.61736 0.88194 0.35278 1.6757-1.4111 3.175-2.9104 3.8806-5.0271 0.79375-2.6458-0.70556-4.9389-0.70556-7.4965 0-0.61736-1.0583-0.61736-1.0583 0z"/>
 <path d="m5.3681 39.395c-0.61736-0.44097 0.79375-2.5576 1.0583-2.9104 0.61736-0.97014 1.5875-2.2049 2.734-2.5576 1.8521-0.52917 0.44097 4.7625 0.26458 5.4681-0.79375 2.3812-1.6757 5.3799-3.4396 7.2319-0.44097 0.44097 0.0882 1.0583 0.61736 0.79375 1.5875-0.70556 3.2632-0.70556 5.0271-0.88194 0.52917 0 1.3229 0 1.6757-0.52917 0.26458-0.52917-0.44097-1.0583-0.88195-0.61736 0 0-0.0882 0-0.0882 0.0882-0.52917 0.35278 0 1.2347 0.52916 0.88194 0.0882-0.08819 0.26459-0.17639 0.35278-0.26458-0.26458-0.17639-0.52916-0.44098-0.88194-0.61736-0.0882 0.26458-3.175 0.26458-3.616 0.26458-0.97014 0.17639-1.7639 0.44097-2.6458 0.79375 0.17639 0.26458 0.44098 0.52917 0.61736 0.79375 1.2347-1.1465 1.7639-2.6458 2.3812-4.1451 0.61737-1.9403 1.4993-3.7042 1.9403-5.6444 0.35278-1.4111 0.44097-4.8507-1.7639-4.6743-2.1167 0.17639-6.8792 5.7326-4.4097 7.4083 0.52917 0.44097 1.0583-0.52917 0.52917-0.88194z"/>
 <path d="m6.1619 35.603c0.79375-1.2347 2.9104-3.3514 3.7042-0.88194 0.26459 1.1465-0.17638 2.4694-0.44097 3.5278-0.35278 1.4111-0.70555 2.8222-1.1465 4.1451-0.44097 1.2347-1.0583 2.2049-1.6757 3.3514-0.35278 0.61736 0.52917 1.1465 0.88194 0.52917 0.44098-0.70556 0.88195-1.1465 1.1465-1.8521 0.52917-1.1465 0.88195-2.2931 1.2347-3.5278 0.52917-1.8521 1.2347-3.8806 1.0583-5.909-0.0882-1.3229-0.88195-2.3812-2.2931-2.5576-1.4111-0.17639-2.734 1.5875-3.3514 2.6458-0.35277 0.61736 0.52917 1.1465 0.88195 0.52917z"/>
 <path d="m10.395 68.676c-2.1167 1.9403-4.4097 4.2333-4.8507 7.1438 0 0.44097 0.26458 0.70556 0.70555 0.70556 1.3229-0.17639 2.4694-0.97014 3.8806-1.3229 0.70555-0.17639 1.5875 0 2.2931-0.44097 0.61736-0.35278 0.0882-1.2347-0.52916-0.88194-0.61736 0.35278-1.7639 0.17639-2.5576 0.35278-1.1465 0.35278-2.1167 1.0583-3.4396 1.2347 0.26459 0.26458 0.44098 0.44097 0.70556 0.70556 0.35278-2.8222 2.5576-4.9389 4.4979-6.791 0.52916-0.44097-0.26459-1.1465-0.70556-0.70556z"/>
 <path d="m10.572 68.852c-0.0882 3.7924 0.17639 7.5847 0.17639 11.377 0 0.35278 0.44097 0.70556 0.79375 0.44097 0.17639-0.0882 0.26458-0.17639 0.35278-0.44097 0.26458-0.61736-0.61736-1.1465-0.88195-0.52917v0.08819c0.26459 0.17639 0.52917 0.26458 0.79375 0.44097 0-3.7924-0.26458-7.5847-0.17639-11.377 0-0.70556-1.0583-0.70556-1.0583 0z"/>
 <path d="m5.5445 76.613c1.6757 0 3.0868-1.3229 4.6743-1.1465 0.70556 0.08819 0.70556-0.97014 0-1.0583-1.6757-0.17639-2.9986 1.1465-4.6743 1.1465-0.70556 0-0.70556 1.0583 0 1.0583z"/>
 <path d="m11.101 68.588c0.0882 3.4396-0.0882 6.791-0.70556 10.142-0.0882 0.70556 0.88195 0.97014 1.0583 0.35278 0.61737-3.5278 0.79375-6.9674 0.70556-10.495 0-0.70556-1.0583-0.70556-1.0583 0z"/>
 <path d="m7.8376 103.16c-2.2049-0.0882-2.1167 4.7625-2.1167 6.0854 0 1.4993 0.0882 6.4382 2.4694 6.4382 1.1465 0 1.9403-1.0583 2.5576-1.9403 0.88194-1.3229 2.2049-3.3514 1.4111-5.0271-1.4993-2.9986-5.3799 3.175-5.2917 4.7625 0 0.26459 0.26459 0.52917 0.52917 0.52917 0.35278 0 0.61736 0 0.97014-0.0882 0.61736-0.17638 0.35278-1.1465-0.35278-1.0583-0.17639 0-0.44097 0.0882-0.61736 0.0882 0.17639 0.17638 0.35278 0.35277 0.52917 0.52916 0-1.0583 0.79375-2.2049 1.4111-2.9986 0.35278-0.52917 0.88194-1.1465 1.4993-1.3229 1.1465-0.44097 0 2.2931 0 2.3812-0.44097 0.97014-2.2049 4.4097-3.2632 2.2931-0.88195-1.5875-0.79375-3.7924-0.79375-5.4681 0.0882-0.52916 0.17639-4.2333 1.0583-4.1451 0.70556 0 0.70556-1.0583 0-1.0583z"/>
 <path d="m8.2785 102.72c-3.7042-1.0583-3.175 5.6444-2.734 7.5847 0.0882 0.26459 0.52916 0.44096 0.79375 0.26459h0.0882c0.61736-0.17638 0.35278-1.1465-0.35278-1.0583-0.0882 0-0.17639 0.0882-0.26458 0.17639 0.26458 0.0882 0.52917 0.17639 0.79375 0.26457-0.35278-1.1465-0.88195-6.8792 1.3229-6.1736 0.70555 0.17639 0.97014-0.88195 0.35277-1.0583z"/>
 <path d="m6.691 113.39c0.70556 1.3229 1.8521 2.5576 3.5278 1.9403 1.2347-0.52917 1.9403-2.0285 2.4695-3.175 0.44097-0.97015 0.97014-2.3812 0.17639-3.3514-0.70556-0.88194-2.2931-0.88194-2.9104 0.0882-0.35278 0.61738 0.52917 1.1465 0.88194 0.52918 0.26459-0.44097 0.97014-0.17639 1.2347 0.0882 0.17638 0.17639 0.0882 0.61737 0.0882 0.79376-0.0882 0.79374-0.44097 1.4111-0.79375 2.0285-0.26458 0.61737-0.52917 1.1465-0.97014 1.5875-1.2347 1.2347-2.2049 0-2.8222-1.0583-0.26458-0.61738-1.2347-0.0882-0.88195 0.52914z"/>
 <path d="m7.7494 175.83c0.17639-0.26458 0.26458-0.61736 0.44097-0.97014-0.35277 0-0.70555-0.0882-1.0583-0.0882 0.79375 6.0854-0.97014 12.171-0.88194 18.256 0 0.70554 0.97013 0.70554 1.0583 0 0-0.97014 0.35278-1.9403 0.52917-2.9104 0.0882-0.70555-0.88195-0.97014-1.0583-0.26458-0.17639 1.0583-0.52916 2.1167-0.52916 3.175h1.0583c-0.0882-6.0854 1.6757-12.171 0.88194-18.256-0.0882-0.61736-0.79375-0.79375-1.0583-0.17639-0.0882 0.26458-0.17639 0.52917-0.26458 0.70555-0.35278 0.61737 0.61736 1.1465 0.88194 0.52917z"/>
 <path d="m12.247 173.98c-2.2931-1.6757-2.734 6.0854-2.734 6.9674-0.0882 1.6757-0.44097 8.5549 2.9986 7.0556 3.2632-1.4111 2.0285-7.7611 1.4111-10.319-0.26458-1.1465-0.70555-3.0868-1.8521-3.7924-1.0583-0.70555-1.6757 0.70556-1.8521 1.5875-0.17639 0.61736 0.88194 0.88195 1.0583 0.26459 0.26458-1.1465 0.26458-1.2347 0.79375-0.17639 0.52917 1.0583 0.79375 2.3812 1.0583 3.5278 0.44097 2.2049 0.97014 5.9972-0.79375 7.7611-1.7639 1.7639-1.8521-4.5861-1.8521-5.2917 0.0882-1.4993 0.17639-2.9104 0.44097-4.3215 0.0882-0.52916 0.26458-1.0583 0.44097-1.5875 0.0882-0.26458 0.17639-0.44097 0.26459-0.61736 0.17639-0.26458 0-0.17639 0.0882-0.0882 0.61736 0.35277 1.1465-0.52917 0.52917-0.97014z"/>
 <path d="m11.542 172.92c-2.3812-1.7639-2.734 4.4097-2.8222 5.3799 0 2.3812 0.35278 7.6729 3.8806 7.4083 0.61736-0.0882 0.61736-1.1465 0-1.0583-2.4694 0.17638-2.734-3.7924-2.8222-5.4681 0-0.52917 0.44098-5.9972 1.2347-5.3799 0.52916 0.44097 1.0583-0.52917 0.52916-0.88195z"/>
 <path d="m4.9272 181.57c1.9403-1.9403 4.2333-6.0854 2.0285-8.5549-0.44097-0.52917-1.2347 0.17639-0.79375 0.70555 1.7639 1.9403-0.52917 5.6444-1.9403 7.1438-0.52916 0.52917 0.26459 1.2347 0.70556 0.70556z"/>
 <path d="m9.6015 187.03c0 0.0882-0.0882 0.0882-0.17638 0.17638-0.26459 0.17639-0.35278 0.44098-0.44098 0.61737-0.0882 0.35277 0.0882 0.61736 0.35278 0.70555 0.97014 0.26458 2.1167-0.17639 2.9104-0.61736 0.61736-0.35278 0.0882-1.2347-0.52917-0.97014-0.52917 0.35278-1.4111 0.79375-2.1167 0.52917 0.17639 0.26458 0.26459 0.44097 0.35278 0.70555 0.088199-0.0882-0.0882 0 0.17639-0.17639 0.0882 0 0.17639-0.0882 0.26458-0.17638 0.44098-0.52917-0.35277-1.3229-0.79375-0.79375z"/>
</svg>
