<?xml version="1.0" encoding="utf-8"?>
<!-- Generator: Adobe Illustrator 16.0.0, SVG Export Plug-In . SVG Version: 6.00 Build 0)  -->
<!DOCTYPE svg PUBLIC "-//W3C//DTD SVG 1.1//EN" "http://www.w3.org/Graphics/SVG/1.1/DTD/svg11.dtd">
<svg version="1.1" id="Layer_1" xmlns="http://www.w3.org/2000/svg" xmlns:xlink="http://www.w3.org/1999/xlink" x="0px" y="0px"
	 width="574px" height="72.043px" viewBox="-114.901 1.043 574 72.043" enable-background="new -114.901 1.043 574 72.043"
	 xml:space="preserve">
<path d="M-39.4,58.023c1.754-0.793,3.199-1.851,4.54-2.908c0.825-0.793,1.444-1.586,2.063-2.445c0.517-0.926,0.929-1.85,1.135-2.842
	c0.206-0.33,0.206-0.792,0.206-1.189c0.31-1.057,0.207-2.182,0-3.238c0-0.727-0.309-1.388-0.618-2.049
	c-0.207-0.595-0.517-1.123-0.826-1.718c-0.517-0.858-1.444-1.652-2.27-2.379c-0.825-0.728-2.063-1.19-3.302-1.652
	c-0.104,0-0.206-0.066-0.31-0.066c-0.206-0.198-0.515-0.396-0.721-0.661c-0.826-0.661-1.959-1.189-2.992-1.784
	c-1.961-0.992-4.126-1.652-6.293-2.379c-0.825-0.264-1.651-0.463-2.476-0.595c1.341-0.331,2.579-0.661,3.817-1.058
	c1.238-0.33,2.476-0.727,3.611-1.255c0.928-0.529,1.856-1.124,2.682-1.718c0-0.066-0.206-0.132-0.515-0.198
	c0.104-0.066,0.104-0.132,0.207-0.132c0-0.066-0.103-0.066-0.31-0.132c0.31-0.198,0.516-0.396,0.722-0.595
	c0.722-0.33,1.444-0.727,2.166-1.124c1.548-0.925,2.993-1.982,4.229-3.04c0.619-0.264,1.135-0.462,1.65-0.661
	c0.826-0.331,1.651-0.661,2.373-1.058c0.619-0.396,1.238-0.793,1.754-1.255c0.516-0.396,0.928-0.859,1.134-1.322
	c0.31-0.396,0.413-0.859,0.31-1.322v-0.331c0-0.066,0-0.132,0.103-0.264c0-0.727,0-0.529-0.206-1.255
	c0.104-0.859-0.722-1.653-1.444-2.313c-0.515-0.396-1.03-0.727-1.753-0.991c0-0.066-0.103-0.132-0.103-0.066v-0.132
	c0.103,0.066,0.103-0.065,0-0.198h0.722c0.103,0-0.104-0.265-0.31-0.529c0,0,0-0.132-0.104-0.264h0.309
	c0.207,0.065-0.103-0.331-0.206-0.331c-3.198-0.595-6.292-0.793-9.594-0.793c-1.444,0-2.889,0-4.333,0.132
	c-1.135,0.066-2.27,0.132-3.301,0.264h-0.103c-1.754-0.066-3.508-0.132-5.262-0.132c-2.992,0-5.983,0.198-8.975,0.463
	c-4.333,0.331-8.563,0.793-12.896,1.255c-4.229,0.529-8.356,1.189-12.482,1.982c-1.341,0.331-2.682,0.595-4.023,0.925
	c-2.476,0.396-4.539,1.19-6.293,2.379v0.066c-0.103,0.066-0.206,0.132-0.309,0.198v0.066c-0.104,0-0.104,0.066-0.207,0.066v0.132
	c-0.104,0,0,0,0,0.066c-0.206,0.066-0.31,0.198-0.516,0.264c0,0,0,0.066,0.104,0.066c-0.104,0.066-0.207,0.132-0.309,0.132v0.132
	c0,0-0.104,0-0.104,0.066c-0.103,0,1.135,0.793,1.135,0.728c0,0.065,1.031,0.793,1.237,0.727c1.341-0.33,2.786-0.595,4.127-0.925
	c1.238-0.264,2.476-0.529,3.714-0.793l0.103,0.066c-0.103,0-0.103,0.066-0.207,0.066c0,0,1.032,0.727,1.342,0.727
	c1.134-0.066,2.269-0.199,3.506-0.265c2.167-0.331,4.436-0.661,6.603-1.057c1.341-0.265,2.682-0.529,4.023-0.728
	c0.104,0.066,0.206,0.066,0.104,0.066c0.309,0.066,0.825,0.396,1.135,0.331c3.92-0.595,7.944-1.19,11.967-1.719
	c2.682-0.33,5.365-0.594,8.046-0.792c2.683-0.132,5.365-0.198,8.047-0.132c2.992,0,5.983,0.198,8.666,0.991
	c0.206,0.132,0.31,0.265,0.412,0.462c-0.515,0.331-1.031,0.595-1.444,0.859c-2.373,1.388-4.848,2.644-7.427,3.833
	c-4.849,1.123-9.49,2.577-14.236,3.833c-2.579,0.728-5.158,1.388-7.84,2.049c-2.579,0.661-5.159,1.256-7.84,1.851
	c-1.342,0.264-2.683,0.595-4.024,0.859c-0.413-1.586-0.929-3.106-1.65-4.626c0.103,0.066,0.309,0.198,0.412,0.198
	c0.206-0.066,0-0.132,0-0.198c-0.103,0-0.103-0.066-0.206-0.132c0.103,0,0.103-0.066,0-0.066c0-0.065-0.104-0.132-0.104-0.198
	c0.104,0,0.104-0.066,0-0.132c-0.104-0.066-0.31-0.331-0.413-0.529c0.103,0.066,0.206,0.132,0.309,0.265
	c0.104,0,0.207,0.066,0.31,0.066c0.103,0,0.103-0.066,0-0.132c-0.31-0.462-0.619-0.925-0.929-1.388
	c-0.206-0.132-0.31-0.199-0.516-0.33h-0.103c-0.104-0.199-0.206-0.396-0.31-0.529c0-0.132-0.309-0.265-0.516-0.331
	c0.103,0-0.31-0.198-0.206-0.066c0,0.132,0,0.264,0.103,0.396c-0.103-0.066-0.103-0.066-0.207-0.132c0,0.066-0.413-0.132-0.309,0
	v0.132c-0.104-0.066-0.206-0.132-0.206-0.066v0.066c-0.104-0.066-0.207-0.066-0.104,0c0,0.132,0.104,0.264,0.104,0.396
	c-0.31-0.066-0.825-0.132-0.825-0.132v0.198c-0.104,0-0.104,0-0.104,0.066c0.104,0,0.104,0.066,0.104,0.066
	c-0.104,0-0.207-0.066-0.207,0v0.859h-0.207v0.397c-0.104,0-0.104,0-0.104,0.066v0.198h-0.103v0.265
	c-0.206-0.462-0.31-0.991-0.413-1.52v-0.727c0-0.331,0-0.331-0.31-0.463c0-0.198,0-0.397,0.104-0.529
	c0-0.396,0.103-0.265-0.31-0.529c-0.103-0.066-0.309-0.132-0.413-0.132c-0.516,0.132-1.032,0.265-1.547,0.396
	c-0.825,0.199-1.342,0.529-1.548,0.992c0,0.066-0.103,0.198-0.103,0.265c-0.413,0.528-0.31,1.255,0.309,2.247v0.132
	c0.104,0.529,0.104,1.058,0.31,1.586c0,0.396,0,0.859,0.103,1.322c0,0.198,0,0.396,0.104,0.661v0.066
	c0,0.463,0.103,0.925,0.206,1.454v0.396c0.103,0.199,0.103,0.396,0.103,0.595c0.31,1.388,0.619,2.775,0.929,4.097
	c-1.961,0.463-3.921,0.925-5.88,1.454c-3.508,0.991-6.912,2.181-10.007,3.7c-0.104,0,0.103,0.067,0.207,0.133
	c-0.104,0.065-0.31,0.132-0.413,0.197c-0.104,0,0.103,0.067,0.207,0.133c-0.104,0.066-0.207,0.066-0.31,0.133
	c0,0,0.104,0.065,0.31,0.132l-0.207,0.132l0.103,0.066c-0.207,0.066-0.309,0.132-0.516,0.198c0,0,0.207,0.065,0.413,0.132
	c-0.104,0.132-0.31,0.198-0.413,0.265c-0.103,0,0.103,0.065,0.207,0.133l-0.207,0.132c0.103,0.065,0.207,0.132,0.309,0.198
	c0.619,0.132,1.135,0.264,1.651,0.462c0.517,0.133,1.032,0.266,1.651,0.396c0.104,0.066,0.309,0.066,0.413,0.066
	c4.127-0.661,8.046-1.454,11.967-2.445c0.309-0.065,0.619-0.133,0.928-0.198c0.103,0.859,0.31,1.719,0.516,2.577
	c0.516,3.173,1.754,6.213,2.889,9.252c0.207,0.596,0.31,1.455,0.722,2.115c0.104,0.265,0.207,0.463,0.413,0.66
	c0.104,0.198,0.207,0.331,0.31,0.529c0.103,0.661,0.206,1.388,0.309,2.114c0.104,0.331,0.206,0.728,0.206,1.124
	c0,0.066,0,0.066,0.104,0.132v0.33c0,0.067,0.103,0.199,0.103,0.266v0.065c0,0.132,0.103,0.265,0.103,0.396
	c0,0.067,0.103,0.132,0.103,0.265h-1.031c-0.207,0,0,0.198,0.104,0.198c0.309,0.066,0.619,0.066,1.031,0.066v0.066
	c-0.516,0-0.928,0.064-1.444,0c-0.104,0-0.104,0.064,0,0.132h-0.413c-0.104-0.067-0.206,0.065-0.104,0.065
	c0.104,0.066,0.31,0.133,0.413,0.199c0.206,0,0.413,0.065,0.619,0.065h-0.619c-0.103-0.065-0.207,0.066-0.103,0.066
	c0.103,0.132,0.309,0.198,0.516,0.198c-0.309,0-0.722-0.066-1.032-0.066c-0.103,0-0.207,0.066-0.103,0.066
	c0.103,0.132,0.309,0.198,0.413,0.198c0.516,0.065,0.929,0.133,1.341,0.197h-1.547c-0.207-0.064-0.207,0-0.104,0.067
	c0.104,0.065,0.206,0.132,0.413,0.198c-0.103-0.066-0.207-0.066-0.309-0.066c-0.104,0-0.207,0.066-0.104,0.132
	c0.104,0.066,0.413,0.132,0.619,0.198c-0.929,0.198-1.857,0.396-2.889,0.595c-2.785,0.462-5.674,0.462-8.458,0.199
	c-0.31-0.199-0.517-0.397-0.826-0.596c0-0.132-0.928-0.33-0.928-0.198c-0.104,0.198-0.104,0.198-0.104,0.265l-0.103,0.066
	c-0.104,0.197-0.104,0.264-0.104,0.33c-0.103,0.198-0.103,0.198-0.103,0.33v0.133h-0.207v0.198c-0.31-0.066-0.619-0.133-0.929-0.198
	c-0.722-0.198-1.547-0.397-2.27-0.463h-0.619c-0.928-0.198-1.96-0.33-2.888-0.463c-0.413,0-0.723-0.065-1.135-0.065
	c-1.032-0.066-1.96-0.198-2.992-0.198c-0.516,0-0.723,0.132-1.135,0.33c-0.207,0.132-0.31,0.33-0.413,0.462
	c-0.207,0.199-0.207,0.529-0.207,0.793c-0.412,0.332-0.206,0.86-0.206,1.257c0,0.065,0.104,0.197,0.104,0.33v0.331
	c0.309,1.189,1.341,1.651,2.682,2.445c0.207,0.065,0.31,0.131,0.413,0.131c0.826,0.265,1.65,0.529,2.372,0.794l1.444,0.396
	c0.413,0.198,0.929,0.331,1.444,0.463c1.445,0.133,2.683,0.066,4.126-0.132c0.929-0.133,1.754-0.396,2.683-0.595
	c0.207-0.132,0.413-0.198,0.619-0.265c0.413-0.132,0.619-0.33,0.619-0.594c0,0-0.103-0.067-0.207-0.067
	c1.341-0.065,2.682-0.264,4.023-0.462c0.517-0.066,1.032-0.132,1.651-0.265c0.929,0,1.754-0.066,2.682-0.198
	c1.032-0.065,2.063-0.264,3.095-0.396c3.817-0.595,7.633-1.255,11.451-1.916c4.952-0.859,9.8-1.917,14.442-3.306l-0.31,0.199
	c-0.103,0.066,0.207,0.066,0.413,0.066c-0.103,0.064-0.309,0.197-0.515,0.264c0,0.066,0.309,0.066,0.515,0.066
	c-0.103,0.132-0.309,0.198-0.413,0.265c-0.103,0,0.516,0.065,0.722,0.065c-0.206,0.066-0.31,0.198-0.516,0.265v0.065
	c-0.103,0-0.207,0.067-0.309,0.132c-0.104,0.067,0.825,0.067,0.825,0.067h0.103c-0.309,0.131-0.516,0.33-0.825,0.462
	c0,0,0.31,0,0.619,0.066c-0.206,0.065-0.309,0.132-0.515,0.198c0,0.066,0.928,0.132,0.928,0.132h1.444c0.206,0,0.516,0,0.722-0.065
	C-47.446,61.592-43.319,59.938-39.4,58.023L-39.4,58.023z M-34.964,13.942v0.066V13.942z M-35.067,14.669
	c0.103,0.066,0.207,0.132,0.207,0.198C-34.757,14.934-34.757,15-34.757,15c-0.31-0.132-0.619-0.331-0.928-0.462
	C-35.479,14.603-35.273,14.669-35.067,14.669L-35.067,14.669z M-96.14,63.572h0.104H-96.14z M-43.216,37.864
	c0.516,0.397,0.929,0.859,1.238,1.323c-0.928-0.662-1.96-1.257-2.992-1.785c-0.619-0.331-1.341-0.661-2.063-0.926
	C-45.693,36.873-44.455,37.336-43.216,37.864z M-44.558,36.675c0.309,0.132,0.619,0.264,0.928,0.396
	c0.207,0.198,0.413,0.331,0.619,0.529C-43.526,37.27-44.042,37.005-44.558,36.675z M-42.701,36.212
	c0.207,0.198,0.413,0.397,0.722,0.595c-0.413-0.264-0.826-0.462-1.238-0.661c-0.103-0.066-0.31-0.132-0.413-0.265
	c-0.103-0.065-0.206-0.065-0.309-0.132C-43.526,35.882-43.113,36.081-42.701,36.212z M-75.712,57.757
	c-0.103-0.595-0.206-1.124-0.309-1.719c0-0.132-0.104-0.33-0.104-0.463c0.723-0.065,1.238-0.065,1.238-0.065
	c-0.103-0.33-0.103-0.66-0.206-0.925h0.413c0.516,0.793,1.135,1.586,1.753,2.445c0,0.132,1.136-0.067,1.136-0.199
	c-0.104-0.264-0.207-0.528-0.207-0.858c0.207,0,0.31-0.066,0.31-0.132c-0.62-2.909-1.341-5.815-2.167-8.724
	c-0.825-2.842-1.65-5.684-2.579-8.525c-0.104-0.33-0.207-0.661-0.31-0.925c0.207-0.066,0.413-0.066,0.619-0.133
	c0.517-0.132,1.135-0.264,1.754-0.33h0.207c0.825-0.265,1.65-0.397,2.579-0.529c1.031-0.132,2.063-0.132,3.095-0.132
	c3.094-0.132,6.396,0.396,9.387,0.793c2.373,0.331,4.746,0.727,7.015,1.124c1.342,0.265,2.58,0.528,3.92,0.858
	c0.826,0.199,1.547,0.397,2.27,0.728c0.722,0.396,1.341,0.793,1.96,1.256c0.31,0.33,0.723,0.595,1.032,0.925
	c0.206,0.197,0.31,0.396,0.516,0.661c0.104,0.132,0.206,0.264,0.31,0.396c-0.104,0.197-0.206,0.33-0.31,0.528
	c-0.31,0.463-0.825,0.925-1.341,1.388c0,0.066-0.103,0.133-0.207,0.199c-0.207-0.199-0.516-0.265-0.826-0.331
	c0,0-0.412-0.198-0.412-0.066c0.104,0.133,0.206,0.265,0.31,0.397c-0.104,0-0.104-0.066-0.206-0.066c0,0-0.517-0.198-0.413,0
	c0.103,0.066,0.103,0.066,0.103,0.132c-0.103,0-0.207-0.065-0.207,0.066c0,0.065,0.104,0.065,0.104,0.132
	c-0.104,0-0.206,0-0.104,0.066c0.104,0.133,0.207,0.264,0.31,0.396c-0.104,0-0.207-0.065-0.31-0.065c0,0-0.619-0.265-0.516-0.066
	c0.103,0.132,0.103,0.199,0.207,0.331c-0.207-0.066-0.413-0.132-0.31,0c0,0.066,0.103,0.132,0.103,0.198
	c-0.103-0.066-0.206-0.066-0.206,0c0.206,0.265,0.413,0.528,0.516,0.728c-0.928,0.858-1.857,1.651-2.992,2.444
	c-0.206,0.199-0.516,0.331-0.722,0.529c-1.135,0.595-2.167,1.188-3.3,1.784c-1.857,0.991-3.921,1.917-5.984,2.775
	c-0.722,0.198-1.341,0.462-1.96,0.66c-0.104,0,0,0.067,0,0.133c-0.413,0.132-0.723,0.265-1.136,0.463
	c-0.412-0.133-0.928-0.265-0.825-0.265c-0.309,0-1.237-0.331-1.546-0.198c-1.651,0.529-3.199,1.124-4.746,1.718
	c-0.825,0.265-1.547,0.595-2.27,0.86h-0.103c-0.929,0.197-1.96,0.396-2.992,0.594c-0.413,0.066-0.928,0.198-1.341,0.266
	c0-0.133,0.104-0.266,0.104-0.463C-75.608,58.286-75.712,58.021-75.712,57.757L-75.712,57.757z M-52.604,35.354
	c-0.104-0.066-0.31-0.132-0.413-0.132h0.103C-52.81,35.288-52.707,35.288-52.604,35.354z M-56.524,34.692
	c0.412,0.132,0.928,0.264,1.341,0.396c-0.103,0-0.103,0-0.207,0.066c-0.413-0.132-0.928-0.198-1.341-0.198l-1.238-0.396
	C-57.556,34.626-57.041,34.692-56.524,34.692L-56.524,34.692z M-53.739,35.221c-0.207,0-0.516-0.066-0.722-0.066
	c-0.412-0.132-0.722-0.198-1.135-0.33c0.413,0.066,0.723,0.132,1.135,0.132C-54.254,35.089-53.945,35.155-53.739,35.221z
	 M-58.793,34.494c0,0.066,0.104,0.066,0.104,0.066c0.309,0.066,0.515,0.132,0.825,0.199h-0.516c0-0.066-0.103-0.066-0.103-0.066
	c-0.104,0-0.619-0.198-0.723-0.132v0.066c-0.206,0-0.516-0.066-0.825-0.066c-0.103-0.066-0.206-0.066-0.309-0.066H-58.793
	L-58.793,34.494z M-81.695,33.305l-0.104-0.066h0.207C-81.695,33.238-81.695,33.305-81.695,33.305L-81.695,33.305z M-47.859,36.543
	c-0.722-0.265-1.547-0.595-2.373-0.859c0.31,0.066,0.517,0.066,0.723,0.132C-48.993,36.08-48.375,36.278-47.859,36.543z
	 M-41.566,36.741c0.104,0.066,0.207,0.132,0.207,0.198C-41.359,36.873-41.462,36.807-41.566,36.741z M-42.082,37.601
	c0.207,0.198,0.31,0.33,0.516,0.529l-1.341-0.86C-42.598,37.402-42.391,37.468-42.082,37.601L-42.082,37.601z M-95.519,63.439
	c-0.206-0.064-0.412-0.064-0.618-0.132v-0.065C-95.93,63.308-95.725,63.375-95.519,63.439L-95.519,63.439z M-35.685,44.209
	c0,0.132,0.103,0.265,0.103,0.396c-0.103,0.264-0.103,0.529-0.103,0.727c0,0.463-0.104,0.925-0.31,1.389
	c-0.104,0.396-0.31,0.792-0.516,1.189c0.104-0.132,0.104-0.265,0.104-0.33v-0.596c0.31-0.991,0.413-1.982,0.413-2.974v-0.792
	c0.103,0.064,0.103,0.131,0.103,0.197C-35.788,43.681-35.685,43.944-35.685,44.209L-35.685,44.209z M-41.771,35.75
	c0.413,0.264,0.825,0.594,1.135,0.859c-0.619-0.396-1.444-0.793-2.167-1.19c-0.722-0.396-1.547-0.793-2.373-1.057
	C-44.042,34.758-42.906,35.221-41.771,35.75z M-29.805,15.395c0,0.198-0.103,0.396-0.309,0.595c-0.103,0.132-0.206,0.264-0.31,0.331
	v0.066c-0.103-0.198-0.206-0.396-0.309-0.529c0-0.066-0.104-0.198-0.207-0.265c0-0.33-0.104-0.661-0.31-0.859
	c-0.103-0.132-0.206-0.198-0.309-0.331c0.619,0.132,1.238,0.331,1.753,0.529V15.395L-29.805,15.395z M-29.083,13.412
	c0.103,0.132,0.207,0.265,0.207,0.396c-0.104-0.198-0.31-0.33-0.517-0.528c0,0-0.103-0.066-0.103-0.132
	C-29.393,13.214-29.186,13.346-29.083,13.412L-29.083,13.412z M-29.393,14.073c0.104,0.066,0.207,0.198,0.207,0.264v0.132
	c-0.103-0.132-0.207-0.199-0.31-0.33c-0.103-0.066-0.206-0.199-0.412-0.331C-29.702,13.875-29.496,14.007-29.393,14.073
	L-29.393,14.073z M-35.788,14.8c0.104,0.066,0.104,0.066,0.206,0.132l0.104,0.066C-35.582,14.932-35.685,14.866-35.788,14.8
	L-35.788,14.8z M-92.116,62.78c-0.309-0.066-0.722-0.066-1.032-0.066c-0.103-0.066-0.103-0.132-0.207-0.198
	C-92.942,62.647-92.529,62.714-92.116,62.78z M-93.044,63.573c0-0.066-0.104-0.066-0.207-0.066c0,0-0.104-0.065-0.207-0.065
	C-93.354,63.507-93.148,63.507-93.044,63.573z M-95.417,63.045v0.131c-0.31-0.065-0.516-0.131-0.825-0.131
	c0-0.067,0-0.132-0.104-0.199C-96.036,62.913-95.727,62.978-95.417,63.045L-95.417,63.045z M-102.226,65.887v-0.133
	c0.309,0.065,0.619,0.133,0.825,0.197h0.103h-0.103C-101.71,65.951-101.917,65.951-102.226,65.887z"/>
<path d="M-53.74,63.312"/>
<path d="M-54.051,62.453h-0.104H-54.051z"/>
<path d="M74.732,17.513"/>
<path d="M74.188,59.94v-0.528c0.104,0.064,0.207,0.064,0.207,0.064v-0.527c0.104-1.256,0.104-2.511,0.207-3.767
	c0-2.843,0-5.75,0.104-8.592c0-0.991,0-2.049,0.103-3.04c0.103-1.52,0.31-2.975,0.413-4.429c0.104-1.189,0.206-2.313,0.206-3.502
	c0.104-1.388,0.104-2.776,0-4.164c0-1.52-0.309-2.974-0.721-4.428c-0.413-1.454-1.032-2.842-1.754-4.229v-0.661
	c0-0.132,0-0.265,0.103-0.396c0.104-0.265,0-0.595,0-0.925h1.857c2.476-0.066,5.055,0.065,7.531,0.33
	c0.516,0.066,1.032,0.132,1.547,0.198c0.825,0.198,1.651,0.397,2.476,0.661c0.104,0.066,0.31,0.132,0.413,0.198
	c0.104,0.066,0.31,0.132,0.516,0.132c-0.104-0.066-0.207-0.198-0.413-0.264c-0.31-0.132-0.619-0.265-0.929-0.462v0.066
	c0.206,0.066,0.31,0.132,0.516,0.198c0.103,0.066,0.31,0.132,0.413,0.132c0-0.132-0.104-0.199-0.31-0.264
	c-0.516-0.265-1.134-0.595-1.651-0.86c0.413,0.066,0.826,0.265,1.135,0.397c0.516,0.198,0.619,0.132,0.207-0.066
	c-0.413-0.199-0.825-0.463-1.135-0.661c0.413,0.132,0.826,0.265,1.341,0.396c0.103,0.066,0.207,0.132,0.413,0.198
	c0.103,0.066,0.206,0.132,0.413,0.132c-0.104-0.132-0.207-0.198-0.31-0.265c-0.206-0.066-0.413-0.198-0.619-0.264
	c0.413,0.132,0.413,0.066,0.104-0.132c-0.206-0.132-0.516-0.264-0.722-0.396c0.104,0.066,0.31,0.066,0.412,0.132
	c0.31,0.198,0.413,0.132,0.104-0.066c-0.413-0.265-0.929-0.529-1.444-0.793c0.516,0.132,1.032,0.33,1.547,0.528
	c0.31,0.132,0.413,0.066,0.104-0.132c-0.722-0.331-1.444-0.728-2.167-1.058c-0.722-0.264-1.341-0.595-2.063-0.859
	c0.207,0.066,0.413,0.066,0.722,0.066c1.032,0.264,2.167,0.331,3.404,0.198c0,0-0.207-0.198-0.412-0.331h0.103
	c0.103,0-0.412-0.33-0.412-0.396l-0.104-0.066h0.31c0.103,0,0-0.066-0.104-0.198h0.825c0.104,0.066-0.309-0.265-0.413-0.331
	c0.104-0.066-0.206-0.264-0.206-0.264h0.103c0.207,0-0.206-0.331-0.206-0.265c0-0.066-0.104-0.066-0.104-0.132
	c0.207,0.066,0.31,0.066,0.516,0.066c0.309,0.066-0.104-0.265-0.104-0.198c-0.206-0.199-0.515-0.396-0.825-0.529
	c-1.754-0.529-3.61-0.992-5.468-1.256c-1.135-0.264-4.023-0.264-5.158-0.264c-2.579-0.066-5.159,0.066-7.737,0.264
	c-2.476,0.133-4.849,0.264-7.324,0.529c-4.23,0.396-8.356,0.793-12.586,1.124c-0.722,0.066-1.547,0.066-2.373,0.132
	c-0.31-0.727-0.619-1.454-0.929-2.181c-0.103-0.132-1.857-0.066-1.857-0.066s-1.96-0.066-1.96,0.066v0.33h-0.103v0.859
	c0,0.396-0.104,0.859-0.104,1.256c-0.309,0-0.722,0.066-1.031,0.066c-2.373,0.066-4.746-0.132-7.118-0.264
	c-0.309,0,0.104,0.264,0.104,0.264s0.103,0,0.103,0.066c-0.206,0-0.413-0.066-0.619-0.066c-0.103,0,0,0.066,0,0.132h-0.103
	c-0.104,0-0.104,0.066-0.104,0.066c-0.31,0,0.412,0.396,0.31,0.396h0.103c-0.309,0-0.619-0.066-0.825-0.066
	c-0.103,0-0.103,0-0.103,0.066c-0.104-0.066-0.207-0.066-0.31-0.132c-0.103-0.066-0.309-0.132-0.516-0.132s-0.929-0.132-0.825,0.066
	c0,0.066,0.103,0.132,0.207,0.199c-0.207,0-0.517-0.066-0.517,0.132l0.104,0.066c-0.206,0-0.31,0-0.206,0.132
	c-0.103,0.066-0.103,0.066-0.103,0.132c0.103,0.066,0.207,0.132,0.412,0.198v0.066c-0.207,0-0.825-0.198-0.825,0.066
	c0.103,0.066,0.103,0.132,0.309,0.198c-0.207-0.066-0.413-0.066-0.413,0.066l0.104,0.065h-0.104v0.132
	c0.207,0.199,0.723,0.396,1.032,0.529l2.476,1.189c1.238,0.529,2.785,0.661,4.229,0.859c1.753,0.199,3.61,0.331,5.364,0.463
	c0.206,0.793,0.413,1.652,0.619,2.512c-0.103,0.066-0.103,0.066-0.103,0.132v0.132c0,0,0,0.066-0.104,0.066v1.586
	c-0.309,4.163,0,8.26,0.207,12.358c0,0.926,0.104,1.784,0.104,2.709v1.784c0,0.926,0,1.784,0.103,2.71v0.132
	c0,0.33,0,0.66,0.104,0.926c0,0.462,0.103,0.99,0.103,1.453c0.104,0.662,0.207,1.322,0.31,1.917c0,0.264,0.103,0.463,0.103,0.661
	c-0.31,1.85-0.722,3.634-1.239,5.419c-0.103,0.33-0.206,0.66-0.309,0.925c-0.103,0.463-0.206,0.925-0.412,1.389v0.264
	c0,0.198-0.104,0.33-0.104,0.528c-0.103,0.198-0.103,0.397-0.103,0.596c-0.104,0.197-0.104,0.396-0.104,0.595
	c-0.207,0.527-0.31,0.991-0.207,1.52c0,0.198,0,0.396,0.104,0.594v0.266c0,0.132,1.341,0.462,1.444,0.462
	c0.103,0.066,1.238,0.463,1.444,0.33c0.928-0.33,1.547-0.727,2.063-1.32c0.206-0.199,0.31-0.397,0.516-0.662
	c0.722,0.331,2.064,0.925,2.064,0.86c0.206-0.198,0.413-0.464,0.516-0.728c0.31-0.528,0.412-1.124,0.516-1.719v-0.132
	c0-0.264,0.103-0.595,0.103-0.925c0.104-0.396,0.104-0.794,0-1.124c0.104-0.198,0.104-0.33,0.104-0.462
	c0.103-0.794,0.207-1.521,0.103-2.313c0-0.728,0-1.521-0.103-2.313c-0.207-2.048-0.207-4.031-0.207-6.146v-2.645
	c0.103-2.246,0.207-4.493,0.207-6.74V35.62c0.103-0.859,0-1.785,0-2.644c0-2.908-0.516-5.816-1.032-8.658
	c-0.206-0.925-0.723-1.784-1.135-2.709v-0.132h2.786c3.404,0,6.808-0.198,10.213-0.33c1.444,0,2.888-0.066,4.332-0.066v0.264
	c0.104,0.728,0.207,1.388,0.619,2.115c-0.103,0.595-0.103,1.189-0.103,1.851c-0.104,1.916-0.207,3.767-0.31,5.683
	c-0.103,1.189-0.207,2.446-0.309,3.635c-0.207,2.511-0.413,5.089-0.516,7.665v0.397c0,0.198,0,0.397,0.104,0.595v3.238
	c0,2.313-0.206,4.691-0.413,7.005c0,0,0,0.066,0.104,0.066v0.264c0,0.067,0.103,0.067,0.103,0.133v0.065
	c0.206,0.133,0.412,0.199,0.619,0.265c0.722,0.198,1.444,0.397,2.167,0.595c0.516,0.133,1.135,0.266,1.65,0.397v0.264
	c-0.103,0.066-0.103,0.066-0.103,0.133v0.197c0,0-0.104,0.066-0.104,0.133v0.264c0,0.133,0,0.266,0.104,0.331
	c-0.104,0.065-0.207,0.133-0.207,0.197v0.529c0,0.198,0,0.331,0.103,0.528c0,0.067,0,0.198,0.104,0.266
	c-0.104,0.065-0.104,0.132-0.104,0.264h0.104c-0.104,0.066-0.104,0.132-0.104,0.198v0.066c0,0.198-0.103,0.396-0.206,0.594h0.206
	c0,0.198,0,0.266-0.103,0.397c0.103,0,0.103,0.066,0.207,0.066c0,0.065,0,0.065-0.207,0.132l0.103,0.065
	c0.206,0.133,0.413,0.265,0.723,0.331c1.134,0.462,2.373,0.793,3.61,1.123c0.309,0.133,0.722,0.265,1.032,0.133
	c0.103-0.265,0.103-0.529,0.103-0.794c0.103-0.065,0.103-0.131,0.103-0.198c0.103,0,0.103-0.132,0.103-0.264
	c0.516,0.132,0.929,0.198,0.929,0.198C74.086,60.271,74.188,60.139,74.188,59.94L74.188,59.94z"/>
<path d="M126.84,57.032h-0.207H126.84L126.84,57.032z"/>
<path d="M126.42,57.032c-0.104-0.065-0.206-0.065-0.413-0.065h-0.412C125.905,56.967,126.214,56.967,126.42,57.032L126.42,57.032z"
	/>
<path d="M155.504,60.008h1.135c2.476,0,4.848-0.33,7.222-0.661c2.166-0.33,4.126-1.124,5.88-1.982
	c0.413-0.199,0.825-0.462,1.135-0.728c0.412-0.198,0.516-0.396,0.516-0.727c0-0.133-0.104-0.264-0.207-0.396
	c0.104-0.066,0.207-0.132,0.31-0.198c0.104-0.265,0-0.528-0.104-0.794c-0.104-0.064-0.31-0.132-0.516-0.263
	c0.103-0.266,0.103-0.529,0-0.728l-0.722-0.397c-0.516-0.198-1.135-0.33-1.651-0.528c0.104-0.066,0.104-0.132,0.207-0.198h-0.207
	c0.104-0.132,0.31-0.198,0.31-0.33c0.104-0.066-1.65-0.264-1.34-0.199c-0.723-0.132-1.548-0.197-2.27-0.33
	c-0.413-0.065-0.825-0.065-1.238-0.065c-1.032,0.065-1.857,0.264-2.786,0.463c-1.341,0.264-2.579,0.396-3.92,0.594
	c-0.825,0.133-1.651,0.199-2.476,0.332c-0.31-0.067-0.619-0.067-0.826-0.133c-0.31-0.066-0.619-0.066-0.928-0.066
	c-1.548,0.132-3.095,0.264-4.643,0.462c-0.722,0-1.341,0-1.96,0.067h-0.722c-0.929-0.266-1.754-0.529-2.682-0.728
	c-0.104-0.066-0.104-0.066-0.207-0.132c-1.135-0.528-2.372-0.991-3.507-1.521c-1.135-0.594-2.167-1.256-3.095-1.981
	c-0.722-0.662-1.341-1.323-1.753-2.05c-0.206-0.528-0.413-1.123-0.515-1.651c-0.208-0.859-0.31-1.785-0.31-2.711v-0.132
	c0-0.33,0-0.66,0.103-0.99c0.208,0.064,0.31,0.132,0.517,0.132c0.515,0.132,1.134,0.198,1.651,0.265
	c1.134,0.132,2.269,0.197,3.507,0.197c2.579,0.066,5.261-0.33,7.737-0.727c4.023-0.528,7.943-1.321,11.76-2.115
	c0.206-0.065,0.412-0.065,0.516-0.132c2.373-0.396,4.746-0.925,7.015-1.454c0.928-0.197,1.857-0.396,2.786-0.594
	c0.31-0.066,0.619-0.132,1.031-0.199c0.825-0.066,1.032-0.33,0.412-0.793h-0.103c0-0.132-0.104-0.198-0.31-0.33
	c0.826-0.066,0.928-0.331,0.412-0.728c-0.103-0.131-0.206-0.198-0.309-0.198c-0.104-0.066-0.104-0.066-0.207-0.132v-0.132
	c0.31-0.132,0.31-0.331-0.103-0.727c-0.104-0.066-0.206-0.133-0.413-0.199c-0.516-0.198-1.032-0.463-1.547-0.661
	c0,0-1.857-0.925-1.96-0.793c-0.825,0.132-1.547,0.331-2.373,0.528c-0.516,0.132-1.031,0.331-1.547,0.463
	c-0.826,0.132-1.754,0.331-2.58,0.462c-2.992,0.595-5.983,1.19-8.872,1.719c-3.404,0.661-6.809,1.189-10.316,1.652
	c-1.96,0.264-4.023,0.463-6.087,0.528c0.104-0.197,0.104-0.33,0.104-0.528c0.413-2.181,0.723-4.362,0.825-6.543
	c0.104-1.52,0.104-3.04,0.207-4.494v-0.661c0.929,0.132,1.857,0.264,2.888,0.396c1.96,0.066,3.921,0.066,5.88,0.066
	c2.889,0,5.777-0.265,8.563-0.462c2.682-0.264,5.261-0.595,7.839-0.992c0.723-0.066,1.444-0.198,2.167-0.33
	c1.754,0,2.476-0.529,2.269-1.586c0,0-0.103-0.066-0.207-0.132c0.207-0.199,0.31-0.529,0.31-0.925c0,0-0.104-0.132-0.31-0.199
	c2.373-0.198,4.643-0.462,7.016-0.66c-0.206-0.133-0.412-0.265-0.619-0.331h-0.103c0.103,0,0.206,0,0.309-0.066
	c-0.103-0.132-0.309-0.198-0.619-0.331h-0.103c1.031-0.066,2.062-0.132,2.991-0.198l-0.104-0.066
	c-0.207-0.132-0.412-0.198-0.619-0.33h0.31l-0.104-0.066c-0.412-0.198-0.722-0.331-1.134-0.462c0.309,0,0.515,0,0.825-0.066
	c-0.104,0-0.104-0.066-0.206-0.066c0.309,0,0.619-0.066,0.928-0.066c0,0-0.516-0.198-0.928-0.396c0.103,0,0.206-0.066,0.309-0.066
	c-0.103-0.132-0.309-0.198-0.516-0.264c0,0,0-0.066-0.104-0.066h0.413c-0.104-0.132-0.31-0.198-0.516-0.264
	c0-0.066-0.104-0.066-0.104-0.066c0.207,0,0.516-0.066,0.722-0.066c-0.103-0.132-0.31-0.198-0.516-0.265
	c-0.619-0.264-1.341-0.594-2.063-0.859c-0.723-0.264-1.445-0.595-2.167-0.859c-0.207-0.066-0.412-0.131-0.619-0.131
	c-0.206,0-0.516-0.066-0.825-0.066c-0.515-0.066-0.825,0-1.031,0.198c-2.064,0.199-4.023,0.331-6.087,0.529
	c-5.157,0.396-10.315,0.992-15.474,1.652c-0.722,0.066-1.341,0.066-2.063,0.132c-1.548,0.264-3.198,0.595-4.849,0.925
	c-0.412,0-0.825,0.066-1.135,0.132c-0.104-0.066-0.206-0.132-0.413-0.199c0.104,0,0.207-0.066,0.207-0.066
	c0.104,0,0.206,0,0.206-0.066c0.207-0.066,0.413-0.132,0.723-0.198c0,0-0.207-0.132-0.516-0.265l0.104-0.066
	c0.104,0-0.104-0.132-0.31-0.198c0.104-0.066,0.207-0.066,0.207-0.066c0.104,0-0.103-0.132-0.31-0.264
	c0.208,0,0.413-0.066,0.619-0.066c0.103-0.066-0.516-0.331-0.412-0.264c-0.104-0.066-0.826-0.529-1.032-0.463
	c-0.413,0.066-0.825,0.132-1.341,0.198c-0.619,0.132-1.238,0.33-1.856,0.661c-0.619,0.264-1.032,0.793-1.444,1.189
	c-0.104,0.133-0.207,0.264-0.413,0.397h-1.753c-0.723,0.198-1.547,0.33-2.476,0.396c-0.207,0,0.207,0.199,0.31,0.265
	c-0.207,0-0.413,0.066-0.517,0.066h-0.103c-0.104,0,0,0.065,0.103,0.132c-0.103,0.066-0.206,0.066-0.309,0.066h0.103
	c-0.103,0,0,0.066,0.104,0.132h-0.207c0,0.066,0.207,0.198,0.31,0.264c-0.206,0.066-0.412,0.066-0.619,0.066h-0.103
	c-0.104,0.066,0.31,0.265,0.412,0.33h-0.619h0.104c-0.104,0,0,0.066,0.206,0.199h-0.31c-0.104,0,0.619,0.396,0.619,0.396
	c0.104,0.066,0.31,0.132,0.412,0.198c0,0,0.104,0,0.104,0.066h-0.104c-0.104,0,0.104,0.066,0.207,0.198
	c-0.207,0-0.516,0.066-0.722,0.066c-0.103,0.066,0.104,0.132,0.31,0.264c-0.207,0-0.31,0.066-0.413,0.066
	c0,0.066,0,0.132,0.104,0.132c-0.104,0-0.104,0-0.207,0.066c0.104,0.066,0.104,0.132,0.31,0.198c0.31,0.199,0.722,0.396,1.134,0.661
	c0.104,0,0.207,0.066,0.31,0.132c-0.31,0.529-0.619,0.991-0.826,1.52c-0.31,0.727-0.619,1.388-0.825,2.049
	c-0.515,1.454-0.825,2.907-1.031,4.428c-0.104,1.123-0.104,2.247,0,3.37c-0.104,0.066-0.104,0.198-0.104,0.33
	c-0.309,0.728-0.515,1.52-0.722,2.247c-0.413,1.52-0.516,3.041-0.619,4.561v1.784c0,0.529,0,1.058,0.104,1.652
	c0.31,1.521,0.928,3.04,1.651,4.559c0.412,0.728,0.928,1.323,1.65,1.918c-0.413-0.066-0.825-0.133-1.341-0.133
	c-0.619-0.198-1.238-0.33-1.857-0.462c-1.135-0.266-2.579-0.133-3.816-0.133c-3.921,0.065-7.84,0.463-11.76,0.793
	c-2.373,0.198-4.746,0.33-7.119,0.463h-0.206c-0.103-0.265-0.103-0.463-0.103-0.661c0.103-2.709,0.309-5.419,0.515-8.129
	c0.207-3.172,0.413-6.344,0.517-9.582c0.207-3.172,0.207-6.411,0.207-9.649c0-0.991-0.103-2.048-0.103-3.04v-1.917
	c0.207-0.925,0.103-1.85-0.104-2.775c0-0.066-0.103-0.132-0.309-0.132c0-0.264-0.103-0.529-0.103-0.793V15.2
	c0-0.132-1.548-0.33-1.548-0.33c-0.103,0-1.443-0.331-1.65-0.199c-0.516,0.529-1.032,0.992-1.444,1.586v-0.265
	c0.103,0,0.103-0.066,0.103-0.132c0.103,0,0.103,0,0.103-0.066c-0.103-0.066-0.207-0.132-0.207-0.132
	c-0.207-0.199-1.032-0.265-1.238-0.265c0-0.066-1.134-0.331-1.238-0.198c-0.516,0.331-0.825,0.595-0.928,0.925
	c-0.103,0.132-0.207,0.264-0.207,0.396c-0.309,0.199-0.413,0.331-0.516,0.529c-0.206,0.198-0.31,0.331-0.31,0.529
	c-0.103,0.066-0.103,0.066-0.103,0.132c-0.207,0.132-0.309,0.397-0.309,0.595c-0.104,0.199-0.207,0.331-0.104,0.529
	c-0.103,0.396,0.104,0.859,0.516,1.454c-0.103,1.52-0.206,3.04-0.206,4.56c-0.104,1.719-0.104,3.437-0.206,5.155
	c-0.104,1.85-0.31,3.767-0.413,5.617v0.661c-0.207,1.322-0.309,2.644-0.413,3.965c-0.206,2.247-0.413,4.494-0.619,6.741
	c-0.207,1.851-0.309,3.634-0.516,5.419c0,0.858-0.103,1.718-0.103,2.512c-0.206,1.255-0.103,2.511,0,3.701
	c0.103,0.462,0.206,0.925,0.206,1.32c0.104,0.463,0.207,0.926,0.31,1.322c0,0.198,1.96,0.198,1.96,0.198c0.104,0,1.96,0.133,2.063,0
	c0.207-0.198,0.31-0.396,0.517-0.528v0.133c0.103,0.131,1.753,0.064,1.753,0.064s1.753,0.066,1.753-0.064
	c0.103-0.199,0.103-0.397,0.206-0.596c0.207,0.066,0.414,0.066,0.619,0.132c0,0,1.135,0.132,2.063,0.265
	c1.342,0.33,2.786,0.595,4.229,0.728c3.714,0.33,7.531-0.066,11.245-0.464c1.857-0.197,3.715-0.528,5.468-0.792
	c1.547-0.198,2.786-0.661,3.714-1.455c0-0.065-0.207-0.131-0.413-0.263l0.104-0.067c0,0-0.104-0.131-0.31-0.198
	c0.206-0.132,0.516-0.33,0.722-0.528c0.103,0-0.413-0.199-0.516-0.264l0.104-0.066c0.103-0.066-0.104-0.132-0.31-0.199
	c0.104-0.065,0.104-0.065,0.206-0.132c0,0-0.104-0.066-0.206-0.132c0.104,0,0.104-0.066,0.206-0.066h0.928
	c-0.103-0.065-0.103-0.065-0.206-0.065c0.206,0,0.412,0.065,0.619,0v0.065h0.309c0.104,0,0.207,0,0.413,0.066
	c0.104,0,0.206-0.066,0.412-0.066c-0.207-0.132-0.412-0.265-0.618-0.265c-0.104-0.065-0.104-0.065-0.208-0.065
	c0.104,0,0.208-0.066,0.413-0.066c-0.207-0.132-0.31-0.198-0.619-0.264c-0.31-0.067-0.619-0.198-0.825-0.33
	c0.412,0.064,0.516,0.132,0.928,0c0-0.067-0.103-0.067-0.207-0.133c0.516,0.065,0.619,0.133,1.031,0
	c0.104,0-0.515-0.198-0.928-0.396c0.104,0,0.206,0,0.31-0.066c-0.104-0.066-0.31-0.132-0.516-0.198c0,0,0-0.066-0.103-0.066
	c0.103,0,0.206,0,0.309-0.065c0.104,0-0.103-0.066-0.206-0.132c0.929,0,1.96,0,2.992,0.065c0.103,0.066,0.207,0.066,0.309,0.132
	c-0.206-0.132-0.515-0.265-0.824-0.33c-0.104-0.065-0.207-0.133-0.31-0.197c0.103,0,0.207,0,0.31,0.064h0.103
	c0.104,0,0.31,0.067,0.412,0.067c-0.206-0.067-0.516-0.199-0.722-0.265c-0.207-0.133-0.516-0.331-0.722-0.463
	c0,0,0.104,0,0.104,0.066c0.31,0.065,0.516,0.132,0.516,0.065V54.06c0.104,0.065,0.31,0.065,0.413,0.132
	c-0.207-0.066-0.31-0.132-0.517-0.198c0-0.065,0-0.065-0.103-0.132c0.309,0,0.516,0,0.722,0.066c0.206,0,0.31,0.065,0.206,0h0.207
	c0.206,0.197,0.413,0.33,0.619,0.462c0.619,0.331,1.238,0.661,1.857,0.991c1.134,0.596,2.476,1.124,3.817,1.521
	c0.723,0.528,1.547,1.058,2.373,1.586c1.031,0.595,1.341,0.727,2.476,1.189c0.207,0.065,0.31,0.065,0.517,0.132
	c0.31,0.066,0.722,0.132,1.032,0.264c-0.104-0.064-0.207-0.064-0.31-0.064c0.207,0.064,0.412,0.064,0.619,0.132
	c0.515,0.065,1.031,0.198,1.547,0.33c2.682,0.66,6.086,1.521,9.079,0.66c0.412-0.132,0.928-0.264,1.341-0.396
	C154.576,60.536,155.092,60.338,155.504,60.008L155.504,60.008z M144.362,59.678c-0.207,0-0.31-0.067-0.412-0.067
	c-0.103,0-0.103-0.064-0.206-0.064C143.95,59.546,144.156,59.61,144.362,59.678L144.362,59.678z M142.299,52.804
	c0.104,0.067,0.31,0.067,0.413,0.132h-0.104C142.505,52.871,142.402,52.804,142.299,52.804L142.299,52.804z M144.156,58.752
	c-0.104,0-0.207-0.066-0.31-0.066l-0.103-0.065c0.309,0.065,0.721,0.132,1.031,0.198C144.568,58.818,144.362,58.752,144.156,58.752
	L144.156,58.752z M141.371,52.936c0.207,0.066,0.31,0.133,0.412,0.133c0.207,0.065,0.31,0.133,0.516,0.198
	c-0.104,0-0.31-0.065-0.413-0.065c-0.309-0.133-0.619-0.199-0.928-0.33C141.165,52.871,141.269,52.936,141.371,52.936
	L141.371,52.936z M140.958,53.861h-0.207v-0.065c-0.207-0.066-0.412-0.133-0.619-0.199c0.104,0,0.207,0.066,0.31,0.066
	C140.649,53.729,140.753,53.796,140.958,53.861L140.958,53.861z M142.403,56.835c0.207,0.067,0.516,0.132,0.825,0.198
	C142.918,56.967,142.609,56.902,142.403,56.835z M145.602,57.563c0,0.065,0.103,0.065,0.206,0.065h-0.104
	c-0.516-0.065-1.135-0.197-1.651-0.264c-0.515-0.066-0.928-0.132-1.444-0.199c-0.104-0.065-0.31-0.065-0.516-0.132
	c-0.104,0-0.31-0.066-0.413-0.066c-0.104-0.064-0.104-0.064-0.104-0.132C142.919,57.1,144.259,57.364,145.602,57.563L145.602,57.563
	z M143.021,57.827c-0.103-0.066-0.206-0.133-0.31-0.199c0.929,0.199,1.857,0.396,2.786,0.529h-0.104
	c-0.619-0.066-1.135-0.133-1.65-0.198C143.434,57.893,143.228,57.827,143.021,57.827L143.021,57.827L143.021,57.827z
	 M144.466,57.761c-0.516-0.066-1.032-0.198-1.547-0.265c-0.104,0-0.31-0.065-0.516-0.065c0-0.066-0.104-0.066-0.104-0.066
	c-0.103-0.066-0.103-0.066-0.207-0.132c1.341,0.264,2.786,0.528,4.23,0.727c0.104,0,0.104,0,0.206,0.065
	c-0.206-0.065-0.412-0.065-0.516-0.065C145.498,57.893,144.982,57.827,144.466,57.761L144.466,57.761z M145.602,57.298
	c-0.517-0.065-1.136-0.133-1.651-0.198c-0.412-0.066-0.825-0.133-1.238-0.197c0.413,0,0.826,0,1.341,0.064
	c0.516,0.066,1.135,0.198,1.754,0.266c0.412,0.065,0.722,0.132,1.135,0.198C146.529,57.364,146.014,57.364,145.602,57.298
	L145.602,57.298z M145.808,56.967h0.103H145.808z M140.959,53.267h0.206c0,0,0.103,0.066,0.207,0.066c-0.104,0-0.207,0-0.31-0.066
	H140.959L140.959,53.267z M142.506,53.796h-0.207H142.506L142.506,53.796z M145.395,58.488c-0.31,0-0.723,0-1.032-0.066
	c-0.207-0.066-0.516-0.199-0.723-0.265c0.619,0.133,1.342,0.198,1.961,0.331H145.395L145.395,58.488z M140.753,51.879
	c1.238,0.396,2.579,0.859,3.816,1.255c-0.31,0-0.516-0.065-0.722-0.065c-0.413-0.133-0.825-0.265-1.238-0.396
	c-0.722-0.265-1.444-0.595-2.167-0.926C140.546,51.813,140.649,51.813,140.753,51.879L140.753,51.879z M128.27,53.399v0.065V53.399z
	 M128.58,53.796c-0.104-0.066-0.207-0.133-0.31-0.199h0.104v-0.065c0.207,0.132,0.31,0.198,0.515,0.33
	C128.785,53.861,128.683,53.796,128.58,53.796L128.58,53.796z M145.086,60.14h-0.517c-0.206-0.066-0.412-0.132-0.619-0.198
	c0.104,0,0.207,0,0.413,0.066c0.309,0.065,0.619,0.065,0.825,0.132H145.086L145.086,60.14z"/>
<path d="M224.096,59.346c1.65-0.595,3.096-1.322,4.643-2.049c1.444-0.727,2.683-1.652,3.921-2.512
	c1.237-0.926,1.96-1.983,2.682-3.041c0.62-0.99,0.825-1.981,0.929-3.039c0.104-0.463,0.206-0.925,0.206-1.388
	c0.104-1.123-0.515-2.313-1.031-3.37c-0.104-0.396-0.31-0.859-0.516-1.256c-0.414-0.793-1.134-1.586-1.754-2.313
	c-0.929-1.058-2.271-2.048-3.507-2.974c-0.311-0.198-0.62-0.396-0.93-0.529c0-0.132-0.104-0.198-0.104-0.33
	c-0.103-0.066-0.412-0.132-0.515-0.132c-0.518-0.331-1.137-0.661-1.65-0.925c-1.238-0.992-2.477-1.983-3.817-2.842
	c-0.104-0.066-0.207-0.132-0.31-0.198v-0.066c-0.103,0-0.103-0.066-0.208-0.066c-0.102-0.066-0.102-0.066-0.205-0.132h0.311
	c0.103,0,0.103-0.066,0-0.066c-0.517-0.264-1.031-0.462-1.549-0.727l-0.103-0.066c0.413,0.132,0.721,0.265,1.135,0.396
	c0.206,0.066,0.411,0.132,0.619,0.132c0.206,0,0.206-0.066,0.103-0.132c-0.929-0.396-1.856-0.859-2.787-1.255
	c0.105-0.066-0.103-0.066-0.411-0.132c0.206-0.066,0.411-0.132,0.62-0.264c0.104,0-1.134-0.331-1.134-0.264
	c-0.413-0.132-0.826-0.199-1.24-0.265c-0.102-0.132-0.308-0.198-0.411-0.264c-1.96-1.058-4.022-2.049-6.087-3.04
	c-2.063-0.991-4.229-1.917-6.396-2.908c-2.373-1.058-4.951-2.115-7.427-3.172c-1.239-0.991-2.785-1.982-4.54-2.643
	c-0.516-0.264-1.03-0.529-1.65-0.727c-0.311-0.132-0.722-0.265-1.031-0.397c0.31-0.264,0.62-0.528,0.93-0.793
	c1.959-0.859,4.125-1.388,6.394-1.85c2.167-0.264,4.437-0.331,6.603-0.396c1.24-0.066,2.477,0,3.611,0.066
	c1.754,0.595,3.097,1.189,4.642,2.115c0.105,0.198,0.311,0.396,0.517,0.529c0.31,0.265,0.412,0.529,0.515,0.793
	c0.105,0.132,0.105,0.331,0.105,0.462c-0.206,0.463-0.311,0.992-0.105,1.454v0.661l0.105,0.066v0.198
	c0,0.198,1.34,0.529,1.444,0.595c0.309,0.066,1.236,0.529,1.546,0.463c0.206-0.066,0.311-0.066,0.517-0.132
	c0,0.198,0.104,0.33,0.206,0.462c0.104,0.264,0.929,0.529,1.238,0.661c0.311,0.132,0.618,0.331,1.03,0.462
	c0.105,0.066,0.206,0.066,0.311,0.066c-0.104-0.396-0.205-0.793-0.311-1.189c0.105,0.066,0.105,0.066,0.206,0.132
	c0.104,0.066,0.207,0.066,0.311,0.066c-0.104-0.331-0.206-0.661-0.311-0.992v-0.066c-0.101-0.199-0.101-0.463-0.206-0.661h0.105
	c0.411,0.396,0.928,0.859,1.34,1.256c0.826,0.793,1.548,1.718,2.063,2.709v0.132c0,0.066,0.104,0.132,0.104,0.199
	c0.104,0.132,0.104,0.33,0.104,0.462h0.103c0,0.132,0.104,0.264,0.104,0.331c0,0.132,1.755-0.132,1.755-0.132
	c0.206-0.066,1.65-0.132,1.752-0.331c0.31-0.462,0.517-0.859,0.517-1.388c0.208-0.462,0.31-0.925,0.31-1.454
	c-0.102-0.462-0.206-0.991-0.412-1.454c-0.104-0.529-0.411-1.058-0.722-1.52c-0.824-1.454-2.374-2.709-3.817-3.899
	c-1.548-1.322-3.508-2.313-5.468-3.371c-0.929-0.529-1.959-0.925-2.99-1.322c-0.519-0.132-1.033-0.331-1.549-0.529
	c-1.341-0.264-2.682-0.529-4.022-0.793c-0.207-0.066-2.477,0.066-2.477,0.132c0,0.132,0,0.198,0.104,0.33h-0.104
	c-0.104,0.199,0,0.331,0,0.463c-0.62-0.264-1.238-0.463-1.962-0.661c-1.134-0.331-2.373-0.528-3.609-0.595
	c-1.444-0.132-2.785-0.066-4.231,0.132c-1.03,0.132-2.165,0.264-3.196,0.528h-0.207c-1.443-0.066-2.786,0.066-4.127,0.199
	c-0.825,0.066-1.65,0.396-2.27,0.595c-0.31,0.066-0.62,0.198-0.929,0.331c-0.825,0.264-1.65,0.661-2.27,1.189
	c-0.928,0.529-1.548,1.189-1.96,1.917c-0.207,0.198-0.309,0.33-0.412,0.462s-0.206,0.198-0.311,0.264v0.199
	c-0.103,0.066-0.103,0.132-0.206,0.198v0.397c0,0.066-0.104,0.132-0.104,0.198c0,0.066-0.104,0.132-0.104,0.198v0.132
	c-0.207,0.331-0.308,0.728-0.413,1.124c-0.102,0.198-0.205,0.462-0.205,0.727c-0.104,0.198-0.104,0.396-0.206,0.595v0.264
	c-0.207,0.595-0.207,1.124-0.104,1.653c0.104,0.33,0.205,0.661,0.31,0.991c0,0.198,0.104,0.396,0.205,0.595
	c0.105,0.132,0.105,0.198,0.105,0.33c0.205,0.397,0.31,0.793,0.62,1.19c0.309,0.462,0.72,0.925,1.34,1.322h0.103
	c-0.103,0.066,0.103,0.132,0.208,0.198c-0.105,0-0.105,0-0.208,0.066c-0.103,0,0,0.066,0.103,0.132c-0.205,0-0.31,0.066-0.515,0.132
	c-0.311,0,0.205,0.198,0.205,0.198c0.104,0,0.104,0,0.207,0.066c-0.103,0-0.31,0.066-0.516,0.132c-0.103,0,0.104,0.132,0.311,0.198
	c-0.104,0-0.207,0-0.207,0.066c-0.311,0,0.31,0.198,0.31,0.198c0.412,0.132,0.93,0.396,1.445,0.396
	c0.31,0.066,0.721,0.066,1.135,0.066c1.341,0.925,2.682,1.718,4.332,2.379c1.341,0.595,2.683,1.256,4.229,1.718
	c1.548,0.529,3.198,0.991,4.953,1.388c0.31,0.198,0.722,0.396,1.031,0.594c0.927,0.529,1.96,0.991,2.992,1.52
	c1.443,0.661,3.197,0.925,4.848,1.189c1.238,0.199,2.477,0.265,3.714,0.331c1.237,0.396,2.476,0.727,3.714,1.123
	c0.411,0.198,0.825,0.396,1.238,0.595c2.063,0.991,3.816,2.18,5.57,3.436c0,0.066-0.104,0.132-0.104,0.198h-0.103
	c-0.104,0.265-0.104,0.528-0.104,0.793c-0.205,0-0.412-0.066-0.412,0c0,0.528,0.104,1.058,0.104,1.586v0.066
	c0.104,0.132,0.104,0.265,0.104,0.396v0.132c0,0.066,0.104,0.133,0.104,0.198c0.618,1.058,1.134,2.181,1.649,3.371
	c0.206,0.396,0.517,0.859,0.722,1.321c0.104,0.132,0.206,0.331,0.31,0.463c-0.515,0.528-1.134,0.991-1.65,1.52
	c-0.412,0.331-0.824,0.661-1.237,1.058c-0.723,0.462-1.443,1.058-2.063,1.586c-0.31,0.132-0.516,0.199-0.825,0.265
	c-1.238,0.529-2.579,0.925-3.816,1.388c-1.548,0.463-2.992,0.925-4.437,1.388c-0.618,0-1.135,0-1.753-0.065
	c-5.676-0.199-11.35-0.529-17.021-0.992c-1.651-0.463-3.302-0.991-5.058-1.453v-0.133c0-0.132-1.442-0.265-1.545-0.265
	c0,0-1.342-0.198-1.549-0.132c-0.103,0-0.103-0.066-0.103-0.066c-0.104,0-0.207,0-0.31,0.066c0.103,0.132,0.206,0.199,0.31,0.265
	v0.066h-0.207c-0.103-0.066-0.207-0.066-0.31,0c0.103,0.065,0.207,0.198,0.31,0.264c-0.207,0-0.413,0-0.31,0.066
	c0.103,0.066,0.207,0.198,0.413,0.264c-0.208,0-0.311,0-0.208,0.066s0.103,0.066,0.208,0.133v0.065
	c-0.105-0.065-0.208-0.065-0.208,0c0,0,0-0.065-0.103-0.065c-0.104,0-0.207,0-0.31,0.065c0.103,0.067,0.205,0.198,0.31,0.265v0.133
	c-0.207,0-0.413,0-0.207,0.065c0,0.066,0.103,0.133,0.31,0.197v0.067c-0.207,0-0.412,0-0.207,0.065c0,0.066,0.104,0.066,0.207,0.133
	v0.396c0,0.133,0,0.264,0.103,0.396c0.105,0.397,0.311,0.794,0.724,1.058c0,0.066,0.103,0.066,0.103,0.066
	c0.517,0.331,1.032,0.661,1.445,0.991c0.31,0.133,0.619,0.33,1.03,0.463c0.825,0.396,1.651,0.728,2.581,0.991
	c0.205,0.066,0.31,0.066,0.515,0.132h-1.961c-0.721,0-1.546-0.065-2.269-0.132c-1.857-0.727-3.301-1.718-4.435-3.04
	c0-0.066-0.93-0.199-0.93-0.066c-0.929-0.595-1.444-1.321-1.651-2.113c-0.103-0.199-1.236-0.332-1.34-0.199
	c-0.619,0.396-0.928,0.792-1.032,1.189c-0.207,0.265-0.31,0.528-0.207,0.859c-0.31,0.33-0.31,0.727-0.103,1.124
	c-0.104,0.264,0,0.462,0.103,0.726c0,0.133,0.104,0.265,0.207,0.396c0,0.066,0,0.133,0.104,0.266
	c0.104,0.595,0.722,1.058,1.651,1.32c0.31,0.133,0.618,0.266,0.927,0.331c0.206,0.528,0.825,0.925,1.756,1.256
	c1.341,0.794,1.958,0.858,3.712,1.256c0.826,0.131,1.755,0.264,2.581,0.396c3.402,0.529,6.911,0.991,10.418,1.388
	c1.343,0.132,3.095,0.132,4.539,0.132c4.539,0.066,8.975-0.925,13.307-1.85c3.611-0.794,7.018-1.917,10.318-3.172H224.096z
	 M189.846,58.354c0.104,0.066,0.207,0.066,0.31,0.066c-0.205,0-0.31,0-0.411-0.066c-0.104,0-0.104,0-0.207-0.065
	C189.641,58.354,189.744,58.354,189.846,58.354L189.846,58.354z M189.33,58.023c-0.103,0-0.103-0.065-0.206-0.065
	c0.206,0.065,0.411,0.065,0.62,0.131h0.102C189.641,58.089,189.537,58.089,189.33,58.023L189.33,58.023z M189.228,57.759
	c-0.311-0.132-0.723-0.264-1.032-0.462c0.62,0.132,1.135,0.33,1.65,0.462c0.516,0.067,0.93,0.199,1.445,0.265
	C190.568,57.958,189.95,57.891,189.228,57.759L189.228,57.759z M208.623,29.539c-0.207-0.198-0.518-0.33-0.725-0.528
	c0.31,0.132,0.725,0.264,1.136,0.396c0.104,0.066,0.207,0.066,0.31,0.132H208.623L208.623,29.539z M186.133,25.839h0.206
	c0.413,0.198,0.825,0.396,1.135,0.594c0.105,0.066,0.105,0.066,0.206,0.132c0.311,0.132,0.62,0.331,1.032,0.463
	c0.825,0.396,1.753,0.793,2.579,1.123c-0.826-0.264-1.65-0.528-2.476-0.859c-0.104,0-0.206-0.066-0.412-0.132
	c-0.722-0.397-1.444-0.793-2.064-1.19C186.235,25.904,186.235,25.904,186.133,25.839L186.133,25.839z M187.887,27.292h-0.103
	H187.887z M188.3,27.557v-0.066V27.557z M188.403,27.623c0.102,0,0.206,0.065,0.309,0.065c0.207,0.133,0.412,0.265,0.618,0.331
	C189.021,27.887,188.712,27.755,188.403,27.623L188.403,27.623z M188.919,27.755l-0.207-0.066c-0.412-0.198-0.825-0.396-1.135-0.528
	c-0.413-0.265-0.724-0.463-1.033-0.728c0.208,0.132,0.31,0.199,0.518,0.331c0.412,0.198,0.825,0.397,1.342,0.595
	c0.927,0.396,1.856,0.859,2.783,1.189C190.465,28.284,189.641,28.02,188.919,27.755L188.919,27.755z M190.362,56.238h-0.412
	c-0.206-0.065-0.413-0.132-0.517-0.198C189.744,56.106,190.054,56.173,190.362,56.238L190.362,56.238z M187.37,56.371
	c2.374,0.462,4.746,0.925,7.118,1.454c-1.753,0-3.403-0.133-5.055-0.396C188.712,57.164,187.99,56.768,187.37,56.371L187.37,56.371z
	 M190.155,58.684c0.104,0.066,0.31,0.066,0.413,0.133c-0.516-0.066-1.033-0.133-1.548-0.266c-0.31-0.131-0.617-0.263-0.928-0.396
	C188.711,58.354,189.535,58.551,190.155,58.684L190.155,58.684z M189.537,58.948c0.516,0.065,1.031,0.198,1.548,0.33h-0.414
	c-0.516-0.065-0.927-0.132-1.442-0.264c-0.31-0.066-0.619-0.265-0.929-0.396C188.712,58.75,189.124,58.816,189.537,58.948
	L189.537,58.948z M189.228,59.278h0.103H189.228z"/>
<path d="M280.305,59.809c0-0.265-0.103-0.595-0.103-0.859c0.31-0.066,0.618-0.133,0.618-0.197c-0.102-0.331-0.102-0.662-0.206-0.993
	l0.104-0.064c-0.413-1.389-0.723-2.711-1.135-4.099c-0.105-0.33-0.207-0.66-0.413-0.99c0-0.397-0.104-0.728-0.104-1.124
	c-0.104-0.397-0.207-0.793-0.309-1.124c-0.207-1.256-0.825-2.511-1.342-3.7c-0.31-0.727-0.722-1.454-1.032-2.181
	c0.103-0.132,0.311-0.265,0.412-0.397c0.206-0.33,0.206-0.594,0-0.792c0.104-0.067,0.104-0.133,0.206-0.198
	c0.311-0.463,0.207-0.794-0.31-1.058v-0.066c0.413-0.595-0.104-0.991-1.341-1.189h-0.412c-0.206-0.529-0.309-1.058-0.412-1.52
	c-0.31-1.256-0.517-2.446-0.825-3.635c-0.103-0.396-0.103-0.859-0.206-1.256c-0.104-0.528-0.104-1.057-0.206-1.586
	c-0.311-2.644-0.207-5.353-0.104-7.997c0-1.652,0.104-3.305,0.104-4.957c0-0.463,0-0.925,0.103-1.454
	c0.207-0.198,0.31-0.396,0.412-0.595c0-0.264,0.104-0.595,0.206-0.859c0-0.066-0.103-0.132-0.103-0.198
	c0.103-0.265,0.206-0.529,0.31-0.793c-0.31-0.264-0.413-0.463-0.31-0.727c0-0.066-0.104-0.132-0.207-0.198
	c0-0.066,0.104-0.066,0.104-0.132c-0.309-0.198-0.309-0.462-0.205-0.661c0-0.132-0.207-0.264-0.31-0.33
	c-0.311-0.132-0.825-0.265-1.136-0.331c-0.208,0-0.31-0.066-0.413-0.066c-0.103,0-0.103,0.066-0.103,0.066
	c-0.104,0.066-0.207,0.066-0.413,0.132c-0.103-0.462-0.206-0.859-0.31-1.322c0-0.065-0.102-0.065-0.102-0.132
	c-0.105-0.265-0.105-0.595-0.208-0.859c0-0.198-1.959-0.661-2.063-0.595c0,0.132-0.104,0.264-0.104,0.331h-0.103
	c-0.103,0.264-0.208,0.529-0.309,0.793h-0.104c-0.103,0.397-0.309,0.859-0.515,1.256c-0.104,0.925-0.104,1.785-0.104,2.709
	c-0.205,1.388-0.31,2.775-0.515,4.163v5.551c0,1.652,0,3.371,0.205,5.023c0,1.586,0.207,3.172,0.414,4.758
	c0,1.058,0.102,2.049,0.206,3.106c-1.756,0-3.508-0.066-5.158-0.199c-4.126-0.858-8.048-2.048-12.07-3.039
	c-1.032-3.966-1.755-7.997-2.476-12.028c-0.516-1.916-0.826-3.899-0.826-5.882v-0.925c0.104-0.594-0.104-1.189-0.515-1.784
	c0-0.331-0.104-0.661-0.311-1.057c0-0.132-0.825-0.265-1.032-0.265c-0.102-0.066-0.928-0.264-1.032-0.132
	c-0.516,0.264-0.825,0.528-1.134,0.859v0.131c-0.104,0.066-0.104,0.133-0.207,0.199v0.463c-0.103,0.132-0.206,0.198-0.31,0.264
	v0.396c0,0,0,0.066-0.104,0.066c0.104,0.396,0.104,0.793,0.104,1.256c0.104,3.304,0.413,6.675,1.031,9.979
	c0.31,2.511,0.724,4.957,1.135,7.402c-0.205-0.066-0.411-0.066-0.618-0.132c-0.31-1.124-0.723-2.247-1.033-3.371
	c-0.31-0.859-0.515-1.784-0.721-2.709c-0.207-1.388-0.311-2.709-0.311-4.098c-0.104-1.784,0-3.635-0.205-5.419v-0.925
	c0.205-0.595,0.102-1.124-0.309-1.586c0-0.396-0.105-0.793-0.518-1.189c0-0.132-0.723-0.198-0.826-0.198
	c-0.102-0.066-0.31-0.066-0.515-0.132v-0.132c0-0.133-2.269-0.595-2.269-0.463c-0.31,0.265-0.516,0.595-0.723,0.991
	c-0.207,0.331-0.311,0.661-0.413,0.992c-0.205,0.264-0.311,0.529-0.311,0.793v0.991c0,0.661,0,1.322,0.206,1.982
	c0.207,1.388,0.414,2.842,0.518,4.296c-0.104,1.784-0.104,3.635-0.104,5.485c0,0.992,0.104,2.049,0.311,3.04
	c-0.414-0.066-0.825-0.132-1.24-0.198c-0.311,0-0.618-0.066-0.929-0.066c-0.103,0-0.103,0.066,0,0.066
	c0.724,0.198,1.344,0.331,2.064,0.529c-0.411-0.066-0.928-0.132-1.341-0.132c-0.311-0.066-0.62-0.132-0.929-0.132
	c-0.103,0-0.103,0.066,0,0.066c0.516,0.132,1.032,0.264,1.443,0.396c-0.102,0-0.31-0.066-0.411-0.066
	c-0.31-0.066-0.62-0.066-0.93-0.066c-0.103,0-0.205,0,0,0.066c0.516,0.132,1.136,0.264,1.651,0.396c-0.205,0-0.311,0-0.516-0.066
	c0.205,0.066-1.445-0.132-1.031,0c0.516,0.132,1.031,0.199,1.444,0.331c-0.31,0-0.619-0.066-0.929-0.132
	c-0.311,0-0.62-0.066-0.93-0.066c-0.103,0-0.103,0.066,0,0.066c1.032,0.264,1.961,0.462,2.891,0.727
	c-0.62-0.066-1.24-0.132-1.858-0.198c-0.31-0.066-0.618-0.133-0.928-0.133c-0.104,0-0.104,0.066,0,0.066
	c0.515,0.132,1.031,0.264,1.546,0.396c-0.205,0-0.31-0.066-0.411-0.066c0.206,0.066-1.547-0.133-1.032,0
	c0.929,0.198,1.961,0.462,2.89,0.727v0.066c0.104,0.199,0.104,0.396,0.205,0.661c0,0.066,0,0.198,0.104,0.264
	c0.104,0.463,0.206,0.925,0.311,1.322c0,0.132,0.104,0.264,0.104,0.396v0.132c0.104,0.066,0.104,0.198,0.104,0.265
	c0,0.065,0.103,0.198,0.103,0.264c0.723,2.445,1.856,4.825,2.992,7.138c0,0.066,0,0.132,0.104,0.132c0,0.066,0,0.133,0.104,0.199
	c0.102,0.264,0.206,0.463,0.412,0.726c0.31,0.529,0.619,1.125,1.03,1.653c0.207,0.462,0.517,0.926,0.826,1.322
	c0.723,1.718,1.342,3.502,1.961,5.221c0.412,1.189,0.928,2.379,1.548,3.503c0.207,0.66,0.722,1.651,1.341,2.445
	c0.206,0.33,0.31,0.66,0.617,0.925c0.207,0.33,0.516,0.661,0.931,0.925h0.31c0.103,0.066,1.236,0,0.929,0
	c0.824-0.066,1.648-0.066,2.372-0.132c2.063-0.199,2.063-0.199,2.063-0.199c0.31,0,0.516-0.065,0.722-0.131
	c-0.103-0.067-0.206-0.199-0.309-0.265h0.103c-0.206-0.198-0.31-0.331-0.411-0.463c0-0.066,0.104-0.066,0.205-0.066l-0.102-0.065
	c0-0.066,0.102-0.066,0.206-0.066c0.205,0,0.515,0,0.721-0.066c-0.206-0.197-0.411-0.463-0.619-0.661h0.104
	c-0.104-0.065-0.205-0.197-0.205-0.264c0.102,0,0.308-0.066,0.515-0.066c-0.31-0.396-0.619-0.728-0.929-1.058l0.104-0.065
	c0.205-0.331,0.31-0.661,0.31-0.925c0.104-0.067,0.205-0.067,0.205-0.067c0.104-0.396,0.207-0.792,0.31-1.255
	c0-0.661,0-1.389-0.205-2.115c-0.104-0.132-0.104-0.331-0.206-0.528c0-0.133,0-0.265-0.104-0.463v-0.265
	c-0.104-0.197-0.104-0.396-0.205-0.595v-0.065c-0.104-0.331-0.207-0.595-0.311-0.925c-0.62-1.719-1.342-3.504-1.961-5.222
	c-0.311-0.991-0.62-1.981-1.031-3.039c2.683,0.858,1.547,0.396,8.149,1.453c0.206,0.066,0.411,0.066,0.62,0.066
	c1.031,0.065,2.063,0.065,3.094,0.131c1.238,0,2.58,0.133,3.817,0.067h0.103c0.207,1.388,0.62,2.708,1.238,4.031
	c0.31,0.792,0.517,1.586,0.825,2.313c0.208,0.396,0.31,0.727,0.517,1.058c0.103,0.264,0.311,0.463,0.411,0.727
	c0,0.595,0.104,1.124,0.104,1.719c0.103,0,0.206,0.065,0.206,0.065c0,0.198,0,0.331,0.104,0.528h0.206v0.331
	c0.205,0.066,0.412,0.066,0.62,0.066c0.618,1.321,1.236,2.709,1.856,4.031h0.104c0.102,0.132,0.205,0.33,0.309,0.463
	c0.103,0.133,0.207,0.264,0.207,0.33c0.205,0.065,0.411,0,0.62,0c0.618-0.133,1.341-0.265,1.959-0.396
	C277.83,60.402,280.408,59.939,280.305,59.809L280.305,59.809z M262.975,41.437c-1.444-0.331-2.786-0.793-4.127-1.256
	c2.992,0.595,5.983,1.123,9.078,1.389c0,0.132,0.103,0.33,0.103,0.462c-0.103,0.065-0.311,0.065-0.516,0.132
	c0.104,0,0.207-0.066,0.207-0.066c-0.309,0.133-0.722,0.198-1.134,0.265C265.348,42.097,264.108,41.767,262.975,41.437
	L262.975,41.437z M267.101,41.172h-0.207c-0.31,0-0.515-0.066-0.721-0.066C266.482,41.105,266.791,41.172,267.101,41.172
	L267.101,41.172z M263.696,38.66h-0.206h0.411H263.696L263.696,38.66z M260.498,44.079c0.722,0.066,1.342,0.133,1.961,0.133
	c0.516,0.065,0.928,0.198,1.34,0.265h-0.412c-0.516-0.066-0.928-0.066-1.443-0.132C261.426,44.277,260.91,44.212,260.498,44.079
	L260.498,44.079z M263.593,44.807c-0.412-0.066-0.927-0.066-1.443-0.132h-0.104c0.722,0,1.443,0.065,2.269,0.065
	C264.005,44.74,263.799,44.807,263.593,44.807L263.593,44.807z"/>
<path d="M276.56,20.09c0.104,0.132,0.206,0.199,0.311,0.331c0.103,0,0.103,0,0.103,0.066c0.104,0.066,0.207,0.132,0.311,0.199
	c0.516,0.462,1.033,0.859,1.548,1.321c0-0.066,0.104,0,0.104,0.066c0.103,0.066,0.103,0.132,0.206,0.132
	c0,0,1.959,1.785,2.062,1.719c0.311-0.199,0.62-0.397,0.931-0.529c0,0,0.103,0,0.103,0.066c0.207,0.264,0.516,0.529,0.722,0.793
	c-0.104-0.066-0.104-0.066-0.206-0.066c0.102,0,0.206,0.066,0.206,0.066c0.206,0.198,0.31,0.331,0.411,0.396
	c0.104,0.132,0.31,0.264,0.62,0.331c0.826,0.396,1.651,0.793,2.476,1.19c0.62,0.264,1.238,0.528,1.856,0.859
	c0.105,0,0.105,0.066,0.207,0.066c0,0-0.102,0-0.102-0.066c0.31,0.198,0.72,0.33,1.031,0.462c0.205,0.066,0.41,0.066,0.619,0.132
	c0.103,0.066,0.206,0.132,0.309,0.132c0.928,0.396,1.857,0.728,2.785,1.124c0.516,0.198,1.032,0.396,1.548,0.528
	c0.928,0.265,1.136,0.331,2.063,0.397c0.724,0.132,1.342,0.065,2.063,0.065c2.786,0.066,5.571-0.528,7.944-1.189
	c1.959-0.529,3.92-1.388,4.435-2.775c0.104-0.198,0.104-0.396,0-0.595v-0.132c0.413-0.33,0.826-0.661,1.137-1.058
	c0.412-0.396,0.412-0.793,0.412-1.189c0.515-0.727,0.206-1.454-0.207-2.181c-0.104-0.066-0.104-0.132-0.207-0.265
	c-0.104-0.198-0.206-0.462-0.411-0.727c-0.518-0.925-2.064-1.454-3.302-1.851c-0.516-0.132-1.032-0.264-1.548-0.396
	c-2.166-0.396-4.436-0.727-6.705-1.058c-2.58-0.462-5.158-0.991-7.635-1.586c-0.411-0.066-0.928-0.132-1.341-0.132
	c-1.959-0.198-3.714-0.066-5.57,0.132c-1.753,0.198-3.507,0.529-5.158,0.991c-0.722,0.198-1.446,0.595-2.062,0.991
	c-0.31,0.265-0.62,0.463-1.033,0.728c-0.31,0.198-0.517,0.396-0.618,0.66c-0.207,0.265-0.31,0.529-0.207,0.859
	C276.458,19.363,276.458,19.693,276.56,20.09L276.56,20.09z M285.846,24.782l0.104,0.066c0.102,0.065,0.206,0.198,0.411,0.33
	c-0.205-0.066-0.31-0.132-0.515-0.198V24.782L285.846,24.782z M303.898,22.403c-0.825,0.661-2.166,1.057-3.302,1.454
	c-1.961,0.661-4.127,0.793-6.293,0.859c-0.41,0-0.721,0.066-1.136,0.066c-0.926,0-1.752-0.066-2.681-0.132
	c-0.411,0-0.929-0.066-1.342-0.132c-0.205-0.198-0.412-0.396-0.515-0.594c0-0.066-0.104-0.199-0.104-0.265
	c0-0.066,0-0.132,0.104-0.132c0.103-0.595,0.515-1.124,1.031-1.652c0.516-0.529,1.34-0.925,2.165-1.256
	c0.413-0.132,0.826-0.264,1.24-0.396c1.031-0.132,1.958-0.265,2.888-0.396c1.341-0.132,2.579-0.265,3.92-0.331
	c0.311,0.132,0.722,0.265,1.031,0.397c0.724,0.264,1.445,0.594,2.063,0.991c0.516,0.331,0.929,0.728,1.238,1.19
	C304.104,22.205,304.001,22.271,303.898,22.403L303.898,22.403z"/>
<path d="M303.206,59.477c0.31-0.858,0.413-1.784,0.413-2.709c0-0.859,0-1.652,0.102-2.511c0-1.652-0.102-3.305-0.102-5.023
	c-0.104-2.709,0-5.419-0.104-8.063c0-0.793-0.104-1.521-0.31-2.313c-0.105-0.463-0.31-0.858-0.516-1.256
	c-0.31-0.925-0.93-1.652-1.651-2.445c-0.205-0.265-0.515-0.529-0.825-0.793c-0.515-0.462-0.515-0.331-1.444-0.595
	c-0.103-0.066-0.31-0.066-0.411-0.066c-0.207-0.396-0.516-0.661-0.93-0.992c-0.103-0.529-0.31-1.123-0.516-1.652
	c0,0-0.104-0.066-0.205-0.066c-0.105-0.33-0.207-0.661-0.311-0.991c0-0.198-1.755-0.396-1.856-0.396c0,0-2.064-0.33-2.064-0.264
	c0,0.132-0.104,0.264-0.206,0.33c-0.31,0.529-0.619,1.058-0.824,1.586v0.199c-0.104,0.198-0.206,0.396-0.311,0.595
	c0.311,1.322,0.206,2.644-0.104,3.965c-0.206,1.058-0.411,2.048-0.619,3.105c-0.207,0.991-0.516,2.049-0.825,3.106
	c-0.517,2.313-0.929,4.626-1.342,7.005c0,0.199-0.103,0.396-0.103,0.595v0.266c-0.104,0.396-0.104,0.858-0.206,1.255v0.331
	c0,0.264-0.104,0.527-0.104,0.792c-0.104,1.653-0.104,3.239,0.206,4.891h0.104c0,0.133,0,0.33,0.103,0.463c0,0,0.104,0,0.104,0.065
	v0.198c0.207,0.132,0.515,0.199,0.722,0.265c0.93,0.198,1.859,0.396,2.785,0.529v0.33c0,0-0.102,0-0.102,0.065
	c0,0.198,0,0.463,0.102,0.661c0,0.066,0,0.133-0.102,0.133c0,0.264,0,0.529,0.102,0.792h0.104c0,0.199,0.104,0.331,0.104,0.463
	c0.104,0,0.104,0,0.104,0.066s0.103,0.198,0.103,0.265c0.207,0.065,0.413,0.132,0.723,0.132c0.826,0.132,1.651,0.199,2.578,0.33
	h0.206c0.207,0.067,0.311,0.132,0.62,0.132h0.723c0.31,0.067,0.723,0.067,1.032,0.133c0.206,0,0.411,0.066,0.721,0
	c0.62,0,2.683,0.133,2.786,0C302.381,61.46,302.896,60.469,303.206,59.477L303.206,59.477z"/>
<path d="M335.989,61.195c-0.104-0.199-0.206-0.331-0.311-0.463c-0.103-0.198-0.308-0.396-0.515-0.528
	c-0.104-0.066-0.104-0.066-0.104-0.133c0.205,0.066,0.311,0.066,0.516,0.066c-0.103-0.132-0.205-0.33-0.311-0.462
	c-0.102-0.266-0.412-0.464-0.722-0.662c-0.31-0.132-0.825-0.463-1.134-0.528h-0.31c-0.516-0.463-0.825-0.925-1.238-1.388
	c-0.517-0.661-0.825-1.389-1.238-2.115c-0.104-0.33-0.206-0.661-0.309-1.057c-0.104-0.396-0.207-0.794-0.311-1.19v-0.594
	c-0.31-1.983-0.618-3.966-0.928-5.948c0-0.529-0.105-1.124-0.208-1.652c0-0.728,0-1.521,0.104-2.247c0-0.33,0-0.727-0.104-1.124
	c-0.103-0.595,0-1.256,0.104-1.85c0-0.066-0.207-0.066-0.413-0.133v-0.264c0-0.199,0-0.397,0.104-0.595
	c0-0.066-0.206-0.133-0.517-0.198c0-0.793-0.102-1.586-0.102-2.379c0.721-0.066,1.341-0.132,1.959-0.265
	c6.396-0.859,12.689-2.048,18.982-3.304c3.095-0.661,6.293-1.189,9.387-1.917c3.816-0.793,7.531-1.851,10.935-3.238
	c1.136-0.462,1.859-1.124,2.58-1.851c0.411-0.462,0.618-0.925,0.618-1.454c0-0.066-0.102-0.198-0.102-0.264v-0.066
	c0.205-0.529,0.102-1.058-0.105-1.52c-0.103-0.264-0.205-0.463-0.309-0.661c-0.103-0.199-0.103-0.331-0.205-0.463
	c0-0.132-0.104-0.198-0.104-0.265c0.104-0.33-0.206-0.793-0.516-1.123c0-0.331-0.206-0.661-0.31-0.925
	c-0.206-0.396-0.618-0.925-1.031-1.189c-0.724-0.462-1.136-0.793-1.961-1.124c-0.723-0.396-1.651-0.793-2.476-1.124
	c-0.825-0.331-1.65-0.727-2.579-0.991c-1.341-0.463-2.683-0.793-4.024-1.124c-2.578-0.529-5.261-0.793-7.943-1.057
	c-3.197-0.396-6.498-0.595-9.799-0.728c-4.85-0.264-9.803-0.066-14.649,0c-1.548,0.066-3.198,0.199-4.747,0.265
	c-3.196,0.198-6.188,0.661-9.18,1.256c-0.311,0.066-0.517,0.066-0.723,0.066c-0.412,0.066-0.825,0.132-1.135,0.33
	c-0.516,0.199-0.825,0.463-1.238,0.727l0.104,0.066c-0.104,0.066-0.206,0.132-0.31,0.199c-0.104,0.066,0,0.066,0,0.132l-0.104,0.066
	c-0.104,0.066,0,0.066,0.104,0.132l-0.104,0.066v0.066c-0.206,0.066-0.311,0.132-0.517,0.264c0,0,0.104,0.066,0.206,0.132
	c-0.103,0.066-0.206,0.132-0.308,0.198c0,0,0,0.066,0.102,0.132l-0.102,0.066c-0.104,0.066,1.959,1.058,2.372,0.992
	c1.032-0.066,2.165-0.265,3.198-0.396c5.57-0.793,11.245-1.058,16.918-1.256c6.706-0.265,13.515,0.132,20.219,0.595
	c1.343,0.132,2.684,0.265,4.023,0.396c-1.752,0-3.507,0.066-5.363,0.198c-1.547,0.066-3.095,0.198-4.644,0.264
	c-1.443,0.132-2.784,0.199-4.229,0.331c-0.205,0.066,0.105,0.198,0.105,0.265h-0.413c-0.205,0-0.104,0.132,0,0.198h-0.104
	c-0.104,0-0.104,0.066,0,0.132c-0.104,0,0.104,0.132,0.206,0.265h-0.721c-0.105,0.065,0.103,0.198,0.205,0.264
	c-0.103,0.066-0.205,0.066-0.311,0.066c-0.102,0,0,0.066,0.105,0.133h-0.105c-0.102,0.065,0.93,0.727,0.826,0.66
	c0.207,0.132,0.825,0.595,1.136,0.529c6.911-0.529,14.028-0.529,20.839,0.264c0.721,0.066,1.341,0.132,1.959,0.265
	c-0.206,0.198-0.31,0.396-0.31,0.661c-0.104,0,0,0.066,0.104,0.132c-0.104,0.066-0.104,0.132-0.104,0.199
	c-0.104,0.065,0,0.132,0.104,0.132c0,0.066-0.104,0.066-0.104,0.132c0,0.066,0.722,0.462,0.722,0.462
	c0.103,0.066,0.311,0.132,0.516,0.264c-2.889,1.19-6.292,1.917-9.49,2.578c-2.888,0.595-5.777,1.057-8.666,1.586
	c-0.207,0.066-0.413,0.066-0.618,0.132c-4.333,0.859-8.665,1.652-13,2.379c-2.063,0.33-4.229,0.661-6.291,0.925
	c-0.104-2.313-0.413-4.692-0.722-7.072c-0.104-0.925,0-1.851-0.207-2.841c0-0.463-0.104-0.925-0.104-1.388
	c0-0.397-0.206-0.793-0.412-1.124c0-0.331-0.104-0.661-0.206-0.992c0-0.198-1.65-0.594-1.756-0.462
	c-0.102,0.132-0.102,0.198-0.205,0.331c-0.31,0.462-0.516,0.859-0.825,1.322v0.132c-0.103,0.198-0.207,0.396-0.31,0.661
	c0-0.132-0.103-0.265-0.103-0.396c0,0-0.104,0-0.31-0.066c0-0.33-0.104-0.595-0.104-0.925c0-0.132-4.436-0.396-4.436-0.264
	c-0.104,0.132-0.104,0.198-0.104,0.331h-0.103c-0.103,0.33-0.103,0.595-0.103,0.859c-0.207,0-0.311,0.066-0.311,0.066
	c-0.31,2.181-0.206,4.428,0.206,6.608c0,0.199,0.104,0.396,0.104,0.595c0,1.982-0.104,3.965-0.207,5.948
	c-3.302,0.396-6.706,0.859-10.109,1.322c0.103,0.132,0.103,0.198,0.207,0.264c-0.104,0.066-0.311,0.066-0.413,0.066
	c0,0.133,0.103,0.198,0.103,0.264c0.105,0.133,0.207,0.265,0.311,0.396c-0.205,0.066-0.413,0.066-0.516,0.066
	c0,0.198,0.103,0.331,0.311,0.462c0.205,0.265,0.515,0.529,0.722,0.793c0.411,0.463,0.825,0.992,1.236,1.454
	c0.517,0.529,1.032,1.058,1.548,1.586c0.104,0.199,0.207,0.331,0.413,0.397c1.96-0.066,3.92-0.198,5.879-0.331
	c0,1.982-0.102,3.965-0.205,5.948c-0.31,3.436-0.104,6.873,0.722,10.31c0,0.132,0.104,0.264,0.104,0.33
	c-0.104,0.596-0.104,1.189-0.104,1.718v1.124c0,0,0,0.066-0.104,0.066c-0.104,0.132,0,0.197,0.104,0.33
	c-0.104,0.133,0,0.198,0.104,0.265v0.131h-0.104c0,0.067-0.104,0.067-0.104,0.133c-0.207,0.133,0,0.265,0.206,0.396
	c0,0.066,0,0.066-0.103,0.066c-0.104,0.132,0,0.265,0.103,0.33c-0.206,0.265,0.311,0.397,0.62,0.529
	c0.723,0.33,1.443,0.528,2.166,0.66c-0.104,0-0.206,0.066-0.413,0.066c-0.205,0.066,0.104,0.132,0.104,0.132
	c0.205,0.067,0.411,0.067,0.618,0.067c-0.206,0.065-0.413,0.132-0.618,0.198c-0.208,0,0.103,0.064,0.103,0.064v0.067
	c-0.103,0-0.205,0-0.311,0.065c-0.102,0,0.105,0.066,0.105,0.066c0.205,0.066,0.618,0.133,0.824,0.133
	c-0.206,0.131-0.412,0.197-0.824,0.264c-0.207,0.066,0.103,0.132,0.103,0.132c0.103,0,0.31,0.066,0.516,0.066
	c-0.206,0.065-0.311,0.065-0.618,0.132c-0.105,0,0.103,0.066,0.103,0.066c0.412,0.133,0.928,0.133,1.341,0.133
	c1.136-0.067,1.857-0.133,2.786-0.463c0.31-0.133-0.413-0.199-0.517-0.133c-0.619,0.133-1.237,0.198-1.752,0.265
	c0.721-0.066,1.34-0.198,2.165-0.463c0.206-0.132-0.413-0.132-0.515-0.132c-0.311,0.066-0.62,0.132-0.93,0.198V60.27
	c0.104-0.065,0-0.132,0-0.132v-0.066c0.104,0,0.31,0,0.412-0.065c0.104,0.065,0.207,0.065,0.31,0.065v-0.133
	c0.208-0.065,0.31-0.065,0.516-0.131v-0.066c0.207-0.065,0.311-0.065,0.516-0.133c0.31-0.132-0.411-0.198-0.618-0.132h-0.207
	c0,0-0.104,0-0.104-0.066c0.207-0.064,0.413-0.132,0.62-0.197c0.309-0.066-0.413-0.133-0.517-0.133
	c-0.104,0.066-0.206,0.066-0.206,0.066h-0.104c0.104,0,0.206-0.066,0.206-0.066h0.206v-0.066c0.104,0,0.207-0.065,0.311-0.065
	c0.207-0.132-0.206-0.132-0.411-0.132V58.75c0.205-0.066,0.31-0.132,0.515-0.199c0.517,0.199,1.136,0.331,1.651,0.463
	c0.205,0.133,0.413,0.133,0.618,0.133c0-0.133-0.104-0.265-0.205-0.463c0.102,0.066,0.205,0.066,0.31,0.133
	c-0.104-0.133-0.104-0.331-0.208-0.464c0.105,0,0.208,0,0.311,0.067c0.309,0.396,0.619,0.858,1.032,1.256
	c0.721,0.727,1.134,0.792,2.166,1.255c0.104,0.065,0.311,0.065,0.411,0.133c0.825,0.198,1.65,0.33,2.477,0.528
	c0.825,0.198,1.548,0.33,2.372,0.528c0.207,0,0.517,0.066,0.724,0.066c-0.104-0.198-0.311-0.331-0.413-0.463
	c0-0.132-0.104-0.265-0.311-0.397h0.104c-0.104-0.131-0.205-0.197-0.205-0.33c0.102,0.067,0.205,0.067,0.412,0.067
	c0.206,0.065,0.411,0.132,0.618,0.132H335.989z M365.494,16.322c0.103,0.066,0.103,0.066,0.205,0.132
	c-0.205-0.066-0.411-0.198-0.722-0.264l-0.104-0.066C365.081,16.19,365.287,16.256,365.494,16.322L365.494,16.322z M365.184,15.265
	c0.104,0.066,0.104,0.132,0.207,0.198c-0.104-0.066-0.104-0.066-0.207-0.132c-0.207-0.066-0.413-0.132-0.516-0.199
	C364.771,15.132,364.978,15.199,365.184,15.265z M364.668,16.454h-0.104v-0.066C364.564,16.454,364.668,16.454,364.668,16.454z
	 M363.534,14.802c0.103,0.066,0.206,0.066,0.206,0.132C363.74,14.868,363.637,14.868,363.534,14.802z M323.713,58.421
	c-0.103,0-0.103,0-0.103,0.065c0-0.065-0.104-0.065-0.104-0.065H323.713L323.713,58.421z"/>
<path d="M379.162,14.104c0,0.082-0.136,0.164-0.136,0.246c0,0.082,0,0.164,0.136,0.246c0,0-0.136,0-0.136,0.083
	c0.405,0.409,0.676,0.901,0.947,1.394c0.271,0.738,0.405,1.394,0.539,2.049c0,0.328,0.136,0.656,0.136,0.902
	c0.135,0.574,0.135,1.065,0.135,1.558c0.271,1.066,0.408,2.214,0.408,3.279c0.271,2.377,0.539,4.674,0.676,6.969
	c0.404,3.279,0.677,6.559,1.758,9.674c0.136,0.246,0.136,0.41,0.271,0.656c0,1.066,0.137,2.296,0.677,3.28
	c0,0.245,0.135,0.491,0.27,0.738c0,0.163,0.137,0.244,0.137,0.327c0.136,0.246,3.111,0.081,3.111,0.081h2.569
	c0.135,0,0.407,0,0.542-0.081c0.271-0.083,0.405-0.164,0.675-0.246c0.135,0,0.271-0.082,0.407-0.164
	c0.675,0,0.946-0.164,0.812-0.492c0-0.082,0.136-0.163,0.136-0.328c0-0.164,0-0.327,0.134-0.409
	c0.137-0.083,0.137-0.246,0.137-0.493c0-0.081,0.137-0.163,0.137-0.327c0.136-0.492,0.136-1.065,0.271-1.639
	c0.136-0.82,0.136-1.559,0.136-2.379c0.134-3.607,0.271-7.297,0.271-10.986c0-3.771-0.271-7.625-0.678-11.396
	c-0.135-0.82-0.135-1.64-0.27-2.378c-0.271-0.656-0.406-1.312-0.678-1.886c-0.134-0.246-0.271-0.492-0.406-0.656
	c-0.135-0.246-0.27-0.41-0.27-0.656c-0.271-0.82-1.082-0.984-2.028-1.394c-0.407-0.082-0.677-0.164-1.084-0.164
	c-0.539-0.164-1.216-0.246-1.892-0.246c0,0-1.489-0.164-1.083,0c0.136,0,0,0.164,0,0.328c-0.271,0-0.271,0-0.137,0.082v0.083
	c0,0.082-0.135,0.164-0.135,0.246c-0.136,0.082-0.136,0.164-0.136,0.164v0.082c-0.136,0.246-0.271,0.41-0.271,0.41
	c0,0.082,0.137,0.164,0.137,0.246l-0.137,0.083l0.137,0.082c-0.271,0.246-0.407,0.574-0.407,0.574c0,0.164,0,0.328,0.136,0.41
	c-0.136,0.082-0.136,0.165-0.136,0.165c0.136,0.246,0.136,0.41,0.271,0.656c0,0.082,0,0.164,0.137,0.328
	c-0.271-0.328-0.54-0.656-0.946-0.983c-0.271-0.165-0.542-0.328-0.812-0.41c-0.407-0.082-2.841-0.656-3.112-0.41
	c-0.271,0.328-0.676,0.574-1.082,0.902c0.135,0.082,0.135,0.082,0.135,0.164c-0.135,0.082-0.135,0.164-0.27,0.246
	c0,0.082,0.135,0.164,0.135,0.246l-0.135,0.082c0,0.164,0.135,0.246,0.135,0.328c-0.135,0.165-0.27,0.246-0.541,0.41
	c0.135,0.082,0.271,0.246,0.271,0.328L379.162,14.104z"/>
<path d="M399.882,15.662v0.315c0.234,0.473,0.468,0.867,0.703,1.34c0.351,0.788,0.701,1.498,1.053,2.286
	c0.116,0.946,0.35,1.892,0.468,2.916c0.232,2.208,0.467,4.415,0.584,6.621c0.353,4.415,0.585,8.829,1.053,13.322
	c0,0,0.118,0,0.118,0.079c0,0.158,0.116,0.315,0.116,0.474l0.117,0.077c0.119,0.08,0.119,0.158,0.119,0.238
	c0.233,0.077,0.467,0.157,0.701,0.235c1.053,0.157,1.988,0.395,3.043,0.553c-0.118,0,0.585,0.157,1.287,0.235v0.08
	c0.117,0.156,0.35,0.235,0.701,0.235c0.818,0.315,1.754,0.552,2.69,0.788c0,0,3.276,0.946,3.393,0.789
	c0.702-0.631,1.288-1.262,1.521-2.05c0.118-0.236,0.118-0.552,0.234-0.789c0-0.157,0.117-0.235,0.117-0.393
	c0.117-0.395,0.117-0.789,0.233-1.183c-0.116-0.946-0.233-1.892-0.351-2.838c-0.352-2.68-0.937-5.282-1.403-7.883
	c-0.468-2.286-0.82-4.572-1.404-6.937c-0.353-1.734-0.938-3.468-1.639-5.281c-0.116-0.158-0.234-0.395-0.352-0.631
	c-0.116-0.237-0.234-0.395-0.234-0.631c-0.351-0.551-0.702-1.182-1.053-1.734c-0.586-1.261-1.638-2.364-2.925-3.389
	c-0.234-0.315-1.405-0.394-1.755-0.473l-1.872-0.236c0.117,0.158,0.234,0.315,0.234,0.473h-0.352v-0.237
	c-0.117-0.236-1.054-0.315-1.404-0.394c-0.818-0.158-1.521-0.237-2.34-0.395c-0.118,0-0.702-0.079-0.937-0.079
	c-0.116,0-0.116,0.079-0.116,0.079c-0.117,0.079-0.117,0.237-0.117,0.395h-0.118c-0.116,0.236-0.116,0.552-0.116,0.946
	c-0.118,0-0.118,0-0.118,0.079c-0.234,0.236-0.234,0.709-0.234,1.104C399.529,14.4,399.764,15.11,399.882,15.662L399.882,15.662z"/>
<path d="M433.949,20.7c0,1.656,0.117,3.311,0.234,4.966c-0.117,0.63-0.117,1.104,0,1.655c0.116,0.394,0.234,0.709,0.352,1.024
	c0,0.395,0,0.868-0.117,1.262c0,2.522-0.234,4.966-0.118,7.41c0,1.261,0.118,2.443,0.352,3.626c0.117,0.235,0.117,0.394,0.234,0.551
	v0.08c0.116,0.631,0.352,1.182,0.702,1.813c0.117,0.236,0.234,0.473,0.352,0.631c0.233,0.63,0.7,1.183,1.17,1.654v0.788
	c0.117,0.08,0.117,0.08,0.232,0.08v0.63c0,0.079,0.119,0.079,0.119,0.079v0.394c0.233,0.079,0.467,0.079,0.702,0.079h2.34
	c0,0,2.924,0,2.924-0.157c0.469-1.813,1.054-3.626,1.522-5.439v-0.078c0.116-0.315,0.232-0.71,0.232-1.104
	c0.117-3.548,0.235-7.174,0.235-10.8c0.117-1.892,0.117-3.784,0.234-5.675c0.585-3.941,0.232-7.882-1.288-11.824
	c-0.116-0.395-0.116-0.789-0.234-1.183c-0.117-0.236-2.34-0.709-2.457-0.63c0,0.158-0.117,0.315-0.233,0.473
	c-0.233,0.551-0.584,1.103-0.819,1.655c0-0.237,0-0.395-0.116-0.631c0-0.158-1.404-0.395-1.521-0.473
	c-0.118,0-1.404-0.394-1.641-0.236c-0.35,0.236-0.817,0.552-1.169,0.867c-0.585,0.394-0.936,0.789-1.171,1.261
	c-0.232,0.395-0.35,0.71-0.35,1.104c-0.353,0.394-0.467,0.867-0.353,1.34C433.833,17.468,433.949,19.124,433.949,20.7L433.949,20.7z
	"/>
<path d="M371.429,56.983c0.54,0.82,1.216,1.559,2.027,2.296c0-0.082-0.135-0.082-0.27-0.164c0.137,0.082,0.27,0.164,0.405,0.164
	c0.137,0.164,0.407,0.328,0.542,0.492c-0.271-0.082-0.542-0.164-0.813-0.328c0.407,0.164,0.677,0.328,0.947,0.41
	c0.541,0.491,1.218,0.983,1.623,1.312h-0.137h0.137c0.135,0.164,0.406,0.328,0.541,0.492c0.27,0.165,0.54,0.246,0.947,0.328
	c1.082,0.328,2.163,0.655,3.246,0.901c0.27,0.083,0.406,0.164,0.676,0.164c0.541,0.164,1.082,0.328,1.487,0.493
	c0.406,0.081,0.813,0.163,1.083,0.327c-0.135-0.082-0.27-0.164-0.406-0.246c0.541,0.163,1.083,0.328,1.76,0.492
	c0.27,0.164,0.675,0.164,1.082,0.246c1.757,0.082,3.38,0,5.14,0c4.869-0.165,9.603-0.902,13.931-2.214
	c0.813-0.327,1.624-0.737,2.301-1.23c0.677-0.409,1.217-0.901,1.488-1.476c0.271-0.41,0.271-0.738,0.271-1.148v-0.081
	c0.271-0.573,0.405-1.066,0.135-1.641c0-0.409-0.271-0.819-0.54-1.147c-0.137-0.327-0.271-0.655-0.404-0.983
	c-0.408-0.573-1.084-1.066-1.896-1.477c-0.812-0.408-1.759-0.737-2.706-0.983c-1.217-0.245-2.57-0.41-3.786-0.655
	c-0.947-0.082-2.03-0.247-2.976-0.41c-0.271-0.082-0.678-0.164-0.542-0.164c-0.539-0.164-0.946-0.246-1.486-0.41h0.271
	c0.54,0.164,1.216,0.41,1.758,0.41c0.54,0.082-1.081-0.41-0.813-0.328c-0.945-0.327-1.757-0.574-2.704-0.819
	c0.539,0,0.947,0.082,1.352,0.082c0.542,0.245,1.219,0.41,1.894,0.491c0.541,0-1.081-0.491-0.81-0.41
	c-0.407-0.081-0.947-0.245-1.354-0.409c0.406,0.081,0.812,0.081,1.217,0.164c0.542,0.164,1.218,0.327,1.894,0.409
	c0.54,0.083-1.218-0.492-0.947-0.409c-0.539-0.164-1.081-0.328-1.623-0.493h0.137c0.54,0.165,1.218,0.41,1.893,0.493
	c0.407,0-1.081-0.493-0.811-0.41c-0.541-0.164-1.082-0.328-1.624-0.493c0.137,0,0.271,0.083,0.407,0.083
	c0.54,0.164,1.217,0.327,1.758,0.41c0.54,0-0.676-0.41-0.676-0.328c-0.813-0.246-1.489-0.492-2.165-0.656
	c0.407,0,0.947,0.083,1.353,0.083c0.542,0.245,1.217,0.408,1.758,0.491c0.541,0-0.945-0.41-0.675-0.41
	c-0.948-0.246-2.029-0.574-3.111-0.901c-1.487-0.41-2.976-0.574-4.599-0.82c-2.165-0.327-4.329-0.245-6.493-0.245
	c-1.758-0.082-3.381,0.328-5.004,0.901c-1.624,0.491-2.978,1.476-4.194,2.296c-0.677,0.574-1.082,1.147-1.488,1.804
	c-0.404,0.491-0.539,1.065-0.812,1.64c-0.135,0.245-0.135,0.41-0.135,0.655c-0.136,0.083-0.136,0.247-0.136,0.328
	c-0.271,0.574-0.137,1.148,0,1.722C370.889,56.082,371.16,56.573,371.429,56.983L371.429,56.983z M381.167,62.231
	c-0.27-0.082-0.677-0.082-0.946-0.165c-0.271-0.081-0.542-0.244-0.812-0.327c0.404,0.083,0.812,0.246,1.217,0.327
	c0.271,0.083,0.406,0.083,0.676,0.165H381.167L381.167,62.231z M379.543,61.329v-0.082V61.329z M379.543,60.1
	c0.542,0.164,1.083,0.328,1.624,0.492c-0.406-0.082-0.677-0.164-1.082-0.247C379.948,60.264,379.679,60.182,379.543,60.1
	L379.543,60.1z M395.776,50.753h0.134c-0.271,0-0.405,0-0.676-0.082C395.505,50.753,395.642,50.753,395.776,50.753L395.776,50.753z
	 M378.19,58.214c0.676-1.558,2.3-2.787,3.923-3.936c0.676-0.492,1.624-0.983,2.57-1.394c0,0,0.136,0.082,0.271,0.082
	c0.946,0,1.894,0.082,2.705,0.164c2.164,0.655,4.329,1.394,6.357,2.05c1.081,0.41,2.029,0.819,2.841,1.312
	c0.271,0.164,0.677,0.328,0.947,0.491c0.135,0.164,0.405,0.328,0.54,0.493c-0.677,0.491-1.489,0.983-2.299,1.312
	c-0.813,0.327-1.761,0.574-2.841,0.737c-1.489,0.41-3.247,0.574-4.87,0.656c-2.299,0.163-4.598,0.163-6.764,0
	c-0.404-0.082-0.811-0.164-1.218-0.246c-0.676-0.245-1.353-0.573-2.163-0.902c0-0.081-0.136-0.163-0.271-0.245v-0.083
	C378.055,58.542,378.055,58.378,378.19,58.214L378.19,58.214z"/>
<path d="M396.479,48.785"/>
<path d="M409.927,47.902c-0.584-0.315-0.936-0.237-0.936,0.078v0.08c-0.117,0-0.117,0.078-0.234,0.157c-0.585,0-1.287,0-1.872,0.158
	c-1.053,0.157-1.755,0.708-2.105,1.418c-0.468,0.552-0.702,1.262-0.819,1.733c-0.234,0.396-0.234,0.711-0.352,1.026v0.63
	c-0.117,0.315,0,0.631,0.117,0.867c0.352,0.552,0.585,1.024,0.819,1.419c0.234,0.394,0.353,0.788,0.585,1.104
	c0.234,0.473,0.586,0.867,1.288,1.34c0.935,0.631,1.871,1.262,2.925,1.893c0.116,0.157,0.352,0.315,0.584,0.551
	c-0.116-0.158-0.234-0.235-0.353-0.394c0.236,0.158,0.471,0.315,0.703,0.474c0.352,0.235,1.287,0.866,1.872,1.023l1.288,0.315
	c1.169,0.158,2.222,0.236,3.392,0.158c1.288,0,2.809-0.237,3.979-0.474c2.573-0.473,4.797-1.419,6.552-2.68
	c0.935-0.552,1.285-1.262,1.521-2.049c0.116-0.158,0.116-0.396,0-0.553c0.116-0.158,0.235-0.394,0.235-0.551
	c0.232-0.631-0.119-1.183-0.586-1.656c-0.117-0.315-0.235-0.71-0.468-1.024c-0.468-0.789-1.521-1.183-2.457-1.577
	c-0.468-0.158-0.938-0.315-1.404-0.474c-3.978-0.866-7.839-1.654-11.816-2.363C411.564,48.296,410.745,48.061,409.927,47.902
	L409.927,47.902z M408.289,57.992v-0.158c0.117,0.079,0.235,0.158,0.353,0.236C408.524,58.07,408.406,57.992,408.289,57.992z
	 M413.087,52.554c0.584,0,1.287,0,1.872,0.078c0.35,0.079,0.585,0.236,0.935,0.315c0.702,0.394,1.404,0.788,1.99,1.261
	c0.585,0.237,0.936,0.552,1.287,0.866c-0.585,0.554-1.64,0.869-2.457,1.184c-0.703,0.236-1.405,0.474-2.225,0.63
	c-0.935,0.237-1.988,0.237-3.042,0.237h-0.7c-0.82-0.158-1.522-0.395-2.225-0.631c-0.116-0.078-0.116-0.236-0.116-0.315
	c0.116-0.551,0.351-1.104,0.701-1.655c0.352-0.709,1.287-1.183,2.106-1.655c0.469-0.236,0.936-0.395,1.402-0.473
	c0.119,0.078,0.235,0.078,0.469,0.158H413.087z"/>
<path d="M453.577,50.937c0-0.15-0.123-0.3-0.123-0.375c0-0.374-0.124-0.524-0.615-0.449c-0.124-0.225-0.368-0.225-0.738-0.15
	c-0.124-0.074-0.246,0-0.37,0v-0.074c-0.122-0.15-0.245-0.375-0.369-0.525c-0.244-0.374-0.615-0.749-0.982-1.05
	c-0.862-0.674-2.216-1.124-3.446-1.499c-0.124,0-0.124,0-0.245-0.074c-0.739-0.227-1.6-0.375-2.461-0.45
	c-1.847-0.299-4.185-0.225-5.783,0.3c-0.369,0.074-0.616,0.149-0.861,0.225c-0.246,0-0.493,0.075-0.739,0.15
	c-0.369,0.075-0.614,0.225-0.86,0.375c-1.479,0.749-2.832,1.574-4.307,2.398c-0.246,0.15-0.493,0.299-0.738,0.449
	c0.123-0.074,0.244-0.149,0.368-0.225c-0.368,0.3-0.861,0.524-1.229,0.749c-0.247,0.3-0.493,0.6-0.616,0.975
	c-0.615,0.824-0.492,1.799-0.492,2.623c0,1.124,0.492,2.324,0.861,3.448c0.861,2.249,2.337,4.347,4.675,6.221
	c0.738,0.601,1.847,0.899,2.955,1.124c0.49,0.076,0.859,0.076,1.353,0.076c0.615,0.149,1.23,0.149,1.846,0.149
	c0.739-0.075,1.354-0.149,1.969-0.45c0.739,0,1.478-0.149,2.092-0.448c0.615-0.301,1.23-0.676,1.723-1.051
	c0.492-0.524,0.984-1.049,1.354-1.573c0.246-0.3,0.369-0.675,0.615-1.05c0.739-1.425,1.354-2.848,1.968-4.347
	c0.246-0.45,0.492-0.899,0.739-1.274C453.208,52.66,454.07,52.81,453.577,50.937L453.577,50.937z M434.997,49.063
	c0,0.075-0.123,0.075-0.246,0.149C434.874,49.138,434.874,49.138,434.997,49.063z M445.702,54.535v0.225h-0.124
	c-0.369,0.299-0.738,0.599-0.983,0.899c-0.615,0.524-1.229,1.124-1.845,1.574c-0.862,0.674-1.601,1.124-2.708,1.574l-0.123-0.075
	c-0.616-0.3-1.107-0.751-1.478-1.199c-0.738-0.75-1.107-1.724-1.477-2.55c-0.491-0.898-0.614-1.873-0.736-2.772v-0.824
	c0-0.226,0.122-0.45,0.122-0.75c0-0.225,0.123-0.449,0.245-0.675c0.246-0.225,0.491-0.449,0.615-0.6c0.247,0,0.37,0.075,0.615,0.075
	c1.601,0.375,3.077,1.049,4.308,1.649c1.231,0.6,2.091,1.424,2.952,2.249C445.209,53.785,445.455,54.16,445.702,54.535
	L445.702,54.535z"/>
<path d="M30.698,58.422c0-0.132-0.103-0.264-0.103-0.396h4.332c0.31,0,0.516,0,0.723-0.066c-0.104-0.066-0.207-0.198-0.207-0.33
	c-0.207-0.133-0.309-0.265-0.413-0.464h0.104c0-0.064,0-0.132-0.104-0.132h0.31c0.206,0,0.516,0,0.722-0.065
	c-0.206-0.198-0.413-0.396-0.619-0.661V56.24c-0.103-0.065-0.207-0.131-0.207-0.264c0.207,0.066,0.31,0,0.516,0
	c-2.166-2.445-4.332-4.956-6.396-7.401c-1.96-2.248-3.61-4.561-5.261-6.873c0.207-0.066,0.516-0.133,0.722-0.198
	c0.825-0.066,0.722-0.066,1.651-0.331c0.413-0.065,0.825-0.132,1.237-0.197c0.928-0.198,1.651-0.463,2.477-0.728
	c-0.104-0.066-0.104-0.066-0.207-0.066c-0.207,0-0.517-0.065-0.825-0.065c0.309-0.066,0.515-0.133,0.722-0.198
	c0,0-0.825-0.066-1.341-0.133c0.619-0.133,1.238-0.33,1.857-0.595h-0.206c-0.413-0.066-0.723-0.066-1.135-0.066
	c0.206-0.132,0.516-0.197,0.722-0.264c0,0-0.413-0.066-0.929-0.066c0.31-0.066,0.516-0.198,0.722-0.264c0,0-0.31,0-0.619-0.066
	c0.309-0.066,0.515-0.199,0.825-0.265c0,0-1.96-0.197-1.651-0.133c-0.928-0.064-1.959-0.132-2.888-0.132
	c-0.516-0.065-1.032-0.065-1.547-0.065c-0.619,0.133-1.342,0.264-1.96,0.396c-0.309-0.462-0.515-0.858-0.825-1.255
	c-2.476-3.634-4.436-7.335-6.292-11.103c-0.619-1.388-1.238-2.709-1.754-4.031c-0.619-1.652-1.341-3.37-2.063-5.023
	c-0.618-1.52-1.34-3.04-2.063-4.56c-0.104-0.198-1.444-0.198-1.651-0.264c0.103,0-1.548-0.132-1.548-0.066v0.33
	c-0.103,0-0.103,0.066-0.103,0.066v0.793c-0.104,0-0.207,0-0.207,0.066v0.595c-0.413-0.066-0.825-0.132-1.238-0.199
	c-1.135-0.132-2.579-0.33-3.714-0.264c-0.826,0-1.65,0.066-2.476,0.264c-0.309,0.066-0.722,0.199-1.031,0.331
	c-1.548,0.462-2.477,1.454-3.302,2.313c0,0.066-0.103,0.132-0.103,0.198c-0.103-0.198-0.206-0.396-0.206-0.595
	c0-0.066-0.103-0.066-0.103-0.066c-0.103-0.331-0.206-0.661-0.31-0.925c0-0.199-2.477-0.132-2.477,0
	c-0.413,0.528-0.722,1.057-0.928,1.652c-0.207,0.396-0.309,0.793-0.413,1.189c-0.31,0.859-0.413,1.718-0.31,2.644
	c-0.103,0.595-0.207,1.189-0.31,1.784c-0.206,0.925-0.516,1.917-0.722,2.842c-0.619,1.784-1.238,3.568-1.96,5.287
	c-0.516,1.322-1.032,2.644-1.651,3.966c-0.515,1.322-1.134,2.577-1.753,3.898c-0.412,0.859-0.825,1.785-1.237,2.645h-0.207
	c0.309,0-1.341-0.067-0.929,0c0.412,0.131,0.722,0.198,1.032,0.264v0.066h-0.207c0.207,0.066-1.444-0.066-0.928,0.066
	c0.413,0.065,0.722,0.132,0.928,0.197v0.066c-0.207,0-1.341-0.066-0.928,0c0.31,0.066,0.619,0.133,0.825,0.198v0.066h-0.722
	c-0.103,0-0.103,0.065,0,0.065c0.207,0.066,0.412,0.133,0.619,0.133v0.065c-0.309,0-1.341-0.065-0.928,0
	c0.309,0.133,0.619,0.198,0.825,0.265c0,0.065-0.104,0.133-0.104,0.198c-0.412,0-0.928,0-0.721,0.066
	c0.309,0,0.413,0.066,0.619,0.132v0.066h-0.516c-0.103,0-0.207,0.065,0,0.065c0.104,0.066,0.31,0.066,0.413,0.133
	c-0.722,1.586-1.341,3.173-1.96,4.759c-0.104,0.064-0.104,0.064-0.207,0.064c-0.309,0-0.722,0-1.032,0.067
	c0-0.067,0-0.067,0.104-0.132h-0.207c0.207-0.133,0.309-0.198,0.413-0.331c-0.104-0.066-0.206-0.066-0.413-0.066
	c-0.516,0-1.031-0.066-1.547-0.066c-0.413,0-1.547-0.132-1.96,0c-0.517,0.198-0.929,0.397-1.444,0.596
	c0.206,0.065,0.309,0.065,0.515,0.065v0.066c-0.206,0.066-0.413,0.132-0.619,0.265c0.104,0.065,0.31,0.065,0.413,0.065h0.104
	c-0.104,0.066-0.31,0.133-0.413,0.198c0.103,0.066,0.206,0.066,0.413,0.066h0.103c-0.103,0.066-0.206,0.132-0.413,0.132
	c0,0,0.207,0.066,0.413,0.066c-0.206,0.133-0.515,0.198-0.722,0.331c0.103,0,0.309,0.065,0.413,0.065c0.207,0,0.309,0,0.516,0.066
	c-0.309,0.065-0.516,0.198-0.826,0.264c0,0.066,0.207,0.066,0.517,0.133c-0.104,0-0.31,0.065-0.413,0.132
	c-0.104,0,1.547,0.198,1.238,0.198c0.928,0.066,1.96,0.199,2.889,0.264c0.412,0,0.824,0,1.237,0.067
	c-0.103,0.198-0.103,0.396-0.206,0.594c-0.516,1.454-0.825,2.908-1.238,4.363c-0.104,0.66-0.207,1.32-0.31,1.981
	c-0.413,0.992-0.826,2.05-1.134,3.04c0,0,0,0.066,0.103,0.066c-0.103,0.066-0.103,0.198-0.103,0.264c0,0,0,0.067,0.103,0.067
	c0,0.065-0.103,0.198-0.103,0.264c0,0,0,0.066,0.103,0.066c-0.103,0.132-0.103,0.33-0.207,0.462c0,0,0.104,0,0.207,0.066
	c0,0.132-0.103,0.265-0.103,0.462h0.103c0,0.066,0,0.198-0.103,0.331c0,0,0.515,0.066,0.825,0.066
	c0.103,0.33,0.207,0.66,0.309,0.926c0.104,0.462,0.207,0.925,0.413,1.32c0.104,0.596,0.412,1.124,0.722,1.653
	c0,0.198,1.341,0.065,1.444,0.065c0.104,0,1.342,0,1.444-0.133c0.825-1.188,1.342-2.378,1.651-3.634c0.31,0,0.517,0.065,0.826,0.065
	h0.516c0.206-0.065,0.309-0.132,0.516-0.198l0.31-0.197c0-0.33,0-0.596,0.103-0.859c0-0.066,0.103-0.133,0.207-0.133v-0.727
	c0-0.066,0.103-0.066,0.103-0.133v-0.132c0.207-0.528,0.31-0.99,0.413-1.453c0.619-1.587,1.342-3.173,2.27-4.693
	c0.826-1.651,1.96-3.37,3.095-5.021h0.722c1.031,0.065,1.96,0.065,2.888,0c1.135-0.067,2.167-0.198,3.198-0.33
	c2.063-0.266,4.023-0.728,5.983-1.124c4.642-1.058,9.181-2.313,13.72-3.635c3.507,5.551,6.809,11.103,10.11,16.587v0.067
	l0.103,0.065c0.104,0.065,0.104,0.133,0.104,0.197l-0.104,0.067c0.104,0.065,0.206,0.132,0.31,0.198c0,0.065,0,0.132,0.103,0.198
	c0.104,0.132,2.167,0.132,2.27,0.132c-0.103,0,2.27,0.065,2.27,0c-0.103-0.33-0.207-0.66-0.309-0.991h0.619
	C31.213,59.744,31.008,59.083,30.698,58.422L30.698,58.422z M5.733,17.58c0.31,1.322,0.825,2.577,1.444,3.899
	c0.413,1.255,0.928,2.511,1.444,3.767c-2.27-3.041-4.539-6.014-6.912-9.054c0.516-0.132,1.031-0.265,1.547-0.331
	c0.413,0.132,0.929,0.198,1.341,0.265c0.309,0.066,0.619,0.132,0.928,0.198C5.526,16.721,5.63,17.184,5.733,17.58L5.733,17.58z
	 M3.567,25.246c1.031,1.454,1.959,2.908,2.888,4.295c1.65,2.445,3.301,4.824,4.849,7.204c-0.207,0.066-0.516,0.066-0.723,0.132
	c-1.959,0.396-3.92,0.925-5.88,1.388C1.4,39.124-1.798,39.982-5.202,40.71c0.207-0.265,0.31-0.463,0.413-0.728
	c0.413-0.793,0.826-1.586,1.238-2.313c0.928-1.652,1.547-3.305,1.96-5.022c0.309-0.926,0.516-1.917,0.722-2.908
	c0.412-1.983,0.619-3.965,0.825-5.948c0-0.859,0.104-1.784,0.104-2.644v-0.859C1.193,21.941,2.329,23.593,3.567,25.246L3.567,25.246
	z M3.154,13.813c0.206,0.066,0.516,0.132,0.722,0.198l-0.103-0.066c-0.31,0-0.619-0.066-0.929-0.066
	C2.948,13.879,3.05,13.813,3.154,13.813z M3.05,14.474c0.104,0,0.207,0.065,0.31,0.065c-0.104,0-0.31,0-0.413-0.065H3.05
	L3.05,14.474z M2.432,15.068c0.104,0,0.207,0,0.413-0.066c0.619,0.132,1.342,0.331,1.96,0.462c0.207,0,0.413,0.066,0.516,0.066
	c0.104,0,0.104,0,0.104,0.066c-0.517-0.132-1.032-0.198-1.548-0.264c-0.619-0.066-1.135-0.132-1.65-0.198H2.123
	C2.226,15.134,2.329,15.068,2.432,15.068z"/>
</svg>
