<?xml version="1.0" encoding="utf-8"?>
<!-- Generator: Adobe Illustrator 16.0.0, SVG Export Plug-In . SVG Version: 6.00 Build 0)  -->
<!DOCTYPE svg PUBLIC "-//W3C//DTD SVG 1.1//EN" "http://www.w3.org/Graphics/SVG/1.1/DTD/svg11.dtd">
<svg version="1.1" id="Layer_1" xmlns="http://www.w3.org/2000/svg" xmlns:xlink="http://www.w3.org/1999/xlink" x="0px" y="0px"
	 width="608px" height="72.043px" viewBox="-53.5 0 608 72.043" enable-background="new -53.5 0 608 72.043" xml:space="preserve">
<path d="M70.879,58.023c1.754-0.793,3.199-1.852,4.54-2.908c0.825-0.793,1.444-1.586,2.063-2.445
	c0.517-0.926,0.929-1.85,1.135-2.842c0.206-0.33,0.206-0.792,0.206-1.189c0.31-1.057,0.207-2.182,0-3.238
	c0-0.727-0.309-1.387-0.618-2.049c-0.207-0.595-0.517-1.123-0.826-1.718c-0.517-0.858-1.444-1.651-2.27-2.379
	c-0.825-0.728-2.063-1.19-3.302-1.651c-0.104,0-0.206-0.066-0.31-0.066c-0.206-0.198-0.515-0.396-0.721-0.661
	c-0.826-0.661-1.959-1.189-2.992-1.784c-1.961-0.992-4.126-1.652-6.293-2.379c-0.825-0.264-1.651-0.463-2.476-0.595
	c1.341-0.331,2.579-0.661,3.817-1.058c1.238-0.33,2.476-0.727,3.611-1.255c0.928-0.529,1.856-1.124,2.682-1.718
	c0-0.066-0.206-0.132-0.515-0.198c0.104-0.066,0.104-0.132,0.207-0.132c0-0.066-0.103-0.066-0.31-0.132
	c0.31-0.198,0.516-0.396,0.722-0.595c0.722-0.33,1.444-0.727,2.166-1.124c1.548-0.925,2.993-1.982,4.229-3.04
	c0.619-0.264,1.135-0.462,1.65-0.661c0.826-0.331,1.651-0.661,2.373-1.058c0.619-0.396,1.238-0.793,1.754-1.255
	c0.516-0.396,0.928-0.859,1.134-1.322c0.31-0.396,0.413-0.859,0.31-1.322v-0.331c0-0.066,0-0.132,0.103-0.264
	c0-0.727,0-0.529-0.206-1.255c0.104-0.859-0.722-1.653-1.444-2.313c-0.515-0.396-1.03-0.727-1.753-0.991
	c0-0.066-0.103-0.132-0.103-0.066v-0.132c0.103,0.066,0.103-0.065,0-0.198h0.722c0.103,0-0.104-0.265-0.31-0.529
	c0,0,0-0.132-0.104-0.264h0.309c0.207,0.065-0.103-0.331-0.206-0.331c-3.198-0.595-6.292-0.793-9.594-0.793
	c-1.444,0-2.889,0-4.333,0.132c-1.135,0.066-2.27,0.132-3.301,0.264h-0.103c-1.754-0.066-3.508-0.132-5.262-0.132
	c-2.992,0-5.983,0.198-8.975,0.463c-4.333,0.331-8.563,0.793-12.896,1.255c-4.229,0.529-8.356,1.189-12.482,1.982
	c-1.341,0.331-2.682,0.595-4.023,0.925c-2.476,0.396-4.539,1.19-6.293,2.379v0.066c-0.103,0.066-0.206,0.132-0.309,0.198v0.066
	c-0.104,0-0.104,0.066-0.207,0.066v0.132c-0.104,0,0,0,0,0.066c-0.206,0.066-0.31,0.198-0.516,0.264c0,0,0,0.066,0.104,0.066
	c-0.104,0.066-0.207,0.132-0.309,0.132v0.132c0,0-0.104,0-0.104,0.066c-0.103,0,1.135,0.793,1.135,0.728
	c0,0.065,1.031,0.793,1.237,0.727c1.341-0.33,2.786-0.595,4.127-0.925c1.238-0.264,2.476-0.529,3.714-0.793l0.103,0.066
	c-0.103,0-0.103,0.066-0.207,0.066c0,0,1.032,0.727,1.342,0.727c1.134-0.066,2.269-0.199,3.506-0.265
	c2.167-0.331,4.436-0.661,6.604-1.057c1.341-0.265,2.682-0.529,4.023-0.728c0.104,0.066,0.206,0.066,0.104,0.066
	c0.309,0.066,0.825,0.396,1.135,0.331c3.92-0.595,7.944-1.19,11.967-1.719c2.682-0.33,5.365-0.594,8.046-0.792
	c2.683-0.132,5.365-0.198,8.047-0.132c2.992,0,5.983,0.198,8.666,0.991c0.206,0.132,0.31,0.265,0.412,0.462
	c-0.515,0.331-1.031,0.595-1.444,0.859c-2.373,1.388-4.848,2.644-7.427,3.833c-4.849,1.123-9.49,2.577-14.236,3.833
	c-2.579,0.728-5.158,1.388-7.84,2.049c-2.579,0.661-5.159,1.256-7.84,1.851c-1.342,0.264-2.683,0.595-4.024,0.859
	c-0.413-1.586-0.929-3.106-1.65-4.626c0.103,0.066,0.309,0.198,0.412,0.198c0.206-0.066,0-0.132,0-0.198
	c-0.103,0-0.103-0.066-0.206-0.132c0.103,0,0.103-0.066,0-0.066c0-0.065-0.104-0.132-0.104-0.198c0.104,0,0.104-0.066,0-0.132
	s-0.31-0.331-0.413-0.529c0.103,0.066,0.206,0.132,0.309,0.265c0.104,0,0.207,0.066,0.31,0.066s0.103-0.066,0-0.132
	c-0.31-0.462-0.619-0.925-0.929-1.388c-0.206-0.132-0.31-0.199-0.516-0.33h-0.103c-0.104-0.199-0.206-0.396-0.31-0.529
	c0-0.132-0.309-0.265-0.516-0.331c0.103,0-0.31-0.198-0.206-0.066c0,0.132,0,0.264,0.103,0.396
	c-0.103-0.066-0.103-0.066-0.207-0.132c0,0.066-0.413-0.132-0.309,0v0.132c-0.104-0.066-0.206-0.132-0.206-0.066v0.066
	c-0.104-0.066-0.207-0.066-0.104,0c0,0.132,0.104,0.264,0.104,0.396c-0.31-0.066-0.825-0.132-0.825-0.132v0.198
	c-0.104,0-0.104,0-0.104,0.066c0.104,0,0.104,0.066,0.104,0.066c-0.104,0-0.207-0.066-0.207,0v0.859h-0.207v0.397
	c-0.104,0-0.104,0-0.104,0.066v0.198h-0.103v0.265c-0.206-0.462-0.31-0.991-0.413-1.52V21.74c0-0.331,0-0.331-0.31-0.463
	c0-0.198,0-0.397,0.104-0.529c0-0.396,0.103-0.265-0.31-0.529c-0.103-0.066-0.309-0.132-0.413-0.132
	c-0.516,0.132-1.032,0.265-1.547,0.396c-0.825,0.199-1.342,0.529-1.548,0.992c0,0.066-0.103,0.198-0.103,0.265
	c-0.413,0.528-0.31,1.255,0.309,2.247v0.132c0.104,0.529,0.104,1.058,0.31,1.586c0,0.396,0,0.859,0.103,1.322
	c0,0.198,0,0.396,0.104,0.661v0.066c0,0.463,0.103,0.925,0.206,1.454v0.396c0.103,0.199,0.103,0.396,0.103,0.595
	c0.31,1.388,0.619,2.775,0.929,4.097c-1.961,0.463-3.921,0.925-5.88,1.454c-3.508,0.991-6.912,2.182-10.007,3.7
	c-0.104,0,0.103,0.067,0.207,0.133c-0.104,0.065-0.31,0.132-0.413,0.196c-0.104,0,0.103,0.068,0.207,0.134
	c-0.104,0.065-0.207,0.065-0.31,0.133c0,0,0.104,0.065,0.31,0.132l-0.207,0.133l0.103,0.065c-0.207,0.065-0.309,0.132-0.516,0.198
	c0,0,0.207,0.064,0.413,0.132c-0.104,0.132-0.31,0.198-0.413,0.265c-0.103,0,0.103,0.065,0.207,0.133L7.43,41.236
	c0.103,0.064,0.207,0.132,0.309,0.197c0.619,0.133,1.135,0.265,1.651,0.463c0.517,0.133,1.032,0.266,1.651,0.396
	c0.104,0.065,0.309,0.065,0.413,0.065c4.127-0.66,8.046-1.453,11.967-2.444c0.309-0.065,0.619-0.134,0.928-0.198
	c0.103,0.859,0.31,1.719,0.516,2.577c0.516,3.173,1.754,6.213,2.889,9.252c0.207,0.597,0.31,1.455,0.722,2.115
	c0.104,0.265,0.207,0.463,0.413,0.659c0.104,0.199,0.207,0.332,0.31,0.529c0.103,0.661,0.206,1.389,0.309,2.114
	c0.104,0.331,0.206,0.728,0.206,1.124c0,0.066,0,0.066,0.104,0.132v0.33c0,0.067,0.103,0.199,0.103,0.267v0.064
	c0,0.132,0.103,0.266,0.103,0.396c0,0.066,0.103,0.132,0.103,0.265h-1.031c-0.207,0,0,0.198,0.104,0.198
	c0.309,0.066,0.619,0.066,1.031,0.066v0.065c-0.516,0-0.928,0.063-1.444,0c-0.104,0-0.104,0.063,0,0.132h-0.413
	c-0.104-0.066-0.206,0.064-0.104,0.064c0.104,0.066,0.31,0.134,0.413,0.199c0.206,0,0.413,0.065,0.619,0.065h-0.619
	c-0.103-0.065-0.207,0.065-0.103,0.065c0.103,0.133,0.309,0.199,0.516,0.199c-0.309,0-0.722-0.066-1.032-0.066
	c-0.103,0-0.207,0.066-0.103,0.066c0.103,0.131,0.309,0.197,0.413,0.197c0.516,0.064,0.929,0.133,1.341,0.197h-1.547
	c-0.207-0.064-0.207,0-0.104,0.066c0.104,0.065,0.206,0.133,0.413,0.198c-0.103-0.065-0.207-0.065-0.309-0.065
	c-0.104,0-0.207,0.065-0.104,0.131c0.104,0.066,0.413,0.133,0.619,0.199c-0.929,0.197-1.857,0.396-2.889,0.595
	c-2.785,0.462-5.674,0.462-8.458,0.198c-0.31-0.198-0.517-0.396-0.826-0.596c0-0.132-0.928-0.33-0.928-0.197
	c-0.104,0.197-0.104,0.197-0.104,0.265l-0.103,0.065c-0.104,0.197-0.104,0.265-0.104,0.33c-0.103,0.198-0.103,0.198-0.103,0.33
	v0.133h-0.207v0.198c-0.31-0.065-0.619-0.133-0.929-0.198c-0.722-0.197-1.547-0.396-2.27-0.463h-0.619
	c-0.928-0.197-1.96-0.33-2.888-0.463c-0.413,0-0.723-0.064-1.135-0.064c-1.032-0.066-1.96-0.198-2.992-0.198
	c-0.516,0-0.723,0.132-1.135,0.33c-0.207,0.132-0.31,0.33-0.413,0.462c-0.207,0.199-0.207,0.529-0.207,0.793
	c-0.412,0.332-0.206,0.859-0.206,1.257c0,0.065,0.104,0.197,0.104,0.33v0.331c0.309,1.189,1.341,1.65,2.682,2.445
	c0.207,0.064,0.31,0.131,0.413,0.131c0.826,0.265,1.65,0.529,2.372,0.794l1.444,0.396c0.413,0.198,0.929,0.332,1.444,0.463
	c1.445,0.133,2.683,0.066,4.126-0.131c0.929-0.134,1.754-0.396,2.683-0.596c0.207-0.132,0.413-0.197,0.619-0.266
	c0.413-0.131,0.619-0.329,0.619-0.594c0,0-0.103-0.066-0.207-0.066c1.341-0.065,2.682-0.264,4.023-0.463
	c0.517-0.065,1.032-0.131,1.651-0.264c0.929,0,1.754-0.066,2.682-0.199c1.032-0.064,2.063-0.264,3.095-0.396
	c3.817-0.595,7.633-1.255,11.451-1.916c4.952-0.858,9.8-1.917,14.442-3.306l-0.31,0.199c-0.103,0.065,0.207,0.065,0.413,0.065
	c-0.103,0.063-0.309,0.197-0.515,0.265c0,0.065,0.309,0.065,0.515,0.065c-0.103,0.132-0.309,0.198-0.413,0.265
	c-0.103,0,0.516,0.065,0.722,0.065c-0.206,0.065-0.31,0.198-0.516,0.265v0.065c-0.103,0-0.207,0.067-0.309,0.132
	c-0.104,0.066,0.825,0.066,0.825,0.066h0.103c-0.309,0.132-0.516,0.33-0.825,0.463c0,0,0.31,0,0.619,0.066
	c-0.206,0.064-0.309,0.131-0.515,0.197c0,0.066,0.928,0.132,0.928,0.132h1.444c0.206,0,0.516,0,0.722-0.065
	C62.833,61.592,66.96,59.938,70.879,58.023L70.879,58.023z M75.315,13.942v0.066V13.942z M75.212,14.669
	c0.103,0.066,0.207,0.132,0.207,0.198C75.522,14.934,75.522,15,75.522,15c-0.31-0.132-0.619-0.331-0.928-0.462
	C74.8,14.603,75.006,14.669,75.212,14.669L75.212,14.669z M14.139,63.572h0.104H14.139z M67.063,37.864
	c0.516,0.396,0.929,0.858,1.238,1.323c-0.928-0.662-1.96-1.258-2.992-1.785c-0.619-0.332-1.341-0.661-2.063-0.926
	C64.586,36.873,65.824,37.336,67.063,37.864z M65.721,36.675c0.309,0.132,0.619,0.265,0.928,0.396
	c0.207,0.199,0.413,0.332,0.619,0.529C66.753,37.27,66.237,37.005,65.721,36.675z M67.578,36.212
	c0.207,0.198,0.413,0.397,0.722,0.595c-0.413-0.264-0.826-0.461-1.238-0.661c-0.103-0.066-0.31-0.132-0.413-0.265
	c-0.103-0.065-0.206-0.065-0.309-0.132C66.753,35.882,67.167,36.081,67.578,36.212z M34.567,57.757
	c-0.103-0.595-0.206-1.124-0.309-1.719c0-0.132-0.104-0.33-0.104-0.463c0.723-0.065,1.238-0.065,1.238-0.065
	c-0.103-0.33-0.103-0.66-0.206-0.925h0.413c0.516,0.793,1.135,1.586,1.753,2.444c0,0.133,1.136-0.066,1.136-0.198
	c-0.104-0.265-0.207-0.528-0.207-0.858c0.207,0,0.31-0.065,0.31-0.132c-0.62-2.909-1.341-5.815-2.167-8.724
	c-0.825-2.842-1.65-5.684-2.579-8.525c-0.104-0.33-0.207-0.66-0.31-0.925c0.207-0.065,0.413-0.065,0.619-0.133
	c0.517-0.132,1.135-0.265,1.754-0.33h0.207c0.825-0.265,1.65-0.397,2.579-0.529c1.031-0.132,2.063-0.132,3.095-0.132
	c3.094-0.132,6.396,0.396,9.387,0.793c2.373,0.331,4.746,0.727,7.015,1.124c1.342,0.265,2.58,0.528,3.92,0.858
	c0.826,0.199,1.547,0.396,2.27,0.728c0.722,0.396,1.341,0.793,1.96,1.256c0.31,0.33,0.723,0.595,1.032,0.925
	c0.206,0.197,0.31,0.396,0.516,0.662c0.104,0.131,0.206,0.264,0.31,0.396c-0.104,0.196-0.206,0.33-0.31,0.528
	c-0.31,0.463-0.825,0.924-1.341,1.388c0,0.065-0.103,0.133-0.207,0.198c-0.207-0.198-0.516-0.265-0.826-0.33
	c0,0-0.412-0.198-0.412-0.066c0.104,0.133,0.206,0.266,0.31,0.396c-0.104,0-0.104-0.065-0.206-0.065c0,0-0.517-0.198-0.413,0
	c0.103,0.065,0.103,0.065,0.103,0.132c-0.103,0-0.207-0.064-0.207,0.066c0,0.064,0.104,0.064,0.104,0.132
	c-0.104,0-0.206,0-0.104,0.065c0.104,0.133,0.207,0.265,0.31,0.396c-0.104,0-0.207-0.064-0.31-0.064c0,0-0.619-0.266-0.516-0.066
	c0.103,0.132,0.103,0.199,0.207,0.331c-0.207-0.066-0.413-0.132-0.31,0c0,0.065,0.103,0.132,0.103,0.198
	c-0.103-0.066-0.206-0.066-0.206,0c0.206,0.265,0.413,0.527,0.516,0.728c-0.928,0.858-1.857,1.651-2.992,2.444
	c-0.206,0.199-0.516,0.33-0.722,0.529c-1.135,0.594-2.167,1.188-3.3,1.783c-1.857,0.991-3.921,1.917-5.984,2.775
	c-0.722,0.197-1.341,0.462-1.96,0.66c-0.104,0,0,0.066,0,0.133c-0.413,0.132-0.723,0.265-1.136,0.463
	c-0.412-0.133-0.928-0.266-0.825-0.266c-0.309,0-1.237-0.33-1.546-0.197c-1.651,0.529-3.199,1.124-4.746,1.718
	c-0.825,0.265-1.547,0.595-2.27,0.86H38.9c-0.929,0.197-1.96,0.396-2.992,0.594c-0.413,0.066-0.928,0.197-1.341,0.266
	c0-0.133,0.104-0.266,0.104-0.463C34.671,58.286,34.567,58.021,34.567,57.757L34.567,57.757z M57.675,35.354
	c-0.104-0.066-0.31-0.132-0.413-0.132h0.103C57.469,35.288,57.572,35.288,57.675,35.354z M53.755,34.692
	c0.412,0.132,0.928,0.264,1.341,0.396c-0.103,0-0.103,0-0.207,0.066c-0.413-0.132-0.928-0.198-1.341-0.198l-1.238-0.396
	C52.723,34.626,53.238,34.692,53.755,34.692L53.755,34.692z M56.54,35.221c-0.207,0-0.516-0.066-0.722-0.066
	c-0.412-0.132-0.722-0.198-1.135-0.33c0.413,0.066,0.723,0.132,1.135,0.132C56.025,35.089,56.334,35.155,56.54,35.221z
	 M51.486,34.494c0,0.066,0.104,0.066,0.104,0.066c0.309,0.066,0.515,0.132,0.825,0.199h-0.516c0-0.066-0.103-0.066-0.103-0.066
	c-0.104,0-0.619-0.198-0.723-0.132v0.066c-0.206,0-0.516-0.066-0.825-0.066c-0.103-0.066-0.206-0.066-0.309-0.066L51.486,34.494
	L51.486,34.494z M28.584,33.305l-0.104-0.066h0.207C28.584,33.238,28.584,33.305,28.584,33.305L28.584,33.305z M62.42,36.543
	c-0.722-0.265-1.547-0.595-2.373-0.859c0.31,0.066,0.517,0.066,0.723,0.132C61.286,36.08,61.904,36.278,62.42,36.543z
	 M68.713,36.741c0.104,0.065,0.207,0.132,0.207,0.198C68.92,36.873,68.817,36.807,68.713,36.741z M68.197,37.602
	c0.207,0.197,0.31,0.33,0.516,0.528l-1.341-0.86C67.681,37.402,67.888,37.468,68.197,37.602L68.197,37.602z M14.76,63.439
	c-0.206-0.064-0.412-0.064-0.618-0.133v-0.064C14.349,63.309,14.554,63.375,14.76,63.439L14.76,63.439z M74.594,44.209
	c0,0.132,0.103,0.266,0.103,0.396c-0.103,0.264-0.103,0.528-0.103,0.727c0,0.463-0.104,0.925-0.31,1.389
	c-0.104,0.396-0.31,0.793-0.516,1.189c0.104-0.133,0.104-0.266,0.104-0.33v-0.596c0.31-0.991,0.413-1.982,0.413-2.975v-0.792
	c0.103,0.064,0.103,0.132,0.103,0.197C74.491,43.682,74.594,43.943,74.594,44.209L74.594,44.209z M68.508,35.75
	c0.413,0.264,0.825,0.594,1.135,0.859c-0.619-0.396-1.444-0.793-2.167-1.19c-0.722-0.396-1.547-0.793-2.373-1.057
	C66.237,34.758,67.373,35.221,68.508,35.75z M80.474,15.395c0,0.198-0.103,0.396-0.309,0.595c-0.103,0.132-0.206,0.264-0.31,0.331
	v0.066c-0.103-0.198-0.206-0.396-0.309-0.529c0-0.066-0.104-0.198-0.207-0.265c0-0.33-0.104-0.661-0.31-0.859
	c-0.103-0.132-0.206-0.198-0.309-0.331c0.619,0.132,1.238,0.331,1.753,0.529L80.474,15.395L80.474,15.395z M81.196,13.412
	c0.103,0.132,0.207,0.265,0.207,0.396c-0.104-0.198-0.31-0.33-0.517-0.528c0,0-0.103-0.066-0.103-0.132
	C80.886,13.214,81.093,13.346,81.196,13.412L81.196,13.412z M80.886,14.073c0.104,0.066,0.207,0.198,0.207,0.264v0.132
	c-0.103-0.132-0.207-0.199-0.31-0.33c-0.103-0.066-0.206-0.199-0.412-0.331C80.577,13.875,80.783,14.007,80.886,14.073
	L80.886,14.073z M74.491,14.8c0.104,0.066,0.104,0.066,0.206,0.132l0.104,0.066C74.697,14.932,74.594,14.866,74.491,14.8
	L74.491,14.8z M18.163,62.779c-0.309-0.065-0.722-0.065-1.032-0.065c-0.103-0.065-0.103-0.132-0.207-0.198
	C17.337,62.646,17.75,62.714,18.163,62.779z M17.235,63.573c0-0.066-0.104-0.066-0.207-0.066c0,0-0.104-0.065-0.207-0.065
	C16.925,63.507,17.131,63.507,17.235,63.573z M14.862,63.045v0.131c-0.31-0.064-0.516-0.131-0.825-0.131
	c0-0.066,0-0.132-0.104-0.199C14.243,62.913,14.552,62.979,14.862,63.045L14.862,63.045z M8.053,65.887v-0.133
	c0.309,0.064,0.619,0.133,0.825,0.197h0.103H8.878C8.569,65.951,8.362,65.951,8.053,65.887z"/>
<path d="M56.539,63.313"/>
<path d="M56.229,62.453h-0.104H56.229z"/>
<path d="M185.011,17.513"/>
<path d="M184.467,59.939v-0.527c0.104,0.064,0.207,0.064,0.207,0.064v-0.527c0.104-1.256,0.104-2.512,0.207-3.768
	c0-2.843,0-5.75,0.104-8.592c0-0.99,0-2.049,0.103-3.04c0.103-1.521,0.31-2.975,0.413-4.429c0.104-1.189,0.206-2.313,0.206-3.502
	c0.104-1.388,0.104-2.776,0-4.164c0-1.52-0.309-2.974-0.721-4.428c-0.413-1.454-1.032-2.842-1.754-4.229v-0.661
	c0-0.132,0-0.265,0.103-0.396c0.104-0.265,0-0.595,0-0.925h1.857c2.476-0.066,5.055,0.065,7.531,0.33
	c0.516,0.066,1.032,0.132,1.547,0.198c0.825,0.198,1.651,0.397,2.476,0.661c0.104,0.066,0.31,0.132,0.413,0.198
	c0.104,0.066,0.31,0.132,0.516,0.132c-0.104-0.066-0.207-0.198-0.413-0.264c-0.31-0.132-0.619-0.265-0.929-0.462v0.066
	c0.206,0.066,0.31,0.132,0.516,0.198c0.103,0.066,0.31,0.132,0.413,0.132c0-0.132-0.104-0.199-0.31-0.264
	c-0.516-0.265-1.134-0.595-1.651-0.86c0.413,0.066,0.826,0.265,1.135,0.397c0.516,0.198,0.619,0.132,0.207-0.066
	c-0.413-0.199-0.825-0.463-1.135-0.661c0.413,0.132,0.826,0.265,1.341,0.396c0.103,0.066,0.207,0.132,0.413,0.198
	c0.103,0.066,0.206,0.132,0.413,0.132c-0.104-0.132-0.207-0.198-0.31-0.265c-0.206-0.066-0.413-0.198-0.619-0.264
	c0.413,0.132,0.413,0.066,0.104-0.132c-0.206-0.132-0.516-0.264-0.722-0.396c0.104,0.066,0.31,0.066,0.412,0.132
	c0.31,0.198,0.413,0.132,0.104-0.066c-0.413-0.265-0.929-0.529-1.444-0.793c0.516,0.132,1.032,0.33,1.547,0.528
	c0.31,0.132,0.413,0.066,0.104-0.132c-0.722-0.331-1.444-0.728-2.167-1.058c-0.722-0.264-1.341-0.595-2.063-0.859
	c0.207,0.066,0.413,0.066,0.722,0.066c1.032,0.264,2.167,0.331,3.404,0.198c0,0-0.207-0.198-0.412-0.331h0.103
	c0.103,0-0.412-0.33-0.412-0.396l-0.104-0.066h0.31c0.103,0,0-0.066-0.104-0.198h0.825c0.104,0.066-0.309-0.265-0.413-0.331
	c0.104-0.066-0.206-0.264-0.206-0.264h0.103c0.207,0-0.206-0.331-0.206-0.265c0-0.066-0.104-0.066-0.104-0.132
	c0.207,0.066,0.31,0.066,0.516,0.066c0.309,0.066-0.104-0.265-0.104-0.198c-0.206-0.199-0.515-0.396-0.825-0.529
	c-1.754-0.529-3.61-0.992-5.468-1.256c-1.135-0.264-4.023-0.264-5.158-0.264c-2.579-0.066-5.159,0.066-7.737,0.264
	c-2.476,0.133-4.849,0.264-7.324,0.529c-4.23,0.396-8.356,0.793-12.586,1.124c-0.722,0.066-1.547,0.066-2.373,0.132
	c-0.31-0.727-0.619-1.454-0.929-2.181c-0.103-0.132-1.857-0.066-1.857-0.066s-1.96-0.066-1.96,0.066v0.33h-0.103v0.859
	c0,0.396-0.104,0.859-0.104,1.256c-0.309,0-0.722,0.066-1.031,0.066c-2.373,0.066-4.746-0.132-7.118-0.264
	c-0.309,0,0.104,0.264,0.104,0.264s0.103,0,0.103,0.066c-0.206,0-0.413-0.066-0.619-0.066c-0.103,0,0,0.066,0,0.132h-0.103
	c-0.104,0-0.104,0.066-0.104,0.066c-0.31,0,0.412,0.396,0.31,0.396h0.103c-0.309,0-0.619-0.066-0.825-0.066
	c-0.103,0-0.103,0-0.103,0.066c-0.104-0.066-0.207-0.066-0.31-0.132s-0.309-0.132-0.516-0.132s-0.929-0.132-0.825,0.066
	c0,0.066,0.103,0.132,0.207,0.199c-0.207,0-0.517-0.066-0.517,0.132l0.104,0.066c-0.206,0-0.31,0-0.206,0.132
	c-0.103,0.066-0.103,0.066-0.103,0.132c0.103,0.066,0.207,0.132,0.412,0.198v0.066c-0.207,0-0.825-0.198-0.825,0.066
	c0.103,0.066,0.103,0.132,0.309,0.198c-0.207-0.066-0.413-0.066-0.413,0.066l0.104,0.065h-0.104v0.132
	c0.207,0.199,0.723,0.396,1.032,0.529l2.476,1.189c1.238,0.529,2.785,0.661,4.229,0.859c1.753,0.199,3.61,0.331,5.364,0.463
	c0.206,0.793,0.413,1.652,0.619,2.512c-0.103,0.066-0.103,0.066-0.103,0.132v0.132c0,0,0,0.066-0.104,0.066v1.586
	c-0.309,4.163,0,8.26,0.207,12.358c0,0.926,0.104,1.784,0.104,2.709v1.784c0,0.926,0,1.784,0.103,2.71v0.132
	c0,0.33,0,0.66,0.104,0.926c0,0.462,0.103,0.99,0.103,1.453c0.104,0.662,0.207,1.322,0.31,1.917c0,0.264,0.103,0.463,0.103,0.661
	c-0.31,1.851-0.722,3.634-1.239,5.419c-0.103,0.33-0.206,0.66-0.309,0.925c-0.103,0.464-0.206,0.925-0.412,1.39v0.264
	c0,0.197-0.104,0.33-0.104,0.527c-0.103,0.199-0.103,0.397-0.103,0.597c-0.104,0.196-0.104,0.396-0.104,0.595
	c-0.207,0.527-0.31,0.991-0.207,1.52c0,0.199,0,0.396,0.104,0.595v0.267c0,0.131,1.341,0.461,1.444,0.461
	c0.103,0.066,1.238,0.463,1.444,0.33c0.928-0.33,1.547-0.727,2.063-1.32c0.206-0.198,0.31-0.396,0.516-0.661
	c0.722,0.331,2.064,0.925,2.064,0.86c0.206-0.199,0.413-0.465,0.516-0.729c0.31-0.528,0.412-1.124,0.516-1.719v-0.133
	c0-0.264,0.103-0.595,0.103-0.924c0.104-0.396,0.104-0.795,0-1.125c0.104-0.197,0.104-0.33,0.104-0.462
	c0.103-0.794,0.207-1.521,0.103-2.313c0-0.728,0-1.521-0.103-2.313c-0.207-2.048-0.207-4.031-0.207-6.146v-2.645
	c0.103-2.246,0.207-4.492,0.207-6.74V35.62c0.103-0.859,0-1.785,0-2.644c0-2.908-0.516-5.816-1.032-8.658
	c-0.206-0.925-0.723-1.784-1.135-2.709v-0.132h2.786c3.404,0,6.808-0.198,10.213-0.33c1.444,0,2.888-0.066,4.332-0.066v0.264
	c0.104,0.728,0.207,1.388,0.619,2.115c-0.103,0.595-0.103,1.189-0.103,1.851c-0.104,1.916-0.207,3.767-0.31,5.683
	c-0.103,1.189-0.207,2.446-0.309,3.635c-0.207,2.512-0.413,5.089-0.516,7.665v0.397c0,0.197,0,0.396,0.104,0.595v3.237
	c0,2.313-0.206,4.691-0.413,7.006c0,0,0,0.066,0.104,0.066v0.264c0,0.066,0.103,0.066,0.103,0.133v0.064
	c0.206,0.133,0.412,0.199,0.619,0.266c0.722,0.197,1.444,0.396,2.167,0.595c0.516,0.133,1.135,0.267,1.65,0.397v0.264
	c-0.103,0.066-0.103,0.066-0.103,0.133v0.197c0,0-0.104,0.066-0.104,0.133v0.264c0,0.133,0,0.266,0.104,0.331
	c-0.104,0.065-0.207,0.134-0.207,0.197v0.528c0,0.199,0,0.332,0.103,0.529c0,0.066,0,0.197,0.104,0.266
	c-0.104,0.064-0.104,0.132-0.104,0.264h0.104c-0.104,0.066-0.104,0.132-0.104,0.198v0.065c0,0.198-0.103,0.396-0.206,0.594h0.206
	c0,0.199,0,0.267-0.103,0.397c0.103,0,0.103,0.066,0.207,0.066c0,0.065,0,0.065-0.207,0.132l0.103,0.064
	c0.206,0.133,0.413,0.266,0.723,0.332c1.134,0.461,2.373,0.793,3.61,1.123c0.309,0.133,0.722,0.265,1.032,0.133
	c0.103-0.266,0.103-0.529,0.103-0.795c0.103-0.064,0.103-0.131,0.103-0.197c0.103,0,0.103-0.133,0.103-0.264
	c0.516,0.131,0.929,0.197,0.929,0.197C184.365,60.271,184.467,60.139,184.467,59.939L184.467,59.939z"/>
<path d="M237.119,57.032h-0.207H237.119L237.119,57.032z"/>
<path d="M236.699,57.032c-0.104-0.065-0.206-0.065-0.413-0.065h-0.412C236.184,56.967,236.493,56.967,236.699,57.032L236.699,57.032
	z"/>
<path d="M265.783,60.008h1.135c2.476,0,4.848-0.33,7.222-0.66c2.166-0.33,4.125-1.125,5.88-1.982
	c0.413-0.199,0.825-0.463,1.135-0.729c0.412-0.197,0.517-0.396,0.517-0.727c0-0.133-0.104-0.264-0.207-0.396
	c0.104-0.065,0.207-0.132,0.31-0.197c0.104-0.266,0-0.528-0.104-0.795c-0.104-0.063-0.31-0.131-0.516-0.263
	c0.104-0.266,0.104-0.528,0-0.728l-0.723-0.397c-0.516-0.198-1.135-0.329-1.65-0.528c0.104-0.065,0.104-0.131,0.207-0.197h-0.207
	c0.104-0.133,0.311-0.198,0.311-0.33c0.104-0.066-1.65-0.264-1.34-0.199c-0.724-0.132-1.549-0.197-2.271-0.33
	c-0.413-0.064-0.825-0.064-1.238-0.064c-1.032,0.064-1.857,0.264-2.786,0.463c-1.341,0.264-2.579,0.396-3.92,0.594
	c-0.825,0.133-1.651,0.199-2.476,0.332c-0.31-0.066-0.619-0.066-0.826-0.133c-0.31-0.066-0.619-0.066-0.928-0.066
	c-1.548,0.133-3.095,0.264-4.643,0.462c-0.722,0-1.341,0-1.96,0.067h-0.722c-0.929-0.266-1.754-0.529-2.682-0.729
	c-0.104-0.065-0.104-0.065-0.207-0.132c-1.135-0.528-2.372-0.991-3.507-1.521c-1.135-0.594-2.167-1.256-3.095-1.981
	c-0.722-0.661-1.341-1.323-1.753-2.05c-0.206-0.527-0.413-1.123-0.515-1.65c-0.208-0.859-0.31-1.785-0.31-2.711v-0.133
	c0-0.33,0-0.66,0.103-0.99c0.208,0.064,0.31,0.133,0.517,0.133c0.515,0.131,1.134,0.197,1.651,0.265
	c1.134,0.132,2.269,0.196,3.507,0.196c2.579,0.066,5.261-0.33,7.737-0.727c4.023-0.527,7.943-1.32,11.76-2.115
	c0.206-0.064,0.412-0.064,0.516-0.132c2.373-0.396,4.746-0.925,7.015-1.454c0.928-0.197,1.857-0.396,2.787-0.594
	c0.31-0.066,0.618-0.132,1.03-0.199c0.825-0.066,1.032-0.33,0.412-0.792h-0.103c0-0.132-0.104-0.198-0.311-0.33
	c0.826-0.066,0.928-0.331,0.412-0.728c-0.104-0.131-0.206-0.198-0.309-0.198c-0.104-0.066-0.104-0.066-0.207-0.132v-0.132
	c0.31-0.132,0.31-0.331-0.104-0.727c-0.104-0.066-0.206-0.133-0.413-0.199c-0.516-0.198-1.032-0.463-1.547-0.661
	c0,0-1.857-0.925-1.96-0.793c-0.825,0.132-1.547,0.331-2.373,0.528c-0.516,0.132-1.031,0.331-1.547,0.463
	c-0.826,0.132-1.754,0.331-2.58,0.462c-2.992,0.595-5.983,1.19-8.872,1.719c-3.404,0.661-6.809,1.189-10.316,1.651
	c-1.96,0.265-4.023,0.463-6.087,0.528c0.104-0.196,0.104-0.33,0.104-0.528c0.413-2.181,0.723-4.361,0.825-6.542
	c0.104-1.52,0.104-3.04,0.207-4.494v-0.661c0.929,0.132,1.857,0.264,2.888,0.396c1.96,0.066,3.921,0.066,5.88,0.066
	c2.889,0,5.777-0.265,8.563-0.462c2.682-0.264,5.261-0.595,7.839-0.992c0.723-0.066,1.444-0.198,2.167-0.33
	c1.754,0,2.476-0.529,2.269-1.586c0,0-0.103-0.066-0.207-0.132c0.207-0.199,0.31-0.529,0.31-0.925c0,0-0.104-0.132-0.31-0.199
	c2.373-0.198,4.643-0.462,7.015-0.66c-0.205-0.133-0.411-0.265-0.618-0.331h-0.103c0.103,0,0.205,0,0.309-0.066
	c-0.104-0.132-0.309-0.198-0.619-0.331h-0.104c1.031-0.066,2.063-0.132,2.992-0.198l-0.104-0.066
	c-0.207-0.132-0.412-0.198-0.619-0.33h0.31l-0.104-0.066c-0.412-0.198-0.723-0.331-1.135-0.462c0.31,0,0.516,0,0.826-0.066
	c-0.104,0-0.104-0.066-0.207-0.066c0.31,0,0.619-0.066,0.929-0.066c0,0-0.517-0.198-0.929-0.396c0.104,0,0.207-0.066,0.31-0.066
	c-0.103-0.132-0.31-0.198-0.517-0.264c0,0,0-0.066-0.104-0.066h0.413c-0.104-0.132-0.31-0.198-0.517-0.264
	c0-0.066-0.104-0.066-0.104-0.066c0.207,0,0.516-0.066,0.723-0.066c-0.104-0.132-0.311-0.198-0.517-0.265
	c-0.619-0.264-1.341-0.594-2.063-0.859c-0.723-0.264-1.444-0.595-2.166-0.859c-0.207-0.066-0.412-0.131-0.619-0.131
	s-0.517-0.066-0.825-0.066c-0.515-0.066-0.825,0-1.031,0.198c-2.064,0.199-4.023,0.331-6.087,0.529
	c-5.157,0.396-10.315,0.992-15.474,1.652c-0.722,0.066-1.341,0.066-2.063,0.132c-1.548,0.264-3.198,0.595-4.849,0.925
	c-0.412,0-0.825,0.066-1.135,0.132c-0.104-0.066-0.206-0.132-0.413-0.199c0.104,0,0.207-0.066,0.207-0.066
	c0.104,0,0.206,0,0.206-0.066c0.207-0.066,0.413-0.132,0.723-0.198c0,0-0.207-0.132-0.516-0.265l0.104-0.066
	c0.104,0-0.104-0.132-0.31-0.198c0.104-0.066,0.207-0.066,0.207-0.066c0.104,0-0.103-0.132-0.31-0.264
	c0.208,0,0.413-0.066,0.619-0.066c0.103-0.066-0.516-0.331-0.412-0.264c-0.104-0.066-0.826-0.529-1.032-0.463
	c-0.413,0.066-0.825,0.132-1.341,0.198c-0.619,0.132-1.238,0.33-1.856,0.661c-0.619,0.264-1.032,0.793-1.444,1.189
	c-0.104,0.133-0.207,0.264-0.413,0.397h-1.753c-0.723,0.198-1.547,0.33-2.476,0.396c-0.207,0,0.207,0.199,0.31,0.265
	c-0.207,0-0.413,0.066-0.517,0.066h-0.103c-0.104,0,0,0.065,0.103,0.132c-0.103,0.066-0.206,0.066-0.309,0.066h0.103
	c-0.103,0,0,0.066,0.104,0.132h-0.207c0,0.066,0.207,0.198,0.31,0.264c-0.206,0.066-0.412,0.066-0.619,0.066h-0.103
	c-0.104,0.066,0.31,0.265,0.412,0.33h-0.619h0.104c-0.104,0,0,0.066,0.206,0.199h-0.31c-0.104,0,0.619,0.396,0.619,0.396
	c0.104,0.066,0.31,0.132,0.412,0.198c0,0,0.104,0,0.104,0.066h-0.104c-0.104,0,0.104,0.066,0.207,0.198
	c-0.207,0-0.516,0.066-0.722,0.066c-0.103,0.066,0.104,0.132,0.31,0.264c-0.207,0-0.31,0.066-0.413,0.066
	c0,0.066,0,0.132,0.104,0.132c-0.104,0-0.104,0-0.207,0.066c0.104,0.066,0.104,0.132,0.31,0.198c0.31,0.199,0.722,0.396,1.134,0.661
	c0.104,0,0.207,0.066,0.31,0.132c-0.31,0.529-0.619,0.991-0.826,1.52c-0.31,0.727-0.619,1.388-0.825,2.049
	c-0.515,1.454-0.825,2.907-1.031,4.428c-0.104,1.123-0.104,2.247,0,3.37c-0.104,0.066-0.104,0.198-0.104,0.33
	c-0.309,0.729-0.515,1.521-0.722,2.247c-0.413,1.52-0.516,3.041-0.619,4.561v1.785c0,0.528,0,1.058,0.104,1.651
	c0.31,1.521,0.928,3.04,1.651,4.56c0.412,0.728,0.928,1.322,1.65,1.918c-0.413-0.066-0.825-0.133-1.341-0.133
	c-0.619-0.199-1.238-0.33-1.857-0.463c-1.135-0.266-2.579-0.133-3.816-0.133c-3.921,0.064-7.84,0.463-11.76,0.793
	c-2.373,0.198-4.746,0.33-7.119,0.463h-0.206c-0.103-0.265-0.103-0.463-0.103-0.66c0.103-2.709,0.309-5.42,0.515-8.129
	c0.207-3.173,0.413-6.345,0.517-9.583c0.207-3.172,0.207-6.411,0.207-9.649c0-0.991-0.103-2.048-0.103-3.04v-1.917
	c0.207-0.925,0.103-1.85-0.104-2.775c0-0.066-0.103-0.132-0.309-0.132c0-0.264-0.103-0.529-0.103-0.793V15.2
	c0-0.132-1.548-0.33-1.548-0.33c-0.103,0-1.443-0.331-1.65-0.199c-0.516,0.529-1.032,0.992-1.444,1.586v-0.265
	c0.103,0,0.103-0.066,0.103-0.132c0.103,0,0.103,0,0.103-0.066c-0.103-0.066-0.207-0.132-0.207-0.132
	c-0.207-0.199-1.032-0.265-1.238-0.265c0-0.066-1.134-0.331-1.238-0.198c-0.516,0.331-0.825,0.595-0.928,0.925
	c-0.103,0.132-0.207,0.264-0.207,0.396c-0.309,0.199-0.413,0.331-0.516,0.529c-0.206,0.198-0.31,0.331-0.31,0.529
	c-0.103,0.066-0.103,0.066-0.103,0.132c-0.207,0.132-0.309,0.397-0.309,0.595c-0.104,0.199-0.207,0.331-0.104,0.529
	c-0.103,0.396,0.104,0.859,0.516,1.454c-0.103,1.52-0.206,3.04-0.206,4.56c-0.104,1.719-0.104,3.437-0.206,5.155
	c-0.104,1.85-0.31,3.767-0.413,5.617v0.661c-0.207,1.322-0.309,2.644-0.413,3.965c-0.206,2.247-0.413,4.494-0.619,6.74
	c-0.207,1.852-0.309,3.635-0.516,5.42c0,0.857-0.103,1.718-0.103,2.512c-0.206,1.255-0.103,2.512,0,3.701
	c0.103,0.462,0.206,0.925,0.206,1.32c0.104,0.463,0.207,0.926,0.31,1.321c0,0.198,1.96,0.198,1.96,0.198c0.104,0,1.96,0.133,2.063,0
	c0.207-0.198,0.31-0.396,0.517-0.527v0.133c0.103,0.131,1.753,0.063,1.753,0.063s1.753,0.065,1.753-0.063
	c0.103-0.199,0.103-0.397,0.206-0.597c0.207,0.066,0.414,0.066,0.619,0.132c0,0,1.135,0.133,2.063,0.266
	c1.342,0.33,2.786,0.595,4.229,0.728c3.714,0.33,7.531-0.065,11.245-0.464c1.857-0.197,3.715-0.527,5.468-0.792
	c1.547-0.198,2.786-0.661,3.714-1.455c0-0.065-0.207-0.131-0.413-0.263l0.104-0.067c0,0-0.104-0.131-0.31-0.198
	c0.206-0.131,0.516-0.33,0.722-0.527c0.103,0-0.413-0.199-0.516-0.264l0.104-0.066c0.103-0.066-0.104-0.133-0.31-0.199
	c0.104-0.064,0.104-0.064,0.206-0.132c0,0-0.104-0.065-0.206-0.132c0.104,0,0.104-0.066,0.206-0.066h0.928
	c-0.103-0.064-0.103-0.064-0.206-0.064c0.206,0,0.412,0.064,0.619,0v0.064h0.309c0.104,0,0.207,0,0.413,0.066
	c0.104,0,0.206-0.066,0.412-0.066c-0.207-0.132-0.412-0.265-0.618-0.265c-0.104-0.065-0.104-0.065-0.208-0.065
	c0.104,0,0.208-0.066,0.413-0.066c-0.207-0.131-0.31-0.197-0.619-0.264c-0.31-0.066-0.619-0.197-0.825-0.33
	c0.412,0.064,0.516,0.133,0.928,0c0-0.066-0.103-0.066-0.207-0.133c0.516,0.065,0.619,0.133,1.031,0
	c0.104,0-0.515-0.197-0.928-0.396c0.104,0,0.206,0,0.31-0.066c-0.104-0.065-0.31-0.132-0.516-0.198c0,0,0-0.065-0.103-0.065
	c0.103,0,0.206,0,0.309-0.065c0.104,0-0.103-0.066-0.206-0.132c0.929,0,1.96,0,2.992,0.065c0.103,0.065,0.207,0.065,0.309,0.132
	c-0.206-0.132-0.515-0.265-0.824-0.33c-0.104-0.065-0.207-0.134-0.31-0.197c0.103,0,0.207,0,0.31,0.063h0.103
	c0.104,0,0.31,0.068,0.412,0.068c-0.206-0.068-0.516-0.199-0.722-0.266c-0.207-0.133-0.516-0.331-0.722-0.463
	c0,0,0.104,0,0.104,0.066c0.31,0.064,0.516,0.131,0.516,0.064v-0.064c0.104,0.064,0.31,0.064,0.413,0.131
	c-0.207-0.065-0.31-0.131-0.517-0.197c0-0.064,0-0.064-0.103-0.133c0.309,0,0.516,0,0.722,0.066c0.206,0,0.31,0.065,0.206,0h0.207
	c0.206,0.197,0.413,0.33,0.619,0.463c0.619,0.33,1.238,0.66,1.857,0.99c1.134,0.596,2.476,1.124,3.817,1.521
	c0.723,0.527,1.547,1.058,2.373,1.586c1.031,0.595,1.341,0.727,2.476,1.188c0.207,0.065,0.31,0.065,0.517,0.132
	c0.31,0.066,0.722,0.133,1.032,0.265c-0.104-0.064-0.207-0.064-0.31-0.064c0.207,0.064,0.412,0.064,0.619,0.132
	c0.515,0.065,1.031,0.198,1.547,0.33c2.682,0.66,6.086,1.521,9.079,0.66c0.412-0.132,0.928-0.264,1.341-0.396
	C264.855,60.536,265.371,60.338,265.783,60.008L265.783,60.008z M254.641,59.678c-0.207,0-0.31-0.066-0.412-0.066
	c-0.103,0-0.103-0.064-0.206-0.064C254.229,59.546,254.436,59.609,254.641,59.678L254.641,59.678z M252.578,52.805
	c0.104,0.066,0.31,0.066,0.413,0.131h-0.104C252.784,52.871,252.681,52.805,252.578,52.805L252.578,52.805z M254.436,58.752
	c-0.104,0-0.207-0.066-0.31-0.066l-0.103-0.064c0.309,0.064,0.721,0.132,1.031,0.197C254.847,58.818,254.641,58.752,254.436,58.752
	L254.436,58.752z M251.65,52.936c0.207,0.066,0.31,0.133,0.412,0.133c0.207,0.065,0.31,0.134,0.516,0.199
	c-0.104,0-0.31-0.065-0.413-0.065c-0.309-0.134-0.619-0.199-0.928-0.33C251.444,52.871,251.548,52.936,251.65,52.936L251.65,52.936z
	 M251.237,53.861h-0.207v-0.065c-0.207-0.065-0.412-0.133-0.619-0.198c0.104,0,0.207,0.065,0.31,0.065
	C250.928,53.729,251.032,53.796,251.237,53.861L251.237,53.861z M252.682,56.835c0.207,0.067,0.516,0.132,0.825,0.198
	C253.197,56.967,252.888,56.902,252.682,56.835z M255.881,57.563c0,0.065,0.103,0.065,0.206,0.065h-0.104
	c-0.516-0.065-1.135-0.196-1.651-0.264c-0.515-0.066-0.928-0.132-1.444-0.199c-0.104-0.065-0.31-0.065-0.516-0.132
	c-0.104,0-0.31-0.066-0.413-0.066c-0.104-0.064-0.104-0.064-0.104-0.132C253.198,57.1,254.538,57.364,255.881,57.563L255.881,57.563
	z M253.3,57.827c-0.103-0.066-0.206-0.134-0.31-0.199c0.929,0.199,1.857,0.396,2.786,0.529h-0.104
	c-0.619-0.066-1.135-0.134-1.65-0.198C253.713,57.893,253.507,57.827,253.3,57.827L253.3,57.827L253.3,57.827z M254.745,57.761
	c-0.516-0.065-1.032-0.198-1.547-0.265c-0.104,0-0.31-0.064-0.516-0.064c0-0.066-0.104-0.066-0.104-0.066
	c-0.103-0.066-0.103-0.066-0.207-0.133c1.341,0.265,2.786,0.528,4.23,0.728c0.104,0,0.104,0,0.206,0.065
	c-0.206-0.065-0.412-0.065-0.516-0.065C255.777,57.893,255.261,57.827,254.745,57.761L254.745,57.761z M255.881,57.298
	c-0.517-0.065-1.136-0.133-1.651-0.198c-0.412-0.065-0.825-0.133-1.238-0.197c0.413,0,0.826,0,1.341,0.064
	c0.516,0.066,1.135,0.198,1.754,0.266c0.412,0.065,0.722,0.133,1.135,0.199C256.808,57.364,256.293,57.364,255.881,57.298
	L255.881,57.298z M256.087,56.967h0.103H256.087z M251.238,53.268h0.206c0,0,0.103,0.065,0.207,0.065c-0.104,0-0.207,0-0.31-0.065
	H251.238L251.238,53.268z M252.785,53.796h-0.207H252.785L252.785,53.796z M255.674,58.488c-0.31,0-0.723,0-1.032-0.066
	c-0.207-0.066-0.516-0.199-0.723-0.265c0.619,0.133,1.342,0.198,1.961,0.331H255.674L255.674,58.488z M251.032,51.879
	c1.238,0.396,2.579,0.859,3.816,1.255c-0.31,0-0.516-0.065-0.722-0.065c-0.413-0.133-0.825-0.264-1.238-0.396
	c-0.722-0.265-1.444-0.595-2.167-0.926C250.825,51.813,250.928,51.813,251.032,51.879L251.032,51.879z M238.549,53.398v0.065V53.398
	z M238.859,53.796c-0.104-0.065-0.207-0.133-0.31-0.198h0.104v-0.065c0.207,0.132,0.31,0.198,0.515,0.329
	C239.064,53.861,238.962,53.796,238.859,53.796L238.859,53.796z M255.365,60.141h-0.517c-0.206-0.066-0.412-0.133-0.619-0.199
	c0.104,0,0.207,0,0.413,0.066c0.309,0.065,0.619,0.065,0.825,0.133H255.365L255.365,60.141z"/>
<path d="M334.376,59.346c1.649-0.595,3.096-1.322,4.643-2.049c1.444-0.727,2.683-1.652,3.921-2.512
	c1.237-0.926,1.96-1.983,2.682-3.041c0.62-0.99,0.825-1.98,0.93-3.039c0.104-0.463,0.206-0.926,0.206-1.389
	c0.104-1.123-0.516-2.313-1.031-3.369c-0.104-0.396-0.31-0.859-0.516-1.256c-0.414-0.793-1.135-1.586-1.755-2.313
	c-0.929-1.058-2.271-2.048-3.507-2.974c-0.311-0.198-0.62-0.396-0.93-0.529c0-0.132-0.104-0.198-0.104-0.33
	c-0.103-0.066-0.411-0.132-0.515-0.132c-0.518-0.331-1.137-0.661-1.649-0.925c-1.238-0.992-2.478-1.983-3.817-2.842
	c-0.104-0.066-0.207-0.132-0.311-0.198v-0.066c-0.103,0-0.103-0.066-0.208-0.066c-0.102-0.066-0.102-0.066-0.204-0.132h0.311
	c0.104,0,0.104-0.066,0-0.066c-0.517-0.264-1.031-0.462-1.549-0.727l-0.104-0.066c0.413,0.132,0.722,0.265,1.136,0.396
	c0.206,0.066,0.41,0.132,0.618,0.132c0.206,0,0.206-0.066,0.104-0.132c-0.929-0.396-1.856-0.859-2.787-1.255
	c0.105-0.066-0.103-0.066-0.411-0.132c0.206-0.066,0.411-0.132,0.62-0.264c0.104,0-1.134-0.331-1.134-0.264
	c-0.413-0.132-0.826-0.199-1.24-0.265c-0.102-0.132-0.308-0.198-0.411-0.264c-1.96-1.058-4.021-2.049-6.087-3.04
	c-2.063-0.991-4.229-1.917-6.396-2.908c-2.373-1.058-4.951-2.115-7.428-3.172c-1.238-0.991-2.784-1.982-4.54-2.643
	c-0.516-0.264-1.029-0.529-1.649-0.727c-0.312-0.132-0.722-0.265-1.031-0.397c0.311-0.264,0.62-0.528,0.93-0.793
	c1.959-0.859,4.125-1.388,6.395-1.85c2.167-0.264,4.437-0.331,6.603-0.396c1.24-0.066,2.478,0,3.611,0.066
	c1.754,0.595,3.097,1.189,4.642,2.115c0.105,0.198,0.312,0.396,0.518,0.529c0.31,0.265,0.412,0.529,0.515,0.793
	c0.105,0.132,0.105,0.331,0.105,0.462c-0.206,0.463-0.312,0.992-0.105,1.454v0.661l0.105,0.066v0.198
	c0,0.198,1.34,0.529,1.443,0.595c0.31,0.066,1.236,0.529,1.546,0.463c0.206-0.066,0.312-0.066,0.518-0.132
	c0,0.198,0.104,0.33,0.206,0.462c0.104,0.264,0.929,0.529,1.238,0.661c0.311,0.132,0.617,0.331,1.029,0.462
	c0.105,0.066,0.206,0.066,0.312,0.066c-0.104-0.396-0.205-0.793-0.312-1.189c0.105,0.066,0.105,0.066,0.206,0.132
	c0.104,0.066,0.207,0.066,0.312,0.066c-0.104-0.331-0.206-0.661-0.312-0.992v-0.066c-0.101-0.199-0.101-0.463-0.206-0.661h0.105
	c0.411,0.396,0.928,0.859,1.34,1.256c0.826,0.793,1.548,1.718,2.063,2.709v0.132c0,0.066,0.104,0.132,0.104,0.199
	c0.104,0.132,0.104,0.33,0.104,0.462h0.104c0,0.132,0.104,0.264,0.104,0.331c0,0.132,1.756-0.132,1.756-0.132
	c0.205-0.066,1.649-0.132,1.752-0.331c0.31-0.462,0.517-0.859,0.517-1.388c0.208-0.462,0.31-0.925,0.31-1.454
	c-0.102-0.462-0.206-0.991-0.411-1.454c-0.104-0.529-0.411-1.058-0.723-1.52c-0.824-1.454-2.374-2.709-3.816-3.899
	c-1.549-1.322-3.509-2.313-5.469-3.371c-0.929-0.529-1.959-0.925-2.989-1.322c-0.52-0.132-1.033-0.331-1.55-0.529
	c-1.341-0.264-2.682-0.529-4.021-0.793c-0.207-0.066-2.478,0.066-2.478,0.132c0,0.132,0,0.198,0.104,0.33h-0.104
	c-0.104,0.199,0,0.331,0,0.463c-0.619-0.264-1.237-0.463-1.962-0.661c-1.134-0.331-2.373-0.528-3.608-0.595
	c-1.444-0.132-2.785-0.066-4.231,0.132c-1.03,0.132-2.165,0.264-3.196,0.528h-0.207c-1.442-0.066-2.785,0.066-4.127,0.199
	c-0.824,0.066-1.649,0.396-2.27,0.595c-0.31,0.066-0.62,0.198-0.929,0.331c-0.825,0.264-1.65,0.661-2.271,1.189
	c-0.928,0.529-1.548,1.189-1.96,1.917c-0.207,0.198-0.309,0.33-0.412,0.462c-0.103,0.132-0.206,0.198-0.311,0.264v0.199
	c-0.104,0.066-0.104,0.132-0.206,0.198v0.397c0,0.066-0.104,0.132-0.104,0.198s-0.104,0.132-0.104,0.198v0.132
	c-0.207,0.331-0.309,0.728-0.413,1.124c-0.103,0.198-0.205,0.462-0.205,0.727c-0.104,0.198-0.104,0.396-0.206,0.595v0.264
	c-0.207,0.595-0.207,1.124-0.104,1.653c0.104,0.33,0.204,0.661,0.31,0.991c0,0.198,0.104,0.396,0.205,0.595
	c0.104,0.132,0.104,0.198,0.104,0.33c0.205,0.397,0.311,0.793,0.62,1.19c0.31,0.462,0.721,0.925,1.34,1.322h0.104
	c-0.104,0.066,0.103,0.132,0.208,0.198c-0.105,0-0.105,0-0.208,0.066c-0.104,0,0,0.066,0.103,0.132c-0.205,0-0.31,0.066-0.515,0.132
	c-0.311,0,0.205,0.198,0.205,0.198c0.104,0,0.104,0,0.207,0.066c-0.104,0-0.31,0.066-0.516,0.132c-0.104,0,0.104,0.132,0.311,0.198
	c-0.104,0-0.207,0-0.207,0.066c-0.311,0,0.31,0.198,0.31,0.198c0.412,0.132,0.931,0.396,1.445,0.396
	c0.311,0.066,0.721,0.066,1.135,0.066c1.342,0.925,2.683,1.718,4.332,2.379c1.342,0.595,2.684,1.256,4.229,1.718
	c1.548,0.529,3.198,0.991,4.953,1.388c0.31,0.198,0.722,0.396,1.031,0.594c0.927,0.529,1.96,0.991,2.991,1.52
	c1.443,0.661,3.197,0.925,4.849,1.189c1.237,0.199,2.477,0.265,3.714,0.331c1.237,0.396,2.476,0.727,3.714,1.123
	c0.411,0.198,0.825,0.396,1.238,0.595c2.063,0.991,3.815,2.181,5.569,3.437c0,0.065-0.104,0.131-0.104,0.197h-0.104
	c-0.104,0.266-0.104,0.528-0.104,0.793c-0.205,0-0.412-0.066-0.412,0c0,0.528,0.104,1.059,0.104,1.586v0.066
	c0.104,0.132,0.104,0.265,0.104,0.396v0.131c0,0.066,0.104,0.134,0.104,0.199c0.617,1.057,1.134,2.18,1.648,3.37
	c0.206,0.396,0.517,0.859,0.722,1.321c0.104,0.132,0.206,0.331,0.311,0.463c-0.516,0.527-1.134,0.991-1.65,1.52
	c-0.412,0.332-0.824,0.662-1.236,1.059c-0.724,0.462-1.443,1.059-2.063,1.586c-0.31,0.132-0.516,0.199-0.825,0.266
	c-1.237,0.528-2.579,0.924-3.815,1.387c-1.548,0.464-2.992,0.926-4.438,1.389c-0.618,0-1.135,0-1.753-0.064
	c-5.676-0.199-11.35-0.529-17.021-0.992c-1.651-0.463-3.303-0.991-5.059-1.453v-0.133c0-0.133-1.441-0.266-1.545-0.266
	c0,0-1.342-0.197-1.549-0.132c-0.103,0-0.103-0.065-0.103-0.065c-0.104,0-0.207,0-0.311,0.065c0.104,0.132,0.206,0.199,0.311,0.265
	v0.066h-0.207c-0.104-0.066-0.207-0.066-0.311,0c0.104,0.064,0.207,0.197,0.311,0.264c-0.207,0-0.413,0-0.311,0.066
	c0.104,0.066,0.207,0.197,0.413,0.264c-0.208,0-0.311,0-0.208,0.066c0.104,0.066,0.103,0.066,0.208,0.133v0.064
	c-0.105-0.064-0.208-0.064-0.208,0c0,0,0-0.064-0.103-0.064c-0.104,0-0.207,0-0.311,0.064c0.104,0.067,0.205,0.199,0.311,0.266
	v0.133c-0.207,0-0.413,0-0.207,0.064c0,0.066,0.103,0.134,0.31,0.197v0.067c-0.207,0-0.412,0-0.207,0.065
	c0,0.065,0.104,0.065,0.207,0.133v0.396c0,0.134,0,0.265,0.103,0.396c0.105,0.397,0.312,0.794,0.725,1.058
	c0,0.066,0.103,0.066,0.103,0.066c0.518,0.33,1.032,0.66,1.445,0.99c0.31,0.133,0.619,0.33,1.03,0.463
	c0.825,0.396,1.65,0.729,2.581,0.992c0.205,0.065,0.31,0.065,0.515,0.131h-1.961c-0.721,0-1.546-0.064-2.269-0.131
	c-1.857-0.728-3.302-1.719-4.436-3.041c0-0.065-0.93-0.199-0.93-0.065c-0.93-0.595-1.444-1.321-1.651-2.113
	c-0.104-0.198-1.236-0.332-1.34-0.198c-0.619,0.396-0.928,0.791-1.032,1.188c-0.207,0.265-0.31,0.528-0.207,0.858
	c-0.31,0.33-0.31,0.728-0.103,1.125c-0.104,0.264,0,0.461,0.103,0.726c0,0.133,0.104,0.265,0.207,0.396c0,0.066,0,0.133,0.104,0.267
	c0.104,0.595,0.722,1.058,1.65,1.319c0.311,0.133,0.618,0.267,0.928,0.332c0.206,0.527,0.824,0.924,1.756,1.256
	c1.341,0.793,1.958,0.857,3.712,1.256c0.826,0.131,1.755,0.264,2.581,0.396c3.401,0.529,6.911,0.991,10.418,1.388
	c1.343,0.133,3.095,0.133,4.539,0.133c4.539,0.066,8.975-0.926,13.307-1.85c3.611-0.795,7.019-1.918,10.318-3.173h-0.007V59.346z
	 M300.126,58.354c0.104,0.066,0.207,0.066,0.31,0.066c-0.205,0-0.31,0-0.411-0.066c-0.104,0-0.104,0-0.207-0.064
	C299.921,58.354,300.023,58.354,300.126,58.354L300.126,58.354z M299.609,58.023c-0.103,0-0.103-0.065-0.206-0.065
	c0.206,0.065,0.411,0.065,0.62,0.131h0.103C299.921,58.089,299.816,58.089,299.609,58.023L299.609,58.023z M299.508,57.759
	c-0.312-0.132-0.724-0.264-1.032-0.462c0.62,0.133,1.135,0.33,1.65,0.462c0.516,0.067,0.93,0.199,1.444,0.265
	C300.848,57.958,300.229,57.891,299.508,57.759L299.508,57.759z M318.902,29.539c-0.207-0.198-0.518-0.33-0.725-0.528
	c0.31,0.132,0.725,0.264,1.136,0.396c0.104,0.066,0.207,0.066,0.31,0.132H318.902L318.902,29.539z M296.412,25.839h0.206
	c0.413,0.198,0.825,0.396,1.136,0.594c0.104,0.066,0.104,0.066,0.206,0.132c0.311,0.132,0.619,0.331,1.031,0.463
	c0.825,0.396,1.753,0.793,2.579,1.123c-0.826-0.264-1.649-0.528-2.476-0.859c-0.104,0-0.206-0.066-0.412-0.132
	c-0.722-0.397-1.444-0.793-2.064-1.19C296.515,25.904,296.515,25.904,296.412,25.839L296.412,25.839z M298.167,27.292h-0.104
	H298.167z M298.579,27.557v-0.066V27.557z M298.683,27.623c0.102,0,0.206,0.065,0.309,0.065c0.207,0.133,0.412,0.265,0.618,0.331
	C299.301,27.887,298.991,27.755,298.683,27.623L298.683,27.623z M299.198,27.755l-0.207-0.066c-0.412-0.198-0.824-0.396-1.135-0.528
	c-0.413-0.265-0.724-0.463-1.033-0.728c0.208,0.132,0.311,0.199,0.519,0.331c0.412,0.198,0.825,0.397,1.342,0.595
	c0.927,0.396,1.855,0.859,2.783,1.189C300.744,28.284,299.921,28.02,299.198,27.755L299.198,27.755z M300.642,56.238h-0.412
	c-0.206-0.065-0.413-0.133-0.517-0.198C300.023,56.105,300.334,56.173,300.642,56.238L300.642,56.238z M297.649,56.371
	c2.374,0.462,4.746,0.925,7.118,1.454c-1.753,0-3.403-0.134-5.055-0.396C298.991,57.164,298.27,56.768,297.649,56.371
	L297.649,56.371z M300.435,58.684c0.104,0.066,0.31,0.066,0.413,0.133c-0.517-0.065-1.033-0.133-1.548-0.266
	c-0.311-0.131-0.617-0.263-0.929-0.396C298.99,58.354,299.814,58.551,300.435,58.684L300.435,58.684z M299.816,58.948
	c0.517,0.065,1.031,0.198,1.548,0.329h-0.414c-0.516-0.064-0.927-0.131-1.441-0.264c-0.311-0.065-0.619-0.265-0.93-0.396
	C298.991,58.75,299.403,58.816,299.816,58.948L299.816,58.948z M299.508,59.277h0.103H299.508z"/>
<path d="M390.585,59.809c0-0.265-0.104-0.595-0.104-0.858c0.311-0.066,0.618-0.134,0.618-0.197
	c-0.103-0.331-0.103-0.662-0.206-0.993l0.104-0.064c-0.412-1.389-0.723-2.711-1.135-4.098c-0.104-0.33-0.207-0.66-0.413-0.99
	c0-0.397-0.104-0.729-0.104-1.125c-0.104-0.396-0.207-0.793-0.31-1.123c-0.207-1.256-0.824-2.512-1.342-3.7
	c-0.31-0.728-0.722-1.454-1.032-2.181c0.104-0.133,0.312-0.266,0.412-0.397c0.206-0.33,0.206-0.595,0-0.792
	c0.104-0.066,0.104-0.133,0.206-0.198c0.312-0.463,0.207-0.794-0.31-1.058v-0.066c0.413-0.595-0.104-0.99-1.341-1.189h-0.412
	c-0.206-0.528-0.31-1.057-0.412-1.52c-0.311-1.256-0.518-2.445-0.825-3.635c-0.103-0.396-0.103-0.859-0.206-1.256
	c-0.104-0.528-0.104-1.057-0.206-1.586c-0.311-2.644-0.207-5.353-0.104-7.997c0-1.652,0.104-3.305,0.104-4.957
	c0-0.463,0-0.925,0.104-1.454c0.207-0.198,0.31-0.396,0.412-0.595c0-0.264,0.104-0.595,0.205-0.859c0-0.066-0.103-0.132-0.103-0.198
	c0.103-0.265,0.206-0.529,0.31-0.793c-0.31-0.264-0.412-0.463-0.31-0.727c0-0.066-0.104-0.132-0.207-0.198
	c0-0.066,0.104-0.066,0.104-0.132c-0.31-0.198-0.31-0.462-0.205-0.661c0-0.132-0.207-0.264-0.311-0.33
	c-0.311-0.132-0.825-0.265-1.136-0.331c-0.208,0-0.311-0.066-0.413-0.066s-0.103,0.066-0.103,0.066
	c-0.104,0.066-0.207,0.066-0.413,0.132c-0.104-0.462-0.206-0.859-0.311-1.322c0-0.065-0.102-0.065-0.102-0.132
	c-0.105-0.265-0.105-0.595-0.208-0.859c0-0.198-1.959-0.661-2.063-0.595c0,0.132-0.104,0.264-0.104,0.331h-0.104
	c-0.103,0.264-0.208,0.529-0.309,0.793H378.2c-0.103,0.397-0.309,0.859-0.515,1.256c-0.104,0.925-0.104,1.785-0.104,2.709
	c-0.205,1.388-0.311,2.775-0.516,4.163v5.551c0,1.652,0,3.371,0.205,5.023c0,1.586,0.207,3.172,0.414,4.758
	c0,1.058,0.102,2.049,0.206,3.106c-1.756,0-3.508-0.066-5.158-0.199c-4.126-0.857-8.048-2.048-12.07-3.039
	c-1.031-3.966-1.755-7.997-2.476-12.028c-0.516-1.916-0.826-3.899-0.826-5.882V16.39c0.104-0.594-0.104-1.189-0.515-1.784
	c0-0.331-0.104-0.661-0.312-1.057c0-0.132-0.824-0.265-1.031-0.265c-0.103-0.066-0.929-0.264-1.032-0.132
	c-0.517,0.264-0.825,0.528-1.134,0.859v0.131c-0.104,0.066-0.104,0.133-0.207,0.199v0.463c-0.104,0.132-0.206,0.198-0.311,0.264
	v0.396c0,0,0,0.066-0.104,0.066c0.104,0.396,0.104,0.793,0.104,1.256c0.104,3.304,0.413,6.675,1.031,9.979
	c0.31,2.511,0.724,4.957,1.135,7.402c-0.205-0.066-0.411-0.066-0.618-0.132c-0.31-1.124-0.723-2.247-1.032-3.371
	c-0.311-0.859-0.516-1.784-0.722-2.709c-0.207-1.388-0.311-2.709-0.311-4.098c-0.104-1.784,0-3.635-0.205-5.419v-0.925
	c0.205-0.595,0.102-1.124-0.31-1.586c0-0.396-0.104-0.793-0.518-1.189c0-0.132-0.723-0.198-0.826-0.198
	c-0.102-0.066-0.31-0.066-0.515-0.132v-0.132c0-0.133-2.27-0.595-2.27-0.463c-0.31,0.265-0.516,0.595-0.723,0.991
	c-0.207,0.331-0.311,0.661-0.413,0.992c-0.205,0.264-0.311,0.529-0.311,0.793v0.991c0,0.661,0,1.322,0.206,1.982
	c0.207,1.388,0.414,2.842,0.518,4.296c-0.104,1.784-0.104,3.635-0.104,5.485c0,0.992,0.104,2.049,0.311,3.04
	c-0.414-0.066-0.825-0.132-1.24-0.198c-0.311,0-0.618-0.066-0.929-0.066c-0.104,0-0.104,0.066,0,0.066
	c0.724,0.198,1.344,0.331,2.063,0.529c-0.41-0.066-0.928-0.132-1.341-0.132c-0.311-0.066-0.62-0.132-0.929-0.132
	c-0.103,0-0.103,0.066,0,0.066c0.516,0.132,1.032,0.264,1.443,0.396c-0.103,0-0.311-0.066-0.411-0.066
	c-0.311-0.066-0.62-0.066-0.931-0.066c-0.103,0-0.204,0,0,0.066c0.517,0.132,1.137,0.264,1.651,0.396c-0.205,0-0.311,0-0.516-0.066
	c0.205,0.066-1.445-0.132-1.031,0c0.516,0.132,1.031,0.199,1.444,0.331c-0.311,0-0.619-0.066-0.93-0.132
	c-0.311,0-0.62-0.066-0.93-0.066c-0.103,0-0.103,0.066,0,0.066c1.032,0.264,1.961,0.462,2.891,0.727
	c-0.62-0.066-1.239-0.132-1.857-0.198c-0.311-0.066-0.618-0.133-0.928-0.133c-0.104,0-0.104,0.066,0,0.066
	c0.515,0.132,1.03,0.264,1.546,0.396c-0.205,0-0.311-0.066-0.411-0.066c0.206,0.066-1.547-0.133-1.032,0
	c0.929,0.198,1.961,0.462,2.89,0.727v0.066c0.104,0.199,0.104,0.396,0.205,0.661c0,0.066,0,0.198,0.104,0.264
	c0.104,0.463,0.206,0.926,0.311,1.322c0,0.132,0.104,0.264,0.104,0.396v0.131c0.104,0.066,0.104,0.199,0.104,0.266
	c0,0.064,0.104,0.198,0.104,0.264c0.723,2.445,1.855,4.825,2.992,7.139c0,0.065,0,0.132,0.104,0.132c0,0.065,0,0.133,0.104,0.198
	c0.102,0.265,0.205,0.463,0.411,0.727c0.311,0.529,0.619,1.125,1.03,1.652c0.207,0.463,0.518,0.927,0.826,1.322
	c0.723,1.719,1.342,3.502,1.961,5.221c0.412,1.189,0.928,2.38,1.548,3.504c0.207,0.66,0.723,1.65,1.341,2.445
	c0.206,0.33,0.311,0.66,0.617,0.924c0.207,0.33,0.517,0.662,0.932,0.926h0.31c0.103,0.066,1.236,0,0.929,0
	c0.824-0.066,1.648-0.066,2.372-0.133c2.063-0.198,2.063-0.198,2.063-0.198c0.31,0,0.516-0.065,0.722-0.131
	c-0.103-0.067-0.206-0.199-0.309-0.265h0.103c-0.206-0.199-0.31-0.332-0.411-0.463c0-0.066,0.104-0.066,0.205-0.066l-0.102-0.065
	c0-0.065,0.102-0.065,0.206-0.065c0.205,0,0.515,0,0.721-0.066c-0.206-0.197-0.411-0.463-0.619-0.661h0.104
	c-0.104-0.065-0.205-0.196-0.205-0.264c0.102,0,0.308-0.066,0.515-0.066c-0.31-0.396-0.619-0.728-0.929-1.058l0.104-0.065
	c0.205-0.331,0.311-0.661,0.311-0.925c0.104-0.066,0.205-0.066,0.205-0.066c0.104-0.396,0.207-0.793,0.31-1.256
	c0-0.66,0-1.389-0.205-2.115c-0.104-0.131-0.104-0.33-0.206-0.527c0-0.133,0-0.266-0.104-0.463v-0.266
	c-0.104-0.197-0.104-0.396-0.205-0.595v-0.065c-0.104-0.33-0.207-0.594-0.312-0.924c-0.62-1.72-1.342-3.504-1.961-5.223
	c-0.311-0.991-0.62-1.98-1.03-3.039c2.683,0.857,1.547,0.396,8.148,1.453c0.206,0.066,0.411,0.066,0.62,0.066
	c1.031,0.064,2.063,0.064,3.094,0.131c1.238,0,2.58,0.133,3.817,0.066h0.103c0.207,1.389,0.62,2.709,1.238,4.031
	c0.31,0.792,0.517,1.586,0.825,2.313c0.208,0.396,0.31,0.728,0.517,1.059c0.104,0.264,0.312,0.463,0.411,0.727
	c0,0.596,0.104,1.125,0.104,1.719c0.103,0,0.206,0.065,0.206,0.065c0,0.198,0,0.331,0.104,0.528h0.206v0.331
	c0.205,0.065,0.412,0.065,0.62,0.065c0.618,1.321,1.236,2.709,1.855,4.031h0.104c0.102,0.133,0.205,0.33,0.309,0.463
	s0.207,0.264,0.207,0.33c0.205,0.065,0.411,0,0.62,0c0.618-0.133,1.341-0.265,1.959-0.396
	C388.109,60.402,390.688,59.939,390.585,59.809L390.585,59.809z M373.255,41.438c-1.444-0.332-2.786-0.793-4.127-1.256
	c2.991,0.594,5.982,1.123,9.077,1.389c0,0.132,0.104,0.33,0.104,0.462c-0.104,0.065-0.312,0.065-0.516,0.132
	c0.104,0,0.207-0.066,0.207-0.066c-0.31,0.133-0.723,0.198-1.135,0.266C375.628,42.098,374.388,41.768,373.255,41.438
	L373.255,41.438z M377.381,41.172h-0.207c-0.311,0-0.516-0.066-0.722-0.066C376.762,41.105,377.07,41.172,377.381,41.172
	L377.381,41.172z M373.976,38.66h-0.206h0.411H373.976L373.976,38.66z M370.777,44.079c0.722,0.065,1.342,0.133,1.961,0.133
	c0.517,0.065,0.929,0.198,1.34,0.265h-0.411c-0.517-0.065-0.929-0.065-1.443-0.131C371.705,44.277,371.189,44.212,370.777,44.079
	L370.777,44.079z M373.872,44.807c-0.411-0.065-0.927-0.065-1.442-0.132h-0.104c0.723,0,1.443,0.065,2.27,0.065
	C374.284,44.74,374.078,44.807,373.872,44.807L373.872,44.807z"/>
<path d="M386.84,20.09c0.104,0.132,0.206,0.199,0.311,0.331c0.104,0,0.104,0,0.104,0.066c0.104,0.066,0.207,0.132,0.311,0.199
	c0.516,0.462,1.033,0.859,1.548,1.321c0-0.066,0.104,0,0.104,0.066c0.103,0.066,0.103,0.132,0.206,0.132
	c0,0,1.959,1.785,2.062,1.719c0.312-0.199,0.62-0.397,0.932-0.529c0,0,0.103,0,0.103,0.066c0.207,0.264,0.516,0.529,0.722,0.793
	c-0.104-0.066-0.104-0.066-0.206-0.066c0.103,0,0.206,0.066,0.206,0.066c0.206,0.198,0.311,0.331,0.411,0.396
	c0.104,0.132,0.311,0.264,0.62,0.331c0.826,0.396,1.651,0.793,2.476,1.19c0.62,0.264,1.238,0.528,1.856,0.859
	c0.105,0,0.105,0.066,0.207,0.066c0,0-0.102,0-0.102-0.066c0.31,0.198,0.719,0.33,1.03,0.462c0.205,0.066,0.41,0.066,0.619,0.132
	c0.103,0.066,0.206,0.132,0.31,0.132c0.928,0.396,1.856,0.728,2.784,1.124c0.517,0.198,1.032,0.396,1.548,0.528
	c0.928,0.265,1.137,0.331,2.063,0.397c0.724,0.132,1.342,0.065,2.063,0.065c2.785,0.066,5.57-0.528,7.943-1.189
	c1.959-0.529,3.92-1.388,4.435-2.775c0.104-0.198,0.104-0.396,0-0.595v-0.132c0.413-0.33,0.826-0.661,1.138-1.058
	c0.412-0.396,0.412-0.793,0.412-1.189c0.515-0.727,0.205-1.454-0.207-2.181c-0.104-0.066-0.104-0.132-0.207-0.265
	c-0.104-0.198-0.206-0.462-0.411-0.727c-0.519-0.925-2.064-1.454-3.302-1.851c-0.517-0.132-1.032-0.264-1.549-0.396
	c-2.166-0.396-4.436-0.727-6.705-1.058c-2.58-0.462-5.158-0.991-7.635-1.586c-0.41-0.066-0.928-0.132-1.341-0.132
	c-1.959-0.198-3.714-0.066-5.569,0.132c-1.754,0.198-3.508,0.529-5.158,0.991c-0.723,0.198-1.446,0.595-2.063,0.991
	c-0.31,0.265-0.62,0.463-1.033,0.728c-0.31,0.198-0.517,0.396-0.617,0.66c-0.207,0.265-0.311,0.529-0.207,0.859
	C386.737,19.363,386.737,19.693,386.84,20.09L386.84,20.09z M396.126,24.782l0.104,0.066c0.102,0.065,0.206,0.198,0.411,0.33
	c-0.205-0.066-0.311-0.132-0.515-0.198V24.782L396.126,24.782z M414.178,22.403c-0.825,0.661-2.166,1.057-3.303,1.454
	c-1.961,0.661-4.127,0.793-6.293,0.859c-0.41,0-0.721,0.066-1.136,0.066c-0.926,0-1.752-0.066-2.681-0.132
	c-0.411,0-0.93-0.066-1.342-0.132c-0.205-0.198-0.412-0.396-0.516-0.594c0-0.066-0.104-0.199-0.104-0.265
	c0-0.066,0-0.132,0.104-0.132c0.104-0.595,0.516-1.124,1.031-1.652c0.516-0.529,1.34-0.925,2.165-1.256
	c0.413-0.132,0.825-0.264,1.239-0.396c1.031-0.132,1.959-0.265,2.889-0.396c1.341-0.132,2.579-0.265,3.92-0.331
	c0.311,0.132,0.723,0.265,1.031,0.397c0.724,0.264,1.445,0.594,2.063,0.991c0.516,0.331,0.93,0.728,1.238,1.19
	C414.383,22.205,414.28,22.271,414.178,22.403L414.178,22.403z"/>
<path d="M413.485,59.477c0.31-0.857,0.413-1.783,0.413-2.709c0-0.858,0-1.651,0.102-2.511c0-1.651-0.102-3.305-0.102-5.022
	c-0.104-2.709,0-5.42-0.104-8.063c0-0.793-0.104-1.521-0.311-2.313c-0.105-0.463-0.311-0.857-0.516-1.256
	c-0.311-0.925-0.931-1.651-1.651-2.444c-0.205-0.265-0.515-0.529-0.825-0.793c-0.516-0.462-0.516-0.331-1.443-0.595
	c-0.104-0.066-0.311-0.066-0.412-0.066c-0.207-0.396-0.516-0.661-0.93-0.992c-0.103-0.529-0.31-1.123-0.516-1.652
	c0,0-0.104-0.066-0.205-0.066c-0.105-0.33-0.207-0.661-0.311-0.991c0-0.198-1.756-0.396-1.856-0.396c0,0-2.063-0.33-2.063-0.264
	c0,0.132-0.104,0.264-0.207,0.33c-0.31,0.529-0.619,1.058-0.824,1.586v0.199c-0.104,0.198-0.205,0.396-0.311,0.595
	c0.311,1.322,0.206,2.644-0.104,3.965c-0.206,1.058-0.411,2.047-0.619,3.105c-0.207,0.991-0.516,2.049-0.825,3.106
	c-0.517,2.313-0.929,4.625-1.342,7.004c0,0.199-0.103,0.396-0.103,0.596v0.266c-0.104,0.396-0.104,0.858-0.207,1.256v0.33
	c0,0.264-0.104,0.527-0.104,0.793c-0.104,1.652-0.104,3.238,0.206,4.891h0.104c0,0.133,0,0.33,0.103,0.463c0,0,0.104,0,0.104,0.064
	v0.198c0.207,0.132,0.515,0.199,0.721,0.265c0.931,0.198,1.859,0.396,2.785,0.529v0.33c0,0-0.102,0-0.102,0.064
	c0,0.199,0,0.464,0.102,0.662c0,0.065,0,0.133-0.102,0.133c0,0.264,0,0.529,0.102,0.792h0.104c0,0.198,0.104,0.331,0.104,0.463
	c0.104,0,0.104,0,0.104,0.065c0,0.066,0.104,0.198,0.104,0.266c0.207,0.064,0.412,0.132,0.723,0.132
	c0.826,0.132,1.65,0.199,2.578,0.33h0.205c0.207,0.067,0.312,0.132,0.621,0.132h0.723c0.311,0.066,0.723,0.066,1.031,0.133
	c0.207,0,0.412,0.066,0.722,0c0.62,0,2.683,0.133,2.786,0C412.66,61.46,413.176,60.469,413.485,59.477L413.485,59.477z"/>
<path d="M446.269,61.195c-0.104-0.199-0.206-0.331-0.312-0.463c-0.103-0.198-0.308-0.396-0.515-0.528
	c-0.104-0.065-0.104-0.065-0.104-0.134c0.205,0.066,0.312,0.066,0.517,0.066c-0.104-0.132-0.205-0.33-0.312-0.462
	c-0.102-0.266-0.412-0.464-0.722-0.661c-0.31-0.133-0.825-0.464-1.134-0.529h-0.311c-0.516-0.463-0.824-0.924-1.237-1.387
	c-0.518-0.662-0.825-1.39-1.238-2.115c-0.104-0.33-0.206-0.662-0.31-1.058s-0.206-0.794-0.311-1.19v-0.594
	c-0.31-1.982-0.618-3.966-0.928-5.947c0-0.529-0.105-1.125-0.208-1.652c0-0.729,0-1.521,0.104-2.247c0-0.33,0-0.728-0.104-1.124
	c-0.104-0.595,0-1.256,0.104-1.85c0-0.066-0.207-0.066-0.413-0.133v-0.265c0-0.198,0-0.397,0.104-0.595
	c0-0.066-0.206-0.133-0.518-0.198c0-0.793-0.102-1.586-0.102-2.379c0.721-0.066,1.341-0.132,1.959-0.265
	c6.396-0.859,12.689-2.048,18.982-3.304c3.095-0.661,6.293-1.189,9.387-1.917c3.815-0.793,7.531-1.851,10.935-3.238
	c1.137-0.462,1.859-1.124,2.58-1.851c0.411-0.462,0.618-0.925,0.618-1.454c0-0.066-0.102-0.198-0.102-0.264v-0.066
	c0.205-0.529,0.102-1.058-0.105-1.52c-0.103-0.264-0.205-0.463-0.309-0.661c-0.104-0.199-0.104-0.331-0.205-0.463
	c0-0.132-0.104-0.198-0.104-0.265c0.104-0.33-0.206-0.793-0.516-1.123c0-0.331-0.206-0.661-0.311-0.925
	c-0.205-0.396-0.617-0.925-1.03-1.189c-0.725-0.462-1.137-0.793-1.961-1.124c-0.724-0.396-1.651-0.793-2.477-1.124
	s-1.649-0.727-2.579-0.991c-1.341-0.463-2.683-0.793-4.023-1.124c-2.578-0.529-5.262-0.793-7.943-1.057
	c-3.197-0.396-6.498-0.595-9.799-0.728c-4.85-0.264-9.803-0.066-14.649,0c-1.548,0.066-3.197,0.199-4.747,0.265
	c-3.195,0.198-6.188,0.661-9.18,1.256c-0.311,0.066-0.517,0.066-0.723,0.066c-0.412,0.066-0.825,0.132-1.135,0.33
	c-0.517,0.199-0.825,0.463-1.238,0.727l0.104,0.066c-0.104,0.066-0.206,0.132-0.31,0.199c-0.104,0.066,0,0.066,0,0.132l-0.104,0.066
	c-0.104,0.066,0,0.066,0.104,0.132l-0.104,0.066v0.066c-0.206,0.066-0.311,0.132-0.517,0.264c0,0,0.104,0.066,0.206,0.132
	c-0.104,0.066-0.206,0.132-0.309,0.198c0,0,0,0.066,0.103,0.132l-0.103,0.066c-0.104,0.066,1.96,1.058,2.372,0.992
	c1.032-0.066,2.165-0.265,3.198-0.396c5.57-0.793,11.245-1.058,16.918-1.256c6.706-0.265,13.516,0.132,20.219,0.595
	c1.344,0.132,2.685,0.265,4.023,0.396c-1.752,0-3.507,0.066-5.363,0.198c-1.547,0.066-3.095,0.198-4.644,0.264
	c-1.443,0.132-2.784,0.199-4.229,0.331c-0.205,0.066,0.105,0.198,0.105,0.265h-0.413c-0.205,0-0.104,0.132,0,0.198h-0.104
	c-0.104,0-0.104,0.066,0,0.132c-0.104,0,0.104,0.132,0.206,0.265h-0.721c-0.104,0.065,0.104,0.198,0.205,0.264
	c-0.103,0.066-0.205,0.066-0.311,0.066c-0.103,0,0,0.066,0.104,0.133h-0.104c-0.103,0.065,0.93,0.727,0.825,0.66
	c0.207,0.132,0.825,0.595,1.137,0.529c6.91-0.529,14.027-0.529,20.839,0.264c0.721,0.066,1.341,0.132,1.959,0.265
	c-0.206,0.198-0.311,0.396-0.311,0.661c-0.104,0,0,0.066,0.104,0.132c-0.104,0.066-0.104,0.132-0.104,0.199
	c-0.104,0.065,0,0.132,0.104,0.132c0,0.066-0.104,0.066-0.104,0.132s0.723,0.462,0.723,0.462c0.103,0.066,0.311,0.132,0.516,0.264
	c-2.889,1.19-6.292,1.917-9.49,2.578c-2.888,0.595-5.776,1.057-8.666,1.586c-0.207,0.066-0.413,0.066-0.618,0.132
	c-4.333,0.859-8.665,1.652-13,2.379c-2.063,0.33-4.229,0.661-6.291,0.925c-0.104-2.313-0.412-4.692-0.722-7.072
	c-0.104-0.925,0-1.851-0.207-2.841c0-0.463-0.104-0.925-0.104-1.388c0-0.397-0.206-0.793-0.412-1.124
	c0-0.331-0.104-0.661-0.206-0.992c0-0.198-1.65-0.594-1.756-0.462c-0.103,0.132-0.103,0.198-0.205,0.331
	c-0.311,0.462-0.517,0.859-0.825,1.322v0.132c-0.103,0.198-0.207,0.396-0.31,0.661c0-0.132-0.104-0.265-0.104-0.396
	c0,0-0.104,0-0.31-0.066c0-0.33-0.104-0.595-0.104-0.925c0-0.132-4.436-0.396-4.436-0.264c-0.104,0.132-0.104,0.198-0.104,0.331
	h-0.103c-0.104,0.33-0.104,0.595-0.104,0.859c-0.207,0-0.311,0.066-0.311,0.066c-0.311,2.181-0.206,4.428,0.206,6.608
	c0,0.199,0.104,0.396,0.104,0.595c0,1.982-0.104,3.965-0.207,5.948c-3.302,0.396-6.706,0.859-10.108,1.322
	c0.103,0.132,0.103,0.198,0.207,0.264c-0.104,0.066-0.312,0.066-0.413,0.066c0,0.133,0.103,0.198,0.103,0.264
	c0.105,0.133,0.207,0.265,0.312,0.396c-0.205,0.066-0.413,0.066-0.517,0.066c0,0.198,0.104,0.331,0.312,0.462
	c0.205,0.265,0.515,0.529,0.722,0.793c0.411,0.463,0.825,0.992,1.236,1.454c0.517,0.529,1.031,1.058,1.548,1.586
	c0.104,0.199,0.207,0.331,0.413,0.396c1.96-0.065,3.92-0.197,5.879-0.33c0,1.981-0.103,3.965-0.205,5.947
	c-0.311,3.437-0.104,6.873,0.722,10.311c0,0.132,0.104,0.264,0.104,0.33c-0.104,0.596-0.104,1.189-0.104,1.718V56.5
	c0,0,0,0.066-0.104,0.066c-0.104,0.132,0,0.197,0.104,0.33c-0.104,0.133,0,0.197,0.104,0.265v0.131h-0.104
	c0,0.067-0.104,0.067-0.104,0.133c-0.207,0.134,0,0.265,0.206,0.396c0,0.066,0,0.066-0.104,0.066c-0.104,0.133,0,0.266,0.104,0.33
	c-0.206,0.266,0.311,0.397,0.62,0.529c0.723,0.33,1.442,0.527,2.165,0.66c-0.104,0-0.205,0.066-0.412,0.066
	c-0.205,0.065,0.104,0.131,0.104,0.131c0.205,0.067,0.411,0.067,0.618,0.067c-0.206,0.065-0.413,0.132-0.618,0.198
	c-0.208,0,0.104,0.064,0.104,0.064V60c-0.104,0-0.205,0-0.312,0.064c-0.102,0,0.105,0.066,0.105,0.066
	c0.205,0.066,0.617,0.133,0.823,0.133c-0.206,0.131-0.411,0.197-0.823,0.264c-0.207,0.066,0.103,0.133,0.103,0.133
	c0.104,0,0.311,0.066,0.516,0.066c-0.205,0.064-0.311,0.064-0.617,0.131c-0.105,0,0.103,0.066,0.103,0.066
	c0.412,0.133,0.928,0.133,1.341,0.133c1.137-0.066,1.857-0.133,2.786-0.463c0.311-0.133-0.413-0.199-0.517-0.133
	c-0.619,0.133-1.237,0.198-1.752,0.266c0.721-0.066,1.34-0.199,2.165-0.463c0.206-0.133-0.413-0.133-0.516-0.133
	c-0.311,0.066-0.62,0.133-0.93,0.198v-0.06c0.104-0.064,0-0.131,0-0.131v-0.066c0.104,0,0.31,0,0.412-0.065
	c0.104,0.065,0.207,0.065,0.31,0.065v-0.133c0.208-0.065,0.311-0.065,0.517-0.131v-0.066c0.207-0.065,0.311-0.065,0.516-0.133
	c0.31-0.133-0.411-0.198-0.618-0.133h-0.207c0,0-0.104,0-0.104-0.065c0.207-0.063,0.413-0.132,0.62-0.197
	c0.309-0.065-0.413-0.133-0.518-0.133c-0.104,0.065-0.206,0.065-0.206,0.065h-0.104c0.104,0,0.206-0.065,0.206-0.065h0.206v-0.065
	c0.104,0,0.207-0.065,0.311-0.065c0.207-0.132-0.206-0.132-0.411-0.132V58.75c0.205-0.066,0.311-0.132,0.516-0.199
	c0.517,0.199,1.136,0.331,1.65,0.463c0.205,0.133,0.413,0.133,0.618,0.133c0-0.133-0.104-0.265-0.205-0.463
	c0.103,0.066,0.205,0.066,0.311,0.133c-0.104-0.133-0.104-0.33-0.208-0.463c0.104,0,0.208,0,0.311,0.066
	c0.309,0.396,0.619,0.857,1.032,1.256c0.721,0.727,1.134,0.792,2.166,1.256c0.104,0.064,0.311,0.064,0.411,0.133
	c0.825,0.197,1.649,0.33,2.477,0.527c0.825,0.198,1.548,0.33,2.372,0.528c0.207,0,0.517,0.065,0.724,0.065
	c-0.104-0.197-0.311-0.33-0.412-0.463c0-0.132-0.104-0.265-0.312-0.396h0.104c-0.104-0.131-0.205-0.197-0.205-0.33
	c0.102,0.066,0.205,0.066,0.412,0.066c0.205,0.065,0.41,0.133,0.617,0.133H446.269z M475.773,16.322
	c0.103,0.066,0.103,0.066,0.205,0.132c-0.205-0.066-0.411-0.198-0.723-0.264l-0.104-0.066
	C475.36,16.19,475.566,16.256,475.773,16.322L475.773,16.322z M475.463,15.265c0.104,0.066,0.104,0.132,0.207,0.198
	c-0.104-0.066-0.104-0.066-0.207-0.132c-0.207-0.066-0.412-0.132-0.516-0.199C475.051,15.132,475.257,15.199,475.463,15.265z
	 M474.947,16.454h-0.104v-0.066C474.844,16.454,474.947,16.454,474.947,16.454z M473.813,14.802
	c0.103,0.066,0.206,0.066,0.206,0.132C474.02,14.868,473.916,14.868,473.813,14.802z M433.992,58.421c-0.103,0-0.103,0-0.103,0.065
	c0-0.065-0.104-0.065-0.104-0.065H433.992L433.992,58.421z"/>
<path d="M493.773,14.104c0,0.082-0.101,0.164-0.101,0.246s0,0.164,0.101,0.246c0,0-0.101,0-0.101,0.083
	c0.302,0.409,0.505,0.901,0.707,1.394c0.203,0.738,0.303,1.394,0.402,2.049c0,0.328,0.103,0.656,0.103,0.902
	c0.101,0.574,0.101,1.065,0.101,1.558c0.202,1.066,0.306,2.214,0.306,3.279c0.201,2.377,0.402,4.674,0.505,6.969
	c0.301,3.279,0.506,6.559,1.313,9.674c0.102,0.246,0.102,0.41,0.202,0.656c0,1.066,0.103,2.296,0.507,3.279
	c0,0.246,0.101,0.492,0.201,0.738c0,0.163,0.102,0.244,0.102,0.327c0.103,0.246,2.325,0.081,2.325,0.081h1.921
	c0.101,0,0.304,0,0.404-0.081c0.202-0.083,0.304-0.164,0.505-0.246c0.101,0,0.202-0.082,0.304-0.163
	c0.505,0,0.707-0.164,0.607-0.492c0-0.082,0.102-0.164,0.102-0.328s0-0.327,0.101-0.409c0.102-0.083,0.102-0.246,0.102-0.493
	c0-0.081,0.103-0.163,0.103-0.327c0.102-0.491,0.102-1.065,0.203-1.639c0.101-0.82,0.101-1.56,0.101-2.38
	c0.101-3.606,0.203-7.296,0.203-10.985c0-3.771-0.203-7.625-0.507-11.396c-0.101-0.82-0.101-1.64-0.201-2.378
	c-0.203-0.656-0.304-1.312-0.508-1.886c-0.1-0.246-0.202-0.492-0.303-0.656c-0.102-0.246-0.202-0.41-0.202-0.656
	c-0.202-0.82-0.809-0.984-1.515-1.394c-0.305-0.082-0.507-0.164-0.811-0.164c-0.403-0.164-0.909-0.246-1.414-0.246
	c0,0-1.113-0.164-0.81,0c0.102,0,0,0.164,0,0.328c-0.202,0-0.202,0-0.103,0.082v0.083c0,0.082-0.101,0.164-0.101,0.246
	c-0.103,0.082-0.103,0.164-0.103,0.164v0.082c-0.101,0.246-0.202,0.41-0.202,0.41c0,0.082,0.103,0.164,0.103,0.246l-0.103,0.083
	l0.103,0.082c-0.202,0.246-0.305,0.574-0.305,0.574c0,0.164,0,0.328,0.103,0.41c-0.103,0.082-0.103,0.165-0.103,0.165
	c0.103,0.246,0.103,0.41,0.203,0.656c0,0.082,0,0.164,0.103,0.328c-0.202-0.328-0.403-0.656-0.707-0.983
	c-0.202-0.165-0.405-0.328-0.606-0.41c-0.305-0.082-2.123-0.656-2.326-0.41c-0.202,0.328-0.505,0.574-0.809,0.902
	c0.102,0.082,0.102,0.082,0.102,0.164c-0.102,0.082-0.102,0.164-0.202,0.246c0,0.082,0.101,0.164,0.101,0.246l-0.101,0.082
	c0,0.164,0.101,0.246,0.101,0.328c-0.101,0.165-0.201,0.246-0.404,0.41c0.102,0.082,0.203,0.246,0.203,0.328L493.773,14.104z"/>
<path d="M509.259,15.662v0.315c0.175,0.473,0.35,0.867,0.525,1.34c0.262,0.788,0.524,1.498,0.787,2.286
	c0.086,0.946,0.262,1.892,0.35,2.916c0.173,2.208,0.349,4.415,0.437,6.621c0.264,4.415,0.438,8.829,0.787,13.322
	c0,0,0.088,0,0.088,0.079c0,0.158,0.086,0.314,0.086,0.475l0.088,0.076c0.089,0.08,0.089,0.158,0.089,0.238
	c0.175,0.077,0.349,0.156,0.524,0.234c0.787,0.158,1.485,0.396,2.274,0.554c-0.089,0,0.437,0.157,0.962,0.235v0.08
	c0.087,0.155,0.261,0.234,0.523,0.234c0.611,0.314,1.311,0.553,2.01,0.788c0,0,2.449,0.946,2.536,0.789
	c0.525-0.631,0.963-1.263,1.137-2.05c0.088-0.236,0.088-0.553,0.175-0.789c0-0.157,0.088-0.235,0.088-0.393
	c0.087-0.396,0.087-0.789,0.174-1.184c-0.087-0.946-0.174-1.893-0.262-2.838c-0.264-2.68-0.701-5.282-1.049-7.883
	c-0.35-2.286-0.613-4.572-1.05-6.937c-0.264-1.734-0.7-3.468-1.225-5.281c-0.087-0.158-0.175-0.395-0.263-0.631
	c-0.087-0.237-0.176-0.395-0.176-0.631c-0.262-0.551-0.524-1.182-0.786-1.734c-0.438-1.261-1.225-2.364-2.187-3.389
	c-0.175-0.315-1.05-0.394-1.312-0.473l-1.399-0.236c0.088,0.158,0.176,0.315,0.176,0.473h-0.263v-0.237
	c-0.088-0.236-0.789-0.315-1.05-0.394c-0.611-0.158-1.137-0.237-1.749-0.395c-0.088,0-0.524-0.079-0.7-0.079
	c-0.086,0-0.086,0.079-0.086,0.079c-0.088,0.079-0.088,0.237-0.088,0.395h-0.088c-0.087,0.236-0.087,0.552-0.087,0.946
	c-0.089,0-0.089,0-0.089,0.079c-0.174,0.236-0.174,0.709-0.174,1.104C508.995,14.4,509.17,15.11,509.259,15.662L509.259,15.662z"/>
<path d="M534.719,20.7c0,1.656,0.087,3.311,0.174,4.966c-0.087,0.63-0.087,1.104,0,1.655c0.087,0.394,0.176,0.709,0.264,1.024
	c0,0.395,0,0.868-0.088,1.262c0,2.522-0.175,4.966-0.088,7.411c0,1.26,0.088,2.442,0.264,3.625c0.087,0.235,0.087,0.395,0.174,0.551
	v0.08c0.087,0.631,0.264,1.183,0.525,1.813c0.087,0.236,0.175,0.474,0.264,0.631c0.173,0.63,0.522,1.183,0.874,1.654v0.788
	c0.087,0.08,0.087,0.08,0.173,0.08v0.63c0,0.079,0.089,0.079,0.089,0.079v0.394c0.175,0.079,0.349,0.079,0.524,0.079h1.749
	c0,0,2.186,0,2.186-0.156c0.35-1.813,0.787-3.627,1.138-5.439v-0.078c0.087-0.314,0.173-0.71,0.173-1.104
	c0.088-3.549,0.176-7.174,0.176-10.801c0.088-1.892,0.088-3.784,0.175-5.675c0.438-3.941,0.174-7.882-0.962-11.824
	c-0.087-0.395-0.087-0.789-0.176-1.183c-0.087-0.236-1.748-0.709-1.836-0.63c0,0.158-0.088,0.315-0.175,0.473
	c-0.174,0.551-0.437,1.103-0.611,1.655c0-0.237,0-0.395-0.087-0.631c0-0.158-1.05-0.395-1.136-0.473
	c-0.089,0-1.05-0.394-1.228-0.236c-0.261,0.236-0.61,0.552-0.873,0.867c-0.438,0.394-0.699,0.789-0.875,1.261
	c-0.174,0.395-0.262,0.71-0.262,1.104c-0.264,0.394-0.35,0.867-0.264,1.34C534.632,17.468,534.719,19.124,534.719,20.7L534.719,20.7
	z"/>
<path d="M487.994,56.982c0.404,0.82,0.909,1.56,1.516,2.297c0-0.082-0.101-0.082-0.202-0.164c0.103,0.082,0.202,0.164,0.303,0.164
	c0.103,0.164,0.305,0.328,0.405,0.492c-0.202-0.082-0.405-0.164-0.607-0.328c0.304,0.164,0.506,0.328,0.707,0.41
	c0.404,0.49,0.911,0.982,1.213,1.312h-0.102h0.102c0.102,0.164,0.304,0.328,0.404,0.492c0.202,0.165,0.404,0.245,0.708,0.327
	c0.809,0.328,1.616,0.656,2.426,0.902c0.202,0.082,0.304,0.163,0.505,0.163c0.404,0.164,0.809,0.328,1.112,0.493
	c0.304,0.081,0.606,0.163,0.809,0.327c-0.101-0.082-0.202-0.164-0.303-0.246c0.404,0.163,0.809,0.328,1.314,0.492
	c0.202,0.163,0.505,0.163,0.809,0.245c1.313,0.082,2.526,0,3.842,0c3.64-0.164,7.177-0.901,10.411-2.213
	c0.608-0.328,1.214-0.737,1.72-1.23c0.506-0.409,0.909-0.9,1.112-1.477c0.202-0.409,0.202-0.737,0.202-1.147v-0.081
	c0.203-0.572,0.303-1.066,0.102-1.641c0-0.409-0.203-0.819-0.404-1.147c-0.103-0.327-0.202-0.655-0.302-0.983
	c-0.305-0.572-0.811-1.065-1.417-1.477c-0.606-0.408-1.314-0.736-2.022-0.982c-0.909-0.246-1.92-0.41-2.829-0.655
	c-0.708-0.082-1.518-0.247-2.225-0.41c-0.202-0.082-0.506-0.164-0.405-0.164c-0.402-0.164-0.706-0.246-1.109-0.41h0.202
	c0.403,0.164,0.908,0.41,1.313,0.41c0.403,0.082-0.808-0.41-0.607-0.328c-0.706-0.327-1.313-0.573-2.021-0.819
	c0.402,0,0.708,0.082,1.01,0.082c0.405,0.246,0.911,0.41,1.416,0.492c0.404,0-0.808-0.492-0.605-0.41
	c-0.304-0.082-0.708-0.246-1.012-0.41c0.304,0.082,0.606,0.082,0.909,0.164c0.405,0.164,0.91,0.328,1.416,0.41
	c0.403,0.082-0.911-0.492-0.708-0.41c-0.403-0.164-0.808-0.328-1.213-0.492h0.103c0.403,0.164,0.909,0.41,1.415,0.492
	c0.303,0-0.809-0.492-0.606-0.409c-0.404-0.164-0.809-0.328-1.214-0.493c0.103,0,0.202,0.083,0.304,0.083
	c0.404,0.164,0.91,0.327,1.314,0.41c0.403,0-0.506-0.41-0.506-0.328c-0.607-0.246-1.112-0.492-1.617-0.656
	c0.304,0,0.707,0.083,1.011,0.083c0.404,0.245,0.91,0.408,1.314,0.491c0.404,0-0.707-0.41-0.506-0.41
	c-0.708-0.246-1.516-0.573-2.324-0.901c-1.111-0.41-2.225-0.574-3.438-0.819c-1.618-0.327-3.234-0.245-4.852-0.245
	c-1.314-0.082-2.527,0.328-3.739,0.9c-1.214,0.492-2.227,1.477-3.135,2.297c-0.506,0.574-0.809,1.146-1.112,1.804
	c-0.303,0.491-0.403,1.065-0.606,1.64c-0.102,0.245-0.102,0.41-0.102,0.655c-0.102,0.083-0.102,0.247-0.102,0.328
	c-0.202,0.573-0.103,1.147,0,1.722C487.591,56.082,487.794,56.573,487.994,56.982L487.994,56.982z M495.272,62.23
	c-0.201-0.082-0.506-0.082-0.707-0.164c-0.202-0.082-0.405-0.244-0.606-0.327c0.301,0.083,0.606,0.245,0.909,0.327
	c0.202,0.082,0.304,0.082,0.505,0.164H495.272L495.272,62.23z M494.059,61.329v-0.082V61.329z M494.059,60.1
	c0.405,0.164,0.81,0.328,1.214,0.492c-0.304-0.082-0.506-0.164-0.809-0.246C494.361,60.264,494.16,60.182,494.059,60.1L494.059,60.1
	z M506.19,50.753h0.1c-0.202,0-0.303,0-0.505-0.082C505.987,50.753,506.09,50.753,506.19,50.753L506.19,50.753z M493.048,58.214
	c0.505-1.558,1.719-2.787,2.932-3.937c0.505-0.491,1.214-0.982,1.92-1.394c0,0,0.103,0.082,0.203,0.082
	c0.707,0,1.415,0.082,2.021,0.164c1.617,0.655,3.235,1.394,4.751,2.05c0.808,0.41,1.516,0.819,2.123,1.313
	c0.202,0.164,0.506,0.328,0.707,0.49c0.102,0.164,0.304,0.328,0.404,0.494c-0.506,0.49-1.112,0.982-1.719,1.312
	c-0.606,0.327-1.315,0.573-2.123,0.737c-1.112,0.41-2.426,0.574-3.639,0.656c-1.719,0.162-3.437,0.162-5.056,0
	c-0.302-0.082-0.606-0.164-0.91-0.246c-0.505-0.246-1.011-0.574-1.616-0.902c0-0.081-0.102-0.163-0.203-0.245v-0.083
	C492.946,58.542,492.946,58.378,493.048,58.214L493.048,58.214z"/>
<path d="M506.715,48.785"/>
<path d="M516.766,47.902c-0.437-0.315-0.699-0.237-0.699,0.078v0.08c-0.088,0-0.088,0.078-0.175,0.156c-0.438,0-0.962,0-1.399,0.158
	c-0.787,0.157-1.312,0.708-1.573,1.418c-0.35,0.553-0.524,1.262-0.612,1.732c-0.175,0.396-0.175,0.711-0.263,1.026v0.63
	c-0.087,0.315,0,0.631,0.087,0.867c0.264,0.553,0.438,1.024,0.612,1.419c0.176,0.394,0.265,0.788,0.438,1.104
	c0.175,0.473,0.438,0.867,0.963,1.34c0.698,0.631,1.398,1.262,2.186,1.893c0.087,0.157,0.264,0.315,0.437,0.551
	c-0.087-0.157-0.175-0.234-0.264-0.394c0.176,0.158,0.352,0.315,0.525,0.474c0.263,0.235,0.962,0.866,1.399,1.023l0.962,0.314
	c0.874,0.158,1.661,0.236,2.535,0.158c0.963,0,2.1-0.236,2.974-0.474c1.923-0.474,3.585-1.419,4.896-2.681
	c0.699-0.551,0.96-1.262,1.137-2.049c0.087-0.158,0.087-0.396,0-0.553c0.087-0.158,0.176-0.394,0.176-0.551
	c0.173-0.631-0.089-1.184-0.438-1.656c-0.088-0.314-0.176-0.71-0.351-1.023c-0.35-0.789-1.137-1.184-1.836-1.577
	c-0.35-0.158-0.701-0.315-1.049-0.474c-2.974-0.867-5.858-1.654-8.831-2.363C517.989,48.296,517.377,48.061,516.766,47.902
	L516.766,47.902z M515.542,57.992v-0.158c0.087,0.079,0.176,0.158,0.263,0.236C515.718,58.07,515.629,57.992,515.542,57.992z
	 M519.127,52.555c0.437,0,0.962,0,1.399,0.077c0.262,0.079,0.438,0.236,0.698,0.315c0.525,0.394,1.05,0.787,1.487,1.261
	c0.438,0.237,0.7,0.552,0.962,0.866c-0.437,0.554-1.226,0.869-1.836,1.184c-0.525,0.236-1.05,0.475-1.662,0.631
	c-0.699,0.236-1.486,0.236-2.273,0.236h-0.523c-0.613-0.158-1.138-0.395-1.664-0.631c-0.086-0.078-0.086-0.236-0.086-0.314
	c0.086-0.552,0.263-1.104,0.524-1.656c0.263-0.709,0.961-1.183,1.573-1.654c0.351-0.236,0.7-0.395,1.048-0.473
	c0.09,0.078,0.176,0.078,0.351,0.158H519.127z"/>
<path d="M549.387,50.938c0-0.15-0.092-0.301-0.092-0.375c0-0.375-0.093-0.524-0.459-0.449c-0.093-0.225-0.275-0.225-0.552-0.15
	c-0.093-0.074-0.184,0-0.276,0v-0.074c-0.091-0.15-0.184-0.375-0.275-0.525c-0.183-0.373-0.46-0.748-0.734-1.049
	c-0.645-0.674-1.656-1.125-2.576-1.5c-0.093,0-0.093,0-0.182-0.073c-0.553-0.228-1.196-0.375-1.84-0.45
	c-1.381-0.299-3.128-0.225-4.322,0.3c-0.275,0.074-0.46,0.149-0.644,0.226c-0.184,0-0.368,0.074-0.552,0.149
	c-0.276,0.075-0.459,0.226-0.643,0.375c-1.105,0.749-2.116,1.574-3.22,2.397c-0.184,0.15-0.368,0.3-0.551,0.449
	c0.092-0.074,0.182-0.148,0.274-0.225c-0.274,0.301-0.643,0.523-0.918,0.749c-0.185,0.3-0.368,0.601-0.461,0.976
	c-0.459,0.823-0.367,1.799-0.367,2.623c0,1.123,0.367,2.323,0.644,3.447c0.644,2.249,1.746,4.348,3.493,6.221
	c0.552,0.602,1.381,0.899,2.209,1.125c0.366,0.076,0.643,0.076,1.012,0.076c0.459,0.148,0.919,0.148,1.379,0.148
	c0.553-0.075,1.012-0.148,1.472-0.45c0.553,0,1.104-0.149,1.563-0.448c0.459-0.301,0.919-0.676,1.288-1.051
	c0.367-0.523,0.734-1.049,1.011-1.572c0.185-0.301,0.276-0.676,0.46-1.051c0.553-1.425,1.012-2.848,1.471-4.347
	c0.185-0.45,0.368-0.899,0.553-1.274C549.111,52.66,549.756,52.811,549.387,50.938L549.387,50.938z M535.502,49.063
	c0,0.076-0.093,0.076-0.185,0.149C535.409,49.139,535.409,49.139,535.502,49.063z M543.502,54.535v0.225h-0.093
	c-0.275,0.299-0.552,0.6-0.735,0.899c-0.459,0.524-0.918,1.124-1.378,1.573c-0.645,0.675-1.196,1.125-2.024,1.574l-0.092-0.074
	c-0.46-0.301-0.826-0.752-1.104-1.199c-0.553-0.75-0.828-1.725-1.104-2.551c-0.367-0.897-0.459-1.873-0.55-2.771v-0.824
	c0-0.226,0.091-0.449,0.091-0.75c0-0.225,0.092-0.449,0.183-0.675c0.185-0.226,0.367-0.448,0.46-0.601
	c0.185,0,0.276,0.076,0.46,0.076c1.196,0.375,2.3,1.049,3.219,1.648c0.921,0.6,1.563,1.424,2.207,2.249
	C543.134,53.785,543.317,54.16,543.502,54.535L543.502,54.535z"/>
<path d="M140.978,58.422c0-0.132-0.103-0.264-0.103-0.396h4.332c0.31,0,0.516,0,0.723-0.065c-0.104-0.065-0.207-0.198-0.207-0.33
	c-0.207-0.133-0.309-0.265-0.413-0.464h0.104c0-0.064,0-0.132-0.104-0.132h0.31c0.206,0,0.516,0,0.722-0.065
	c-0.206-0.197-0.413-0.396-0.619-0.66V56.24c-0.103-0.065-0.207-0.131-0.207-0.264c0.207,0.065,0.31,0,0.516,0
	c-2.166-2.445-4.332-4.957-6.396-7.401c-1.96-2.248-3.61-4.562-5.261-6.873c0.207-0.066,0.516-0.134,0.722-0.198
	c0.825-0.066,0.722-0.066,1.651-0.331c0.413-0.065,0.825-0.132,1.237-0.196c0.928-0.199,1.651-0.463,2.477-0.729
	c-0.104-0.066-0.104-0.066-0.207-0.066c-0.207,0-0.517-0.064-0.825-0.064c0.309-0.066,0.515-0.133,0.722-0.198
	c0,0-0.825-0.065-1.341-0.133c0.619-0.134,1.238-0.33,1.857-0.595h-0.206c-0.413-0.066-0.723-0.066-1.135-0.066
	c0.206-0.132,0.516-0.197,0.722-0.264c0,0-0.413-0.066-0.929-0.066c0.31-0.066,0.516-0.197,0.722-0.264c0,0-0.31,0-0.619-0.066
	c0.309-0.066,0.515-0.199,0.825-0.265c0,0-1.96-0.197-1.651-0.134c-0.928-0.063-1.959-0.131-2.888-0.131
	c-0.516-0.065-1.032-0.065-1.547-0.065c-0.619,0.133-1.342,0.264-1.96,0.396c-0.309-0.461-0.515-0.857-0.825-1.255
	c-2.476-3.634-4.436-7.335-6.292-11.103c-0.619-1.388-1.238-2.709-1.754-4.031c-0.619-1.652-1.341-3.37-2.063-5.023
	c-0.618-1.52-1.34-3.04-2.063-4.56c-0.104-0.198-1.444-0.198-1.651-0.264c0.103,0-1.548-0.132-1.548-0.066v0.33
	c-0.103,0-0.103,0.066-0.103,0.066v0.793c-0.104,0-0.207,0-0.207,0.066v0.595c-0.413-0.066-0.825-0.132-1.238-0.199
	c-1.135-0.132-2.579-0.33-3.714-0.264c-0.826,0-1.65,0.066-2.476,0.264c-0.309,0.066-0.722,0.199-1.031,0.331
	c-1.548,0.462-2.477,1.454-3.302,2.313c0,0.066-0.103,0.132-0.103,0.198c-0.103-0.198-0.206-0.396-0.206-0.595
	c0-0.066-0.103-0.066-0.103-0.066c-0.103-0.331-0.206-0.661-0.31-0.925c0-0.199-2.477-0.132-2.477,0
	c-0.413,0.528-0.722,1.057-0.928,1.652c-0.207,0.396-0.309,0.793-0.413,1.189c-0.31,0.859-0.413,1.718-0.31,2.644
	c-0.103,0.595-0.207,1.189-0.31,1.784c-0.206,0.925-0.516,1.917-0.722,2.842c-0.619,1.784-1.238,3.568-1.96,5.287
	c-0.516,1.322-1.032,2.644-1.651,3.966c-0.515,1.322-1.134,2.578-1.753,3.898c-0.412,0.859-0.825,1.785-1.237,2.645h-0.207
	c0.309,0-1.341-0.066-0.929,0c0.412,0.132,0.722,0.199,1.032,0.265v0.065H90.94c0.207,0.066-1.444-0.065-0.928,0.066
	c0.413,0.064,0.722,0.133,0.928,0.197v0.066c-0.207,0-1.341-0.066-0.928,0c0.31,0.065,0.619,0.133,0.825,0.197v0.066h-0.722
	c-0.103,0-0.103,0.064,0,0.064c0.207,0.066,0.412,0.133,0.619,0.133v0.065c-0.309,0-1.341-0.065-0.928,0
	c0.309,0.134,0.619,0.198,0.825,0.265c0,0.065-0.104,0.133-0.104,0.198c-0.412,0-0.928,0-0.721,0.066
	c0.309,0,0.413,0.065,0.619,0.132v0.066h-0.516c-0.103,0-0.207,0.064,0,0.064c0.104,0.066,0.31,0.066,0.413,0.133
	c-0.722,1.586-1.341,3.174-1.96,4.76c-0.104,0.063-0.104,0.063-0.207,0.063c-0.309,0-0.722,0-1.032,0.067
	c0-0.067,0-0.067,0.104-0.133h-0.207c0.207-0.133,0.309-0.197,0.413-0.33c-0.104-0.066-0.206-0.066-0.413-0.066
	c-0.516,0-1.031-0.066-1.547-0.066c-0.413,0-1.547-0.132-1.96,0c-0.517,0.198-0.929,0.397-1.444,0.596
	c0.206,0.066,0.309,0.066,0.515,0.066v0.065c-0.206,0.065-0.413,0.132-0.619,0.265c0.104,0.065,0.31,0.065,0.413,0.065h0.104
	c-0.104,0.065-0.31,0.133-0.413,0.198c0.103,0.065,0.206,0.065,0.413,0.065h0.103c-0.103,0.065-0.206,0.132-0.413,0.132
	c0,0,0.207,0.066,0.413,0.066c-0.206,0.133-0.515,0.197-0.722,0.331c0.103,0,0.309,0.065,0.413,0.065c0.207,0,0.309,0,0.516,0.065
	c-0.309,0.065-0.516,0.198-0.826,0.265c0,0.065,0.207,0.065,0.517,0.133c-0.104,0-0.31,0.064-0.413,0.131
	c-0.104,0,1.547,0.199,1.238,0.199c0.928,0.065,1.96,0.198,2.889,0.264c0.412,0,0.824,0,1.237,0.066
	c-0.103,0.198-0.103,0.396-0.206,0.594c-0.516,1.455-0.825,2.908-1.238,4.363c-0.104,0.66-0.207,1.32-0.31,1.981
	c-0.413,0.991-0.826,2.05-1.134,3.04c0,0,0,0.066,0.103,0.066c-0.103,0.065-0.103,0.197-0.103,0.264c0,0,0,0.066,0.103,0.066
	c0,0.065-0.103,0.198-0.103,0.264c0,0,0,0.066,0.103,0.066c-0.103,0.133-0.103,0.33-0.207,0.463c0,0,0.104,0,0.207,0.065
	c0,0.132-0.103,0.265-0.103,0.462h0.103c0,0.066,0,0.198-0.103,0.331c0,0,0.515,0.065,0.825,0.065
	c0.103,0.33,0.207,0.66,0.309,0.927c0.104,0.462,0.207,0.925,0.413,1.319c0.104,0.597,0.412,1.125,0.722,1.653
	c0,0.198,1.341,0.065,1.444,0.065c0.104,0,1.342,0,1.444-0.133c0.825-1.188,1.342-2.379,1.651-3.635c0.31,0,0.517,0.065,0.826,0.065
	h0.516c0.206-0.065,0.309-0.132,0.516-0.198l0.31-0.197c0-0.33,0-0.596,0.103-0.858c0-0.066,0.103-0.134,0.207-0.134v-0.727
	c0-0.066,0.103-0.066,0.103-0.133v-0.132c0.207-0.528,0.31-0.99,0.413-1.453c0.619-1.587,1.342-3.173,2.27-4.693
	c0.826-1.651,1.96-3.37,3.095-5.021h0.722c1.031,0.064,1.96,0.064,2.888,0c1.135-0.067,2.167-0.198,3.198-0.33
	c2.063-0.266,4.023-0.729,5.983-1.124c4.642-1.058,9.181-2.313,13.72-3.636c3.507,5.552,6.809,11.104,10.11,16.588v0.066
	l0.103,0.065c0.104,0.065,0.104,0.133,0.104,0.196l-0.104,0.067c0.104,0.065,0.206,0.132,0.31,0.198c0,0.064,0,0.132,0.103,0.197
	c0.104,0.133,2.167,0.133,2.27,0.133c-0.103,0,2.27,0.064,2.27,0c-0.103-0.33-0.207-0.66-0.309-0.991h0.619
	C141.492,59.744,141.287,59.083,140.978,58.422L140.978,58.422z M116.012,17.58c0.31,1.322,0.825,2.577,1.444,3.899
	c0.413,1.255,0.928,2.511,1.444,3.767c-2.27-3.041-4.539-6.014-6.912-9.054c0.516-0.132,1.031-0.265,1.547-0.331
	c0.413,0.132,0.929,0.198,1.341,0.265c0.309,0.066,0.619,0.132,0.928,0.198C115.805,16.721,115.909,17.184,116.012,17.58
	L116.012,17.58z M113.846,25.246c1.031,1.454,1.959,2.908,2.888,4.295c1.65,2.445,3.301,4.824,4.849,7.204
	c-0.207,0.065-0.516,0.065-0.723,0.132c-1.959,0.396-3.92,0.925-5.88,1.389c-3.301,0.858-6.499,1.717-9.903,2.444
	c0.207-0.265,0.31-0.463,0.413-0.728c0.413-0.793,0.826-1.586,1.238-2.313c0.928-1.652,1.547-3.305,1.96-5.022
	c0.309-0.926,0.516-1.917,0.722-2.908c0.412-1.983,0.619-3.965,0.825-5.948c0-0.859,0.104-1.784,0.104-2.644v-0.859
	C111.472,21.941,112.608,23.593,113.846,25.246L113.846,25.246z M113.433,13.813c0.206,0.066,0.516,0.132,0.722,0.198l-0.103-0.066
	c-0.31,0-0.619-0.066-0.929-0.066C113.228,13.879,113.329,13.813,113.433,13.813z M113.329,14.474c0.104,0,0.207,0.065,0.31,0.065
	c-0.104,0-0.31,0-0.413-0.065H113.329L113.329,14.474z M112.711,15.068c0.104,0,0.207,0,0.413-0.066
	c0.619,0.132,1.342,0.331,1.96,0.462c0.207,0,0.413,0.066,0.516,0.066c0.104,0,0.104,0,0.104,0.066
	c-0.517-0.132-1.032-0.198-1.548-0.264c-0.619-0.066-1.135-0.132-1.65-0.198h-0.104C112.505,15.134,112.608,15.068,112.711,15.068z"
	/>
<g>
	<path d="M-3.219,38.752c-1.48-1.123-2.854-2.307-4.186-3.515c-1.483-2.059-3.678-4.006-6.12-5.807
		c-2.453-2.334-4.993-4.618-7.956-6.652c-0.959-0.659-2.128-0.609-3.004-0.218c-1.184-0.465-2.508-0.147-3.274,0.458
		c-1.849,0.309-2.884,2.333-0.768,3.259c7.41,3.242,11.659,9.428,17.123,14.189c-2.095,2.13-4.218,4.264-6.453,6.332
		c-3.208,1.878-6.717,3.563-10.305,5.053c-1.824,0.757-1.354,2.324-0.03,2.982c-0.753,0.469-1.508,0.938-2.302,1.378
		c-2.528,1.404,1.036,3.87,3.535,2.481c4.417-2.452,8.203-5.374,11.681-8.485c1.172-0.618,2.315-1.271,3.382-1.955
		c3.748-1.984,7.15-4.193,9.068-7.374C-2.368,40.115-2.376,39.391-3.219,38.752z"/>
	<path d="M-28.873,49.415c2.545-2.093,4.065-5.033,7.265-6.697c0.779-0.405,1.086-0.97,1.069-1.52
		c0.058-0.4-0.094-0.799-0.519-1.124c-0.347-0.357-0.84-0.616-1.412-0.692c-1.68-0.906-2.531-2.663-3.467-3.922
		c-1.461-1.964-3.307-3.819-5.136-5.622c-3.051-3.007-6.711-5.561-10.988-7.702c-2.631-1.317-5.125,1.729-2.523,3.031
		c0.611,0.306,1.203,0.624,1.776,0.952c-0.581,0.499-0.821,1.197-0.299,1.929c0.188,0.263,0.394,0.517,0.587,0.777
		c0.06,0.336,0.28,0.675,0.717,0.982c0.021,0.015,0.04,0.031,0.061,0.046c3.356,4.273,7.479,8.184,11.471,12.174
		c-2.116,1.746-3.496,4.112-5.166,5.941c-2.782,3.049-6.979,4.235-7.646,8.21c-0.362,2.156,4.227,2.212,4.923,0.248
		c0.087-0.056,0.175-0.107,0.258-0.177C-35.05,53.865-31.747,51.777-28.873,49.415z"/>
</g>
</svg>
