<svg width="250mm" height="25.783mm" version="1.1" viewBox="0 0 250 25.783" xmlns="http://www.w3.org/2000/svg">
 <g>
  <path d="m63.58 20.83c0.41727-0.29454 0.7609-0.68726 1.08-1.08 0.19636-0.29454 0.34363-0.58908 0.4909-0.90817 0.12273-0.34363 0.22091-0.68726 0.27-1.0554 0.04909-0.12272 0.04909-0.29454 0.04909-0.44181 0.07364-0.39272 0.04909-0.80999 0-1.2027 0-0.27-0.07363-0.51545-0.14727-0.7609-0.04909-0.22091-0.12273-0.41727-0.19636-0.63817-0.12272-0.31908-0.34363-0.61363-0.53999-0.88362-0.19636-0.26999-0.4909-0.44181-0.78544-0.61363-0.02455 0-0.04909-0.02455-0.07364-0.02455-0.04909-0.07364-0.12272-0.14727-0.17182-0.24545-0.19636-0.24545-0.46636-0.44181-0.71181-0.66272-0.46636-0.36818-0.9818-0.61363-1.4972-0.88362-0.19636-0.09818-0.39272-0.17182-0.58908-0.22091 0.31908-0.12273 0.61363-0.24545 0.90817-0.39272 0.29454-0.12273 0.58908-0.27 0.85908-0.46636 0.2209-0.19636 0.44181-0.41726 0.63817-0.63817 0-0.02455-0.04909-0.04909-0.12272-0.07364 0.02455-0.02454 0.02455-0.04909 0.04909-0.04909 0-0.02455-0.02454-0.02455-0.07364-0.04909 0.07364-0.073635 0.12273-0.14727 0.17182-0.22091 0.17182-0.12272 0.34363-0.26999 0.51545-0.41727 0.36818-0.34363 0.71181-0.73635 1.0063-1.1291 0.14727-0.098181 0.27-0.17182 0.39272-0.24545 0.19636-0.12273 0.39272-0.24545 0.56454-0.39272 0.14727-0.14727 0.29454-0.29454 0.41727-0.46636 0.12273-0.14727 0.2209-0.31909 0.27-0.4909 0.07364-0.14727 0.09818-0.31909 0.07364-0.4909v-0.12272c0-0.024545 0-0.04909 0.02455-0.098181 0-0.26999 0-0.19636-0.04909-0.46636 0.02454-0.31908-0.17182-0.61362-0.34363-0.85907-0.12272-0.14727-0.24545-0.27-0.41727-0.36818 0-0.024545-0.02455-0.04909-0.02455-0.024545v-0.04909c0.02455 0.024545 0.02455-0.024545 0-0.073636h0.17181c0.02455 0-0.02455-0.098181-0.07363-0.19636 0 0 0-0.04909-0.02455-0.098181h0.07363c0.04909 0.024545-0.02454-0.12272-0.04909-0.12272-0.76089-0.22091-1.4972-0.29454-2.2827-0.29454-0.34363 0-0.68726 0-1.0309 0.04909-0.27 0.024545-0.53999 0.04909-0.78544 0.098181h-0.02455c-0.41727-0.024545-0.83453-0.04909-1.2518-0.04909-0.71181 0-1.4236 0.073636-2.1354 0.17182-1.0309 0.12273-2.0372 0.29454-3.0681 0.46636-1.0063 0.19636-1.9882 0.44181-2.97 0.73635-0.31909 0.12273-0.63817 0.22091-0.95726 0.34363-0.58908 0.14727-1.08 0.44181-1.4972 0.88362v0.024545c-0.02454 0.024545-0.04909 0.04909-0.07363 0.073636v0.024545c-0.02455 0-0.02455 0.024545-0.04909 0.024545v0.024545 0.024545c-0.02454 0 0 0 0 0.024545-0.04909 0.024545-0.07363 0.073636-0.12272 0.098181 0 0 0 0.024545 0.02455 0.024545-0.02455 0.024545-0.04909 0.04909-0.07364 0.04909v0.04909s-0.02455 0-0.02455 0.024545c-0.02454 0 0.27 0.29454 0.27 0.26999 0 0.024545 0.24545 0.29454 0.29454 0.27 0.31909-0.12272 0.66272-0.22091 0.9818-0.34363 0.29454-0.098181 0.58908-0.19636 0.88362-0.29454l0.02454 0.024545c-0.02454 0-0.02454 0.024545-0.04909 0.024545 0 0 0.24545 0.27 0.31908 0.27 0.27-0.024545 0.53999-0.073636 0.83453-0.098181 0.51545-0.12272 1.0554-0.24545 1.5709-0.39272 0.31908-0.098181 0.63817-0.19636 0.95726-0.27 0.02454 0.024545 0.04909 0.024545 0.02454 0.024545 0.07364 0.024545 0.19636 0.14727 0.27 0.12272 0.93271-0.2209 1.89-0.44181 2.8472-0.63817 0.63817-0.12273 1.2763-0.22091 1.9145-0.29454 0.63817-0.04909 1.2763-0.073636 1.9145-0.04909 0.71181 0 1.4236 0.073636 2.0618 0.36818 0.04909 0.04909 0.07364 0.098181 0.09818 0.17182-0.12272 0.12272-0.24545 0.22091-0.34363 0.31909-0.56454 0.51545-1.1536 0.9818-1.7672 1.4236-1.1536 0.41727-2.2581 0.95726-3.3872 1.4236-0.61363 0.27-1.2273 0.51545-1.8654 0.7609-0.61363 0.24545-1.2273 0.46636-1.8654 0.68726-0.31908 0.09818-0.63817 0.2209-0.95726 0.31909-0.09818-0.58908-0.2209-1.1536-0.39272-1.7182 0.02455 0.024545 0.07364 0.073636 0.09818 0.073636 0.04909-0.024545 0-0.04909 0-0.073636-0.02455 0-0.02455-0.024545-0.04909-0.04909 0.02454 0 0.02454-0.024545 0-0.024545 0-0.024545-0.02455-0.04909-0.02455-0.073636 0.02455 0 0.02455-0.024545 0-0.04909s-0.07364-0.12272-0.09818-0.19636c0.02454 0.024545 0.04909 0.04909 0.07363 0.098181 0.02455 0 0.04909 0.024545 0.07364 0.024545s0.02455-0.024545 0-0.04909c-0.07364-0.17182-0.14727-0.34363-0.22091-0.51545-0.04909-0.04909-0.07363-0.073636-0.12272-0.12272h-0.02455c-0.02454-0.073636-0.04909-0.14727-0.07363-0.19636 0-0.04909-0.07364-0.098181-0.12273-0.12272 0.02454 0-0.07364-0.073636-0.04909-0.024545 0 0.04909 0 0.098181 0.02455 0.14727-0.02455-0.024545-0.02455-0.024545-0.04909-0.04909 0 0.024545-0.09818-0.04909-0.07364 0v0.04909c-0.02455-0.024545-0.04909-0.04909-0.04909-0.024545v0.024545c-0.02455-0.024545-0.04909-0.024545-0.02455 0 0 0.04909 0.02455 0.098181 0.02455 0.14727-0.07364-0.024545-0.19636-0.04909-0.19636-0.04909v0.073636c-0.02455 0-0.02455 0-0.02455 0.024545 0.02455 0 0.02455 0.024545 0.02455 0.024545-0.02455 0-0.04909-0.024545-0.04909 0v0.024545 0.27 0.024545h-0.04909v0.14727c-0.02455 0-0.02455 0-0.02455 0.024545v0.073636h-0.02455v0.098181c-0.04909-0.17182-0.07364-0.36818-0.09818-0.56454v-0.27c0-0.12272 0-0.12272-0.07364-0.17182 0-0.073636 0-0.14727 0.02454-0.19636 0-0.14727 0.02455-0.098181-0.07364-0.19636-0.02455-0.024545-0.07364-0.04909-0.09818-0.04909-0.12273 0.04909-0.24545 0.098181-0.36818 0.14727-0.19636 0.073636-0.31909 0.19636-0.36818 0.36818 0 0.024545-0.02454 0.073636-0.02454 0.098181-0.09818 0.19636-0.07364 0.46636 0.07364 0.83453v0.04909c0.02454 0.19636 0.02454 0.39272 0.07363 0.58908 0 0.14727 0 0.31909 0.02455 0.4909 0 0.073636 0 0.14727 0.02455 0.24545v0.02454c0 0.17182 0.02454 0.34363 0.04909 0.53999v0.14727c0.02454 0.07364 0.02454 0.14727 0.02454 0.22091 0.07364 0.51545 0.14727 1.0309 0.22091 1.5218-0.46636 0.17181-0.93271 0.34363-1.3991 0.53999-0.83453 0.36818-1.6445 0.80999-2.3809 1.3745-0.02454 0 0.02455 0.02454 0.04909 0.04909-0.02454 0.02454-0.07363 0.04909-0.09818 0.07364-0.02455 0 0.02455 0.02454 0.04909 0.04909-0.02454 0.02454-0.04909 0.02454-0.07364 0.04909 0 0 0.02455 0.02455 0.07364 0.04909l-0.04909 0.04909 0.02455 0.02454c-0.04909 0.02455-0.07364 0.04909-0.12272 0.07364 0 0 0.04909 0.02454 0.09818 0.04909-0.02455 0.04909-0.07364 0.07364-0.09818 0.09818-0.02454 0 0.02455 0.02455 0.04909 0.04909l-0.04909 0.04909c0.02455 0.02454 0.04909 0.04909 0.07364 0.07364 0.14727 0.04909 0.27 0.09818 0.39272 0.17182 0.12272 0.04909 0.24545 0.09818 0.39272 0.14727 0.02455 0.02454 0.07364 0.02454 0.09818 0.02454 0.9818-0.24545 1.9145-0.53999 2.8472-0.90817 0.07364-0.02454 0.14727-0.04909 0.22091-0.07363 0.02455 0.31909 0.07364 0.63817 0.12273 0.95726 0.12272 1.1782 0.41727 2.3072 0.68726 3.4363 0.04909 0.22091 0.07363 0.53999 0.17182 0.78544 0.02455 0.09818 0.04909 0.17182 0.09818 0.24545 0.02454 0.07363 0.04909 0.12273 0.07363 0.19636 0.02455 0.24545 0.04909 0.51545 0.07364 0.78544 0.02455 0.12273 0.04909 0.27 0.04909 0.41727 0 0.02454 0 0.02454 0.02455 0.04909v0.12272c0 0.02454 0.02455 0.07364 0.02455 0.09818v0.02454c0 0.04909 0.02454 0.09818 0.02454 0.14727 0 0.02454 0.02455 0.04909 0.02455 0.09818h-0.24545c-0.04909 0 0 0.07364 0.02455 0.07364 0.07364 0.02454 0.14727 0.02454 0.24545 0.02454v0.02454c-0.12272 0-0.2209 0.02454-0.34363 0-0.02454 0-0.02454 0.02454 0 0.04909h-0.09818c-0.02455-0.02454-0.04909 0.02454-0.02455 0.02454 0.02455 0.02455 0.07364 0.04909 0.09818 0.07364 0.04909 0 0.09818 0.02454 0.14727 0.02454h-0.14727c-0.02455-0.02454-0.04909 0.02454-0.02455 0.02454 0.02455 0.04909 0.07364 0.07364 0.12272 0.07364-0.07363 0-0.17182-0.02454-0.24545-0.02454-0.02454 0-0.04909 0.02454-0.02454 0.02454 0.02454 0.04909 0.07364 0.07364 0.09818 0.07364 0.12273 0.02454 0.22091 0.04909 0.31909 0.07363h-0.36818c-0.04909-0.02454-0.04909 0-0.02454 0.02454 0.02454 0.02455 0.04909 0.04909 0.09818 0.07364-0.02455-0.02454-0.04909-0.02454-0.07364-0.02454-0.02454 0-0.04909 0.02454-0.02454 0.04909 0.02454 0.02454 0.09818 0.04909 0.14727 0.07364-0.22091 0.07363-0.44181 0.14727-0.68726 0.2209-0.66272 0.17182-1.35 0.17182-2.0127 0.07364-0.07364-0.07364-0.12273-0.14727-0.19636-0.22091 0-0.04909-0.2209-0.12272-0.2209-0.07363-0.02455 0.07363-0.02455 0.07363-0.02455 0.09818l-0.02455 0.02454c-0.02455 0.07363-0.02455 0.09818-0.02455 0.12273-0.02454 0.07363-0.02454 0.07363-0.02454 0.12272v0.04909h-0.04909v0.07364c-0.07364-0.02455-0.14727-0.04909-0.22091-0.07364-0.17182-0.07364-0.36818-0.14727-0.53999-0.17182h-0.14727c-0.22091-0.07364-0.46636-0.12273-0.68726-0.17182-0.09818 0-0.17182-0.02454-0.27-0.02454-0.24545-0.02454-0.46636-0.07363-0.71181-0.07363-0.12272 0-0.17182 0.04909-0.27 0.12273-0.04909 0.04909-0.07364 0.12272-0.09818 0.17182-0.0491 0.07365-0.0491 0.19637-0.0491 0.29455-0.09818 0.12272-0.04909 0.31908-0.04909 0.46636 0 0.02454 0.02454 0.07364 0.02454 0.12273v0.12273c0.07364 0.44181 0.31908 0.61362 0.63817 0.90817 0.04909 0.02455 0.07364 0.04909 0.09818 0.04909 0.19636 0.09818 0.39272 0.19636 0.56454 0.29454l0.34363 0.14727c0.09818 0.07364 0.22091 0.12272 0.34363 0.17182 0.34363 0.04909 0.63817 0.02455 0.9818-0.04909 0.2209-0.04909 0.41727-0.14727 0.63817-0.22091 0.04909-0.04909 0.09818-0.07364 0.14727-0.09818 0.09818-0.04909 0.14727-0.12272 0.14727-0.22091 0 0-0.02455-0.02454-0.04909-0.02454 0.31908-0.02455 0.63817-0.09818 0.95726-0.17182 0.12273-0.02454 0.24545-0.04909 0.39272-0.09818 0.22091 0 0.41727-0.02455 0.63817-0.07364 0.24545-0.02454 0.4909-0.09818 0.73635-0.14727 0.90817-0.22091 1.8163-0.46636 2.7245-0.71181 1.1782-0.31908 2.3318-0.71181 3.4363-1.2273l-0.07363 0.07363c-0.02455 0.02455 0.04909 0.02455 0.09818 0.02455-0.02455 0.02454-0.07364 0.07363-0.12272 0.09818 0 0.02455 0.07363 0.02455 0.12272 0.02455-0.02455 0.04909-0.07364 0.07363-0.09818 0.09818-0.02455 0 0.12272 0.02455 0.17182 0.02455-0.04909 0.02454-0.07364 0.07363-0.12272 0.09818v0.02455c-0.02455 0-0.04909 0.02454-0.07364 0.04909-0.02455 0.02454 0.19636 0.02454 0.19636 0.02454h0.02455c-0.07364 0.04909-0.12273 0.12272-0.19636 0.17182 0 0 0.07363 0 0.14727 0.02455-0.04909 0.02454-0.07364 0.04909-0.12272 0.07363 0 0.02454 0.22091 0.04909 0.22091 0.04909h0.34363c0.04909 0 0.12273 0 0.17182-0.02455 0.9818-0.61363 1.9636-1.2273 2.8963-1.9391zm1.0554-16.372v0.024545-0.024545zm-0.02455 0.27c0.02455 0.024545 0.04909 0.04909 0.04909 0.073636 0.02455 0.024545 0.02455 0.04909 0.02455 0.04909-0.07364-0.04909-0.14727-0.12272-0.22091-0.17182 0.04909 0.024545 0.09818 0.04909 0.14727 0.049089zm-14.531 18.163h0.02454-0.02454zm12.592-9.548c0.12272 0.14727 0.2209 0.31908 0.29454 0.4909-0.22091-0.24545-0.46636-0.46636-0.71181-0.66272-0.14727-0.12273-0.31909-0.24545-0.4909-0.34363 0.31909 0.14727 0.61363 0.31909 0.90817 0.51545zm-0.31909-0.44181c0.07364 0.04909 0.14727 0.09818 0.22091 0.14727 0.04909 0.07363 0.09818 0.12273 0.14727 0.19636-0.12272-0.12272-0.24545-0.22091-0.36818-0.34363zm0.44181-0.17182c0.04909 0.07364 0.09818 0.14727 0.17182 0.22091-0.09818-0.09818-0.19636-0.17182-0.29454-0.24545-0.02455-0.02454-0.07364-0.04909-0.09818-0.09818-0.02455-0.02454-0.04909-0.02454-0.07364-0.04909 0.09818 0.04909 0.19636 0.12272 0.29454 0.17182zm-7.8544 8.0017c-0.02455-0.22091-0.04909-0.41727-0.07364-0.63817 0-0.04909-0.02454-0.12273-0.02454-0.17182 0.17182-0.02454 0.29454-0.02454 0.29454-0.02454-0.02455-0.12273-0.02455-0.24545-0.04909-0.34363h0.09818c0.12273 0.29454 0.27 0.58908 0.41727 0.90817 0 0.04909 0.27-0.02454 0.27-0.07364-0.02455-0.09818-0.04909-0.19636-0.04909-0.31909 0.04909 0 0.07364-0.02454 0.07364-0.04909-0.14727-1.08-0.31909-2.16-0.51545-3.2399-0.19636-1.0554-0.39272-2.1109-0.61363-3.1663-0.02455-0.12273-0.04909-0.24545-0.07364-0.34363 0.04909-0.02454 0.09818-0.02454 0.14727-0.04909 0.12272-0.04909 0.27-0.09818 0.41726-0.12272h0.04909c0.19636-0.09818 0.39272-0.14727 0.61363-0.19636 0.24545-0.04909 0.4909-0.04909 0.73635-0.04909 0.73635-0.04909 1.5218 0.14727 2.2336 0.29454 0.56454 0.12273 1.1291 0.27 1.6691 0.41727 0.31909 0.09818 0.61363 0.19636 0.93271 0.31909 0.19636 0.07363 0.36818 0.14727 0.53999 0.27 0.17182 0.14727 0.31908 0.29454 0.46636 0.46636 0.07364 0.12272 0.17182 0.22091 0.24545 0.34363 0.04909 0.07364 0.07364 0.14727 0.12272 0.24545 0.02455 0.04909 0.04909 0.09818 0.07363 0.14727-0.02455 0.07364-0.04909 0.12273-0.07363 0.19636-0.07364 0.17182-0.19636 0.34363-0.31909 0.51545 0 0.02454-0.02455 0.04909-0.04909 0.07363-0.04909-0.07363-0.12272-0.09818-0.19636-0.12273 0 0-0.09818-0.07363-0.09818-0.02454 0.02455 0.04909 0.04909 0.09818 0.07364 0.14727-0.02455 0-0.02455-0.02454-0.04909-0.02454 0 0-0.12273-0.07364-0.09818 0 0.02455 0.02454 0.02455 0.02454 0.02455 0.04909-0.02455 0-0.04909-0.02454-0.04909 0.02455 0 0.02454 0.02455 0.02454 0.02455 0.04909-0.02455 0-0.04909 0-0.02455 0.02454 0.02455 0.04909 0.04909 0.09818 0.07364 0.14727-0.02455 0-0.04909-0.02454-0.07364-0.02454 0 0-0.14727-0.09818-0.12272-0.02454 0.02455 0.04909 0.02455 0.07363 0.04909 0.12272-0.04909-0.02455-0.09818-0.04909-0.07364 0 0 0.02454 0.02455 0.04909 0.02455 0.07363-0.02455-0.02454-0.04909-0.02454-0.04909 0 0.04909 0.09818 0.09818 0.19636 0.12272 0.27-0.22091 0.31909-0.44181 0.61363-0.71181 0.90817-0.04909 0.07363-0.12273 0.12272-0.17182 0.19636-0.27 0.22091-0.51545 0.44181-0.78544 0.66272-0.44181 0.36818-0.93271 0.71181-1.4236 1.0309-0.17182 0.07363-0.31909 0.17182-0.46636 0.24545-0.02455 0 0 0.02455 0 0.04909-0.09818 0.04909-0.17182 0.09818-0.27 0.17182-0.09818-0.04909-0.22091-0.09818-0.19636-0.09818-0.07364 0-0.29454-0.12272-0.36818-0.07363-0.39272 0.19636-0.7609 0.41727-1.1291 0.63817-0.19636 0.09818-0.36818 0.2209-0.53999 0.31909h-0.02455c-0.22091 0.07364-0.46636 0.14727-0.71181 0.22091-0.09818 0.02454-0.22091 0.07363-0.31908 0.09818 0-0.04909 0.02455-0.09818 0.02455-0.17182 0-0.09818-0.02455-0.19636-0.02455-0.29454zm5.4981-8.3208c-0.02454-0.02454-0.07363-0.04909-0.09818-0.04909h0.02455c0.02455 0.02455 0.04909 0.02455 0.07363 0.04909zm-0.93271-0.24545c0.09818 0.04909 0.22091 0.09818 0.31909 0.14727-0.02455 0-0.02455 0-0.04909 0.02454-0.09818-0.04909-0.2209-0.07363-0.31908-0.07363-0.09818-0.04909-0.19636-0.09818-0.29454-0.14727 0.09818 0.02454 0.2209 0.04909 0.34363 0.04909zm0.66272 0.19636c-0.04909 0-0.12273-0.02455-0.17182-0.02455-0.09818-0.04909-0.17182-0.07363-0.27-0.12272 0.09818 0.02454 0.17181 0.04909 0.27 0.04909 0.04909 0.04909 0.12272 0.07364 0.17182 0.09818zm-1.2027-0.27c0 0.02454 0.02455 0.02454 0.02455 0.02454 0.07363 0.02454 0.12272 0.04909 0.19636 0.07363h-0.12272c0-0.02454-0.02454-0.02454-0.02454-0.02454-0.02455 0-0.14727-0.07363-0.17182-0.04909v0.02454c-0.04909 0-0.12272-0.02454-0.19636-0.02454-0.02454-0.02454-0.04909-0.02454-0.07363-0.02454h0.19636 0.17181zm-5.449-0.44181-0.02455-0.02454h0.04909c-0.02455 0-0.02455 0.02454-0.02455 0.02454zm8.0508 1.2027c-0.17182-0.09818-0.36818-0.22091-0.56454-0.31909 0.07364 0.02454 0.12273 0.02454 0.17182 0.04909 0.12273 0.09818 0.27 0.17182 0.39272 0.27zm1.4972 0.07364c0.02455 0.02454 0.04909 0.04909 0.04909 0.07364 0-0.02455-0.02455-0.04909-0.04909-0.07364zm-0.12273 0.31909c0.04909 0.07364 0.07364 0.12272 0.12273 0.19636l-0.31908-0.31908c0.07364 0.04909 0.12272 0.07364 0.19636 0.12273zm-12.714 9.5971c-0.04909-0.02455-0.09818-0.02455-0.14727-0.04909v-0.02454c0.04909 0.02454 0.09818 0.04909 0.14727 0.07364zm14.236-7.1426c0 0.04909 0.02455 0.09818 0.02455 0.14727-0.02455 0.09818-0.02455 0.19636-0.02455 0.27 0 0.17182-0.02455 0.34363-0.07364 0.51545-0.02455 0.14727-0.07364 0.29454-0.12273 0.44181 0.02455-0.04909 0.02455-0.09818 0.02455-0.12272v-0.2209c0.07364-0.36818 0.09818-0.73635 0.09818-1.1045v-0.29454c0.02455 0.02455 0.02455 0.04909 0.02455 0.07364 0.02454 0.09818 0.04909 0.19636 0.04909 0.29454zm-1.4482-3.1418c0.09818 0.09818 0.19636 0.22091 0.27 0.31909-0.14727-0.14727-0.34363-0.29454-0.51545-0.44181-0.17182-0.14727-0.36818-0.29454-0.56454-0.39272 0.27 0.14727 0.53999 0.31909 0.80999 0.51545zm2.8472-7.5599c0 0.073636-0.02455 0.14727-0.07364 0.22091-0.02455 0.04909-0.04909 0.098181-0.07363 0.12272v0.024545c-0.02455-0.073636-0.04909-0.14727-0.07364-0.19636 0-0.024545-0.02454-0.073636-0.04909-0.098181 0-0.12272-0.02455-0.24545-0.07364-0.31909-0.02454-0.04909-0.04909-0.073636-0.07363-0.12273 0.14727 0.04909 0.29454 0.12273 0.41727 0.19636v0.17182zm0.17182-0.73635c0.02455 0.04909 0.04909 0.098181 0.04909 0.14727-0.02455-0.073636-0.07364-0.12272-0.12273-0.19636 0 0-0.02455-0.024545-0.02455-0.04909 0.02455 0.024545 0.07364 0.073636 0.09818 0.098181zm-0.07363 0.24545c0.02454 0.024545 0.04909 0.073635 0.04909 0.098181v0.04909c-0.02455-0.04909-0.04909-0.073636-0.07364-0.12272-0.02455-0.024545-0.04909-0.073636-0.09818-0.12273 0.04909 0.024545 0.09818 0.073636 0.12272 0.098181zm-1.5218 0.27c0.02455 0.024545 0.02455 0.024545 0.04909 0.04909l0.02455 0.024545c-0.02455-0.024545-0.04909-0.04909-0.07363-0.073636zm-13.402 17.82c-0.07364-0.02454-0.17182-0.02454-0.24545-0.02454-0.02455-0.02455-0.02455-0.04909-0.04909-0.07364 0.09818 0.04909 0.19636 0.07364 0.29454 0.09818zm-0.2209 0.29454c0-0.02454-0.02454-0.02454-0.04909-0.02454 0 0-0.02455-0.02454-0.04909-0.02454 0.02454 0.02454 0.07364 0.02454 0.09818 0.04909zm-0.56454-0.19636v0.04909c-0.07364-0.02454-0.12272-0.04909-0.19636-0.04909 0-0.02455 0-0.04909-0.02455-0.07364 0.07364 0.02454 0.14727 0.04909 0.2209 0.07364zm-1.62 1.0554v-0.04909c0.07364 0.02454 0.14727 0.04909 0.19636 0.07363h0.02455-0.02455c-0.07363 0-0.12272 0-0.19636-0.02454z"/>
  <path d="m60.168 22.794z"/>
  <path d="m60.094 22.475h-0.02455 0.02455z"/>
  <path d="m95.022 5.7842z"/>
  <path d="m92.273 21.542v-0.02455-0.17182c0.02455 0.02454 0.04909 0.02454 0.04909 0.02454v-0.19636c0.02455-0.46636 0.02455-0.93271 0.04909-1.3991 0-1.0554 0-2.1354 0.02454-3.1909 0-0.36818 0-0.7609 0.02455-1.1291 0.02455-0.56454 0.07364-1.1045 0.09818-1.6445 0.02455-0.44181 0.04909-0.85908 0.04909-1.3009 0.02455-0.51545 0.02455-1.0309 0-1.5463 0-0.56454-0.07363-1.1045-0.17182-1.6445-0.09818-0.53999-0.24545-1.0554-0.41726-1.5709v-0.024545-0.22091c0-0.04909 0-0.098181 0.02455-0.14727 0.02455-0.098181 0-0.22091 0-0.34363h0.44181c0.58908-0.024545 1.2027 0.024545 1.7918 0.12273 0.12272 0.024545 0.24545 0.04909 0.36817 0.073636 0.19636 0.073636 0.39272 0.14727 0.58908 0.24545 0.02455 0.024545 0.07363 0.04909 0.09818 0.073636 0.02455 0.024545 0.07364 0.04909 0.12272 0.04909-0.02455-0.024545-0.04909-0.073636-0.09818-0.098181-0.07363-0.04909-0.14727-0.098181-0.2209-0.17182v0.024545c0.04909 0.024545 0.07363 0.04909 0.12273 0.073636 0.02455 0.024545 0.07364 0.04909 0.09818 0.04909 0-0.04909-0.02455-0.073636-0.07364-0.098181-0.12272-0.098181-0.27-0.22091-0.39272-0.31909 0.09818 0.024545 0.19636 0.098181 0.27 0.14727 0.12272 0.073636 0.14727 0.04909 0.04909-0.024545-0.09818-0.073636-0.19636-0.17182-0.27-0.24545 0.09818 0.04909 0.19636 0.098181 0.31909 0.14727 0.02455 0.024545 0.04909 0.04909 0.09818 0.073636 0.02455 0.024545 0.04909 0.04909 0.09818 0.04909-0.02455-0.04909-0.04909-0.073636-0.07364-0.098181-0.04909-0.024545-0.09818-0.073636-0.14727-0.098181 0.09818 0.04909 0.09818 0.024545 0.02455-0.04909-0.04909-0.04909-0.12273-0.098181-0.17182-0.14727 0.02455 0.024545 0.07364 0.024545 0.09818 0.04909 0.07364 0.073635 0.09818 0.04909 0.02455-0.024545-0.09818-0.098181-0.22091-0.19636-0.34363-0.29454 0.12273 0.04909 0.24545 0.12272 0.36818 0.19636 0.07363 0.04909 0.09818 0.024545 0.02455-0.04909-0.17182-0.12272-0.34364-0.26999-0.51545-0.39271-0.17182-0.098181-0.31909-0.22091-0.4909-0.31909 0.04909 0.024545 0.09818 0.024545 0.17182 0.024545 0.24545 0.098181 0.51545 0.12273 0.80999 0.073636 0 0-0.04909-0.073636-0.09818-0.12272h0.02455c0.02455 0-0.09818-0.12273-0.09818-0.14727l-0.02455-0.024545h0.07364c0.02454 0 0-0.024545-0.02455-0.073636h0.19636c0.02455 0.024545-0.07364-0.098181-0.09818-0.12273 0.02455-0.024545-0.04909-0.098181-0.04909-0.098181h0.02455c0.04909 0-0.04909-0.12273-0.04909-0.098181 0-0.024545-0.02455-0.024545-0.02455-0.04909 0.04909 0.024545 0.07364 0.024545 0.12273 0.024545 0.07364 0.024545-0.02455-0.098181-0.02455-0.073636-0.04909-0.073636-0.12272-0.14727-0.19636-0.19636-0.41727-0.19636-0.85908-0.36818-1.3009-0.46636-0.27-0.098181-0.95726-0.098181-1.2273-0.098181-0.61363-0.024545-1.2273 0.024545-1.8409 0.098181-0.58908 0.04909-1.1536 0.098181-1.7427 0.19636-1.0063 0.14727-1.9882 0.29454-2.9945 0.41727-0.17182 0.024545-0.36818 0.024545-0.56454 0.04909-0.07363-0.27-0.14727-0.53999-0.22091-0.80999-0.02455-0.04909-0.44181-0.024545-0.44181-0.024545s-0.46636-0.024545-0.46636 0.024545v0.12273h-0.02455v0.31909c0 0.14727-0.02455 0.31909-0.02455 0.46636-0.07363 0-0.17182 0.024545-0.24545 0.024545-0.56454 0.024545-1.1291-0.04909-1.6936-0.098181-0.07364 0 0.02455 0.098181 0.02455 0.098181s0.02455 0 0.02455 0.024545c-0.04909 0-0.09818-0.024545-0.14727-0.024545-0.02455 0 0 0.024545 0 0.04909h-0.02455c-0.02454 0-0.02454 0.024545-0.02454 0.024545-0.07364 0 0.09818 0.14727 0.07363 0.14727h0.02455c-0.07364 0-0.14727-0.024545-0.19636-0.024545-0.02455 0-0.02455 0-0.02455 0.024545-0.02455-0.024545-0.04909-0.024545-0.07364-0.04909-0.02454-0.024545-0.07363-0.04909-0.12272-0.04909-0.04909 0-0.22091-0.04909-0.19636 0.024545 0 0.024545 0.02455 0.04909 0.04909 0.073636-0.04909 0-0.12272-0.024545-0.12272 0.04909l0.02455 0.024545c-0.04909 0-0.07364 0-0.04909 0.04909-0.02454 0.024545-0.02454 0.024545-0.02454 0.04909 0.02454 0.024545 0.04909 0.04909 0.09818 0.073636v0.024545c-0.04909 0-0.19636-0.073636-0.19636 0.024545 0.02455 0.024545 0.02455 0.04909 0.07364 0.073635-0.04909-0.024545-0.09818-0.024545-0.09818 0.024545 0 0 0.02454 0.024545 0.02454 0.024545h-0.02454v0.04909c0.04909 0.073636 0.17182 0.14727 0.24545 0.19636 0.19636 0.14727 0.39272 0.29454 0.58908 0.44181 0.29454 0.19636 0.66272 0.24545 1.0063 0.31909 0.41727 0.073636 0.85908 0.12272 1.2763 0.17182 0.04909 0.29454 0.09818 0.61363 0.14727 0.93271-0.02454 0.024545-0.02454 0.024545-0.02454 0.04909v0.04909s0 0.024545-0.02455 0.024545v0.04909 0.024545 0.073636 0.04909 0.39272c-0.07364 1.5463 0 3.0681 0.04909 4.5899 0 0.34363 0.02455 0.66272 0.02455 1.0063v0.66272c0 0.34363 0 0.66272 0.02455 1.0063v0.04909c0 0.12273 0 0.24545 0.02455 0.34363 0 0.17182 0.02455 0.36818 0.02455 0.53999 0.02454 0.24545 0.04909 0.4909 0.07363 0.71181 0 0.09818 0.02455 0.17182 0.02455 0.24545-0.07364 0.68726-0.17182 1.35-0.29454 2.0127-0.02455 0.12272-0.04909 0.24545-0.07364 0.34363-0.02454 0.17182-0.04909 0.34363-0.09818 0.51545v0.09818c0 0.07364-0.02455 0.12272-0.02455 0.19636-0.02454 0.07363-0.02454 0.14727-0.02454 0.2209-0.02455 0.07364-0.02455 0.14727-0.02455 0.22091-0.04909 0.19636-0.07364 0.36818-0.04909 0.56454 0 0.07364 0 0.14727 0.02455 0.22091v0.02454 0.07364c0 0.04909 0.31909 0.17182 0.34363 0.17182 0.02454 0.02454 0.29454 0.17182 0.34363 0.12272 0.2209-0.12272 0.36817-0.27 0.4909-0.4909 0.04909-0.07363 0.07364-0.14727 0.12273-0.24545 0.17182 0.12273 0.4909 0.34363 0.4909 0.31909 0.04909-0.07364 0.09818-0.17182 0.12272-0.27 0.07363-0.19636 0.09818-0.41727 0.12272-0.63817v-0.04909c0-0.09818 0.02454-0.22091 0.02454-0.34363 0.02455-0.14727 0.02455-0.29454 0-0.41727 0.02455-0.07364 0.02455-0.12272 0.02455-0.17182 0.02455-0.29454 0.04909-0.56454 0.02455-0.85908 0-0.26999 0-0.56454-0.02455-0.85908-0.04909-0.7609-0.04909-1.4972-0.04909-2.2827v-0.9818c0.02454-0.83453 0.04909-1.6691 0.04909-2.5036v-0.4909c0.02455-0.31909 0-0.66272 0-0.9818 0-1.08-0.12272-2.16-0.24545-3.2154-0.04909-0.34363-0.17181-0.66272-0.26999-1.0063v-0.04909h0.66272c0.80998 0 1.62-0.073636 2.43-0.12273 0.34363 0 0.68726-0.024545 1.0309-0.024545v0.098181c0.02454 0.27 0.04909 0.51545 0.14727 0.78544-0.02454 0.22091-0.02454 0.44181-0.02454 0.68726-0.02455 0.71181-0.04909 1.3991-0.07364 2.1109-0.02455 0.44181-0.04909 0.90817-0.07364 1.35-0.04909 0.93271-0.09818 1.89-0.12272 2.8472v0.14727c0 0.07364 0 0.14727 0.02455 0.22091v1.2027c0 0.85908-0.04909 1.7427-0.09818 2.6018 0 0 0 0.02454 0.02455 0.02454v0.09818c0 0.02454 0.02454 0.02454 0.02454 0.04909v0.02455c0.04909 0.04909 0.09818 0.07364 0.14727 0.09818 0.17182 0.07364 0.34363 0.14727 0.51545 0.22091 0.12272 0.04909 0.27 0.09818 0.39272 0.14727v0.09818c-0.02455 0.02454-0.02455 0.02454-0.02455 0.04909v0.07364s-0.02455 0.02454-0.02455 0.04909v0.09818c0 0.04909 0 0.09818 0.02455 0.12272-0.02455 0.02454-0.04909 0.04909-0.04909 0.07363v0.19636c0 0.07363 0 0.12273 0.02455 0.19636 0 0.02455 0 0.07364 0.02455 0.09818-0.02455 0.02454-0.02455 0.04909-0.02455 0.09818h0.02455c-0.02455 0.02454-0.02455 0.04909-0.02455 0.07363v0.02455c0 0.07363-0.02455 0.14727-0.04909 0.2209h0.04909c0 0.07364 0 0.09818-0.02455 0.14727 0.02455 0 0.02455 0.02455 0.04909 0.02455 0 0.02454 0 0.02454-0.04909 0.04909l0.02455 0.02454c0.04909 0.04909 0.09818 0.09818 0.17182 0.12273 0.27 0.17182 0.56454 0.29454 0.85908 0.41727 0.07364 0.04909 0.17182 0.09818 0.24545 0.04909 0.02454-0.09818 0.02454-0.19636 0.02454-0.29454 0.02455-0.02454 0.02455-0.04909 0.02455-0.07363 0.02455 0 0.02455-0.04909 0.02455-0.09818 0.12272 0.04909 0.2209 0.07364 0.2209 0.07364 0-0.07364 0.02454-0.12273 0.02454-0.19636z"/>
  <path d="m107.42 20.462h-0.0246-0.0246 0.0491z"/>
  <path d="m107.32 20.462c-0.0246-0.02454-0.0491-0.02454-0.0981-0.02454h-0.0981c0.0737 0 0.14726 0 0.19635 0.02454z"/>
  <path d="m114.24 21.567h0.26999c0.58908 0 1.1536-0.12272 1.7182-0.24545 0.51545-0.12272 0.9818-0.41727 1.3991-0.73635 0.0981-0.07364 0.19636-0.17182 0.27-0.27 0.0981-0.07364 0.12272-0.14727 0.12272-0.27 0-0.04909-0.0246-0.09818-0.0491-0.14727 0.0246-0.02454 0.0491-0.04909 0.0737-0.07364 0.0246-0.09818 0-0.19636-0.0246-0.29454-0.0246-0.02454-0.0737-0.04909-0.12272-0.09818 0.0246-0.09818 0.0246-0.19636 0-0.27l-0.17182-0.14727c-0.12271-0.07364-0.26998-0.12273-0.39271-0.19636 0.0246-0.02454 0.0246-0.04909 0.0491-0.07364h-0.0491c0.0246-0.04909 0.0737-0.07364 0.0737-0.12272 0.0246-0.02454-0.39272-0.09818-0.31909-0.07363-0.17181-0.04909-0.36818-0.07364-0.53999-0.12273-0.0981-0.02454-0.19636-0.02454-0.29455-0.02454-0.24545 0.02454-0.44181 0.09818-0.66272 0.17182-0.31908 0.09818-0.61363 0.14727-0.9327 0.22091-0.19636 0.04909-0.39272 0.07364-0.58909 0.12272-0.0737-0.02454-0.14727-0.02454-0.19636-0.04909-0.0737-0.02454-0.14727-0.02454-0.2209-0.02454-0.36818 0.04909-0.73635 0.09818-1.1045 0.17182-0.17181 0-0.31908 0-0.46636 0.02454h-0.17181c-0.22091-0.09818-0.41727-0.19636-0.63818-0.27-0.0246-0.02454-0.0246-0.02454-0.0491-0.04909-0.27-0.19636-0.56453-0.36818-0.83453-0.56454-0.27-0.22091-0.51545-0.46636-0.73636-0.73635-0.17181-0.24545-0.31908-0.4909-0.41726-0.7609-0.0491-0.19636-0.0981-0.41727-0.12273-0.61363-0.0491-0.31909-0.0737-0.66272-0.0737-1.0063v-0.04909c0-0.12272 0-0.24545 0.0246-0.36818 0.0491 0.02454 0.0737 0.04909 0.12273 0.04909 0.12272 0.04909 0.27 0.07364 0.39272 0.09818 0.27 0.04909 0.54 0.07363 0.83454 0.07363 0.61362 0.02455 1.2518-0.12272 1.8409-0.26999 0.95725-0.19636 1.89-0.4909 2.7981-0.78544 0.0491-0.02454 0.0981-0.02454 0.12273-0.04909 0.56453-0.14727 1.1291-0.34363 1.6691-0.53999 0.2209-0.07363 0.44181-0.14727 0.66272-0.2209 0.0737-0.02455 0.14726-0.04909 0.24544-0.07364 0.19636-0.02454 0.24545-0.12272 0.0981-0.29454h-0.0246c0-0.04909-0.0246-0.07364-0.0737-0.12273 0.19636-0.02454 0.22091-0.12272 0.0981-0.27-0.0246-0.04909-0.0491-0.07364-0.0737-0.07364-0.0246-0.02454-0.0246-0.02454-0.0491-0.04909v-0.04909c0.0737-0.04909 0.0737-0.12272-0.0246-0.27-0.0246-0.02454-0.0491-0.04909-0.0981-0.07364-0.12272-0.07363-0.24545-0.17182-0.36816-0.24545 0 0-0.44182-0.34363-0.46636-0.29454-0.19636 0.04909-0.36818 0.12272-0.56454 0.19636-0.12273 0.04909-0.24545 0.12273-0.36818 0.17182-0.19636 0.04909-0.41727 0.12272-0.61363 0.17182-0.7118 0.22091-1.4236 0.44181-2.1109 0.63817-0.80998 0.24545-1.62 0.44181-2.4545 0.61363-0.46636 0.09818-0.95725 0.17182-1.4482 0.19636 0.0246-0.07364 0.0246-0.12273 0.0246-0.19636 0.0981-0.80999 0.17182-1.62 0.19637-2.43 0.0246-0.56454 0.0246-1.1291 0.0491-1.6691v-0.024545-0.22091c0.22091 0.04909 0.44182 0.098181 0.68727 0.14727 0.46636 0.024545 0.9327 0.024545 1.3991 0.024545 0.68727 0 1.3745-0.098181 2.0372-0.17182 0.63818-0.098181 1.2518-0.22091 1.8654-0.36818 0.17181-0.024545 0.34362-0.073636 0.51544-0.12272 0.41726 0 0.58908-0.19636 0.53999-0.58908 0 0-0.0246-0.024545-0.0491-0.04909 0.0491-0.073636 0.0737-0.19636 0.0737-0.34363 0 0-0.0246-0.04909-0.0737-0.073635 0.56454-0.073636 1.1045-0.17182 1.6691-0.24545-0.0491-0.04909-0.0981-0.098181-0.14725-0.12273h-0.0246c0.0246 0 0.0491 0 0.0737-0.024545-0.0246-0.04909-0.0737-0.073636-0.14727-0.12273h-0.0246c0.24545-0.024545 0.49089-0.04909 0.7118-0.073636l-0.0246-0.024545c-0.0491-0.04909-0.0981-0.073636-0.14727-0.12273h0.0737l-0.0246-0.024545c-0.0981-0.073636-0.17182-0.12272-0.27-0.17182 0.0737 0 0.12272 0 0.19636-0.024545-0.0246 0-0.0246-0.024545-0.0491-0.024545 0.0737 0 0.14727-0.024545 0.22091-0.024545 0 0-0.12273-0.073636-0.22091-0.14727 0.0246 0 0.0491-0.024545 0.0737-0.024545-0.0246-0.04909-0.0737-0.073636-0.12273-0.098181 0 0 0-0.024545-0.0246-0.024545h0.0981c-0.0246-0.04909-0.0737-0.073636-0.12272-0.098181 0-0.024545-0.0246-0.024545-0.0246-0.024545 0.0491 0 0.12272-0.024545 0.17181-0.024545-0.0246-0.04909-0.0737-0.073636-0.12272-0.098181-0.14727-0.098181-0.31908-0.22091-0.4909-0.31909-0.17182-0.098181-0.34363-0.22091-0.51545-0.31909-0.0491-0.024545-0.0981-0.04909-0.14727-0.04909-0.0491 0-0.12273-0.024545-0.19636-0.024545-0.12273-0.024545-0.19636 0-0.24545 0.073636-0.49091 0.073636-0.95726 0.12272-1.4482 0.19636-1.2272 0.14727-2.4545 0.36818-3.6818 0.61363-0.17181 0.024545-0.31909 0.024545-0.49089 0.04909-0.36818 0.098181-0.7609 0.2209-1.1536 0.34363-0.0981 0-0.19637 0.024545-0.27 0.04909-0.0246-0.024545-0.0491-0.04909-0.0981-0.073636 0.0246 0 0.0491-0.024545 0.0491-0.024545 0.0246 0 0.0491 0 0.0491-0.024545 0.0491-0.024545 0.0981-0.04909 0.17182-0.073636 0 0-0.0491-0.04909-0.12273-0.098181l0.0246-0.024545c0.0246 0-0.0246-0.04909-0.0737-0.073635 0.0246-0.024545 0.0491-0.024545 0.0491-0.024545 0.0246 0-0.0246-0.04909-0.0737-0.098181 0.0491 0 0.0981-0.024545 0.14727-0.024545 0.0246-0.024545-0.12272-0.12272-0.0981-0.098181-0.0246-0.024545-0.19636-0.19636-0.24546-0.17182-0.0981 0.024545-0.19636 0.04909-0.31908 0.073635-0.14727 0.04909-0.29455 0.12272-0.44182 0.24545-0.14727 0.098181-0.24545 0.29454-0.34363 0.44181-0.0246 0.04909-0.0491 0.098181-0.0981 0.14727h-0.41727c-0.17181 0.073636-0.36817 0.12273-0.58908 0.14727-0.0491 0 0.0491 0.073636 0.0737 0.098181-0.0491 0-0.0981 0.024545-0.12272 0.024545h-0.0246c-0.0246 0 0 0.024545 0.0246 0.04909-0.0246 0.024545-0.0491 0.024545-0.0737 0.024545h0.0246c-0.0246 0 0 0.024545 0.0246 0.04909h-0.0491c0 0.024545 0.0491 0.073636 0.0737 0.098181-0.0491 0.024545-0.0981 0.024545-0.14727 0.024545h-0.0246c-0.0246 0.024545 0.0737 0.098181 0.0981 0.12272h-0.14727 0.0246c-0.0246 0 0 0.024545 0.0491 0.073636h-0.0737c-0.0246 0 0.14727 0.14727 0.14727 0.14727 0.0246 0.024545 0.0737 0.04909 0.0981 0.073635 0 0 0.0246 0 0.0246 0.024545h-0.0246c-0.0246 0 0.0246 0.024545 0.0491 0.073636-0.0491 0-0.12273 0.024545-0.17182 0.024545-0.0246 0.024545 0.0246 0.04909 0.0737 0.098181-0.0491 0-0.0737 0.024545-0.0981 0.024545 0 0.024545 0 0.04909 0.0246 0.04909-0.0246 0-0.0246 0-0.0491 0.024545 0.0246 0.024545 0.0246 0.04909 0.0737 0.073636 0.0737 0.073636 0.17181 0.14727 0.26999 0.24545 0.0246 0 0.0491 0.024545 0.0737 0.04909-0.0737 0.19636-0.14727 0.36818-0.19636 0.56454-0.0737 0.27-0.14727 0.51545-0.19636 0.7609-0.12273 0.53999-0.19636 1.08-0.24545 1.6445-0.0246 0.41727-0.0246 0.83453 0 1.2518-0.0246 0.02454-0.0246 0.07363-0.0246 0.12272-0.0737 0.27-0.12273 0.56454-0.17182 0.83453-0.0981 0.56454-0.12273 1.1291-0.14727 1.6936v0.66272c0 0.19636 0 0.39272 0.0246 0.61363 0.0737 0.56454 0.22091 1.1291 0.39272 1.6936 0.0981 0.27 0.22091 0.4909 0.39272 0.71181-0.0981-0.02454-0.19636-0.04909-0.31908-0.04909-0.14727-0.07364-0.29455-0.12272-0.44182-0.17182-0.26999-0.09818-0.61363-0.04909-0.90816-0.04909-0.93271 0.02454-1.8654 0.17182-2.7981 0.29454-0.56454 0.07364-1.1291 0.12273-1.6936 0.17182h-0.0491c-0.0245-0.09818-0.0245-0.17182-0.0245-0.24545 0.0245-1.0063 0.0736-2.0127 0.12273-3.019 0.0491-1.1782 0.0982-2.3563 0.12272-3.559 0.0491-1.1782 0.0491-2.3809 0.0491-3.5836 0-0.36818-0.0245-0.7609-0.0245-1.1291v-0.36818-0.34363c0.0491-0.34363 0.0245-0.68726-0.0245-1.0309 0-0.024545-0.0246-0.04909-0.0736-0.04909 0-0.098181-0.0245-0.19636-0.0245-0.29454v-0.04909c0-0.04909-0.36818-0.12273-0.36818-0.12273-0.0245 0-0.34363-0.12272-0.39272-0.073636-0.12272 0.19636-0.24545 0.36818-0.34363 0.58908v-0.098181c0.0245 0 0.0245-0.024545 0.0245-0.04909 0.0245 0 0.0245 0 0.0245-0.024545-0.0245-0.024545-0.0491-0.04909-0.0491-0.04909-0.0491-0.073636-0.24545-0.098181-0.29454-0.098181 0-0.024545-0.27-0.12273-0.29454-0.073635-0.12273 0.12272-0.19636 0.22091-0.22091 0.34363-0.0245 0.04909-0.0491 0.098181-0.0491 0.14727-0.0736 0.073636-0.0982 0.12272-0.12272 0.19636-0.0491 0.073636-0.0736 0.12272-0.0736 0.19636-0.0246 0.024545-0.0246 0.024545-0.0246 0.04909-0.0491 0.04909-0.0736 0.14727-0.0736 0.22091-0.0246 0.073636-0.0491 0.12272-0.0246 0.19636-0.0245 0.14727 0.0246 0.31909 0.12273 0.53999-0.0246 0.56454-0.0491 1.1291-0.0491 1.6936-0.0245 0.63817-0.0245 1.2763-0.0491 1.9145-0.0246 0.68726-0.0736 1.3991-0.0982 2.0863v0.24545c-0.0491 0.4909-0.0736 0.9818-0.0982 1.4727-0.0491 0.83453-0.0982 1.6691-0.14728 2.5036-0.0491 0.68726-0.0736 1.35-0.12272 2.0127 0 0.31909-0.0245 0.63817-0.0245 0.93271-0.0491 0.46636-0.0245 0.93271 0 1.3745 0.0245 0.17182 0.0491 0.34363 0.0491 0.4909 0.0246 0.17182 0.0491 0.34363 0.0736 0.4909 0 0.07364 0.46636 0.07364 0.46636 0.07364 0.0245 0 0.46635 0.04909 0.4909 0 0.0491-0.07364 0.0736-0.14727 0.12272-0.19636v0.04909c0.0246 0.04909 0.41727 0.02454 0.41727 0.02454s0.41726 0.02454 0.41726-0.02454c0.0246-0.07364 0.0246-0.14727 0.0491-0.22091 0.0491 0.02454 0.0982 0.02454 0.14728 0.04909 0 0 0.26999 0.04909 0.4909 0.09818 0.31908 0.12273 0.66271 0.22091 1.0063 0.27 0.88363 0.12272 1.7918-0.02454 2.6754-0.17182 0.44181-0.07363 0.88363-0.19636 1.3009-0.29454 0.36817-0.07364 0.66272-0.24545 0.88362-0.53999 0-0.02454-0.0491-0.04909-0.0981-0.09818l0.0246-0.02454s-0.0246-0.04909-0.0737-0.07364c0.0491-0.04909 0.12271-0.12272 0.17181-0.19636 0.0246 0-0.0981-0.07364-0.12272-0.09818l0.0246-0.02454c0.0246-0.02454-0.0246-0.04909-0.0737-0.07364 0.0246-0.02455 0.0246-0.02455 0.0491-0.04909 0 0-0.0246-0.02454-0.0491-0.04909 0.0246 0 0.0246-0.02454 0.0491-0.02454h0.2209c-0.0246-0.02455-0.0246-0.02455-0.0491-0.02455 0.0491 0 0.0981 0.02455 0.14727 0v0.02455h0.0737c0.0246 0 0.0491 0 0.0981 0.02454 0.0246 0 0.0491-0.02454 0.0981-0.02454-0.0491-0.04909-0.0981-0.09818-0.14726-0.09818-0.0246-0.02454-0.0246-0.02454-0.0491-0.02454 0.0246 0 0.0491-0.02455 0.0981-0.02455-0.0491-0.04909-0.0737-0.07364-0.14728-0.09818-0.0737-0.02455-0.14727-0.07364-0.19636-0.12273 0.0981 0.02454 0.12273 0.04909 0.22091 0 0-0.02455-0.0246-0.02455-0.0491-0.04909 0.12272 0.02454 0.14726 0.04909 0.24544 0 0.0246 0-0.12272-0.07364-0.2209-0.14727 0.0246 0 0.0491 0 0.0737-0.02454-0.0246-0.02454-0.0737-0.04909-0.12271-0.07364 0 0 0-0.02454-0.0246-0.02454 0.0246 0 0.0491 0 0.0737-0.02454 0.0246 0-0.0246-0.02454-0.0491-0.04909 0.2209 0 0.46635 0 0.7118 0.02454 0.0246 0.02454 0.0491 0.02454 0.0737 0.04909-0.0491-0.04909-0.12273-0.09818-0.19636-0.12272-0.0246-0.02454-0.0491-0.04909-0.0737-0.07363 0.0246 0 0.0491 0 0.0737 0.02454h0.0246c0.0246 0 0.0737 0.02454 0.0981 0.02454-0.0491-0.02454-0.12271-0.07363-0.1718-0.09818-0.0491-0.04909-0.12273-0.12273-0.17182-0.17182 0 0 0.0246 0 0.0246 0.02454 0.0737 0.02454 0.12273 0.04909 0.12273 0.02454v-0.02454c0.0246 0.02454 0.0737 0.02454 0.0981 0.04909-0.0491-0.02455-0.0737-0.04909-0.12272-0.07364 0-0.02454 0-0.02454-0.0246-0.04909 0.0737 0 0.12272 0 0.17181 0.02454 0.0491 0 0.0737 0.02454 0.0491 0h0.0491c0.0491 0.07363 0.0981 0.12273 0.14727 0.17182 0.14727 0.12273 0.29453 0.24545 0.4418 0.36818 0.27 0.2209 0.58909 0.41727 0.90817 0.56454 0.17182 0.19636 0.36818 0.39272 0.56454 0.58908 0.24545 0.22091 0.31909 0.27 0.58909 0.44181 0.0491 0.02455 0.0737 0.02455 0.12272 0.04909 0.0737 0.02454 0.17182 0.04909 0.24546 0.09818-0.0246-0.02455-0.0491-0.02455-0.0737-0.02455 0.0491 0.02455 0.0981 0.02455 0.14726 0.04909 0.12272 0.02454 0.24545 0.07363 0.36817 0.12273 0.63818 0.24545 1.4482 0.56454 2.16 0.24545 0.0981-0.04909 0.22091-0.09818 0.31909-0.14727 0.14727-0.07363 0.26999-0.14727 0.36818-0.26999zm-2.6509-0.12272c-0.0491 0-0.0737-0.02454-0.0981-0.02454-0.0246 0-0.0246-0.02454-0.0491-0.02454 0.0491 0 0.0981 0.02454 0.14728 0.04909zm-0.49091-2.5527c0.0246 0.02455 0.0737 0.02455 0.0981 0.04909h-0.0246c-0.0246-0.02454-0.0491-0.04909-0.0737-0.04909zm0.44182 2.2091c-0.0246 0-0.0491-0.02455-0.0737-0.02455l-0.0246-0.02454c0.0737 0.02454 0.17181 0.04909 0.24545 0.07364-0.0491 0-0.0981-0.02454-0.14727-0.02454zm-0.66272-2.16c0.0491 0.02454 0.0737 0.04909 0.0981 0.04909 0.0491 0.02454 0.0737 0.04909 0.12273 0.07364-0.0246 0-0.0737-0.02454-0.0981-0.02454-0.0737-0.04909-0.14727-0.07364-0.2209-0.12272 0.0491 0 0.0737 0.02454 0.0981 0.02454zm-0.0981 0.34363h-0.0491v-0.02455c-0.0491-0.02454-0.0981-0.04909-0.14727-0.07363 0.0246 0 0.0491 0.02454 0.0737 0.02454 0.0491 0.02454 0.0737 0.04909 0.12273 0.07364zm0.34363 1.1045c0.0491 0.02454 0.12273 0.04909 0.19637 0.07363-0.0737-0.02454-0.14728-0.04909-0.19637-0.07363zm0.76091 0.26999c0 0.02455 0.0246 0.02455 0.0491 0.02455h-0.0246c-0.12272-0.02455-0.27-0.07364-0.39272-0.09818-0.12273-0.02454-0.22091-0.04909-0.34363-0.07364-0.0246-0.02455-0.0737-0.02455-0.12273-0.04909-0.0246 0-0.0737-0.02454-0.0981-0.02454-0.0246-0.02455-0.0246-0.02455-0.0246-0.04909 0.31909 0.09818 0.63818 0.19636 0.95727 0.27zm-0.61363 0.09818c-0.0246-0.02454-0.0491-0.04909-0.0737-0.07363 0.2209 0.07363 0.44181 0.14727 0.66272 0.19636h-0.0246c-0.14727-0.02454-0.27-0.04909-0.39273-0.07364-0.0737-0.02454-0.12272-0.04909-0.17181-0.04909v1e-6zm0.34363-0.02454c-0.12273-0.02454-0.24545-0.07364-0.36818-0.09818-0.0246 0-0.0737-0.02454-0.12273-0.02454 0-0.02454-0.0246-0.02454-0.0246-0.02454-0.0246-0.02454-0.0246-0.02454-0.0491-0.04909 0.31908 0.09818 0.66272 0.19636 1.0064 0.27 0.0246 0 0.0246 0 0.0491 0.02455-0.0491-0.02455-0.0981-0.02455-0.12273-0.02455-0.12273-0.02454-0.24545-0.04909-0.36818-0.07363zm0.27-0.17182c-0.12273-0.02454-0.27-0.04909-0.39273-0.07364-0.0981-0.02454-0.19636-0.04909-0.29454-0.07363 0.0981 0 0.19636 0 0.31909 0.02454 0.12272 0.02454 0.26999 0.07363 0.41727 0.09818 0.0981 0.02454 0.17181 0.04909 0.26999 0.07363-0.0981-0.02454-0.2209-0.02454-0.31908-0.04909zm0.0491-0.12272h0.0246-0.0246zm-1.1536-1.3745h0.0491s0.0246 0.02454 0.0491 0.02454c-0.0246 0-0.0491 0-0.0737-0.02454h-0.0246zm0.36818 0.19636h-0.0246-0.0246 0.0491zm0.68726 1.7427c-0.0737 0-0.17181 0-0.24545-0.02454-0.0491-0.02454-0.12273-0.07364-0.17182-0.09818 0.14728 0.04909 0.31909 0.07364 0.46636 0.12273h-0.0491zm-1.1045-2.4545c0.29454 0.14727 0.61363 0.31908 0.90817 0.46636-0.0737 0-0.12273-0.02455-0.17182-0.02455-0.0981-0.04909-0.19636-0.09818-0.29454-0.14727-0.17181-0.09818-0.34363-0.22091-0.51545-0.34363 0.0246 0.02455 0.0491 0.02455 0.0737 0.04909zm-2.97 0.56454v0.02455-0.02455zm0.0737 0.14727c-0.0246-0.02454-0.0491-0.04909-0.0737-0.07363h0.0246v-0.02455c0.0491 0.04909 0.0737 0.07364 0.12273 0.12273-0.0246 0-0.0491-0.02454-0.0737-0.02454zm3.9272 2.3563h-0.12273c-0.0491-0.02454-0.0981-0.04909-0.14727-0.07363 0.0246 0 0.0491 0 0.0981 0.02454 0.0737 0.02454 0.14727 0.02454 0.19636 0.04909h-0.0246z"/>
  <path d="m130.56 21.321c0.39273-0.2209 0.73636-0.4909 1.1045-0.7609 0.34362-0.27 0.63816-0.61363 0.9327-0.93271 0.29455-0.34363 0.46636-0.73635 0.63818-1.1291 0.14727-0.36818 0.19636-0.73635 0.2209-1.1291 0.0246-0.17182 0.0491-0.34363 0.0491-0.51545 0.0246-0.41727-0.12272-0.85908-0.24545-1.2518-0.0246-0.14727-0.0737-0.31909-0.12273-0.46636-0.0981-0.29454-0.26999-0.58908-0.41726-0.85908-0.22091-0.39272-0.54-0.7609-0.83453-1.1045-0.0737-0.07364-0.14727-0.14727-0.22091-0.19636 0-0.04909-0.0246-0.07364-0.0246-0.12272-0.0246-0.02454-0.0981-0.04909-0.12272-0.04909-0.12273-0.12273-0.27-0.24545-0.39273-0.34363-0.29454-0.36818-0.58908-0.73635-0.90816-1.0554-0.0246-0.02454-0.0491-0.04909-0.0737-0.07363v-0.02454c-0.0246 0-0.0246-0.02455-0.0491-0.02455-0.0246-0.02454-0.0246-0.02454-0.0491-0.04909h0.0737c0.0246 0 0.0246-0.02454 0-0.02454-0.12274-0.09818-0.24547-0.17182-0.36818-0.27l-0.0246-0.02454c0.0982 0.04909 0.17182 0.09818 0.27 0.14727 0.0491 0.02454 0.0981 0.04909 0.14727 0.04909 0.0491 0 0.0491-0.02454 0.0246-0.04909-0.22091-0.14727-0.44182-0.31909-0.66272-0.46636 0.0246-0.02454-0.0246-0.02454-0.0981-0.04909 0.0491-0.02454 0.0981-0.04909 0.14727-0.09818 0.0246 0-0.26999-0.12272-0.26999-0.09818-0.0981-0.04909-0.19636-0.07363-0.29455-0.09818-0.0246-0.04909-0.0736-0.07363-0.0981-0.09818-0.46636-0.39272-0.95725-0.7609-1.4482-1.1291-0.49089-0.36818-1.0063-0.71181-1.5218-1.08-0.56454-0.39272-1.1782-0.78544-1.7672-1.1782-0.29454-0.36818-0.66271-0.73635-1.08-0.9818-0.12274-0.098181-0.24545-0.19636-0.39272-0.27-0.0737-0.04909-0.17182-0.098181-0.24545-0.14727 0.0737-0.098181 0.14727-0.19636 0.22089-0.29454 0.46637-0.31909 0.98182-0.51545 1.5218-0.68726 0.51545-0.098181 1.0554-0.12272 1.5709-0.14727 0.29454-0.024545 0.58908 0 0.85908 0.024545 0.41727 0.22091 0.73635 0.44181 1.1045 0.78544 0.0246 0.073636 0.0737 0.14727 0.12273 0.19636 0.0737 0.098181 0.0981 0.19636 0.12271 0.29454 0.0246 0.04909 0.0246 0.12273 0.0246 0.17182-0.0491 0.17182-0.0737 0.36818-0.0246 0.53999v0.24545l0.0246 0.024545v0.073636c0 0.073636 0.31909 0.19636 0.34364 0.22091 0.0737 0.024545 0.29454 0.19636 0.36816 0.17182 0.0491-0.024545 0.0737-0.024545 0.12274-0.04909 0 0.073636 0.0246 0.12273 0.0491 0.17182 0.0246 0.098181 0.2209 0.19636 0.29454 0.24545 0.0737 0.04909 0.14726 0.12272 0.24544 0.17182 0.0246 0.024545 0.0491 0.024545 0.0737 0.024545-0.0246-0.14727-0.0491-0.29454-0.0737-0.44181 0.0246 0.024545 0.0246 0.024545 0.0491 0.04909 0.0246 0.024545 0.0491 0.024545 0.0737 0.024545-0.0246-0.12273-0.0491-0.24545-0.0737-0.36818v-0.024545c-0.0246-0.073636-0.0246-0.17182-0.0491-0.24545h0.0246c0.0981 0.14727 0.22091 0.31909 0.31909 0.46636 0.19636 0.29454 0.36818 0.63817 0.4909 1.0063v0.04909c0 0.024545 0.0246 0.04909 0.0246 0.073636 0.0246 0.04909 0.0246 0.12273 0.0246 0.17182h0.0246c0 0.04909 0.0246 0.098181 0.0246 0.12273 0 0.04909 0.41725-0.04909 0.41725-0.04909 0.0491-0.024545 0.39273-0.04909 0.41727-0.12272 0.0737-0.17182 0.12273-0.31909 0.12273-0.51545 0.0491-0.17182 0.0737-0.34363 0.0737-0.53999-0.0246-0.17182-0.0491-0.36818-0.0981-0.53999-0.0246-0.19636-0.0981-0.39272-0.1718-0.56454-0.19638-0.53999-0.56454-1.0063-0.90818-1.4482-0.36817-0.4909-0.83453-0.85908-1.3009-1.2518-0.22091-0.19636-0.46636-0.34363-0.71181-0.4909-0.12273-0.04909-0.24545-0.12273-0.36818-0.19636-0.31909-0.098181-0.63817-0.19636-0.95726-0.29454-0.0491-0.024545-0.58909 0.024545-0.58909 0.04909 0 0.04909 0 0.073636 0.0246 0.12272h-0.0246c-0.0246 0.073636 0 0.12273 0 0.17182-0.14766-0.098181-0.29493-0.17182-0.46673-0.24545-0.27-0.12273-0.56454-0.19636-0.85908-0.22091-0.34363-0.04909-0.66272-0.024545-1.0064 0.04909-0.24545 0.04909-0.51545 0.098181-0.7609 0.19636h-0.0491c-0.34364-0.024545-0.66272 0.024545-0.98181 0.073636-0.19636 0.024545-0.39273 0.14727-0.54 0.22091-0.0737 0.024545-0.14727 0.073636-0.2209 0.12273-0.19637 0.098181-0.39272 0.24545-0.54 0.44181-0.22089 0.19636-0.36816 0.44181-0.46635 0.71181-0.0491 0.073635-0.0737 0.12272-0.0981 0.17182-0.0246 0.04909-0.0491 0.073636-0.0737 0.098181v0.073636c-0.0246 0.024545-0.0246 0.04909-0.0491 0.073636v0.14727c0 0.024545-0.0246 0.04909-0.0246 0.073636 0 0.024545-0.0246 0.04909-0.0246 0.073636v0.04909c-0.0491 0.12272-0.0737 0.27-0.0981 0.41727-0.0246 0.073636-0.0491 0.17182-0.0491 0.27-0.0246 0.073636-0.0246 0.14727-0.0491 0.22091v0.098181c-0.0491 0.22091-0.0491 0.41727-0.0246 0.61363 0.0246 0.12273 0.0491 0.24545 0.0737 0.36818 0 0.073636 0.0246 0.14727 0.0491 0.22091 0.0246 0.04909 0.0246 0.073636 0.0246 0.12272 0.0491 0.14727 0.0737 0.29454 0.14727 0.44181 0.0737 0.17182 0.1718 0.34363 0.31908 0.4909h0.0246c-0.0246 0.024545 0.0246 0.04909 0.0491 0.073636-0.0246 0-0.0246 0-0.0491 0.024545-0.0246 0 0 0.024545 0.0246 0.04909-0.0491 0-0.0737 0.024545-0.12272 0.04909-0.0737 0 0.0491 0.073636 0.0491 0.073636 0.0246 0 0.0246 0 0.0491 0.024545-0.0246 0-0.0737 0.024545-0.12273 0.04909-0.0246 0 0.0246 0.04909 0.0737 0.073636-0.0246 0-0.0491 0-0.0491 0.024545-0.0737 0 0.0737 0.073636 0.0737 0.073636 0.0981 0.04909 0.22091 0.14727 0.34363 0.14727 0.0737 0.024545 0.17181 0.024545 0.26999 0.024545 0.3191 0.34363 0.63819 0.63817 1.0309 0.88362 0.31909 0.2209 0.63817 0.46636 1.0064 0.63817 0.36818 0.19636 0.76089 0.36818 1.1782 0.51545 0.0737 0.07364 0.17182 0.14727 0.24545 0.22091 0.22091 0.19636 0.46636 0.36818 0.71181 0.56454 0.34363 0.24545 0.76089 0.34363 1.1536 0.44181 0.29455 0.07364 0.58909 0.09818 0.88363 0.12273 0.29454 0.14727 0.58909 0.27 0.88363 0.41726 0.0981 0.07364 0.19635 0.14727 0.29454 0.22091 0.49089 0.36818 0.90816 0.80999 1.3254 1.2763 0 0.02455-0.0246 0.04909-0.0246 0.07364h-0.0246c-0.0246 0.09818-0.0246 0.19636-0.0246 0.29454-0.0491 0-0.0981-0.02454-0.0981 0 0 0.19636 0.0246 0.39272 0.0246 0.58908v0.02455c0.0246 0.04909 0.0246 0.09818 0.0246 0.14727v0.04909c0 0.02454 0.0246 0.04909 0.0246 0.07364 0.14728 0.39272 0.27001 0.80999 0.39274 1.2518 0.0491 0.14727 0.12271 0.31909 0.1718 0.4909 0.0246 0.04909 0.0491 0.12272 0.0737 0.17182-0.12272 0.19636-0.26999 0.36818-0.39271 0.56454-0.0981 0.12273-0.19636 0.24545-0.29454 0.39272-0.17183 0.17182-0.34363 0.39272-0.49091 0.58908-0.0737 0.04909-0.12272 0.07364-0.19636 0.09818-0.29454 0.19636-0.61363 0.34363-0.90817 0.51545-0.36817 0.17182-0.71181 0.34363-1.0554 0.51544-0.14727 0-0.27 0-0.41727-0.02454-1.35-0.07363-2.7-0.19636-4.05-0.36818-0.39271-0.17182-0.78543-0.36818-1.2027-0.53999v-0.04909c0-0.04909-0.34363-0.09818-0.36818-0.09818 0 0-0.31908-0.07363-0.36817-0.04909-0.0246 0-0.0246-0.02454-0.0246-0.02454-0.0246 0-0.0491 0-0.0737 0.02454 0.0246 0.04909 0.0491 0.07363 0.0737 0.09818v0.02454h-0.0246-0.0246c-0.0246-0.02454-0.0491-0.02454-0.0737 0 0.0246 0.02454 0.0491 0.07363 0.0737 0.09818-0.0491 0-0.0981 0-0.0737 0.02454 0.0246 0.02454 0.0491 0.07363 0.0981 0.09818-0.0491 0-0.0737 0-0.0491 0.02454s0.0246 0.02454 0.0491 0.04909v0.02454c-0.0246-0.02454-0.0491-0.02454-0.0491 0 0 0 0-0.02454-0.0246-0.02454s-0.0491 0-0.0737 0.02454c0.0246 0.02455 0.0491 0.07364 0.0737 0.09818v0.04909c-0.0491 0-0.0981 0-0.0491 0.02454 0 0.02454 0.0246 0.04909 0.0737 0.07363v0.02455c-0.0491 0-0.0981 0-0.0491 0.02454 0 0.02454 0.0246 0.02454 0.0491 0.04909v0.14727c0 0.04909 0 0.09818 0.0246 0.14727 0.0246 0.14727 0.0737 0.29454 0.17182 0.39272 0 0.02454 0.0246 0.02454 0.0246 0.02454 0.12273 0.12273 0.24545 0.24545 0.34363 0.36818 0.0737 0.04909 0.14727 0.12272 0.24545 0.17182 0.19637 0.14727 0.39273 0.27 0.61363 0.36818 0.0491 0.02454 0.0737 0.02454 0.12273 0.04909h-0.46636c-0.17181 0-0.36818-0.02455-0.53999-0.04909-0.44182-0.27-0.78545-0.63817-1.0554-1.1291 0-0.02455-0.22089-0.07364-0.22089-0.02455-0.22091-0.22091-0.34363-0.4909-0.39272-0.78544-0.0246-0.07364-0.29455-0.12273-0.31909-0.07364-0.14727 0.14727-0.22091 0.29454-0.24545 0.44181-0.0491 0.09818-0.0737 0.19636-0.0491 0.31909-0.0737 0.12272-0.0737 0.27-0.0246 0.41727-0.0246 0.09818 0 0.17182 0.0246 0.27 0 0.04909 0.0246 0.09818 0.0491 0.14727 0 0.02454 0 0.04909 0.0246 0.09818 0.0246 0.2209 0.17181 0.39272 0.39272 0.4909 0.0737 0.04909 0.14727 0.09818 0.22091 0.12272 0.0491 0.19636 0.19636 0.34363 0.41727 0.46636 0.31908 0.29454 0.46634 0.31908 0.88361 0.46636 0.19636 0.04909 0.41727 0.09818 0.61363 0.14727 0.80999 0.19636 1.6445 0.36818 2.479 0.51545 0.31909 0.04909 0.73636 0.04909 1.08 0.04909 1.08 0.02454 2.1354-0.34363 3.1663-0.68726 0.85908-0.29454 1.6691-0.71181 2.4545-1.1782zm-8.149-0.36818c0.0246 0.02454 0.0491 0.02454 0.0737 0.02454-0.0491 0-0.0737 0-0.0981-0.02454-0.0246 0-0.0246 0-0.0491-0.02455 0.0246 0.02455 0.0491 0.02455 0.0737 0.02455zm-0.12273-0.12272c-0.0246 0-0.0246-0.02454-0.0491-0.02454 0.0491 0.02454 0.0981 0.02454 0.14727 0.04909h0.0246c-0.0491 0-0.0737 0-0.12273-0.02454zm-0.0246-0.09818c-0.0737-0.04909-0.1718-0.09818-0.24544-0.17182 0.14728 0.04909 0.26999 0.12273 0.39272 0.17182 0.12273 0.02454 0.2209 0.07364 0.34364 0.09818-0.17183-0.02454-0.3191-0.04909-0.49092-0.09818zm4.6145-10.481c-0.0491-0.07364-0.12273-0.12273-0.17182-0.19636 0.0737 0.04909 0.17182 0.09818 0.27 0.14727 0.0246 0.02454 0.0491 0.02454 0.0737 0.04909h-0.17182zm-5.3508-1.3745h0.0491c0.0981 0.073636 0.19636 0.14727 0.27 0.22091 0.0246 0.024545 0.0246 0.024545 0.0491 0.04909 0.0737 0.04909 0.14727 0.12273 0.24545 0.17182 0.19637 0.14727 0.41726 0.29454 0.61363 0.41727-0.19637-0.09818-0.39273-0.19636-0.58908-0.31909-0.0246 0-0.0491-0.024545-0.0981-0.04909-0.17181-0.14727-0.34363-0.29454-0.4909-0.44181-0.0246-0.024545-0.0246-0.024545-0.0491-0.04909zm0.41727 0.53999h-0.0246 0.0246zm0.0981 0.09818v-0.02454 0.02454zm0.0246 0.02454c0.0246 0 0.0491 0.02455 0.0737 0.02455 0.0491 0.04909 0.0981 0.09818 0.14727 0.12272-0.0737-0.04909-0.14727-0.09818-0.2209-0.14727zm0.12273 0.04909-0.0491-0.02454c-0.0981-0.07364-0.19635-0.14727-0.26998-0.19636-0.0981-0.098181-0.17183-0.17182-0.24547-0.27 0.0491 0.04909 0.0737 0.073636 0.12274 0.12273 0.0981 0.073636 0.19636 0.14727 0.31908 0.22091 0.2209 0.14727 0.44181 0.31908 0.66272 0.44181-0.17182-0.09818-0.36818-0.19636-0.54-0.29454zm0.34363 10.579h-0.0981c-0.0491-0.02454-0.0981-0.04909-0.12272-0.07364 0.0737 0.02455 0.14728 0.04909 0.22091 0.07364zm-0.71181 0.04909c0.56454 0.17182 1.1291 0.34363 1.6936 0.53999-0.41728 0-0.80999-0.04909-1.2027-0.14727-0.17182-0.09818-0.34364-0.24545-0.49091-0.39272zm0.66272 0.85908c0.0246 0.02454 0.0737 0.02454 0.0981 0.04909-0.12273-0.02454-0.24545-0.04909-0.36818-0.09818-0.0737-0.04909-0.14727-0.09818-0.22091-0.14727 0.14727 0.07364 0.34364 0.14727 0.49091 0.19636zm-0.14727 0.09818c0.12273 0.02454 0.24545 0.07363 0.36818 0.12273h-0.0981c-0.12272-0.02455-0.2209-0.04909-0.34363-0.09818-0.0737-0.02454-0.14727-0.09818-0.2209-0.14727 0.0981 0.04909 0.19636 0.07363 0.29454 0.12272zm-0.0737 0.12273h0.0246-0.0246z"/>
  <path d="m144.41 21.493c0-0.09818-0.0246-0.22091-0.0246-0.31909 0.0736-0.02454 0.14727-0.04909 0.14727-0.07363-0.0246-0.12273-0.0246-0.24545-0.0491-0.36818l0.0246-0.02454c-0.0981-0.51545-0.17182-1.0063-0.27-1.5218-0.0246-0.12272-0.0491-0.24545-0.0981-0.36818 0-0.14727-0.0246-0.27-0.0246-0.41727-0.0246-0.14727-0.0491-0.29454-0.0737-0.41727-0.0491-0.46636-0.19637-0.93271-0.3191-1.3745-0.0737-0.27-0.17181-0.53999-0.24544-0.80999 0.0246-0.04909 0.0737-0.09818 0.0981-0.14727 0.0491-0.12272 0.0491-0.22091 0-0.29454 0.0246-0.02454 0.0246-0.04909 0.0491-0.07363 0.0737-0.17182 0.0491-0.29454-0.0737-0.39272v-0.02454c0.0981-0.22091-0.0246-0.36818-0.31908-0.44181h-0.0981c-0.0491-0.19636-0.0737-0.39272-0.0981-0.56454-0.0737-0.46636-0.12273-0.90817-0.19637-1.35-0.0246-0.14727-0.0246-0.31909-0.0491-0.46636-0.0246-0.19636-0.0246-0.39272-0.0491-0.58908-0.0737-0.9818-0.0491-1.9882-0.0246-2.97 0-0.61363 0.0246-1.2273 0.0246-1.8409 0-0.17182 0-0.34363 0.0246-0.53999 0.0491-0.073635 0.0737-0.14727 0.0981-0.22091 0-0.098181 0.0246-0.22091 0.0491-0.31909 0-0.024545-0.0246-0.04909-0.0246-0.073635 0.0246-0.098181 0.0491-0.19636 0.0737-0.29454-0.0737-0.098181-0.0981-0.17182-0.0737-0.26999 0-0.024545-0.0246-0.04909-0.0491-0.073636 0-0.024545 0.0246-0.024545 0.0246-0.04909-0.0737-0.073636-0.0737-0.17182-0.0491-0.24545 0-0.04909-0.0491-0.098181-0.0737-0.12272-0.0737-0.04909-0.19636-0.098181-0.27-0.12273-0.0491 0-0.0737-0.024545-0.0981-0.024545-0.0246 0-0.0246 0.024545-0.0246 0.024545-0.0246 0.024545-0.0491 0.024545-0.0981 0.04909-0.0246-0.17182-0.0491-0.31909-0.0737-0.4909 0-0.024545-0.0246-0.024545-0.0246-0.04909-0.0246-0.098181-0.0246-0.22091-0.0491-0.31909 0-0.073636-0.46635-0.24545-0.49089-0.22091 0 0.04909-0.0246 0.098181-0.0246 0.12273h-0.0246c-0.0246 0.098181-0.0491 0.19636-0.0737 0.29454h-0.0246c-0.0246 0.14727-0.0737 0.31909-0.12274 0.46636-0.0246 0.34363-0.0246 0.66272-0.0246 1.0063-0.0491 0.51545-0.0737 1.0309-0.12272 1.5463v2.0618c0 0.61363 0 1.2518 0.0491 1.8654 0 0.58908 0.0491 1.1782 0.0981 1.7672 0 0.39272 0.0246 0.7609 0.0491 1.1536-0.41727 0-0.83454-0.02454-1.2273-0.07364-0.9818-0.31908-1.9145-0.76089-2.8718-1.1291-0.24544-1.4727-0.41727-2.97-0.58907-4.4672-0.12274-0.71181-0.19637-1.4482-0.19637-2.1845v-0.34363c0.0246-0.22091-0.0246-0.44181-0.12272-0.66272 0-0.12273-0.0246-0.24545-0.0737-0.39272 0-0.04909-0.19636-0.098181-0.24545-0.098181-0.0246-0.024545-0.22091-0.098181-0.24545-0.04909-0.12273 0.098181-0.19637 0.19636-0.27 0.31909v0.04909c-0.0246 0.024545-0.0246 0.04909-0.0491 0.073636v0.073636 0.073636 0.024545c-0.0246 0.04909-0.0491 0.073636-0.0737 0.098181v0.14727s0 0.024545-0.0246 0.024545c0.0246 0.14727 0.0246 0.29454 0.0246 0.46636 0.0246 1.2273 0.0981 2.4791 0.24544 3.7063 0.0737 0.93271 0.17182 1.8409 0.27 2.749-0.0491-0.02454-0.0981-0.02454-0.14726-0.04909-0.0737-0.41727-0.17183-0.83453-0.24546-1.2518-0.0737-0.31909-0.12272-0.66272-0.17182-1.0063-0.0491-0.51545-0.0737-1.0063-0.0737-1.5218-0.0246-0.66272 0-1.35-0.0491-2.0127v-0.34363c0.0491-0.22091 0.0246-0.41727-0.0737-0.58908 0-0.14727-0.0246-0.29454-0.12272-0.44181 0-0.04909-0.17183-0.073636-0.19636-0.073636-0.0246-0.024545-0.0737-0.024545-0.12273-0.04909v-0.04909c0-0.04909-0.53999-0.22091-0.53999-0.17182-0.0737 0.098181-0.12273 0.22091-0.17182 0.36818-0.0491 0.12273-0.0737 0.24545-0.0981 0.36818-0.0491 0.098181-0.0737 0.19636-0.0737 0.29454v0.36818c0 0.24545 0 0.4909 0.0491 0.73635 0.0491 0.51545 0.0981 1.0554 0.12274 1.5954-0.0246 0.66272-0.0246 1.35-0.0246 2.0372 0 0.36818 0.0246 0.7609 0.0737 1.1291-0.0981-0.02455-0.19636-0.04909-0.29454-0.07364-0.0737 0-0.14727-0.02454-0.22092-0.02454-0.0246 0-0.0246 0.02454 0 0.02454 0.17183 0.07364 0.3191 0.12272 0.49092 0.19636-0.0981-0.02454-0.22091-0.04909-0.31909-0.04909-0.0737-0.02454-0.14727-0.04909-0.22091-0.04909-0.0246 0-0.0246 0.02454 0 0.02454 0.12273 0.04909 0.24546 0.09818 0.34364 0.14727-0.0246 0-0.0737-0.02454-0.0981-0.02454-0.0737-0.02455-0.14728-0.02455-0.22092-0.02455-0.0246 0-0.0491 0 0 0.02455 0.12274 0.04909 0.27001 0.09818 0.39273 0.14727-0.0491 0-0.0737 0-0.12272-0.02454 0.0491 0.02454-0.34363-0.04909-0.24546 0 0.12274 0.04909 0.24546 0.07363 0.34364 0.12272-0.0737 0-0.14727-0.02455-0.2209-0.04909-0.0737 0-0.14729-0.02454-0.22091-0.02454-0.0246 0-0.0246 0.02454 0 0.02454 0.24544 0.09818 0.46635 0.17182 0.68725 0.27-0.14727-0.02455-0.29454-0.04909-0.44181-0.07364-0.0737-0.02455-0.14727-0.04909-0.22091-0.04909-0.0246 0-0.0246 0.02454 0 0.02454 0.12273 0.04909 0.24547 0.09818 0.36818 0.14727-0.0491 0-0.0737-0.02454-0.0981-0.02454 0.0491 0.02454-0.36818-0.04909-0.24546 0 0.22092 0.07364 0.46636 0.17182 0.68727 0.27v0.02454c0.0246 0.07364 0.0246 0.14727 0.0491 0.24545 0 0.02454 0 0.07364 0.0246 0.09818 0.0246 0.17182 0.0491 0.34363 0.0737 0.4909 0 0.04909 0.0246 0.09818 0.0246 0.14727v0.04909c0.0246 0.02454 0.0246 0.07364 0.0246 0.09818s0.0246 0.07364 0.0246 0.09818c0.17182 0.90817 0.44181 1.7918 0.71181 2.6509 0 0.02454 0 0.04909 0.0246 0.04909 0 0.02454 0 0.04909 0.0246 0.07363 0.0246 0.09818 0.0491 0.17182 0.0981 0.27 0.0736 0.19636 0.14727 0.41727 0.24545 0.61363 0.0491 0.17182 0.12272 0.34363 0.19636 0.4909 0.17182 0.63817 0.31909 1.3009 0.46636 1.9391 0.0981 0.44181 0.22091 0.88362 0.36818 1.3009 0.0491 0.24545 0.1718 0.61363 0.31907 0.90817 0.0491 0.12272 0.0737 0.24545 0.14727 0.34363 0.0491 0.12273 0.12273 0.24545 0.22091 0.34363h0.0737c0.0246 0.02454 0.29454 0 0.22091 0 0.19636-0.02454 0.39272-0.02454 0.56454-0.04909 0.4909-0.07363 0.4909-0.07363 0.4909-0.07363 0.0737 0 0.12271-0.02454 0.17182-0.04909-0.0246-0.02454-0.0491-0.07363-0.0737-0.09818h0.0246c-0.0491-0.07364-0.0737-0.12273-0.0981-0.17182 0-0.02454 0.0246-0.02454 0.0491-0.02454l-0.0246-0.02455c0-0.02454 0.0246-0.02454 0.0491-0.02454 0.0491 0 0.12272 0 0.1718-0.02454-0.0491-0.07364-0.0981-0.17182-0.14726-0.24545h0.0246c-0.0246-0.02455-0.0491-0.07364-0.0491-0.09818 0.0246 0 0.0736-0.02455 0.12272-0.02455-0.0737-0.14727-0.14727-0.27-0.2209-0.39272l0.0246-0.02454c0.0491-0.12272 0.0737-0.24545 0.0737-0.34363 0.0246-0.02454 0.0491-0.02454 0.0491-0.02454 0.0246-0.14727 0.0491-0.29454 0.0737-0.46636 0-0.24545 0-0.51544-0.0491-0.78544-0.0246-0.04909-0.0246-0.12273-0.0491-0.19636 0-0.04909 0-0.09818-0.0246-0.17182v-0.09818c-0.0246-0.07363-0.0246-0.14727-0.0491-0.22091v-0.02454c-0.0246-0.12272-0.0491-0.2209-0.0737-0.34363-0.14727-0.63817-0.31909-1.3009-0.46636-1.9391-0.0737-0.36818-0.14727-0.73635-0.24544-1.1291 0.63816 0.31909 0.36817 0.14727 1.9391 0.53999 0.0491 0.02454 0.0981 0.02454 0.14727 0.02454 0.24544 0.02455 0.4909 0.02455 0.73634 0.04909 0.29455 0 0.61363 0.04909 0.90818 0.02454h0.0246c0.0491 0.51545 0.14727 1.0063 0.29454 1.4972 0.0737 0.29454 0.12271 0.58908 0.19635 0.85908 0.0491 0.14727 0.0737 0.27 0.12273 0.39272 0.0246 0.09818 0.0737 0.17182 0.0981 0.27 0 0.22091 0.0246 0.41727 0.0246 0.63817 0.0246 0 0.0491 0.02454 0.0491 0.02454 0 0.07364 0 0.12272 0.0246 0.19636h0.0491v0.12272c0.0491 0.02454 0.0981 0.02454 0.14727 0.02454 0.14727 0.4909 0.29454 1.0063 0.44181 1.4973h0.0246c0.0246 0.04909 0.0491 0.12272 0.0737 0.17182 0.0246 0.04909 0.0491 0.09818 0.0491 0.12273 0.0491 0.02454 0.0981 0 0.14727 0 0.14727-0.04909 0.31909-0.09818 0.46636-0.14727 0 0 0.61362-0.17182 0.58908-0.22091zm-4.1236-6.8235c-0.34363-0.12273-0.66272-0.29454-0.9818-0.46636 0.71181 0.22091 1.4236 0.41727 2.16 0.51545 0 0.04909 0.0246 0.12272 0.0246 0.17182-0.0246 0.02454-0.0737 0.02454-0.12273 0.04909 0.0246 0 0.0491-0.02455 0.0491-0.02455-0.0737 0.04909-0.17182 0.07364-0.27 0.09818-0.29454-0.09818-0.58909-0.22091-0.85907-0.34363zm0.98181-0.09818h-0.0491c-0.0737 0-0.12273-0.02454-0.17182-0.02454 0.0737 0 0.14727 0.02454 0.22091 0.02454zm-0.80999-0.93271h-0.0491 0.0981-0.0491zm-0.76089 2.0127c0.17181 0.02454 0.31908 0.04909 0.46635 0.04909 0.12272 0.02454 0.22091 0.07363 0.31909 0.09818h-0.0981c-0.12272-0.02455-0.22091-0.02455-0.34363-0.04909-0.12273-0.02454-0.24545-0.04909-0.34363-0.09818zm0.73635 0.27c-0.0981-0.02455-0.22091-0.02455-0.34364-0.04909h-0.0246c0.17182 0 0.34364 0.02454 0.54 0.02454-0.0737 0-0.12273 0.02455-0.17182 0.02455z"/>
  <path d="m145.9 6.7414c0.0246 0.04909 0.0491 0.073636 0.0737 0.12273 0.0246 0 0.0246 0 0.0246 0.024545 0.0246 0.024545 0.0491 0.04909 0.0737 0.073636 0.12273 0.17182 0.24545 0.31909 0.36818 0.4909 0-0.024545 0.0246 0 0.0246 0.024545 0.0246 0.024545 0.0246 0.04909 0.0491 0.04909 0 0 0.46636 0.66272 0.4909 0.63817 0.0737-0.073635 0.14727-0.14727 0.22091-0.19636 0 0 0.0246 0 0.0246 0.024545 0.0491 0.098181 0.12272 0.19636 0.17181 0.29454-0.0246-0.024545-0.0246-0.024545-0.0491-0.024545 0.0246 0 0.0491 0.024545 0.0491 0.024545 0.0491 0.073636 0.0737 0.12272 0.0981 0.14727 0.0246 0.04909 0.0737 0.098181 0.14727 0.12273 0.19636 0.14727 0.39272 0.29454 0.58909 0.44181 0.14727 0.098181 0.29454 0.19636 0.4418 0.31909 0.0246 0 0.0246 0.024545 0.0491 0.024545 0 0-0.0246 0-0.0246-0.024545 0.0737 0.073636 0.17183 0.12273 0.24547 0.17181 0.0491 0.02455 0.0981 0.02455 0.14727 0.04909 0.0246 0.02454 0.0491 0.04909 0.0737 0.04909 0.2209 0.14727 0.4418 0.27 0.66271 0.41727 0.12272 0.07364 0.24545 0.14727 0.36817 0.19636 0.22091 0.09818 0.27 0.12272 0.49091 0.14727 0.17181 0.04909 0.31909 0.02454 0.4909 0.02454 0.66272 0.02454 1.3254-0.19636 1.89-0.44181 0.46636-0.19636 0.93271-0.51544 1.0554-1.0309 0.0246-0.073636 0.0246-0.14727 0-0.22091v-0.04909c0.0981-0.12272 0.19637-0.24545 0.27-0.39272 0.0981-0.14727 0.0981-0.29454 0.0981-0.44181 0.12272-0.27 0.0491-0.53999-0.0491-0.80999-0.0246-0.024545-0.0246-0.04909-0.0491-0.098181-0.0246-0.073636-0.0491-0.17182-0.0981-0.26999-0.12273-0.34363-0.49091-0.53999-0.78544-0.68726-0.12274-0.04909-0.24546-0.098181-0.36818-0.14727-0.51545-0.14727-1.0554-0.27-1.5954-0.39272-0.61363-0.17182-1.2273-0.36818-1.8163-0.58908-0.0981-0.024545-0.2209-0.04909-0.31909-0.04909-0.46635-0.073636-0.88362-0.024545-1.3254 0.04909-0.41728 0.073636-0.83454 0.19636-1.2273 0.36818-0.17182 0.073636-0.34364 0.22091-0.4909 0.36818-0.0737 0.098181-0.14727 0.17182-0.24546 0.26999-0.0737 0.073635-0.12271 0.14727-0.14727 0.24545-0.0491 0.098181-0.0737 0.19636-0.0491 0.31909-0.0737 0.098181-0.0737 0.22091-0.0491 0.36818zm2.2091 1.7427 0.0246 0.024545c0.0246 0.024545 0.0491 0.073636 0.0981 0.12272-0.0491-0.024545-0.0737-0.04909-0.12272-0.073636v-0.073636zm4.2954-0.88362c-0.19636 0.24545-0.51544 0.39272-0.78544 0.53999-0.46636 0.24545-0.9818 0.29454-1.4972 0.31909-0.0981 0-0.17181 0.024545-0.26999 0.024545-0.22091 0-0.41727-0.024545-0.63818-0.04909-0.0981 0-0.22091-0.024545-0.31908-0.04909-0.0491-0.073636-0.0981-0.14727-0.12272-0.22091 0-0.024545-0.0246-0.073636-0.0246-0.098181s0-0.04909 0.0246-0.04909c0.0246-0.22091 0.12272-0.41727 0.24544-0.61363 0.12273-0.19636 0.31909-0.34363 0.51545-0.46636 0.0981-0.04909 0.19636-0.098181 0.29454-0.14727 0.24545-0.04909 0.46636-0.098181 0.68727-0.14727 0.31908-0.04909 0.61361-0.098181 0.9327-0.12273 0.0737 0.04909 0.17182 0.098181 0.24545 0.14727 0.17182 0.098181 0.34364 0.22091 0.49091 0.36818 0.12272 0.12273 0.2209 0.27 0.29454 0.44181-0.0246 0.04909-0.0491 0.073636-0.0737 0.12273z"/>
  <path d="m152.24 21.37c0.0737-0.31909 0.0981-0.66272 0.0981-1.0063 0-0.31909 0-0.61363 0.0246-0.93271 0-0.61363-0.0246-1.2273-0.0246-1.8654-0.0246-1.0063 0-2.0127-0.0246-2.9945 0-0.29454-0.0246-0.56454-0.0737-0.85908-0.0246-0.17182-0.0737-0.31908-0.12272-0.46636-0.0737-0.34363-0.22091-0.61363-0.39273-0.90817-0.0491-0.09818-0.12272-0.19636-0.19636-0.29454-0.12272-0.17182-0.12272-0.12272-0.34363-0.2209-0.0246-0.02455-0.0737-0.02455-0.0981-0.02455-0.0491-0.14727-0.12272-0.24545-0.2209-0.36818-0.0246-0.19636-0.0737-0.41727-0.12273-0.61363 0 0-0.0246-0.02454-0.0491-0.02454-0.0246-0.12272-0.0491-0.24545-0.0737-0.36818 0-0.07364-0.41727-0.14727-0.44182-0.14727 0 0-0.4909-0.12272-0.4909-0.09818 0 0.04909-0.0246 0.09818-0.0491 0.12273-0.0737 0.19636-0.14727 0.39272-0.19636 0.58908v0.07363c-0.0246 0.07364-0.0491 0.14727-0.0737 0.22091 0.0737 0.4909 0.0491 0.9818-0.0246 1.4727-0.0491 0.39272-0.0981 0.7609-0.14727 1.1536-0.0491 0.36818-0.12272 0.7609-0.19636 1.1536-0.12273 0.85908-0.22091 1.7182-0.31909 2.6018 0 0.07364-0.0246 0.14727-0.0246 0.22091v0.09818c-0.0246 0.14727-0.0246 0.31909-0.0491 0.46636v0.09818 0.02455c0 0.09818-0.0246 0.19636-0.0246 0.29454-0.0246 0.61363-0.0246 1.2027 0.0491 1.8163h0.0246c0 0.04909 0 0.12273 0.0246 0.17182 0 0 0.0246 0 0.0246 0.02455v0.07363c0.0491 0.04909 0.12274 0.07364 0.17182 0.09818 0.22091 0.07364 0.44181 0.14727 0.66272 0.19636v0.02454 0.09818s-0.0246 0-0.0246 0.02455c0 0.07363 0 0.17182 0.0246 0.24545 0 0.02454 0 0.04909-0.0246 0.04909 0 0.09818 0 0.19636 0.0246 0.29454h0.0246c0 0.07364 0.0246 0.12273 0.0246 0.17182 0.0246 0 0.0246 0 0.0246 0.02454 0 0.02455 0.0246 0.07364 0.0246 0.09818 0.0491 0.02454 0.0981 0.04909 0.17182 0.04909 0.19636 0.04909 0.39271 0.07363 0.61362 0.12272h0.0491c0.0491 0.02455 0.0736 0.04909 0.14727 0.04909h0.17181c0.0737 0.02454 0.17182 0.02454 0.24546 0.04909 0.0491 0 0.0981 0.02454 0.17181 0 0.14727 0 0.63818 0.04909 0.66272 0 0.17182-0.34363 0.29454-0.71181 0.36818-1.08z"/>
  <path d="m160.04 22.008c-0.0246-0.07363-0.0491-0.12272-0.0737-0.17182-0.0246-0.07363-0.0737-0.14727-0.12273-0.19636-0.0246-0.02454-0.0246-0.02454-0.0246-0.04909 0.0491 0.02455 0.0737 0.02455 0.12273 0.02455-0.0246-0.04909-0.0491-0.12272-0.0737-0.17182-0.0246-0.09818-0.0981-0.17182-0.17182-0.24545-0.0737-0.04909-0.19636-0.17182-0.26999-0.19636h-0.0737c-0.12273-0.17182-0.19636-0.34363-0.29455-0.51545-0.12272-0.24545-0.19636-0.51544-0.29454-0.78544-0.0246-0.12272-0.0491-0.24545-0.0737-0.39272s-0.0491-0.29454-0.0737-0.44181v-0.2209c-0.0737-0.73635-0.14728-1.4727-0.22091-2.2091 0-0.19636-0.0246-0.41727-0.0491-0.61363 0-0.27 0-0.56454 0.0246-0.83453 0-0.12272 0-0.27-0.0246-0.41726-0.0246-0.22091 0-0.46636 0.0246-0.68726 0-0.02455-0.0491-0.02455-0.0981-0.04909v-0.09818c0-0.07364 0-0.14727 0.0246-0.2209 0-0.02454-0.0491-0.04909-0.12272-0.07364 0-0.29454-0.0246-0.58908-0.0246-0.88362 0.17182-0.02454 0.31909-0.04909 0.46636-0.09818 1.5218-0.31909 3.019-0.7609 4.5163-1.2273 0.73635-0.24545 1.4972-0.44181 2.2336-0.71181 0.90817-0.29454 1.7918-0.68726 2.6018-1.2027 0.26998-0.17182 0.44181-0.41727 0.61361-0.68726 0.0981-0.17182 0.14727-0.34363 0.14727-0.53999 0-0.024545-0.0246-0.073636-0.0246-0.098181v-0.024545c0.0491-0.19636 0.0246-0.39272-0.0246-0.56454-0.0246-0.098181-0.0491-0.17182-0.0737-0.24545-0.0246-0.073636-0.0246-0.12273-0.0491-0.17182 0-0.04909-0.0246-0.073636-0.0246-0.098181 0.0246-0.12272-0.0491-0.29454-0.12272-0.41727 0-0.12272-0.0491-0.24545-0.0737-0.34363-0.0491-0.14727-0.14727-0.34363-0.24545-0.44181-0.17182-0.17182-0.27-0.29454-0.46636-0.41727-0.17181-0.14727-0.39271-0.29454-0.58908-0.41727-0.19636-0.12273-0.39271-0.27-0.61362-0.36818-0.3191-0.17182-0.63818-0.29454-0.95726-0.41727-0.61363-0.19636-1.2518-0.29454-1.89-0.39272-0.7609-0.14727-1.5463-0.22091-2.3318-0.27-1.1536-0.098181-2.3318-0.024545-3.4854 0-0.36818 0.024545-0.76089 0.073635-1.1291 0.098181-0.7609 0.073636-1.4727 0.24545-2.1845 0.46636-0.0737 0.024545-0.12274 0.024545-0.17182 0.024545-0.0981 0.024545-0.19636 0.04909-0.26999 0.12272-0.12273 0.073636-0.19636 0.17182-0.29455 0.27l0.0246 0.024545c-0.0246 0.024545-0.0491 0.04909-0.0737 0.073636-0.0246 0.024545 0 0.024545 0 0.04909l-0.0246 0.024545c-0.0246 0.024545 0 0.024545 0.0246 0.04909l-0.0246 0.024545v0.024545c-0.0491 0.024545-0.0737 0.04909-0.12273 0.098181 0 0 0.0246 0.024545 0.0491 0.04909-0.0246 0.024545-0.0491 0.04909-0.0737 0.073636 0 0 0 0.024545 0.0246 0.04909l-0.0246 0.024545c-0.0246 0.024545 0.46636 0.39272 0.56454 0.36818 0.24545-0.024545 0.51544-0.098181 0.76089-0.14727 1.3254-0.29454 2.6754-0.39272 4.0254-0.46636 1.5954-0.098181 3.2154 0.04909 4.8108 0.22091 0.31909 0.04909 0.63819 0.098181 0.95727 0.14727-0.41727 0-0.83453 0.024545-1.2763 0.073636-0.36818 0.024545-0.73636 0.073636-1.1045 0.098181-0.34363 0.04909-0.66271 0.073636-1.0063 0.12273-0.0491 0.024545 0.0246 0.073636 0.0246 0.098181h-0.0981c-0.0491 0-0.0246 0.04909 0 0.073635h-0.0246c-0.0246 0-0.0246 0.024545 0 0.04909-0.0246 0 0.0246 0.04909 0.0491 0.098181h-0.17181c-0.0246 0.024545 0.0246 0.073636 0.0491 0.098181-0.0246 0.024545-0.0491 0.024545-0.0737 0.024545s0 0.024545 0.0246 0.04909h-0.0246c-0.0246 0.024545 0.2209 0.27 0.19635 0.24545 0.0491 0.04909 0.19637 0.22091 0.27001 0.19636 1.6445-0.19636 3.3381-0.19636 4.9581 0.098181 0.17183 0.024545 0.3191 0.04909 0.46637 0.098181-0.0491 0.073636-0.0737 0.14727-0.0737 0.24545-0.0246 0 0 0.024545 0.0246 0.04909-0.0246 0.024545-0.0246 0.04909-0.0246 0.073636-0.0246 0.024545 0 0.04909 0.0246 0.04909 0 0.024545-0.0246 0.024545-0.0246 0.04909s0.17181 0.17182 0.17181 0.17182c0.0246 0.024545 0.0737 0.04909 0.12272 0.098181-0.68726 0.44181-1.4972 0.71181-2.2581 0.95726-0.68726 0.22091-1.3745 0.39272-2.0618 0.58908-0.0491 0.024545-0.0981 0.024545-0.14727 0.04909-1.0309 0.31909-2.0618 0.61363-3.0927 0.88362-0.49091 0.12272-1.0063 0.24545-1.4972 0.34363-0.0246-0.85908-0.0981-1.7427-0.17181-2.6263-0.0246-0.34363 0-0.68726-0.0491-1.0554 0-0.17182-0.0246-0.34363-0.0246-0.51545 0-0.14727-0.0491-0.29454-0.0981-0.41726 0-0.12273-0.0246-0.24545-0.0491-0.36818 0-0.073636-0.39272-0.22091-0.41726-0.17182-0.0246 0.04909-0.0246 0.073636-0.0491 0.12272-0.0737 0.17182-0.12273 0.31909-0.19636 0.4909v0.04909c-0.0246 0.073636-0.0491 0.14727-0.0737 0.24545 0-0.04909-0.0246-0.098181-0.0246-0.14727 0 0-0.0246 0-0.0737-0.024545 0-0.12272-0.0246-0.22091-0.0246-0.34363 0-0.04909-1.0554-0.14727-1.0554-0.098181-0.0246 0.04909-0.0246 0.073635-0.0246 0.12273h-0.0246c-0.0246 0.12272-0.0246 0.22091-0.0246 0.31909-0.0491 0-0.0737 0.024545-0.0737 0.024545-0.0737 0.80999-0.0491 1.6445 0.0491 2.4545 0 0.073636 0.0246 0.14727 0.0246 0.22091 0 0.73635-0.0246 1.4727-0.0491 2.2091-0.78544 0.14727-1.5954 0.31908-2.4054 0.4909 0.0246 0.04909 0.0246 0.07363 0.0491 0.09818-0.0246 0.02454-0.0736 0.02454-0.0981 0.02454 0 0.04909 0.0246 0.07363 0.0246 0.09818 0.0246 0.04909 0.0491 0.09818 0.0737 0.14727-0.0491 0.02455-0.0981 0.02455-0.12273 0.02455 0 0.07363 0.0246 0.12272 0.0737 0.17182 0.0491 0.09818 0.12273 0.19636 0.17182 0.29454 0.0981 0.17182 0.19636 0.36818 0.29453 0.53999 0.12274 0.19636 0.24546 0.39272 0.36818 0.58908 0.0246 0.07364 0.0491 0.12273 0.0981 0.14727 0.46636-0.02455 0.93272-0.07364 1.3991-0.12273 0 0.73635-0.0246 1.4727-0.0491 2.2091-0.0737 1.2763-0.0246 2.5527 0.17182 3.829 0 0.04909 0.0246 0.09818 0.0246 0.12273-0.0246 0.2209-0.0246 0.44181-0.0246 0.63817v0.34363 0.04909 0.02455s0 0.02454-0.0246 0.02454c-0.0246 0.04909 0 0.07364 0.0246 0.12273-0.0246 0.04909 0 0.07364 0.0246 0.09818v0.04909h-0.0246c0 0.02454-0.0246 0.02454-0.0246 0.04909-0.0491 0.04909 0 0.09818 0.0491 0.14727 0 0.02455 0 0.02455-0.0246 0.02455-0.0246 0.04909 0 0.09818 0.0246 0.12273-0.0491 0.09818 0.0737 0.14727 0.14727 0.19636 0.17181 0.12273 0.34363 0.19636 0.51544 0.24545-0.0246 0-0.0491 0.02454-0.0981 0.02454-0.0491 0.02454 0.0246 0.04909 0.0246 0.04909 0.0491 0.02455 0.0981 0.02455 0.14727 0.02455-0.0491 0.02454-0.0981 0.04909-0.14727 0.07363-0.0491 0 0.0246 0.02454 0.0246 0.02454v0.02455c-0.0246 0-0.0491 0-0.0737 0.02454-0.0246 0 0.0246 0.02454 0.0246 0.02454 0.0491 0.02454 0.14727 0.04909 0.19636 0.04909-0.0491 0.04909-0.0981 0.07364-0.19636 0.09818-0.0491 0.02454 0.0246 0.04909 0.0246 0.04909 0.0246 0 0.0737 0.02454 0.12273 0.02454-0.0491 0.02454-0.0737 0.02454-0.14727 0.04909-0.0246 0 0.0246 0.02454 0.0246 0.02454 0.0981 0.04909 0.2209 0.04909 0.31909 0.04909 0.26999-0.02454 0.4418-0.04909 0.6627-0.17182 0.0737-0.04909-0.0981-0.07363-0.12272-0.04909-0.14727 0.04909-0.29454 0.07364-0.41726 0.09818 0.17181-0.02454 0.31908-0.07364 0.51544-0.17182 0.0491-0.04909-0.0981-0.04909-0.12273-0.04909-0.0737 0.02454-0.14726 0.04909-0.2209 0.07364v-0.02454c0.0246-0.02455 0-0.04909 0-0.04909v-0.02454c0.0246 0 0.0736 0 0.0981-0.02454 0.0246 0.02454 0.0491 0.02454 0.0737 0.02454v-0.04909c0.0491-0.02455 0.0737-0.02455 0.12274-0.04909v-0.02454c0.0491-0.02454 0.0737-0.02454 0.12272-0.04909 0.0737-0.04909-0.0981-0.07364-0.14727-0.04909h-0.0491s-0.0246 0-0.0246-0.02454c0.0491-0.02454 0.0981-0.04909 0.14726-0.07364 0.0737-0.02455-0.0981-0.04909-0.12272-0.04909-0.0246 0.02454-0.0491 0.02454-0.0491 0.02454h-0.0246c0.0246 0 0.0491-0.02454 0.0491-0.02454h0.0491v-0.02454c0.0246 0 0.0491-0.02454 0.0737-0.02454 0.0491-0.04909-0.0491-0.04909-0.0981-0.04909v-0.02454c0.0491-0.02454 0.0737-0.04909 0.12273-0.07363 0.12272 0.07363 0.26999 0.12272 0.39272 0.17182 0.0491 0.04909 0.0981 0.04909 0.14727 0.04909 0-0.04909-0.0246-0.09818-0.0491-0.17182 0.0246 0.02454 0.0491 0.02454 0.0737 0.04909-0.0246-0.04909-0.0246-0.12273-0.0491-0.17182 0.0246 0 0.0491 0 0.0737 0.02454 0.0737 0.14727 0.14727 0.31909 0.24545 0.46636 0.17182 0.27 0.27 0.29454 0.51545 0.46636 0.0246 0.02454 0.0737 0.02454 0.0981 0.04909 0.19636 0.07364 0.39272 0.12272 0.58907 0.19636 0.19636 0.07363 0.36818 0.12272 0.56454 0.19636 0.0491 0 0.12274 0.02454 0.17181 0.02454-0.0246-0.07363-0.0736-0.12272-0.0981-0.17182 0-0.04909-0.0246-0.09818-0.0737-0.14727h0.0246c-0.0246-0.04909-0.0491-0.07364-0.0491-0.12272 0.0246 0.02454 0.0491 0.02454 0.0981 0.02454 0.0491 0.02455 0.0981 0.04909 0.14727 0.04909zm7.0199-16.666c0.0246 0.024545 0.0246 0.024545 0.0491 0.04909-0.0491-0.024545-0.0981-0.073636-0.17182-0.098181l-0.0246-0.024545c0.0491 0.024545 0.0981 0.04909 0.14727 0.073636zm-0.0737-0.39272c0.0246 0.024545 0.0246 0.04909 0.0491 0.073636-0.0246-0.024545-0.0246-0.024545-0.0491-0.04909-0.0491-0.024545-0.0981-0.04909-0.12273-0.073636 0.0246 0 0.0737 0.024545 0.12273 0.04909zm-0.12273 0.44181h-0.0246v-0.024545c0 0.024545 0.0246 0.024545 0.0246 0.024545zm-0.26999-0.61363c0.0246 0.024545 0.0491 0.024545 0.0491 0.04909 0-0.024545-0.0246-0.024545-0.0491-0.04909zm-9.4744 16.2c-0.0246 0-0.0246 0-0.0246 0.02454 0-0.02454-0.0246-0.02454-0.0246-0.02454h0.0491z"/>
  <path d="m175.36 4.1642c0 0.024545-0.0246 0.04909-0.0246 0.073636 0 0.024545 0 0.04909 0.0246 0.073636 0 0-0.0246 0-0.0246 0.024545 0.0737 0.12273 0.12272 0.27 0.17181 0.41727 0.0491 0.22091 0.0737 0.41727 0.0981 0.61363 0 0.098181 0.0246 0.19636 0.0246 0.26999 0.0246 0.17182 0.0246 0.31909 0.0246 0.46636 0.0491 0.31909 0.0737 0.66272 0.0737 0.9818 0.0491 0.71181 0.0981 1.3991 0.12273 2.0863 0.0737 0.9818 0.12272 1.9636 0.31908 2.8963 0.0246 0.07363 0.0246 0.12272 0.0491 0.19636 0 0.31908 0.0246 0.68726 0.12273 0.9818 0 0.07364 0.0246 0.14727 0.0491 0.22091 0 0.04909 0.0246 0.07363 0.0246 0.09818 0.0246 0.07363 0.56454 0.02454 0.56454 0.02454h0.46635c0.0246 0 0.0737 0 0.0981-0.02454 0.0491-0.02455 0.0737-0.04909 0.12271-0.07364 0.0246 0 0.0491-0.02454 0.0737-0.04909 0.12273 0 0.17183-0.04909 0.14727-0.14727 0-0.02455 0.0246-0.04909 0.0246-0.09818s0-0.09818 0.0246-0.12273c0.0246-0.02454 0.0246-0.07364 0.0246-0.14727 0-0.02454 0.0246-0.04909 0.0246-0.09818 0.0246-0.14727 0.0246-0.31908 0.0491-0.4909 0.0246-0.24545 0.0246-0.46636 0.0246-0.71181 0.0246-1.08 0.0491-2.1845 0.0491-3.289 0-1.1291-0.0491-2.2827-0.12272-3.4118-0.0246-0.24545-0.0246-0.4909-0.0491-0.71181-0.0491-0.19636-0.0737-0.39272-0.12273-0.56454-0.0246-0.073636-0.0491-0.14727-0.0737-0.19636-0.0246-0.073636-0.0491-0.12273-0.0491-0.19636-0.0491-0.24545-0.19636-0.29454-0.36818-0.41727-0.0737-0.024545-0.12273-0.04909-0.19636-0.04909-0.0981-0.04909-0.22091-0.073636-0.34363-0.073636 0 0-0.26999-0.04909-0.19636 0 0.0246 0 0 0.04909 0 0.098181-0.0491 0-0.0491 0-0.0246 0.024545v0.024545c0 0.024545-0.0246 0.04909-0.0246 0.073636-0.0246 0.024545-0.0246 0.04909-0.0246 0.04909v0.024545c-0.0246 0.073636-0.0491 0.12273-0.0491 0.12273 0 0.024545 0.0246 0.04909 0.0246 0.073636l-0.0246 0.024545 0.0246 0.024545c-0.0491 0.073636-0.0737 0.17182-0.0737 0.17182 0 0.04909 0 0.098181 0.0246 0.12273-0.0246 0.024545-0.0246 0.04909-0.0246 0.04909 0.0246 0.073636 0.0246 0.12272 0.0491 0.19636 0 0.024545 0 0.04909 0.0246 0.098181-0.0491-0.098181-0.0981-0.19636-0.17182-0.29454-0.0491-0.04909-0.0981-0.098181-0.14727-0.12273-0.0737-0.024545-0.51545-0.19636-0.56454-0.12272-0.0491 0.098181-0.12272 0.17182-0.19635 0.26999 0.0246 0.024545 0.0246 0.024545 0.0246 0.04909-0.0246 0.024545-0.0246 0.04909-0.0491 0.073636 0 0.024545 0.0246 0.04909 0.0246 0.073636l-0.0246 0.024545c0 0.04909 0.0246 0.073635 0.0246 0.098181-0.0246 0.04909-0.0491 0.073636-0.0983 0.12272 0.0246 0.024545 0.0491 0.073636 0.0491 0.098181z"/>
  <path d="m184.81 4.8269v0.024545 0.073636c0.0491 0.14727 0.0981 0.26999 0.14728 0.41727 0.0737 0.24545 0.14727 0.46636 0.2209 0.71181 0.0246 0.29454 0.0737 0.58908 0.0981 0.90817 0.0491 0.68726 0.0981 1.3745 0.12272 2.0618 0.0737 1.3745 0.12273 2.749 0.22091 4.1481 0 0 0.0246 0 0.0246 0.02454 0 0.04909 0.0246 0.09818 0.0246 0.14727l0.0246 0.02454c0.0246 0.02455 0.0246 0.04909 0.0246 0.07364 0.0491 0.02454 0.0981 0.04909 0.14727 0.07364 0.22091 0.04909 0.41726 0.12273 0.63817 0.17182-0.0246 0 0.12272 0.04909 0.27 0.07363v0.02454c0.0246 0.04909 0.0736 0.07364 0.14727 0.07364 0.17181 0.09818 0.36817 0.17182 0.56454 0.24545 0 0 0.68726 0.29454 0.7118 0.24545 0.14727-0.19636 0.27-0.39272 0.31909-0.63817 0.0246-0.07364 0.0246-0.17182 0.0491-0.24545 0-0.04909 0.0246-0.07364 0.0246-0.12273 0.0246-0.12272 0.0246-0.24545 0.0491-0.36818-0.0246-0.29454-0.0491-0.58908-0.0737-0.88362-0.0737-0.83453-0.19636-1.6445-0.29454-2.4545-0.0981-0.71181-0.17182-1.4236-0.29454-2.16-0.0737-0.53999-0.19636-1.08-0.34364-1.6445-0.0246-0.04909-0.0491-0.12273-0.0737-0.19636-0.0246-0.073636-0.0491-0.12273-0.0491-0.19636-0.0737-0.17182-0.14727-0.36818-0.2209-0.53999-0.12273-0.39272-0.34363-0.73635-0.61363-1.0554-0.0491-0.098181-0.29454-0.12272-0.36817-0.14727 0 0-0.39273-0.073636-0.39273-0.073636 0.0246 0.04909 0.0491 0.098181 0.0491 0.14727h-0.0737v-0.073636c-0.0246-0.073636-0.22091-0.098181-0.29454-0.12273-0.17181-0.04909-0.31908-0.073636-0.4909-0.12272-0.0246 0-0.14728-0.024545-0.19635-0.024545-0.0246 0-0.0246 0.024545-0.0246 0.024545-0.0246 0.024545-0.0246 0.073636-0.0246 0.12272h-0.0246c-0.0246 0.073636-0.0246 0.17182-0.0246 0.29454-0.0246 0-0.0246 0-0.0246 0.024545-0.0491 0.073636-0.0491 0.22091-0.0491 0.34363 0 0.19636 0.0491 0.41727 0.0737 0.58908z"/>
  <path d="m194.18 6.8396c0 0.51545 0.0246 1.0309 0.0491 1.5463-0.0246 0.19636-0.0246 0.34363 0 0.51545 0.0246 0.12273 0.0491 0.22091 0.0737 0.31909 0 0.12272 0 0.27-0.0246 0.39272 0 0.78544-0.0491 1.5463-0.0246 2.3072 0 0.39272 0.0246 0.7609 0.0737 1.1291 0.0246 0.07363 0.0246 0.12273 0.0491 0.17182v0.02455c0.0246 0.19636 0.0737 0.36818 0.14727 0.56454 0.0246 0.07364 0.0491 0.14727 0.0737 0.19636 0.0491 0.19636 0.14728 0.36818 0.24546 0.51544v0.24545c0.0246 0.02454 0.0246 0.02454 0.0491 0.02454v0.19636c0 0.02454 0.0246 0.02454 0.0246 0.02454v0.12272c0.0491 0.02454 0.0981 0.02454 0.14727 0.02454h0.49089s0.61363 0 0.61363-0.04909c0.0981-0.56454 0.22091-1.1291 0.31909-1.6936v-0.02454c0.0246-0.09818 0.0491-0.22091 0.0491-0.34363 0.0246-1.1045 0.0491-2.2336 0.0491-3.3627 0.0246-0.58908 0.0246-1.1782 0.0491-1.7672 0.12272-1.2273 0.0491-2.4545-0.27-3.6818-0.0246-0.12272-0.0246-0.24545-0.0491-0.36818-0.0246-0.073636-0.4909-0.22091-0.51544-0.19636 0 0.04909-0.0246 0.098181-0.0491 0.14727-0.0491 0.17182-0.12273 0.34363-0.17181 0.51545 0-0.073636 0-0.12272-0.0246-0.19636 0-0.04909-0.29454-0.12272-0.31909-0.14727-0.0246 0-0.29454-0.12273-0.34363-0.073636-0.0737 0.073636-0.17182 0.17182-0.24545 0.27-0.12273 0.12272-0.19636 0.24545-0.24545 0.39272-0.0491 0.12272-0.0737 0.22091-0.0737 0.34363-0.0737 0.12273-0.0981 0.27-0.0737 0.41727-0.0981 0.4909-0.0737 1.0063-0.0737 1.4972z"/>
  <path d="m173.96 17.001c0.0981 0.24545 0.22091 0.46636 0.36818 0.68726 0-0.02455-0.0246-0.02455-0.0491-0.04909 0.0246 0.02454 0.0491 0.04909 0.0737 0.04909 0.0246 0.04909 0.0737 0.09818 0.0981 0.14727-0.0491-0.02454-0.0981-0.04909-0.14727-0.09818 0.0737 0.04909 0.12271 0.09818 0.17181 0.12272 0.0981 0.14727 0.2209 0.29454 0.29453 0.39272h-0.0246 0.0246c0.0246 0.04909 0.0737 0.09818 0.0981 0.14727 0.0491 0.04909 0.0981 0.07363 0.17183 0.09818 0.19635 0.09818 0.39271 0.19636 0.58908 0.27 0.0491 0.02454 0.0737 0.04909 0.12272 0.04909 0.0981 0.04909 0.19636 0.09818 0.26999 0.14727 0.0737 0.02454 0.14728 0.04909 0.19637 0.09818-0.0246-0.02454-0.0491-0.04909-0.0737-0.07364 0.0981 0.04909 0.19636 0.09818 0.31908 0.14727 0.0491 0.04909 0.12273 0.04909 0.19637 0.07364 0.31908 0.02454 0.61363 0 0.9327 0 0.88363-0.04909 1.7427-0.27 2.5282-0.66272 0.14727-0.09818 0.29454-0.22091 0.41726-0.36818 0.12273-0.12272 0.22091-0.27 0.27-0.44181 0.0491-0.12273 0.0491-0.2209 0.0491-0.34363v-0.02455c0.0491-0.17182 0.0737-0.31909 0.0246-0.4909 0-0.12272-0.0491-0.24545-0.0981-0.34363-0.0246-0.09818-0.0491-0.19636-0.0737-0.29454-0.0737-0.17182-0.19637-0.31908-0.34364-0.44181-0.14727-0.12272-0.31908-0.22091-0.4909-0.29454-0.22091-0.07364-0.46636-0.12272-0.68727-0.19636-0.1718-0.02454-0.36817-0.07364-0.53998-0.12273-0.0491-0.02454-0.12274-0.04909-0.0981-0.04909-0.0981-0.04909-0.17182-0.07364-0.27-0.12272h0.0491c0.0981 0.04909 0.2209 0.12272 0.31908 0.12272 0.0981 0.02454-0.19636-0.12272-0.14726-0.09818-0.17182-0.09818-0.31909-0.17182-0.4909-0.24545 0.0981 0 0.17181 0.02455 0.24544 0.02455 0.0981 0.07364 0.22091 0.12272 0.34363 0.14727 0.0981 0-0.19636-0.14727-0.14727-0.12273-0.0737-0.02455-0.1718-0.07364-0.24544-0.12272 0.0737 0.02455 0.14727 0.02455 0.22091 0.04909 0.0981 0.04909 0.22089 0.09818 0.34362 0.12273 0.0981 0.02454-0.22091-0.14727-0.17182-0.12273-0.0981-0.04909-0.19636-0.09818-0.29454-0.14727h0.0246c0.0981 0.04909 0.22091 0.12272 0.34364 0.14727 0.0737 0-0.19637-0.14727-0.14728-0.12272-0.0981-0.04909-0.19636-0.09818-0.29453-0.14727 0.0246 0 0.0491 0.02455 0.0737 0.02455 0.0981 0.04909 0.2209 0.09818 0.31908 0.12273 0.0981 0-0.12272-0.12273-0.12272-0.09818-0.14727-0.07364-0.26999-0.14727-0.39272-0.19636 0.0737 0 0.17182 0.02454 0.24545 0.02454 0.0981 0.07364 0.22091 0.12272 0.31908 0.14727 0.0981 0-0.17181-0.12273-0.12273-0.12273-0.17181-0.07364-0.36818-0.17182-0.56453-0.26999-0.26999-0.12273-0.53999-0.17182-0.83453-0.24545-0.39273-0.09818-0.78544-0.07364-1.1782-0.07364-0.31909-0.02454-0.61362 0.09818-0.90816 0.27-0.29455 0.14727-0.54 0.44181-0.7609 0.68726-0.12273 0.17182-0.19637 0.34363-0.27 0.53999-0.0737 0.14727-0.0981 0.31908-0.14727 0.4909-0.0246 0.07363-0.0246 0.12273-0.0246 0.19636-0.0246 0.02454-0.0246 0.07364-0.0246 0.09818-0.0491 0.17182-0.0246 0.34363 0 0.51545 0.0246 0.12272 0.0737 0.27 0.12273 0.39272zm1.7672 1.5709c-0.0491-0.02454-0.12273-0.02454-0.17182-0.04909-0.0491-0.02455-0.0981-0.07364-0.14726-0.09818 0.0737 0.02454 0.14726 0.07364 0.22091 0.09818 0.0491 0.02454 0.0737 0.02454 0.12271 0.04909h-0.0246zm-0.29455-0.27v-0.02454 0.02454zm0-0.36818c0.0981 0.04909 0.19638 0.09818 0.29455 0.14727-0.0737-0.02455-0.12273-0.04909-0.19636-0.07364-0.0246-0.02454-0.0737-0.04909-0.0981-0.07364zm2.9454-2.7981h0.0246c-0.0491 0-0.0737 0-0.12272-0.02455 0.0491 0.02455 0.0737 0.02455 0.0981 0.02455zm-3.1909 2.2336c0.12272-0.46636 0.41726-0.83453 0.7118-1.1782 0.12273-0.14727 0.29455-0.29454 0.46636-0.41727 0 0 0.0246 0.02454 0.0491 0.02454 0.17183 0 0.34363 0.02454 0.4909 0.04909 0.39273 0.19636 0.78545 0.41727 1.1536 0.61363 0.19635 0.12273 0.36818 0.24545 0.51545 0.39272 0.0491 0.04909 0.12271 0.09818 0.17181 0.14727 0.0246 0.04909 0.0737 0.09818 0.0981 0.14727-0.12273 0.14727-0.27 0.29454-0.41727 0.39272s-0.31909 0.17182-0.51545 0.2209c-0.27 0.12273-0.58907 0.17182-0.88361 0.19636-0.41727 0.04909-0.83454 0.04909-1.2273 0-0.0737-0.02454-0.14728-0.04909-0.22091-0.07364-0.12273-0.07363-0.24545-0.17182-0.39272-0.27 0-0.02454-0.0246-0.04909-0.0491-0.07363v-0.02455c0.0246-0.04909 0.0246-0.09818 0.0491-0.14727z"/>
  <path d="m178.5 14.547z"/>
  <path d="m187.39 14.866c-0.12272-0.09818-0.19635-0.07364-0.19635 0.02455v0.02454c-0.0246 0-0.0246 0.02455-0.0491 0.04909-0.12273 0-0.27 0-0.39272 0.04909-0.22091 0.04909-0.36818 0.22091-0.44182 0.44181-0.0981 0.17182-0.14727 0.39272-0.17181 0.53999-0.0491 0.12273-0.0491 0.22091-0.0737 0.31909v0.19636c-0.0246 0.09818 0 0.19636 0.0246 0.27 0.0737 0.17182 0.12271 0.31909 0.17182 0.44181 0.0491 0.12272 0.0737 0.24545 0.12272 0.34363 0.0491 0.14727 0.12273 0.27 0.26999 0.41727 0.19637 0.19636 0.39273 0.39272 0.61363 0.58908 0.0246 0.04909 0.0737 0.09818 0.12272 0.17182-0.0246-0.04909-0.0491-0.07364-0.0737-0.12272 0.0491 0.04909 0.0983 0.09818 0.14727 0.14727 0.0737 0.07364 0.26999 0.27 0.39272 0.31908 0.27 0.09818 0.27 0.09818 0.27 0.09818 0.24545 0.04909 0.46636 0.07363 0.71181 0.04909 0.27 0 0.58908-0.07363 0.83452-0.14727 0.54-0.14727 1.0064-0.44181 1.3745-0.83453 0.19637-0.17182 0.27-0.39272 0.31909-0.63817 0.0246-0.04909 0.0246-0.12273 0-0.17182 0.0246-0.04909 0.0491-0.12273 0.0491-0.17182 0.0491-0.19636-0.0246-0.36818-0.12273-0.51545-0.0246-0.09818-0.0491-0.22091-0.0981-0.31909-0.0981-0.24545-0.31909-0.36818-0.51545-0.4909-0.0981-0.04909-0.19636-0.09818-0.29454-0.14727-0.83455-0.27-1.6445-0.51545-2.4791-0.73635-0.17182-0.07364-0.34363-0.14727-0.51545-0.19636zm-0.34362 3.1418v-0.04909c0.0246 0.02454 0.0491 0.04909 0.0737 0.07363-0.0246 0-0.0491-0.02454-0.0737-0.02454zm1.0063-1.6936c0.12272 0 0.27 0 0.39273 0.02454 0.0737 0.02454 0.12272 0.07363 0.19635 0.09818 0.14727 0.12272 0.29455 0.24545 0.41727 0.39272 0.12273 0.07363 0.19636 0.17182 0.27 0.27-0.12273 0.17181-0.34363 0.26999-0.51545 0.36818-0.14727 0.07364-0.29454 0.14727-0.46636 0.19636-0.19636 0.07363-0.41727 0.07363-0.63817 0.07363h-0.14726c-0.17183-0.04909-0.3191-0.12272-0.46637-0.19636-0.0246-0.02454-0.0246-0.07364-0.0246-0.09818 0.0246-0.17182 0.0737-0.34363 0.14727-0.51545 0.0736-0.2209 0.26999-0.36818 0.44181-0.51545 0.0981-0.07363 0.19636-0.12273 0.29454-0.14727 0.0246 0.02454 0.0491 0.02454 0.0981 0.04909z"/>
  <path d="m196.03 16.633c-0.0491 0-0.0981 0.02454-0.12272 0.02454-0.12273 0-0.17182 0.02454-0.14727 0.12273-0.0737 0.02454-0.0737 0.07364-0.0491 0.14727-0.0246 0.02454 0 0.04909 0 0.07364h-0.0246c-0.0491 0.02454-0.12273 0.04909-0.17182 0.07363-0.12272 0.04909-0.24545 0.12272-0.34363 0.19636-0.22091 0.17182-0.36818 0.44181-0.49091 0.68726 0 0.02454 0 0.02454-0.0246 0.04909-0.0737 0.14727-0.12272 0.31909-0.14727 0.4909-0.0981 0.36818-0.0737 0.83453 0.0981 1.1536 0.0246 0.07364 0.0491 0.12272 0.0737 0.17182 0 0.04909 0.0246 0.09818 0.0491 0.14727 0.0246 0.07363 0.0737 0.12273 0.12273 0.17182 0.24545 0.29454 0.51545 0.56454 0.78545 0.85908 0.0491 0.04909 0.0981 0.09818 0.14727 0.14727-0.0246-0.02454-0.0491-0.04909-0.0737-0.07363 0.0981 0.07363 0.17181 0.17182 0.24545 0.24545 0.0981 0.04909 0.19636 0.09818 0.31909 0.12273 0.27 0.12273 0.58908 0.09818 0.85908 0.09818 0.36817 0 0.76089-0.09818 1.1291-0.17182 0.73635-0.17182 1.4236-0.46636 2.0372-0.93271 0.19636-0.14727 0.29454-0.36818 0.36818-0.58908 0.0246-0.09818 0.0246-0.17182 0.0246-0.27 0.0491-0.12273 0.0491-0.24545 0.0491-0.36818-0.0246-0.14727-0.0491-0.27-0.14727-0.39272 0-0.14727-0.0491-0.29454-0.14726-0.41727-0.0983-0.12272-0.2209-0.24545-0.34364-0.34363-0.17182-0.09818-0.34363-0.19636-0.51545-0.27-0.0981-0.04909-0.22091-0.07364-0.34363-0.12272-0.46635-0.14727-0.93271-0.27-1.4236-0.39272-0.14727-0.04909-0.29455-0.09818-0.41727-0.14727-0.80999-0.41727-0.76089-0.58908-1.3745-0.4909zm-0.61363 3.7063c0.0246 0 0.0246 0.02454 0.0491 0.04909-0.0246-0.02455-0.0246-0.02455-0.0491-0.04909zm1.7918-2.1354h0.0737v0.02454c0.0981 0.07363 0.19635 0.14727 0.29454 0.19636 0.17181 0.12273 0.36817 0.24545 0.51544 0.36818 0.22091 0.17182 0.36818 0.31909 0.51545 0.53999l-0.0246 0.02454c-0.0981 0.12272-0.24545 0.22091-0.39272 0.29454-0.24544 0.14727-0.56454 0.22091-0.83453 0.29454-0.29454 0.09818-0.61363 0.12272-0.90817 0.14727h-0.27c-0.0737 0-0.14726-0.02454-0.24545-0.02454-0.0737 0-0.14727-0.02454-0.22091-0.04909-0.0737-0.04909-0.14727-0.09818-0.19635-0.12273 0-0.04909 0.0246-0.07364 0.0246-0.12273 0.12273-0.31908 0.34364-0.61363 0.53999-0.85908 0.19636-0.24545 0.46636-0.41727 0.73635-0.58908 0.14727-0.02454 0.27-0.07363 0.39273-0.12272z"/>
  <path d="m81.449 20.978c0-0.04909-0.02455-0.09818-0.02455-0.14727h0.39272 0.63817c0.07363 0 0.12273 0 0.17182-0.02454-0.02455-0.02455-0.04909-0.07364-0.04909-0.12272-0.04909-0.04909-0.07364-0.09818-0.09818-0.17182h0.02455c0-0.02455 0-0.04909-0.02455-0.04909h0.07364c0.04909 0 0.12272 0 0.17182-0.02454-0.04909-0.07364-0.09818-0.14727-0.14727-0.24545v-0.02454c-0.02454-0.02455-0.04909-0.04909-0.04909-0.09818 0.04909 0.02454 0.07363 0 0.12272 0-0.51544-0.90817-1.0309-1.8409-1.5218-2.749-0.46636-0.83453-0.85908-1.6936-1.2518-2.5527 0.04909-0.02454 0.12272-0.04909 0.17182-0.07363 0.19636-0.02454 0.17182-0.02454 0.39272-0.12272 0.09818-0.02454 0.19636-0.04909 0.29454-0.07364 0.22091-0.07363 0.39272-0.17182 0.58908-0.27-0.02455-0.02454-0.02455-0.02454-0.04909-0.02454-0.04909 0-0.12272-0.02454-0.19636-0.02454 0.07364-0.02454 0.12272-0.04909 0.17182-0.07364 0 0-0.19636-0.02454-0.31909-0.04909 0.14727-0.04909 0.29454-0.12273 0.44181-0.22091h-0.04909c-0.09818-0.02454-0.17182-0.02454-0.27-0.02454 0.04909-0.04909 0.12272-0.07364 0.17182-0.09818 0 0-0.09818-0.02454-0.22091-0.02454 0.07364-0.02454 0.12272-0.07364 0.17182-0.09818 0 0-0.07363 0-0.14727-0.02455 0.07363-0.02454 0.12272-0.07363 0.19636-0.09818 0 0-0.46635-0.07364-0.39272-0.04909-0.22091-0.02454-0.46636-0.04909-0.68726-0.04909-0.12273-0.02455-0.24545-0.02455-0.36818-0.02455-0.14727 0.04909-0.31909 0.09818-0.46636 0.14727-0.07364-0.17182-0.12273-0.31908-0.19636-0.46636-0.58908-1.35-1.0554-2.7245-1.4972-4.1236-0.14727-0.51545-0.29454-1.0063-0.41727-1.4972-0.14727-0.61363-0.31908-1.2518-0.4909-1.8654-0.14727-0.56454-0.31908-1.1291-0.4909-1.6936-0.02455-0.073636-0.34363-0.073636-0.39272-0.098181 0.02455 0-0.36817-0.04909-0.36817-0.024545v0.12273c-0.02455 0-0.02455 0.024545-0.02455 0.024545v0.098181 0.19636c-0.02455 0-0.04909 0-0.04909 0.024545v0.17182 0.04909c-0.09818-0.024545-0.19636-0.04909-0.29454-0.073636-0.27-0.04909-0.61363-0.12272-0.88362-0.098181-0.19636 0-0.39272 0.024545-0.58908 0.098181-0.07363 0.024545-0.17182 0.073636-0.24545 0.12273-0.36818 0.17182-0.58908 0.53999-0.78544 0.85908 0 0.024545-0.02455 0.04909-0.02455 0.073636-0.02454-0.073636-0.04909-0.14727-0.04909-0.22091 0-0.024545-0.02455-0.024545-0.02455-0.024545-0.02455-0.12273-0.04909-0.24545-0.07364-0.34363 0-0.073636-0.58908-0.04909-0.58908 0-0.09818 0.19636-0.17182 0.39272-0.22091 0.61363-0.04909 0.14727-0.07363 0.29454-0.09818 0.44181-0.07364 0.31909-0.09818 0.63817-0.07364 0.9818-0.02455 0.22091-0.04909 0.44181-0.07364 0.66272-0.04909 0.34363-0.12273 0.71181-0.17182 1.0554-0.14727 0.66272-0.29454 1.3254-0.46636 1.9636-0.12272 0.4909-0.24545 0.9818-0.39272 1.4727-0.12272 0.4909-0.27 0.95726-0.41727 1.4482-0.09818 0.31909-0.19636 0.66272-0.29454 0.9818h-0.04909c0.07364 0-0.31909-0.02454-0.22091 0 0.09818 0.04909 0.17182 0.07364 0.24545 0.09818v0.02454h-0.04909c0.04909 0.02454-0.34363-0.02454-0.22091 0.02454 0.09818 0.02455 0.17182 0.04909 0.22091 0.07364v0.02454c-0.04909 0-0.31909-0.02454-0.22091 0 0.07364 0.02454 0.14727 0.04909 0.19636 0.07364v0.02454h-0.17182c-0.02454 0-0.02454 0.02454 0 0.02454 0.04909 0.02454 0.09818 0.04909 0.14727 0.04909v0.02455c-0.07364 0-0.31909-0.02455-0.22091 0 0.07363 0.04909 0.14727 0.07363 0.19636 0.09818 0 0.02455-0.02455 0.04909-0.02455 0.07364-0.09818 0-0.22091 0-0.17182 0.02454 0.07363 0 0.09818 0.02454 0.14727 0.04909v0.02454h-0.12272c-0.02455 0-0.04909 0.02454 0 0.02454 0.02455 0.02454 0.07364 0.02454 0.09818 0.04909-0.17182 0.58908-0.31908 1.1782-0.46636 1.7672-0.02455 0.02455-0.02455 0.02455-0.04909 0.02455-0.07363 0-0.17182 0-0.24545 0.02454 0-0.02454 0-0.02454 0.02455-0.04909h-0.04909c0.04909-0.04909 0.07364-0.07363 0.09818-0.12272-0.02455-0.02455-0.04909-0.02455-0.09818-0.02455-0.12272 0-0.24545-0.02454-0.36818-0.02454-0.09818 0-0.36818-0.04909-0.46636 0-0.12272 0.07364-0.22091 0.14727-0.34363 0.22091 0.04909 0.02454 0.07364 0.02454 0.12272 0.02454v0.02454c-0.04909 0.02454-0.09818 0.04909-0.14727 0.09818 0.02455 0.02454 0.07364 0.02454 0.09818 0.02454h0.02454c-0.02454 0.02454-0.07363 0.04909-0.09818 0.07364 0.02455 0.02454 0.04909 0.02454 0.09818 0.02454h0.02455c-0.02455 0.02454-0.04909 0.04909-0.09818 0.04909 0 0 0.04909 0.02455 0.09818 0.02455-0.04909 0.04909-0.12272 0.07363-0.17182 0.12272 0.02455 0 0.07364 0.02455 0.09818 0.02455 0.04909 0 0.07364 0 0.12272 0.02454-0.07364 0.02454-0.12272 0.07364-0.19636 0.09818 0 0.02454 0.04909 0.02454 0.12273 0.04909-0.02455 0-0.07364 0.02454-0.09818 0.04909-0.02455 0 0.36818 0.07364 0.29454 0.07364 0.2209 0.02454 0.46636 0.07364 0.68726 0.09818 0.09818 0 0.19636 0 0.29454 0.02454-0.02455 0.07364-0.02455 0.14727-0.04909 0.22091-0.12273 0.53999-0.19636 1.08-0.29454 1.62-0.02455 0.24545-0.04909 0.4909-0.07364 0.73635-0.09818 0.36818-0.19636 0.7609-0.27 1.1291 0 0 0 0.02454 0.02455 0.02454-0.02455 0.02455-0.02455 0.07364-0.02455 0.09818 0 0 0 0.02454 0.02455 0.02454 0 0.02455-0.02455 0.07364-0.02455 0.09818 0 0 0 0.02454 0.02455 0.02454-0.02455 0.04909-0.02455 0.12273-0.04909 0.17182 0 0 0.02455 0 0.04909 0.02454 0 0.04909-0.02455 0.09818-0.02455 0.17182h0.02455c0 0.02454 0 0.07364-0.02455 0.12273 0 0 0.12273 0.02454 0.19636 0.02454 0.02455 0.12272 0.04909 0.24545 0.07364 0.34363 0.02454 0.17182 0.04909 0.34363 0.09818 0.4909 0.02455 0.2209 0.09818 0.41726 0.17182 0.61363 0 0.07364 0.31908 0.02454 0.34363 0.02454 0.02455 0 0.31909 0 0.34363-0.04909 0.19636-0.44181 0.31909-0.88362 0.39272-1.35 0.07364 0 0.12273 0.02454 0.19636 0.02454h0.12272c0.04909-0.02454 0.07364-0.04909 0.12272-0.07364l0.07364-0.07363c0-0.12273 0-0.22091 0.02454-0.31909 0-0.02454 0.02455-0.04909 0.04909-0.04909v-0.27c0-0.02454 0.02455-0.02454 0.02455-0.04909v-0.04909c0.04909-0.19636 0.07363-0.36818 0.09818-0.53999 0.14727-0.58908 0.31909-1.1782 0.53999-1.7427 0.19636-0.61363 0.46636-1.2518 0.73635-1.8654h0.02455 0.14727c0.24545 0.02454 0.46636 0.02454 0.68726 0 0.27-0.02455 0.51545-0.07364 0.7609-0.12272 0.4909-0.09818 0.95726-0.27 1.4236-0.41727 1.1045-0.39273 2.1845-0.85908 3.2645-1.35 0.83453 2.0618 1.62 4.1236 2.4054 6.1608v0.02454l0.02455 0.02455c0.02455 0.02454 0.02455 0.04909 0.02455 0.07364l-0.02455 0.02454c0.02455 0.02455 0.04909 0.04909 0.07363 0.07364 0 0.02454 0 0.04909 0.02455 0.07364 0.02455 0.04909 0.51545 0.04909 0.53999 0.04909-0.02455 0 0.53999 0.02454 0.53999 0-0.02455-0.12273-0.04909-0.24545-0.07364-0.36818h0.14727c-0.04909-0.27-0.09818-0.51545-0.17182-0.7609zm-5.9399-15.169c0.07364 0.4909 0.19636 0.95726 0.34363 1.4482 0.09818 0.46636 0.2209 0.93271 0.34363 1.3991-0.53999-1.1291-1.08-2.2336-1.6445-3.3627 0.12272-0.04909 0.24545-0.098181 0.36818-0.12272 0.09818 0.04909 0.2209 0.073636 0.31909 0.098181 0.07364 0.024545 0.14727 0.04909 0.22091 0.073636 0 0.14727 0.02455 0.31909 0.04909 0.46635zm-0.51545 2.8472c0.24545 0.53999 0.46636 1.08 0.68726 1.5954 0.39272 0.90817 0.78544 1.7918 1.1536 2.6754-0.04909 0.02454-0.12273 0.02454-0.17182 0.04909-0.46636 0.14727-0.93271 0.34363-1.3991 0.51545-0.78544 0.31909-1.5463 0.63817-2.3563 0.90817 0.04909-0.09818 0.07363-0.17182 0.09818-0.26999 0.09818-0.29454 0.19636-0.58908 0.29454-0.85908 0.2209-0.61362 0.36818-1.2273 0.46636-1.8654 0.07364-0.34363 0.12273-0.71181 0.17182-1.08 0.09818-0.73635 0.14727-1.4727 0.19636-2.2091 0-0.31909 0.02455-0.66272 0.02455-0.9818v-0.31909c0.27 0.61363 0.53999 1.2273 0.83453 1.8409zm-0.09818-4.2463c0.04909 0.024545 0.12272 0.04909 0.17182 0.073636l-0.02455-0.024545c-0.07363 0-0.14727-0.024545-0.2209-0.024545 0.02454 0 0.04909-0.024545 0.07363-0.024545zm-0.02455 0.24545c0.02455 0 0.04909 0.024545 0.07364 0.024545-0.02455 0-0.07364 0-0.09818-0.024545h0.02455zm-0.02455-0.12272zm-0.12273 0.34363c0.02455 0 0.04909 0 0.09818-0.024545 0.14727 0.04909 0.31909 0.12273 0.46636 0.17182 0.04909 0 0.09818 0.024545 0.12272 0.024545 0.02455 0 0.02455 0 0.02455 0.024545-0.12272-0.04909-0.24545-0.073635-0.36817-0.098181-0.14727-0.024545-0.27-0.04909-0.39272-0.073636h-0.02455c0.02455 0 0.04909-0.024545 0.07363-0.024545z"/>
 </g>
</svg>
