<?xml version="1.0" encoding="utf-8"?>
<!-- Generator: Adobe Illustrator 16.0.0, SVG Export Plug-In . SVG Version: 6.00 Build 0)  -->
<!DOCTYPE svg PUBLIC "-//W3C//DTD SVG 1.1//EN" "http://www.w3.org/Graphics/SVG/1.1/DTD/svg11.dtd">
<svg version="1.1" id="Layer_1" xmlns="http://www.w3.org/2000/svg" xmlns:xlink="http://www.w3.org/1999/xlink" x="0px" y="0px"
	 width="382.676px" height="47.603px" viewBox="0 34.603 382.676 47.603" enable-background="new 0 34.603 382.676 47.603"
	 xml:space="preserve">
<g>
	<g>
		<path d="M92.651,43.401c-2.651,8.16-2.13,18.031-0.094,26.316c0.976,3.971,4.581,10.165,7.032,3.301
			c0.652-1.826-2.247-2.605-2.893-0.797c-0.314,0.879,0.069,0.787-0.521-0.826c-0.295-0.807-0.505-1.646-0.726-2.476
			c-0.366-1.375-0.645-2.776-0.882-4.181c-1.093-6.44-1.039-14.336,0.977-20.539C96.144,42.354,93.247,41.571,92.651,43.401
			L92.651,43.401z"/>
	</g>
</g>
<g>
	<g>
		<path d="M93.44,40.559c2.028,6.189,5.542,14.668,12.542,16.438c1.877,0.475,2.672-2.419,0.798-2.893
			c-5.826-1.473-8.77-9.228-10.447-14.344C95.733,37.931,92.836,38.715,93.44,40.559L93.44,40.559z"/>
	</g>
</g>
<g>
	<g>
		<path d="M106.033,55.585c2.202-5.021,6.661-8.484,9.117-13.371c-0.932-0.252-1.864-0.505-2.795-0.757
			c-0.446,9.271,1.835,18.444,0.746,27.707c-0.226,1.919,2.777,1.897,3,0c1.089-9.263-1.192-18.437-0.746-27.707
			c0.07-1.465-2.127-2.086-2.795-0.758c-2.456,4.887-6.909,8.337-9.117,13.372C102.673,55.825,105.257,57.354,106.033,55.585
			L106.033,55.585z"/>
	</g>
</g>
<g>
	<g>
		<path d="M121.088,67.599c-0.81-3.586,2.542-8.08,4.301-10.949c1.942-3.168,4.142-6.17,6.263-9.217
			c1.108-1.593-1.494-3.09-2.591-1.515c-2.739,3.935-5.527,7.821-7.906,11.991c-1.737,3.044-3.775,6.877-2.96,10.486
			C118.621,70.283,121.514,69.481,121.088,67.599L121.088,67.599z"/>
	</g>
</g>
<g>
	<g>
		<path d="M130.367,47.842c4.252,0.425,6.021,18.945,6.356,21.461c0.982-0.133,1.964-0.266,2.946-0.397
			c-0.086-0.232-0.172-0.465-0.259-0.696c-0.668-1.797-3.568-1.021-2.893,0.798c0.086,0.23,0.172,0.465,0.259,0.696
			c0.545,1.466,3.185,1.39,2.946-0.399c-0.723-5.432-1.671-10.742-3.117-16.035c-0.883-3.232-2.323-8.035-6.24-8.426
			C128.442,44.649,128.461,47.651,130.367,47.842L130.367,47.842z"/>
	</g>
</g>
<g>
	<g>
		<path d="M119.497,63.822c6.403,0.042,12.542-1.854,18.833-2.775c1.908-0.278,1.094-3.17-0.798-2.894
			c-6.023,0.885-11.904,2.709-18.035,2.669C117.562,60.81,117.563,63.81,119.497,63.822L119.497,63.822z"/>
	</g>
</g>
<g>
	<g>
		<path d="M128.255,46.72c2.079,8.873,9.175,15.32,11.54,24.063c0.504,1.864,3.398,1.071,2.893-0.798
			c-2.369-8.756-9.469-15.226-11.54-24.063C130.706,44.038,127.814,44.837,128.255,46.72L128.255,46.72z"/>
	</g>
</g>
<g>
	<g>
		<path d="M168.5,46.375c6.106-2.104,12.49-2.177,18.874-2.498c7.095-0.356,14.085-1.62,21.097,0.185
			c1.875,0.482,2.67-2.41,0.797-2.894c-6.746-1.736-13.547-0.917-20.399-0.385c-7.159,0.557-14.285,0.327-21.164,2.698
			C165.886,44.108,166.666,47.007,168.5,46.375L168.5,46.375z"/>
	</g>
</g>
<g>
	<g>
		<path d="M171.332,43.084c-0.547,9.12,1.005,20.64,6.883,27.957c1.211,1.509,3.32-0.628,2.121-2.121
			c-5.321-6.627-6.495-17.642-6.004-25.836C174.448,41.151,171.447,41.162,171.332,43.084L171.332,43.084z"/>
	</g>
</g>
<g>
	<g>
		<path d="M172.435,56.577c6.833,0.515,13.857,0.22,20.463-1.721c1.854-0.543,1.063-3.438-0.797-2.894
			c-6.365,1.869-13.084,2.109-19.667,1.613C170.504,53.433,170.518,56.433,172.435,56.577L172.435,56.577z"/>
	</g>
</g>
<g>
	<g>
		<path d="M199.102,45.912c-2.93,5.771-5.386,14.94-2.797,21.185c2.698,6.506,13.363,3.725,17.502,0.389
			c1.508-1.215-0.63-3.322-2.121-2.121c-2.229,1.797-5.429,2.393-8.205,2.537c-4.174,0.219-5.043-2.719-5.109-6.205
			c-0.09-4.66,1.204-10.1,3.32-14.271C202.564,45.705,199.977,44.187,199.102,45.912L199.102,45.912z"/>
	</g>
</g>
<g>
	<g>
		<path d="M215.604,51.415c-5.44-4.635-6.746,2.857-6.248,7.046c0.723,6.065,4.635,13.091,11.254,13.726
			c5.361,0.516,7.641-4.315,6.406-8.793c-1.31-4.748-5.605-9.938-10.44-11.31c-1.865-0.528-2.655,2.366-0.798,2.894
			c3.641,1.031,11.619,9.258,7.968,13.271c-3.515,3.86-8.41-2.17-9.824-4.908c-0.887-1.717-1.425-3.707-1.651-5.618
			c-0.088-0.734-0.444-5.599,1.215-4.186C214.947,54.783,217.079,52.672,215.604,51.415L215.604,51.415z"/>
	</g>
</g>
<g>
	<g>
		<path d="M221.74,50.649c9.504-5.405,23.654-1.094,33.957-0.643c1.935,0.085,1.927-2.915,0-3
			c-11.021-0.482-25.256-4.76-35.471,1.053C218.545,49.017,220.057,51.608,221.74,50.649L221.74,50.649z"/>
	</g>
</g>
<g>
	<g>
		<path d="M230.111,50.708c0.289,2.93,2.445,22.316,8.367,18.175c1.571-1.101,0.074-3.702-1.515-2.591
			c-0.241,0.169,0.188,0.251-0.149-0.23c-0.4-0.571-0.655-1.25-0.901-1.896c-0.614-1.61-1.006-3.312-1.388-4.988
			c-0.631-2.78-1.135-5.63-1.414-8.47C232.923,48.802,229.921,48.783,230.111,50.708L230.111,50.708z"/>
	</g>
</g>
<g>
	<g>
		<path d="M241.139,50.074c0.141,6.847,0.685,13.597,2.731,20.165c0.573,1.84,3.471,1.054,2.894-0.799
			c-1.971-6.316-2.488-12.783-2.625-19.366C244.1,48.144,241.1,48.14,241.139,50.074L241.139,50.074z"/>
	</g>
</g>
<g>
	<g>
		<path d="M260.494,50.731c-4.801,3.699-6.93,9.613-2.376,14.473c4.325,4.615,11.35,3.752,15.8-0.057
			c1.473-1.26-0.66-3.371-2.121-2.121c-3.251,2.781-7.869,3.272-11.227,0.375c-3.629-3.135-1.854-7.541,1.438-10.078
			C263.518,52.159,262.025,49.551,260.494,50.731L260.494,50.731z"/>
	</g>
</g>
<g>
	<g>
		<path d="M256.311,61.7c4.662,0.09,9.273-0.917,12.854-4.049c1.459-1.275-0.672-3.389-2.121-2.121
			c-2.962,2.592-6.911,3.242-10.73,3.17C254.375,58.663,254.379,61.663,256.311,61.7L256.311,61.7z"/>
	</g>
</g>
<g>
	<g>
		<path d="M258.65,53.374c4.798-0.861,9.672-0.822,14.129-3.027c1.734-0.857,0.214-3.445-1.514-2.591
			c-4.154,2.056-8.937,1.92-13.412,2.726C255.952,50.824,256.761,53.715,258.65,53.374L258.65,53.374z"/>
	</g>
</g>
<g>
	<g>
		<path d="M232.85,44.317c-0.746-0.748-1.416-1.563-2.009-2.439c-0.905-1.309-3.396-0.524-2.741,1.156
			c3.514,9.008,0.436,19.374,5.572,27.887c0.998,1.654,3.594,0.146,2.59-1.514c-4.922-8.156-1.867-18.45-5.27-27.172
			c-0.914,0.386-1.827,0.771-2.741,1.156c0.758,1.096,1.569,2.064,2.478,3.047C232.043,47.862,234.16,45.735,232.85,44.317
			L232.85,44.317z"/>
	</g>
</g>
<g>
	<g>
		<path d="M222.484,48.34c7.717-3.26,20.158-3.793,27.48,0.632c1.66,1.002,3.167-1.593,1.514-2.592
			c-8.355-5.048-21.752-4.329-30.508-0.631C219.193,46.499,220.725,49.083,222.484,48.34L222.484,48.34z"/>
	</g>
</g>
<g>
	<g>
		<path d="M257.052,61.325c4.292-0.639,7.86-3.04,11.827-4.609c1.777-0.701,1.004-3.604-0.797-2.893
			c-3.953,1.563-7.561,3.976-11.827,4.609C254.348,58.717,255.16,61.606,257.052,61.325L257.052,61.325z"/>
	</g>
</g>
<g>
	<g>
		<path d="M259.088,66.422c4,1.517,8.239,1.938,12.436,1.056c1.893-0.398,1.09-3.291-0.797-2.894
			c-3.682,0.776-7.352,0.269-10.842-1.056C258.073,62.843,257.297,65.743,259.088,66.422L259.088,66.422z"/>
	</g>
</g>
<g>
	<g>
		<path d="M197.93,45.638c-0.203,8.383,0.512,16.689,2.575,24.829c0.476,1.874,3.368,1.078,2.894-0.798
			c-2-7.891-2.666-15.911-2.469-24.031C200.977,43.701,197.977,43.705,197.93,45.638L197.93,45.638z"/>
	</g>
</g>
<g>
	<g>
		<path d="M166.367,43.983c3.532,9.703,4.094,20.609,11.127,28.699c1.271,1.463,3.384-0.668,2.121-2.121
			c-6.597-7.588-7.04-18.269-10.355-27.377C168.604,41.383,165.704,42.161,166.367,43.983L166.367,43.983z"/>
	</g>
</g>
<g>
	<g>
		<path d="M93.086,40.415c-2.964,10.807-2.929,26.99,5.252,35.641c1.332,1.407,3.449-0.718,2.121-2.121
			c-7.381-7.805-7.143-23.013-4.48-32.722C96.491,39.344,93.597,38.552,93.086,40.415L93.086,40.415z"/>
	</g>
</g>
<g>
	<g>
		<path d="M281.35,54.413c-0.234,2.036,1.488,3.311,3.375,2.557c1.498-0.598,3.101-1.838,3.808-3.32
			c0.334-0.699,0.235-1.664-0.538-2.053c-0.773-0.39-1.471-0.604-2.337-0.418c-0.665,0.144-1.265,0.7-1.864,0.996
			c-1.734,0.856-0.215,3.443,1.514,2.592c0.371-0.185,0.717-0.395,1.063-0.621c0.179-0.09,0.207-0.114,0.087-0.073
			c-0.379,0.145-0.335-0.065,0.024,0.116c-0.18-0.686-0.358-1.369-0.537-2.054c-0.313,0.657-0.945,1.243-1.648,1.705
			c-0.429,0.281-0.486,0.313-0.896,0.404c0.373-0.082,0.634,0.121,0.854,0.422c0.054,0.086,0.077,0.179,0.071,0.278
			c-0.021-0.176,0.007-0.357,0.027-0.531c0.094-0.813-0.754-1.5-1.5-1.5C281.961,52.913,281.443,53.603,281.35,54.413L281.35,54.413
			z"/>
	</g>
</g>
<g>
	<g>
		<path d="M285.15,62.062c-1.93,0.606-4.902,2.74-3.269,5.092c1.414,2.035,4.981,1.879,6.913,0.729
			c1.598-0.95,2.449-3.082,1.374-4.737c-1.308-2.015-4.038-1.83-6.019-1.115c-0.77,0.277-1.277,1.011-1.049,1.846
			c0.205,0.741,1.075,1.325,1.846,1.047c0.775-0.279,1.326-0.42,2.007-0.406c0.06,0.002,0.493,0.068,0.129,0.006
			c0.118,0.021,0.233,0.056,0.349,0.09c0.362,0.109-0.273-0.144,0.045,0.021c0.365,0.188-0.072-0.098,0.098,0.054
			c0.078,0.068,0.255,0.315,0.005-0.026c0.052,0.071,0.092,0.151,0.132,0.229c-0.188-0.371-0.068-0.15-0.04-0.031
			c0.063,0.248-0.008-0.381-0.017,0.033c-0.008,0.321,0.072-0.365-0.002-0.047c-0.092,0.397,0.099-0.154-0.021,0.075
			c-0.045,0.088-0.103,0.169-0.159,0.25c0.238-0.339-0.049,0.017-0.123,0.084c0.271-0.246,0-0.005-0.068,0.039
			c-0.104,0.067-0.217,0.124-0.328,0.179c0.301-0.147-0.102,0.029-0.146,0.045c-0.188,0.062-0.385,0.101-0.58,0.137
			c0.273-0.051-0.268,0.018-0.258,0.017c-0.259,0.017-0.518,0.006-0.775-0.008c-0.221-0.011-0.205-0.017-0.408-0.06
			c-0.112-0.023-0.225-0.056-0.333-0.092c0.114,0.061,0.097,0.051-0.054-0.025c-0.354-0.18,0.162,0.184-0.09-0.063
			c0.223,0.218,0.03-0.12,0.135,0.213c0.107,0.345,0.062-0.043,0,0.294c0.035-0.197-0.131,0.182,0.08-0.164
			c-0.166,0.271,0.067-0.065,0.109-0.109c0.2-0.206,0.145-0.135,0.309-0.244c0.326-0.215,0.646-0.342,1.006-0.454
			C287.788,64.377,287.002,61.479,285.15,62.062L285.15,62.062z"/>
	</g>
</g>
<g>
	<path d="M320.608,74.589c-9.563,0.36-19.128,1.021-28.691,1.033c-73.287,0.096-146.574,0.064-219.861,0.072
		c-0.164,0-0.354,0.06-0.489-0.012c-0.926-0.492-1.842-1.014-2.761-1.523c0.923-0.475,1.845-1.359,2.77-1.365
		c30.201-0.207,60.401-0.417,90.602-0.443c39.64-0.033,79.282-0.011,118.921,0.195c12.549,0.064,25.097,0.793,37.645,1.232
		c0.629,0.021,1.254,0.19,1.881,0.291C320.617,74.242,320.612,74.416,320.608,74.589z"/>
</g>
</svg>
