<svg width="63mm" height="30.783mm" version="1.1" viewBox="0 0 63 30.783" xmlns="http://www.w3.org/2000/svg">
 <g fill="#020202" fill-rule="evenodd">
  <path d="m3.3456 14.548c0.3108-2.4346 0.1554-4.9728 0.5698-7.4074 0-0.2072 0-0.3626-0.1554-0.4662 0.0518-1.036 0.6216-0.7252 1.0878-0.3626 0.9324 0.6734 1.813 1.3468 2.6936 2.072 0.518 0.4662 0.8288 0.3626 1.1396-0.1554 0.7252-0.9842 1.813-1.4504 2.7972-2.072 0.2072-0.1036 0.4144-0.259 0.5698 0 0.1036 0.1554 0 0.3108-0.1036 0.4662-1.2432 1.3986-1.0878 3.108-1.0878 4.7656 0.0518 2.072 0.1036 4.0922 0.4662 6.1124 0.1036 0.4662 0.0518 0.8806-0.3108 1.2432-0.6216-0.4662-0.7252-1.1396-0.8806-1.813-0.4144-2.2274-0.259-4.5066-0.259-6.734v-1.2432c-0.6734 0.3626-0.8288 1.1396-1.4504 1.4504-0.3108 0.1554-0.518 0.4662-0.9324 0.3108-0.3108-0.2072-0.3108-0.518-0.2072-0.8288 0.051803-0.259-0.051798-0.4662-0.259-0.6216-0.7252-0.518-1.3986-1.036-2.4346-1.813v6.8894c0 0.4662 0.8288 1.036-0.1036 1.295-0.777 0.259-0.8806-0.5698-1.1396-1.0878z"/>
  <path d="m13.861 9.9376c2.0202-0.518 3.7296-1.9684 6.1124-1.7612-0.6216 0.6734-1.295 0.9324-1.9166 1.2432-1.295 0.518-2.59 1.0878-3.9368 1.6058-0.5698 0.259-0.8288 0.6734-0.777 1.295 0.0518 0.4662 0.0518 0.8806 0.1554 1.3468 0.3626 2.0202 1.813 2.9008 3.7814 2.4346 1.1914-0.259 2.1756-0.9324 3.367-1.295-0.259 1.3986-1.7094 2.4864-3.5224 2.6936-2.9008 0.3108-4.662-1.295-4.7656-4.1958 0-0.518 0.1554-1.036-0.6216-1.1914-0.3626-0.0518-0.3626-0.5698-0.0518-0.7252 0.7252-0.4662 1.1396-1.1914 1.6058-1.8648 0.1036-0.2072 0.3626-0.3626 0.6216-0.259 0.4144 0.2072-0.259 0.4144-0.0518 0.6734z"/>
  <path d="m23.03 9.9376c-1.036 0.0518-1.8648 0-2.6418 0.4144-0.259 0.1554-0.6734 0.1554-0.6734 0.518 0.0518 0.3626 0.4662 0.3626 0.7252 0.4662 1.1396 0.4144 2.2274 0.7252 3.3152 1.1914 0.9842 0.4144 2.1756 0.7252 2.1756 2.072 0 1.2432-1.1396 1.5022-1.9684 2.0202-0.9842 0.6216-2.1238 0.8288-3.2634 0.7252-0.2072 0-0.4662 0-0.518-0.259s0.2072-0.3108 0.4144-0.3626c1.1396-0.4662 2.331-0.777 3.4188-1.4504 0.3108-0.1554 0.777-0.259 0.777-0.7252 0.0518-0.4662-0.4144-0.6216-0.777-0.777-1.6058-0.777-3.367-1.0878-4.921-1.9166-0.3108-0.1554-0.518 0.0518-0.777 0.1554-1.1396 0.6734-2.4346 0.9842-3.6778 1.3468-0.3108 0.1036-0.777 0.259-0.9324-0.1554-0.1554-0.4662 0.3626-0.6216 0.6734-0.7252 0.7252-0.259 1.4504-0.518 2.1756-0.777 0.8806-0.3108 1.7094-0.5698 2.331-1.4504 0.8288-1.1914 2.9526-1.3468 4.144-0.3108z"/>
  <path d="m50.8 28.611c0.259-0.518 0.777-0.777 1.2432-1.0878 0.259-0.2072 0.5698-0.3626 0.8288-0.5698 0.4662-0.3108 1.1396-0.6734 1.036-1.1914s-0.8806-0.3108-1.3468-0.4662c-1.295-0.3108-2.6418-0.3626-3.7814-1.2432-1.295-1.036-1.3468-2.4864-0.0518-3.4706 1.1914-0.8806 2.5382-1.3986 4.0922-1.2432 0.259 0.0518 0.5698 0.1554 0.88061 0.259 0.259 0.1554 0.4144 0.4144 0.3626 0.7252-0.1554 0.4144-0.4662 0.0518-0.6734 0.0518-1.5022-0.3108-2.7454 0.259-3.885 1.036-0.7252 0.518-0.6216 1.0878 0.0518 1.6058 0.9324 0.777 2.1756 0.8288 3.2634 1.0878 0.5698 0.1554 1.1914 0.259 1.7094 0.4662 0.62161 0.259 0.8806 0.777 0.7252 1.4504-0.259 1.4504-2.9526 3.0044-4.4548 2.59z"/>
  <path d="m37.694 24.829v-3.3152c0-0.3108-0.0518-0.6216 0.259-0.7252 0.4144-0.1036 0.518 0.3108 0.6216 0.5698 0.1036 0.4144 0.1036 0.8288 0.1554 1.2432 0.0518 1.5022 0.0518 3.0044 0.1036 4.5066 0 0.518 0.1036 0.777 0.6216 0.4662 0.1036-0.0518 0.1554-0.0518 0.2072-0.1036 1.6576-0.7252 1.6576-0.7252 1.6576-2.4864 0-0.6734 0-1.295 0.0518-1.9684 0-0.5698-0.1036-1.0878-0.6216-1.4504-0.259-0.2072-0.4662-0.4662-0.2072-0.777s0.5698-0.259 0.8806-0.1554c0.8288 0.3626 1.0878 1.0878 1.1396 1.9166 0.0518 0.777 0.0518 1.554 0.0518 2.2792 0 0.4144 0 0.777 0.1554 1.1396 0.4144 0.777 0.1036 1.3468-0.5698 1.7094-0.9842 0.518-2.0202 1.036-3.0562 1.4504-1.036 0.4662-1.5022 0.0518-1.5022-1.036v-3.2634h0.0518z"/>
  <path d="m43.392 24.415c0.0518-1.8648 0.4144-3.2634 1.3468-4.5066 0.777-1.0878 2.072-1.036 2.4864-0.0518 0.0518 0.1554 0.2072 0.3108 0.0518 0.4662s-0.3108 0.0518-0.4662-0.0518c-0.777-0.4144-1.1396 0.0518-1.4504 0.6216-1.295 2.4864-0.777 5.0764 1.2432 6.9412 0.6216 0.518 1.3468 0.6216 2.0202 0.777 0.3626 0.0518 0.88061-0.1554 0.8288 0.4662-0.0518 0.5698-0.4662 0.8806-1.036 0.8288-0.777-0.1036-1.554-0.2072-2.1756-0.6734-1.3986-1.1396-3.0044-3.0044-2.849-4.8174z"/>
 </g>
 <g fill-rule="evenodd">
  <path d="m57.896 23.949c-0.5698 0-1.1396 0-1.3468-0.6734-0.2072-0.5698 0.1554-1.036 0.6216-1.3986 1.1396-0.9324 2.4346-0.8806 3.6778-0.518 0.777 0.2072 0.777 1.1914 0 1.7612-0.8806 0.5698-1.8648 0.8288-2.9526 0.8288z" fill="#040404"/>
  <path d="m35.622 27.575c-1.4504-1.0878-2.9008-2.2274-4.403-3.2634-0.6216-0.4662-0.6734-0.6734 0.0518-0.9842 1.3468-0.5698 2.59-1.1396 3.6778-2.1238 0.259-0.2072 0.5698-0.4144 0.4662-0.8288-0.1554-0.4144-0.518-0.4144-0.8806-0.4144-1.3468 0.0518-2.6418 0.2072-3.885 0.5698-0.259 0.1036-0.518 0.259-0.8806 0-0.9324-0.8288-0.9842-0.777-1.2432 0.4144-0.0518 0.2072-0.1554 0.3626-0.3626 0.4144-0.3626 0.0518-0.259-0.259-0.3108-0.4144 0-0.777-0.0518-1.5022-0.1036-2.2792 0-0.3626 0.1554-0.5698 0.518-0.7252 1.295-0.4662 2.5382-1.036 3.885-1.3986 0.8288-0.259 1.3986-0.777 2.1756-1.295-0.2072-0.1036-0.3108-0.1554-0.3626-0.1554-0.259-0.0518-0.518-0.0518-0.7252 0-3.885 0.9324-7.77 1.9684-11.448 3.5224-0.4144 0.2072-1.036 0.4144-0.777 1.036 0.2072 0.5698 0.777 0.4662 1.2432 0.3108 1.2432-0.3626 2.4346-0.7252 3.626-1.1914 0.7252-0.259 0.8806-0.1554 0.8288 0.6216-0.1036 2.849-0.2072 5.698 0.3108 8.547 0.1036 0.4662 0.1036 0.9842 0.7252 0.9842s0.5698-0.5698 0.5698-1.036c-0.0518-0.3626-0.0518-0.7252-0.1554-1.0878-0.3108-1.2432-0.259-2.4864-0.259-3.7296 0-0.4144 0.1036-0.7252 0.518-0.8806 0.1554-0.0518 0.3626-0.1554 0.4144 0.0518 0.1554 0.3626 0.2072 0.7252 0.0518 1.0878-0.1554 0.259-0.5698 0.518-0.3108 0.8288 0.4144 0.518 0.2072 1.0878 0.3108 1.6576 0.259 1.7612 1.3468 3.108 2.3828 4.662 0.518-1.7094-0.4144-3.1598-0.2072-4.8174 0.259 0.2072 0.4144 0.3108 0.518 0.4144 1.0878 0.777 2.1756 1.6058 3.2634 2.3828 0.3626 0.3108 0.8806 0.4662 1.1914 0.1036 0.4144-0.518-0.1036-0.7252-0.4144-0.9842zm-5.2836-5.2836c-0.1036-0.3626-0.1554-0.6734 0.3108-0.8288 0.8806-0.2072 1.7612-0.518 2.9526-0.3626-0.9324 0.7252-1.7612 1.036-2.59 1.3986-0.3108 0.1554-0.5698 0.3108-0.6734-0.2072z" fill="#020202"/>
  <path d="m61.885 27.419c-0.1554-0.4662-0.5698-0.518-0.9842-0.5698-0.259 0-0.5698 0.1036-0.7252-0.0518-1.2432-0.8806-2.1238-0.1554-3.0044 0.5698-0.518 0.4662-0.98421 0.9842-0.7252 1.7094 0.259 0.7252 0.9842 0.6216 1.5022 0.6216 1.2432 0 2.59-0.4662 3.4188-1.0878 0.4144-0.3108 0.6216-0.6734 0.518-1.1914zm-4.0922 1.036c0.51801-0.9842 1.2432-0.518 2.1756-0.518-0.777 0.6216-1.3986 0.6216-2.1756 0.518z" fill="#020202"/>
 </g>
</svg>
