<?xml version="1.0" encoding="utf-8"?>
<!-- Generator: Adobe Illustrator 16.0.0, SVG Export Plug-In . SVG Version: 6.00 Build 0)  -->
<!DOCTYPE svg PUBLIC "-//W3C//DTD SVG 1.1//EN" "http://www.w3.org/Graphics/SVG/1.1/DTD/svg11.dtd">
<svg version="1.1" id="Layer_1" xmlns="http://www.w3.org/2000/svg" xmlns:xlink="http://www.w3.org/1999/xlink" x="0px" y="0px"
	 width="183.648px" height="31.707px" viewBox="2.155 0 183.648 31.707" enable-background="new 2.155 0 183.648 31.707"
	 xml:space="preserve">
<g>
	<g>
		<path d="M49.785,3.517c-3.541-5.862-13.359,1.053-8.302,6.804c2.276,2.589,5.845,3.948,8.835,5.449
			c1.098,0.551,0.891,2.522,0.212,3.357c-0.648,0.796-2.09,0.95-3.021,1.041c-1.996,0.196-4.169-0.208-5.915-1.194
			c-1.687-0.953-3.198,1.639-1.514,2.591c4.266,2.41,13.482,2.932,13.901-3.73c0.188-2.999-1.199-4.292-3.812-5.412
			c-1.604-0.688-3.059-1.633-4.517-2.583c-1.006-0.655-1.957-1.398-2.643-2.396c-1.178-1.711,2.948-4.46,4.184-2.414
			C48.193,6.684,50.788,5.177,49.785,3.517L49.785,3.517z"/>
	</g>
</g>
<g>
	<g>
		<path d="M52.593,2.181c0.446,1.697,0.388,3.421,0.188,5.152c-0.094,0.814,0.753,1.5,1.5,1.5c0.889,0,1.406-0.688,1.5-1.5
			c0.231-1.997,0.219-3.994-0.295-5.95C54.995-0.486,52.101,0.308,52.593,2.181L52.593,2.181z"/>
	</g>
</g>
<g>
	<g>
		<path d="M55.727,7.49c0.223-0.856,0.525-1.668,1.063-2.234c1.332-1.401-0.786-3.526-2.121-2.121
			c-0.934,0.982-1.497,2.257-1.834,3.557C52.348,8.567,55.241,9.361,55.727,7.49L55.727,7.49z"/>
	</g>
</g>
<g>
	<g>
		<path d="M56.451,5.486c-0.197-1.079-0.167-2.223,0-3.305c0.125-0.808-0.192-1.61-1.047-1.845c-0.719-0.198-1.72,0.238-1.845,1.047
			c-0.256,1.653-0.302,3.25,0,4.9c0.147,0.805,1.11,1.25,1.845,1.047C56.243,7.101,56.599,6.29,56.451,5.486L56.451,5.486z"/>
	</g>
</g>
<g>
	<g>
		<path d="M57.024,6.4c0.647-1.066,1.174-2.367,0.797-3.623c-0.438-1.458-1.914-1.983-3.299-2.012c-1.936-0.04-1.932,2.96,0,3
			c-0.034,0,0.565,0.052,0.307,0.008c0.042,0.007,0.479,0.165,0.183,0.028c0.339,0.157-0.166-0.192,0.077,0.052
			c-0.055-0.056-0.212-0.453-0.126-0.169c-0.098-0.326-0.01-0.036-0.014,0.091c0.009-0.333-0.035,0.106-0.05,0.164
			c-0.09,0.339-0.245,0.586-0.464,0.947C53.427,6.545,56.022,8.052,57.024,6.4L57.024,6.4z"/>
	</g>
</g>
<g>
	<g>
		<path d="M61.246,3.619c-0.85,0.557-1.514,1.277-1.602,2.329c-0.081,0.965,0.524,1.715,1.257,2.245
			c1.622,1.17,4.042,0.516,5.454-0.632c1.302-1.059,2.156-2.943,1.136-4.494c-1.124-1.708-3.43-1.71-5.164-1.088
			c-0.769,0.276-1.277,1.011-1.047,1.845c0.204,0.743,1.075,1.324,1.845,1.047c0.473-0.17,0.845-0.274,1.246-0.289
			c0.104-0.002,0.208,0.001,0.312,0.009c-0.155-0.026-0.146-0.022,0.027,0.011c0.086,0.02,0.171,0.045,0.255,0.074
			c-0.31-0.1,0.01,0.022,0.078,0.064c-0.334-0.208,0.152,0.288-0.084-0.072c0.077,0.146,0.069,0.121-0.022-0.073
			c0.118,0.327-0.002-0.335,0.01,0.021c-0.01,0.168-0.005,0.148,0.014-0.061c-0.018,0.079-0.041,0.157-0.069,0.233
			c0.068-0.161,0.062-0.162-0.02-0.001c-0.199,0.36,0.171-0.164-0.124,0.177c-0.285,0.329-0.653,0.582-1.019,0.708
			c-0.426,0.147-0.754,0.124-0.95,0.082c-0.09-0.021-0.179-0.048-0.267-0.079c0.153,0.069,0.155,0.065,0.006-0.01
			c-0.145-0.094-0.138-0.085,0.018,0.028c-0.266-0.223,0.138,0.256-0.02-0.026c0.14,0.251,0.146,0.471,0.026,0.729
			c0.084-0.135,0.083-0.138-0.004-0.009c0.211-0.241-0.097,0.03,0.222-0.179c0.683-0.447,0.967-1.32,0.538-2.052
			C62.901,3.479,61.931,3.17,61.246,3.619L61.246,3.619z"/>
	</g>
</g>
<g>
	<g>
		<path d="M62.487,12.191c-1.031,3.251-1.676,6.559-0.724,9.909c0.528,1.857,3.423,1.067,2.893-0.798
			c-0.805-2.834-0.144-5.578,0.724-8.313C65.966,11.139,63.07,10.354,62.487,12.191L62.487,12.191z"/>
	</g>
</g>
<g>
	<g>
		<path d="M67.26,11.284c0.157,3.409-0.64,6.761-0.482,10.169c0.089,1.926,3.089,1.935,3,0c-0.157-3.409,0.639-6.761,0.482-10.169
			C70.171,9.357,67.171,9.349,67.26,11.284L67.26,11.284z"/>
	</g>
</g>
<g>
	<g>
		<path d="M78.944,7.661c2.726,0.605-0.748,10.913-1.862,12.432c-1.146,1.563,1.459,3.057,2.591,1.515
			c2.274-3.103,5.984-15.525,0.069-16.839C77.856,4.349,77.056,7.241,78.944,7.661L78.944,7.661z"/>
	</g>
</g>
<g>
	<g>
		<path d="M67.797,9.202c1.101,5.031,7.064,8.733,11.089,11.314c1.634,1.047,3.136-1.55,1.514-2.591
			c-1.881-1.206-3.694-2.505-5.402-3.948c-1.721-1.454-3.806-3.279-4.308-5.574C70.276,6.515,67.384,7.316,67.797,9.202
			L67.797,9.202z"/>
	</g>
</g>
<g>
	<g>
		<path d="M79.673,20.2c3.279-4.639,3.278-10.497-2.228-13.311c-1.719-0.878-3.237,1.71-1.514,2.591
			c4.102,2.096,3.489,5.896,1.15,9.205C75.963,20.27,78.566,21.766,79.673,20.2L79.673,20.2z"/>
	</g>
</g>
<g>
	<g>
		<path d="M93.354,5.613c-2.182-1.395-6.14-2.846-8.638-1.506c-2.896,1.552-2.126,4.691-0.409,6.854
			c2.211,2.786,5.194,4.76,7.684,7.267c0.389,0.391,0.746,0.81,1.072,1.254c0.243,0.614,0.384,0.492,0.424-0.364
			c-0.799,0.229-1.824,0.076-2.642,0.058c-2.182-0.049-4.337-0.093-6.508,0.18c-1.893,0.238-1.916,3.241,0,3
			c2.605-0.328,15.521,1.376,10.984-4.842c-1.941-2.661-4.841-4.507-7.191-6.771c-0.65-0.626-3.647-3.474-1.752-4.047
			c1.612-0.488,4.132,0.658,5.462,1.509C93.476,9.249,94.979,6.651,93.354,5.613L93.354,5.613z"/>
	</g>
</g>
<g>
	<g>
		<path d="M107.594,8.676c-0.297-3.516-2.284-7.579-6.476-5.874c-4.1,1.667-5.461,6.332-5.66,10.354
			c-0.194,3.929,1.583,8.137,5.344,9.758c3.369,1.452,7.084,0.29,9.489-2.35c1.3-1.426-0.816-3.554-2.121-2.121
			c-3.69,4.05-8.966,1.576-9.645-3.521c-0.372-2.791,0.191-6.035,2.107-8.174c0.546-0.609,1.557-1.473,2.459-1.351
			c1.283,0.174,1.423,2.339,1.502,3.278C104.756,10.589,107.757,10.604,107.594,8.676L107.594,8.676z"/>
	</g>
</g>
<g>
	<g>
		<path d="M108.361,5.164c-2.233-2.664-5.349-3.705-8.052-1.066c-3.095,3.021-3.752,8.495-3.92,12.561c-0.08,1.935,2.92,1.927,3,0
			c0.123-2.975,0.602-5.997,1.898-8.704c0.442-0.923,1.107-2.058,2.12-2.435c1.13-0.421,2.235,1.052,2.833,1.765
			C107.484,8.769,109.595,6.635,108.361,5.164L108.361,5.164z"/>
	</g>
</g>
<g>
	<g>
		<path d="M111.604,8.627c-0.268,3.853-0.411,9.314,2.853,12.052c1.471,1.234,3.605-0.876,2.121-2.121
			c-2.59-2.173-2.185-6.893-1.974-9.931C114.739,6.696,111.738,6.708,111.604,8.627L111.604,8.627z"/>
	</g>
</g>
<g>
	<g>
		<path d="M111.078,9.148c3.594-1.478,8.433-2.64,12.117-0.884c-0.18-0.684-0.359-1.368-0.539-2.053
			c-2.121,3.408-8.797,3.964-12.376,4.685c-1.896,0.381-1.091,3.273,0.798,2.893c4.568-0.92,11.459-1.709,14.169-6.063
			c0.405-0.651,0.186-1.708-0.539-2.053c-4.463-2.127-10-1.24-14.429,0.582C108.517,6.981,109.289,9.885,111.078,9.148
			L111.078,9.148z"/>
	</g>
</g>
<g>
	<g>
		<path d="M117.589,11.825c2.317,3.516,4.778,7.402,8.502,9.575c1.675,0.977,3.184-1.616,1.515-2.591
			c-3.264-1.904-5.397-5.42-7.426-8.499C119.12,8.703,116.521,10.205,117.589,11.825L117.589,11.825z"/>
	</g>
</g>
<g>
	<g>
		<path d="M118.789,12.373c2.672,2.912,5.659,5.507,8.446,8.305c1.367,1.372,3.488-0.75,2.121-2.121
			c-2.787-2.798-5.773-5.393-8.446-8.305C119.6,8.823,117.484,10.95,118.789,12.373L118.789,12.373z"/>
	</g>
</g>
<g>
	<g>
		<path d="M128.803,1.415c-1.228,0.522-2.137,1.689-1.827,3.076c0.293,1.313,1.471,2.234,2.598,2.833
			c2.966,1.578,6.916,1.316,8.762-1.762c0.997-1.664-1.597-3.171-2.591-1.515c-0.887,1.48-2.589,1.399-4.06,0.935
			c-0.654-0.207-1.265-0.572-1.734-1.07c-0.171-0.182-0.006-0.087-0.057,0.153c-0.082,0.382-0.062,0.147,0.422-0.059
			C132.092,3.25,130.562,0.667,128.803,1.415L128.803,1.415z"/>
	</g>
</g>
<g>
	<g>
		<path d="M131.916,1.773c-1.093-0.06-2.161,0.204-2.984,0.95c-0.85,0.77-0.955,2.024-0.481,3.013c0.943,1.97,3.813,2.305,5.68,1.76
			c1.625-0.475,3.233-1.931,2.857-3.772c-0.455-2.227-3.285-2.163-4.989-1.897c-0.809,0.126-1.246,1.125-1.047,1.845
			c0.235,0.854,1.038,1.173,1.845,1.047c0.183-0.028,0.51-0.055,0.856-0.057c0.127-0.001,0.255,0.008,0.383,0.017
			c-0.401-0.029,0.044,0.015,0.137,0.037c0.1,0.024,0.4,0.152-0.018-0.03c0.121,0.053,0.398,0.277,0.016-0.032
			c0.097,0.079,0.222,0.28-0.06-0.108c0.202,0.278-0.088-0.294-0.029-0.083c-0.11-0.396-0.03-0.33-0.03-0.16
			c0,0.235,0.102-0.437-0.004-0.088c-0.079,0.259,0.17-0.353,0.038-0.106c-0.179,0.334,0.181-0.194,0.015,0.004
			c-0.053,0.063-0.112,0.12-0.171,0.177c-0.292,0.281,0.176-0.113-0.045,0.039c-0.105,0.073-0.219,0.134-0.332,0.193
			c-0.218,0.114,0.287-0.096-0.117,0.047c-0.104,0.037-0.21,0.064-0.316,0.092c-0.079,0.021-0.579,0.096-0.175,0.047
			c-0.296,0.036-0.596,0.029-0.894,0.009c0.294,0.021-0.213-0.046-0.228-0.049c-0.061-0.013-0.612-0.204-0.324-0.08
			c-0.115-0.05-0.222-0.113-0.329-0.178c-0.228-0.138,0.167,0.18-0.111-0.11c0.253,0.263,0.082,0.108,0.02-0.001
			c0.087,0.229,0.106,0.269,0.058,0.121c-0.035-0.159-0.029-0.105,0.017,0.161c-0.022-0.294-0.086,0.374-0.016,0.088
			c0.05-0.146,0.031-0.101-0.058,0.138c0.083-0.129,0.054-0.096-0.087,0.1c0.071-0.084,0.3-0.228-0.023-0.002
			c0.33-0.23-0.128,0.015,0.123-0.071c0.074-0.025,0.564-0.096,0.225-0.062c0.199-0.02,0.4-0.01,0.6,0
			c0.817,0.045,1.5-0.716,1.5-1.5C133.416,2.422,132.732,1.818,131.916,1.773L131.916,1.773z"/>
	</g>
</g>
<g>
	<g>
		<path d="M131.503,12.987c-0.136,3.591,0.424,7.076,1.871,10.372c0.776,1.768,3.36,0.24,2.591-1.514
			c-1.227-2.794-1.577-5.833-1.462-8.858C134.576,11.052,131.576,11.059,131.503,12.987L131.503,12.987z"/>
	</g>
</g>
<g>
	<g>
		<path d="M139.003,6.24c0.015,3.054,0.106,6.105,0.044,9.159c-0.048,2.328-0.758,4.877,0.176,7.096
			c0.739,1.754,3.644,0.984,2.893-0.798c-0.785-1.862-0.146-4.315-0.069-6.298c0.118-3.049-0.029-6.109-0.044-9.159
			C141.994,4.306,138.994,4.305,139.003,6.24L139.003,6.24z"/>
	</g>
</g>
<g>
	<g>
		<path d="M140.003,8.771c-0.518,4.06-0.605,9.02,1.371,12.733c0.909,1.708,3.499,0.192,2.591-1.515
			c-1.704-3.2-1.406-7.735-0.962-11.219C143.247,6.855,140.244,6.878,140.003,8.771L140.003,8.771z"/>
	</g>
</g>
<g>
	<g>
		<path d="M140.902,9.542c1.384-0.488,2.826-0.802,4.272-1.04c0.87-0.143,1.756-0.179,2.635-0.15
			c0.357,0.012,0.68,0.091,1.022,0.189c0.375,0.108,0.097-0.02,0.108-0.039c-0.595,1.08-3.011,1.512-4.068,1.796
			c-1.304,0.351-2.68,0.653-4.035,0.682c-1.932,0.042-1.936,3.042,0,3c2.151-0.046,4.367-0.587,6.399-1.255
			c1.781-0.585,4.296-1.613,4.679-3.708c1.039-5.682-9.253-3.271-11.81-2.368C138.293,7.288,139.073,10.187,140.902,9.542
			L140.902,9.542z"/>
	</g>
</g>
<g>
	<g>
		<path d="M143.773,13.19c1.308,1.587,2.104,3.689,3.189,5.434c1.019,1.637,2.413,3.666,4.541,3.729c1.936,0.058,1.93-2.942,0-3
			c-1.062-0.032-2.35-2.885-2.787-3.642c-0.904-1.563-1.668-3.242-2.823-4.643C144.663,9.575,142.553,11.71,143.773,13.19
			L143.773,13.19z"/>
	</g>
</g>
<g>
	<g>
		<path d="M154.39,8.067c-0.864,3.303,0.76,7.979,1.848,11.052c0.918,2.595,3.417,6.543,6.061,3.117
			c1.182-1.532-1.427-3.023-2.591-1.515c0.35-0.453,0.971,0.439,0.433-0.308c-0.279-0.387-0.479-0.833-0.682-1.263
			c-0.6-1.276-0.95-2.701-1.296-4.062c-0.441-1.732-1.348-4.435-0.88-6.224C157.772,6.991,154.878,6.197,154.39,8.067L154.39,8.067z
			"/>
	</g>
</g>
<g>
	<g>
		<path d="M163.26,22.427c0.953-0.441,2.062-0.253,3.076-0.243c1.936,0.02,1.934-2.98,0-3c-1.634-0.016-3.069-0.052-4.59,0.652
			c-0.742,0.344-0.922,1.398-0.539,2.053C161.65,22.643,162.518,22.77,163.26,22.427L163.26,22.427z"/>
	</g>
</g>
<g>
	<g>
		<path d="M156.248,15.682c2.777,1.376,5.734,1.131,8.655,0.361c1.869-0.493,1.075-3.386-0.798-2.893
			c-2.076,0.547-4.337,0.935-6.344-0.06C156.035,12.235,154.514,14.822,156.248,15.682L156.248,15.682z"/>
	</g>
</g>
<g>
	<g>
		<path d="M154.669,8.41c4.094,0.068,8.226-1.318,12.268-0.236c1.872,0.501,2.665-2.393,0.798-2.893
			c-4.362-1.168-8.66,0.201-13.065,0.128C152.734,5.377,152.737,8.378,154.669,8.41L154.669,8.41z"/>
	</g>
</g>
<g>
	<g>
		<path d="M5.737,20.715c4.751-0.732,8.62-3.751,13-5.5c1.774-0.708,1-3.61-0.798-2.893c-4.359,1.74-8.288,4.774-13,5.5
			C3.032,18.117,3.845,21.007,5.737,20.715L5.737,20.715z"/>
	</g>
</g>
<g>
	<g>
		<path d="M3.914,10.731c4.53,3.21,9.802,3.069,15.091,3.705c1.918,0.23,1.896-2.772,0-3c-4.772-0.573-9.487-0.397-13.576-3.295
			C3.846,7.02,2.35,9.623,3.914,10.731L3.914,10.731z"/>
	</g>
</g>
<g>
	<g>
		<path d="M4.737,20.382c2.314-0.673,4.583-1.473,6.833-2.333c1.788-0.684,1.012-3.585-0.798-2.893
			c-2.25,0.86-4.52,1.66-6.833,2.333C2.085,18.029,2.875,20.924,4.737,20.382L4.737,20.382z"/>
	</g>
</g>
<g>
	<g>
		<path d="M19.606,9.382c4.068,1.464,7.465,4.345,11.833,5c1.892,0.284,2.706-2.606,0.798-2.893c-4.325-0.649-7.784-3.543-11.833-5
			C18.579,5.833,17.8,8.732,19.606,9.382L19.606,9.382z"/>
	</g>
</g>
<g>
	<g>
		<path d="M30.748,12.974c-3.626,2.051-6.662,4.936-10.167,7.167c-1.626,1.036-0.123,3.633,1.514,2.591
			c3.505-2.232,6.542-5.117,10.167-7.167C33.945,14.612,32.434,12.02,30.748,12.974L30.748,12.974z"/>
	</g>
</g>
<g>
	<g>
		<path d="M19.065,24.33c3.813-3.301,8.68-5.015,12.863-7.765c1.608-1.058,0.107-3.657-1.515-2.591
			c-4.415,2.903-9.44,4.746-13.47,8.235C15.479,23.477,17.611,25.589,19.065,24.33L19.065,24.33z"/>
	</g>
</g>
<g>
	<g>
		<path d="M21.237,21.382c4.189-1.49,7.307-4.767,11.192-6.818c1.711-0.904,0.195-3.493-1.515-2.591
			c-3.624,1.913-6.582,5.131-10.475,6.516C18.63,19.133,19.409,22.033,21.237,21.382L21.237,21.382z"/>
	</g>
</g>
</svg>
