<svg width="135mm" height="29mm" version="1.1" viewBox="0 0 135 29" xmlns="http://www.w3.org/2000/svg">
 <g fill-rule="evenodd">
  <path d="m88.558 19.49c-16.526 1.8363-32.9 1.6067-49.197 2.3718-6.58 0.38256-13.083 0.76511-19.587 0.76511-3.596 0-7.2686 0-10.865-0.45907h-0.45907c-0.53558-0.15302-1.3772-0.15302-1.2242-0.99464 0.076507-0.61209 0.84162-0.53558 1.3772-0.53558 5.8914 0.30604 11.706 0.45907 17.598 0.22953 11.171-0.45907 22.418-0.99464 33.588-1.3772 9.4874-0.30604 19.051-0.38256 28.768 0z"/>
  <path d="m19.885 13.858c0.12931-1.7457-0.38793-3.4913 1.0345-4.7844-0.58189-1.8103 0.84051-1.2284 1.6164-1.4224 0.84051-0.19396 1.681-0.38793 2.5215-0.51723 0.25862-0.064651 0.58189-0.064651 0.7112 0.19396 0.19396 0.32327-0.12931 0.51723-0.38793 0.7112-0.84051 0.64654-1.8103 0.90516-2.9094 1.0345-0.64654 0.064651-1.3577 1.1638-1.1638 1.8103 0.19396 0.58189 0.45258 0.25862 0.7112 0.12931 0.77585-0.25862 1.4224-0.7112 2.2629-0.84051 0.25862-0.06465 0.58189-0.12931 0.7112 0.12931 0.25862 0.32327-0.06465 0.51723-0.32327 0.7112-0.64654 0.58189-1.3577 1.0345-2.1336 1.4224-0.7112 0.25862-1.2284 0.64654-0.96981 1.5517 0.32327 0.90516 0.64654 1.8103 1.875 1.7457 0.96981 0 1.7457-0.58189 2.5862-0.84051 0.45258-0.12931 1.0345-0.64654 1.3577-0.06465 0.25862 0.51724-0.38793 0.90516-0.77585 1.2284-1.5517 1.2931-3.2974 1.875-5.1723 0.7112-0.51724-0.32327-0.7112 0.12931-1.0345 0.25862-2.0043 1.2284-7.3706 1.1638-9.0516-0.06466 0.45258-0.51723 1.0345-0.45258 1.6164-0.45258 1.487 0 2.9094-0.06465 4.3965 0 0.64654 0 1.2931-0.12931 1.875-0.38792 0.7112-0.25862 0.77585-0.64654 0.06465-1.0345-1.0345-0.58188-2.1336-1.0345-3.1681-1.681-1.0345-0.58189-2.0689-1.1638-3.0388-1.9396-1.3577-0.96982-1.487-2.5215-0.58189-4.0086 0.84051-1.3577 2.7801-2.0043 4.0732-1.4224 0.51724 0.19396 0.77585 0.64654 0.96982 1.1638 0.06466 0.32327 0 0.7112-0.32327 0.90516-0.25861 0.19396-0.45258-0.19397-0.58188-0.32328-0.96982-0.7112-2.0043-0.58189-2.7155 0.38793-0.7112 0.84051-0.58189 1.6164 0.38793 2.3922 1.6164 1.3577 3.4267 2.3922 5.5603 3.2974z"/>
  <path d="m35 11.081c0.61209-0.76511 1.3772-1.1477 2.1423-1.4537 0.76511-0.38256 0.91813-0.91813 0.6886-1.7598-0.22953-0.99464-0.45907-2.0658-0.61209-3.137-0.076508-1.0712-0.61209-1.3007-1.6067-1.1477-0.45907 0.15302-0.91813 0.22953-1.3772 0.22953-0.45907 0.076507-1.1477 0.38256-1.3007-0.30604-0.076508-0.53558 0.61209-0.6886 1.0712-0.91813 0.30604-0.15302 0.76511-0.30604 1.1477-0.38256 1.1477-0.076507 1.9128-0.61209 1.9128-2.0658 0.38256 1.6067 1.3772 1.3007 2.3718 1.1477 2.1423-0.38256 4.3611-0.61209 6.9625-0.15302-2.3718 0.99464-4.4376 1.6832-6.6565 1.8363-1.2242 0.15302-1.9128 0.53558-1.3772 1.9128 0.15302 0.38256 0.22953 0.76511 0.30604 1.1477 0.53558 2.5249 0.07652 2.7544 2.6779 1.0712 2.2953-1.4537 4.5907-2.8309 6.58-4.8202 0.15302 1.3007 0.07651 1.3772-1.5302 2.9839-0.30604 0.30604-0.91813 0.45907-0.53558 0.91813 0.38255 0.61209 0.61209-0.076507 0.91813-0.22953 1.3772-0.84162 2.7544-0.6886 4.1316-0.15302 0.99464 0.45907 0.91813 1.7598-0.15302 2.4484-0.61209 0.38256-1.4537 0.45907-3.3665 0.45907 0.45907 2.0658 0.22953 4.1316 0.45907 6.1974 0.07652 0.38256 0.07652 0.84162-0.45907 0.99464-0.45907 0.07651-0.76511-0.15302-0.99464-0.61209-0.30604-0.6886-0.30604-1.4537-0.30604-2.2188 0.07651-1.2242 0-2.4484 0.22953-3.6725 0.22953-0.76511 0.07651-0.91813-0.53558-1.4537-1.2242-1.1477-2.1423-0.84162-3.2135 0.076507-0.15302 0.15302-0.38255 0.30604-0.61209 0.45907-2.6014 1.6067-2.6779 1.6067-1.9128 4.7437 0.30605 1.2242 0.76511 2.5249 1.1477 3.749 0.07652 0.30604 0.30605 0.6886 0 0.84162-0.38255 0.22953-0.6886-0.07651-0.91813-0.38256-0.99464-1.4537-1.2242-3.2135-1.6067-4.8967-0.38255-1.9893-0.38255-1.9893-2.2953-1.4537-0.38255 0.07651-0.84162 0.38256-1.3772 0z"/>
  <path d="m95.75 11.387h6.886c0.53557 0 1.3007-0.15302 1.5302 0.6886 0.15302 0.84162-0.6886 0.91813-1.2242 1.0712-0.99464 0.15302-1.2242 0.6886-1.1477 1.6067 0.15303 1.8363 0.22954 3.749 0.38257 5.5853 0.0765 1.0712 0.38255 1.6832 1.6067 1.3007 0.61209-0.22953 1.3772-0.22953 2.0658-0.30604 0.6886-0.07651 1.5302-0.53558 1.9128 0.38256 0.30605 0.76511 0.6886 1.7598-0.30604 2.6014-0.6886 0.45907-1.3772 1.0712-1.9893 1.6067-0.30604 0.30605-0.6886 0.45907-0.6886 0.91813 0.0765 0.99465-0.38255 1.7598-1.3007 1.6832-0.99465-0.07652-2.0658-0.22953-2.6014-1.3007-0.7651-1.6832-1.8363-2.9074-3.5195-3.749-0.22954-0.07652-0.45907-0.22953-0.45907-0.53558 0-0.30604 0.30604-0.45907 0.61209-0.53558 0.6886-0.15302 1.3772-0.30604 2.0658-0.30604 0.84161 0 1.2242-0.22953 1.1477-1.1477-0.30605-2.3718-0.38255-4.7437-0.30605-7.1155 0-0.99464-0.53557-0.84162-1.2242-0.84162-3.6725 0-7.4216 0.15302-11.171-0.15302-0.45906 0-1.3007 0.15302-1.3007-0.61209 0-0.76511 0.84162-0.61209 1.3772-0.61209h7.6511v-0.22953zm10.788 11.553c-1.3007-0.22953-2.6014-0.15302-3.29 0.38256-0.99465 0.76511-1.7598 1.0712-2.9074 0.30604 0.45907 0.61209 0.91813 0.99464 1.3772 1.4537 0.30604 0.30604 0.61209 0.61209 1.0712 0.30604 1.2242-0.76511 2.5249-1.3772 3.749-2.4484z"/>
  <path d="m74.557 16.054c1.0712-1.1477 2.0658-1.3772 3.137-1.6067 1.6832-0.30604 3.29-0.61209 4.9732-0.91813 0.30605-0.07652 0.91814 0 0.91814-0.53558 0-0.45907-0.53558-0.53558-0.91814-0.6886-1.0711-0.38256-2.2188-0.76511-3.29-1.1477-1.4537-0.61209-2.6779-1.5302-3.443-2.9074-0.84162-1.6067-0.30605-2.9074 1.3772-3.596 1.9893-0.76511 3.9021-0.38256 5.6618 0.61209 0.61209 0.38256 0.84162 0.84162 0.91813 1.8363-1.8363-1.5302-3.6725-1.8363-5.6618-1.2242-1.2242 0.38256-1.3007 0.99464-0.6886 1.9128 0.61209 0.84162 1.5302 1.3772 2.3718 1.9128 1.1477 0.61209 2.2188 1.2242 3.29 1.9128 0.6886 0.45907 1.4537 0.91813 1.3007 1.9128-0.07652 0.91813-0.99465 1.2242-1.7598 1.4537-2.5249 0.6886-5.2028 0.99464-8.1867 1.0712z"/>
  <path d="m74.48 7.0255c-0.91813 1.2242-1.9128 1.6832-2.9839 2.0658-0.53558 0.15302-1.1477 0.38255-1.6832 0.53558-0.53558 0.15302-1.2242 0.38255-0.91813 0.99464 0.22953 0.53558 0.76511-0.07651 1.1477-0.22953 1.3007-0.76511 2.6014-1.3007 4.3611-1.1477-1.2242 1.6067-2.7544 2.2953-4.3611 2.9839-0.30605 0.15302-0.99465 0-0.84162 0.61209 0.07652 0.53558 0.61208 0.76511 1.1477 0.76511 1.0712 0.07652 2.0658-0.53558 3.0604-0.6886 0.53558-0.15302 1.1477-0.45907 1.4537 0.07652 0.30604 0.6886-0.30605 0.99464-0.76512 1.3772-0.91813 0.76511-2.0658 1.2242-3.29 1.3007-1.9128 0.07651-3.29-0.99464-3.443-2.9074-0.15302-1.1477 0-2.2188 0-3.3665 0-0.30604 0.15302-0.61209 0.45907-0.76511 2.0658-0.76511 4.0551-1.6832 6.6565-1.6067z"/>
  <path d="m28.613 7.1991c0.06466 0 0.32327 0 0.51724 0.064651 0.45258 0.12931 1.0345 0.19396 1.0345 0.77585 0 0.51724-0.64654 0.38793-1.0345 0.45258-0.7112 0.12931-1.8103-0.19396-1.9396 0.7112-0.19396 1.0345 0.96982 0.96982 1.6164 1.2931 1.0345 0.51724 2.1982 1.0345 3.1681 1.7457 1.2931 0.96982 1.2931 2.3922-0.06466 3.2974-1.2931 0.90516-2.8448 1.3577-4.3965 1.7457-0.32327 0.12931-0.7112 0.19396-0.90516-0.19396-0.19396-0.38793 0.12931-0.77585 0.45258-0.90516 1.2284-0.58189 2.4569-1.0991 3.6853-1.6164 0.32327-0.19396 0.84051-0.25862 0.84051-0.84051 0-0.45258-0.45258-0.64654-0.84051-0.84051-1.0991-0.45258-2.1982-0.96982-3.2974-1.4224-1.0345-0.45258-2.0689-0.90516-1.8103-2.3276 0.19396-1.1638 1.3577-1.9396 2.9741-1.9396z"/>
  <path d="m55.046 16.742c-2.5249 0.07651-4.2846-2.0658-3.596-4.5142 0.22953-0.84162 0.07651-2.0658 0.91813-2.4484 1.3007-0.6886 2.8309-1.0712 4.3611-1.2242 0.15302 0 0.45907 0.15302 0.53558 0.22953 0 0.15302-0.15302 0.38256-0.22953 0.53558-0.6886 0.45907-1.4537 0.6886-2.2188 0.99464-0.53558 0.15302-1.7598-0.07651-1.5302 0.76511 0.15302 0.61209 1.1477-0.07652 1.7598-0.15302 0.76511-0.15302 1.4537-0.30604 2.2188-0.45907 0.30605 0 0.6886-0.07651 0.84162 0.22953 0.15302 0.38256-0.22953 0.61209-0.45906 0.84162-0.99465 0.61209-2.1423 0.6886-3.2135 1.0712-0.45907 0.22953-1.5302-0.15302-1.3772 0.91813 0.22953 0.99464 0.99464 1.5302 1.9128 1.3772 0.76511-0.07651 1.4537-0.45907 2.2188-0.6886 0.45907-0.07651 1.0712-0.76511 1.3772 0 0.30604 0.61209-0.30605 1.0712-0.6886 1.3772-0.84162 0.6886-1.7598 1.2242-2.8309 1.1477z"/>
  <path d="m65.299 16.436c-1.4537-0.15302-2.8309-0.45907-4.0551-1.3007-2.9074-1.9893-2.6014-6.0444 0.45907-7.7276 0.99465-0.53558 1.9893-0.38256 2.7544 0.45907 0.84162 0.91813 0.99465 2.0658 0.76512 3.29-0.07652 0.45907-0.45907 0.30604-0.61209 0-0.15302-0.38256-0.22953-0.76511-0.30605-1.1477-0.07652-0.6886-0.15302-1.3772-0.91813-1.6067-0.76511-0.15302-1.3007 0.30604-1.7598 0.84162-1.3772 1.4537-1.0712 3.5195 0.6886 4.6672 0.99464 0.61209 2.0658 0.76511 3.2135 0.91813 0.53558 0.07651 1.6067-0.22953 1.5302 0.6886 0 0.91813-1.0712 0.84162-1.7598 0.91813z"/>
  <path d="m58.336 7.4846c-2.2953 0.15302-4.0551-0.99464-5.7383-2.2953-0.38256-0.30604-0.22953-0.76511 0.30604-0.84162 0.91813-0.076507 4.9732 2.2188 5.4323 3.137z"/>
 </g>
</svg>
