<?xml version="1.0" encoding="utf-8"?>
<!-- Generator: Adobe Illustrator 16.0.0, SVG Export Plug-In . SVG Version: 6.00 Build 0)  -->
<!DOCTYPE svg PUBLIC "-//W3C//DTD SVG 1.1//EN" "http://www.w3.org/Graphics/SVG/1.1/DTD/svg11.dtd">
<svg version="1.1" id="Layer_1" xmlns="http://www.w3.org/2000/svg" xmlns:xlink="http://www.w3.org/1999/xlink" x="0px" y="0px"
	 width="183.648px" height="31.707px" viewBox="2.155 0 183.648 31.707" enable-background="new 2.155 0 183.648 31.707"
	 xml:space="preserve">
<g>
	<g>
		<path d="M45.268,4.438c-0.029-0.007-0.058-0.014-0.086-0.021c0.119,0.914,0.239,1.828,0.358,2.742
			c1.844-0.824,4.381-0.946,6.364-1.347c4.509-0.911,9.133-1.294,13.719-1.564c-0.133-0.982-0.266-1.964-0.399-2.946
			c-1.61,0.23-3.22,0.466-4.827,0.724c-1.906,0.306-1.094,3.196,0.798,2.893c1.606-0.258,3.216-0.493,4.827-0.724
			c1.68-0.241,1.273-3.044-0.399-2.946c-4.848,0.285-9.749,0.713-14.517,1.671c-2.298,0.462-4.928,0.688-7.081,1.649
			c-1.211,0.542-0.821,2.453,0.358,2.742c0.029,0.007,0.058,0.014,0.086,0.021C46.349,7.792,47.146,4.899,45.268,4.438L45.268,4.438
			z"/>
	</g>
</g>
<g>
	<g>
		<path d="M58.146,5.436c2.076,4.246,5.191,11.207,0.19,14.599c-2.777,1.884-8.989,5.215-12.228,3.137
			c-1.633-1.048-3.136,1.55-1.514,2.591c4.444,2.851,12.865-0.766,16.397-3.94c5.352-4.811,2.416-12.437-0.255-17.901
			C59.886,2.183,57.3,3.705,58.146,5.436L58.146,5.436z"/>
	</g>
</g>
<g>
	<g>
		<path d="M49.246,9.594c3.158-1.761,6.873-1.851,10.378-2.346c3.322-0.47,6.391-1.753,9.618-2.529
			c-0.266-0.964-0.532-1.929-0.798-2.893c-0.188,0.067-0.377,0.133-0.565,0.2c-1.811,0.64-1.031,3.54,0.798,2.893
			c0.188-0.066,0.377-0.133,0.565-0.2c1.809-0.64,1.102-3.35-0.798-2.893c-3.23,0.777-6.313,1.964-9.617,2.53
			c-3.821,0.654-7.625,0.713-11.095,2.648C46.042,7.945,47.555,10.537,49.246,9.594L49.246,9.594z"/>
	</g>
</g>
<g>
	<g>
		<path d="M77.931,7.942c-4.643-0.29-9.478,1.445-10.606,6.418c-0.889,3.915,1.442,8.123,5.092,9.647
			c5.102,2.13,12.284-0.709,15.458-5.007c5.731-7.758-5.198-12.113-10.635-14.652c-1.742-0.813-3.266,1.772-1.515,2.591
			c3.853,1.799,14.396,5.14,9.239,10.859c-2.596,2.878-7.528,4.786-11.294,3.507c-2.438-0.828-3.84-3.704-3.453-6.147
			c0.586-3.705,4.598-4.41,7.714-4.215C79.864,11.063,79.852,8.062,77.931,7.942L77.931,7.942z"/>
	</g>
</g>
<g>
	<g>
		<path d="M79.777,6.382c-2.986-0.468-5.904-0.053-8.637,1.244c-1.747,0.829-0.224,3.416,1.514,2.591
			c1.938-0.92,4.201-1.275,6.325-0.942C80.872,9.571,81.684,6.681,79.777,6.382L79.777,6.382z"/>
	</g>
</g>
<g>
	<g>
		<path d="M90.427,8.047c-0.692,5.826-0.584,14.682,7.051,15.265c1.931,0.147,1.917-2.854,0-3
			c-5.394-0.412-4.494-8.534-4.051-12.265C93.655,6.129,90.653,6.151,90.427,8.047L90.427,8.047z"/>
	</g>
</g>
<g>
	<g>
		<path d="M100.29,23.259c6.63-1.339,4.932-13.087,0.117-15.633c-1.709-0.903-3.225,1.686-1.515,2.591
			c2.603,1.376,4.454,9.371,0.6,10.149C97.597,20.749,98.401,23.641,100.29,23.259L100.29,23.259z"/>
	</g>
</g>
<g>
	<g>
		<path d="M101.341,8.665c1.308,3.725,2.04,7.843-0.332,11.298c0.432-0.248,0.864-0.496,1.295-0.743
			c-3.219,0.019-6.434,0.201-9.653,0.219c-1.934,0.011-1.935,3.011,0,3c2.362-0.013,4.721-0.108,7.081-0.179
			c2.485-0.074,3.409,0.191,4.668-2.076c2.063-3.714,1.161-8.535-0.167-12.317C103.597,6.054,100.698,6.834,101.341,8.665
			L101.341,8.665z"/>
	</g>
</g>
<g>
	<g>
		<path d="M109.062,9.836c5.671,0.076,11.017-2.459,16.651-2.369c1.936,0.031,1.933-2.969,0-3
			c-5.651-0.091-10.986,2.445-16.651,2.369C107.126,6.81,107.128,9.81,109.062,9.836L109.062,9.836z"/>
	</g>
</g>
<g>
	<g>
		<path d="M107.283,9.001c-4.869,7.404,14.341,4,16.466,5.369c1.632,1.051,3.134-1.547,1.515-2.591
			c-2.075-1.336-5.419-0.837-7.738-0.777c-1.729,0.044-3.456,0.096-5.185,0.045c-0.782-0.023-1.552-0.092-2.316-0.26
			c-0.79-0.174-0.538,0.315-0.151-0.272C110.94,8.894,108.341,7.393,107.283,9.001L107.283,9.001z"/>
	</g>
</g>
<g>
	<g>
		<path d="M108.044,10.943c0.131,3.303,1.344,9.257,4.604,11.009c4.103,2.204,9.248,0.427,13.463-0.56
			c1.883-0.441,1.084-3.333-0.798-2.893c-3.295,0.771-6.88,2.001-10.278,1.253c-2.88-0.633-3.896-6.396-3.992-8.81
			C110.968,9.015,107.967,9.008,108.044,10.943L108.044,10.943z"/>
	</g>
</g>
<g>
	<g>
		<path d="M128.315,9.577c0.294,3.813,0.933,7.589,1.743,11.324c0.41,1.89,3.302,1.088,2.893-0.798
			c-0.754-3.475-1.362-6.978-1.636-10.526C131.168,7.661,128.167,7.646,128.315,9.577L128.315,9.577z"/>
	</g>
</g>
<g>
	<g>
		<path d="M129.973,10.149c5.806-1.732,12.016-2.46,17.784-0.219c-0.221-0.835-0.441-1.671-0.662-2.507
			c-2.542,2.595-7.871,2.605-11.247,3.057c-1.888,0.252-1.913,3.256,0,3c4.308-0.576,10.126-0.626,13.368-3.936
			c0.85-0.867,0.368-2.107-0.662-2.507c-6.222-2.417-13.114-1.651-19.38,0.219C127.326,7.808,128.114,10.704,129.973,10.149
			L129.973,10.149z"/>
	</g>
</g>
<g>
	<g>
		<path d="M139.379,12.519c2.051,4.728,7.323,7.989,12.396,8.172c1.936,0.07,1.929-2.93,0-3c-4.107-0.148-8.17-2.916-9.806-6.686
			C141.202,9.234,138.618,10.763,139.379,12.519L139.379,12.519z"/>
	</g>
</g>
<g>
	<g>
		<path d="M137.003,13.072c0.147,6.042,10.883,9.503,15.655,7.783c1.805-0.651,1.027-3.55-0.798-2.893
			c-2.132,0.769-4.447,0.102-6.502-0.623c-1.633-0.576-5.303-2.163-5.354-4.267C139.956,11.141,136.956,11.137,137.003,13.072
			L137.003,13.072z"/>
	</g>
</g>
<g>
	<g>
		<path d="M131.987,15.01c1.614,0.014,3.216,0.181,4.827,0c0.812-0.091,1.5-0.613,1.5-1.5c0-0.749-0.686-1.592-1.5-1.5
			c-1.61,0.181-3.213,0.014-4.827,0C130.052,11.993,130.054,14.993,131.987,15.01L131.987,15.01z"/>
	</g>
</g>
<g>
	<g>
		<path d="M157.811,3.629c1.14,4.05,2.035,8.442,4.495,11.942c1.104,1.569,3.706,0.073,2.591-1.515
			c-2.314-3.293-3.12-7.413-4.193-11.225C160.18,0.973,157.285,1.763,157.811,3.629L157.811,3.629z"/>
	</g>
</g>
<g>
	<g>
		<path d="M161.816,18.58c-1.231,1.003-2.422,2.338-2.149,4.034c0.188,1.173,1.411,1.93,2.501,2.089
			c1.169,0.17,2.398,0.059,3.435-0.555c1.35-0.799,1.721-2.272,1.117-3.671c-0.28-0.646-0.809-1.2-1.335-1.656
			c-0.617-0.536-1.513-0.608-2.121,0c-0.547,0.547-0.618,1.585,0,2.121c0.236,0.205,0.459,0.421,0.662,0.66
			c0.185,0.217-0.223-0.301-0.063-0.081c0.038,0.053,0.073,0.107,0.107,0.162c0.081,0.127,0.243,0.54,0.027-0.001
			c0.037,0.091,0.061,0.188,0.08,0.284c-0.107-0.561-0.027-0.266-0.039-0.094c0.038-0.566,0.051-0.291-0.008-0.122
			c0.182-0.523,0.117-0.254,0.022-0.11c-0.093,0.141,0.314-0.359,0.077-0.115c-0.03,0.03-0.062,0.058-0.093,0.086
			c-0.164,0.143,0.344-0.256,0.166-0.128c-0.074,0.053-0.153,0.098-0.233,0.142c-0.042,0.022-0.084,0.042-0.127,0.062
			c-0.208,0.098,0.396-0.161,0.181-0.077c-0.188,0.073-0.383,0.123-0.58,0.162c-0.407,0.081,0.372-0.037,0.041-0.001
			c-0.103,0.011-0.207,0.016-0.31,0.019c-0.187,0.005-0.373-0.005-0.558-0.027c0.642,0.075-0.019-0.021-0.204-0.083
			c-0.29-0.098,0.406,0.199,0.077,0.03c-0.13-0.067-0.408-0.287,0.064,0.079c-0.062-0.047-0.115-0.103-0.166-0.16
			c0.361,0.414,0.167,0.235,0.095,0.084c0.223,0.462,0.139,0.349,0.1,0.217c-0.035-0.122-0.044-0.347,0.026,0.246
			c-0.019-0.155,0.049-0.497-0.042,0.104c0.015-0.096,0.044-0.19,0.077-0.281c0.081-0.228-0.172,0.381-0.063,0.156
			c0.026-0.055,0.057-0.107,0.087-0.16c0.063-0.109,0.361-0.509,0.041-0.095c0.101-0.13,0.21-0.251,0.322-0.372
			c0.279-0.299,0.59-0.567,0.906-0.826c0.635-0.517,0.534-1.587,0-2.121C163.316,17.958,162.449,18.064,161.816,18.58L161.816,18.58
			z"/>
	</g>
</g>
<g>
	<g>
		<path d="M169.723,5.194c0.58-0.498,0.644-0.729,0.191-0.692c0.379,0.297,0.602,0.784,0.829,1.193
			c0.444,0.798,0.765,1.724,0.792,2.639c0.075,2.509-1.483,4.927-2.141,7.288c-0.521,1.867,2.374,2.659,2.893,0.798
			c1.182-4.24,3.157-7.421,1.269-11.784c-1.368-3.161-4.499-4.316-6.424-0.956C166.169,5.361,168.761,6.872,169.723,5.194
			L169.723,5.194z"/>
	</g>
</g>
<g>
	<g>
		<path d="M167.943,9.18c0.448-1.583,1.333-2.976,2.449-4.172c0.495-0.531,1.077-0.992,1.771-1.22
			c0.942-0.309,1.324,1.496,1.489,2.055c0.475,1.602-0.866,3.3-1.617,4.59c-0.925,1.59-1.505,3.252-1.488,5.105
			c0.007,0.792,0.677,1.534,1.5,1.5c0.72-0.03,1.152-0.092,1.847-0.295c1.853-0.541,1.063-3.437-0.798-2.893
			c-0.35,0.063-0.699,0.125-1.049,0.188c0.5,0.5,1,1,1.5,1.5c-0.025-2.762,2.109-4.804,2.937-7.331
			c0.715-2.184-0.129-5.369-2.013-6.744c-4.134-3.019-8.49,3.633-9.421,6.918C164.522,10.247,167.417,11.038,167.943,9.18
			L167.943,9.18z"/>
	</g>
</g>
<g>
	<g>
		<path d="M171.228,19.545c-0.897,0.906-1.997,2.692-0.639,3.765c1.014,0.801,2.283,0.692,3.478,0.419
			c1.094-0.25,2.166-0.713,3.027-1.438c0.522-0.439,0.777-1.035,0.846-1.699c0.084-0.809-0.509-1.46-1.104-1.897
			c-0.553-0.406-1.316-0.597-1.977-0.742c-0.798-0.175-1.62,0.229-1.845,1.047c-0.208,0.756,0.249,1.67,1.047,1.845
			c0.312,0.068,0.621,0.148,0.923,0.252c0.446,0.154-0.228-0.117,0.066,0.027c0.095,0.046,0.185,0.101,0.271,0.161
			c-0.438-0.302-0.215-0.176-0.112-0.067c0.141,0.149-0.256-0.355-0.148-0.189c0.069,0.105,0.116,0.314-0.096-0.243
			c0.09,0.236-0.013-0.494-0.027-0.194c0.024-0.501,0.07-0.425,0.032-0.281c-0.05,0.186,0.189-0.418,0.104-0.241
			c-0.058,0.122-0.245,0.345,0.121-0.128c-0.048,0.062-0.104,0.118-0.161,0.172c-0.031,0.029-0.063,0.057-0.096,0.084
			c-0.168,0.142,0.341-0.257,0.16-0.125c-0.079,0.058-0.161,0.11-0.244,0.16c-0.167,0.102-0.342,0.19-0.52,0.272
			c-0.388,0.18,0.31-0.122-0.008,0.004c-0.108,0.042-0.218,0.082-0.329,0.119c-0.416,0.142-0.845,0.247-1.278,0.313
			c0.636-0.096-0.028-0.006-0.207-0.002c-0.089,0.002-0.179-0.002-0.268-0.008c-0.302-0.022,0.468,0.088,0.125,0.012
			c-0.14-0.031-0.396-0.152,0.164,0.087c-0.283-0.121,0.171,0.159,0.132,0.124c-0.092-0.081-0.187-0.282,0.166,0.222
			c-0.07-0.1-0.111-0.339,0.106,0.263c-0.081-0.224,0.011,0.502,0.035,0.198c-0.042,0.525-0.064,0.404-0.025,0.263
			c0.032-0.116,0.133-0.31-0.094,0.207c0.039-0.09,0.092-0.174,0.145-0.256c0.232-0.358-0.208,0.239,0.032-0.043
			c0.1-0.119,0.208-0.23,0.317-0.34c0.575-0.581,0.581-1.541,0-2.121C172.774,18.969,171.803,18.964,171.228,19.545L171.228,19.545z
			"/>
	</g>
</g>
<g>
	<g>
		<path d="M52.135,26.208c3.813,0.157,17.06-8.5,10.324-11.965c-1.717-0.883-3.235,1.706-1.514,2.591
			c0.525,0.27,0.358,0.381-0.094,0.965c-0.756,0.977-1.768,1.771-2.764,2.485c-1.492,1.07-4.099,3-5.952,2.924
			C50.2,23.128,50.208,26.129,52.135,26.208L52.135,26.208z"/>
	</g>
</g>
<g>
	<g>
		<path d="M6.583,11.675c4.172,1.56,8.568,2.447,12.673,4.193c-0.248-0.432-0.496-0.864-0.743-1.295c0,0.081,0,0.161,0,0.241
			c0.367-0.482,0.734-0.964,1.101-1.446c-4.453,1.485-8.88,3.012-13.148,4.978c-1.756,0.809-0.23,3.394,1.514,2.591
			c4.031-1.856,8.227-3.273,12.432-4.676c0.638-0.213,1.101-0.752,1.101-1.446c0-0.081,0-0.161,0-0.241
			c0-0.476-0.274-1.096-0.743-1.295C16.418,11.426,11.8,10.435,7.38,8.782C5.564,8.103,4.788,11.004,6.583,11.675L6.583,11.675z"/>
	</g>
</g>
<g>
	<g>
		<path d="M19.497,10.634c4.443,2.376,9.16,3.936,14.114,4.831c1.891,0.342,2.7-2.549,0.798-2.893
			c-4.702-0.85-9.177-2.271-13.398-4.529C19.306,7.131,17.791,9.721,19.497,10.634L19.497,10.634z"/>
	</g>
</g>
<g>
	<g>
		<path d="M31.563,13.59c-4.317,2.073-8.316,4.887-13.156,5.57c0.487,0.835,0.973,1.671,1.459,2.507
			c0.14-0.153,0.28-0.306,0.42-0.458c1.514-1.159,0.022-3.767-1.514-2.591c-0.4,0.306-0.719,0.534-1.028,0.928
			c-0.962,1.229-0.071,2.723,1.459,2.507c5.09-0.717,9.333-3.691,13.872-5.872C34.821,15.343,33.298,12.757,31.563,13.59
			L31.563,13.59z"/>
	</g>
</g>
<g>
	<g>
		<path d="M17.808,9.593c5.286,3.029,11.33,4.751,17.409,5.059c1.935,0.098,1.925-2.903,0-3c-5.542-0.28-11.078-1.889-15.894-4.649
			C17.641,6.039,16.13,8.631,17.808,9.593L17.808,9.593z"/>
	</g>
</g>
<g>
	<g>
		<path d="M29.75,14.306c-3.082,1.103-6.191,2.166-9.045,3.792c-1.681,0.958-0.169,3.55,1.514,2.591
			c2.634-1.5,5.486-2.473,8.33-3.49C32.355,16.552,31.576,13.652,29.75,14.306L29.75,14.306z"/>
	</g>
</g>
</svg>
