<?xml version="1.0" encoding="utf-8"?>
<!-- Generator: Adobe Illustrator 16.0.0, SVG Export Plug-In . SVG Version: 6.00 Build 0)  -->
<!DOCTYPE svg PUBLIC "-//W3C//DTD SVG 1.1//EN" "http://www.w3.org/Graphics/SVG/1.1/DTD/svg11.dtd">
<svg version="1.1" id="Layer_1" xmlns="http://www.w3.org/2000/svg" xmlns:xlink="http://www.w3.org/1999/xlink" x="0px" y="0px"
	 width="382.676px" height="82.205px" viewBox="0 0 382.676 82.205" enable-background="new 0 0 382.676 82.205"
	 xml:space="preserve">
<g>
	<path d="M92.37,43.093c-26.75,0.25-53.249,0.5-79.999,0.75v19.5c2.5-1,5-2,7.25-3c0.25,0.5,0.5,0.75,0.75,1c-1.25,2.5-2.5,5-4,7.5
		c-1,2-2.25,3.5-3.25,5.25c-0.75,1.75-1.75,1.75-3,0.75c-3.75-3.25-7-7-8.75-12c-0.25-0.25,0-1,0-1.75c0.5,0.25,1,0.5,1.5,0.75
		c2,1,4,1.75,6.25,3v-20c-0.25-3.5,0.25-4.25,3.75-4.25h53.501c7.75,0.25,15.5,0.75,23.5,1c0.75,0,1.75,0.25,2.5,0.5v1H92.37z"/>
	<g>
		<path d="M129.132,27.799c-6,5.75-4.5,13,0.75,18.5c3,2.75,11.5,7.75,13,1c0.5-2-2.5-2.75-2.75-1c-1,3.75-7.25-1.5-8.5-2.75
			c-4-4-4.75-9.5-0.5-13.5C132.632,28.799,130.382,26.549,129.132,27.799z"/>
		<path d="M128.132,39.549c5.5,0.5,10.75-0.75,15.75-2.75c1.75-0.75,1-3.75-0.75-3c-5,2-9.75,3.25-15,2.75
			C126.131,36.549,126.131,39.549,128.132,39.549L128.132,39.549z"/>
		<path d="M125.133,34.3c8.75,1.25,16.75-1.75,25.5-3c1.75-0.25,1-3-1-2.75c-7.75,1-15.75,4-23.75,2.75
			C123.882,31.05,123.132,34.05,125.133,34.3L125.133,34.3z"/>
		<path d="M130.133,50.298c7.5-0.75,14.5-3.25,21.75-6c1.75-0.5,1-3.5-0.75-2.75c-7,2.5-13.75,5-21,5.75
			C128.133,47.298,128.133,50.298,130.133,50.298L130.133,50.298z"/>
		<path d="M170.881,35.799c-1-11.75-26-6-23.75,0.75c1,3.5,7.5,4.5,10.5,5.25c5,1.25,11.25,1.75,15.75,4.25v-2.5
			c-7,5-18,3.25-26,3.25c-1.75,0-1.75,3,0,3c8.5,0,20,1.75,27.5-3.75c1-0.5,1-1.75,0-2.5c-5.25-3-12.5-3.5-18.25-5
			c-1-0.25-7.25-2.25-6.5-3c3-3.25,17.25-6.25,17.75,0.25C168.131,37.549,171.131,37.549,170.881,35.799L170.881,35.799z"/>
		<path d="M226.633,22.299c-10.25-6.5-22.5,12-21.25,21c1.75,12.75,24.25,7.5,26.25-2.75c0.25-2-2.5-2.75-3-1
			c-1.5,8.25-20.5,12.5-20.25,2c0-6.25,9-21.5,16.75-16.5C226.883,26.049,228.383,23.299,226.633,22.299L226.633,22.299z"/>
		<path d="M251.881,28.8c-13.25-6.25-24.5,16-9.5,19.751c6.5,1.5,15.5-0.5,15.75-8.25c0.5-7.75-8.5-11.5-14.75-12
			c-2-0.25-2,2.75,0,3c5,0.25,10.75,2.5,11.749,8c1.25,6-6.749,6.749-10.75,6.5c-12.25-1.25-4-19,6-14.25
			C252.13,32.301,253.63,29.801,251.881,28.8L251.881,28.8z"/>
		<path d="M260.133,32.551c3.249,5.5,6,11,11.25,15c0.5,0.5,1,0.25,1.5,0c9.5-4,6-14.5-2-18c-1.75-0.75-3.25,2-1.5,2.75
			c6,2.5,9.5,9.5,2,12.75h1.5c-4.75-3.5-7.25-9-10-14C261.883,29.551,259.133,31.051,260.133,32.551L260.133,32.551z"/>
		<path d="M278.631,26.049c0,7,0.75,14.25,2.75,21.25c0.5,1.5,2.25,1.25,2.75,0c0.5-1,1-2,1.25-3c1-1.75-1.75-3.25-2.5-1.75
			c-0.75,1.25-1,2.5-1.5,3.75h2.75c-1.75-6.5-2.5-13.5-2.5-20.25C281.631,24.05,278.631,24.05,278.631,26.049L278.631,26.049z"/>
		<path d="M279.881,29.05c4.25-1.75,14.25-3.25,17.5,1.25c0.5-0.75,0.75-1.5,1-2.25c-7.75,2.25-16,2.5-24.25,3.25
			c-2,0.25-2,3.25,0,3c8.5-0.75,17-1,25-3.5c1-0.25,1.5-1.25,1-2c-4.5-5.75-15-5-21-2.75C277.381,26.8,278.131,29.55,279.881,29.05
			L279.881,29.05z"/>
		<path d="M317.877,30.3c-5.75-2.25-13.5-4.25-18.75,0.5c-4,3.5,5,5.5,6.75,6c3,0.5,5.75,1,8.25,2.5c4,2-1.25,2.75-3.25,3.25
			c-6.5,1.5-13.5,1.75-20,1.75c-2,0-2,3,0,3c6,0,12-0.5,18-1.5c3.25-0.5,9.75-1.25,10.25-5.25c0.5-3.75-7.25-5.75-9.75-6.25
			c-1.5-0.25-3-0.5-4.5-0.75c-0.5-0.25-3.75-0.75-2.75-1.25c4.25-3,10.5-0.75,15,1C318.877,34.05,319.627,31.05,317.877,30.3
			L317.877,30.3z"/>
		<path d="M224.881,26.299c-6-11.499-21,6-19.75,14.25c0.25,1.75,3.25,1,3-1c-1-5,10.25-19.25,14.25-11.749
			C223.381,29.55,225.881,28.05,224.881,26.299L224.881,26.299z"/>
		<path d="M241.131,28.8c-3.75,1.25-7.5,3-9,7c-1.25,3.25,0.5,6.5,2.5,9c5,5.5,14.75,7.5,20.5,2c1.25-1.5-0.75-3.5-2.25-2.25
			c-4.25,4.25-11,2.5-15-1c-1.75-1.25-3.5-3.75-3.25-6c0.5-3.5,4.75-5,7.5-6C243.881,31.05,243.131,28.05,241.131,28.8L241.131,28.8
			z"/>
		<path d="M218.883,25.049c-5.5-0.75-10,2-12.75,7c-0.75,1.75,1.75,3.25,2.75,1.5c2-3.5,5-6.25,9.25-5.5
			C220.133,28.299,220.883,25.299,218.883,25.049L218.883,25.049z"/>
		<path d="M203.632,41.551c-4.5,14.25,21,9.25,27.25,6c1.75-0.75,0.25-3.5-1.5-2.5c-4.25,2.25-26,7-22.75-2.75
			C207.132,40.551,204.382,39.801,203.632,41.551L203.632,41.551z"/>
	</g>
	<path d="M94.382,53.799c11.25-2.25,220.751-2.25,225.001,0.25c-1.75,0.25-3.5,0.75-5.25,0.75c-22.251,0-44.502,0.25-66.752,0.25
		c-39.999,0-80.248-0.25-120.25-0.5c-9.75,0-19.25-0.25-29.001-0.5c-1.25,0-2.5,0-3.75-0.25H94.382z"/>
	<g>
		<path d="M98.881,43.05c0.75,7.5,8,9.5,14.5,9.5c4.75,0,14.5-1.5,12.75-8.5c-1.5-7-10-9.5-15.5-12.5c-4-2.25-9.5-6-2.5-8.75
			c3.5-1.25,8.25-1.5,12.25-0.75c1.75,0.5,2.5-2.5,0.75-2.75c-5.25-1.25-12.75-1-17,2.25c-4.5,3.5-2.25,7.75,1.5,10.5
			c5,3.5,17.25,6.251,17.75,13.25c0.5,6.75-20.5,5.75-21.5-2.25C101.631,41.3,98.631,41.3,98.881,43.05L98.881,43.05z"/>
		<path d="M100.882,23.549c-10,5,19,21.25,22.25,23.5c1.75,1.25,3.25-1.5,1.5-2.5c-4-2.75-8.25-5.25-12.25-8
			c-1.25-0.75-12.75-9-10-10.5C104.132,25.299,102.632,22.799,100.882,23.549L100.882,23.549z"/>
		<path d="M100.633,44.55c-3.5,9.5,11,9,16.5,6.75c1.75-1,0.25-3.5-1.5-2.75c-3.25,1.5-14.25,2.75-12.25-3.25
			C104.133,43.55,101.133,42.55,100.633,44.55L100.633,44.55z"/>
		<path d="M102.132,27.549c0,9.75,14.25,6.25,18.75,12c1.25,1.5,3.25-0.75,2.25-2.25c-2.25-2.5-5.75-3.25-9-4c-3-0.75-9-1.5-9-5.75
			C105.132,25.549,102.132,25.549,102.132,27.549L102.132,27.549z"/>
		<path d="M109.633,35.048c3,1.75,6,3.5,8.75,5.5c1.5,1.25,3,2.5,3.75,4.25c1,1.75-1.5,3-3,3.5c-1.75,0.75-0.25,3.5,1.5,2.75
			c12.75-5.5-4-15.5-9.5-18.5C109.383,31.548,107.883,34.048,109.633,35.048L109.633,35.048z"/>
	</g>
</g>
</svg>
