<?xml version="1.0" encoding="utf-8"?>
<!-- Generator: Adobe Illustrator 16.0.0, SVG Export Plug-In . SVG Version: 6.00 Build 0)  -->
<!DOCTYPE svg PUBLIC "-//W3C//DTD SVG 1.1//EN" "http://www.w3.org/Graphics/SVG/1.1/DTD/svg11.dtd">
<svg version="1.1" id="Layer_1" xmlns="http://www.w3.org/2000/svg" xmlns:xlink="http://www.w3.org/1999/xlink" x="0px" y="0px"
	 width="126.992px" height="31.707px" viewBox="0 0 126.992 31.707" enable-background="new 0 0 126.992 31.707"
	 xml:space="preserve">
<g>
	<g>
		<path d="M39.055,6.536c-0.664,3.49,0.274,6.949,0.008,10.465c-0.267,3.463-0.837,6.815,0.81,10.024
			c0.502,0.979,2.088,0.979,2.591,0C42.843,26.286,43.04,25.8,43.281,25c0.561-1.857-2.335-2.645-2.893-0.798
			c-0.174,0.437-0.346,0.873-0.518,1.309c0.864,0,1.729,0,2.591,0c-1.321-2.575-0.666-5.754-0.398-8.51
			c0.311-3.23-0.725-6.469-0.115-9.667C42.307,5.443,39.416,4.637,39.055,6.536L39.055,6.536z"/>
	</g>
</g>
<g>
	<g>
		<path d="M39.744,5.73c2.877,1.698,3.846,5.672,6.715,7.544c3.354,2.188,5.286-2.396,6.837-4.417
			c1.18-1.535-1.43-3.025-2.591-1.514c-0.763,0.994-1.272,2.157-2.086,3.116c-0.813,0.96-2.308-1.426-2.724-1.979
			c-1.383-1.84-2.602-4.139-4.64-5.342C39.588,2.154,38.08,4.748,39.744,5.73L39.744,5.73z"/>
	</g>
</g>
<g>
	<g>
		<path d="M51.278,12.169c0.672-3.315,3.137-6.313,5.448-8.672c-0.854-0.354-1.707-0.707-2.563-1.061
			c-0.024,0.609-0.116,1.181-0.28,1.768c-0.521,1.867,2.373,2.658,2.895,0.798c0.234-0.837,0.35-1.698,0.387-2.565
			c0.059-1.32-1.67-1.97-2.561-1.061c-2.655,2.709-5.448,6.192-6.221,9.995C48.002,13.26,50.894,14.064,51.278,12.169L51.278,12.169
			z"/>
	</g>
</g>
<g>
	<g>
		<path d="M52.667,3.602c0.232,7.346,3.084,14.298,3,21.667c-0.021,1.936,2.979,1.933,3,0c0.084-7.386-2.768-14.321-3-21.667
			C55.606,1.672,52.606,1.667,52.667,3.602L52.667,3.602z"/>
	</g>
</g>
<g>
	<g>
		<path d="M106.539,9.51c-1.067,4.44-0.947,9.09-0.796,13.629c0.055,1.662,0.818,5.238,3.256,3.547
			c1.577-1.096,0.08-3.696-1.514-2.592c1.231,0.785,1.665,0.67,1.296-0.345c-0.031-0.397-0.05-0.798-0.058-1.198
			c-0.033-1.002-0.016-2.008-0.024-3.011c-0.033-3.121-0.002-6.181,0.733-9.232C109.884,8.427,106.991,7.629,106.539,9.51
			L106.539,9.51z"/>
	</g>
</g>
<g>
	<g>
		<path d="M71.342,12.911c5.458-0.145,10.77-1.917,16.247-1.26c-0.5-0.5-1-1-1.5-1.5c0,0.047,0,0.093,0,0.14c0.5-0.5,1-1,1.5-1.5
			c-0.467,0.046-0.934,0.093-1.398,0.14c-1.906,0.19-1.925,3.192,0,3c0.467-0.046,0.934-0.093,1.398-0.14
			c0.813-0.081,1.5-0.621,1.5-1.5c0-0.047,0-0.093,0-0.14c0-0.891-0.688-1.403-1.5-1.5C82.1,7.993,76.807,9.766,71.342,9.911
			C69.412,9.962,69.407,12.962,71.342,12.911L71.342,12.911z"/>
	</g>
</g>
<g>
	<g>
		<path d="M69.422,11.831c0.063,1.943,0.835,3.44,2.688,4.166c1.702,0.667,3.898-0.02,5.514-0.619
			c1.657-0.615,1.271-2.729-0.397-2.946c-0.15-0.027-0.3-0.067-0.441-0.119c-0.228-0.104-0.041,0.221,0.056-0.004
			c0.341-0.789,0.16-2.039-0.896-2.203c-1.123-0.174-2.138-0.037-3.117,0.571c-1.639,1.018-0.134,3.614,1.515,2.591
			c0.248-0.154,0.493-0.317,0.806-0.269c-0.299-0.734-0.6-1.469-0.896-2.203c-1.104,2.575,0.378,4.299,2.978,4.637
			c-0.134-0.982-0.268-1.964-0.399-2.946c-0.997,0.37-2.02,0.705-3.09,0.74c-1.005,0.033-1.283-0.439-1.313-1.394
			C72.361,9.901,69.361,9.895,69.422,11.831L69.422,11.831z"/>
	</g>
</g>
<g>
	<g>
		<path d="M81.047,10.71c0.001,1.265,0.022,2.563,0.476,3.76c0.407,1.079,1.615,1.451,2.507,0.662
			c0.891-0.789,2.747-0.451,3.842-0.542c0.755-0.063,1.578-0.637,1.5-1.5c-0.113-1.25-0.454-2.293-1.542-3.009
			c-0.881-0.579-2.069-0.471-3.061-0.678c-1.89-0.396-2.691,2.496-0.798,2.893c0.603,0.126,1.213,0.174,1.819,0.258
			c0.56,0.078,0.529-0.021,0.58,0.536c0.5-0.5,1-1,1.5-1.5c-2.096,0.174-4.271-0.077-5.963,1.42
			c0.835,0.221,1.671,0.441,2.507,0.662c-0.364-0.966-0.365-1.942-0.367-2.962C84.044,8.776,81.044,8.776,81.047,10.71L81.047,10.71
			z"/>
	</g>
</g>
<g>
	<g>
		<path d="M74.109,12.728c0.341,0.604,0.577,1.239,0.829,1.883c0.349-0.615,0.698-1.23,1.047-1.845
			c-0.987,0.211-2.563,0.976-3.466,0.291c0.101,0.786,0.202,1.571,0.303,2.356c0.12-0.102,0.453-0.135,0.599-0.174
			c1.869-0.492,1.075-3.385-0.798-2.893c-0.729,0.192-1.344,0.456-1.922,0.945c-0.811,0.687-0.402,1.821,0.303,2.356
			c1.689,1.281,3.941,0.405,5.778,0.011c0.74-0.158,1.334-1.113,1.047-1.845c-0.345-0.881-0.666-1.773-1.131-2.599
			C75.75,9.528,73.158,11.04,74.109,12.728L74.109,12.728z"/>
	</g>
</g>
<g>
	<g>
		<path d="M80.188,12.857c1.324,0.416,2.703,0.578,4.062,0.84c0-0.964,0-1.928,0-2.893c-1.286,0.391-2.275,1.391-1.912,2.82
			c0.354,1.38,1.896,1.83,3.13,1.614c0.808-0.141,1.249-1.114,1.049-1.845c-0.232-0.844-1.041-1.188-1.847-1.047
			c0.072-0.013,0.145-0.044,0.218-0.002c0.385,0.257,0.464,0.641,0.236,1.152c-0.216,0.177-0.241,0.244-0.077,0.202
			c1.334-0.406,1.529-2.598,0-2.893c-1.357-0.262-2.736-0.424-4.062-0.84C79.134,9.383,78.349,12.279,80.188,12.857L80.188,12.857z"
			/>
	</g>
</g>
<g>
	<g>
		<path d="M87.148,12.157c0.44-0.098,1.227-0.296,1.622,0.034c-0.078-0.606-0.156-1.212-0.235-1.818
			c-0.293,0.416-0.521,0.849-0.729,1.313c-0.098,0.214-0.305,0.821-0.413,0.903c-0.282,0.209-0.851,0.155-1.179,0.104
			c-0.256-0.041-0.501-0.113-0.748-0.192c-0.021-0.007-0.014,0.594,0.208,0.009c0.688-1.813-2.215-2.589-2.893-0.798
			c-1.065,2.816,1.936,4.077,4.231,3.997c1.131-0.039,2.18-0.506,2.833-1.447c0.516-0.742,0.753-1.63,1.277-2.375
			c0.36-0.511,0.245-1.416-0.233-1.818c-1.334-1.118-2.896-1.17-4.541-0.806C84.462,9.682,85.263,12.574,87.148,12.157
			L87.148,12.157z"/>
	</g>
</g>
<g>
	<g>
		<path d="M77.645,9.911c-1.532-0.17-1.622,1.569-1.569,2.6c0.012,0.233,0.018,0.466,0.018,0.7c0,0.1-0.056,0.745-0.014,0.47
			c-0.019,0.123-0.23,0.676-0.095,0.405c-0.128,0.254,0.052-0.027,0.133-0.087c-0.268,0.198,0.229-0.042-0.132,0.028
			c-0.803,0.156-1.251,1.103-1.047,1.845c0.229,0.833,1.043,1.204,1.845,1.047c1.461-0.285,2.106-1.635,2.264-2.98
			c0.058-0.476,0.053-0.95,0.029-1.428c-0.009-0.197-0.021-0.393-0.031-0.589c-0.004-0.089-0.005-0.177-0.004-0.266
			c0.002-0.186-0.104,0.459-0.15,0.52c-0.181,0.179-0.359,0.359-0.538,0.538c0.008-0.003,0.015-0.007,0.021-0.011
			c-0.252,0.068-0.505,0.137-0.757,0.205c0.009,0.001,0.021,0.002,0.028,0.003c0.813,0.09,1.5-0.751,1.5-1.5
			C79.145,10.524,78.457,10.001,77.645,9.911L77.645,9.911z"/>
	</g>
</g>
<g>
	<g>
		<path d="M67.461,11.13c0.202,3.017,5.84,8.423,8.583,5.122c1.229-1.476-0.883-3.611-2.121-2.121
			c-0.188,0.229-0.103,0.112,0.053,0.098c-0.186,0.017-0.284-0.041-0.517-0.121c-0.468-0.162-0.921-0.566-1.289-0.887
			c-0.445-0.39-0.873-0.834-1.222-1.313c-0.16-0.219-0.298-0.453-0.427-0.691c-0.061-0.107-0.078-0.352-0.062-0.086
			C70.333,9.21,67.333,9.198,67.461,11.13L67.461,11.13z"/>
	</g>
</g>
<g>
	<g>
		<path d="M69.616,13.63c0.667,2.121,5.459,5.707,7.083,2.739c0.929-1.697-1.662-3.211-2.591-1.514
			c0.137-0.25,0.456-0.376,0.725-0.399c-0.166-0.007-0.156-0.002,0.028,0.014c-0.093-0.021-0.187-0.047-0.275-0.078
			c-0.177-0.055-0.552-0.276-0.854-0.472c-0.308-0.196-0.55-0.405-0.83-0.668c-0.042-0.04-0.438-0.479-0.28-0.274
			c-0.086-0.113-0.236-0.538-0.113-0.145C71.931,10.994,69.034,11.779,69.616,13.63L69.616,13.63z"/>
	</g>
</g>
<g>
	<g>
		<path d="M72.282,11.411c0-0.327,0-0.654,0-0.98c-0.5,0.5-1,1-1.5,1.5c1.931-0.24,3.846-0.271,5.764,0.086
			c1.893,0.353,2.698-2.539,0.798-2.893c-2.19-0.409-4.349-0.468-6.562-0.193c-0.811,0.101-1.5,0.606-1.5,1.5
			c0,0.327,0,0.654,0,0.98C69.282,13.345,72.282,13.345,72.282,11.411L72.282,11.411z"/>
	</g>
</g>
<g>
	<g>
		<path d="M76.245,10.95c4.382,0.103,8.905-0.386,13.046,1.347c1.784,0.747,2.557-2.158,0.798-2.893
			C85.707,7.57,80.881,8.058,76.245,7.95C74.309,7.904,74.313,10.904,76.245,10.95L76.245,10.95z"/>
	</g>
</g>
<g>
	<g>
		<path d="M84.871,15.927c0.858,0.521,1.866,0.632,2.836,0.431c0.801-0.165,1.253-1.094,1.047-1.843
			c-0.227-0.826-1.045-1.212-1.845-1.047c0.358-0.074-0.426-0.031-0.095,0.018c-0.1-0.017-0.195-0.041-0.29-0.069
			c-0.404-0.11,0.187,0.12-0.141-0.078c-0.698-0.424-1.645-0.158-2.053,0.538C83.915,14.588,84.173,15.503,84.871,15.927
			L84.871,15.927z"/>
	</g>
</g>
<g>
	<g>
		<path d="M82.588,12.531c-0.019,0.719-0.107,1.414-0.227,2.122c0.48-0.367,0.964-0.734,1.446-1.101c-0.046,0-0.095,0-0.141,0
			c0,1,0,2,0,3c2.108-0.001,4.211-0.034,6.281-0.475c0.84-0.179,1.201-1.082,1.047-1.845c-0.261-1.298-0.556-2.665-1.356-3.75
			c-1.059-1.431-2.58-1.769-4.271-1.499c-1.906,0.305-1.094,3.195,0.798,2.893c1.539-0.246,1.726,2.1,1.938,3.154
			c0.349-0.615,0.696-1.23,1.047-1.845c-1.802,0.383-3.649,0.367-5.483,0.367c-1.935,0-1.935,3,0,3c0.046,0,0.093,0,0.141,0
			c0.612,0,1.339-0.452,1.444-1.101c0.161-0.969,0.311-1.937,0.334-2.92C85.639,10.596,82.639,10.601,82.588,12.531L82.588,12.531z"
			/>
	</g>
</g>
<g>
	<g>
		<path d="M70.823,22.055c-0.094,0.7-0.188,1.401-0.28,2.103c-0.109,0.837,0.77,1.467,1.5,1.5c3.003,0.135,5.778-0.931,8.633-1.729
			c3.395-0.949,7.732-0.966,11.138-0.146c-0.367-0.482-0.734-0.964-1.103-1.446c-0.008,0.278,0.006,0.555,0.042,0.83
			c0.144,1.557,1.885,1.956,2.795,0.757c0.033-0.043,0.065-0.086,0.101-0.13c1.171-1.541-1.438-3.032-2.591-1.514
			c-0.033,0.043-0.065,0.086-0.101,0.129c0.934,0.252,1.864,0.505,2.795,0.757c-0.036-0.276-0.049-0.552-0.042-0.83
			c-0.008-0.651-0.45-1.29-1.101-1.446c-3.332-0.803-6.673-0.638-10.063-0.334c-3.593,0.322-6.854,2.266-10.504,2.103
			c0.5,0.5,1,1,1.5,1.5c0.093-0.7,0.188-1.401,0.28-2.103C74.079,20.143,71.076,20.167,70.823,22.055L70.823,22.055z"/>
	</g>
</g>
<g>
	<g>
		<path d="M67.435,6.183c-5.802,2.276-6.123,9.128-5.185,14.465c0.486,2.763,1.855,5.804,4.236,7.438
			c3.771,2.587,8.222,2.066,12.432,3.4c1.852,0.586,2.637-2.313,0.798-2.895c-4.96-1.57-11.428-0.367-13.842-6.158
			c-1.525-3.666-2.274-11.541,2.357-13.357C70.012,8.377,69.238,5.475,67.435,6.183L67.435,6.183z"/>
	</g>
</g>
<g>
	<g>
		<path d="M69.138,7.012c0.205,0.4,6.367-2.189,7.438-2.514c3.246-0.984,6.042-1.249,9.446-0.616
			c4.442,0.826,8.193,7.015,10.429,10.573c4.545,7.236-4.812,12.833-11.25,12.824c-1.935-0.004-1.935,2.996,0,3
			c5.381,0.008,14.986-3.938,15.752-10.213c0.44-3.604-1.561-6.775-3.571-9.612C95.204,7.38,92.841,3.752,89.49,1.91
			c-4.82-2.652-10.667-1.293-15.541,0.267c-2.322,0.743-9.316,2.628-7.401,6.35C67.433,10.247,70.021,8.729,69.138,7.012
			L69.138,7.012z"/>
	</g>
</g>
<g>
	<g>
		<path d="M38.388,6.334c0.929,4.152,5.935,5.908,8.386,8.995c1.203,1.515,3.311-0.623,2.121-2.121
			c-1.127-1.42-2.624-2.497-4.034-3.617c-1.323-1.05-3.189-2.307-3.581-4.055C40.858,3.649,37.966,4.449,38.388,6.334L38.388,6.334z
			"/>
	</g>
</g>
<g>
	<g>
		<path d="M4.111,8.663c4.337,4.128,9.891,6.244,15.303,8.567c1.758,0.754,3.288-1.83,1.517-2.59
			c-5.146-2.208-10.572-4.172-14.697-8.099C4.832,5.209,2.707,7.327,4.111,8.663L4.111,8.663z"/>
	</g>
</g>
<g>
	<g>
		<path d="M14.939,15.323c-2.675,1.101-5.244,2.417-7.858,3.651c-0.849,0.399-2.341,0.75-2.943,1.502
			c-0.898,1.119-0.103,2.916,1.459,2.508c0.104-0.024,0.208-0.061,0.308-0.104c1.807-0.646,1.028-3.546-0.798-2.893
			c-0.102,0.043-0.203,0.076-0.31,0.102c0.487,0.835,0.975,1.671,1.459,2.508c-0.302,0.377,0.61-0.229,0.86-0.348
			c0.454-0.212,0.909-0.42,1.363-0.631c2.421-1.129,4.784-2.387,7.256-3.404C17.5,17.49,16.729,14.587,14.939,15.323L14.939,15.323z
			"/>
	</g>
</g>
<g>
	<g>
		<path d="M18.772,13.823c-6.019,1.953-11.189,5.514-15.995,9.552c-1.483,1.246,0.648,3.357,2.121,2.121
			c4.396-3.696,9.165-6.993,14.672-8.781C21.402,16.121,20.618,13.224,18.772,13.823L18.772,13.823z"/>
	</g>
</g>
<g>
	<g>
		<path d="M16.414,8.398c2.13,1.638,4.366,3.016,6.798,4.16c0.932,0.438,1.896,0.809,2.854,1.177
			c0.966,0.371,2.761,0.602,3.545,1.261c1.47,1.237,3.603-0.874,2.121-2.121c-1.539-1.295-3.867-1.648-5.72-2.36
			c-2.931-1.125-5.606-2.802-8.083-4.708C16.395,4.627,14.904,7.236,16.414,8.398L16.414,8.398z"/>
	</g>
</g>
<g>
	<g>
		<path d="M30.748,14.307c-2.531,1.18-4.889,2.735-7.172,4.333c-1.858,1.301-3.846,2.689-5.2,4.539
			c-1.145,1.563,1.46,3.057,2.591,1.514c1.261-1.719,3.415-2.983,5.143-4.168c1.958-1.342,4-2.623,6.154-3.627
			C34.014,16.081,32.49,13.495,30.748,14.307L30.748,14.307z"/>
	</g>
</g>
<g>
	<g>
		<path d="M30.762,13.641c-2.061-1.144-4.606,0.555-6.316,1.639c-2.297,1.457-4.553,3.193-6.501,5.096
			c-1.386,1.354,0.737,3.474,2.121,2.121c1.312-1.281,2.773-2.419,4.252-3.5c0.865-0.632,4.262-3.137,4.931-2.766
			C30.94,17.171,32.453,14.58,30.762,13.641L30.762,13.641z"/>
	</g>
</g>
<g>
	<g>
		<path d="M102.903,2.61c-1.369,0.649-2.06,1.927-1.208,3.318c0.794,1.299,2.409,1.664,3.813,1.635
			c2.582-0.053,6.141-1.269,7.881-3.264c0.683-0.783,0.505-1.759-0.306-2.356c-2.511-1.854-6.361-1.92-9.014-0.333
			c-1.658,0.992-0.15,3.587,1.514,2.591c1.815-1.086,4.298-0.913,5.986,0.333c-0.104-0.786-0.203-1.571-0.304-2.356
			c-0.836,0.959-2.188,1.46-3.359,1.864c-0.65,0.224-1.34,0.406-2.023,0.492c-0.358,0.045-0.72,0.037-1.081,0.021
			c-0.073-0.017-0.147-0.034-0.224-0.051c-0.344-0.187-0.396,0.045-0.162,0.696C106.165,4.373,104.642,1.786,102.903,2.61
			L102.903,2.61z"/>
	</g>
</g>
<g>
	<g>
		<path d="M75.567,29.523c3.646,1.02,8.422,2.318,11.078-1.25c1.154-1.555-1.45-3.047-2.591-1.515
			c-1.511,2.028-5.776,0.405-7.689-0.129C74.498,26.109,73.707,29.004,75.567,29.523L75.567,29.523z"/>
	</g>
</g>
</svg>
