<?xml version="1.0" encoding="utf-8"?>
<!-- Generator: Adobe Illustrator 16.0.0, SVG Export Plug-In . SVG Version: 6.00 Build 0)  -->
<!DOCTYPE svg PUBLIC "-//W3C//DTD SVG 1.1//EN" "http://www.w3.org/Graphics/SVG/1.1/DTD/svg11.dtd">
<svg version="1.1" id="Layer_1" xmlns="http://www.w3.org/2000/svg" xmlns:xlink="http://www.w3.org/1999/xlink" x="0px" y="0px"
	 width="382.676px" height="82.205px" viewBox="0 0 382.676 82.205" enable-background="new 0 0 382.676 82.205"
	 xml:space="preserve">
<g transform="matrix(1.127 0 0 1.127 -16.442 -1.2007)">
	<g>
		<path d="M80.18,23.77c5.623,3.748,7.965,10.308,12.886,14.759c1.405,1.172,3.514-0.937,2.108-2.109
			c-5.388-4.452-7.731-11.011-13.354-14.993C80.18,20.255,78.774,22.833,80.18,23.77L80.18,23.77z"/>
		<path d="M92.128,39.467c3.514-4.687,8.434-7.966,11.245-13.12c0.937-1.405-1.405-3.046-2.343-1.405
			c-2.811,5.154-7.965,8.434-11.245,13.12C88.614,39.701,91.191,40.871,92.128,39.467z"/>
		<path d="M99.157,29.626c4.217,6.56,5.857,14.057,5.388,21.788c0,1.874,2.811,1.874,2.811,0c0.468-8.2-1.406-16.399-5.857-23.194
			C100.563,26.581,98.22,27.987,99.157,29.626L99.157,29.626z"/>
		<path d="M103.375,28.455c2.343,7.731,3.983,15.228,0.703,23.194c-0.703,1.639,1.875,2.342,2.577,0.702
			c3.514-8.433,1.874-16.399-0.469-24.833C105.484,25.878,102.907,26.581,103.375,28.455L103.375,28.455z"/>
		<path d="M81.588,24.004c-3.514,6.56-4.686,17.805,1.64,22.96c1.172,1.171,3.28-0.704,1.874-1.875
			c-5.154-4.451-4.217-14.291-0.937-19.679C85.102,24.004,82.525,22.599,81.588,24.004L81.588,24.004z"/>
		<path d="M79.479,27.518c0,7.263-1.405,18.274,7.497,21.319c1.64,0.469,2.343-2.108,0.703-2.812
			c-7.029-2.342-5.389-12.885-5.389-18.507C82.524,25.644,79.713,25.644,79.479,27.518L79.479,27.518z"/>
		<path d="M81.118,22.598c-3.983-1.64-3.515,4.451-3.515,6.56c0.234,6.794,1.172,12.885,6.092,17.805
			c1.406,1.405,3.28-0.703,2.109-1.874c-3.515-3.514-4.92-7.497-5.154-12.182c-0.234-1.172-0.234-2.577-0.234-3.749v-1.874
			c0-1.639,0.703-1.639-0.703-2.108C81.352,25.878,82.757,23.301,81.118,22.598L81.118,22.598z"/>
		<path d="M115.557,31.969c-2.577,2.577-10.777,9.605-5.154,13.354c7.497,4.92,18.039,2.108,25.536-1.639
			c1.64-0.704,0.234-3.047-1.405-2.343c-5.388,2.577-11.714,4.451-17.805,3.514c-1.405-0.234-2.811-0.703-3.983-1.405
			c-2.811-1.405,0-4.451,0.938-5.622c1.171-1.405,2.577-2.577,3.982-3.983C118.837,32.438,116.963,30.564,115.557,31.969
			L115.557,31.969z"/>
		<path d="M115.323,39.233c6.56-0.704,13.119-0.938,19.445-2.578c1.874-0.468,1.172-3.045-0.703-2.577
			c-6.091,1.406-12.416,1.875-18.742,2.343C113.449,36.655,113.449,39.467,115.323,39.233L115.323,39.233z"/>
		<path d="M114.853,34.78c4.451-0.937,8.903-1.405,13.354-1.405c1.874,0,1.874-2.811,0-2.811c-4.686,0-9.371,0.469-14.057,1.639
			C112.511,32.437,113.213,35.248,114.853,34.78L114.853,34.78z"/>
		<path d="M152.103,30.329c-5.388-3.28-15.931-1.874-15.228,6.326c0,0.469,0.468,1.171,1.172,1.406
			c2.577,0.233,11.714-2.11,12.885,1.17c1.874,5.155-11.479,5.389-14.057,4.686c-1.874-0.234-2.577,2.343-0.703,2.812
			c4.92,1.171,16.868,0.703,17.571-6.326c0.703-8.2-10.542-4.452-14.993-5.154c0.234,0.469,0.703,0.937,0.937,1.405
			c-0.468-5.857,7.497-6.092,11.011-3.749C152.338,33.844,153.743,31.266,152.103,30.329L152.103,30.329z"/>
		<path d="M190.524,24.004c-3.982-0.937-7.965,1.64-10.308,4.452c-4.686,4.92-5.154,12.182-3.514,18.508
			c2.811,11.245,17.102,4.685,22.49-0.235c1.406-1.405-0.468-3.28-1.874-2.109c-4.451,3.983-15.228,9.84-18.039,1.406
			c-1.64-4.686-0.703-10.308,2.108-14.525c1.405-2.577,5.154-5.623,8.435-4.686C191.462,27.283,192.165,24.707,190.524,24.004
			L190.524,24.004z"/>
		<path d="M112.277,38.528c2.108,0.937,4.217,0.937,6.325,0.703c0.937-0.234,1.171-1.172,1.171-1.64
			c-0.234-0.937-1.171-1.172-1.874-1.172c-1.64,0.235-3.28,0-4.92-0.468C111.339,35.248,110.636,38.059,112.277,38.528
			L112.277,38.528z"/>
		<path d="M112.277,31.736c0,0.703,0,1.172-0.234,1.874c0.469-0.702,4.217-1.171,5.388-1.639c2.577-0.468,5.857-1.405,8.434-0.468
			c1.64,0.468,2.343-2.344,0.703-2.811c-3.045-0.938-6.325,0-9.137,0.469c-1.874,0.468-5.856,0.702-7.262,2.343
			c-0.468,0.468-0.703,1.171-0.234,1.639v0.234C110.871,34.782,113.214,33.376,112.277,31.736L112.277,31.736z"/>
		<path d="M116.258,32.437c3.749-0.937,7.497,0.468,11.48,0.468c1.874,0.234,1.64-2.577,0-2.811c-4.217,0-8.2-1.405-12.182-0.469
			C113.681,30.095,114.384,32.671,116.258,32.437L116.258,32.437z"/>
		<path d="M194.04,30.563c0.468-6.091-7.264-4.685-11.012-3.514c-5.857,2.343-9.84,8.434-9.84,14.525c0,1.874,2.811,1.874,2.811,0
			c0-4.217,2.108-7.966,5.388-10.308c1.405-0.937,10.308-4.685,9.84-0.702C190.994,32.438,193.805,32.438,194.04,30.563
			L194.04,30.563z"/>
		<path d="M205.05,30.798c-4.92-0.469-9.137,2.577-10.074,7.497c-0.937,4.685,1.405,9.37,6.325,10.543
			c5.155,1.171,10.075-2.578,9.84-7.967c-0.234-4.919-4.685-8.668-9.371-7.496c-1.874,0.468-1.172,3.046,0.703,2.811
			c3.514-0.937,5.857,1.875,5.857,5.154c0.234,3.983-4.217,5.389-7.263,4.452c-3.045-0.938-3.748-4.452-3.278-7.263
			c0.702-3.514,3.748-5.154,7.261-4.919C206.924,33.844,206.924,31.033,205.05,30.798L205.05,30.798z"/>
		<path d="M208.097,31.969c-4.451-1.874-8.669-1.405-12.182,1.874c-2.578,2.577-4.452,7.731-3.046,11.48
			c2.577,6.794,13.354,3.515,18.039,1.172c1.64-0.703,0.234-3.046-1.406-2.343c-3.749,1.64-9.371,3.514-13.119,1.406
			c-2.577-1.64-0.703-6.092,0.469-7.966c1.874-3.748,6.091-4.685,9.839-3.28C208.331,35.015,209.737,32.673,208.097,31.969
			L208.097,31.969z"/>
		<path d="M213.951,30.329c-6.326,7.263,1.405,18.742,10.542,17.102c9.137-1.874,3.046-13.823-0.234-17.806
			c-1.171-1.405-3.28,0.469-2.108,1.874c2.108,2.577,7.027,9.84,3.045,12.652c-2.811,1.873-6.326,0-8.2-1.874
			c-2.811-2.811-3.748-7.028-1.171-10.074C216.996,30.798,215.123,28.924,213.951,30.329L213.951,30.329z"/>
		<path d="M233.632,49.305c0-3.983-0.468-7.966-0.468-12.182c0-3.748,0-7.497-0.937-11.245c-0.704-1.64-3.281-0.938-2.812,0.702
			c0.938,3.515,0.938,7.028,0.938,10.542c0,4.216,0.468,8.2,0.468,12.181C230.821,51.179,233.632,51.179,233.632,49.305
			L233.632,49.305z"/>
		<path d="M233.162,36.422c4.216,1.171,11.948-0.235,12.182-5.389c0.468-6.326-10.778-5.154-14.291-5.154
			c-1.874,0-1.874,2.812,0,2.812c3.28,0,8.434-0.938,11.246,1.406c1.64,1.405-1.874,3.045-2.812,3.279
			c-1.874,0.703-3.748,0.703-5.622,0.234C232.224,33.141,231.522,35.952,233.162,36.422L233.162,36.422z"/>
		<path d="M234.803,32.907c-2.576-0.235-4.92-0.235-7.496-0.235c-1.875,0-1.875,2.811,0,2.811c2.576,0,4.92,0,7.496,0.235
			C236.678,35.952,236.678,33.141,234.803,32.907z"/>
		<path d="M250.266,45.791c3.749,3.045,15.462,1.873,15.93-4.218c0.47-8.199-14.056-4.45-17.57-9.137
			c0,0.703-0.233,1.172-0.469,1.874c4.217-2.343,9.606-1.639,14.291-1.406c1.64,0,1.64-2.811,0-2.811
			c-5.155-0.234-11.011-0.937-15.696,1.874c-0.704,0.234-0.938,1.172-0.47,1.875c3.046,4.216,9.371,3.982,14.057,5.154
			c0.937,0.234,2.811,0.702,3.045,2.108c0,1.405-2.108,2.343-3.045,2.812c-2.577,0.702-6.56,1.171-8.669-0.469
			C250.266,42.277,248.86,44.854,250.266,45.791L250.266,45.791z"/>
	</g>
	<path d="M79.946,50.71c26.005,0.234,52.009,0.703,78.248,0.703h101.442c2.107,0,4.216-0.235,6.56-0.469v-0.937
		c-1.172,0-2.344-0.235-3.281-0.235c-22.49-0.234-44.979-0.234-67.237-0.234c-31.627,0-63.02-0.235-94.412-0.235
		c-7.263,0.235-14.291,0.704-21.32,0.938V50.71z"/>
	<path d="M268.778,42.043c23.896,2.576,47.792,1.874,72.157,1.874v19.445c-3.748-0.703-7.496-1.406-11.011-2.108
		c-0.236,0.234-0.47,0.469-0.47,0.702c0.47,0.704,0.938,1.64,1.64,2.343c3.046,2.811,5.857,5.623,8.668,8.669
		c1.64,1.64,2.343,1.172,3.515-0.234c1.406-2.109,2.811-3.983,4.451-5.858c0.47-0.703,1.64-1.172,2.343-1.64
		c0.702-0.468,0.938-1.171,1.405-1.639c-0.702-0.468-1.405-0.937-2.108-1.172c-1.406,0-2.811,0.235-4.217,0.235
		c-1.405-0.235-1.639-0.937-1.639-2.343c0.233-5.623,0-11.245,0-16.634c0-1.639-0.938-2.577-2.578-2.577h-4.217h-63.256
		c-1.639,0-3.046,0-4.686,0.234v0.704H268.778z"/>
</g>
</svg>
