<svg width="135mm" height="29mm" version="1.1" viewBox="0 0 135 29" xmlns="http://www.w3.org/2000/svg">
 <g fill="#010101">
  <g fill-rule="evenodd">
   <path d="m114.26 20.668c1.4281 0.42843 2.9276-0.21422 4.2843 0.49984-3.9987 0.85686-8.0688 0.78546-12.139 0.85686-19.279 0.57124-38.488 0.35703-57.767 0.35703-2.0708 0-4.0701-0.14281-6.1409-0.35703 0.14281-0.78546 0.71406-0.57124 1.2139-0.64265 3.8559-0.49984 7.7832-0.28562 11.639-0.28562 11.425-0.0714 22.85-0.0714 34.275-0.14281 8.2116 0 16.423-0.21422 24.635-0.28562z"/>
   <path d="m63.621 9.8093c-0.62092 0.74511-1.4281 0.93141-2.1733 1.2418-0.31047 0.12418-0.68302 0.24837-1.0556 0.37255-0.8693 0.37256-0.68302 1.1798-0.49675 1.6765 0.18628 0.55884 0.68302 0 1.0556-0.06209 0.49675-0.12418 0.9935-0.37256 1.4902-0.49674 0.31046-0.06209 0.74511-0.18628 0.8693 0.18628 0.18627 0.37256-0.12418 0.62093-0.43465 0.80721-0.68302 0.55884-1.4902 0.8693-2.2974 1.1177-1.366 0.43465-0.55884 1.366-0.43465 2.0491 0.18628 0.80721 0.8693 0.62092 1.366 0.31047 0.8693-0.37256 1.6144-0.8693 2.4216-1.3039 1.3039-0.68302 2.7941-0.74511 4.2223-0.68302h2.5458c-0.49675-0.80721-1.1177-0.93141-1.6765-1.1798-1.0556-0.43465-2.1112-0.74511-3.0426-1.4281-1.3039-0.9935-1.4281-2.2353-0.37256-3.4772 1.1177-1.3039 2.4216-1.987 4.1603-1.4902 0.49675 0.18628 0.9935 0.37256 1.0556 0.9935-0.37256 0.24837-0.68302-0.12418-1.0556-0.18628-0.62092-0.18628-1.3039-0.31047-1.9249-0.062089-0.93141 0.37255-1.6765 1.0556-1.8007 2.0491-0.18627 0.9935 0.80721 1.366 1.4902 1.6765 1.0556 0.49674 2.1733 0.8693 3.2288 1.366 0.74512 0.37256 1.4902 0.8693 1.3039 1.8628-0.18628 0.9935-1.0556 1.1798-1.8007 1.3039-1.6144 0.31047-3.2288 0.18628-4.8432 0.12419-0.49675-0.06209-0.8693 0.06209-1.1798 0.43465-0.55884 0.74511-1.366 1.1798-2.1733 1.5523-1.8007 0.80721-3.2288-0.0621-3.5393-1.987-0.31047-1.7386-0.0621-3.4772 0.12418-5.1538 0.0621-0.68302 0.31047-1.6765 1.5523-1.3039 0.24837 0.0621 0.62092-0.18628 0.93141-0.24837 0.80721-0.18628 1.6144-0.37256 2.4837-0.06209z" stroke-width=".86958"/>
   <path d="m54.855 10.554c-1.3039 1.4281-2.5458 2.5458-4.5949 1.1798 0.31046 2.1733 0.62092 4.0982 0.93141 6.0851 0.0621 0.49674 0.31047 1.1798-0.37256 1.366-0.86929 0.18628-0.86929-0.62092-0.93141-1.1177-0.31046-1.9249-0.55884-3.7876-0.86929-5.6505-0.18627-1.1177-0.55884-2.1733-1.2418-3.1047-0.18627-0.24837-0.37256-0.62093-0.0621-0.8693 0.31046-0.31047 0.62092 0.062097 0.8693 0.24837 0.80721 0.62092 1.6765 1.3039 2.5458 1.987 0.68302 0.49674 1.2418 0.37256 1.8007-0.24837 0.8693-0.8693 1.2418-1.9249 1.6765-3.0426 0.18627-0.43465 0.31046-1.0556 0.93141-0.93141 0.55884 0.12418 0.43465 0.74511 0.43465 1.1798 0 2.1112 0.0621 4.2223 0 6.3335-0.0621 1.2418 0.24837 2.2353 0.9935 3.2288 0.37256 0.43465 0.93141 0.9935 0.24837 1.4281-0.68302 0.43465-0.9935-0.24837-1.366-0.68302-0.9935-1.2418-1.3039-2.6079-1.1798-4.1603 0.12418-1.0556 0.12418-2.1733 0.18628-3.2288z" stroke-width=".86958"/>
   <path d="m118.76 7.9579c-1.0711-1.4995-2.4992-2.1422-4.3557-1.8565-0.92827 0.14281-0.99967 0.64265-0.35703 1.2139 0.85687 0.78546 1.7137 1.4995 2.5706 2.2136 1.2853 0.99968 2.4992 1.9994 3.2846 3.3561 1.2853 2.285 0.49984 3.8559-2.0708 4.2843-1.6423 0.21422-3.3561 0.35702-4.9984 0.35702-0.35703 0-0.99968 0.21422-1.0711-0.42843 0-0.42843 0.49984-0.71405 0.85686-0.78546 0.78547-0.21422 1.5709-0.42843 2.3564-0.57124 0.85686-0.14281 1.7137-0.21422 2.5706-0.28562 1.5709-0.28562 1.928-0.99968 0.92827-2.3564-0.78546-1.0711-1.8565-1.9994-2.9276-2.8562-0.99968-0.71405-2.0708-1.4995-2.7134-2.642-0.64265-1.2853-0.28562-2.1422 1.1425-2.4278 1.1425-0.21422 2.3564-0.07141 3.4989 0.35703 1.0711 0.49984 1.4995 1.2853 1.2853 2.4278z"/>
   <path d="m87.264 9.5288c-0.35702 0-0.64265 0-0.99967-0.071402-0.57124-0.07141-1.0711-0.42843-1.2139-0.99968-0.14281-0.78546 0.57124-0.85687 0.92826-1.0711 0.99969-0.49984 2.0708-0.64265 3.2132-0.57124 0.49984 0.07141 0.92828 0.28562 1.0711 0.78546 0.14281 0.49984-0.21421 0.78546-0.49984 1.0711-0.71406 0.64265-1.5709 0.92827-2.4992 0.85686z"/>
   <path d="m86.407 13.099c0.07141-0.85687 0.14281-1.4995 0.21421-2.0708 0.07141-0.42843 0.28563-0.78546 0.71406-0.78546 0.49984 0 0.71405 0.35703 0.71405 0.78546 0 1.6423 0.0714 3.2132 0.35703 4.7842 0.0714 0.42843-0.0714 0.78546-0.57124 0.85686-0.64265 0.07141-0.99968-0.28562-1.1425-0.85686-0.14281-0.99968-0.21422-1.9994-0.28562-2.7134z"/>
  </g>
  <path d="m90.617 3.1023c-0.14281-0.92827-0.85686-1.3567-1.6423-1.6423-0.78546-0.21422-1.5709-0.35703-2.3564-0.57124-1.4995-0.14281-3.0704 0.35703-4.5699-0.28562h-0.57125c-0.35702 0.57124-0.92827 0.35703-1.3567 0.42843-1.4281 0.21422-2.7848 0.42843-4.0701 0.99968 0.07141 0.71405 0.57124 0.35703 0.92827 0.35703 0.42844-0.07141 0.64265 0.071402 0.71406 0.57124 0.14281 1.7137 0.28562 3.4275 0.57124 5.1412 0.42844 2.7134 0.42844 5.4982 1.2853 8.1402 0.21422 0.57124 0.42844 1.2853 1.2139 1.0711 0.85686-0.28562 0.57124-0.99967 0.42843-1.5709-0.78545-2.0708-0.92826-4.2843-1.1425-6.4265-0.14281-0.71405 0.07141-0.92827 0.71406-1.0711 1.9279-0.28562 3.7131-0.92827 5.4982-1.5709 1.1425-0.42843 2.2136-0.92827 3.1418-1.6423 0.64265-0.42843 1.2853-0.99968 1.2139-1.9279zm-2.0708 0.57124c-2.5706 1.6423-5.4982 2.2136-8.3544 3.2132-0.49984 0.21422-0.57124-0.14281-0.71405-0.57124-0.21422-1.1425-0.49984-2.3564-0.78546-3.4989-0.14281-0.57124 0.14281-0.71406 0.64265-0.78546 1.2853-0.14281 2.642-0.28562 3.4989-0.35703 2.1422 0.14281 3.8559 0 5.4982 0.71406 0.71405 0.35703 1.0711 0.71405 0.21422 1.2853z"/>
  <path d="m111.62 12.956c-0.14281-0.28562-0.42843-0.21422-0.71406-0.21422-0.92826 0.14281-1.7137 0.57124-2.7134 0.49984-0.78546-0.0714-1.6423-0.21422-1.8565-0.99968-0.28563-0.85686 0.85686-0.57124 1.2139-0.92827 0.42843-0.42843 1.2853-0.71405 0.99968-1.3567-0.28563-0.64265-1.0711-0.21422-1.5709-0.14281-0.0714 0-0.0714 0.07141-0.14282 0.07141-0.35702 0-0.85686 0.57124-1.0711-0.07141-0.21421-0.64265 0.49985-0.64265 0.92827-0.78546 1.5709-0.49984 3.1418-0.99968 4.4271-2.1422 0.28563-0.21422 0.57124-0.49984 0.49984-0.78546-0.14281-0.42843-0.57125-0.35703-0.92827-0.28562-2.4278 0.49984-4.7128 1.2853-7.0691 2.1422-0.71405 0.28562-0.78546 0.85687-0.0714 1.5709 0.99967 1.0711 0.14281 2.7848 1.0711 3.9987 0 0-0.0714 0.0714-0.0714 0.14281-0.71406 0.99968-4.2129 0.78546-4.8556-0.28562-0.71406-1.1425-0.28562-4.0701 0.71405-4.927 0.28562-0.28562 1.0711-0.21422 0.71406-0.85687-0.28562-0.49984-0.92827-0.42843-1.4281-0.14281-1.1425 0.57124-1.6423 1.7137-1.928 2.8562-0.0714 0.28562-0.14281 0.57124-0.21422 0.85686 0.0714-0.35703 0.0714-0.64265-0.35702-0.85686-1.2139-0.14281-2.285 1.1425-3.8559 0.49984 1.2853-0.57124 2.4278-0.85686 3.2132-1.6423 0.21421-0.21422 0.85686-0.49984 0.14281-0.85686 0.42843-0.99968-0.0714-1.3567-0.92827-1.6423-0.92828-0.35703-1.7851-0.78546-2.642-1.3567-0.35702-0.21422-0.78546-0.71405-1.2139-0.21422-0.49984 0.57124 0.0714 0.92827 0.42843 1.2853 0.85686 0.99968 2.2136 1.2139 3.2846 1.8565-1.3567 0.49984-2.7848 0.92827-4.1415 1.4281-0.42844 0.14281-0.78547 0.35703-0.85688 0.85687-0.0714 0.92827-0.21422 1.7851-0.28563 2.7134-0.1428 3.1418 2.4278 4.8556 5.284 3.4989 0.78547-0.35703 1.5709-0.71406 2.1422-1.3567 0.35703-0.42843 0.57124-0.42843 0.99968-0.0714 1.9279 1.5709 3.9987 1.3567 5.998 0.21422 0.85687-0.49984 1.5709-0.78546 2.5706-0.49984 1.5709 0.49984 3.4275-0.14281 4.1415-1.2853 0.14281-0.21422 0.35703-0.42843 0.14281-0.78546zm-14.424 1.0711c-0.85686 0.35703-1.7137 0.71405-2.4992 1.0711-0.57125 0.28562-1.2139 0.35703-1.7851 0.0714-0.64265-0.35703-1.0711-0.99968-0.99968-1.6423 0.0714-0.78546 0.85687-0.35703 1.2853-0.42843 1.4995-0.21422 2.9276-0.49984 3.9987-1.5709 0.0714 0.07141 0.0714 0.21422 0.14281 0.35703 0.14282 0.71405 0.28563 1.4281-0.14281 2.1422z"/>
  <path d="m44.292 12.813c-6.5693-0.42843-13.139 0-19.779 0.57124-0.71406 0.0714-0.78546 0.64265-0.78546 1.2853-0.07141 1.2853-0.14281 2.5706-0.21422 3.7845-0.21421 2.7134-0.21421 2.7134-2.9276 2.9276-0.28562 0-0.57124 0.07141-0.85686 0.07141-0.35703 0.0714-0.71406 0.0714-0.78546 0.49984-0.14281 0.35703 0.07141 0.64265 0.35702 0.85686 1.8565 1.2853 2.999 3.2132 4.4985 4.8556 0.42844 0.42843 0.85686 0.92827 1.4995 0.64265 0.64265-0.28562 0.85687-0.92827 0.78546-1.5709-0.14281-0.57124 0.14281-1.0711 0.35703-1.5709 0.57124-0.99968 1.2853-1.9279 2.2136-2.5706 0.42844-0.28562 0.99968-0.57124 0.78546-1.2139-0.21421-0.71405-0.85686-0.57124-1.4281-0.64265-0.71405 0-1.4281 0.07141-2.1422 0.07141-0.71405 0.0714-1.0711-0.21422-0.85686-0.92827 0.28562-1.3567 0.28562-2.7848 0.21421-4.1415 0-0.71405 0.28562-1.0711 0.99968-1.0711 1.2139-0.0714 2.4278-0.21422 3.7131-0.28562 4.3557-0.21422 8.7829-0.35703 13.21-0.57124 0.71405 0 1.4995 0 2.1422-0.49984-0.21421-0.49984-0.57125-0.42843-0.99967-0.49984zm-18.066 9.6397c-0.42843 0.78546-0.85686 1.5709-1.3567 2.285-0.71406 0.92827-0.99967-0.14281-1.3567-0.42843-0.64265-0.42843-1.2853-0.78546-1.7851-1.5709 0.49984-0.14281 0.92827-0.35703 1.1425 0.28562 0.21422 0.64265 0.64265 0.71405 1.2139 0.78546 0.57124-0.64265 0.64265-2.0708 2.1422-1.3567z" fill-rule="evenodd"/>
 </g>
</svg>
