<?xml version="1.0" encoding="utf-8"?>
<!-- Generator: Adobe Illustrator 16.0.0, SVG Export Plug-In . SVG Version: 6.00 Build 0)  -->
<!DOCTYPE svg PUBLIC "-//W3C//DTD SVG 1.1//EN" "http://www.w3.org/Graphics/SVG/1.1/DTD/svg11.dtd">
<svg version="1.1" id="Layer_1" xmlns="http://www.w3.org/2000/svg" xmlns:xlink="http://www.w3.org/1999/xlink" x="0px" y="0px"
	 width="183.648px" height="31.707px" viewBox="2.155 0 183.648 31.707" enable-background="new 2.155 0 183.648 31.707"
	 xml:space="preserve">
<g>
	<g>
		<path d="M55.109,25.63c-5.281-2.491,2.687-18.774,5.467-21.566c-0.606,0.078-1.212,0.156-1.817,0.235
			c6.587,4.732,4.11,15.625,10.025,21.364c1.138,1.104,2.772-0.027,2.507-1.459c-0.086-0.464-0.172-0.929-0.258-1.393
			c-0.352-1.9-3.243-1.093-2.893,0.798c0.086,0.464,0.172,0.929,0.258,1.393c0.835-0.487,1.671-0.973,2.507-1.459
			C64.735,17.554,67.639,7,60.272,1.708c-0.54-0.388-1.375-0.209-1.817,0.235C54.338,6.077,45.6,24.448,53.596,28.221
			C55.334,29.041,56.858,26.455,55.109,25.63L55.109,25.63z"/>
	</g>
</g>
<g>
	<g>
		<path d="M91.397,8.834c-6.088-4.838-13.727,2.41-16.743,7.604c-1.39,2.394-1.171,5.33,0.963,7.216
			c3.12,2.757,8.846,2.106,12.617,1.965c1.928-0.072,1.936-3.072,0-3c-3.151,0.117-14.258,0.961-10.739-5.101
			c1.789-3.08,7.84-9.694,11.78-6.563C90.774,12.146,92.912,10.038,91.397,8.834L91.397,8.834z"/>
	</g>
</g>
<g>
	<g>
		<path d="M50.256,21.182c2.276,1.933,5.829,0.468,8.264-0.395c3.565-1.264,6.905-3.154,10.497-4.329
			c1.83-0.599,1.046-3.496-0.798-2.893c-2.59,0.848-5.055,2.121-7.564,3.176c-1.282,0.539-6.953,3.443-8.277,2.319
			C50.912,17.816,48.779,19.928,50.256,21.182L50.256,21.182z"/>
	</g>
</g>
<g>
	<g>
		<path d="M107.504,9.461c-6.897-3.801-15.965,2.321-16.906,9.786c-1.073,8.513,13.962,4.939,17.826,3.538
			c1.804-0.654,1.025-3.554-0.798-2.893c-2.96,1.074-11.541,3.961-13.86,0.547c-1.269-1.868,1.968-5.293,3.057-6.407
			c2.482-2.54,5.917-3.772,9.168-1.98C107.686,12.986,109.199,10.396,107.504,9.461L107.504,9.461z"/>
	</g>
</g>
<g>
	<g>
		<path d="M134.088,7.468c-1.936-0.029-3.377,3.081-4.184,4.43c-1.307,2.188-3.103,5.211-2.571,7.87
			c0.633,3.168,4.123,4.396,6.928,4.399c3.384,0.003,6.871-1.502,9.754-3.156c1.678-0.962,0.167-3.555-1.514-2.591
			c-2.875,1.649-10.412,5.199-12.276,0.55c-0.5-1.247,1.396-3.993,1.96-5.019c0.468-0.851,0.992-1.67,1.536-2.474
			c0.181-0.267,0.373-0.525,0.576-0.775c0.522-0.648,0.604-0.222-0.21-0.234C136.023,10.498,136.021,7.498,134.088,7.468
			L134.088,7.468z"/>
	</g>
</g>
<g>
	<g>
		<path d="M130.951,17.402c3.846-0.338,7.612-1.625,11.258-2.827c1.828-0.603,1.045-3.5-0.798-2.893
			c-3.365,1.109-6.91,2.408-10.46,2.72C129.04,14.57,129.023,17.572,130.951,17.402L130.951,17.402z"/>
	</g>
</g>
<g>
	<g>
		<path d="M131.288,13.843c2.725-2.306,7.805-2.07,11.163-2.561c1.908-0.279,1.094-3.169-0.798-2.893
			c-4.102,0.599-9.159,0.516-12.486,3.333C127.688,12.973,129.821,15.084,131.288,13.843L131.288,13.843z"/>
	</g>
</g>
<g>
	<g>
		<path d="M111.8,11.817c-0.034,3.328-1.243,8.146,0.46,11.215c1.43,2.575,4.282,2.247,6.632,1.193
			c3.332-1.494,6.589-3.712,7.904-7.257c1.376-3.711-1.86-6.756-4.776-8.353c-1.697-0.929-3.211,1.662-1.514,2.591
			c2.116,1.158,4.413,2.887,3.158,5.53c-1.063,2.238-3.616,3.607-5.73,4.649c-2.06,1.015-3.188,0.961-3.362-1.484
			c-0.191-2.673,0.2-5.407,0.228-8.084C114.819,9.882,111.819,9.884,111.8,11.817L111.8,11.817z"/>
	</g>
</g>
<g>
	<g>
		<path d="M147.362,9.807c-1.4,3.539-2.115,10.716,0.868,13.646c0.461,0.454,1.255,0.606,1.817,0.235
			c0.398-0.263,0.71-0.482,1.028-0.833c1.296-1.429-0.819-3.558-2.121-2.121c-0.141,0.121-0.281,0.243-0.421,0.364
			c0.605,0.079,1.211,0.157,1.817,0.235c-1.187-1.166-0.991-3.648-0.973-5.166c0.022-1.843,0.192-3.832,0.876-5.561
			C150.967,8.803,148.065,8.03,147.362,9.807L147.362,9.807z"/>
	</g>
</g>
<g>
	<g>
		<path d="M151.621,1.767c-2.656-0.504-11.223,0.372-9.698,4.803c0.813,2.365,3.99,2.037,5.935,1.738
			c1.93-0.296,4.946-0.7,6.355-2.237c0.606-0.66,0.609-1.923-0.304-2.356c-1.884-0.894-3.759-1.053-5.741-0.351
			c-1.81,0.642-1.03,3.541,0.798,2.893c1.198-0.425,2.248-0.512,3.429,0.049c-0.102-0.786-0.203-1.571-0.304-2.356
			c-0.575,0.626-2.117,0.849-2.944,1.059c-1.388,0.352-3.06,0.733-4.485,0.403c0.36,0.083-0.272,0.637,0.562,0.173
			c0.604-0.336,1.341-0.478,2.009-0.63c1.085-0.248,2.528-0.497,3.59-0.296C152.713,5.018,153.52,2.127,151.621,1.767L151.621,1.767
			z"/>
	</g>
</g>
<g>
	<g>
		<path d="M156.507,4.202c-2.074,2.352-2.073,6.309-2.18,9.256c-0.128,3.523-0.028,7.763,1.704,10.938
			c0.616,1.128,2.438,0.893,2.742-0.358c0.138-0.57,0.139-0.973,0-1.543c-0.349,0.615-0.698,1.23-1.047,1.845
			c2.89-0.437,5.708-0.642,8.446-1.738c1.773-0.709,1-3.612-0.798-2.893c-2.721,1.089-5.573,1.304-8.446,1.738
			c-0.826,0.125-1.223,1.125-1.047,1.845c0-0.018,0-0.035,0-0.052c0.914-0.119,1.828-0.239,2.742-0.358
			c-1.36-2.492-1.294-5.794-1.308-8.554c-0.011-2.18-0.243-6.237,1.314-8.003C159.902,4.878,157.789,2.748,156.507,4.202
			L156.507,4.202z"/>
	</g>
</g>
<g>
	<g>
		<path d="M132.063,8.356c-2.463,2.73-4,8.608-2.215,12.042c2.382,4.585,8.56,3.636,12.604,2.253
			c1.819-0.622,1.038-3.521-0.798-2.893c-2.442,0.835-7.127,2.24-8.974-0.41c-1.499-2.149-0.078-7.118,1.504-8.872
			C135.476,9.045,133.361,6.917,132.063,8.356L132.063,8.356z"/>
	</g>
</g>
<g>
	<g>
		<path d="M111.55,10.09c-1.805,1.476-1.503,5.035-1.375,7.062c0.162,2.543,0.596,5.886,2.582,7.713
			c1.421,1.307,3.548-0.809,2.121-2.121c-1.375-1.265-1.55-3.857-1.703-5.592c-0.097-1.11-0.498-4.128,0.496-4.941
			C115.169,10.986,113.034,8.876,111.55,10.09L111.55,10.09z"/>
	</g>
</g>
<g>
	<g>
		<path d="M50.519,20.893c3.942-0.309,7.487-1.97,11.258-3c1.864-0.509,1.072-3.404-0.798-2.893
			c-3.481,0.951-6.826,2.608-10.46,2.893C48.603,18.042,48.588,21.044,50.519,20.893L50.519,20.893z"/>
	</g>
</g>
<g>
	<g>
		<path d="M52.813,27.619c-0.377-6.115,1.557-12.271,3.566-17.977c0.645-1.83-2.254-2.609-2.893-0.798
			c-2.095,5.945-4.067,12.4-3.674,18.775C49.932,29.541,52.933,29.552,52.813,27.619L52.813,27.619z"/>
	</g>
</g>
<g>
	<g>
		<path d="M52.133,24.054c-2.128-1.761,0.35-5.612,1.201-7.543c0.771-1.753-1.813-3.282-2.591-1.515
			c-1.435,3.26-4.266,8.254-0.731,11.179C51.49,27.398,53.625,25.288,52.133,24.054L52.133,24.054z"/>
	</g>
</g>
<g>
	<g>
		<path d="M5.385,10.864c1.945,1.56,4.279,2.15,6.655,2.78c3.422,0.908,6.497,2.641,9.883,3.635c0-0.964,0-1.928,0-2.893
			c-5.011,1.303-9.858,3.167-14.64,5.139c-1.762,0.727-0.991,3.63,0.798,2.893c4.781-1.972,9.628-3.836,14.64-5.139
			c1.463-0.38,1.401-2.481,0-2.893c-2.542-0.746-4.893-1.964-7.362-2.908c-2.515-0.961-5.688-1-7.853-2.736
			C6.013,7.545,3.875,9.654,5.385,10.864L5.385,10.864z"/>
	</g>
</g>
<g>
	<g>
		<path d="M5.768,18.731c-0.047,0.033-0.095,0.066-0.143,0.1c-0.573,0.398-0.856,0.996-0.689,1.694
			c0.003,0.013,0.006,0.025,0.009,0.038c0.142,0.594,0.809,1.17,1.446,1.101c4.152-0.454,8.309-2.707,12.126-4.239
			c1.772-0.711,0.999-3.614-0.798-2.893c-2.36,0.947-4.687,1.971-7.089,2.813c-1.214,0.425-3.027,1.186-4.239,1.318
			c0.482,0.367,0.964,0.734,1.447,1.101c-0.003-0.012-0.006-0.025-0.009-0.037c-0.229,0.564-0.459,1.129-0.689,1.694
			c0.047-0.033,0.095-0.066,0.143-0.099C8.858,20.227,7.361,17.625,5.768,18.731L5.768,18.731z"/>
	</g>
</g>
<g>
	<g>
		<path d="M23.358,11.131c4.733,2.658,9.927,4.281,15.079,5.914c0-0.964,0-1.928,0-2.893c-5.543,1.167-10.372,4.06-15.686,5.882
			c-1.819,0.624-1.038,3.522,0.798,2.893c5.307-1.82,10.152-4.716,15.686-5.882c1.527-0.321,1.335-2.469,0-2.893
			c-4.908-1.556-9.853-3.08-14.363-5.612C23.184,7.592,21.672,10.184,23.358,11.131L23.358,11.131z"/>
	</g>
</g>
<g>
	<g>
		<path d="M19.855,10.681c2.364,0.945,4.693,1.971,7.072,2.88c2.143,0.819,6.674,1.063,8.194,2.857
			c0.101-0.785,0.202-1.57,0.304-2.356c-3.958,2.514-8.722,3.588-12.37,6.599c-1.494,1.232,0.642,3.342,2.121,2.121
			c3.408-2.812,8.053-3.773,11.763-6.129c0.864-0.548,0.94-1.605,0.304-2.356c-1.514-1.787-4.091-1.93-6.212-2.546
			c-3.569-1.038-6.934-2.586-10.377-3.962C18.854,7.07,18.082,9.972,19.855,10.681L19.855,10.681z"/>
	</g>
</g>
<g>
	<g>
		<path d="M78.894,16.685c-0.745-2.583,3.46-4.682,5.26-5.678c0.865-0.479,1.837-0.736,2.789-0.983
			c0.491-0.127,0.98-0.206,1.485-0.247c0.597-0.048,0.396-0.37,0.123,0.309c-0.724,1.796,2.179,2.568,2.893,0.798
			c1.912-4.743-3.969-4.215-6.708-3.346c-3.856,1.223-10.124,5.126-8.733,9.945C76.537,19.337,79.432,18.548,78.894,16.685
			L78.894,16.685z"/>
	</g>
</g>
<g>
	<g>
		<path d="M93.706,20.965c-1.785-3.006,6.506-11.403,8.269-8.476c0.997,1.655,3.591,0.148,2.591-1.514
			c-4.333-7.198-16.991,5.54-13.45,11.503C92.102,24.14,94.695,22.632,93.706,20.965L93.706,20.965z"/>
	</g>
</g>
</svg>
